<svg width="36" height="32" viewBox="0 0 36 32" fill="none" xmlns="http://www.w3.org/2000/svg">
<g clip-path="url(#clip0_1_2523)">
<path d="M25.1156 2.29842H28.4878C29.2321 2.29842 29.5169 1.32972 28.8684 0.973979C28.7725 0.921987 28.6654 0.889149 28.5554 0.878204C28.3017 0.853575 28.0789 0.700334 27.9718 0.473209C27.859 0.240611 27.6165 0.00527704 27.0949 -0.000195852C26.6268 -0.00566874 26.3787 0.150309 26.2462 0.325441C26.0883 0.530675 25.8261 0.63466 25.5667 0.596349C25.296 0.558039 24.9661 0.599086 24.6898 0.886413C24.5347 1.04786 24.4304 1.24762 24.3881 1.4638C24.3063 1.90163 24.6616 2.29842 25.1156 2.29842Z" fill="#D5F2F7"/>
<path d="M1.95989 30.0347C1.95989 30.0347 -0.17733 29.8596 0.01158 26.7838C0.19767 23.708 2.52662 23.459 6.0285 25.4293C9.53038 27.3995 15.3161 24.4414 17.6507 24.0966C17.6507 24.0966 21.7588 23.5274 24.77 24.518C27.7813 25.5086 27.7447 23.4453 31.0069 23.3988C34.2691 23.3523 36.333 27.0465 35.958 28.4968C35.958 28.4968 36.1836 29.9034 34.4214 30.1661C32.6592 30.4315 1.95989 30.0347 1.95989 30.0347Z" fill="#B0B82D"/>
<path d="M22.8641 29.296H23.5971L23.8481 28.8938C23.7043 28.9457 23.5943 29.0415 23.521 29.1783L23.7071 28.4231C23.5774 28.5435 23.4223 28.8773 23.3913 29.0579L23.3998 28.2124C23.3124 28.3656 23.2447 28.7952 23.2306 29.0142C23.194 28.8253 23.1347 28.3848 23.0614 28.2124L23.0699 29.0579C23.022 28.8883 22.8669 28.5572 22.7541 28.4313L22.9402 29.1811C22.8697 29.0443 22.7569 28.954 22.6216 28.8828L22.8641 29.296Z" fill="#80953A"/>
<path d="M10.3066 28.6244H11.0397L11.2906 28.2221C11.1468 28.2741 11.0368 28.3699 10.9635 28.5067L11.1496 27.7514C11.0199 27.8746 10.8648 28.2057 10.8338 28.3863L10.8423 27.5407C10.7549 27.694 10.6872 28.1236 10.6731 28.3425C10.6365 28.1537 10.5773 27.7131 10.5039 27.5407L10.5124 28.3863C10.4645 28.2166 10.3094 27.8855 10.1966 27.7597L10.3827 28.5094C10.3122 28.3726 10.1994 28.2823 10.0641 28.2112L10.3066 28.6244Z" fill="#80953A"/>
<path d="M11.7166 29.0063H12.4497L12.7006 28.604C12.5568 28.656 12.4469 28.7518 12.3735 28.8886L12.5596 28.1333C12.4299 28.2565 12.2749 28.5876 12.2438 28.7682L12.2523 27.9226C12.1649 28.0759 12.0972 28.5055 12.0831 28.7244C12.0465 28.5356 11.9873 28.095 11.914 27.9226L11.9224 28.7682C11.8745 28.5986 11.7194 28.2674 11.6066 28.1416L11.7927 28.8914C11.7222 28.7545 11.6095 28.6642 11.4741 28.5931L11.7166 29.0063Z" fill="#80953A"/>
<path d="M31.6416 12.9321C31.5288 12.9677 31.4696 13.0881 31.4527 13.203C31.4499 13.2304 31.4471 13.255 31.4471 13.2824C31.4414 13.4165 31.4584 13.5506 31.4499 13.6819C31.4471 13.7968 31.4048 13.9063 31.3287 13.9939C31.2243 14.1061 31.058 14.1471 30.9029 14.1526C30.5984 14.1635 30.2967 14.1389 29.9922 14.117C29.8907 14.1088 29.7892 14.0896 29.6848 14.0814V11.2766C29.682 10.7238 29.2224 10.2778 28.6529 10.275H28.3878C27.8183 10.2778 27.3587 10.7238 27.3559 11.2766V11.6515C27.1049 11.6733 26.8512 11.6816 26.5974 11.6761C26.4423 11.6706 26.276 11.6296 26.1717 11.5174C26.0955 11.4298 26.0532 11.3203 26.0504 11.2054C26.042 11.0713 26.0589 10.9372 26.0532 10.8059C26.0532 10.7785 26.0504 10.7512 26.0476 10.7265C26.0335 10.6116 25.9715 10.4912 25.8587 10.4556C25.4019 10.3079 25.2497 10.9646 25.2525 11.2547C25.2553 11.8923 25.5232 12.4313 26.2309 12.4915C26.6031 12.5271 26.9809 12.5381 27.3559 12.5299V22.0554C27.322 23.1883 27.2403 24.2501 27.0655 24.6469C27.0655 24.6332 27.4658 24.6304 27.9734 24.6304C28.3145 24.6304 28.7065 24.6332 29.0561 24.6359C29.6031 24.6414 30.0486 24.6469 30.0486 24.6469L29.6848 18.8757V14.9653C30.1895 15.0392 30.7676 15.0091 31.2666 14.968C31.9772 14.9078 32.2422 14.3715 32.245 13.7312C32.2507 13.4411 32.0984 12.7871 31.6416 12.9321Z" fill="#893F36"/>
<path d="M25.8305 11.7965C25.6331 11.7472 25.447 11.6679 25.2807 11.5557C25.2637 11.4544 25.2581 11.3532 25.2553 11.2492C25.2525 10.9591 25.4047 10.3051 25.8615 10.4502C25.9743 10.4857 26.0335 10.6061 26.0504 10.7211C26.0532 10.7484 26.056 10.7758 26.056 10.8004C26.0617 10.9345 26.0448 11.0686 26.0532 11.1999C26.056 11.3149 26.0983 11.4243 26.1745 11.5119C26.2788 11.6241 26.4451 11.6651 26.6002 11.6706C26.7215 11.6734 26.8455 11.6734 26.9668 11.6679C26.6961 11.8759 26.1773 11.8813 25.8305 11.7965ZM29.6848 12.1221V11.2766C29.682 10.7238 29.2224 10.2778 28.6528 10.275H28.3878C27.8465 10.2778 27.401 10.68 27.3587 11.2027C27.6265 11.5146 28.0636 11.687 28.3455 11.7992C28.7092 11.9443 29.2027 12.1386 29.6848 12.1221ZM31.4555 14.3797C31.7205 14.3469 31.9743 14.262 32.2055 14.1334C32.2337 14.0021 32.2478 13.8653 32.2478 13.7312C32.2506 13.4411 32.0983 12.7871 31.6416 12.9349C31.5288 12.9704 31.4696 13.0908 31.4527 13.2058C31.4498 13.2331 31.447 13.2578 31.447 13.2851C31.4414 13.4192 31.4583 13.5533 31.4498 13.6846C31.447 13.7996 31.4047 13.909 31.3286 13.9966C31.2243 14.1088 31.0579 14.1498 30.9029 14.1553C30.7027 14.1608 30.5053 14.1526 30.3051 14.1416C30.5955 14.3523 31.0833 14.4235 31.4555 14.3797Z" fill="#4D2412"/>
<path d="M26.5466 9.24339C26.5466 8.32395 25.8164 7.5769 24.9169 7.5769C24.6265 7.5769 24.3417 7.65625 24.0936 7.80402C23.9075 7.58784 23.634 7.46196 23.3436 7.45923C22.853 7.45923 22.4442 7.8177 22.354 8.29111C21.9282 8.55107 21.6462 8.9889 21.6462 9.4842C21.6462 10.2832 22.3765 10.9318 23.2759 10.9318C23.4592 10.9318 23.6453 10.9044 23.8201 10.8497C24.2149 11.2273 24.8436 11.2383 25.2525 10.8743C25.9912 10.7156 26.5466 10.0452 26.5466 9.24339Z" fill="#688336"/>
<path d="M33.3269 14.1332C33.7442 13.9541 33.8925 13.392 33.6582 12.8778C33.4239 12.3637 32.8957 12.092 32.4784 12.2711C32.0611 12.4503 31.9127 13.0123 32.1471 13.5265C32.3814 14.0407 32.9096 14.3123 33.3269 14.1332Z" fill="#5A6C38"/>
<path d="M31.2548 13.9332C31.6721 13.7541 31.8205 13.192 31.5862 12.6778C31.3518 12.1636 30.8236 11.892 30.4063 12.0711C29.989 12.2502 29.8407 12.8123 30.075 13.3265C30.3093 13.8407 30.8376 14.1123 31.2548 13.9332Z" fill="#5A6C38"/>
<path d="M33.9778 12.4247C33.9778 11.757 33.3547 11.2179 32.5822 11.2179C32.3369 11.2179 32.0944 11.2726 31.8773 11.3821C31.7053 11.2207 31.4741 11.1304 31.2344 11.1331C30.8143 11.1331 30.4647 11.393 30.3857 11.7351C30.0192 11.9239 29.7795 12.2414 29.7795 12.5998C29.7795 13.18 30.4027 13.6479 31.1752 13.6479C31.3331 13.6479 31.4882 13.6287 31.6404 13.5877C31.9985 13.8613 32.5004 13.8695 32.8669 13.6068C33.5042 13.4919 33.9778 13.0048 33.9778 12.4247Z" fill="#799133"/>
<path d="M32.7355 6.48504C32.7355 6.47683 32.7355 6.46862 32.7355 6.46041C32.6452 4.8678 31.2327 3.64735 29.5804 3.73491C29.3154 3.74859 29.056 3.79511 28.805 3.87721C27.6265 3.23414 26.1349 3.6364 25.4695 4.78024C25.3173 5.0402 25.2186 5.32479 25.1763 5.62032C24.1528 5.40414 23.1406 6.03079 22.9178 7.02686C22.7402 7.81222 23.1095 8.61673 23.8257 9.01625C23.8173 9.10929 23.8144 9.20507 23.8201 9.30084C23.8821 10.4064 24.8633 11.2547 26.008 11.1917C26.2703 11.178 26.5268 11.1151 26.7665 11.0111C27.5221 11.282 28.4216 11.4161 29.3774 11.3641C31.9375 11.2273 33.9366 9.82624 33.8492 8.23089C33.8097 7.54952 33.3952 6.94476 32.7355 6.48504Z" fill="#B0B92C"/>
<path d="M23.8286 9.01352C23.8202 9.10656 23.8174 9.20233 23.823 9.29811C23.885 10.4036 24.8662 11.2519 26.011 11.189C26.2732 11.1753 26.5298 11.1124 26.7694 11.0084C27.5251 11.2793 28.4245 11.4134 29.3803 11.3614C31.9377 11.2273 33.9367 9.82624 33.8493 8.2309C33.8098 7.54952 33.3982 6.94477 32.7356 6.48505C31.6275 9.53891 27.7534 9.56628 25.4978 9.30358C24.5082 9.18591 23.8286 9.01352 23.8286 9.01352Z" fill="#799133"/>
<path d="M22.354 8.29382C21.9282 8.55379 21.6462 8.99162 21.6462 9.48691C21.6462 10.286 22.3765 10.9345 23.276 10.9345C23.4592 10.9345 23.6453 10.9071 23.8201 10.8524C21.9423 10.0944 22.354 8.29382 22.354 8.29382Z" fill="#5A6C38"/>
<path d="M30.1624 21.4014C30.2869 21.3968 30.3703 20.9474 30.3488 20.3977C30.3273 19.848 30.209 19.406 30.0845 19.4106C29.96 19.4152 29.8766 19.8646 29.8981 20.4143C29.9196 20.964 30.0379 21.406 30.1624 21.4014Z" fill="#587324"/>
<path d="M29.6082 22.3562C29.7407 22.3373 29.7873 21.9196 29.7123 21.4231C29.6373 20.9267 29.4691 20.5396 29.3366 20.5584C29.2041 20.5773 29.1575 20.995 29.2325 21.4914C29.3075 21.9879 29.4757 22.375 29.6082 22.3562Z" fill="#587324"/>
<path d="M29.1327 23.0681C29.2604 23.0288 29.2571 22.6711 29.1255 22.2692C28.9938 21.8674 28.7836 21.5735 28.656 21.6129C28.5284 21.6523 28.5316 22.01 28.6633 22.4118C28.7949 22.8137 29.0051 23.1075 29.1327 23.0681Z" fill="#587324"/>
<path d="M31.1915 21.2843C31.7345 21.0203 32.1259 20.712 32.066 20.5958C32.006 20.4796 31.5172 20.5995 30.9743 20.8636C30.4313 21.1276 30.0398 21.4359 30.0998 21.5521C30.1598 21.6683 30.6486 21.5484 31.1915 21.2843Z" fill="#587324"/>
<path d="M30.569 22.2347C31.055 22.059 31.411 21.8179 31.3642 21.6961C31.3175 21.5743 30.8857 21.618 30.3997 21.7937C29.9138 21.9694 29.5578 22.2105 29.6045 22.3323C29.6513 22.4541 30.0831 22.4104 30.569 22.2347Z" fill="#587324"/>
<path d="M30.0127 23.1621C30.439 23.0807 30.7637 22.9113 30.7378 22.7838C30.712 22.6563 30.3454 22.6189 29.9191 22.7002C29.4928 22.7816 29.1682 22.951 29.194 23.0785C29.2199 23.206 29.5864 23.2434 30.0127 23.1621Z" fill="#587324"/>
<path d="M31.1469 19.9521C31.3562 19.5672 31.4556 19.2191 31.3688 19.1746C31.2821 19.1302 31.042 19.4062 30.8327 19.7912C30.6233 20.1761 30.5239 20.5242 30.6107 20.5686C30.6975 20.6131 30.9375 20.3371 31.1469 19.9521Z" fill="#587324"/>
<path d="M28.5926 23.8542C28.5728 23.8542 28.5531 23.8378 28.5531 23.8187C28.5531 23.8077 28.5587 23.7968 28.5672 23.7885C29.0888 23.3699 30.5606 20.5814 30.5747 20.554C30.5832 20.5349 30.6086 20.5294 30.6255 20.5376C30.6424 20.5458 30.6509 20.5705 30.6424 20.5869C30.6396 20.5951 30.2674 21.3011 29.8332 22.0509C29.2495 23.0607 28.8407 23.6654 28.6151 23.846C28.6095 23.8515 28.601 23.8542 28.5926 23.8542Z" fill="#587324"/>
<g opacity="0.33">
<path opacity="0.33" d="M27.3482 27.315C27.3257 27.3204 27.3031 27.3095 27.2919 27.2903C27.1988 27.1316 27.1142 26.9702 27.0381 26.8032C26.6574 26.7266 26.102 25.7716 26.0371 25.6594C26.023 25.6348 26.0343 25.6047 26.0597 25.591C26.0851 25.5773 26.1161 25.5883 26.1302 25.6102C26.2853 25.8783 26.7026 26.5269 26.9845 26.6774C26.7308 26.0945 26.4573 25.2818 26.164 24.2501C25.9723 24.231 25.7749 24.0367 25.5691 23.67C25.4704 23.4894 25.383 23.3033 25.3125 23.109C25.3041 23.0817 25.3182 23.0543 25.3435 23.0434C25.3689 23.0324 25.3999 23.0488 25.4112 23.0735C25.5127 23.3526 25.8285 24.0531 26.133 24.1407C26.1105 24.0586 26.0879 23.9765 26.0653 23.8944C25.727 22.6603 25.493 21.5876 25.4901 21.5766C25.4845 21.5493 25.5014 21.5219 25.5296 21.5164C25.5578 21.511 25.586 21.5274 25.5917 21.5547C25.5945 21.5712 25.7608 22.3209 26.0118 23.2869C26.1753 23.0187 26.0992 22.0528 26.0512 21.6779C26.0484 21.6505 26.0682 21.6259 26.0964 21.6204C26.1246 21.6177 26.1499 21.6368 26.1556 21.6642C26.1753 21.8174 26.3332 23.1583 26.0428 23.4073C26.2317 24.1215 26.4629 24.9397 26.711 25.6676C26.8379 25.5007 26.8943 25.1477 26.8774 24.6469C26.8661 24.3788 26.8407 24.1133 26.8012 23.8506C26.7956 23.8233 26.8153 23.7986 26.8435 23.7932C26.8717 23.7877 26.8999 23.8068 26.9028 23.8342C26.914 23.8971 27.1537 25.3721 26.7533 25.7771C26.7533 25.7771 26.7505 25.7798 26.7477 25.7798C26.8661 26.1219 26.9902 26.442 27.1142 26.7184C27.1283 26.7294 27.1368 26.743 27.1368 26.7595C27.1368 26.7622 27.1368 26.7622 27.1368 26.7649C27.2101 26.9291 27.2919 27.0878 27.3821 27.2411C27.3962 27.2657 27.3877 27.2958 27.3623 27.3095C27.3567 27.3095 27.3539 27.3122 27.3482 27.315Z" fill="white"/>
</g>
<g opacity="0.33">
<path opacity="0.33" d="M27.5132 27.3834C27.485 27.3889 27.4569 27.3724 27.4512 27.3451C27.4484 27.3369 27.4484 27.3314 27.4512 27.3232C27.8882 25.435 27.6824 22.4824 27.5922 21.2209C27.564 20.8378 27.5555 20.6818 27.564 20.6408C27.5696 20.6134 27.5978 20.597 27.626 20.6025C27.6542 20.608 27.6711 20.6353 27.6655 20.6627C27.6599 20.6955 27.6768 20.9254 27.6965 21.2155C27.7839 22.4824 27.9926 25.446 27.5527 27.3478C27.5471 27.3642 27.533 27.3807 27.5132 27.3834Z" fill="white"/>
</g>
<path d="M21.9194 11.4584C22.1817 11.9127 22.5115 12.3231 22.9035 12.6789C23.3038 13.0456 23.8452 13.3822 23.8452 13.3822C24.3442 13.6148 24.739 14.0115 24.9674 14.5014L24.9504 14.4658C25.0717 14.7285 25.2409 14.9638 25.4551 15.1636C25.2239 14.6902 25.1986 13.9404 24.9307 13.6695C24.7333 13.4725 24.5698 13.3083 24.3301 13.1961C24.3301 13.1961 23.7888 12.8595 23.3884 12.4928C22.9993 12.1371 22.6666 11.7266 22.4044 11.2724L16.943 3.39961C16.8612 3.28194 16.7005 3.24637 16.5764 3.31752L16.6187 3.39414L21.9194 11.4584Z" fill="#EA8102"/>
<path d="M30.6632 20.1493L30.6491 25.1762L31.2863 26.8974L30.7196 30.92C30.7167 30.9473 30.7083 30.9747 30.697 30.9993C30.6857 31.024 30.6716 31.0486 30.6547 31.0705L30.3643 31.5986L30.401 31.9927L29.228 31.9899L30.0626 30.8543L30.4348 27.7977C30.4771 27.431 30.3869 27.0616 30.181 26.7524L28.1284 23.8298C27.7562 23.2634 27.5588 22.6067 27.5588 21.9335L27.5645 19.6622L30.6632 20.1493Z" fill="#F19132"/>
<path d="M30.3686 31.5962L29.5227 31.5934L29.2295 31.9902L30.4024 31.993L30.3658 31.5989L30.3686 31.5962Z" fill="#E07A1E"/>
<path d="M21.5698 21.0003L22.1591 26.4322L21.9307 30.7448L21.0341 31.9516L22.2014 31.9543L22.2183 31.158L22.4241 30.9363C22.5115 30.8433 22.5623 30.7229 22.5679 30.597L22.7991 26.2105L23.4871 21.003L21.5698 21.0003Z" fill="#F19132"/>
<path d="M21.412 31.4451L21.0342 31.954L22.2015 31.9567L22.2128 31.4478L21.412 31.4451Z" fill="#E07A1E"/>
<path d="M16.7728 3.54092L21.9213 11.4575C22.1835 11.9117 22.5134 12.3222 22.9053 12.6779C23.3057 13.0446 23.847 13.3812 23.847 13.3812C24.3461 13.6138 24.7408 14.0106 24.9692 14.5004L24.9523 14.4648C25.1976 14.993 25.6375 15.4089 26.1873 15.6305L29.8442 17.1055C30.9974 17.5707 31.7474 18.6625 31.7418 19.8748L31.7361 21.2868L29.7427 21.7903C27.8762 22.261 25.8997 22.1022 24.1403 21.336L22.8038 20.7532C21.7098 20.277 21.0078 19.2208 21.0134 18.0578L21.019 16.6321L15.5688 4.53152L16.7728 3.54092Z" fill="#FFD69F"/>
<path d="M31.7432 20.1524L31.732 24.1503C31.732 24.4869 31.7743 24.8207 31.8588 25.1464C31.9462 25.4802 32.0788 25.6034 32.2423 25.8907L32.8203 26.9004L33.0318 30.9312C33.0346 30.9586 33.0318 30.9832 33.0261 31.0079C33.0205 31.0325 33.012 31.0571 33.0008 31.0817L32.6934 31.6701L32.7301 32.0012L31.6727 31.9984L32.3579 30.9148L32.0703 27.5326C32.059 27.4368 32.0365 27.3438 31.9998 27.2534C31.9632 27.1631 31.9152 27.0783 31.856 26.999L29.372 23.9287C28.8955 23.3048 28.6389 22.5468 28.6417 21.7696L28.6474 19.6653L31.7432 20.1524Z" fill="#FFD69F"/>
<path d="M32.7248 31.603L31.9184 31.6003L31.6675 31.997L32.7248 31.9998L32.6882 31.6687L32.7248 31.603Z" fill="#EF9C50"/>
<path d="M22.8126 17.2401C22.2318 16.898 21.4761 17.0813 21.1237 17.645C21.0588 17.749 21.0109 17.864 20.9799 17.9816L20.915 18.2389C20.6415 19.3362 20.9855 20.4909 21.8201 21.2763L22.6998 22.1054L23.7459 26.2183L24.1096 30.8374L23.3116 31.973L24.5579 31.9758L24.4846 31.1685L24.7045 30.9332C24.7834 30.8484 24.8201 30.7389 24.8116 30.624L24.3887 25.9967L24.7806 21.5226L25.243 18.663L22.8126 17.2401Z" fill="#FFD69F"/>
<path d="M23.6489 31.4987L23.3162 31.9749L24.5624 31.9776L24.5201 31.5015L23.6489 31.4987Z" fill="#EF9C50"/>
<path d="M32.3762 24.0365L32.3818 20.2657C32.3818 19.8744 32.2803 19.4886 32.083 19.1465C31.8856 18.8044 31.6008 18.5144 31.2597 18.3064L30.2192 17.6798L30.3997 17.3979L31.4401 18.0246C31.832 18.2626 32.1563 18.5937 32.3818 18.985C32.6074 19.3764 32.7258 19.8169 32.723 20.2657L32.7174 24.0392L32.3762 24.0365Z" fill="#F19132"/>
<path d="M17.2498 6.76153L18.183 6.84088L18.1464 8.10512L17.5825 8.00935L17.3428 7.47848L17.2498 6.76153ZM17.7742 8.60589L18.2845 9.63753L19.0571 9.51439L18.9951 8.40613L18.0477 8.37329L17.7742 8.60589ZM18.5411 10.2012L19.356 11.657L20.0327 11.4545L20.0693 10.3627L18.9753 10.1082L18.5411 10.2012ZM20.3174 13.6875L21.2028 13.4549L21.0956 12.2536L20.5007 11.9088L19.5674 11.9991L20.3174 13.6875ZM21.2451 15.7836L22.3729 15.4415L22.5054 14.2868L21.5073 13.9091L20.5092 13.9994L21.2451 15.7836ZM22.8099 14.5604L22.4913 15.8246L23.8165 16.4622L23.8193 15.5483L22.8099 14.5604ZM24.9499 14.4674L24.9669 14.5029C24.7413 14.0131 24.3437 13.6163 23.8447 13.3837C23.8447 13.3837 23.7488 13.3235 23.6107 13.2305L23.0016 14.2594L23.9631 15.3868L25.0233 14.6124C25.0007 14.5631 24.9725 14.5166 24.9499 14.4674ZM18.3917 7.05433L18.4368 8.06134L19.3757 8.29667L19.6915 8.03397L18.7751 6.62197L18.3917 7.05433ZM23.3061 13.0088C23.1708 12.9076 23.0298 12.7954 22.903 12.6777C22.6351 12.4314 22.3926 12.1578 22.184 11.8595L21.465 12.2125L21.4847 13.5233L22.6407 13.8325L23.3061 13.0088ZM18.3437 6.59187L18.5552 6.28539L17.839 5.18533L17.3484 5.27837L17.3597 6.47967L18.3437 6.59187ZM19.2404 8.60863L19.3024 9.73331L20.1539 10.1575L20.7206 9.61017L19.8804 8.31583L19.2404 8.60863ZM21.1436 11.8623L21.9443 11.4983C21.9358 11.4846 21.9274 11.471 21.9189 11.4573L20.8475 9.80993L20.3118 10.2998L20.2131 11.471L21.1436 11.8623ZM31.339 18.3887L30.4875 18.7608L30.8541 19.8226L31.7366 19.7077C31.7112 19.2425 31.5759 18.7909 31.339 18.3887ZM31.153 18.1096C30.8569 17.7128 30.4678 17.3954 30.0139 17.1819H30.0082L29.4443 17.5541L30.1013 18.3367L31.153 18.1096ZM27.9922 16.6839L28.0825 16.3966L26.4725 15.748L26.4471 16.4704L27.0731 16.9876L27.9922 16.6839ZM26.1567 16.3281L26.2723 15.6687L26.1849 15.6331C25.7733 15.4662 25.418 15.1898 25.1614 14.834L24.3466 15.5729L25.1642 16.465L26.1567 16.3281ZM29.7178 17.056L28.3137 16.4896L28.2319 16.8262L28.9791 17.6006L29.7178 17.056ZM25.4377 18.1369L26.7573 18.1397L27.0336 17.3133L26.1821 16.5306L24.8287 16.9958L25.4377 18.1369ZM27.4791 18.8457L28.621 18.676L28.8973 17.8797L28.0796 17.0971L27.2902 17.2968L27.1436 18.1397L27.4791 18.8457ZM21.4255 17.1327L21.8174 17.7976L23.2018 17.5979L23.3569 16.5525L22.3531 15.9724L21.434 16.2515L21.4255 17.1327ZM24.1323 18.6487L25.2122 18.2929L24.5721 17.0588L23.7855 16.7441L23.4274 17.7429L24.1323 18.6487ZM22.1981 19.4176L23.0693 19.4805L23.9631 18.8238L23.2441 18.0384L22.1811 18.2218L22.1981 19.4176ZM29.3569 19.85L30.3973 19.3136L30.0618 18.5638L29.1454 17.9509L28.855 18.6788L29.3569 19.85ZM25.4716 19.7925L26.8954 19.445L26.4161 18.5529L25.6436 18.479L24.6764 18.8511L25.4716 19.7925ZM27.9077 20.4793L28.8748 20.0141L28.2742 19.029L27.1379 19.6584L27.9077 20.4793ZM23.5007 20.5724L24.1266 20.7886L24.8654 20.2714L24.1661 19.3738L23.2977 19.9621L23.5007 20.5724ZM25.7084 21.0814L26.7939 21.2729L27.2056 20.6873L26.5317 20.0524L25.4434 20.4L25.7084 21.0814ZM29.4979 21.0212L30.4622 21.2811L31.043 20.7913L30.3719 19.7597L29.4753 20.3179L29.4979 21.0212ZM28.3616 21.5821L29.1088 21.3742L28.6548 20.6435L27.8569 21.0622L28.3616 21.5821ZM31.0599 21.3714L30.496 21.9789L31.2347 22.5891L31.511 21.9351L31.0599 21.3714ZM29.4443 22.9257L30.0561 22.5837L29.7686 21.9433L29.1088 22.1458L29.4443 22.9257ZM22.0909 20.8132L22.9171 20.7557C22.9734 20.753 23.0186 20.7037 23.0129 20.6463C23.0129 20.6353 23.0101 20.6271 23.0073 20.6189L22.6971 19.8089L21.9725 19.9485L22.0909 20.8132Z" fill="#F19132"/>
<path d="M32.3864 22.8251C32.3018 22.9948 32.2454 23.304 32.2454 23.7418C32.2426 24.4369 32.5443 26.1253 32.5443 26.1253C32.5443 26.1253 32.8544 24.4396 32.8572 23.7446C32.8572 23.304 32.8036 22.9975 32.7219 22.8279L32.3864 22.8251Z" fill="#965E45"/>
<path d="M16.4038 2.2108L16.1755 3.07826H15.7892L16.0429 2.1205C15.9414 1.99189 15.9668 1.80581 16.1022 1.7073C16.2347 1.60879 16.4264 1.63341 16.5279 1.76476C16.6294 1.89338 16.604 2.07945 16.4687 2.17797C16.4461 2.18891 16.4264 2.20259 16.4038 2.2108ZM17.2243 1.94263C17.2243 1.77844 17.089 1.6471 16.9198 1.6471C16.7506 1.6471 16.6153 1.77844 16.6153 1.94263C16.6153 2.00831 16.6379 2.07124 16.6802 2.12324L16.4574 2.97974H16.8409L17.0411 2.21354C17.151 2.16702 17.2215 2.0603 17.2243 1.94263Z" fill="#522D23"/>
<path d="M17.0439 3.15753C16.9988 3.01797 16.8973 2.90031 16.7619 2.8319C16.6322 2.76348 16.4772 2.75527 16.3362 2.80727L15.4339 3.14111C15.3775 3.16301 15.3211 3.19037 15.2704 3.22594C15.2196 3.26152 15.1745 3.30256 15.1351 3.34635L14.9095 3.60905L13.0824 4.62153C12.9922 4.66258 12.9076 4.71457 12.8315 4.78025C12.7553 4.84319 12.6905 4.91981 12.6369 4.99916L12.4762 5.39595L12.9612 5.39868L13.3869 5.53003C13.463 5.55193 13.542 5.5574 13.6181 5.54372C13.6971 5.53003 13.7676 5.49993 13.8296 5.45341L13.9283 5.37953L15.1999 5.68875C15.7582 5.82557 16.3531 5.7298 16.8353 5.42605L16.7845 5.45889C17.1933 5.20166 17.3907 4.72552 17.2807 4.26579C17.2864 4.26306 17.12 3.4257 17.0439 3.15753Z" fill="#FFD69F"/>
<path d="M16.7619 2.8319C16.6322 2.76348 16.4772 2.75527 16.3362 2.80727L15.4339 3.14111C15.3775 3.16301 15.3211 3.19037 15.2704 3.22594C15.2196 3.26152 15.1745 3.30256 15.1351 3.34635L14.9095 3.60905L13.9311 4.15086L13.0824 4.62153C12.9922 4.66258 12.9076 4.71457 12.8315 4.78025C12.7553 4.84319 12.6905 4.91981 12.6369 4.99916L12.4762 5.39595L12.9612 5.39869L13.3869 5.53004C13.463 5.55193 13.542 5.5574 13.6181 5.54372C13.6971 5.53004 13.7676 5.49993 13.8296 5.45342L13.9226 5.385V5.07031C13.9226 4.79667 14.0749 4.54765 14.3174 4.41083L15.214 3.91553L15.4396 3.65283C15.479 3.60631 15.5242 3.56526 15.5749 3.53243C15.6257 3.49685 15.6792 3.46949 15.7384 3.4476L16.6379 3.11375C16.7591 3.0727 16.8916 3.0727 17.0129 3.11375C16.9819 2.99608 16.8804 2.89483 16.7619 2.8319Z" fill="#EF9C50"/>
<path d="M19.3337 3.67341C19.3337 3.67341 18.7923 4.26996 18.1297 4.26722C17.4643 4.26449 16.9286 3.6652 16.9286 3.6652C16.9286 3.6652 17.4671 3.06865 18.1325 3.07139C18.7951 3.07413 19.3337 3.67341 19.3337 3.67341Z" fill="#FBE4C2"/>
<path d="M18.8533 3.67273C18.8533 3.67273 18.4896 4.07499 18.0413 4.07499C17.593 4.07499 17.2292 3.66999 17.2292 3.66999C17.2292 3.66999 17.593 3.26773 18.0441 3.26773C18.4924 3.26773 18.8533 3.67273 18.8533 3.67273Z" fill="#EF9C50"/>
<path d="M16.297 3.94648C16.297 3.94648 16.0997 4.24202 15.8572 4.24202C15.6147 4.24202 15.4202 3.94375 15.4202 3.94375C15.4202 3.94375 15.6175 3.64548 15.86 3.64821C16.1025 3.65095 16.297 3.94648 16.297 3.94648Z" fill="#522D23"/>
<path d="M15.888 3.93924C15.888 3.99123 15.8457 4.03227 15.7922 4.02953C15.7386 4.02953 15.6963 3.98849 15.6991 3.9365C15.7019 3.88451 15.7414 3.84346 15.795 3.8462C15.8457 3.8462 15.888 3.88724 15.888 3.93924Z" fill="#FFFFEC"/>
<path d="M12.877 4.94525C12.7868 5.00545 12.7699 5.1368 12.7699 5.1368C12.7699 5.1368 12.8996 5.16691 12.9926 5.1067C13.0857 5.0465 13.1308 4.95893 13.0998 4.91515C13.0688 4.87137 12.9673 4.88231 12.877 4.94525Z" fill="#FBE4C2"/>
<path d="M13.6443 5.1569L12.9677 5.39771L13.1058 5.4415L13.6754 5.239C13.6979 5.23079 13.7092 5.20616 13.7007 5.18427C13.6923 5.15964 13.6669 5.14869 13.6443 5.1569Z" fill="#FBE4C2"/>
<path d="M7.17576 20.3922L9.36655 20.4743L9.26505 21.4786C9.22839 21.8398 9.09869 22.1846 8.88723 22.4856L8.02727 23.7006C7.96242 23.7937 7.92294 23.9004 7.9173 24.0099C7.90885 24.122 7.9314 24.2315 7.98497 24.3328L8.42764 25.5614C8.42764 25.5614 8.87031 25.5806 8.96054 25.6134C9.04794 25.6463 9.11843 25.7065 9.16918 25.7803L9.2735 26.0732H8.05264C7.98215 26.0732 7.91167 26.054 7.84964 26.0157C7.78761 25.9774 7.73967 25.9254 7.70866 25.8624L6.82614 23.9223C6.80922 23.8894 6.80077 23.8539 6.79795 23.8183C6.79513 23.7827 6.80077 23.7472 6.81486 23.7116L7.08272 23.022C7.11092 22.9536 7.13065 22.8824 7.14475 22.8085C7.15885 22.7374 7.16449 22.6635 7.16731 22.5896L7.17576 20.3922Z" fill="#B14225"/>
<path d="M16.1898 20.6112L16.0601 25.4356L16.4435 25.4027C16.5338 25.3945 16.6268 25.4164 16.7029 25.4629C16.7819 25.5095 16.8411 25.5806 16.8749 25.6627L17.0356 26.0732H15.7274C15.5554 26.0732 15.4088 25.9473 15.3834 25.7831L15.3383 25.4575L15.2762 25.441C15.1719 25.4137 15.093 25.3316 15.0704 25.2303L14.6729 20.6139H16.1898V20.6112Z" fill="#B14225"/>
<path d="M6.02814 18.1484C6.42288 17.8036 6.6569 17.6695 7.82137 17.6366C8.98585 17.6038 8.35991 18.0115 10.6832 18.0115C13.0065 18.0115 16.7593 17.6339 16.7593 17.6339V19.7465C16.7593 20.1323 16.5902 20.5181 16.2546 20.8137C15.9163 21.1092 15.4736 21.4047 15.031 21.4047L12.9389 21.2433L7.46893 20.8219L7.34205 20.8109C6.85427 20.8109 5.43604 20.0174 5.43604 19.5905V19.3989C5.43604 18.9447 5.6334 18.4932 6.02814 18.1484Z" fill="#EA8102"/>
<path d="M15.0451 21.3884C15.1804 21.3856 15.3158 21.3583 15.4398 21.309V21.6428C15.3186 21.703 15.1832 21.7359 15.0451 21.7386C13.531 21.7222 10.4464 21.008 10.4464 21.008L15.0451 21.3884Z" fill="#B14225"/>
<path d="M5.43894 19.6945H8.03574L7.97653 20.9533C7.95116 21.4869 7.72559 21.9931 7.33931 22.3735L6.10153 23.7636C5.94928 23.9141 5.87597 24.1248 5.90134 24.3355L5.88161 25.5587C5.88161 25.5587 6.34965 25.5724 6.42296 25.5998C6.49345 25.6244 6.55548 25.6736 6.59495 25.7366L6.73029 26.0732H5.52071C5.37409 26.0732 5.24721 25.9719 5.21901 25.8324L4.84683 23.9168C4.84119 23.884 4.83837 23.8512 4.84119 23.8183C4.84401 23.7855 4.85529 23.7526 4.86939 23.7225L5.17108 23.085C5.34871 22.7976 5.43894 22.4665 5.43894 22.1299V19.6945Z" fill="#EA8102"/>
<path d="M13.9145 20.6003C13.8581 20.6468 13.8045 20.696 13.7594 20.7508C13.6494 20.8821 13.5761 21.0545 13.6043 21.2214C13.6297 21.3719 13.7312 21.5005 13.7989 21.6374C13.9173 21.8672 13.9511 22.1299 13.9821 22.3844L14.312 25.0853C14.3205 25.1646 14.3318 25.2495 14.3769 25.3151C14.4333 25.3972 14.5348 25.4465 14.5827 25.5341C14.6335 25.6244 14.6166 25.7338 14.6278 25.8351C14.6645 26.1415 15.0395 26.0649 15.2622 26.0649H16.2519C16.2463 25.6818 15.9192 25.3781 15.5273 25.3863C15.4455 25.3863 15.3666 25.4027 15.2904 25.4301L15.4737 21.6647C15.4624 21.5909 15.5047 21.5197 15.5752 21.4923L16.3816 21.0354L15.6401 19.4099L14.157 20.4169C14.0752 20.4799 13.9906 20.5373 13.9145 20.6003Z" fill="#EA8102"/>
<path d="M6.60055 17.8118C6.02254 18.0937 5.48683 18.3536 5.0498 18.838C4.54792 19.399 4.39848 20.0885 4.24059 20.7945C4.09115 21.454 3.99247 22.1491 3.77254 22.7921C3.51878 23.5611 2.57706 24.1111 2.25563 24.6283C1.9342 25.1455 2.49247 24.8636 2.49247 24.8636C2.49247 24.8636 3.35525 24.1303 3.67104 23.6924C3.92762 23.3476 4.11371 22.9563 4.21239 22.5431C4.37029 21.9028 4.52254 21.2652 4.68044 20.6249C4.81014 20.0967 4.99341 19.596 5.30638 19.1883C5.50375 18.9885 5.70111 18.7969 5.94924 18.6574C6.22555 18.4987 6.5357 18.3892 6.83175 18.2688C6.75845 18.1156 6.6795 17.9623 6.60055 17.8118Z" fill="#EA8102"/>
<path d="M15.5244 17.2399L14.8138 18.0499C14.9069 18.6437 15.6597 19.4209 16.139 19.8313C16.4379 19.6069 16.7199 19.3607 16.9764 19.0925C17.2415 18.8161 15.5244 17.2399 15.5244 17.2399Z" fill="#DB7303"/>
<path d="M15.8149 18.329L15.1945 17.1168C15.0395 16.813 15.1156 16.4463 15.3778 16.2247L16.0094 15.6966C16.3985 15.3709 16.9737 15.3655 17.3684 15.6829L17.9944 16.1864C18.2679 16.408 18.3525 16.7802 18.1946 17.0921L17.5658 18.329H15.8149Z" fill="#EA8102"/>
<path d="M16.1476 18.7559C16.1476 18.9475 16.3083 19.1034 16.5085 19.1062H16.8835C17.0809 19.1062 17.2416 18.9502 17.2416 18.7587V18.5671H16.1476V18.7559Z" fill="#EA8102"/>
<path d="M16.1504 18.7778C16.1504 18.7723 16.1476 18.7668 16.1476 18.7614V18.5616H17.2416V18.7614C17.2416 18.7668 17.2387 18.7723 17.2387 18.7778H16.1504Z" fill="#FFD69F"/>
<path d="M16.6936 18.2026L17.0545 17.1628L17.4295 17.6553C17.531 17.7867 17.5902 17.9454 17.6015 18.1096C17.6071 18.2629 17.5733 18.4161 17.5084 18.5557C17.469 18.6295 17.4041 18.6843 17.3252 18.7116C17.2462 18.7417 17.1616 18.7445 17.0799 18.7198L16.6964 18.5994L16.6936 18.2026Z" fill="#FFD69F"/>
<path d="M16.6936 18.2026L16.3327 17.1628L15.9577 17.6553C15.8562 17.7867 15.797 17.9454 15.7885 18.1096C15.7829 18.2629 15.8139 18.4161 15.8815 18.5557C15.921 18.6295 15.9859 18.6843 16.0648 18.7116C16.1437 18.7417 16.2283 18.7445 16.3073 18.7198L16.6907 18.5994L16.6936 18.2026Z" fill="#FFD69F"/>
<path d="M16.235 16.5229H17.157L17.2415 17.9869L16.6917 18.3974L16.1532 17.9869L16.235 16.5229Z" fill="#B14225"/>
<path d="M17.1473 16.5564V16.0557C17.1473 16.0173 17.1784 15.9872 17.2178 15.9872C17.2573 15.9872 17.2884 16.0173 17.2884 16.0557V16.5564H17.1473Z" fill="#B14225"/>
<path d="M17.1809 17.1351V16.5249H17.9366C17.7928 16.845 17.6264 17.0366 17.1809 17.1351Z" fill="#FFD69F"/>
<path d="M17.1809 17.1351L17.1471 16.5249L17.8492 16.2841C17.6997 16.6206 17.4262 16.7492 17.4262 16.7492C17.4262 16.7492 17.2768 16.9928 17.1809 17.1351Z" fill="#B14225"/>
<path d="M17.6236 16.6781C17.6574 16.7684 17.5954 16.8696 17.4883 16.9079C17.3811 16.9463 17.2655 16.9052 17.2317 16.8149C17.1978 16.7274 17.2599 16.6234 17.367 16.5851C17.4742 16.5468 17.5898 16.5905 17.6236 16.6781Z" fill="#EA8102"/>
<path d="M17.5672 16.6973C17.5898 16.7602 17.5475 16.8341 17.4713 16.8615C17.3952 16.8888 17.3106 16.8587 17.2881 16.7958C17.2627 16.7328 17.3078 16.6589 17.3868 16.6316C17.4629 16.6042 17.5446 16.6343 17.5672 16.6973Z" fill="white"/>
<path d="M17.4968 16.7219C17.5137 16.7575 17.494 16.7985 17.4573 16.8149C17.4207 16.8314 17.3784 16.8122 17.3614 16.7766C17.3614 16.7739 17.3586 16.7712 17.3586 16.7712C17.3473 16.7329 17.3671 16.6945 17.4066 16.6809C17.4432 16.6727 17.4827 16.6891 17.4968 16.7219Z" fill="#0E1053"/>
<path d="M17.5108 16.7082C17.5164 16.7246 17.508 16.7438 17.491 16.7493C17.4741 16.7548 17.4544 16.7465 17.4488 16.7301C17.4431 16.7137 17.4516 16.6945 17.4685 16.6891C17.4854 16.6808 17.5051 16.6891 17.5108 16.7082Z" fill="#FFFFEC"/>
<path d="M16.2486 16.5564V16.0557C16.2486 16.0173 16.2176 15.9872 16.1782 15.9872C16.1387 15.9872 16.1077 16.0173 16.1077 16.0557V16.5564H16.2486Z" fill="#B14225"/>
<path d="M16.2171 17.1348V16.5245H15.4586C15.6024 16.8447 15.7716 17.0363 16.2171 17.1348Z" fill="#FFD69F"/>
<path d="M16.2171 17.1348L16.2481 16.5245L15.453 16.3221C15.5827 16.6395 15.9662 16.7489 15.9662 16.7489C15.9662 16.7489 16.1184 16.9925 16.2171 17.1348Z" fill="#B14225"/>
<path d="M15.7716 16.6778C15.7378 16.7681 15.7998 16.8693 15.9069 16.9077C16.0141 16.946 16.1297 16.9049 16.1635 16.8146C16.1974 16.727 16.1353 16.6231 16.0282 16.5847C15.921 16.5464 15.8054 16.5902 15.7716 16.6778Z" fill="#EA8102"/>
<path d="M15.8281 16.697C15.8055 16.7599 15.8478 16.8338 15.9239 16.8611C16.0001 16.8885 16.0846 16.8584 16.1072 16.7955C16.1326 16.7325 16.0875 16.6587 16.0085 16.6313C15.9296 16.6039 15.8506 16.634 15.8281 16.697Z" fill="white"/>
<path d="M15.8985 16.7216C15.8844 16.7571 15.9041 16.7982 15.9408 16.8119C15.9774 16.8256 16.0197 16.8064 16.0338 16.7708C16.0338 16.7708 16.0338 16.7708 16.0338 16.7681C16.0451 16.7298 16.0254 16.6915 15.9859 16.6778C15.9521 16.6723 15.9126 16.6887 15.8985 16.7216Z" fill="#0E1053"/>
<path d="M15.8844 16.7079C15.8788 16.7243 15.8872 16.7435 15.9042 16.7489C15.9211 16.7544 15.9408 16.7462 15.9465 16.7298C15.9521 16.7134 15.9436 16.6942 15.9267 16.6887C15.9098 16.6805 15.8929 16.6915 15.8844 16.7079Z" fill="#FFFFEC"/>
<path d="M16.6945 18.3755L17.0837 18.069C17.1006 18.0554 17.1062 18.0362 17.0978 18.017C17.0893 17.9979 17.0696 17.9869 17.0498 17.9869H16.3365C16.3167 17.9869 16.297 17.9979 16.2885 18.017C16.2801 18.0362 16.2885 18.0554 16.3026 18.069L16.6945 18.3755Z" fill="#EA8102"/>
<path d="M16.1814 17.9323L16.6945 18.3345L17.2077 17.9323C17.219 17.9377 17.2274 17.9487 17.2331 17.9624C17.2415 17.987 17.2359 18.0143 17.2133 18.0308L16.6945 18.4357L16.1757 18.0308C16.1504 18.0116 16.1447 17.9733 16.1645 17.9487C16.1701 17.9405 16.1757 17.9377 16.1814 17.9323Z" fill="#EA8102"/>
<path d="M17.3331 15.7217L17.7927 15.4071C17.9703 15.2757 18.2213 15.2921 18.382 15.4426L18.3735 15.4344C18.4525 15.5083 18.5032 15.6068 18.5145 15.7108C18.5258 15.8148 18.5004 15.9215 18.444 16.0118C18.3256 16.1979 18.1875 16.4168 18.1875 16.4168L17.3331 15.7217Z" fill="#FFD69F"/>
<path d="M17.8265 15.5712C18.0042 15.4426 18.2495 15.4563 18.413 15.6041C18.4102 15.6013 18.4102 15.6013 18.4074 15.5986L18.4158 15.6068C18.413 15.6041 18.413 15.6041 18.4102 15.6041C18.4553 15.6479 18.492 15.6998 18.5173 15.7601C18.5173 15.7436 18.5173 15.7299 18.5145 15.7135C18.5032 15.6095 18.4553 15.5138 18.3792 15.4399C18.2185 15.2921 17.9703 15.2784 17.7927 15.4098L17.3331 15.7245L17.4544 15.823L17.8265 15.5712Z" fill="#EA8102"/>
<path d="M16.0387 15.7022L15.5683 15.4027C15.3862 15.2772 15.1363 15.3019 14.9815 15.4577L14.9897 15.4492C14.9136 15.5257 14.8666 15.6259 14.8592 15.7302C14.8518 15.8346 14.8811 15.9405 14.9407 16.0289C15.0658 16.2111 15.2118 16.4255 15.2118 16.4255L16.0387 15.7022Z" fill="#FFD69F"/>
<path d="M15.541 15.5684C15.3588 15.4451 15.1145 15.4667 14.9569 15.6202C14.9596 15.6174 14.9596 15.6174 14.9623 15.6145L14.9542 15.623C14.9541 15.6203 14.9569 15.6202 14.9569 15.6202C14.9135 15.6656 14.8789 15.7189 14.8559 15.7801C14.8553 15.7636 14.8576 15.7498 14.8569 15.7334C14.8671 15.6286 14.9112 15.531 14.9844 15.4544C15.1392 15.301 15.3863 15.2793 15.5686 15.4053L16.0393 15.7062L15.9221 15.8089L15.541 15.5684Z" fill="#EA8102"/>
<path d="M16.41 18.1095H16.5086C16.5538 18.1095 16.5904 18.1451 16.5904 18.1861C16.5904 18.2162 16.5735 18.2436 16.5453 18.2573L16.3705 18.1205C16.3818 18.1123 16.3959 18.1095 16.41 18.1095Z" fill="#FFD69F"/>
<path d="M16.8808 18.1095H16.9795C16.9936 18.1095 17.0077 18.115 17.019 18.1205L16.8442 18.2573C16.816 18.2436 16.7991 18.2162 16.7991 18.1861C16.7991 18.1451 16.8357 18.1095 16.8808 18.1095Z" fill="#FFD69F"/>
<path d="M16.3383 18.2896H16.3439C16.3608 18.2896 16.3749 18.2759 16.3749 18.2595C16.3749 18.2431 16.3608 18.2294 16.3439 18.2294H16.3355C16.3185 18.2294 16.3044 18.2431 16.3044 18.2595C16.3044 18.2759 16.3185 18.2896 16.3383 18.2896Z" fill="#B14225"/>
<path d="M16.017 18.2896H16.0339C16.0508 18.2896 16.0649 18.2759 16.0649 18.2595C16.0649 18.2431 16.0508 18.2294 16.0339 18.2294H16.017C16.0001 18.2294 15.986 18.2431 15.986 18.2595C15.986 18.2759 16.0001 18.2896 16.017 18.2896ZM16.1241 18.2896H16.141C16.1579 18.2896 16.172 18.2759 16.172 18.2595C16.172 18.2431 16.1579 18.2294 16.141 18.2294H16.1241C16.1072 18.2294 16.0931 18.2431 16.0931 18.2595C16.0931 18.2759 16.1072 18.2896 16.1241 18.2896ZM16.2313 18.2896H16.2482C16.2651 18.2896 16.2792 18.2759 16.2792 18.2595C16.2792 18.2431 16.2651 18.2294 16.2482 18.2294H16.2313C16.2143 18.2294 16.2002 18.2431 16.2002 18.2595C16.2002 18.2759 16.2143 18.2896 16.2313 18.2896Z" fill="#B14225"/>
<path d="M15.9232 18.2896H15.9289C15.9458 18.2896 15.9599 18.2759 15.9599 18.2595C15.9599 18.2431 15.9458 18.2294 15.9289 18.2294H15.9204C15.9035 18.2294 15.8894 18.2431 15.8894 18.2595C15.8894 18.2759 15.9035 18.2896 15.9232 18.2896Z" fill="#B14225"/>
<path d="M16.3383 18.5346H16.3439C16.3609 18.5346 16.375 18.5209 16.375 18.5045C16.375 18.4881 16.3609 18.4744 16.3439 18.4744H16.3355C16.3186 18.4744 16.3045 18.4881 16.3016 18.5045C16.3045 18.5209 16.3186 18.5346 16.3383 18.5346C16.3355 18.5346 16.3355 18.5346 16.3383 18.5346Z" fill="#B14225"/>
<path d="M16.017 18.5346H16.0339C16.0508 18.5346 16.0649 18.5209 16.0649 18.5045C16.0649 18.4881 16.0508 18.4744 16.0339 18.4744H16.017C16.0001 18.4744 15.986 18.4881 15.986 18.5045C15.986 18.5209 16.0001 18.5346 16.017 18.5346ZM16.1241 18.5346H16.141C16.158 18.5346 16.1721 18.5209 16.1721 18.5045C16.1721 18.4881 16.158 18.4744 16.141 18.4744H16.1241C16.1072 18.4744 16.0931 18.4881 16.0931 18.5045C16.0931 18.5209 16.1072 18.5346 16.1241 18.5346ZM16.2313 18.5346H16.2482C16.2651 18.5346 16.2792 18.5209 16.282 18.5045C16.282 18.4881 16.2679 18.4744 16.251 18.4717C16.251 18.4717 16.251 18.4717 16.2482 18.4717H16.2313C16.2143 18.4717 16.2002 18.4854 16.1974 18.5018C16.1974 18.5209 16.2115 18.5346 16.2313 18.5346C16.2313 18.5346 16.2284 18.5346 16.2313 18.5346Z" fill="#B14225"/>
<path d="M15.9233 18.5346H15.9289C15.9458 18.5346 15.9599 18.5209 15.9599 18.5045C15.9599 18.4881 15.9458 18.4744 15.9289 18.4744H15.9204C15.9035 18.4744 15.8894 18.4881 15.8866 18.5045C15.8894 18.5209 15.9035 18.5346 15.9233 18.5346C15.9204 18.5346 15.9204 18.5346 15.9233 18.5346Z" fill="#B14225"/>
<path d="M16.423 18.4118H16.4287C16.4456 18.4118 16.4597 18.3981 16.4597 18.3789C16.4597 18.3625 16.4456 18.3488 16.4287 18.3488H16.4202C16.4033 18.3488 16.3892 18.3625 16.3864 18.3789C16.3836 18.3954 16.4033 18.4118 16.423 18.4118C16.4202 18.4118 16.4202 18.4118 16.423 18.4118Z" fill="#B14225"/>
<path d="M16.0137 18.4118H16.0306C16.0475 18.4118 16.0616 18.3981 16.0616 18.3789C16.0616 18.3625 16.0475 18.3488 16.0306 18.3488H16.0137C15.9968 18.3488 15.9827 18.3625 15.9827 18.3817C15.9855 18.3981 15.9968 18.4118 16.0137 18.4118ZM16.1152 18.4118H16.1349C16.1518 18.4118 16.1659 18.3981 16.1659 18.3789C16.1659 18.3625 16.1518 18.3488 16.1349 18.3488H16.118C16.1011 18.3488 16.087 18.3625 16.087 18.3817C16.087 18.3981 16.0983 18.4118 16.1152 18.4118ZM16.2167 18.4118H16.2336C16.2505 18.4118 16.2646 18.3981 16.2646 18.3789C16.2646 18.3625 16.2505 18.3488 16.2336 18.3488H16.2167C16.1998 18.3488 16.1857 18.3625 16.1857 18.3817C16.1885 18.3981 16.1998 18.4118 16.2167 18.4118ZM16.3182 18.4118H16.3351C16.352 18.4118 16.3661 18.3981 16.3661 18.3789C16.3661 18.3625 16.352 18.3488 16.3351 18.3488H16.3182C16.3013 18.3488 16.2872 18.3625 16.2872 18.3817C16.29 18.3981 16.3013 18.4118 16.3182 18.4118Z" fill="#B14225"/>
<path d="M15.9233 18.4118H15.9289C15.9458 18.4118 15.9599 18.3981 15.9599 18.3789C15.9599 18.3625 15.9458 18.3488 15.9289 18.3488H15.9205C15.9035 18.3488 15.8894 18.3625 15.8866 18.3789C15.8838 18.3954 15.9035 18.4118 15.9233 18.4118C15.9205 18.4118 15.9205 18.4118 15.9233 18.4118Z" fill="#B14225"/>
<path d="M17.0326 18.2896H17.0411C17.058 18.2896 17.0721 18.2759 17.0721 18.2595C17.0721 18.2431 17.058 18.2294 17.0411 18.2294H17.0326C17.0157 18.2294 17.0016 18.2431 17.0016 18.2595C17.0016 18.2759 17.0157 18.2896 17.0326 18.2896Z" fill="#B14225"/>
<path d="M17.1292 18.2896H17.1461C17.163 18.2896 17.1771 18.2759 17.1771 18.2595C17.1771 18.2431 17.163 18.2294 17.1461 18.2294H17.1292C17.1122 18.2294 17.0981 18.2431 17.0981 18.2595C17.0981 18.2759 17.1122 18.2896 17.1292 18.2896ZM17.2363 18.2896H17.2532C17.2701 18.2896 17.2842 18.2759 17.2842 18.2595C17.2842 18.2431 17.2701 18.2294 17.2532 18.2294H17.2363C17.2194 18.2294 17.2053 18.2431 17.2053 18.2595C17.2053 18.2759 17.2194 18.2896 17.2363 18.2896ZM17.3434 18.2896H17.3603C17.3772 18.2896 17.3913 18.2759 17.3913 18.2595C17.3913 18.2431 17.3772 18.2294 17.3603 18.2294H17.3434C17.3265 18.2294 17.3124 18.2431 17.3124 18.2595C17.3096 18.2759 17.3237 18.2896 17.3434 18.2896Z" fill="#B14225"/>
<path d="M17.4478 18.2896H17.4562C17.4731 18.2896 17.4872 18.2759 17.4872 18.2595C17.4872 18.2431 17.4731 18.2294 17.4562 18.2294H17.4478C17.4308 18.2294 17.4167 18.2431 17.4167 18.2595C17.4167 18.2759 17.4308 18.2896 17.4478 18.2896Z" fill="#B14225"/>
<path d="M17.0326 18.5346H17.0411C17.058 18.5346 17.0721 18.5209 17.0721 18.5045C17.0721 18.4881 17.058 18.4744 17.0411 18.4744H17.0326C17.0157 18.4744 17.0016 18.4881 17.0016 18.5045C17.0016 18.5209 17.0157 18.5346 17.0326 18.5346Z" fill="#B14225"/>
<path d="M17.1292 18.5346H17.1461C17.163 18.5346 17.1771 18.5209 17.1771 18.5045C17.1771 18.4881 17.163 18.4744 17.1461 18.4744H17.1292C17.1122 18.4744 17.0981 18.4881 17.0981 18.5045C17.0981 18.5209 17.1122 18.5346 17.1292 18.5346ZM17.2363 18.5346H17.2532C17.2701 18.5346 17.2842 18.5209 17.2842 18.5045C17.2842 18.4881 17.2701 18.4744 17.2532 18.4744H17.2363C17.2194 18.4744 17.2053 18.4881 17.2025 18.5045C17.2025 18.5209 17.2165 18.5346 17.2363 18.5346ZM17.3434 18.5346H17.3603C17.3772 18.5346 17.3913 18.5209 17.3913 18.5045C17.3913 18.4881 17.3772 18.4744 17.3603 18.4744H17.3434C17.3265 18.4744 17.3124 18.4881 17.3124 18.5045C17.3096 18.5209 17.3237 18.5346 17.3434 18.5346Z" fill="#B14225"/>
<path d="M17.4478 18.5346H17.4562C17.4731 18.5346 17.4872 18.5209 17.4872 18.5045C17.4872 18.4881 17.4731 18.4744 17.4562 18.4744H17.4478C17.4308 18.4744 17.4167 18.4881 17.4167 18.5045C17.4167 18.5209 17.4308 18.5346 17.4478 18.5346Z" fill="#B14225"/>
<path d="M16.9476 18.4118H16.9561C16.973 18.4118 16.9871 18.3981 16.9899 18.3817C16.9928 18.3653 16.9758 18.3516 16.9589 18.3488C16.9589 18.3488 16.9589 18.3488 16.9561 18.3488H16.9476C16.9307 18.3488 16.9166 18.3625 16.9166 18.3817C16.9194 18.3981 16.9307 18.4118 16.9476 18.4118Z" fill="#B14225"/>
<path d="M17.0407 18.4118H17.0576C17.0745 18.4118 17.0886 18.3981 17.0914 18.3817C17.0942 18.3653 17.0773 18.3516 17.0604 18.3488C17.0604 18.3488 17.0604 18.3488 17.0576 18.3488H17.0407C17.0237 18.3488 17.0096 18.3625 17.0096 18.3817C17.0125 18.3981 17.0237 18.4118 17.0407 18.4118ZM17.145 18.4118H17.1619C17.1788 18.4118 17.1929 18.3981 17.1957 18.3817C17.1986 18.3653 17.1816 18.3516 17.1647 18.3488C17.1647 18.3488 17.1647 18.3488 17.1619 18.3488H17.145C17.1281 18.3488 17.114 18.3625 17.114 18.3817C17.114 18.3981 17.1281 18.4118 17.145 18.4118ZM17.2465 18.4118H17.2634C17.2803 18.4118 17.2944 18.3981 17.2944 18.3789C17.2944 18.3625 17.2803 18.3488 17.2634 18.3488H17.2465C17.2296 18.3488 17.2155 18.3625 17.2126 18.3789C17.2098 18.3954 17.2267 18.4118 17.2465 18.4118C17.2437 18.4118 17.2437 18.4118 17.2465 18.4118ZM17.348 18.4118H17.3649C17.3818 18.4118 17.3959 18.3981 17.3959 18.3789C17.3959 18.3625 17.3818 18.3488 17.3649 18.3488H17.348C17.3311 18.3488 17.317 18.3625 17.3142 18.3789C17.3113 18.3954 17.3282 18.4118 17.348 18.4118C17.348 18.4118 17.3452 18.4118 17.348 18.4118Z" fill="#B14225"/>
<path d="M17.4478 18.4118H17.4562C17.4731 18.4118 17.4872 18.3981 17.4872 18.3789C17.4872 18.3625 17.4731 18.3488 17.4562 18.3488H17.4478C17.4308 18.3488 17.4167 18.3625 17.4167 18.3817C17.4196 18.3981 17.4308 18.4118 17.4478 18.4118Z" fill="#B14225"/>
</g>
<defs>
<clipPath id="clip0_1_2523">
<rect width="36" height="32" fill="white"/>
</clipPath>
</defs>
</svg>
