<svg width="38" height="38" viewBox="0 0 38 38" fill="none" xmlns="http://www.w3.org/2000/svg">
<path d="M14.8613 14.4334H13.2257C8.65907 14.4334 4.95654 18.1359 4.95654 22.7025V34.0274H23.1305V22.7025C23.1305 18.1359 19.4279 14.4334 14.8613 14.4334Z" fill="#00ACC1"/>
<path d="M18.8588 28.4769H14.4078C13.9725 28.4769 13.5545 28.305 13.2447 27.9977L6.60874 21.4196C5.86774 18.5977 9.99239 19.9863 11.5653 21.0421L15.0547 24.1209H19.9046C22.0921 26.0416 20.7596 28.4769 18.8588 28.4769Z" fill="#00838F"/>
<path d="M14.0434 12.7812C11.1703 12.7812 8.83411 10.4451 8.83411 7.57194C8.83411 4.69881 11.1703 2.36346 14.0434 2.36346C16.9165 2.36346 19.2527 4.69964 19.2527 7.57277C19.2527 10.4459 16.9165 12.7812 14.0434 12.7812Z" fill="#FFBA57"/>
<path d="M38 32.6073H0V37.5639H38V32.6073Z" fill="#B3E5FC"/>
<path d="M8.97876 6.51371C8.97876 6.51371 11.5107 6.00732 14.0435 6.00732C16.5763 6.00732 19.1082 6.51371 19.1082 6.51371C19.1082 4.48814 18.6018 1.44897 18.6018 1.44897C18.6018 1.44897 17.3982 0.436188 13.9171 0.436188C10.4352 0.436188 9.48598 1.44897 9.48598 1.44897C9.48598 1.44897 8.97876 4.48814 8.97876 6.51371Z" fill="#00ACC1"/>
<path d="M36.295 14.3846C36.295 14.3846 32.096 14.5755 30.3785 13.8113L31.046 20.0772C31.0468 20.0772 36.9633 19.8236 36.295 14.3846Z" fill="#CC6C25"/>
<path d="M29.2666 20.7571C31.4688 20.7571 33.2541 18.9718 33.2541 16.7696C33.2541 14.5673 31.4688 12.7821 29.2666 12.7821C27.0643 12.7821 25.2791 14.5673 25.2791 16.7696C25.2791 18.9718 27.0643 20.7571 29.2666 20.7571Z" fill="#CC6C25"/>
<path d="M28.8635 27.9366C28.8635 29.2658 26.1944 31.0452 24.876 31.9241V34.5825C25.6096 34.5825 26.2052 35.1781 26.2052 35.9117H23.5468C22.8133 35.9117 22.2177 35.316 22.2177 34.5825V29.2658L28.8635 27.9366Z" fill="#CC6C25"/>
<path d="M30.9634 25.2783V34.5825C31.697 34.5825 32.2926 35.1781 32.2926 35.9117H29.6342C28.9007 35.9117 28.3051 35.3161 28.3051 34.5825V26.6075L30.9634 25.2783Z" fill="#CC6C25"/>
<path d="M30.8883 16.098C31.2551 16.098 31.5525 15.8006 31.5525 15.4338C31.5525 15.067 31.2551 14.7696 30.8883 14.7696C30.5215 14.7696 30.2241 15.067 30.2241 15.4338C30.2241 15.8006 30.5215 16.098 30.8883 16.098Z" fill="#3E2723"/>
<path d="M36.3081 15.7039C35.7687 15.7089 35.259 15.3942 35.0541 14.8613C34.9963 14.711 34.9781 14.5573 34.9764 14.4045C35.7497 14.4086 36.2949 14.3847 36.2949 14.3847C36.3552 14.877 36.3461 15.3049 36.3081 15.7039Z" fill="#3E2723"/>
<path d="M31.3913 18.9719L32.585 24.2903C32.7767 25.1444 32.694 26.0366 32.3496 26.8412L30.4306 31.3194L24.9189 34.6874L23.7963 35.9116H21.2362C19.4932 35.9116 18.0806 34.499 18.0806 32.756V31.8613C18.0806 29.6491 19.0917 27.5583 20.8265 26.1845L23.598 23.9896C24.391 23.3617 25.0131 22.5431 25.4055 21.6113L27.1634 17.4379L31.3913 18.9719Z" fill="#CC6C25"/>
<path d="M23.2039 27.4947C20.5207 28.5884 18.9247 31.0254 19.6385 32.9378C20.3531 34.8501 23.1064 35.5135 25.7895 34.4197C28.4727 33.326 30.0687 31.3773 29.3549 29.4649C28.6412 27.5533 25.887 26.4009 23.2039 27.4947Z" fill="#894415"/>
<path d="M29.1633 15.3082L29.6003 18.2392C29.787 19.499 29.5879 20.7497 29.0245 21.8426L28.9295 22.0268C28.4677 22.9223 27.2311 23.3105 26.2555 22.7504C25.279 22.1904 24.7247 21.2866 24.4108 20.4671C24.025 19.4634 24.1258 18.3912 24.5901 17.4908L25.5384 15.2595L29.1633 15.3082Z" fill="#894415"/>
<path d="M21.8004 28.2316C19.1098 29.3047 17.4957 31.7293 18.1962 33.6466C18.8967 35.564 21.6459 36.2497 24.3365 35.1766C27.027 34.1035 28.6412 32.1671 27.9407 30.2498C27.2402 28.3324 24.491 27.1586 21.8004 28.2316Z" fill="#CC6C25"/>
<path d="M23.9565 21.0421C22.5877 21.0421 21.4783 22.1515 21.4783 23.5204C21.4783 24.8892 22.5877 25.9986 23.9565 25.9986C25.3254 25.9986 26.4348 24.8892 26.4348 23.5204C26.4348 22.1515 25.3254 21.0421 23.9565 21.0421Z" fill="#263238"/>
<path d="M23.1305 23.5204C23.1305 23.0635 23.4998 22.6943 23.9566 22.6943C24.4126 22.6943 24.7827 23.0635 24.7827 23.5204C24.7827 23.9772 24.4126 24.3464 23.9566 24.3464C23.4998 24.3464 23.1305 23.9772 23.1305 23.5204Z" fill="#CFD8DC"/>
<path d="M22.1648 34.286C22.1698 33.602 21.6196 33.0427 20.9356 33.0377C18.1971 33.0171 17.5024 32.5702 16.8977 31.507C16.8836 31.4822 16.8646 31.4624 16.8498 31.4393C16.8266 31.4037 16.8027 31.3682 16.7762 31.336C16.7506 31.3046 16.7234 31.2765 16.6944 31.2484C16.6655 31.2195 16.6366 31.1906 16.6044 31.1642C16.573 31.1386 16.5408 31.1163 16.5078 31.0948C16.4747 31.0725 16.4417 31.051 16.407 31.032C16.3714 31.013 16.3351 30.9973 16.2979 30.9816C16.2624 30.9667 16.2269 30.9519 16.1889 30.9403C16.1501 30.9279 16.1104 30.9196 16.0699 30.9114C16.0328 30.9039 15.9956 30.8965 15.9576 30.8916C15.9163 30.8866 15.8741 30.8858 15.8328 30.885C15.7948 30.8841 15.7577 30.8841 15.7205 30.8874C15.6775 30.8907 15.6354 30.8982 15.5924 30.9064C15.5553 30.913 15.5189 30.9205 15.4826 30.9304C15.4404 30.9428 15.4 30.9585 15.3587 30.975C15.3339 30.9849 15.3083 30.9899 15.2843 31.0023C15.2711 31.0089 15.2604 31.0179 15.2471 31.0254C15.2348 31.032 15.2207 31.0353 15.2083 31.0427C15.1844 31.0559 15.1654 31.0741 15.1431 31.089C15.1067 31.1129 15.0704 31.1369 15.0365 31.1642C15.0059 31.1898 14.9778 31.217 14.9498 31.2451C14.9208 31.274 14.8919 31.3029 14.8655 31.3352C14.8399 31.3666 14.8176 31.3996 14.7944 31.4335C14.773 31.4657 14.7515 31.4979 14.7325 31.5326C14.7127 31.569 14.697 31.6061 14.6813 31.6433C14.6664 31.6788 14.6515 31.7135 14.6408 31.7507C14.6284 31.7895 14.6201 31.8292 14.6119 31.8688C14.6036 31.9068 14.5962 31.944 14.5921 31.982C14.5871 32.0225 14.5863 32.0638 14.5863 32.1051C14.5854 32.1439 14.5854 32.1819 14.5888 32.2199C14.5921 32.262 14.5995 32.3042 14.6078 32.3463C14.6144 32.3835 14.6218 32.4206 14.6325 32.4578C14.6449 32.5008 14.6614 32.5413 14.678 32.5834C14.6879 32.6073 14.6928 32.633 14.7044 32.6569C14.7168 32.6825 14.73 32.7048 14.7432 32.7304C14.7441 32.7313 14.7441 32.7321 14.7441 32.7329C14.7441 32.7337 14.7449 32.7337 14.7449 32.7346C16.0328 35.3409 18.0633 35.8869 20.9149 35.9125C20.9191 35.9125 20.9232 35.9125 20.9265 35.9125C21.6055 35.9125 22.159 35.3648 22.1656 34.6841C22.1664 34.6106 22.1574 34.5404 22.1458 34.4702C22.1549 34.409 22.1648 34.3487 22.1648 34.286Z" fill="#CC6C25"/>
<path d="M19.4816 25.0975C17.1876 24.0434 13.7288 20.321 13.2216 15.3439L14.8655 15.1762C15.3438 19.8725 18.7084 22.9249 20.1706 23.5965L19.4816 25.0975Z" fill="#37474F"/>
<path d="M20.6538 26.8247H15.5734C15.081 26.8247 14.5994 26.6785 14.1922 26.4042L6.87883 21.489C5.74296 20.7257 5.60336 19.3114 6.36666 18.1772C7.12996 17.0405 8.50788 16.6159 9.64127 17.3767L16.3276 21.8707H20.6538C22.0218 21.8707 23.1304 22.9793 23.1304 24.3473C23.1304 25.7153 22.0218 26.8247 20.6538 26.8247Z" fill="#00ACC1"/>
<path d="M10.0551 11.1292C9.96508 10.7442 9.91304 10.3402 9.91304 9.92224V8.39728C9.91304 7.94128 9.54378 7.5712 9.08695 7.5712C8.63013 7.5712 8.26086 7.94128 8.26086 8.39728V9.92224C8.26086 10.3353 8.29804 10.7392 8.36743 11.1292H10.0551Z" fill="#90A4AE"/>
<path d="M19.7196 11.1292C19.7889 10.7384 19.8261 10.3353 19.8261 9.92224V8.39728C19.8261 7.94128 19.4569 7.5712 19 7.5712C18.5432 7.5712 18.1739 7.94128 18.1739 8.39728V9.92224C18.1739 10.3411 18.1219 10.7442 18.0319 11.1292H19.7196Z" fill="#90A4AE"/>
<path d="M14.3739 16.0855H13.713C10.7069 16.0855 8.26086 13.3205 8.26086 9.92203H9.91304C9.91304 12.4094 11.6173 14.4333 13.713 14.4333H14.3739C16.4689 14.4333 18.1739 12.4094 18.1739 9.92203H19.8261C19.8261 13.3205 17.38 16.0855 14.3739 16.0855Z" fill="#37474F"/>
</svg>
