<svg width="19" height="36" viewBox="0 0 19 36" fill="none" xmlns="http://www.w3.org/2000/svg">
<path d="M10.1592 11.8211C10.3878 11.7433 10.6165 11.6745 10.848 11.6117C11.1004 11.5429 11.3558 11.4831 11.6082 11.4292L11.6171 11.3096L11.6349 11.0673L11.6349 11.4233C11.9941 11.3485 12.3534 11.2887 12.7038 11.2438L12.7572 10.9985L12.8315 10.6695L12.8018 10.9895L12.781 11.2348C13.2946 11.172 13.7935 11.1331 14.2715 11.1182L14.2864 10.7951L14.2982 10.5648L14.319 10.7951L14.3457 11.1182C14.8475 11.1032 15.3256 11.1092 15.762 11.1301L15.7027 10.8071L15.6522 10.5379L15.7442 10.8101L15.8541 11.1331C16.2816 11.1541 16.6706 11.19 17.0091 11.2258L16.9883 11.0254L16.9675 10.822L17.021 11.0344L17.0685 11.2318C17.3921 11.2677 17.6623 11.3096 17.8731 11.3425C18.1819 11.3933 18.3541 11.4322 18.3541 11.4322C18.3541 11.4322 17.4456 10.2298 14.5447 10.2298C11.6438 10.2298 10.1592 11.8211 10.1592 11.8211Z" fill="#40CC4A"/>
<path d="M10.1591 11.8209C10.1591 11.8209 10.3046 11.7013 10.554 11.5158C10.9133 11.2466 11.4923 10.8368 12.1841 10.43L11.9941 10.1967L11.7239 9.86469L12.0802 10.1279L12.3533 10.3313C12.7423 10.11 13.161 9.89161 13.5915 9.70317L13.2886 9.31731L13.1194 9.10194L13.3332 9.29338L13.7251 9.64633C13.9745 9.54164 14.2269 9.44593 14.4822 9.36516C14.6188 9.32329 14.7614 9.2844 14.9009 9.24851L14.6812 8.71907L14.6129 8.55755L14.7198 8.70711L15.0761 9.20663C15.6046 9.09297 16.1509 9.03016 16.6735 9.00323L16.3617 8.49773L16.2578 8.32723L16.4003 8.49773L16.8131 8.99725C17.2287 8.97931 17.6266 8.9823 17.9829 8.99725L17.8938 8.63831L17.8671 8.52764L17.9235 8.6443L18.0987 9.00323C18.9331 9.04212 19.515 9.13185 19.515 9.13185C19.515 9.13185 19.4794 9.09596 19.4141 9.03614C18.9568 8.63532 17.0031 7.15769 13.9597 8.12383C10.459 9.23355 10.1591 11.8209 10.1591 11.8209Z" fill="#40CC4A"/>
<path opacity="0.14" d="M17.9206 8.64447L18.0958 9.00342C18.9301 9.04231 19.5121 9.13204 19.5121 9.13204C19.5121 9.13204 19.4765 9.09615 19.4111 9.03632C19.043 8.9077 18.5263 8.75515 17.9206 8.64447Z" fill="black"/>
<path opacity="0.14" d="M16.3973 8.50079L16.81 9.00033C17.2257 8.98238 17.6236 8.98538 17.9799 9.00033L17.8908 8.64138C17.4365 8.55763 16.9288 8.50079 16.3973 8.50079Z" fill="black"/>
<path opacity="0.14" d="M14.7197 8.71017L15.076 9.2097C15.6046 9.09604 16.1509 9.03322 16.6735 9.0063L16.3617 8.50079C15.9163 8.50378 15.4561 8.54267 14.9929 8.64138C14.9009 8.66232 14.8118 8.68625 14.7197 8.71017Z" fill="black"/>
<path opacity="0.14" d="M13.3332 9.29348L13.7251 9.64644C13.9745 9.54175 14.2269 9.44603 14.4822 9.36527C14.6188 9.32339 14.7613 9.28451 14.9009 9.24861L14.6812 8.71918C14.215 8.85378 13.7607 9.05419 13.3332 9.29348Z" fill="black"/>
<path opacity="0.14" d="M12.0803 10.1282L12.3534 10.3316C12.7424 10.1103 13.161 9.89193 13.5916 9.70349L13.2887 9.31763C12.8582 9.5629 12.4484 9.84407 12.0803 10.1282Z" fill="black"/>
<path opacity="0.14" d="M10.5569 11.5159C10.9162 11.2467 11.4952 10.8369 12.187 10.4301L11.997 10.1968C11.3794 10.6844 10.8776 11.1749 10.5569 11.5159Z" fill="black"/>
<path d="M10.1591 11.8212C10.1591 11.8212 10.1888 11.7583 10.2422 11.6447C10.3966 11.3246 10.7618 10.6067 11.2785 9.76623L11.0261 9.49403L10.8806 9.33849L11.0439 9.45814L11.3379 9.6735C11.5724 9.29961 11.8337 8.90178 12.1217 8.50695L11.7417 8.1181L11.6348 8.00742L11.7535 8.10015L12.1811 8.42918C12.4543 8.05827 12.7482 7.69335 13.06 7.35236L12.5344 6.93659L12.4008 6.8319L12.5493 6.91565L13.1491 7.25066C13.2381 7.15793 13.3242 7.06521 13.4163 6.97547C13.6746 6.71823 13.9656 6.47595 14.2744 6.24563C14.0903 6.08411 13.8409 5.87173 13.6479 5.71021C13.6004 5.67133 13.5558 5.63244 13.5172 5.60253C13.4133 5.53074 13.348 5.48288 13.3569 5.47989C13.3628 5.4769 13.4252 5.52775 13.5172 5.60253C13.5588 5.63244 13.6063 5.66534 13.6598 5.70124C13.8765 5.8508 14.1615 6.04223 14.3664 6.17982C14.8326 5.84182 15.3344 5.53373 15.8273 5.26154L15.0761 4.77398L14.9662 4.70219L15.0939 4.765L15.9609 5.18975C16.3587 4.97738 16.7477 4.78594 17.107 4.62143L16.6972 4.18173L17.2109 4.57357C18.1788 4.13686 18.9033 3.89158 18.9033 3.89158C18.9033 3.89158 18.7994 3.87364 18.6183 3.8527C17.5702 3.73006 13.9003 3.49077 12.2316 5.8478C10.2749 8.61164 10.1591 11.8212 10.1591 11.8212Z" fill="#40CC4A"/>
<path d="M9.98089 10.9088C10.0789 11.4771 10.159 11.8211 10.159 11.8211C10.159 11.8211 10.4025 10.0772 10.8241 8.00136L10.1145 7.82189L10.0314 7.80095L10.8687 7.80095C10.9756 7.28647 11.0914 6.75405 11.219 6.22461L10.5539 6.02719L10.162 5.91054L10.5747 5.96139L11.2665 6.04514C11.3794 5.61441 11.5427 5.17172 11.7386 4.72903L11.0231 4.6034L10.6727 4.54058L11.0409 4.55255L11.801 4.57947C12.0059 4.1308 12.2404 3.6881 12.4898 3.26037L11.7951 3.07192L11.2784 2.93134L11.8485 2.99715L12.5938 3.08389C12.9323 2.51258 13.2856 1.98015 13.6092 1.5225L13.2767 1.45071L12.864 1.36397L13.3509 1.38491L13.6983 1.39986C13.918 1.08878 14.1199 0.819579 14.2892 0.601224C14.5712 0.233311 14.7583 0.0119647 14.7672 0C14.7197 0.0119646 10.6252 1.13365 9.92448 4.47478C9.42269 6.84976 9.7493 9.53583 9.98089 10.9088Z" fill="#40CC4A"/>
<g opacity="0.14">
<path opacity="0.14" d="M13.348 1.38497L13.6954 1.39992C13.9151 1.08885 14.117 0.819642 14.2863 0.601288C13.9893 0.831606 13.6687 1.09782 13.348 1.38497Z" fill="black"/>
<path opacity="0.14" d="M11.8485 2.99718L12.5938 3.08392C12.9323 2.51261 13.2856 1.98018 13.6093 1.52253L13.2767 1.45074C12.7571 1.92335 12.2464 2.45278 11.8485 2.99718Z" fill="black"/>
<path opacity="0.14" d="M11.0409 4.55253L11.801 4.57945C12.0059 4.13077 12.2405 3.68808 12.4899 3.26034L11.7951 3.0719C11.6288 3.3082 11.4833 3.5445 11.3705 3.7838C11.2517 4.02907 11.1419 4.28631 11.0409 4.55253Z" fill="black"/>
<path opacity="0.14" d="M10.5719 5.95851L11.2637 6.04226C11.3766 5.61153 11.5399 5.16884 11.7358 4.72615L11.0203 4.60052C10.851 5.04621 10.7026 5.50983 10.5719 5.95851Z" fill="black"/>
<path opacity="0.14" d="M10.1205 7.801L10.8688 7.801C10.9756 7.28651 11.0914 6.75408 11.2191 6.22464L10.554 6.02722C10.367 6.68229 10.2244 7.30446 10.1205 7.801Z" fill="black"/>
<path opacity="0.14" d="M9.92155 8.88977L9.9839 10.9088C10.0819 11.4771 10.1621 11.8211 10.1621 11.8211C10.1621 11.8211 10.4055 10.0773 10.8271 8.0014L10.1175 7.82193C9.9839 8.46503 9.92155 8.88977 9.92155 8.88977Z" fill="black"/>
</g>
<path d="M5.57469 1.02295C5.57469 1.02295 5.99038 1.43274 6.54561 2.11772L7.25227 1.96517L6.61093 2.19848C6.6139 2.20147 6.61687 2.20745 6.61984 2.21044C6.8455 2.4946 7.09194 2.81765 7.33838 3.17659L7.78969 3.15266L8.23507 3.12873L7.84314 3.20351L7.41261 3.28427C7.70061 3.70902 7.98862 4.17863 8.24991 4.67815L8.91797 4.48074L9.12582 4.42091L8.93579 4.50766L8.30929 4.79182C8.51417 5.19263 8.69826 5.6114 8.84968 6.04213L9.51181 5.9135L8.87938 6.12289C8.95657 6.35021 9.02487 6.58353 9.08425 6.81385C9.14957 7.07707 9.20895 7.33132 9.26834 7.57659L9.85623 7.48985L9.96906 7.47489L9.8592 7.51378L9.301 7.71718C9.38413 8.07313 9.46133 8.40814 9.53259 8.72221L9.94828 8.63547L10.0492 8.61453L9.94828 8.6564L9.55338 8.82092C9.71074 9.52085 9.83545 10.1161 9.92749 10.5857C10.0878 11.3814 10.1621 11.824 10.1621 11.824C10.1621 11.824 10.9311 6.47884 9.63354 3.92737C8.33602 1.37292 5.57469 1.02295 5.57469 1.02295Z" fill="#40CC4A"/>
<g opacity="0.11">
<path opacity="0.11" d="M9.94535 8.65359L9.55044 8.81811C9.70781 9.51805 9.83252 10.1133 9.92456 10.5829C9.96019 10.0565 9.97801 9.3984 9.94535 8.65359Z" fill="black"/>
<path opacity="0.11" d="M9.85331 7.51102L9.29512 7.71442C9.37825 8.07036 9.45545 8.40537 9.52671 8.71945L9.94238 8.6327C9.92754 8.27675 9.89785 7.90286 9.85331 7.51102Z" fill="black"/>
<path opacity="0.11" d="M8.93281 4.50491L8.3063 4.78907C8.51118 5.18989 8.69527 5.60865 8.8467 6.03938L9.50884 5.91076L8.87639 6.12014C8.95359 6.34747 9.02188 6.58078 9.08127 6.8111C9.14659 7.07432 9.20598 7.32857 9.26536 7.57385L9.85327 7.4871C9.80873 7.09227 9.74638 6.67949 9.66324 6.25774C9.53259 5.61463 9.2713 5.02837 8.93281 4.50491Z" fill="black"/>
<path opacity="0.11" d="M7.84323 3.20087L7.41269 3.28163C7.7007 3.70637 7.98872 4.17599 8.25001 4.67551L8.91809 4.47809C8.60335 3.99951 8.22923 3.57177 7.84323 3.20087Z" fill="black"/>
<path opacity="0.11" d="M6.61994 2.2077C6.8456 2.49186 7.09204 2.81491 7.33848 3.17385L7.78979 3.14992C7.39192 2.77602 6.98515 2.46195 6.61994 2.2077Z" fill="black"/>
</g>
<path d="M2.2105 2.85363C2.2105 2.85363 2.64697 3.08694 3.29129 3.51467C3.30019 3.52066 3.3091 3.52664 3.32098 3.53262L3.34473 3.52365L3.95045 3.27837L3.47241 3.55057L3.40412 3.58945C3.73666 3.8108 4.11672 4.08299 4.51756 4.39408L5.16781 4.22059L5.30737 4.1817L5.1886 4.23255L4.61851 4.47484C4.96888 4.75302 5.33409 5.0641 5.69633 5.4021L6.35846 5.12093L6.75039 4.95641L6.39706 5.15981L5.80025 5.5038C6.18921 5.87769 6.57224 6.28449 6.92557 6.7212L7.48972 6.43405L7.69162 6.33235L7.51644 6.46994L7.03246 6.85281C7.26703 7.15492 7.48972 7.47198 7.68568 7.80101C7.73913 7.88776 7.78961 7.9745 7.84008 8.05825L8.41313 7.83691L8.50815 7.80101L8.42501 7.85485L7.91431 8.18388C8.1756 8.6176 8.41017 9.00645 8.62395 9.35343L9.13168 9.16498L9.16731 9.15302L9.13465 9.17097L8.67739 9.44017C9.73442 11.1721 10.162 11.8181 10.162 11.8181C10.162 11.8181 10.1501 11.7164 10.1234 11.534C9.97196 10.526 9.34843 7.08313 7.64115 5.1299C5.6221 2.82371 2.2105 2.85363 2.2105 2.85363Z" fill="#40CC4A"/>
<g opacity="0.13">
<path opacity="0.13" d="M9.13173 9.17105L8.67448 9.44026C9.7315 11.1721 10.1591 11.8182 10.1591 11.8182C10.1591 11.8182 10.1472 11.7165 10.1205 11.5341C9.93934 11.0076 9.6157 10.1551 9.13173 9.17105Z" fill="black"/>
<path opacity="0.13" d="M8.42212 7.85797L7.91142 8.187C8.17271 8.62072 8.40727 9.00957 8.62105 9.35654L9.12878 9.1681C8.92391 8.74635 8.68934 8.30665 8.42212 7.85797Z" fill="black"/>
<path opacity="0.13" d="M7.51344 6.47018L7.02946 6.85305C7.26403 7.15516 7.48672 7.47222 7.68269 7.80125C7.73614 7.888 7.78662 7.97474 7.83709 8.05849L8.41016 7.83715C8.14589 7.38548 7.846 6.92484 7.51344 6.47018Z" fill="black"/>
<path opacity="0.13" d="M6.39721 5.15994L5.8004 5.50393C6.18937 5.87782 6.57239 6.28462 6.92572 6.72133L7.48987 6.43418C7.35922 6.2577 7.22561 6.08122 7.08606 5.90773C6.85743 5.62956 6.62584 5.38129 6.39721 5.15994Z" fill="black"/>
<path opacity="0.13" d="M5.18573 4.2327L4.61565 4.47498C4.96601 4.75316 5.33122 5.06424 5.69346 5.40224L6.35559 5.12107C5.96366 4.75316 5.56876 4.46002 5.18573 4.2327Z" fill="black"/>
<path opacity="0.13" d="M3.47242 3.55069L3.40412 3.58957C3.73668 3.81092 4.11674 4.08312 4.51758 4.3942L5.16785 4.22071C4.54134 3.8528 3.9564 3.65538 3.47242 3.55069Z" fill="black"/>
<path opacity="0.13" d="M3.2914 3.51486C3.30031 3.52084 3.30922 3.52683 3.3211 3.53281L3.34485 3.52384C3.32406 3.52084 3.30922 3.51785 3.2914 3.51486Z" fill="black"/>
</g>
<path d="M0.527056 6.42212C0.527056 6.42212 0.610191 6.43708 0.76162 6.46998C0.9754 6.51485 1.32576 6.59262 1.75629 6.7003L2.08884 6.41315L2.20761 6.31145L2.14229 6.41614L1.93741 6.74517C2.36794 6.85584 2.86676 6.99045 3.3834 7.15197L3.76048 6.5986L3.82284 6.50588L3.78127 6.60159L3.53483 7.19983C4.03068 7.35537 4.54138 7.53484 5.02535 7.73525L5.40244 7.16992L5.14115 7.7831C5.60137 7.97753 6.03487 8.18691 6.40899 8.41723L6.81873 7.83694L6.88109 7.74721L6.83655 7.84891L6.55151 8.50696C6.66434 8.58174 6.77123 8.65652 6.86921 8.73429C7.16019 8.96162 7.44226 9.19493 7.70949 9.42525L7.97077 9.04836L7.77481 9.48208C9.03374 10.5798 9.96903 11.6148 10.1264 11.7913C10.1383 11.8062 10.1472 11.8152 10.1501 11.8182C10.1353 11.7584 9.08125 8.01941 6.17442 6.68535C3.25573 5.34531 0.527056 6.42212 0.527056 6.42212Z" fill="#40CC4A"/>
<path opacity="0.14" d="M6.84552 7.85162L6.56048 8.50968C6.67331 8.58446 6.7802 8.65923 6.87818 8.737C7.16916 8.96433 7.45124 9.19764 7.71846 9.42796L7.97975 9.05108L7.78378 9.48479C9.04272 10.5825 9.97801 11.6175 10.1354 11.794C9.69594 10.9235 8.60625 9.06603 6.84552 7.85162Z" fill="black"/>
<path opacity="0.14" d="M3.78721 6.60138L3.54076 7.19961C4.03662 7.35515 4.54733 7.53462 5.03131 7.73502L5.40839 7.1697L5.1471 7.78288C5.60733 7.9773 6.04084 8.18668 6.41496 8.417L6.82471 7.83672C6.50403 7.61837 6.16257 7.41796 5.79736 7.25345C5.10851 6.93639 4.42856 6.73 3.78721 6.60138Z" fill="black"/>
<path opacity="0.14" d="M2.1452 6.41592L1.94032 6.74495C2.37086 6.85562 2.86969 6.99022 3.38633 7.15174L3.76343 6.59838C3.18443 6.48173 2.63809 6.43088 2.1452 6.41592Z" fill="black"/>
<path opacity="0.14" d="M0.761642 6.46972C0.975423 6.51458 1.32579 6.59235 1.75632 6.70003L2.08887 6.41289C1.5752 6.40092 1.12388 6.43083 0.761642 6.46972Z" fill="black"/>
<path d="M1.63158 9.18279L1.65236 9.11998L1.64643 9.1798L1.61377 9.49088C1.98491 9.46995 2.42435 9.452 2.89645 9.44901L3.03897 9.08409L3.15774 8.776L3.10132 9.08409L3.036 9.44901C3.44575 9.44901 3.87331 9.46396 4.30384 9.49388L4.38401 9.12596L4.46121 8.773L4.46121 9.50584C4.85908 9.53874 5.25398 9.58959 5.62809 9.66138L5.76468 9.30244L5.85375 9.06913L5.83 9.31441L5.7914 9.69428C6.06159 9.75112 6.31991 9.8229 6.55745 9.90666C6.71481 9.96349 6.86921 10.0203 7.01767 10.0801L7.30271 9.85282L7.14237 10.131C9.0278 10.8997 10.1591 11.821 10.1591 11.821C10.1591 11.821 10.1531 11.809 10.1383 11.7881C9.93043 11.477 8.27363 9.10203 5.65185 8.44697C3.54967 7.92052 1.67909 8.82685 0.871471 9.31141C0.601276 9.47593 0.449848 9.58959 0.449848 9.58959C0.449848 9.58959 0.87444 9.53874 1.51875 9.49687L1.63158 9.18279Z" fill="#40CC4A"/>
<path opacity="0.14" d="M5.83297 9.3176L5.79437 9.69747C6.06457 9.75431 6.32289 9.82609 6.56042 9.90985C6.71779 9.96668 6.87218 10.0235 7.02064 10.0833L7.30568 9.85601L7.14535 10.1342C9.0278 10.8999 10.1591 11.8212 10.1591 11.8212C10.1591 11.8212 10.1531 11.8092 10.1383 11.7883C9.43458 11.0076 8.02125 9.77225 5.83297 9.3176Z" fill="black"/>
<path opacity="0.14" d="M5.18559 9.21C4.93915 9.18009 4.69866 9.15317 4.46707 9.13522L4.46707 9.50912C4.86493 9.54202 5.25982 9.59287 5.63393 9.66466L5.77051 9.30572C5.58048 9.26684 5.38452 9.23393 5.18559 9.21Z" fill="black"/>
<path opacity="0.14" d="M3.1043 9.08412L3.03898 9.44903C3.44872 9.44903 3.87627 9.46399 4.3068 9.4939L4.38696 9.126C3.92675 9.0931 3.4992 9.08113 3.1043 9.08412Z" fill="black"/>
<path opacity="0.14" d="M1.64932 9.18291L1.61666 9.49399C1.98781 9.47305 2.42725 9.4551 2.89935 9.45211L3.04187 9.08719C2.51929 9.09317 2.0561 9.12907 1.64932 9.18291Z" fill="black"/>
<path opacity="0.14" d="M0.452856 9.58955C0.452856 9.58955 0.877438 9.53871 1.52173 9.49683L1.63159 9.18277C1.34953 9.21866 1.09715 9.26353 0.871499 9.31138C0.60131 9.4729 0.452856 9.58955 0.452856 9.58955Z" fill="black"/>
<path d="M1.74155 12.0963C1.74452 12.0963 1.75343 12.0903 1.77124 12.0843C1.86626 12.0424 2.19881 11.9048 2.69763 11.7493L2.69763 11.2916L2.70951 11.3305L2.8164 11.7134C3.11628 11.6237 3.46665 11.5279 3.86155 11.4412L3.86155 10.6126L3.89124 10.843L3.9625 11.4203C4.36928 11.3335 4.81466 11.2587 5.29269 11.2049L5.26597 10.6336L5.26003 10.487L5.29863 10.6306L5.44412 11.1869C5.90731 11.1421 6.39723 11.1211 6.90496 11.1361L6.83964 10.7173L6.82776 10.6396L6.86933 10.7233L7.08311 11.1451C7.44535 11.163 7.81353 11.1989 8.18765 11.2587L8.18765 10.8938L8.22625 11.0344L8.29454 11.2767C8.68944 11.3455 9.08731 11.4412 9.48221 11.5668C9.71084 11.6416 9.93946 11.7253 10.1681 11.8211C10.1681 11.8211 8.60036 10.2417 5.58367 10.0533C2.58183 9.86784 1.75343 12.0634 1.74155 12.0963Z" fill="#40CC4A"/>
<path d="M9.206 22.338C9.206 22.4098 9.206 22.4756 9.206 22.5384C9.20897 22.9243 9.21193 23.1396 9.21193 23.1396L10.8806 23.1396C9.93938 19.3977 10.3966 11.5758 10.3966 11.5758C10.3966 11.5758 10.3491 11.4442 10.1591 11.4173C10.1354 11.4143 10.1116 11.4113 10.0819 11.4113C9.86219 11.4113 9.81171 11.5758 9.81171 11.5758C9.78499 11.7762 9.76123 11.9766 9.73748 12.177C9.73451 12.2099 9.73154 12.2428 9.7256 12.2757C9.71373 12.3834 9.70185 12.4881 9.68997 12.5958C9.687 12.6287 9.68403 12.6616 9.6781 12.6945C9.66325 12.8291 9.6484 12.9607 9.63653 13.0953C9.63356 13.1222 9.63059 13.1462 9.62762 13.1701C9.61278 13.3316 9.59496 13.4931 9.58011 13.6547C9.57714 13.6906 9.57418 13.7294 9.56824 13.7653C9.55339 13.9358 9.53855 14.1063 9.5237 14.2768C9.52073 14.3187 9.51776 14.3606 9.51182 14.4024C9.49401 14.6178 9.47619 14.8302 9.46135 15.0426C9.45838 15.0874 9.45541 15.1293 9.45244 15.1742C9.43759 15.3925 9.41978 15.6109 9.4079 15.8262C9.40493 15.8681 9.40196 15.913 9.39899 15.9549C9.38415 16.1912 9.3693 16.4275 9.35742 16.6578C9.35446 16.7116 9.35149 16.7655 9.34852 16.8193C9.3307 17.1394 9.31586 17.4504 9.30101 17.7555C9.29804 17.8034 9.29804 17.8543 9.29507 17.9021C9.28616 18.1025 9.27726 18.2969 9.27132 18.4914C9.26835 18.5602 9.26538 18.626 9.26538 18.6918C9.25647 18.9281 9.25053 19.1614 9.2446 19.3827C9.2446 19.4336 9.24163 19.4844 9.24163 19.5323C9.23569 19.7686 9.22975 19.9959 9.22678 20.2113C9.22678 20.2831 9.22381 20.3519 9.22381 20.4237C9.22084 20.5762 9.21787 20.7258 9.21787 20.8693C9.21787 20.9501 9.2149 21.0309 9.2149 21.1086C9.21193 21.2761 9.21193 21.4347 9.21193 21.5812C9.21193 21.6441 9.21193 21.7039 9.21193 21.7607C9.206 21.9761 9.206 22.1675 9.206 22.338Z" fill="#755F3C"/>
<path d="M9.72858 12.2758L10.3016 12.207L9.74046 12.1771C9.73749 12.21 9.73452 12.2429 9.72858 12.2758Z" fill="#DBB270"/>
<path d="M10.1591 12.6976L9.69288 12.5989C9.68991 12.6318 9.68694 12.6647 9.681 12.6976L10.1591 12.6976Z" fill="#DBB270"/>
<path d="M10.0046 13.1193L9.64238 13.0984C9.63942 13.1253 9.63645 13.1492 9.63348 13.1731L10.0046 13.1193Z" fill="#DBB270"/>
<path d="M10.2156 13.7416L9.58611 13.6578C9.58314 13.6937 9.58017 13.7326 9.57423 13.7685L10.2156 13.7416Z" fill="#DBB270"/>
<path d="M10.1205 14.3367L9.52963 14.2798C9.52666 14.3217 9.52369 14.3636 9.51775 14.4055L10.1205 14.3367Z" fill="#DBB270"/>
<path d="M10.1057 15.0726L9.46734 15.0427C9.46437 15.0876 9.4614 15.1295 9.45843 15.1743L10.1057 15.0726Z" fill="#DBB270"/>
<path d="M10.0701 15.91L9.41091 15.8263C9.40794 15.8681 9.40497 15.913 9.402 15.9549L10.0701 15.91Z" fill="#DBB270"/>
<path d="M10.1294 16.7684L9.36036 16.6577C9.35739 16.7116 9.35442 16.7654 9.35145 16.8192L10.1294 16.7684Z" fill="#DBB270"/>
<path d="M10.0046 17.7826L9.30687 17.7557C9.3039 17.8036 9.30093 17.8544 9.30093 17.9023L10.0046 17.7826Z" fill="#DBB270"/>
<path d="M10.1561 18.5214L9.27428 18.4885C9.27131 18.5573 9.26834 18.6231 9.26834 18.6889L10.1561 18.5214Z" fill="#DBB270"/>
<path d="M10.2363 19.4126L9.24461 19.3797C9.24461 19.4305 9.24164 19.4814 9.24164 19.5293L10.2363 19.4126Z" fill="#DBB270"/>
<path d="M10.2214 20.2114L9.22676 20.2114C9.22676 20.2832 9.22379 20.352 9.22379 20.4237L10.2214 20.2114Z" fill="#DBB270"/>
<path d="M9.21191 21.1055L10.358 20.9291L9.21488 20.8662C9.21191 20.947 9.21191 21.0278 9.21191 21.1055Z" fill="#DBB270"/>
<path d="M10.4679 22.4937L9.20599 22.3381C9.20599 22.4099 9.20599 22.4757 9.20599 22.5385L10.4679 22.4937Z" fill="#DBB270"/>
<path d="M9.20598 21.7606L10.358 21.6828L9.20598 21.5782C9.20598 21.641 9.20598 21.7008 9.20598 21.7606Z" fill="#DBB270"/>
<path opacity="0.14" d="M9.20599 22.3379C9.20599 22.4097 9.20599 22.4755 9.20599 22.5383C9.20896 22.9242 9.21193 23.1396 9.21193 23.1396L10.0374 23.1396C9.87109 22.8674 9.78201 22.5383 9.74638 22.2183C9.69293 21.7487 9.72856 21.2731 9.67512 20.8035C9.62761 20.3787 9.50588 19.9659 9.43165 19.5442C9.30694 18.8114 9.32772 18.0636 9.3782 17.3247C9.40789 16.906 9.44649 16.4872 9.55338 16.0834C9.65137 15.7155 9.80576 15.3625 9.86515 14.9887C9.94532 14.4652 9.82952 13.9328 9.8028 13.4063C9.77904 12.9038 9.83546 12.3983 9.96907 11.9167C10.0047 11.7941 10.0433 11.6715 10.0878 11.5518C10.0997 11.5159 10.1294 11.4681 10.1561 11.4232C10.1324 11.4202 10.1086 11.4172 10.0789 11.4172C9.85921 11.4172 9.80873 11.5817 9.80873 11.5817C9.78201 11.7821 9.75826 11.9825 9.7345 12.1829C9.73153 12.2158 9.72857 12.2487 9.72263 12.2817C9.71075 12.3893 9.69887 12.494 9.687 12.6017C9.68403 12.6346 9.68106 12.6675 9.67512 12.7004C9.66027 12.835 9.64543 12.9666 9.63355 13.1012C9.63058 13.1281 9.62761 13.1521 9.62464 13.176C9.6098 13.3375 9.59198 13.4991 9.57714 13.6606C9.57417 13.6965 9.5712 13.7354 9.56526 13.7712C9.55041 13.9417 9.53557 14.1122 9.52072 14.2827C9.51775 14.3246 9.51478 14.3665 9.50885 14.4084C9.49103 14.6237 9.47322 14.8361 9.45837 15.0485C9.4554 15.0933 9.45243 15.1352 9.44946 15.1801C9.43462 15.3984 9.4168 15.6168 9.40492 15.8322C9.40196 15.874 9.39899 15.9189 9.39602 15.9608C9.38117 16.1971 9.36632 16.4334 9.35445 16.6637C9.35148 16.7175 9.34851 16.7714 9.34554 16.8252C9.32773 17.1453 9.31288 17.4564 9.29803 17.7615C9.29506 17.8093 9.29506 17.8602 9.29209 17.908C9.28319 18.1084 9.27428 18.3029 9.26834 18.4973C9.26537 18.5661 9.2624 18.6319 9.2624 18.6977C9.2535 18.934 9.24756 19.1673 9.24162 19.3886C9.24162 19.4395 9.23865 19.4903 9.23865 19.5382C9.23271 19.7745 9.22677 20.0018 9.2238 20.2172C9.2238 20.289 9.22083 20.3578 9.22083 20.4296C9.21787 20.5821 9.2149 20.7317 9.2149 20.8753C9.2149 20.956 9.21193 21.0368 9.21193 21.1145C9.20896 21.2821 9.20896 21.4406 9.20896 21.5872C9.20896 21.65 9.20896 21.7098 9.20896 21.7666C9.20599 21.976 9.20599 22.1674 9.20599 22.3379Z" fill="black"/>
<path opacity="0.14" d="M17.8729 11.3454C17.6681 11.2497 17.383 11.136 17.0208 11.0373L17.0683 11.2347C17.3919 11.2706 17.6621 11.3095 17.8729 11.3454Z" fill="black"/>
<path opacity="0.14" d="M15.7471 10.8101L15.857 11.1332C16.2845 11.1541 16.6735 11.19 17.012 11.2259L16.9912 11.0255C16.6438 10.9357 16.2311 10.855 15.7471 10.8101Z" fill="black"/>
<path opacity="0.14" d="M14.5327 10.7832C14.4615 10.7861 14.3902 10.7891 14.3189 10.7951L14.3457 11.1182C14.8475 11.1032 15.3255 11.1092 15.762 11.1301L15.7026 10.8071C15.3492 10.7772 14.9603 10.7652 14.5327 10.7832Z" fill="black"/>
<path opacity="0.14" d="M12.8047 10.9896L12.7839 11.2349C13.2976 11.172 13.7964 11.1332 14.2745 11.1182L14.2893 10.7952C13.743 10.8281 13.2471 10.8999 12.8047 10.9896Z" fill="black"/>
<path opacity="0.14" d="M12.76 10.9985C12.3295 11.0883 11.9554 11.1959 11.6377 11.3006L11.6377 11.4203C11.9969 11.3455 12.3562 11.2857 12.7066 11.2408L12.76 10.9985Z" fill="black"/>
<path opacity="0.14" d="M10.8479 11.6116C11.1003 11.5428 11.3557 11.483 11.608 11.4292L11.6169 11.3095C11.2992 11.4172 11.0409 11.5249 10.8479 11.6116Z" fill="black"/>
<path opacity="0.14" d="M15.0939 4.76478L15.9609 5.18952C16.3587 4.97715 16.7477 4.78572 17.107 4.6212L16.6972 4.1815L17.2109 4.57334C18.1788 4.13664 18.9033 3.89136 18.9033 3.89136C18.9033 3.89136 18.7994 3.87342 18.6183 3.85248C17.7869 3.91828 16.4092 4.12467 15.0939 4.76478Z" fill="black"/>
<path opacity="0.14" d="M13.6567 5.70385C13.8735 5.85341 14.1585 6.04485 14.3634 6.18244C14.8295 5.84444 15.3313 5.53634 15.8242 5.26415L15.073 4.77658C14.5831 5.01588 14.0991 5.32098 13.6567 5.70385Z" fill="black"/>
<path opacity="0.14" d="M12.5492 6.91827L13.149 7.25328C13.238 7.16055 13.3242 7.06783 13.4162 6.97809C13.6745 6.72085 13.9655 6.47857 14.2743 6.24825C14.0902 6.08672 13.8408 5.87435 13.6478 5.71283C13.5023 5.83846 13.3598 5.97306 13.2262 6.11963C12.9827 6.37687 12.757 6.64308 12.5492 6.91827Z" fill="black"/>
<path opacity="0.14" d="M11.7506 8.09984L12.1781 8.42887C12.4513 8.05797 12.7452 7.69304 13.057 7.35205L12.5315 6.93628C12.2405 7.32214 11.9822 7.71398 11.7506 8.09984Z" fill="black"/>
<path opacity="0.14" d="M11.0439 9.45791L11.3378 9.67328C11.5724 9.29938 11.8337 8.90155 12.1217 8.50671L11.7416 8.11786C11.4685 8.58149 11.2369 9.03316 11.0439 9.45791Z" fill="black"/>
<path opacity="0.14" d="M10.2451 11.6443C10.3995 11.3243 10.7647 10.6064 11.2814 9.76585L11.029 9.49365C10.5777 10.4867 10.3342 11.3063 10.2451 11.6443Z" fill="black"/>
<path opacity="0.14" d="M9.4762 11.5667C9.14662 11.3873 8.72797 11.1988 8.22025 11.0343L8.28854 11.2766C8.68046 11.3454 9.07833 11.4381 9.4762 11.5667Z" fill="black"/>
<path opacity="0.14" d="M6.86036 10.7234L7.07415 11.1451C7.4364 11.1631 7.80459 11.199 8.17871 11.2588L8.17871 11.0225C7.78974 10.8999 7.35029 10.7952 6.86036 10.7234Z" fill="black"/>
<path opacity="0.14" d="M5.28967 10.6306L5.43516 11.1869C5.89835 11.1421 6.38827 11.1211 6.896 11.1361L6.83067 10.7173C6.49813 10.6695 6.14479 10.6395 5.76771 10.6276C5.6044 10.6246 5.44406 10.6246 5.28967 10.6306Z" fill="black"/>
<path opacity="0.14" d="M5.26002 10.6335C4.74042 10.6545 4.28318 10.7322 3.88532 10.8399L3.95658 11.4172C4.36335 11.3305 4.80871 11.2557 5.28674 11.2018L5.26002 10.6335Z" fill="black"/>
<path opacity="0.14" d="M3.85852 10.846C3.3983 10.9746 3.01527 11.1481 2.70648 11.3275L2.81337 11.7104C3.11326 11.6207 3.46362 11.525 3.85852 11.4382L3.85852 10.846Z" fill="black"/>
<path opacity="0.14" d="M1.76817 12.0842C1.86318 12.0423 2.19574 11.9047 2.69458 11.7492L2.69458 11.3364C2.23137 11.6086 1.93148 11.8988 1.76817 12.0842Z" fill="black"/>
<path d="M3.14995 36L13.9499 36L13.95 15.3L11.686 15.3L3.14995 36Z" fill="#F6CC92"/>
<path d="M11.8038 15.3L13.0499 15.3L4.39602 36L3.14993 36L11.8038 15.3Z" fill="#F9F1B2"/>
<path d="M19.7849 21.223L19.7849 35.9999L13.9499 35.9999L13.9499 27.1011C13.9499 23.8526 16.5603 21.223 19.7849 21.223Z" fill="#DBB270"/>
<path d="M19.3584 21.6655L19.3584 35.566L14.3765 35.566L14.3765 27.1011C14.3765 24.2394 16.5732 21.889 19.3584 21.6655Z" fill="#755F3C"/>
<path d="M19.3565 27.5494L14.3746 27.5494L14.3746 27.0982L19.3565 27.0982L19.3565 27.5494Z" fill="#DBB270"/>
<path d="M19.3565 35.1607L14.3746 35.1607L14.3746 34.7095L19.3565 34.7095L19.3565 35.1607Z" fill="#DBB270"/>
<path d="M19.3584 28.5535L17.1276 31.1273L19.3584 33.7054L19.3584 34.307L16.8675 31.4324L14.3765 34.307L14.3765 33.7054L16.6073 31.1273L14.3765 28.5535L14.3765 27.9519L16.8675 30.8265L19.3584 27.9519L19.3584 28.5535Z" fill="#DBB270"/>
<path d="M18.5052 26.2546L18.5052 22.6925C17.7247 22.9246 17.0124 23.3628 16.4494 23.9773C15.8565 24.6218 15.4641 25.4081 15.3063 26.2546L18.5052 26.2546Z" fill="#DBB270"/>
<path d="M13.9499 16.2L25.6499 16.2L25.6499 19.8L13.9499 19.8L13.9499 16.2Z" fill="#F9F1B2"/>
<path d="M13.9499 17.1L25.6499 17.1L25.6499 18.9L13.9499 18.9L13.9499 17.1Z" fill="#A88F6D"/>
<path opacity="0.14" d="M11.25 36L13.9499 36L13.95 19.8L11.25 36Z" fill="black"/>
<path d="M16.4043 18.1497L16.4239 18.2829L15.802 18.3766L15.7873 18.2681L16.1056 17.7353L15.7237 17.7945L15.7041 17.6613L16.3015 17.5725L16.3162 17.681L15.9979 18.2138L16.4043 18.1497Z" fill="#F9F1B2"/>
<path d="M16.8597 18.199C16.7961 18.1744 16.7471 18.13 16.7079 18.0806C16.6688 18.0264 16.6443 17.9672 16.6394 17.8932C16.6345 17.8241 16.6443 17.7551 16.6737 17.6959C16.703 17.6367 16.7471 17.5873 16.801 17.5479C16.8597 17.5084 16.9234 17.4887 16.9968 17.4788C17.0703 17.4739 17.1389 17.4837 17.2025 17.5084C17.2662 17.5331 17.3151 17.5775 17.3543 17.6268C17.3935 17.6811 17.418 17.7403 17.4229 17.8143C17.4278 17.8833 17.418 17.9524 17.3886 18.0116C17.3592 18.0708 17.3151 18.1201 17.2613 18.1596C17.2025 18.199 17.1388 18.2188 17.0654 18.2286C16.9919 18.2336 16.9234 18.2237 16.8597 18.199ZM17.1633 18.0461C17.1976 18.0214 17.2221 17.9918 17.2368 17.9573C17.2515 17.9228 17.2613 17.8784 17.2564 17.834C17.2515 17.7896 17.2368 17.7501 17.2172 17.7156C17.1927 17.6811 17.1633 17.6564 17.1291 17.6416C17.0948 17.6268 17.0556 17.6169 17.0115 17.6219C16.9675 17.6268 16.9332 17.6367 16.8989 17.6613C16.8646 17.686 16.8402 17.7156 16.8255 17.7501C16.8108 17.7847 16.801 17.8291 16.8059 17.8735C16.8108 17.9179 16.8255 17.9573 16.845 17.9918C16.8695 18.0264 16.8989 18.051 16.9332 18.0658C16.9675 18.0806 17.0066 18.0905 17.0507 18.0856C17.0948 18.0806 17.134 18.0708 17.1633 18.0461Z" fill="#F9F1B2"/>
<path d="M17.9272 18.1202C17.8635 18.0906 17.8194 18.0462 17.7803 17.9919C17.746 17.9377 17.7264 17.8735 17.7215 17.8045C17.7166 17.7354 17.7313 17.6664 17.7656 17.6121C17.795 17.5529 17.8439 17.5085 17.9027 17.474C17.9614 17.4394 18.03 17.4197 18.1035 17.4148C18.1769 17.4099 18.2455 17.4246 18.3091 17.4542C18.3679 17.4838 18.4169 17.5282 18.456 17.5825C18.4903 17.6368 18.5148 17.7009 18.5148 17.77C18.5197 17.839 18.505 17.9081 18.4707 17.9623C18.4364 18.0215 18.3924 18.0659 18.3336 18.1005C18.2749 18.135 18.2112 18.1547 18.1328 18.1597C18.0545 18.1597 17.9859 18.1498 17.9272 18.1202ZM18.2357 17.9821C18.27 17.9623 18.2944 17.9327 18.314 17.8982C18.3336 17.8637 18.3385 17.8242 18.3385 17.7749C18.3385 17.7305 18.3238 17.691 18.3042 17.6565C18.2846 17.622 18.2553 17.5973 18.221 17.5776C18.1867 17.5578 18.1475 17.5529 18.1035 17.5529C18.0594 17.5529 18.0251 17.5677 17.9908 17.5874C17.9566 17.6072 17.9321 17.6368 17.9125 17.6713C17.8929 17.7058 17.888 17.7453 17.888 17.7946C17.888 17.839 17.9027 17.8785 17.9223 17.913C17.9419 17.9475 17.9712 17.9722 18.0055 17.9919C18.0398 18.0117 18.079 18.0166 18.123 18.0166C18.1671 18.0117 18.2014 18.0018 18.2357 17.9821Z" fill="#F9F1B2"/>
</svg>
