<svg width="36" height="36" viewBox="0 0 36 36" fill="none" xmlns="http://www.w3.org/2000/svg">
<path d="M18.688 0.919952C9.18478 0.919952 1.49057 8.61416 1.49057 18.1174C1.49057 27.6207 9.18478 35.3149 18.688 35.3149C28.1913 35.3149 35.8855 27.6207 35.8855 18.1174C35.8855 8.63706 28.1913 0.919952 18.688 0.919952Z" fill="#EBF2FA"/>
<path d="M15.2989 8.11038C15.734 7.58369 16.5355 7.58369 16.9477 8.11038C18.3216 9.75914 18.7567 11.385 18.7567 12.8277C18.7567 14.2703 17.5888 15.4611 16.1233 15.4611C14.6806 15.4611 13.4898 14.2932 13.4898 12.8277C13.5127 11.385 13.9249 9.75914 15.2989 8.11038Z" fill="#BBD594"/>
<path d="M16.3523 16.5372L16.2149 12.1863C16.2149 12.1405 16.192 12.1176 16.1462 12.1176C16.1004 12.1176 16.0775 12.1405 16.0775 12.1863L15.9401 16.5372C15.9401 16.6517 16.0317 16.7433 16.1462 16.7433C16.2378 16.7433 16.3523 16.6517 16.3523 16.5372Z" fill="#904822"/>
<path d="M16.2836 14.728L15.3218 13.9495L15.2302 14.0411L16.0088 15.0028L16.2836 14.728Z" fill="#904822"/>
<path d="M16.2608 13.7666L16.8333 13.0338L16.7646 12.9651L16.0318 13.5605L16.2608 13.7666Z" fill="#904822"/>
<path d="M2.15469 23.8193H34.9467C32.5193 30.5288 26.0846 35.3148 18.5507 35.3148C11.0168 35.3148 4.58203 30.5288 2.15469 23.8193Z" fill="#B3CB86"/>
<path d="M19.833 28.3992C14.3063 28.3992 9.826 27.8251 9.826 27.1168C9.826 26.4086 14.3063 25.8345 19.833 25.8345C25.3598 25.8345 29.8401 26.4086 29.8401 27.1168C29.8401 27.8251 25.3598 28.3992 19.833 28.3992Z" fill="#91B876"/>
<path d="M24.1838 23.8421H2.1546C1.46762 21.9872 1.10123 19.9721 1.10123 17.8654C1.10123 16.0334 1.37602 14.2472 1.90271 12.5985C8.90993 9.36967 22.8786 17.499 24.1838 23.8421Z" fill="#7A8A5C"/>
<path d="M9.16197 1.42363C9.98635 0.438951 11.4748 0.438951 12.2763 1.42363C14.8639 4.53795 15.6654 7.60647 15.6654 10.2857C15.6654 13.0107 13.4442 15.232 10.7191 15.232C7.9941 15.232 5.77286 13.0107 5.77286 10.2857C5.77286 7.60647 6.57434 4.53795 9.16197 1.42363Z" fill="#B3CB86"/>
<path d="M11.1084 17.2702L10.8336 9.07224H10.5817L10.3069 17.2702H11.1084Z" fill="#904822"/>
<path d="M10.948 13.881L9.16184 12.4155L8.97865 12.5758L10.4442 14.3848L10.948 13.881Z" fill="#904822"/>
<path d="M10.9251 12.095L12.0243 10.6981L11.8869 10.5607L10.49 11.6599L10.9251 12.095Z" fill="#904822"/>
<path d="M26.2906 12.5986C29.7485 12.5986 32.9544 13.3314 35.6794 14.6137C35.8855 15.6671 36 16.7434 36 17.8654C36 19.9722 35.6336 21.9873 34.9466 23.8422H2.15466C1.62797 22.3766 1.28448 20.8195 1.14709 19.2165C17.2454 14.2931 19.2605 13.6748 19.5582 13.5832C21.6421 12.9421 23.9091 12.5986 26.2906 12.5986Z" fill="#91B876"/>
<path d="M2.84164 7.03409C3.52862 6.20971 4.78809 6.20971 5.49798 7.03409C7.69632 9.66752 8.3833 12.2781 8.3833 14.5451C8.3833 16.8579 6.50555 18.7357 4.19271 18.7357C1.87987 18.7357 0.0021162 16.8579 0.0021162 14.5451C-0.0436831 12.2781 0.643298 9.66752 2.84164 7.03409Z" fill="#BBD594"/>
<path d="M4.51331 20.4759L4.28431 13.5145C4.28431 13.4458 4.23851 13.4 4.16981 13.4C4.12402 13.4 4.07822 13.4458 4.05532 13.5145L3.82632 20.4759C3.82632 20.6591 3.96372 20.8194 4.14691 20.8194C4.35301 20.8423 4.49041 20.682 4.51331 20.4759C4.51331 20.4988 4.51331 20.4988 4.51331 20.4759Z" fill="#904822"/>
<path d="M4.37598 17.6135L2.84172 16.354L2.70432 16.5143L3.94089 18.0486L4.37598 17.6135Z" fill="#904822"/>
<path d="M4.353 16.0792L5.29187 14.9113L5.17737 14.7968L3.9866 15.7357L4.353 16.0792Z" fill="#904822"/>
<path d="M6.11631 23.2238C10.4672 26.1549 12.551 24.6894 13.5128 23.6818C13.5815 24.4833 13.9479 25.7885 14.2456 26.4526C13.3067 26.9793 11.3374 27.5976 7.71927 26.5442C4.97134 25.7427 3.57448 22.9261 3.57448 22.9261C3.57448 22.9261 4.71945 22.2849 6.11631 23.2238Z" fill="#EFD5B8"/>
<path d="M7.71934 26.5212C4.97141 25.7197 3.57455 22.9031 3.57455 22.9031C3.57455 22.9031 3.73485 22.8115 3.98674 22.7657C4.74242 23.7504 5.77289 24.6205 6.62017 24.7808C5.88739 24.8953 5.6126 24.8266 5.6126 24.8266C5.93319 25.3075 7.19266 25.5136 8.13153 25.4449C7.92544 25.651 7.26136 25.8113 7.26136 25.8113C7.28426 25.8113 8.38343 26.3609 10.0093 25.8113C10.0093 25.8113 10.1696 26.5212 9.75739 26.6357C10.8337 26.5899 11.4061 26.2235 11.7496 25.8113L11.8412 26.3609C12.803 26.3609 13.2152 25.9487 13.0549 25.2388L12.803 24.2999C13.0778 24.1168 13.3068 23.8878 13.49 23.7046C13.5587 24.506 13.9251 25.8113 14.2228 26.4754C13.3068 26.9792 11.3375 27.5746 7.71934 26.5212Z" fill="#E2C19A"/>
<path d="M18.4591 15.896C20.2681 14.2472 20.4055 12.7588 20.978 11.0642C21.5505 9.34674 21.9627 7.21709 22.3978 6.69041C22.8329 6.14082 23.2909 5.70573 25.0541 5.36224C26.9777 4.99585 26.9319 7.011 28.1913 7.28579C29.1302 7.49189 29.9546 7.67508 30.2981 7.76668C30.4126 7.78958 30.4813 7.88118 30.4584 7.99567C30.4126 8.77425 30.092 9.30094 29.7943 9.73603C29.7256 9.85053 29.6111 9.94212 29.4966 9.98792C29.3592 10.0337 29.2218 10.1024 29.0844 10.1482C28.8783 10.7436 28.3974 11.0184 27.7334 11.1558C27.5502 11.2016 27.0922 11.2703 26.8174 11.2932C26.8403 11.7054 26.7487 12.5985 27.2983 13.3999H26.7945C28.2142 17.5905 26.1762 19.8118 26.0846 19.9034L27.4586 25.445L28.6951 25.9717C29.0157 26.1091 29.2218 26.4297 29.2218 26.7732V27.506H27.0235L25.2602 25.6511L23.7031 22.0101C19.2148 25.3763 18.3904 26.819 14.612 26.9793C14.612 26.9793 14.154 26.6816 13.6502 24.4604C12.7571 20.5217 16.2607 17.8424 18.4591 15.896Z" fill="#E2C19A"/>
<path d="M22.3521 21.3231C22.0315 21.0712 21.9857 20.659 21.9857 20.4071C22.3521 20.659 22.7871 20.8422 23.2451 20.9109L23.7031 22.0329L22.4895 22.9947C22.4666 22.8573 22.4437 22.6054 22.3979 22.468C22.3292 22.1474 22.1231 21.7581 21.9857 21.5291L22.3521 21.3231Z" fill="#BF946E"/>
<path d="M24.5733 17.1783C26.0617 16.8806 25.8327 16.0104 25.6724 14.9112C25.5121 13.8121 25.9472 12.4839 26.8174 11.8198C26.8403 12.2778 26.909 12.8503 27.2754 13.3999H26.7716C28.1914 17.5905 26.1533 19.8575 26.0846 19.9262L24.8481 20.2697C25.5579 19.4453 25.8327 18.392 25.8785 17.3615C25.3289 17.4531 24.5733 17.1783 24.5733 17.1783Z" fill="#EFD5B8"/>
<path d="M28.1685 7.3086C29.1074 7.5147 29.9318 7.69789 30.2753 7.78949C30.3898 7.81239 30.4585 7.90399 30.4356 8.01848C30.3898 8.65967 30.1837 9.11766 29.9318 9.50695C29.657 9.41535 29.3822 9.11766 29.4509 8.86576L29.4738 8.79706C29.5425 8.54517 29.3593 8.29328 29.1074 8.24748C27.3212 7.92689 27.0464 7.446 26.3137 6.59872C25.9931 6.18653 25.329 6.07203 24.7794 6.09493L24.184 6.11783C23.8863 6.11783 23.8863 5.82014 24.0924 5.61405C24.3443 5.54535 24.6649 5.45375 25.0084 5.40795C26.9777 5.01866 26.9319 7.01091 28.1685 7.3086Z" fill="#EFD5B8"/>
<path d="M21.688 9.91908C21.688 9.91908 22.4666 7.40014 23.5657 7.10245L24.2069 7.56044L25.2145 10.5374C25.3519 10.9495 25.1229 11.4075 24.6878 11.5678C24.4817 11.6365 24.2298 11.6594 24.0237 11.5678L22.2376 10.9267C21.8025 10.7664 21.5735 10.3313 21.688 9.91908Z" fill="#BF946E"/>
<path d="M22.4206 9.32367L22.787 7.94971C22.9015 7.51462 23.2679 7.17113 23.703 7.07953L24.9395 6.82764L25.9242 9.94196C26.0387 10.2854 25.9471 10.6747 25.6723 10.9266C25.4204 11.1556 25.054 11.2014 24.7563 11.0869L22.9702 10.3999C22.5351 10.2397 22.3061 9.75876 22.4206 9.32367Z" fill="#E2C19A"/>
<path d="M24.9626 6.82785L25.993 10.2399C25.993 10.2399 25.993 10.2399 25.9701 10.2399C25.558 10.3086 25.1687 10.0567 25.0542 9.66738L24.4588 7.62933C24.3672 7.26294 24.5962 6.89655 24.9626 6.82785Z" fill="#EFD5B8"/>
<path d="M26.1763 20.1782L27.4815 25.4451L28.7639 26.0176C28.5807 26.3382 28.1914 26.4985 27.8479 26.3382L27.0465 25.9947C26.8175 25.9031 26.6572 25.697 26.5656 25.468C26.5656 25.468 25.8786 23.5215 25.558 22.5369C25.2832 21.7354 25.7412 20.5446 26.1763 20.1782Z" fill="#EFD5B8"/>
<path d="M29.0845 10.1482C29.0158 10.3085 28.9471 10.4459 28.8555 10.5604L27.3899 10.5146L29.0845 10.1482Z" fill="#DCA178"/>
<path d="M29.0845 10.1482C29.0158 10.3085 28.9471 10.4459 28.8555 10.5604L27.3899 10.5146L29.0845 10.1482Z" fill="#DCA178"/>
<path d="M28.9241 17.934C29.176 17.934 29.405 17.7279 29.405 17.4531V10.0337L28.4662 10.2856V17.476C28.4433 17.7279 28.6493 17.934 28.9241 17.934Z" fill="#904822"/>
<path d="M28.924 18.6209C28.6837 18.6209 28.489 18.4261 28.489 18.1858C28.489 17.9455 28.6837 17.7507 28.924 17.7507C29.1643 17.7507 29.3591 17.9455 29.3591 18.1858C29.3591 18.4261 29.1643 18.6209 28.924 18.6209Z" fill="#CBCBCA"/>
<path d="M28.9242 19.4225C29.0158 19.4225 29.0845 19.3538 29.0845 19.2622V18.5294C29.0845 18.4378 29.0158 18.3691 28.9242 18.3691C28.8326 18.3691 28.7639 18.4378 28.7639 18.5294V19.2622C28.7639 19.3538 28.8326 19.4225 28.9242 19.4225Z" fill="#CBCBCA"/>
<path d="M22.3978 27.529H15.7798C15.2989 27.529 15.0012 27.071 15.0928 26.5901C15.3905 24.8955 15.734 23.5903 16.4897 22.1934C17.3828 20.5676 19.3063 19.9722 21.0009 20.7507C21.6421 21.0484 22.1688 21.5522 22.3749 22.4453C22.9473 24.8039 20.6345 25.8344 19.2834 26.2237C19.9475 26.2008 20.6116 26.2008 20.9551 26.2008C22.2833 26.2008 22.3978 27.529 22.3978 27.529Z" fill="#D9B68C"/>
<path d="M17.9095 22.0559C17.9095 22.0559 17.9324 21.2315 18.4133 20.9567C18.2988 20.9109 18.2301 20.8422 18.1614 20.7277C19.5583 19.8804 21.9398 20.5674 22.3749 22.4452C22.7413 23.9565 21.9169 24.9183 20.9322 25.5137C21.3902 24.987 22.123 23.8878 21.4818 22.4223C21.2299 23.178 20.1307 23.4527 20.1307 23.4527C21.1154 21.8269 19.0316 20.6361 17.9095 22.0559Z" fill="#EFD5B8"/>
<path d="M20.8178 26.2009C20.8636 26.2009 20.9323 26.2009 20.9781 26.2009C22.2833 26.2009 22.3978 27.529 22.3978 27.529H21.4819C21.459 27.529 21.5734 26.9336 20.8178 26.2009Z" fill="#EFD5B8"/>
<path d="M30.2981 8.40802C30.1149 8.15613 29.8401 8.08743 29.8401 7.65234C30.0233 7.69814 30.1836 7.72104 30.2981 7.74394C30.4126 7.76684 30.4813 7.85844 30.4584 7.97294C30.4584 8.11033 30.4355 8.24773 30.4126 8.36223C30.3897 8.43092 30.321 8.45382 30.2981 8.40802Z" stroke="#98734B" stroke-width="0.5" stroke-linecap="round" stroke-linejoin="round"/>
<path d="M26.4967 7.69795C26.3323 7.69795 26.199 7.56467 26.199 7.40026C26.199 7.23585 26.3323 7.10257 26.4967 7.10257C26.6612 7.10257 26.7944 7.23585 26.7944 7.40026C26.7944 7.56467 26.6612 7.69795 26.4967 7.69795Z" fill="#010101"/>
<path d="M25.1865 6.92307L26.1483 10.0374C26.2628 10.3809 26.1712 10.7702 25.8964 11.0221C25.6445 11.2511 25.2781 11.2969 24.9805 11.1824L23.1943 10.4954C22.7592 10.3351 22.5302 9.85419 22.6447 9.4191L23.0111 8.04514" stroke="#BF946E" stroke-width="0.5" stroke-linecap="round" stroke-linejoin="round"/>
</svg>
