<svg width="46" height="32" viewBox="0 0 46 32" fill="none" xmlns="http://www.w3.org/2000/svg">
<path d="M14.2595 22.3276H14.9593V25.441H14.2595V22.3276Z" fill="#FFB300"/>
<path d="M26.9323 22.3277H27.6321V25.4411H26.9323V22.3277Z" fill="#FFB300"/>
<path d="M15.0719 22.6543C14.3443 22.9118 13.5431 22.5295 13.2856 21.8018C13.1713 21.4788 13.1821 21.1232 13.3155 20.8006C13.3535 20.7088 13.4286 20.6377 13.5219 20.6047L14.9875 20.086C15.0812 20.0529 15.1842 20.061 15.2712 20.1085C15.5782 20.2753 15.8102 20.545 15.9245 20.868C16.182 21.5957 15.7996 22.3968 15.0719 22.6543ZM13.92 21.2061C13.8993 21.3081 13.8973 21.4328 13.9453 21.5683C14.0741 21.9322 14.4747 22.1233 14.8385 21.9946C15.2023 21.8659 15.3935 21.4653 15.2648 21.1014C15.2168 20.9659 15.1369 20.8702 15.0567 20.8039L13.92 21.2061Z" fill="#FFB300"/>
<path d="M14.9349 21.2182L14.2752 21.4516C14.0931 21.516 13.9091 21.466 13.8645 21.34L12.9756 18.8279C12.931 18.7019 13.0426 18.5473 13.2246 18.4829L13.8844 18.2494C14.0664 18.185 14.2504 18.235 14.295 18.361L15.1839 20.8731C15.2285 20.9991 15.117 21.1537 14.9349 21.2182Z" fill="#CE93D8"/>
<g clip-path="url(#clip0_1_2399)">
<path d="M16.7032 17.7265C15.8237 18.4414 14.8836 19.0162 13.8241 19.3796C13.7945 19.3901 13.7649 19.4005 13.7353 19.411C12.0434 19.9636 10.2864 20.1125 8.57228 19.6925C9.05328 20.1105 9.6122 20.4664 10.1322 20.7437C10.5812 20.977 11.0587 21.1655 11.5441 21.2821C11.9324 21.3754 12.341 21.3692 12.7282 21.4283C12.6509 20.6136 13.1099 19.8399 13.8894 19.5641C14.6887 19.2813 15.5529 19.6214 15.9963 20.341C16.7268 19.6443 17.3996 18.9102 17.8904 17.9753C18.2081 17.3669 18.4063 16.7662 18.4976 16.1457C17.9536 16.7419 17.2809 17.2568 16.7032 17.7265Z" fill="#815DE9"/>
<path d="M15.9466 20.7969C15.9502 20.8071 15.9502 20.8071 15.9538 20.8174C16.1134 21.2684 16.0612 21.7482 15.8397 22.1265C15.7167 22.1239 15.5848 22.159 15.4581 22.1462C15.2712 22.12 15.0833 22.0596 14.9079 21.9718C14.692 21.8636 14.475 21.7213 14.2841 21.5582C14.3548 21.4755 14.3813 21.3623 14.3414 21.2495C14.2834 21.0855 14.1116 21.0079 13.9636 21.0603C13.8057 21.1161 13.7345 21.2913 13.7889 21.4451C13.8469 21.6091 14.0187 21.6867 14.1667 21.6343L14.1766 21.6308C14.3545 21.9139 14.6066 22.1245 14.9295 22.2525C15.1111 22.3266 15.3899 22.424 15.6287 22.4087C15.4677 22.5811 15.2625 22.7229 15.0355 22.8032C14.2363 23.086 13.3457 22.6399 13.0519 21.8096C13.0374 21.7686 13.0265 21.7379 13.012 21.6969C12.9866 21.6251 12.9711 21.5499 12.9654 21.4712C12.874 20.7423 13.2686 20.0375 13.9593 19.7931C14.6598 19.5452 15.4369 19.8585 15.8081 20.4998C15.8642 20.5953 15.9103 20.6944 15.9466 20.7969Z" fill="#FCB614"/>
<path d="M13.3486 22.1776C13.9181 23.0025 14.95 22.7182 15.2331 22.5142C15.0794 22.4878 14.8303 22.3799 14.7124 22.3293C14.6081 22.2855 14.51 22.2279 14.4281 22.1531C14.1232 22.2956 13.6429 22.3502 13.3486 22.1776Z" fill="#E29C25"/>
<path d="M15.9502 20.8071C15.9466 20.7969 15.9466 20.7969 15.943 20.7866C15.9067 20.6841 15.8642 20.5954 15.8082 20.4998C15.4369 19.8585 14.6599 19.5452 13.9593 19.7931C13.2686 20.0375 12.8642 20.7458 12.9655 21.4712C12.9711 21.5499 12.9866 21.6252 13.012 21.6969C13.0229 21.7277 13.0374 21.7687 13.0519 21.8097C13.3457 22.6399 14.2364 23.086 15.0356 22.8032C15.2724 22.7194 15.4776 22.5776 15.6288 22.4087C15.3899 22.424 15.1112 22.3266 14.9295 22.2525C14.6166 22.121 14.3545 21.9139 14.1766 21.6308L14.1668 21.6343C14.0089 21.6902 13.8433 21.5988 13.7889 21.4451C13.7309 21.2811 13.8156 21.1127 13.9636 21.0603C14.1215 21.0044 14.2871 21.0958 14.3415 21.2495C14.3814 21.3623 14.3548 21.4755 14.2842 21.5582C14.4751 21.7213 14.692 21.8637 14.9079 21.9718C15.292 22.1473 15.7167 22.1239 15.8398 22.1265C16.0477 21.7415 16.1 21.2616 15.9502 20.8071ZM18.7283 15.8565C18.6268 17.7032 17.4761 19.4714 16.1347 20.6381C16.1419 20.6586 16.1528 20.6893 16.1601 20.7098C16.3487 21.2428 16.2886 21.7946 16.0359 22.2416C15.8405 22.5991 15.5199 22.8855 15.1055 23.0322C14.1879 23.3569 13.1623 22.8432 12.825 21.89C12.8105 21.849 12.7923 21.7977 12.7877 21.7532C11.8614 21.8965 10.6868 21.4009 9.91295 20.9712C9.31819 20.6396 8.58907 20.1479 8.0599 19.5624C8.02203 19.5181 7.98779 19.4841 7.95979 19.4363C8.09009 19.4594 8.22402 19.4928 8.36418 19.5124C10.1173 19.7917 11.9642 19.6456 13.6265 19.1035C14.6636 18.7711 15.5912 18.2237 16.4484 17.5398C17.1855 16.956 17.971 16.3205 18.5665 15.5562C18.6273 15.477 18.6881 15.3978 18.739 15.3221C18.7379 15.5071 18.7429 15.6783 18.7283 15.8565ZM17.8805 17.9788C18.1982 17.3704 18.3964 16.7697 18.4877 16.1492C17.9535 16.7419 17.271 17.2602 16.6933 17.7299C15.8138 18.4448 14.8737 19.0197 13.8142 19.3831C13.7846 19.3936 13.755 19.404 13.7254 19.4145C12.0335 19.9671 10.2765 20.1159 8.56239 19.696C9.04339 20.114 9.60231 20.4698 10.1223 20.7472C10.5713 20.9805 11.0488 21.169 11.5342 21.2856C11.9225 21.3789 12.3311 21.3727 12.7184 21.4317C12.641 20.6171 13.1 19.8434 13.8795 19.5676C14.6788 19.2848 15.543 19.6248 15.9864 20.3445C16.7267 19.6443 17.3861 18.9034 17.8805 17.9788Z" fill="#231F20"/>
<path d="M12.918 20.4269C13.1124 20.0351 13.4454 19.7212 13.8796 19.5676C14.3039 19.4175 14.7566 19.4418 15.1505 19.6138C16.2844 18.9588 17.4321 17.8722 18.494 16.1355C17.9598 16.7282 17.2773 17.2465 16.6996 17.7162C15.8201 18.4311 14.8799 19.006 13.8205 19.3694C13.7909 19.3798 13.7613 19.3903 13.7317 19.4008C12.0398 19.9533 10.2828 20.1022 8.56867 19.6823C8.56243 19.696 10.4837 20.8269 12.918 20.4269Z" fill="#815DE9"/>
<path d="M15.7116 21.9527C15.8946 21.6226 15.9427 21.225 15.8048 20.8355L15.8012 20.8253C15.7722 20.7433 15.7333 20.6647 15.6944 20.5862C15.4144 20.1086 14.8746 19.8383 14.3424 19.9344C14.3424 19.9344 14.3559 19.9411 14.3792 19.9444C14.523 19.9742 15.0058 20.1148 15.1507 20.744C15.3221 21.4792 14.7752 21.7535 14.7752 21.7535C14.8193 21.784 14.8732 21.8111 14.9236 21.8278C15.0585 21.8954 15.4847 22.033 15.7116 21.9527Z" fill="#E29C25"/>
<path d="M14.1055 20.2373C14.2128 20.3839 14.1301 20.6208 13.9187 20.7763C13.7172 20.9284 13.4648 20.9369 13.3673 20.7869C13.2599 20.6403 13.3427 20.4035 13.5541 20.2479C13.7655 20.0924 14.0116 20.0976 14.1055 20.2373Z" fill="white"/>
<path d="M13.0181 4.17495C13.0279 4.17145 13.0513 4.17472 13.0586 4.19522C13.2753 4.5568 13.5253 4.91815 13.7977 5.24853C13.9528 5.43585 14.1141 5.60943 14.2817 5.76927C14.8016 6.2658 15.4171 6.62469 16.1719 6.74973C16.3355 6.7726 16.4954 6.78522 16.6309 6.76033C16.8131 6.74198 16.9809 6.68262 17.1144 6.58924C17.4961 6.35034 17.6813 5.8696 17.6272 5.27746C17.6056 4.99676 17.5659 4.66481 17.4617 4.40179C17.2813 3.92352 16.8874 3.75151 16.4274 3.70667C15.2676 3.59806 14.045 3.50015 12.9171 3.79546C12.6533 3.86574 12.3869 3.96001 12.1277 4.07479C11.8784 4.18607 11.6302 4.33159 11.3782 4.46687C10.9991 4.68178 10.6199 4.89668 10.2289 5.0466C10.045 5.12319 9.84405 5.18277 9.64207 5.20811C9.40163 5.28166 9.17468 5.36196 8.93787 5.44576C8.6616 5.54353 8.13341 5.77656 8.13341 5.77656C7.96306 5.85991 7.78182 5.91251 7.59072 5.9686C7.31081 6.05612 7.02003 6.11288 6.72561 6.15939C6.3289 6.23057 5.93842 6.28801 5.56246 6.38645C5.32826 6.44625 5.10494 6.53681 4.88526 6.63762C3.82265 7.11744 2.93372 7.96255 2.10399 8.78671C1.72627 9.16258 1.55982 9.6021 1.80764 10.1142C1.92792 10.3599 2.05807 10.6022 2.21419 10.8238C2.28732 10.9363 2.37655 11.0316 2.45853 11.1064C2.72159 11.3478 3.01745 11.4623 3.30926 11.4397C3.4619 11.4319 3.62341 11.3862 3.78389 11.3064C3.96049 11.2093 4.13244 11.0677 4.28988 10.8851C4.77469 10.3099 5.0005 9.63022 5.08613 8.93096C5.11589 8.70129 5.12591 8.4786 5.12244 8.24915C5.12376 7.845 5.08198 7.44457 5.02672 7.03738C5.01946 7.01688 5.03557 6.99964 5.04181 6.9859C5.06778 6.96518 5.11451 6.97171 5.12901 7.01271C5.2638 7.29949 5.35288 7.61399 5.4025 7.94244C5.43456 8.12717 5.44326 8.30864 5.45196 8.4901C5.48442 9.58586 5.08592 10.7188 4.36169 11.4018C4.11283 11.6398 3.86455 11.7853 3.62049 11.8486C3.36114 12.9669 3.40187 14.1174 3.79361 15.2244C5.04861 18.771 9.50523 20.4465 13.7185 18.9556C17.9318 17.4647 20.3426 13.3591 19.0876 9.81247C18.6959 8.70544 17.9905 7.77862 17.0891 7.0826C16.8424 7.16989 16.5542 7.20267 16.2038 7.15366C15.2631 7.03672 14.3217 6.44714 13.6733 5.65009C13.5524 5.49678 13.4451 5.35024 13.3538 5.18646C13.1723 4.89314 13.0365 4.57211 12.9671 4.25064C12.9526 4.20964 12.9848 4.17517 13.0181 4.17495Z" fill="#A3A3A3"/>
<path d="M17.9324 4.69659C17.83 4.15614 17.6933 3.58168 17.126 3.39029C16.3536 3.12151 15.2913 3.16294 14.484 3.17182C13.5769 3.18137 12.6875 3.33465 11.8715 3.72718C11.321 3.99119 10.8291 4.32674 10.3092 4.61452C9.3615 4.82299 8.34417 5.14838 7.49443 5.63361C6.93259 5.74016 6.34898 5.7852 5.77104 5.90898C4.88256 6.0965 4.08739 6.51629 3.36272 7.0726C2.70974 7.58047 1.80224 8.24761 1.34848 8.97334C1.03141 9.48922 1.28285 10.0115 1.54315 10.4961C1.71581 10.8272 1.93055 11.1203 2.16662 11.3481C2.47481 11.6543 2.82305 11.854 3.19944 11.8823C2.95098 13.0313 3.00622 14.2228 3.40884 15.3606C4.74364 19.1327 9.42966 20.9231 13.86 19.3554C18.2903 17.7877 20.8073 13.4484 19.4725 9.6763C19.0735 8.54877 18.3707 7.59796 17.4647 6.85745C17.9868 6.41896 18.1078 5.56876 17.9324 4.69659ZM17.1045 6.59274C16.971 6.68611 16.8132 6.74198 16.6211 6.76383C16.4819 6.77847 16.3256 6.7761 16.1621 6.75323C15.4073 6.62818 14.7918 6.2693 14.2719 5.77277C14.1043 5.61293 13.9429 5.43935 13.7878 5.25203C13.5155 4.92165 13.279 4.56705 13.0487 4.19872C13.0415 4.17822 13.0181 4.17495 13.0082 4.17844C12.975 4.17867 12.9428 4.21313 12.9573 4.25413C13.0402 4.58237 13.1723 4.89314 13.344 5.18995C13.4352 5.35373 13.5462 5.51053 13.6635 5.65358C14.3119 6.45064 15.2533 7.04021 16.194 7.15715C16.5408 7.19591 16.8326 7.17339 17.0793 7.0861C17.9843 7.79237 18.6861 8.70893 19.0778 9.81596C20.3328 13.3626 17.9219 17.4682 13.7087 18.9591C9.49541 20.45 5.03879 18.7745 3.78379 15.2279C3.39205 14.1209 3.35756 12.9567 3.6169 11.8384C3.86097 11.7751 4.10925 11.6296 4.35811 11.3916C5.08234 10.7085 5.47097 9.5791 5.452 8.4901C5.45317 8.30515 5.43098 8.11693 5.40254 7.94245C5.35293 7.61399 5.26385 7.2995 5.12906 7.01271C5.11455 6.97171 5.06783 6.96518 5.04185 6.9859C5.03199 6.9894 5.01951 7.01688 5.02676 7.03738C5.08203 7.44457 5.11394 7.8485 5.12248 8.24916C5.12596 8.4786 5.10607 8.70478 5.08618 8.93096C5.00417 9.64048 4.77474 10.3099 4.28993 10.8851C4.13248 11.0677 3.96053 11.2093 3.78394 11.3064C3.62345 11.3862 3.47182 11.4284 3.3093 11.4397C3.0175 11.4623 2.72164 11.3478 2.45858 11.1064C2.37297 11.0214 2.28374 10.9261 2.21424 10.8238C2.05811 10.6022 1.92797 10.3599 1.80769 10.1142C1.55624 9.59185 1.73256 9.14884 2.10404 8.78671C2.93376 7.96255 3.8227 7.11744 4.8853 6.63762C5.10499 6.53681 5.33193 6.45651 5.5625 6.38645C5.93484 6.27776 6.33518 6.21683 6.72566 6.1594C7.02007 6.11288 7.31086 6.05612 7.59439 5.97885C7.77563 5.92626 7.9631 5.85992 8.13709 5.78682C8.13709 5.78682 8.66889 5.56403 8.94155 5.45601C9.17836 5.37222 9.4053 5.29191 9.64574 5.21836C9.8441 5.18277 10.0352 5.12668 10.2325 5.05685C10.6236 4.90694 11.0028 4.69203 11.3819 4.47712C11.6302 4.3316 11.8821 4.19632 12.1314 4.08504C12.3905 3.97027 12.657 3.876 12.9208 3.80571C14.0487 3.5104 15.2713 3.60831 16.4347 3.72718C16.8947 3.77202 17.2886 3.94403 17.469 4.4223C17.5695 4.67506 17.603 5.02076 17.6345 5.29796C17.6715 5.8731 17.4863 6.35384 17.1045 6.59274Z" fill="#231F20"/>
<path opacity="0.56" d="M5.97224 8.54823C5.47371 7.20218 5.1291 7.01271 5.1291 7.01271C5.26389 7.29949 5.35297 7.61398 5.40259 7.94244C5.43465 8.12717 5.44334 8.30863 5.45204 8.4901C5.48451 9.58585 5.08601 10.7188 4.36178 11.4018C4.11292 11.6398 3.86464 11.7853 3.62057 11.8486C3.36123 12.9669 3.40196 14.1174 3.7937 15.2244C4.01858 15.8599 4.34838 16.4468 4.75871 16.9475C3.69174 14.0264 4.69462 12.0914 5.1237 11.7665C5.55641 11.452 6.477 9.88054 5.97224 8.54823Z" fill="#818384"/>
<path opacity="0.56" d="M19.0877 9.81248C18.6959 8.70545 17.9905 7.77864 17.0891 7.08262C16.8424 7.16991 16.5543 7.20268 16.2039 7.15367C16.017 7.12754 15.8363 7.08766 15.6484 7.02728C15.3707 6.96408 15.0811 6.83589 14.7723 6.62221C14.3592 6.3647 13.9835 6.02475 13.6733 5.6501C13.5525 5.4968 13.4451 5.35025 13.3538 5.18647C13.1723 4.89315 13.0365 4.57213 12.9672 4.25065C12.9672 4.25065 13.5441 7.79498 16.2405 8.1672C18.3296 8.45448 19.1998 10.5686 19.4142 12.0844C19.4449 11.3239 19.3488 10.5505 19.0877 9.81248Z" fill="#818384"/>
<path d="M16.9533 9.8988C16.1375 8.50352 15.7271 7.43771 13.5369 7.77445C12.8852 7.87818 12.3479 7.80304 11.9181 7.65524C11.0713 6.89378 10.9732 5.4868 10.9732 5.4868C10.6969 5.58456 10.5123 5.97283 10.5123 5.97283C10.5123 5.97283 10.4447 6.15823 10.4419 6.40142C10.1498 6.07802 9.49103 6.72636 9.49103 6.72636C9.49103 6.72636 8.54308 6.58892 8.65537 7.12587C8.48213 6.8873 8.27246 6.76542 8.27246 6.76542C8.27246 6.76542 7.87488 6.58316 7.59861 6.68092C7.59861 6.68092 8.46584 7.90804 8.20751 9.06056C7.97156 9.39779 7.61619 9.74269 7.10977 10.0372C5.19524 11.153 5.55636 12.2363 5.78992 13.8375C6.02971 15.4251 4.83477 15.8133 5.19863 17.4377C7.16397 19.3835 10.5081 20.0801 13.7051 18.9489C17.1191 17.7408 19.3428 14.8317 19.3983 11.8824C18.6783 10.9146 17.6777 11.1303 16.9533 9.8988Z" fill="white"/>
<path d="M12.1759 14.565C11.8229 14.54 11.3671 14.413 11.099 14.0004C11.0726 13.8944 11.3583 13.6664 11.8319 13.4988C12.049 13.422 12.277 13.3759 12.4395 13.3645C12.5823 13.3601 12.6892 13.38 12.7172 13.4277C12.7107 13.8799 12.5484 14.2372 12.2253 14.5476C12.2118 14.5408 12.2019 14.5443 12.2055 14.5546C12.192 14.5478 12.1822 14.5513 12.1759 14.565Z" fill="#F38BA8"/>
<path d="M11.1026 14.0106C11.3708 14.4232 11.8229 14.54 12.1796 14.5753C12.1858 14.5615 12.1957 14.558 12.1957 14.558C12.2019 14.5443 12.2154 14.5511 12.2154 14.5511C12.5323 14.2544 12.6909 13.8868 12.7073 13.4312C12.6793 13.3835 12.5823 13.3601 12.4296 13.368C12.2671 13.3794 12.0391 13.4255 11.8221 13.5023C11.3583 13.6664 11.0825 13.8909 11.1026 14.0106ZM11.8664 16.2316C12.2316 15.8833 12.2917 15.3314 12.2271 14.8353C12.2225 14.7908 12.208 14.7498 12.207 14.7155C11.6509 14.6816 11.2389 14.4583 10.9852 14.0867L10.978 14.0662C10.8837 13.7997 11.3543 13.5294 11.7884 13.3758C12.2226 13.2221 12.7584 13.1363 12.8527 13.4028L12.86 13.4233C12.8482 13.9235 12.6646 14.346 12.302 14.6704L12.3057 14.6806C12.3264 14.7079 12.3373 14.7386 12.3617 14.7761C12.6272 15.2127 13.0137 15.5834 13.524 15.645C14.1745 15.7263 15.1308 15.1342 14.7222 14.356C14.7186 14.3458 14.7284 14.3423 14.7321 14.3525C15.3509 15.1601 14.6869 15.8564 13.8701 15.9955C13.3675 16.0811 12.8386 15.8415 12.5175 15.4361C12.513 15.9567 12.2623 16.4721 11.8177 16.7217C11.1051 17.1238 10.1411 17.0036 10.1143 15.9866C10.1106 15.9764 10.1205 15.9729 10.1241 15.9831C10.3068 16.8758 11.4045 16.6834 11.8664 16.2316Z" fill="#231F20"/>
<path d="M13.7064 16.9761C13.3947 17.2248 13.0135 17.3712 12.6039 17.3432C12.5806 17.3399 12.5779 17.3639 12.5951 17.3809C12.7735 17.5715 12.9542 17.6114 13.1972 17.5138C13.4699 17.4058 13.5879 17.2372 13.7199 16.9829L13.7064 16.9761Z" fill="#231F20"/>
<path d="M5.84295 12.2617C5.84295 12.2617 6.91069 10.3845 8.23503 10.5502C7.90306 10.1141 7.47662 9.63063 6.36495 10.4738C6.07198 10.6813 5.56787 11.3902 5.84295 12.2617Z" fill="#231F20"/>
<path d="M15.9272 8.69331C15.9272 8.69331 13.9164 7.90547 12.991 8.86727C12.9711 8.30914 12.9986 7.66507 14.3932 7.6214C14.7551 7.60868 15.5929 7.84277 15.9272 8.69331Z" fill="#231F20"/>
<path d="M8.67417 15.0545C8.67417 15.0545 9.32061 14.9987 9.60328 14.668C9.71661 14.4549 9.73462 13.9411 9.60405 13.5721C9.31025 12.7418 8.46272 12.292 7.70295 12.5608C6.94318 12.8297 6.57081 13.7227 6.86099 14.5427C6.98069 14.881 7.19804 15.1501 7.45646 15.347C7.79194 15.2283 8.37149 15.0462 8.67417 15.0545Z" fill="white"/>
<path d="M8.55376 15.0279C9.1205 14.8273 9.39805 14.1508 9.17369 13.5167C8.94933 12.8827 8.30801 12.5313 7.74127 12.7318C7.17452 12.9324 6.89697 13.6089 7.12133 14.243C7.34569 14.877 7.98701 15.2284 8.55376 15.0279Z" fill="#FDD72D"/>
<path d="M8.36779 14.4709C8.64026 14.3745 8.77995 14.0668 8.67979 13.7838C8.57963 13.5007 8.27755 13.3494 8.00507 13.4458C7.7326 13.5423 7.59292 13.8499 7.69308 14.1329C7.79324 14.416 8.09532 14.5673 8.36779 14.4709Z" fill="#231F20"/>
<path d="M7.62417 13.9382C7.75496 13.8919 7.82201 13.7442 7.77393 13.6084C7.72585 13.4725 7.58085 13.3999 7.45007 13.4462C7.31928 13.4925 7.25223 13.6401 7.30031 13.776C7.34839 13.9118 7.49338 13.9845 7.62417 13.9382Z" fill="white"/>
<path d="M9.16338 12.6092C9.16338 12.6092 7.63154 12.1709 6.90279 13.3745C6.68962 13.8075 6.78347 14.7316 7.37866 15.1899C7.23167 15.2766 7.16057 15.2325 7.16057 15.2325C7.16057 15.2325 6.00661 14.1991 6.79355 12.9403C7.57425 11.6952 9.28427 11.9782 9.16338 12.6092Z" fill="#231F20"/>
<path d="M9.6069 14.6783C9.6069 14.6783 10.0312 13.7438 8.77117 12.9441C7.86561 12.3303 6.96697 12.9597 6.78687 13.6116C7.03662 12.8428 8.13464 12.212 8.87261 12.666C9.61059 13.1199 10.0025 14.0077 9.6069 14.6783Z" fill="#231F20"/>
<path d="M15.2457 12.7291C15.2457 12.7291 14.708 13.0923 14.2803 13.013C14.0581 12.9186 13.7209 12.5304 13.5904 12.1614C13.2966 11.3312 13.6726 10.4484 14.4323 10.1796C15.1921 9.9107 16.0432 10.3707 16.3334 11.1908C16.4531 11.529 16.4534 11.8749 16.3763 12.1906C16.0408 12.3093 15.4857 12.5288 15.2457 12.7291Z" fill="white"/>
<path d="M15.2311 12.6881C15.7979 12.4875 16.0754 11.8109 15.8511 11.1769C15.6267 10.5429 14.9854 10.1915 14.4186 10.392C13.8519 10.5925 13.5743 11.2691 13.7987 11.9032C14.0231 12.5372 14.6644 12.8886 15.2311 12.6881Z" fill="#FDD72D"/>
<path d="M13.3274 11.1357C13.3274 11.1357 14.2426 9.8315 15.5662 10.3089C16.0043 10.5114 16.4938 11.3301 16.323 12.0711C16.4918 12.0459 16.5193 11.967 16.5193 11.967C16.5193 11.967 16.7754 10.4001 15.3817 9.91286C13.988 9.42566 12.8464 10.7177 13.3274 11.1357Z" fill="#231F20"/>
<path d="M14.284 13.0232C14.284 13.0232 13.3663 12.5637 13.8429 11.1494C14.1609 10.1026 15.2554 10.0267 15.8055 10.4203C15.1277 9.97964 13.8773 10.1799 13.5891 10.997C13.3009 11.814 13.5645 12.7473 14.284 13.0232Z" fill="#231F20"/>
<path d="M15.0281 12.1141C15.3005 12.0176 15.4402 11.71 15.3401 11.427C15.2399 11.1439 14.9378 10.9926 14.6654 11.089C14.3929 11.1854 14.2532 11.4931 14.3534 11.7761C14.4535 12.0592 14.7556 12.2105 15.0281 12.1141Z" fill="#231F20"/>
<path d="M15.2124 11.3799C15.3432 11.3336 15.4103 11.1859 15.3622 11.0501C15.3141 10.9142 15.1691 10.8416 15.0383 10.8879C14.9075 10.9341 14.8405 11.0818 14.8886 11.2177C14.9366 11.3535 15.0816 11.4261 15.2124 11.3799Z" fill="white"/>
<path d="M8.74694 15.0403C8.74694 15.0403 6.41587 14.8848 6.63667 16.1676C7.11625 15.6404 7.82625 15.2623 8.74694 15.0403Z" fill="#231F20"/>
<path d="M15.0332 12.8504C15.0332 12.8504 16.7477 11.2633 17.3829 12.3996C16.6846 12.2775 15.8886 12.4439 15.0332 12.8504Z" fill="#231F20"/>
<path d="M10.6498 14.9897C10.6498 14.9897 9.08341 14.9558 8.24237 15.6225C8.73108 15.4034 9.81284 15.0091 10.7078 15.1537C10.7499 15.1158 10.683 14.9895 10.6498 14.9897Z" fill="#231F20"/>
<path d="M10.9799 15.9225C10.9799 15.9225 10.0091 17.258 8.99696 17.5354C9.46754 17.265 10.4353 16.6112 10.9057 15.7758C10.9649 15.7548 11.0022 15.8916 10.9799 15.9225Z" fill="#231F20"/>
<path d="M10.7087 15.4072C10.7087 15.4072 9.23764 15.674 8.49875 16.5352C8.94132 16.2171 9.91992 15.594 10.7766 15.5677C10.8213 15.5057 10.7518 15.4035 10.7087 15.4072Z" fill="#231F20"/>
<path d="M13.6483 13.894C13.6483 13.894 14.8447 12.8825 15.9179 12.8718C15.4002 13.0089 14.3112 13.3827 13.7064 14.058C13.6399 14.0585 13.6161 13.9285 13.6483 13.894Z" fill="#231F20"/>
<path d="M13.9721 14.8406C13.9721 14.8406 15.5668 15.2682 16.5281 14.8473C15.9923 14.9331 14.8287 15.0334 13.9375 14.6798C13.8845 14.6871 13.9317 14.8203 13.9721 14.8406Z" fill="#231F20"/>
<path d="M13.8553 14.2591C13.8553 14.2591 15.1667 13.5413 16.2829 13.7461C15.7387 13.7772 14.586 13.9083 13.9034 14.4266C13.8432 14.4133 13.8293 14.2798 13.8553 14.2591Z" fill="#231F20"/>
</g>
<path d="M31.3811 20.5943C30.2591 20.4341 29.1986 20.1343 28.2125 19.6033C28.1847 19.5887 28.1569 19.5741 28.1291 19.5595C26.5746 18.6927 25.2722 17.5039 24.4166 15.9604C24.4363 16.5974 24.5546 17.2493 24.7042 17.8194C24.8378 18.3074 25.0236 18.786 25.2676 19.2214C25.4628 19.5698 25.7448 19.8656 25.9644 20.19C26.5099 19.5801 27.3896 19.3916 28.1214 19.7765C28.8717 20.1712 29.2089 21.0366 28.9817 21.8508C29.9892 21.9139 30.985 21.9094 32.0046 21.6348C32.6669 21.4549 33.2424 21.1925 33.76 20.8382C32.9529 20.8436 32.1181 20.6994 31.3811 20.5943Z" fill="#815DE9"/>
<path d="M28.6135 22.1235C28.6084 22.1332 28.6084 22.1332 28.6033 22.1428C28.3806 22.5662 27.9929 22.8537 27.5649 22.9479C27.4832 22.8559 27.3678 22.7829 27.2913 22.6812C27.1835 22.5262 27.1003 22.3473 27.0456 22.1588C26.9784 21.9269 26.9356 21.671 26.9257 21.4201C27.0344 21.4158 27.1355 21.3584 27.1912 21.2526C27.2722 21.0986 27.2125 20.9198 27.0736 20.8467C26.9254 20.7687 26.7484 20.8354 26.6725 20.9797C26.5915 21.1337 26.6512 21.3125 26.7901 21.3856L26.7994 21.3905C26.7124 21.7133 26.729 22.0414 26.8543 22.3653C26.9232 22.549 27.041 22.8198 27.2144 22.9847C26.9785 22.9835 26.7351 22.9292 26.522 22.8171C25.7717 22.4224 25.4944 21.4657 25.9044 20.6863C25.9246 20.6478 25.9398 20.6189 25.96 20.5804C25.9955 20.513 26.0402 20.4506 26.0941 20.3929C26.5672 19.8309 27.3525 19.642 28.0009 19.9831C28.6586 20.329 28.9562 21.1121 28.7375 21.8202C28.7054 21.9262 28.6641 22.0273 28.6135 22.1235Z" fill="#FCB614"/>
<path d="M25.8358 21.1541C25.6169 22.1324 26.5263 22.6967 26.8683 22.766C26.7833 22.6353 26.6934 22.3791 26.6505 22.2583C26.6118 22.152 26.5875 22.0409 26.5867 21.9299C26.2751 21.8029 25.9089 21.4874 25.8358 21.1541Z" fill="#E29C25"/>
<path d="M28.6083 22.1334C28.6133 22.1238 28.6133 22.1238 28.6184 22.1142C28.669 22.0179 28.7053 21.9265 28.7374 21.8205C28.9561 21.1124 28.6585 20.3293 28.0008 19.9833C27.3523 19.6423 26.5578 19.8263 26.094 20.3932C26.04 20.4508 25.9953 20.5133 25.9599 20.5807C25.9447 20.6095 25.9245 20.648 25.9042 20.6865C25.4942 21.466 25.7715 22.4227 26.5219 22.8174C26.7442 22.9343 26.9876 22.9887 27.2142 22.985C27.0408 22.8201 26.9231 22.5493 26.8541 22.3656C26.7381 22.0466 26.7122 21.7135 26.7992 21.3907L26.79 21.3859C26.6418 21.3079 26.5964 21.1243 26.6723 20.98C26.7533 20.826 26.9345 20.7739 27.0734 20.847C27.2216 20.9249 27.267 21.1085 27.1911 21.2528C27.1354 21.3587 27.0343 21.4161 26.9256 21.4203C26.9355 21.6713 26.9783 21.9272 27.0455 22.1591C27.1775 22.5602 27.4831 22.8561 27.5647 22.9482C27.9886 22.8394 28.3763 22.552 28.6083 22.1334ZM34.129 20.8111C32.7044 21.9906 30.6249 22.3465 28.8576 22.154C28.8475 22.1733 28.8323 22.2021 28.8222 22.2214C28.559 22.7218 28.1131 23.0524 27.6134 23.1704C27.2182 23.2697 26.7903 23.2289 26.4012 23.0242C25.5398 22.5711 25.2204 21.4694 25.6912 20.5745C25.7114 20.536 25.7367 20.4879 25.7662 20.4542C25.0321 19.8715 24.5982 18.6727 24.3882 17.8129C24.2278 17.1511 24.0937 16.2819 24.1642 15.4959C24.1709 15.438 24.1727 15.3898 24.1887 15.3368C24.2602 15.4481 24.3267 15.5691 24.4075 15.6853C25.3929 17.1619 26.7542 18.4185 28.281 19.2707C29.2292 19.8063 30.2609 20.1156 31.3451 20.2804C32.2742 20.4252 33.274 20.5702 34.2395 20.4884C34.339 20.4793 34.4384 20.4701 34.5285 20.4561C34.392 20.5809 34.2697 20.7008 34.129 20.8111ZM31.9953 21.6299C32.6576 21.45 33.2332 21.1876 33.7507 20.8332C32.9529 20.8436 32.1089 20.6945 31.3718 20.5894C30.2498 20.4292 29.1893 20.1294 28.2032 19.5984C28.1754 19.5838 28.1476 19.5692 28.1199 19.5546C26.5653 18.6877 25.2629 17.499 24.4073 15.9555C24.427 16.5924 24.5454 17.2444 24.6949 17.8145C24.8285 18.3024 25.0143 18.781 25.2583 19.2165C25.4535 19.5649 25.7355 19.8607 25.9551 20.185C26.5007 19.5751 27.3803 19.3867 28.1121 19.7716C28.8624 20.1663 29.1996 21.0316 28.9724 21.8458C29.9892 21.9138 30.9808 21.8948 31.9953 21.6299Z" fill="#231F20"/>
<path d="M26.8285 19.6492C27.2481 19.5259 27.7047 19.5572 28.1123 19.7716C28.5106 19.9811 28.8001 20.33 28.9414 20.736C30.1921 21.1236 31.7691 21.2282 33.7651 20.8285C32.9673 20.8388 32.1233 20.6897 31.3862 20.5846C30.2642 20.4244 29.2038 20.1246 28.2177 19.5936C28.1899 19.579 28.1621 19.5644 28.1343 19.5498C26.5798 18.683 25.2774 17.4942 24.4218 15.9507C24.4074 15.9555 24.8818 18.1338 26.8285 19.6492Z" fill="#815DE9"/>
<path d="M27.6054 22.7361C27.9719 22.6463 28.2964 22.4116 28.4887 22.0459L28.4938 22.0363C28.5343 21.9593 28.5655 21.8774 28.5968 21.7956C28.7572 21.2657 28.5891 20.6859 28.1572 20.3604C28.1572 20.3604 28.1614 20.3749 28.1749 20.3943C28.2506 20.5201 28.4752 20.9699 28.1117 21.5036C27.6884 22.1286 27.1156 21.9134 27.1156 21.9134C27.1232 21.9665 27.14 22.0245 27.1619 22.0728C27.2039 22.2178 27.3923 22.624 27.6054 22.7361Z" fill="#E29C25"/>
<path d="M27.7739 20.3924C27.7392 20.5707 27.5091 20.6709 27.2514 20.6213C27.0029 20.5766 26.8253 20.3972 26.8692 20.2237C26.9039 20.0454 27.1339 19.9452 27.3917 19.9948C27.6494 20.0444 27.8127 20.2286 27.7739 20.3924Z" fill="white"/>
<path d="M27.3158 11.6116C28.0112 11.8743 28.7878 11.5235 29.0505 10.8281C29.3132 10.1328 28.9624 9.35613 28.267 9.09346C27.5716 8.83079 26.795 9.18157 26.5323 9.87695C26.2697 10.5723 26.6204 11.349 27.3158 11.6116Z" fill="#1A1511"/>
<path d="M35.7096 14.7823C36.405 15.0449 37.1816 14.6941 37.4443 13.9988C37.707 13.3034 37.3562 12.5267 36.6608 12.2641C35.9654 12.0014 35.1888 12.3522 34.9261 13.0476C34.6635 13.7429 35.0142 14.5196 35.7096 14.7823Z" fill="#1A1511"/>
<path d="M31.0372 14.4561C30.9071 14.4065 30.7902 14.3274 30.6957 14.2252C30.6013 14.123 30.5317 14.0002 30.4925 13.8667L29.9925 12.1432C30.0772 11.921 30.2463 11.7414 30.463 11.6435C30.6797 11.5456 30.9263 11.5375 31.149 11.6208L32.8277 12.255C33.0499 12.3396 33.2295 12.5088 33.3274 12.7255C33.4253 12.9422 33.4334 13.1888 33.3501 13.4114L31.8355 14.374C31.7178 14.4483 31.5844 14.4943 31.4459 14.5086C31.3075 14.5228 31.1675 14.5049 31.0372 14.4561Z" fill="#1A1511"/>
<path d="M30.8319 12.4602L32.5107 13.0944C32.629 13.1397 32.7363 13.2097 32.8255 13.2997C32.9148 13.3897 32.9838 13.4977 33.0281 13.6164L33.3501 13.4114C33.4334 13.1888 33.4253 12.9422 33.3274 12.7255C33.2295 12.5088 33.0499 12.3396 32.8277 12.255L31.149 11.6208C30.9263 11.5375 30.6797 11.5456 30.463 11.6435C30.2463 11.7414 30.0772 11.921 29.9925 12.1432L30.0986 12.5098C30.2103 12.45 30.3335 12.4147 30.4599 12.4061C30.5863 12.3976 30.7131 12.416 30.8319 12.4602Z" fill="#2F261F"/>
<path d="M27.3157 11.6114C27.5648 11.7055 27.8361 11.7236 28.0954 11.6635C28.3547 11.6033 28.5904 11.4677 28.7726 11.2736C28.9548 11.0795 29.0753 10.8358 29.119 10.5732C29.1627 10.3106 29.1275 10.0409 29.0179 9.79835C28.9084 9.55575 28.7293 9.35109 28.5034 9.21025C28.2776 9.06941 28.015 8.99872 27.7489 9.00711C27.4828 9.0155 27.2252 9.1026 27.0087 9.2574C26.7921 9.41219 26.6263 9.62773 26.5323 9.87676C26.4061 10.2107 26.4178 10.581 26.5647 10.9064C26.7117 11.2317 26.9818 11.4853 27.3157 11.6114ZM32.2618 8.67436L31.94 9.52634C31.804 9.48684 31.6601 9.48337 31.5224 9.51628C31.3847 9.54918 31.2579 9.61732 31.1545 9.71402C30.1399 10.6352 27.285 13.0386 25.5811 12.3949C24.7417 12.0779 25.5343 9.97938 25.5343 9.97938C26.1685 8.3006 26.6441 7.04152 27.4835 7.35858C28.1172 7.59797 29.8301 7.15154 30.633 6.9177C30.8717 6.84801 31.1251 6.84618 31.3649 6.91241C31.6046 6.97864 31.8211 7.11032 31.9902 7.29269C32.1593 7.47506 32.2743 7.70092 32.3223 7.94495C32.3702 8.18898 32.3493 8.44155 32.2618 8.67436Z" fill="#2F261F"/>
<path d="M35.7097 14.7823C35.9587 14.8763 36.2301 14.8944 36.4894 14.8343C36.7487 14.7742 36.9844 14.6385 37.1666 14.4444C37.3488 14.2503 37.4693 14.0066 37.513 13.744C37.5567 13.4814 37.5215 13.2118 37.4119 12.9692C37.3024 12.7266 37.1233 12.5219 36.8974 12.3811C36.6715 12.2402 36.4089 12.1695 36.1429 12.1779C35.8768 12.1863 35.6192 12.2734 35.4027 12.4282C35.1861 12.583 35.0203 12.7986 34.9262 13.0476C34.8001 13.3815 34.8118 13.7519 34.9587 14.0772C35.1056 14.4025 35.3758 14.6561 35.7097 14.7823ZM36.4932 16.5169C34.7892 15.8733 34.2362 12.1827 34.0841 10.8207C34.0704 10.6798 34.0203 10.5449 33.9388 10.4291C33.8572 10.3134 33.747 10.2209 33.6188 10.1606L33.9407 9.30865C34.0289 9.07614 34.1802 8.8728 34.3775 8.72142C34.5749 8.57004 34.8104 8.4766 35.0579 8.45158C35.3053 8.42655 35.5548 8.47092 35.7785 8.57972C36.0021 8.68851 36.1911 8.85744 36.3241 9.06756C36.7719 9.77384 37.7619 11.2412 38.3956 11.4806C39.235 11.7977 38.7594 13.0568 38.1253 14.7355C38.1253 14.7355 37.3326 16.834 36.4932 16.5169Z" fill="#2F261F"/>
<path d="M33.35 13.4112C33.4333 13.1886 33.4252 12.942 33.3273 12.7253C33.2295 12.5086 33.0498 12.3394 32.8277 12.2548L31.9883 11.9377L32.4892 10.6115C32.5273 10.5099 32.5851 10.4168 32.6592 10.3376C32.7334 10.2584 32.8224 10.1947 32.9213 10.15C33.0202 10.1053 33.1269 10.0807 33.2353 10.0774C33.3438 10.0741 33.4518 10.0923 33.5532 10.1309L33.5574 10.1325C33.5787 10.1398 33.5993 10.1491 33.6187 10.1605C33.7469 10.2207 33.8571 10.3133 33.9387 10.429C34.0202 10.5447 34.0703 10.6797 34.084 10.8206C34.2361 12.1825 34.7892 15.8732 36.4931 16.5168C38.5916 17.3095 38.9087 16.4701 38.9087 16.4701L38.4331 17.7292C38.4331 17.7292 37.7989 19.4079 36.1201 18.7738C34.605 18.2015 33.35 13.4112 33.35 13.4112Z" fill="#574538"/>
<path d="M31.149 11.6205C30.9263 11.5372 30.6797 11.5453 30.463 11.6432C30.2463 11.741 30.0772 11.9207 29.9925 12.1428C29.9925 12.1428 25.8838 14.9071 24.3687 14.3348C22.69 13.7006 23.3241 12.0218 23.3241 12.0218L23.7997 10.7628C23.7997 10.7628 23.4826 11.6021 25.5811 12.3948C27.2851 13.0385 30.14 10.6351 31.1546 9.7139C31.258 9.6172 31.3848 9.54906 31.5225 9.51616C31.6602 9.48325 31.8041 9.48672 31.94 9.52622C31.9621 9.53059 31.9838 9.53715 32.0046 9.5458L32.0088 9.54739C32.1104 9.58545 32.2034 9.64321 32.2826 9.71736C32.3618 9.79151 32.4256 9.88058 32.4702 9.97945C32.5149 10.0783 32.5396 10.185 32.5428 10.2935C32.5461 10.4019 32.5279 10.5099 32.4893 10.6113L31.9883 11.9376L31.149 11.6205Z" fill="#574538"/>
<path d="M27.9652 16.2402C27.3248 16.8183 27.215 17.947 26.0738 17.7941C25.883 17.7652 25.6959 17.7155 25.516 17.6458C24.7014 17.3181 24.0214 16.7249 23.5861 15.9624C23.2529 15.4109 23.0483 14.7913 22.9875 14.1498C22.9268 13.5083 23.0115 12.8613 23.2353 12.257L23.324 12.022C23.324 12.022 22.6899 13.7008 24.3687 14.3349C25.8838 14.9072 29.9924 12.143 29.9924 12.143L30.4924 13.8665C30.5316 14.0001 30.6012 14.1228 30.6957 14.225C30.7902 14.3273 30.907 14.4063 31.0371 14.4559L30.5615 15.715C30.5615 15.715 28.6925 15.5845 27.9652 16.2402Z" fill="#4D3D32"/>
<path d="M32.6619 20.3115C31.5487 19.6656 32.2635 18.7127 32.1622 17.8255C32.0501 16.8528 30.5615 15.715 30.5615 15.715L31.0371 14.4559C31.1675 14.5047 31.3074 14.5227 31.4459 14.5084C31.5844 14.4942 31.7177 14.4481 31.8355 14.3738L33.35 13.4113C33.35 13.4113 34.6051 18.2016 36.1202 18.7739C37.799 19.408 38.4331 17.7292 38.4331 17.7292L38.3443 17.9643C38.1127 18.5656 37.7485 19.107 37.2788 19.5481C36.8091 19.9893 36.246 20.3188 35.6314 20.5123C34.8007 20.7966 33.8983 20.7921 33.0705 20.4994C32.9301 20.4463 32.7936 20.3835 32.6619 20.3115Z" fill="#4D3D32"/>
<path d="M26.0739 17.7942C27.2151 17.9471 27.3249 16.8184 27.9653 16.2403C28.6926 15.5846 30.5616 15.7151 30.5616 15.7151C30.5616 15.7151 32.0501 16.8529 32.1623 17.8256C32.2636 18.7127 31.5488 19.6656 32.662 20.3116L32.6509 20.3409L31.1882 20.4934C30.8172 20.5228 30.4443 20.4688 30.0969 20.3353L27.8557 19.4888C27.5068 19.3592 27.1913 19.1532 26.9324 18.8859L25.9929 17.8691L26.0739 17.7942Z" fill="#2F261F"/>
<path d="M24.5828 8.68987L23.9582 10.3435L23.5385 10.1849C23.2573 10.0787 23.0916 9.3495 23.0587 9.03016L22.6612 5.53734C22.6182 5.2268 22.6536 4.91044 22.7642 4.61709L22.9228 4.1974C23.1986 3.46713 23.7073 3.31397 24.4342 3.24325L28.7005 2.60077C27.6943 3.09353 26.3933 3.89695 26.0192 4.88743L24.5828 8.68987Z" fill="#4D3D32"/>
<path d="M31.0241 2.58157L32.5849 4.01042L32.577 4.0314C29.4307 3.13068 25.8875 5.2357 24.5828 8.68979L26.0191 4.88735C26.3933 3.89687 27.6943 3.09344 28.7005 2.60069C28.9481 2.47841 29.1736 2.37656 29.367 2.29616C29.7346 2.13937 30.1485 2.13076 30.5223 2.27214C30.7082 2.34133 30.8787 2.44648 31.0241 2.58157Z" fill="#E0B18F"/>
<path d="M40.6324 7.1078C41.0573 8.14115 41.5022 9.60407 41.1281 10.5946L39.6918 14.397C40.9965 10.9429 39.7299 7.02109 36.7739 5.61674L36.7818 5.59576L38.8975 5.55566C39.0958 5.55038 39.2933 5.58422 39.4785 5.65525C39.8524 5.79628 40.1573 6.07641 40.3294 6.43705C40.4214 6.62525 40.5232 6.85076 40.6324 7.1078Z" fill="#E0B18F"/>
<path d="M39.0671 16.0502L41.1281 10.5942C41.5022 9.60367 41.0573 8.14074 40.6323 7.10739L43.4043 10.4085C43.9029 10.9421 44.1832 11.3933 43.9074 12.1236L43.7489 12.5433C43.6379 12.8365 43.4553 13.0972 43.2178 13.3018L40.6103 15.6595C40.3745 15.8774 39.768 16.3149 39.4868 16.2087L39.0671 16.0502Z" fill="#4D3D32"/>
<path d="M39.0673 16.0505L38.9088 16.4702C38.9088 16.4702 38.5917 17.3096 36.4932 16.5169C37.3326 16.834 38.1253 14.7355 38.1253 14.7355C38.7594 13.0567 39.235 11.7976 38.3956 11.4806C37.7619 11.2412 36.7719 9.7738 36.3242 9.06752C36.1911 8.8574 36.0022 8.68847 35.7785 8.57967C35.5549 8.47088 35.3054 8.42651 35.0579 8.45154C34.8105 8.47656 34.5749 8.57 34.3776 8.72138C34.1802 8.87276 34.029 9.0761 33.9407 9.30861L33.6189 10.1606C33.5994 10.1493 33.5788 10.1399 33.5575 10.1326L33.5533 10.131C33.4519 10.0924 33.3439 10.0742 33.2355 10.0775C33.127 10.0808 33.0203 10.1054 32.9214 10.1501C32.8226 10.1948 32.7335 10.2585 32.6593 10.3377C32.5852 10.4169 32.5274 10.51 32.4894 10.6116C32.528 10.5102 32.5462 10.4022 32.5429 10.2937C32.5396 10.1853 32.515 10.0786 32.4703 9.97969C32.4256 9.88082 32.3619 9.79175 32.2827 9.7176C32.2035 9.64345 32.1104 9.58568 32.0088 9.54763L32.0046 9.54604C31.9838 9.53739 31.9622 9.53083 31.9401 9.52646L32.2619 8.67448C32.3494 8.44167 32.3703 8.1891 32.3224 7.94507C32.2744 7.70103 32.1594 7.47517 31.9903 7.2928C31.8212 7.11043 31.6047 6.97876 31.365 6.91252C31.1253 6.84629 30.8718 6.84812 30.6331 6.91781C29.8302 7.15166 28.1173 7.59808 27.4836 7.3587C26.6442 7.04163 26.1686 8.30072 25.5344 9.9795C25.5344 9.9795 24.7418 12.078 25.5812 12.395C23.4827 11.6024 23.7998 10.763 23.7998 10.763L24.5829 8.68969C25.8876 5.2356 29.4308 3.13058 32.5771 4.0313C32.7223 4.06847 32.8651 4.1144 33.0047 4.16885L36.3623 5.43712C36.503 5.48858 36.6405 5.54853 36.774 5.61663C39.7301 7.02099 40.9967 10.9428 39.6919 14.3969L39.0673 16.0505Z" fill="#FFDBC2"/>
<path d="M31.8353 14.3739C31.7178 14.4486 31.5844 14.4949 31.4459 14.5091C31.3073 14.5234 31.1673 14.5052 31.037 14.456C30.9067 14.4067 30.7896 14.3279 30.6951 14.2256C30.6006 14.1232 30.5311 14.0003 30.4923 13.8666L30.0984 12.5097C29.9041 12.6099 29.7535 12.7782 29.6753 12.9824L30.1753 14.7059C30.2141 14.8397 30.2835 14.9626 30.378 15.0649C30.4726 15.1672 30.5896 15.2461 30.7199 15.2954C30.8503 15.3446 30.9902 15.3628 31.1288 15.3485C31.2674 15.3343 31.4007 15.288 31.5183 15.2133L33.0329 14.2507C33.1092 14.0458 33.1075 13.82 33.0279 13.6163L31.8353 14.3739Z" fill="#3D3128"/>
<path d="M38.3956 11.4806C37.7619 11.2412 36.7719 9.77384 36.3241 9.06756C36.1911 8.85744 36.0021 8.68851 35.7785 8.57972C35.5548 8.47092 35.3053 8.42655 35.0579 8.45158C34.8104 8.4766 34.5749 8.57004 34.3775 8.72142C34.1802 8.8728 34.0289 9.07614 33.9407 9.30865L33.6188 10.1606C33.7683 10.2325 33.8919 10.3489 33.9726 10.4938L34.0029 10.4136C34.1018 10.1633 34.2958 9.96241 34.5424 9.85473C34.7891 9.74705 35.0683 9.74137 35.3191 9.83893C35.5282 9.91743 35.7068 10.0605 35.8291 10.2474C36.1769 10.7816 36.9454 11.892 37.433 12.0762C37.9786 12.2823 37.8069 12.9909 37.4539 13.9635C37.4494 13.9753 37.4488 13.987 37.4444 13.9988C37.44 14.0105 37.4368 14.0127 37.4339 14.0202C37.3732 14.181 37.3122 14.3488 37.2458 14.5247C37.2458 14.5247 36.6513 16.0985 36.0058 15.8547C35.6605 15.7031 35.3714 15.447 35.1793 15.1224C35.4319 15.7323 35.8994 16.2285 36.4932 16.5169C37.3326 16.834 38.1253 14.7355 38.1253 14.7355C38.7594 13.0568 39.235 11.7977 38.3956 11.4806Z" fill="#1A1511"/>
<path d="M27.4835 7.35858C28.1172 7.59797 29.8301 7.15154 30.633 6.9177C30.8717 6.84801 31.1251 6.84618 31.3649 6.91241C31.6046 6.97864 31.8211 7.11032 31.9902 7.29269C32.1593 7.47506 32.2743 7.70092 32.3223 7.94495C32.3702 8.18898 32.3493 8.44155 32.2618 8.67436L31.94 9.52634C31.7803 9.48145 31.6107 9.48706 31.4543 9.5424L31.4846 9.46224C31.5758 9.20905 31.5631 8.93005 31.4493 8.6862C31.3354 8.44236 31.1297 8.25349 30.877 8.16086C30.6683 8.08154 30.4397 8.07078 30.2244 8.13016C29.6102 8.30102 28.2996 8.62601 27.8119 8.4418C27.2663 8.23571 26.9266 8.88097 26.5485 9.84403C26.544 9.85578 26.5367 9.865 26.5323 9.87676C26.5278 9.88851 26.5267 9.89145 26.5239 9.899C26.4631 10.0597 26.4 10.2268 26.3336 10.4026C26.3336 10.4026 25.7391 11.9765 26.3846 12.2203C26.7439 12.3349 27.1301 12.3338 27.4888 12.2173C26.896 12.5079 26.2173 12.5711 25.5811 12.3949C24.7417 12.0779 25.5343 9.97938 25.5343 9.97938C26.1685 8.3006 26.6441 7.04152 27.4835 7.35858Z" fill="#1A1511"/>
<path d="M36.4931 16.5168C34.7892 15.8732 34.2361 12.1825 34.084 10.8206C34.0703 10.6797 34.0202 10.5447 33.9387 10.429C33.8571 10.3133 33.7469 10.2207 33.6187 10.1605C33.5993 10.1491 33.5787 10.1398 33.5574 10.1325L33.5532 10.1309C33.4518 10.0923 33.3438 10.0741 33.2353 10.0774C33.1269 10.0807 33.0202 10.1053 32.9213 10.15C32.8224 10.1947 32.7334 10.2584 32.6592 10.3376C32.5851 10.4168 32.5273 10.5099 32.4892 10.6115L32.1722 11.4509C32.2102 11.3493 32.268 11.2562 32.3421 11.177C32.4163 11.0978 32.5054 11.034 32.6042 10.9894C32.7031 10.9447 32.8098 10.9201 32.9183 10.9168C33.0267 10.9135 33.1347 10.9317 33.2361 10.9703L33.2403 10.9719C33.2616 10.9792 33.2822 10.9885 33.3017 10.9999C33.4298 11.0601 33.5401 11.1527 33.6216 11.2684C33.7032 11.3841 33.7532 11.5191 33.7669 11.66C33.9191 13.0219 34.4721 16.7126 36.1761 17.3562C38.2745 18.1489 38.5916 17.3095 38.5916 17.3095L38.9087 16.4701C38.9087 16.4701 38.5916 17.3095 36.4931 16.5168Z" fill="#6B5545"/>
<path d="M31.868 5.20218C32.0289 5.24528 32.1874 5.29713 32.3427 5.35748L36.0729 6.76652C36.2293 6.8239 36.3825 6.88975 36.5317 6.9638C37.4092 7.38282 38.1887 7.98197 38.8193 8.72224C39.4499 9.4625 39.9176 10.3273 40.1918 11.2603C40.0858 8.82762 38.8476 6.60178 36.7739 5.61657C36.6404 5.54846 36.5029 5.48851 36.3622 5.43705L33.0046 4.16878C32.865 4.11434 32.7222 4.0684 32.577 4.03123C30.3698 3.39941 27.9692 4.25077 26.2814 6.00584C27.104 5.48715 28.0266 5.14751 28.9891 5.00904C29.9517 4.87057 30.9326 4.93638 31.868 5.20218Z" fill="#FFEADB"/>
<path d="M37.7649 15.5027C37.4552 16.0648 36.9826 16.7016 36.4932 16.5167C38.5917 17.3094 38.9088 16.47 38.9088 16.47L39.3844 15.2109C39.3844 15.2109 39.1484 15.8229 37.7649 15.5027Z" fill="#FCC7A1"/>
<path d="M31.9417 9.52221L31.9401 9.52641C31.9622 9.53078 31.9838 9.53733 32.0046 9.54599L32.0088 9.54757C32.1104 9.58563 32.2035 9.6434 32.2827 9.71755C32.3619 9.79169 32.4256 9.88076 32.4703 9.97964C32.5149 10.0785 32.5396 10.1852 32.5429 10.2937C32.5462 10.4021 32.528 10.5101 32.4894 10.6115C32.5274 10.5099 32.5852 10.4168 32.6593 10.3377C32.7335 10.2585 32.8225 10.1947 32.9214 10.15C33.0203 10.1054 33.127 10.0807 33.2354 10.0774C33.3439 10.0742 33.4519 10.0924 33.5533 10.131L33.5575 10.1326C33.5788 10.1398 33.5994 10.1492 33.6189 10.1605L33.9407 9.30856C33.9928 9.17541 34.0664 9.05173 34.1586 8.94246C34.138 8.92765 34.1165 8.91396 34.0945 8.90145C34.075 8.89011 34.0544 8.88074 34.0331 8.87347L34.0289 8.87189C33.9275 8.83328 33.8195 8.81508 33.711 8.81836C33.6026 8.82163 33.4959 8.8463 33.397 8.89096C33.2981 8.93562 33.2091 8.99937 33.1349 9.07857C33.0608 9.15776 33.003 9.25083 32.965 9.35243C33.0036 9.25104 33.0218 9.14303 33.0185 9.03459C33.0152 8.92615 32.9905 8.81942 32.9459 8.72055C32.9012 8.62168 32.8375 8.53261 32.7583 8.45846C32.6791 8.38431 32.586 8.32655 32.4844 8.28849L32.4802 8.2869C32.4594 8.27825 32.4378 8.27169 32.4157 8.26732C32.3908 8.2621 32.3657 8.25822 32.3405 8.25569C32.3374 8.39863 32.3109 8.54009 32.2619 8.67442L31.9417 9.52221Z" fill="#FCC7A1"/>
<path d="M25.581 12.3952C25.0916 12.2104 25.158 11.4202 25.2973 10.7937C24.0476 10.1193 24.2751 9.50409 24.2751 9.50409L23.7995 10.7632C23.7995 10.7632 23.4825 11.6026 25.581 12.3952Z" fill="#FCC7A1"/>
<path d="M43.4043 10.4085L40.6323 7.10739C41.0259 8.06511 41.4283 9.38679 41.1889 10.3644L42.6225 11.913C42.8113 12.1181 43.0452 12.2766 43.3057 12.3759L43.7489 12.5433L43.9074 12.1236C44.1832 11.3933 43.9029 10.9421 43.4043 10.4085Z" fill="#6B5545"/>
<path d="M41.1282 10.5944C41.5023 9.6039 41.0574 8.14097 40.6324 7.10762C40.5233 6.85059 40.4214 6.62508 40.3295 6.43688C40.1574 6.07623 39.8525 5.7961 39.4786 5.65507C39.3921 5.62291 39.303 5.59839 39.2123 5.58181L40.5797 8.60942C40.6162 8.69028 40.6279 8.78015 40.6134 8.86766C40.5988 8.95518 40.5586 9.03641 40.4979 9.10109C40.4372 9.16578 40.3587 9.211 40.2722 9.23105C40.1858 9.25111 40.0954 9.24509 40.0124 9.21376L39.7895 9.12958C40.3708 10.8432 40.3363 12.7059 39.6918 14.3968L41.1282 10.5944Z" fill="#B89175"/>
<path d="M24.4342 3.24325L28.6963 2.59919C27.7657 3.05673 26.5922 3.78312 26.1254 4.67482L24.0259 4.88891C23.7487 4.91796 23.4685 4.88222 23.2074 4.7845L22.7642 4.61709L22.9228 4.1974C23.1986 3.46713 23.7073 3.31397 24.4342 3.24325Z" fill="#6B5545"/>
<path d="M26.0192 4.88735C26.3933 3.89687 27.6943 3.09344 28.6963 2.5991C28.9481 2.47841 29.1736 2.37655 29.3671 2.29615C29.7346 2.13936 30.1486 2.13076 30.5223 2.27214C30.6085 2.30516 30.6915 2.34569 30.7706 2.39324L27.743 3.76069C27.6621 3.79722 27.5939 3.8569 27.547 3.93218C27.5 4.00747 27.4765 4.09498 27.4793 4.18366C27.4821 4.27233 27.5111 4.35819 27.5627 4.43037C27.6142 4.50255 27.6861 4.55782 27.7691 4.58919L27.9919 4.67337C26.4228 5.57472 25.2172 6.99509 24.5828 8.68979L26.0192 4.88735Z" fill="#B89175"/>
<path d="M32.1623 17.8256C32.0501 16.8529 30.5616 15.7151 30.5616 15.7151C30.5616 15.7151 28.6926 15.5846 27.9653 16.2403C27.3249 16.8184 27.2151 17.9471 26.0739 17.7942L25.9929 17.8691L26.8987 18.8496L26.9329 18.886C27.1918 19.1534 27.5072 19.3594 27.8561 19.4889L30.0973 20.3355C30.4447 20.4689 30.8176 20.5229 31.1886 20.4935L32.6509 20.3409L32.662 20.3116C31.5488 19.6656 32.2636 18.7127 32.1623 17.8256ZM30.6045 19.9463C30.466 19.9605 30.326 19.9423 30.1958 19.8931L29.9742 19.8094C29.8629 19.7674 29.7728 19.6828 29.7239 19.5744C29.6749 19.466 29.671 19.3425 29.713 19.2312C29.7551 19.1199 29.7512 18.9964 29.7022 18.888C29.6532 18.7796 29.5632 18.695 29.4519 18.653C29.3406 18.6109 29.2171 18.6148 29.1087 18.6638C29.0002 18.7128 28.9157 18.8028 28.8736 18.9141C28.8316 19.0254 28.7471 19.1155 28.6386 19.1645C28.5302 19.2134 28.4067 19.2173 28.2954 19.1753L28.0738 19.0916C27.9436 19.0424 27.8266 18.9635 27.7321 18.8613L27.3579 18.4552C27.6252 18.0968 27.8224 17.6063 28.131 17.2606C28.341 17.0458 28.5993 16.8844 28.8843 16.7898C29.2849 16.6433 29.7247 16.6457 30.1237 16.7964C30.5226 16.9471 30.8542 17.2361 31.0579 17.6108C31.2093 17.8702 31.2964 18.1621 31.3118 18.4621C31.3167 18.933 31.1277 19.4423 31.0938 19.8952L30.6045 19.9463Z" fill="#1A1511"/>
<path d="M25.5811 12.3948C27.2851 13.0385 30.14 10.6351 31.1546 9.7139C31.258 9.6172 31.3848 9.54906 31.5225 9.51616C31.6602 9.48325 31.8041 9.48672 31.94 9.52622C31.9621 9.53059 31.9838 9.53715 32.0046 9.5458L32.0088 9.54739C32.1104 9.58545 32.2034 9.64321 32.2826 9.71736C32.3618 9.79151 32.4256 9.88058 32.4702 9.97945C32.5149 10.0783 32.5396 10.185 32.5428 10.2935C32.5461 10.4019 32.5279 10.5099 32.4893 10.6113L32.1722 11.4507C32.2109 11.3493 32.2291 11.2413 32.2258 11.1329C32.2225 11.0244 32.1978 10.9177 32.1532 10.8188C32.1085 10.72 32.0448 10.6309 31.9656 10.5568C31.8864 10.4826 31.7933 10.4248 31.6917 10.3868L31.6875 10.3852C31.6667 10.3765 31.6451 10.37 31.623 10.3656C31.487 10.3261 31.3431 10.3226 31.2054 10.3555C31.0677 10.3885 30.9409 10.4566 30.8375 10.5533C29.8229 11.4745 26.968 13.8778 25.264 13.2342C23.1656 12.4415 23.4826 11.6021 23.4826 11.6021L23.7997 10.7628C23.7997 10.7628 23.4826 11.6021 25.5811 12.3948Z" fill="#6B5545"/>
<path d="M30.4924 13.8665L29.9924 12.143C29.9924 12.143 29.6716 12.3575 29.1796 12.6546L29.931 14.3191C29.9827 14.4335 29.9993 14.5606 29.9787 14.6844C29.9581 14.8082 29.9013 14.9231 29.8154 15.0146C29.7295 15.1061 29.6184 15.17 29.4962 15.1983C29.3739 15.2267 29.246 15.2181 29.1286 15.1738C28.931 15.099 28.7206 15.064 28.5094 15.0706C28.2982 15.0773 28.0904 15.1254 27.8978 15.2124C27.7053 15.2994 27.5317 15.4234 27.3871 15.5775C27.2425 15.7316 27.1297 15.9126 27.0551 16.1103C26.9918 16.2765 26.8724 16.4154 26.7175 16.5029C26.5627 16.5903 26.3821 16.621 26.207 16.5894C25.3436 16.4309 24.5661 15.9671 24.0163 15.2827C23.4665 14.5984 23.1812 13.7391 23.2125 12.8618C23.1967 12.5774 23.2346 12.2925 23.324 12.022L23.2353 12.257C23.0115 12.8613 22.9268 13.5083 22.9875 14.1498C23.0483 14.7913 23.2529 15.4109 23.5861 15.9624C24.0214 16.7249 24.7014 17.3181 25.516 17.6458C25.6959 17.7155 25.883 17.7652 26.0738 17.7941C27.215 17.947 27.3248 16.8183 27.9652 16.2402C28.6925 15.5845 30.5615 15.715 30.5615 15.715L31.0371 14.4559C30.907 14.4063 30.7902 14.3273 30.6957 14.225C30.6012 14.1228 30.5316 14.0001 30.4924 13.8665Z" fill="#3D3128"/>
<path d="M33.2504 19.2499C33.0982 19.1579 32.983 19.0155 32.9246 18.8475C32.8663 18.6795 32.8685 18.4964 32.9309 18.3298C33.0056 18.1322 33.0407 17.9217 33.034 17.7105C33.0274 17.4994 32.9792 17.2915 32.8922 17.099C32.8053 16.9064 32.6812 16.7329 32.5272 16.5883C32.3731 16.4437 32.1921 16.3309 31.9944 16.2563C31.877 16.2119 31.7754 16.1338 31.7024 16.0317C31.6294 15.9296 31.5883 15.8082 31.5844 15.6828C31.5804 15.5574 31.6137 15.4336 31.6801 15.3271C31.7465 15.2206 31.843 15.1362 31.9574 15.0846L33.6217 14.3325C33.4481 13.7864 33.35 13.4113 33.35 13.4113L31.8355 14.3738C31.7177 14.4481 31.5844 14.4942 31.4459 14.5084C31.3074 14.5227 31.1675 14.5047 31.0371 14.4559L30.5615 15.715C30.5615 15.715 32.0501 16.8528 32.1622 17.8255C32.2635 18.7127 31.5487 19.6656 32.6619 20.3115C32.7936 20.3835 32.9301 20.4463 33.0705 20.4994C33.8983 20.7921 34.8007 20.7966 35.6314 20.5123C36.246 20.3188 36.8091 19.9893 37.2788 19.5481C37.7485 19.107 38.1127 18.5656 38.3443 17.9643L38.4331 17.7292C38.3214 17.9913 38.1614 18.2301 37.9615 18.433C37.405 19.1119 36.6229 19.568 35.758 19.718C34.893 19.8679 34.003 19.7018 33.2504 19.2499Z" fill="#3D3128"/>
<path d="M35.8682 14.3625C36.3318 14.5376 36.8496 14.3038 37.0247 13.8402C37.1998 13.3766 36.9659 12.8588 36.5024 12.6837C36.0388 12.5086 35.521 12.7425 35.3459 13.2061C35.1708 13.6696 35.4046 14.1874 35.8682 14.3625Z" fill="#B89175"/>
<path d="M27.4744 11.1918C27.938 11.3669 28.4558 11.133 28.6309 10.6694C28.806 10.2059 28.5721 9.6881 28.1086 9.51299C27.645 9.33788 27.1272 9.57173 26.9521 10.0353C26.777 10.4989 27.0108 11.0167 27.4744 11.1918Z" fill="#B89175"/>
<path d="M36.0267 13.9428C36.2585 14.0303 36.5174 13.9134 36.6049 13.6816C36.6925 13.4498 36.5756 13.1909 36.3438 13.1034C36.112 13.0158 35.8531 13.1328 35.7655 13.3646C35.678 13.5963 35.7949 13.8552 36.0267 13.9428Z" fill="#1A1511"/>
<path d="M27.6328 10.7721C27.8646 10.8597 28.1235 10.7428 28.211 10.511C28.2986 10.2792 28.1816 10.0203 27.9498 9.93273C27.7181 9.84518 27.4592 9.9621 27.3716 10.1939C27.2841 10.4257 27.401 10.6846 27.6328 10.7721Z" fill="#1A1511"/>
<path d="M43.3506 11.689C43.5288 11.6204 43.591 11.3507 43.4894 11.0866C43.3878 10.8225 43.1609 10.664 42.9826 10.7326C42.8043 10.8012 42.7422 11.0709 42.8438 11.335C42.9454 11.5991 43.1723 11.7576 43.3506 11.689Z" fill="#F6FAFD"/>
<path d="M24.464 4.55506C24.6423 4.48646 24.7044 4.21677 24.6028 3.95268C24.5012 3.68859 24.2743 3.53011 24.096 3.5987C23.9177 3.66729 23.8556 3.93699 23.9572 4.20108C24.0588 4.46517 24.2857 4.62365 24.464 4.55506Z" fill="#F6FAFD"/>
<path d="M36.596 13.4933C36.6892 13.4511 36.7173 13.3119 36.6587 13.1823C36.6001 13.0527 36.477 12.9818 36.3838 13.024C36.2906 13.0661 36.2625 13.2054 36.321 13.335C36.3796 13.4646 36.5027 13.5354 36.596 13.4933Z" fill="#F6FAFD"/>
<path d="M32.9213 13.0641C33.0145 13.0219 33.0426 12.8827 32.984 12.7531C32.9255 12.6235 32.8024 12.5526 32.7091 12.5948C32.6159 12.6369 32.5878 12.7762 32.6464 12.9058C32.705 13.0354 32.828 13.1062 32.9213 13.0641Z" fill="#F6FAFD"/>
<path d="M27.7524 10.0984C27.882 10.0399 27.953 9.91684 27.9109 9.82357C27.8688 9.73029 27.7296 9.7021 27.6 9.7606C27.4703 9.81909 27.3994 9.94213 27.4414 10.0354C27.4835 10.1287 27.6227 10.1569 27.7524 10.0984Z" fill="#F6FAFD"/>
<path d="M30.9251 16.022L31.5015 14.496C31.346 14.5257 31.1852 14.5118 31.0371 14.4558C30.889 14.3999 30.7592 14.304 30.6621 14.1789L30.0857 15.7049C30.3693 15.7018 30.5615 15.7149 30.5615 15.7149C30.5615 15.7149 30.7143 15.8321 30.9251 16.022Z" fill="#1A1511"/>
<path d="M32.3475 15.4304C32.4634 15.4742 32.5928 15.4157 32.6366 15.2998C32.6803 15.1839 32.6219 15.0545 32.506 15.0107C32.3901 14.9669 32.2607 15.0254 32.2169 15.1413C32.1731 15.2572 32.2316 15.3866 32.3475 15.4304Z" fill="#1A1511"/>
<path d="M33.131 17.1651C33.2469 17.2088 33.3764 17.1504 33.4201 17.0345C33.4639 16.9186 33.4055 16.7892 33.2896 16.7454C33.1737 16.7016 33.0442 16.7601 33.0004 16.876C32.9567 16.9919 33.0151 17.1213 33.131 17.1651Z" fill="#1A1511"/>
<path d="M33.504 14.9083C33.6198 14.9521 33.7493 14.8936 33.7931 14.7777C33.8368 14.6618 33.7784 14.5324 33.6625 14.4886C33.5466 14.4449 33.4171 14.5033 33.3734 14.6192C33.3296 14.7351 33.3881 14.8645 33.504 14.9083Z" fill="#1A1511"/>
<path d="M33.6066 15.9061C33.7225 15.9498 33.8519 15.8914 33.8957 15.7755C33.9395 15.6596 33.881 15.5301 33.7651 15.4864C33.6492 15.4426 33.5198 15.5011 33.476 15.617C33.4323 15.7328 33.4907 15.8623 33.6066 15.9061Z" fill="#1A1511"/>
<path d="M34.1288 17.0626C34.2447 17.1064 34.3742 17.0479 34.4179 16.932C34.4617 16.8161 34.4033 16.6867 34.2874 16.6429C34.1715 16.5991 34.042 16.6576 33.9982 16.7735C33.9545 16.8894 34.0129 17.0188 34.1288 17.0626Z" fill="#1A1511"/>
<path d="M27.992 14.265C28.1079 14.3088 28.2373 14.2503 28.2811 14.1344C28.3249 14.0185 28.2664 13.8891 28.1505 13.8453C28.0346 13.8015 27.9052 13.86 27.8614 13.9759C27.8176 14.0918 27.8761 14.2212 27.992 14.265Z" fill="#1A1511"/>
<path d="M27.2553 14.9455C27.3712 14.9893 27.5006 14.9308 27.5444 14.8149C27.5882 14.699 27.5297 14.5696 27.4138 14.5258C27.2979 14.482 27.1685 14.5405 27.1247 14.6564C27.0809 14.7723 27.1394 14.9017 27.2553 14.9455Z" fill="#1A1511"/>
<path d="M29.2511 14.7406C29.367 14.7844 29.4965 14.7259 29.5403 14.61C29.584 14.4942 29.5256 14.3647 29.4097 14.3209C29.2938 14.2772 29.1643 14.3356 29.1206 14.4515C29.0768 14.5674 29.1352 14.6969 29.2511 14.7406Z" fill="#1A1511"/>
<path d="M29.1485 13.7427C29.2644 13.7865 29.3938 13.728 29.4376 13.6121C29.4814 13.4962 29.4229 13.3668 29.307 13.323C29.1911 13.2792 29.0617 13.3377 29.0179 13.4536C28.9741 13.5695 29.0326 13.6989 29.1485 13.7427Z" fill="#1A1511"/>
<path d="M26.7328 13.7891C26.8487 13.8329 26.9782 13.7744 27.0219 13.6585C27.0657 13.5426 27.0073 13.4132 26.8914 13.3694C26.7755 13.3257 26.646 13.3841 26.6023 13.5C26.5585 13.6159 26.6169 13.7453 26.7328 13.7891Z" fill="#1A1511"/>
<path d="M28.6337 28.0465C29.1359 27.6505 29.4658 27.0235 29.4658 26.3096C29.4658 25.1102 28.5475 24.1384 27.4142 24.1384C26.422 24.1384 25.594 24.8844 25.4036 25.8754H17.1148C16.9244 24.8844 16.0972 24.1384 15.1042 24.1384C13.9709 24.1384 13.0526 25.1102 13.0526 26.3096C13.0526 27.0235 13.3825 27.6505 13.8848 28.0465C13.3825 28.4426 13.0526 29.0696 13.0526 29.7835C13.0526 30.9828 13.9709 31.9546 15.1042 31.9546C16.0964 31.9546 16.9244 31.2086 17.1148 30.2177H25.4044C25.5948 31.2086 26.422 31.9546 27.415 31.9546C28.5484 31.9546 29.4667 30.9828 29.4667 29.7835C29.4658 29.0696 29.1359 28.4426 28.6337 28.0465Z" fill="#F44336"/>
<path d="M16.5278 28.7961H15.6255V27.0842H15.1936V29.1548H16.5278V28.7961Z" fill="white"/>
<path d="M17.6875 27.0483C17.0755 27.0483 16.6922 27.4601 16.6922 28.1202C16.6922 28.7788 17.0755 29.1892 17.6875 29.1892C18.2982 29.1892 18.6828 28.7788 18.6828 28.1202C18.6828 27.4601 18.2982 27.0483 17.6875 27.0483ZM17.6875 27.4099C18.025 27.4099 18.241 27.6854 18.241 28.1202C18.241 28.5536 18.025 28.8276 17.6875 28.8276C17.3486 28.8276 17.1327 28.5536 17.1327 28.1202C17.1327 27.6854 17.35 27.4099 17.6875 27.4099Z" fill="white"/>
<path d="M20.0313 29.1548L20.7249 27.0842H20.2544L19.7825 28.7085H19.7725L19.3006 27.0842H18.8172L19.5108 29.1548H20.0313Z" fill="white"/>
<path d="M22.3622 28.7961H21.427V28.2737H22.3093V27.9408H21.427V27.4415H22.3622V27.0842H20.9951V29.1548H22.3622V28.7961Z" fill="white"/>
<path d="M25.5568 29.1548V27.0842H25.0563L24.47 28.5708H24.4586L23.8722 27.0842H23.3717V29.1548H23.7564V27.7571H23.7678L24.3284 29.1548H24.6001L25.1607 27.7571H25.1721V29.1548H25.5568Z" fill="white"/>
<path d="M27.3257 28.7961H26.3905V28.2737H27.2728V27.9408H26.3905V27.4415H27.3257V27.0842H25.9586V29.1548H27.3257V28.7961Z" fill="white"/>
<defs>
<clipPath id="clip0_1_2399">
<rect width="17.5003" height="19.3106" fill="white" transform="translate(0.507202 7.72549) rotate(-19.4869)"/>
</clipPath>
</defs>
</svg>
