<svg width="38" height="24" viewBox="0 0 38 24" fill="none" xmlns="http://www.w3.org/2000/svg">
<g clip-path="url(#clip0_1_5267)">
<path d="M13.0677 7.78781C13.0255 7.78781 13.0044 7.80815 12.9622 7.8285L12.9411 7.84885C12.9411 7.8285 12.9411 7.78781 12.9411 7.76746H12.92C12.92 7.76746 12.92 7.76746 12.8989 7.76746C12.8989 7.78781 12.8989 7.8285 12.8777 7.84885C12.8355 7.80816 12.7722 7.78781 12.73 7.80815C12.7089 7.80815 12.6877 7.84885 12.6877 7.9099C12.7511 7.93025 12.8144 7.9099 12.8566 7.88955C12.8566 7.9099 12.8355 7.9506 12.8777 8.01165C12.8777 8.032 12.8777 8.05235 12.8566 8.0727C12.8355 8.11339 12.8355 8.13374 12.8566 8.19479L12.8777 8.17444C12.8566 8.13374 12.8566 8.11339 12.8777 8.0727C12.8777 8.05235 12.8989 8.032 12.8989 7.9913C12.8777 7.9506 12.8777 7.93025 12.8777 7.9099C12.8777 7.93025 12.8989 7.93025 12.8989 7.9506C12.92 7.97095 12.92 7.97095 12.9411 7.9913C12.9622 8.032 12.9411 8.032 12.9411 8.05235C12.9411 8.05235 12.92 8.0727 12.92 8.11339C12.92 8.15409 12.9411 8.17444 12.9411 8.19479C12.9622 8.21514 12.9622 8.23549 12.92 8.31689L12.9411 8.33724C12.9833 8.25584 12.9833 8.23549 12.9622 8.19479C12.9622 8.17444 12.9411 8.15409 12.9411 8.13374C12.9411 8.11339 12.9411 8.11339 12.9411 8.11339C12.9622 8.09305 12.9622 8.0727 12.9411 8.032C12.9411 8.01165 12.92 7.9913 12.8989 7.9913C12.8777 7.97095 12.8777 7.97095 12.8566 7.9506H12.8777C12.9622 7.97095 13.0255 7.9913 13.0466 7.9506C13.0677 7.93025 13.0466 7.9099 13.0255 7.8692C13.11 7.80815 13.0889 7.78781 13.0677 7.78781ZM12.73 7.88955C12.73 7.8692 12.73 7.84885 12.7511 7.8285C12.7722 7.80815 12.8144 7.8285 12.8566 7.8692C12.8355 7.88955 12.7722 7.88955 12.73 7.88955ZM13.11 7.88955C13.11 7.88955 13.11 7.88955 13.0677 7.88955C13.0466 7.88955 13.0044 7.8692 12.9833 7.8692C12.9833 7.8692 12.9833 7.8692 12.9622 7.8692L12.9833 7.84885C13.0255 7.8285 13.0466 7.80815 13.0677 7.80815C13.0677 7.80815 13.0889 7.80815 13.0889 7.8285C13.11 7.8692 13.11 7.88955 13.11 7.88955Z" fill="#231F20"/>
<path d="M13.0665 7.78781C13.0243 7.78781 12.9821 7.80815 12.9399 7.8285L12.9188 7.84885C12.9188 7.8285 12.9188 7.80815 12.9188 7.76746C12.9188 7.78781 12.9188 7.8285 12.9188 7.84885L12.9399 7.8285C12.9821 7.80815 13.0243 7.78781 13.0665 7.78781C13.0876 7.78781 13.0876 7.80815 13.1088 7.8285C13.1299 7.8692 13.1299 7.88955 13.1299 7.9099C13.1299 7.93025 13.1088 7.93025 13.0876 7.93025C13.0454 7.93025 13.0032 7.9099 12.961 7.9099H12.9399C12.9399 7.93025 12.961 7.93025 12.9821 7.9506C13.0032 7.97095 13.0032 7.9913 13.0243 7.9913C13.0454 8.05235 13.0243 8.05235 13.0243 8.0727C13.0243 8.0727 13.0032 8.09304 13.0243 8.09304C13.0243 8.13374 13.0454 8.13374 13.0454 8.15409C13.0665 8.19479 13.0665 8.21514 13.0243 8.29654L13.0032 8.27619C13.0454 8.19479 13.0454 8.19479 13.0243 8.15409C13.0243 8.13374 13.0032 8.11339 13.0032 8.0727C13.0032 8.032 13.0032 8.032 13.0243 8.01165C13.0243 8.01165 13.0454 7.9913 13.0243 7.9506C13.0243 7.93025 13.0032 7.93025 12.9821 7.9099C12.9821 7.9099 12.961 7.88955 12.961 7.8692C12.961 7.88955 12.961 7.9099 12.9821 7.9506C12.9821 7.9913 12.9821 8.01165 12.961 8.032C12.9399 8.05235 12.9399 8.09304 12.961 8.13374L12.8765 8.21514C12.8554 8.15409 12.8554 8.13374 12.8765 8.09304C12.8765 8.0727 12.8976 8.05235 12.8976 8.032C12.8554 7.97095 12.8765 7.93025 12.8765 7.9099C12.8343 7.93025 12.8132 7.93025 12.771 7.93025C12.7499 7.93025 12.7288 7.93025 12.7076 7.9099C12.7076 7.84885 12.7288 7.8285 12.7499 7.80815H12.771C12.8132 7.80815 12.8554 7.8285 12.8976 7.8692C12.8976 7.84885 12.8976 7.80815 12.9188 7.78781C12.9188 7.80815 12.9188 7.84885 12.9188 7.8692C12.8765 7.8285 12.8343 7.80815 12.7921 7.80815C12.771 7.80815 12.771 7.80815 12.771 7.80815C12.7499 7.80815 12.7288 7.84885 12.7288 7.9099V7.93025H12.7499C12.771 7.93025 12.7921 7.9506 12.8132 7.9506C12.8343 7.9506 12.8765 7.9506 12.9188 7.93025C12.9188 7.9506 12.8976 7.9913 12.9399 8.05235C12.9399 8.0727 12.9399 8.09304 12.9188 8.11339C12.8976 8.15409 12.8976 8.17444 12.9188 8.23549L12.961 8.21514C12.9399 8.17444 12.9399 8.15409 12.961 8.11339C12.961 8.09304 12.9821 8.0727 12.9821 8.032C12.961 7.9913 12.961 7.97095 12.961 7.9506C12.961 7.97095 12.9821 7.97095 12.9821 7.97095C13.0032 7.9913 13.0032 7.9913 13.0243 8.01165C13.0454 8.05235 13.0243 8.05235 13.0243 8.0727C13.0243 8.0727 13.0032 8.09304 13.0032 8.13374C13.0032 8.17444 13.0243 8.19479 13.0243 8.21514C13.0454 8.23549 13.0454 8.25584 13.0032 8.33724L13.0454 8.35759C13.0876 8.27619 13.0876 8.25584 13.0665 8.21514C13.0665 8.19479 13.0454 8.17444 13.0454 8.15409C13.0454 8.13374 13.0454 8.13374 13.0454 8.13374C13.0665 8.11339 13.0665 8.09305 13.0454 8.05235C13.0454 8.032 13.0243 8.01165 13.0032 7.9913C12.9821 7.97095 12.9821 7.97095 12.961 7.9506H12.9821C13.0243 7.97095 13.0665 7.97095 13.1088 7.97095C13.1299 7.97095 13.151 7.97095 13.1721 7.9506C13.1932 7.93025 13.1721 7.9099 13.151 7.8692C13.1088 7.80815 13.0876 7.78781 13.0665 7.78781Z" fill="#231F20"/>
<path d="M12.962 7.86877C12.983 7.86877 13.025 7.88899 13.0459 7.88899H13.0669C13.0879 7.88899 13.0879 7.88899 13.0879 7.88899C13.0879 7.88899 13.0879 7.86877 13.0669 7.82833C13.0669 7.80811 13.0459 7.80811 13.0459 7.80811C13.025 7.80811 13.004 7.82833 12.962 7.84855V7.86877C12.962 7.86877 12.941 7.86877 12.962 7.86877ZM12.962 7.84855C13.004 7.82833 13.025 7.80811 13.0459 7.80811C13.0459 7.80811 13.0669 7.80811 13.0669 7.82833C13.0879 7.86877 13.0879 7.86877 13.0879 7.86877C13.0879 7.86877 13.0879 7.86877 13.0669 7.86877H13.0459C13.025 7.88899 12.983 7.86877 12.962 7.84855C12.941 7.86877 12.941 7.86877 12.941 7.86877C12.962 7.86877 12.962 7.84855 12.962 7.84855Z" fill="#231F20"/>
<path d="M12.7503 7.82703C12.729 7.82703 12.729 7.86811 12.729 7.88865C12.7503 7.88865 12.7716 7.88865 12.7716 7.88865C12.7929 7.88865 12.8356 7.88865 12.8569 7.86811C12.8356 7.84757 12.7929 7.82703 12.7503 7.82703C12.7716 7.82703 12.7503 7.82703 12.7503 7.82703ZM12.7716 7.88865C12.7503 7.88865 12.7503 7.88865 12.729 7.88865C12.729 7.86811 12.729 7.84757 12.7503 7.82703C12.7503 7.82703 12.7503 7.82703 12.7716 7.82703C12.7929 7.82703 12.8356 7.84757 12.8569 7.86811C12.8356 7.88865 12.8142 7.88865 12.7716 7.88865Z" fill="#231F20"/>
<path d="M26.0722 4.9593C26.1144 5.06105 26.0511 5.16279 25.9244 5.22384L25.5444 5.36629C25.4178 5.40699 25.2911 5.36629 25.2489 5.28489C25.2066 5.18314 25.27 5.0814 25.3966 5.02035L25.7766 4.8779C25.8822 4.83721 26.03 4.8779 26.0722 4.9593Z" fill="#E57361"/>
<path d="M7.40992 9.72095C3.41993 9.72095 0.168823 12.8547 0.168823 16.7007C0.168823 20.5468 3.41993 23.6805 7.40992 23.6805C11.3999 23.6805 14.651 20.5671 14.651 16.7007C14.651 12.8547 11.3999 9.72095 7.40992 9.72095ZM7.40992 22.9683C3.82104 22.9683 0.90771 20.1601 0.90771 16.7007C0.90771 13.2414 3.82104 10.4332 7.40992 10.4332C10.9988 10.4332 13.9121 13.2414 13.9121 16.7007C13.9121 20.1601 10.9988 22.9683 7.40992 22.9683Z" fill="#58595B"/>
<path d="M11.97 6.54641C11.97 6.54641 11.9911 7.07549 12.7511 6.93305C12.7511 6.93305 13.1522 7.03479 13.1944 6.36326C13.1944 6.36326 12.8566 6.28187 12.4766 6.30222C12.0966 6.32257 11.97 6.54641 11.97 6.54641Z" fill="#58595B"/>
<path d="M12.3921 6.8109L12.7299 7.17719L12.8354 7.46208L13.3632 7.25859L13.0676 6.46497L12.3921 6.8109Z" fill="#58595B"/>
<path d="M12.7933 7.3402V7.64544L12.9622 8.13382L13.1733 8.27627L13.68 8.15417L13.4689 7.40125L13.3422 7.19775L12.7933 7.3402Z" fill="#000728"/>
<path d="M7.40992 10.4332C3.82104 10.4332 0.907715 13.2414 0.907715 16.7008C0.907715 20.1602 3.82104 22.9684 7.40992 22.9684C10.9988 22.9684 13.9121 20.1602 13.9121 16.7008C13.9121 13.2414 10.9988 10.4332 7.40992 10.4332ZM7.40992 22.6224C4.03215 22.6224 1.28771 19.977 1.28771 16.7212C1.28771 13.4653 4.03215 10.8199 7.40992 10.8199C10.7877 10.8199 13.5321 13.4653 13.5321 16.7212C13.5321 19.977 10.7877 22.6224 7.40992 22.6224Z" fill="#C7CFDE"/>
<path d="M15.01 16.7007C15.01 12.6512 11.6111 9.375 7.40998 9.375C3.79999 9.375 0.759998 11.8373 0 15.0931L0.696665 14.6862C1.58333 11.9187 4.26443 9.92443 7.43109 9.92443C11.3155 9.92443 14.4822 12.9565 14.4822 16.7211H15.01V16.7007Z" fill="#000728"/>
<path d="M27.2555 11.7556L27.1616 11.8375L30.4197 15.308L30.5136 15.2261L27.2555 11.7556Z" fill="#606468"/>
<path d="M29.2389 10.9216L29.83 15.5613L29.7033 15.5816L29.1122 10.942" fill="#606468"/>
<path d="M28.22 11.2463L28.1116 11.3094L30.6001 15.281L30.7085 15.2178L28.22 11.2463Z" fill="#606468"/>
<path d="M30.3155 10.7588L29.9355 15.5002H29.8088L30.1888 10.7588" fill="#606468"/>
<path d="M31.4555 10.7588L31.6244 15.4391H31.4766L31.3289 10.7588" fill="#606468"/>
<path d="M33.4109 11.2942L30.7487 15.2084L30.8546 15.2753L33.5169 11.3611L33.4109 11.2942Z" fill="#606468"/>
<path d="M32.5321 10.9622L31.7721 15.5408L31.6454 15.5205L32.4054 10.9419" fill="#606468"/>
<path d="M34.3667 11.8131L30.885 15.191L30.9749 15.2771L34.4566 11.8991L34.3667 11.8131Z" fill="#606468"/>
<path d="M35.207 12.5398L32.1913 16.2078L32.2906 16.2836L35.3063 12.6156L35.207 12.5398Z" fill="#606468"/>
<path d="M36.4702 14.2494L31.8123 15.5712L31.848 15.6883L36.5059 14.3666L36.4702 14.2494Z" fill="#606468"/>
<path d="M35.9257 13.3502L32.27 16.3688L32.3524 16.4615L36.0082 13.443L35.9257 13.3502Z" fill="#606468"/>
<path d="M36.8239 15.2349L31.9022 15.6448L31.9131 15.7664L36.8348 15.3566L36.8239 15.2349Z" fill="#606468"/>
<path d="M36.9927 16.3302L32.2299 17.2415L32.2545 17.3612L37.0173 16.45L36.9927 16.3302Z" fill="#606468"/>
<path d="M32.3713 16.5024L32.3201 16.614L36.7605 18.5077L36.8117 18.396L32.3713 16.5024Z" fill="#606468"/>
<path d="M36.9867 17.3853L32.1733 17.4039L32.1739 17.526L36.9872 17.5074L36.9867 17.3853Z" fill="#606468"/>
<path d="M32.3805 16.645L32.3071 16.7445L36.3342 19.502L36.4076 19.4025L32.3805 16.645Z" fill="#606468"/>
<path d="M31.5753 18.0602L31.5138 18.167L35.759 20.4393L35.8205 20.3325L31.5753 18.0602Z" fill="#606468"/>
<path d="M32.1617 17.5584L32.0477 17.6116L34.1638 21.8239L34.2778 21.7707L32.1617 17.5584Z" fill="#606468"/>
<path d="M31.4135 18.1383L31.332 18.2318L35.0166 21.2174L35.0981 21.124L31.4135 18.1383Z" fill="#606468"/>
<path d="M33.1866 22.3171L31.9622 17.6978L32.0888 17.6775L33.3133 22.2764" fill="#606468"/>
<path d="M32.1099 22.6631L30.3999 18.288L30.5266 18.2473L32.2366 22.6224" fill="#606468"/>
<path d="M29.9567 22.7446L31.16 18.2067L31.3078 18.2474L30.0833 22.7853" fill="#606468"/>
<path d="M31.0334 22.8056L30.2101 18.2474L30.3579 18.2067L31.1601 22.7853" fill="#606468"/>
<path d="M28.88 22.5206L31.0544 18.2269L31.1811 18.288L29.0067 22.5613" fill="#606468"/>
<path d="M27.8245 22.1138L29.4711 17.698L29.5978 17.759L27.9511 22.1545" fill="#606468"/>
<path d="M30.1096 18.128L26.1436 20.8281L26.2166 20.9279L30.1826 18.2278L30.1096 18.128Z" fill="#606468"/>
<path d="M29.3628 17.5372L26.9128 21.5305L27.0219 21.5927L29.4718 17.5993L29.3628 17.5372Z" fill="#606468"/>
<path d="M29.9988 18.0711L25.4747 19.9839L25.5256 20.0957L30.0496 18.1829L29.9988 18.0711Z" fill="#606468"/>
<path d="M29.1522 16.6699L24.9517 19.0171L25.0152 19.1227L29.2157 16.7755L29.1522 16.6699Z" fill="#606468"/>
<path d="M24.51 16.9857L29.3444 17.3927V17.5148L24.51 17.1078" fill="#606468"/>
<path d="M24.6367 18.0032L29.1756 16.4973L29.2178 16.6194L24.6789 18.1253" fill="#606468"/>
<path d="M24.5734 15.9275L29.3022 17.2909L29.2811 17.413L24.5311 16.0496" fill="#606468"/>
<path d="M24.8173 14.8607L24.7948 14.9808L29.5731 15.8116L29.5956 15.6914L24.8173 14.8607Z" fill="#606468"/>
<path d="M25.8513 13.0446L25.7612 13.1304L29.1737 16.46L29.2638 16.3742L25.8513 13.0446Z" fill="#606468"/>
<path d="M25.2505 13.8933L25.2046 14.0071L29.6911 15.6876L29.737 15.5738L25.2505 13.8933Z" fill="#606468"/>
<path d="M26.6123 12.2687L26.5062 12.3354L29.2064 16.3229L29.3125 16.2562L26.6123 12.2687Z" fill="#606468"/>
<path d="M3.91131 11.692L3.81738 11.7739L7.07545 15.2444L7.16938 15.1625L3.91131 11.692Z" fill="#606468"/>
<path d="M5.89009 10.8605L6.4812 15.5001L6.35454 15.5205L5.76343 10.8605" fill="#606468"/>
<path d="M4.87491 11.1833L4.76648 11.2465L7.25496 15.218L7.36339 15.1549L4.87491 11.1833Z" fill="#606468"/>
<path d="M6.96675 10.6977L6.58675 15.4391L6.46008 15.4187L6.84008 10.6774" fill="#606468"/>
<path d="M8.10677 10.6978L8.27566 15.3577L8.12788 15.3781L7.9801 10.6978" fill="#606468"/>
<path d="M10.0515 11.219L7.38867 15.1327L7.49459 15.1996L10.1574 11.286L10.0515 11.219Z" fill="#606468"/>
<path d="M9.18341 10.9012L8.42341 15.4798L8.27563 15.4594L9.05674 10.8809" fill="#606468"/>
<path d="M11.0071 11.7598L7.52734 15.1396L7.61725 15.2257L11.097 11.8458L11.0071 11.7598Z" fill="#606468"/>
<path d="M11.8654 12.473L8.84863 16.1405L8.94789 16.2164L11.9646 12.5489L11.8654 12.473Z" fill="#606468"/>
<path d="M13.1178 14.1669L8.45984 15.4882L8.4956 15.6053L13.1535 14.284L13.1178 14.1669Z" fill="#606468"/>
<path d="M12.5658 13.2726L8.91052 16.2911L8.99293 16.3839L12.6482 13.3653L12.5658 13.2726Z" fill="#606468"/>
<path d="M13.4755 15.1739L8.55383 15.583L8.56472 15.7047L13.4864 15.2955L13.4755 15.1739Z" fill="#606468"/>
<path d="M13.6407 16.2481L8.87793 17.1589L8.90258 17.2787L13.6654 16.3679L13.6407 16.2481Z" fill="#606468"/>
<path d="M9.0106 16.4276L8.95935 16.5393L13.3997 18.433L13.451 18.3213L9.0106 16.4276Z" fill="#606468"/>
<path d="M13.6378 17.3039L8.82446 17.3225L8.82501 17.4446L13.6383 17.426L13.6378 17.3039Z" fill="#606468"/>
<path d="M9.02147 16.567L8.94812 16.6665L12.9752 19.424L13.0485 19.3245L9.02147 16.567Z" fill="#606468"/>
<path d="M8.21384 17.9853L8.15234 18.092L12.3975 20.3643L12.459 20.2576L8.21384 17.9853Z" fill="#606468"/>
<path d="M8.81725 17.4953L8.70325 17.5485L10.8193 21.7608L10.9333 21.7076L8.81725 17.4953Z" fill="#606468"/>
<path d="M8.07016 18.0744L7.98865 18.1678L11.6732 21.1535L11.7548 21.06L8.07016 18.0744Z" fill="#606468"/>
<path d="M9.83784 22.2561L8.6134 17.6368L8.74007 17.5961L9.96451 22.2154" fill="#606468"/>
<path d="M8.76114 22.6021L7.05115 18.227L7.17781 18.1863L8.88781 22.5614" fill="#606468"/>
<path d="M6.60791 22.6834L7.81124 18.1455L7.95902 18.1659L6.73458 22.7037" fill="#606468"/>
<path d="M7.68466 22.7444L6.86133 18.1659L7.00911 18.1455L7.81133 22.7037" fill="#606468"/>
<path d="M5.53125 22.4392L7.70569 18.1659L7.83235 18.2269L5.65792 22.5003" fill="#606468"/>
<path d="M4.47571 22.0323L6.12237 17.6368L6.24903 17.6775L4.60237 22.0933" fill="#606468"/>
<path d="M6.75299 18.0483L2.78699 20.7484L2.86006 20.8481L6.82607 18.1481L6.75299 18.0483Z" fill="#606468"/>
<path d="M6.02213 17.4709L3.57263 21.4647L3.68167 21.5269L6.13117 17.533L6.02213 17.4709Z" fill="#606468"/>
<path d="M6.6444 17.9909L2.12036 19.9037L2.17124 20.0155L6.69528 18.1027L6.6444 17.9909Z" fill="#606468"/>
<path d="M5.79782 16.5893L1.59729 18.9365L1.66081 19.0421L5.86135 16.695L5.79782 16.5893Z" fill="#606468"/>
<path d="M1.16125 16.9043L5.99569 17.3316V17.4537L1.16125 17.0467" fill="#606468"/>
<path d="M1.26685 17.9421L5.82683 16.4159L5.86906 16.538L1.33018 18.0642" fill="#606468"/>
<path d="M1.2246 15.8461L5.95347 17.2095L5.93236 17.3316L1.18237 15.9885" fill="#606468"/>
<path d="M1.47585 14.7916L1.45337 14.9117L6.23171 15.7425L6.25419 15.6223L1.47585 14.7916Z" fill="#606468"/>
<path d="M2.49245 12.9655L2.40234 13.0513L5.81482 16.3809L5.90493 16.2951L2.49245 12.9655Z" fill="#606468"/>
<path d="M1.90831 13.8261L1.86243 13.9399L6.34892 15.6204L6.3948 15.5066L1.90831 13.8261Z" fill="#606468"/>
<path d="M3.25671 12.1895L3.15063 12.2562L5.85083 16.2437L5.9569 16.177L3.25671 12.1895Z" fill="#606468"/>
<path d="M30.7588 10.5145C27.1699 10.5145 24.2566 13.3227 24.2566 16.7821C24.2566 20.2415 27.1699 23.0497 30.7588 23.0497C34.3477 23.0497 37.261 20.2415 37.261 16.7821C37.261 13.3227 34.3477 10.5145 30.7588 10.5145ZM30.7588 22.6834C27.381 22.6834 24.6366 20.038 24.6366 16.7821C24.6366 13.5262 27.381 10.8808 30.7588 10.8808C34.1366 10.8808 36.881 13.5262 36.881 16.7821C36.881 20.038 34.1366 22.6834 30.7588 22.6834Z" fill="#C7CFDE"/>
<path d="M30.7588 9.80237C26.7688 9.80237 23.5177 12.9158 23.5177 16.7822C23.5177 20.6282 26.7477 23.762 30.7588 23.762C34.7488 23.762 37.9999 20.6485 37.9999 16.7822C37.9999 12.9158 34.7699 9.80237 30.7588 9.80237ZM30.7588 23.0497C27.1699 23.0497 24.2566 20.2415 24.2566 16.7822C24.2566 13.3228 27.1699 10.5146 30.7588 10.5146C34.3477 10.5146 37.261 13.3228 37.261 16.7822C37.261 20.2415 34.3477 23.0497 30.7588 23.0497Z" fill="#58595B"/>
<path d="M27.2543 10.0669C24.0032 11.6134 22.3987 15.0932 23.2221 18.349L23.6443 17.6775C23.1798 14.8083 24.6576 11.878 27.5076 10.5349C29.0487 9.80235 30.7587 9.6599 32.2998 10.0465V9.49711C30.6532 9.15117 28.8798 9.29362 27.2543 10.0669Z" fill="#000728"/>
<path d="M32.4688 16.7822C32.4688 17.6775 31.7088 18.3897 30.8011 18.3897C29.8722 18.3897 29.1333 17.6572 29.1333 16.7822C29.1333 15.8868 29.8933 15.1746 30.8011 15.1746C31.73 15.1746 32.4688 15.8868 32.4688 16.7822Z" fill="#000728"/>
<path d="M17.4377 18.003C17.4377 18.4914 17.0155 18.8984 16.5088 18.8984C16.0022 18.8984 15.58 18.4914 15.58 18.003C15.58 17.5147 16.0022 17.1077 16.5088 17.1077C17.0155 17.1077 17.4377 17.5147 17.4377 18.003Z" fill="#B5B7BF"/>
<path d="M19.5066 19.9974L16.9311 17.6369C16.6989 17.413 16.3189 17.413 16.0866 17.6369C15.8544 17.8607 15.8544 18.227 16.0866 18.4508C16.1289 18.4915 16.1922 18.5322 16.2344 18.5526L19 20.4858C19.1477 20.6282 19.3589 20.6282 19.5066 20.4858C19.6333 20.3433 19.6333 20.1195 19.5066 19.9974Z" fill="#CECDD3"/>
<path d="M18.4932 20.73C18.451 20.7503 18.4088 20.73 18.3876 20.6893L18.2821 20.4247C18.261 20.384 18.2821 20.3433 18.3243 20.323L19.971 19.7328C20.0132 19.7125 20.0554 19.7328 20.0765 19.7735L20.1821 20.0381C20.2032 20.0788 20.1821 20.1195 20.1399 20.1398L18.4932 20.73Z" fill="#000728"/>
<path d="M19.2533 0.421314L21.9344 0.380615L21.9555 0.930045L19.2744 0.991093L19.2533 0.421314Z" fill="#000728"/>
<path d="M21.47 0.31958H21.66L21.6811 0.991106H21.4911L21.47 0.31958Z" fill="#000728"/>
<path d="M23.8343 1.68299C23.771 1.41845 23.5599 1.13356 23.3488 0.909722C23.0321 0.584133 22.7154 0.339942 22.7154 0.339942L21.6599 0.258545L21.6388 0.543435L21.5966 1.09287L22.441 1.19461C22.441 1.19461 23.7499 1.82544 23.3066 3.35163C23.3066 3.35163 23.8977 4.30805 24.0032 4.3691C24.1088 4.43015 24.9743 4.2877 24.9743 4.2877L24.5521 2.98535C24.5521 2.98535 24.0666 2.49696 23.8343 1.68299Z" fill="#CECDD3"/>
<path d="M32.5956 8.49998C32.5956 8.68313 32.4267 8.84592 32.2156 8.84592H27.3811C27.17 8.84592 27.0434 8.72383 26.98 8.52033L25.6923 4.93886C25.6923 4.75572 27.17 4.47083 27.3811 4.47083H32.2156C32.4267 4.47083 32.5956 4.61327 32.5956 4.81676V8.49998Z" fill="#606468"/>
<path opacity="0.79" d="M32.2577 8.31679C32.2577 8.47958 32.1099 8.62203 31.9199 8.62203H27.6133C27.4233 8.62203 27.3177 8.49993 27.2544 8.33714L26.1144 5.1423C26.1144 4.97951 27.4233 4.71497 27.6133 4.71497H31.9199C32.1099 4.71497 32.2577 4.85741 32.2577 5.0202V8.31679Z" fill="white"/>
<path d="M33.1233 9.21221V8.88662H26.9166L24.8055 3.65686L23.7711 4.06385C23.8555 4.22664 24.0877 4.65397 24.3622 5.26445C24.0244 5.95633 23.3488 7.40113 22.4833 9.29361C21.6177 11.1454 21.3011 12.5698 20.9844 13.8111C19.4855 15.8054 16.9311 15.4187 16.0655 15.2356L13.49 7.74706L12.9833 7.86916L13.5744 9.59885L11.5055 11.2675L7.74776 14.8286C7.74776 14.8286 7.28332 15.0728 7.19887 15.1745C7.11443 15.2559 5.74221 16.4972 6.94554 16.9246C7.32554 17.067 7.17776 16.9653 7.95887 17.0263L8.0222 17.1688C8.0222 17.1688 7.8322 17.1688 7.70554 17.2705C7.49443 17.413 7.32554 17.6979 7.55776 17.7589C8.71887 18.1252 13.5744 19.3665 15.7066 19.7531C15.7066 19.7531 17.9022 20.3229 18.5144 18.7357C21.8711 17.4944 21.5966 15.9478 22.5677 12.6512C22.9055 11.532 23.3066 10.5146 23.7077 9.65989C24.0666 9.19186 24.7633 8.41859 25.7133 8.11335C26.8533 10.5349 28.1199 13.3024 28.5844 14.1571C29.4288 15.6833 30.8644 16.9856 30.8644 16.9856L30.991 16.8025L32.1733 9.21221H33.1233ZM8.4022 16.5176C8.4022 16.5176 7.02998 16.3955 7.95887 15.5408C8.88776 14.6862 11.7589 11.5524 11.7589 11.5524L13.6377 9.82269L15.7066 15.9478C13.2577 15.8054 8.38109 15.5205 8.38109 15.5205C8.38109 15.5205 8.16998 16.0089 8.50776 16.131C8.50776 16.4362 8.4022 16.5176 8.4022 16.5176ZM16.5089 19.4682C15.6644 19.4682 14.9889 18.8171 14.9889 18.0031C14.9889 17.1891 15.6644 16.5379 16.5089 16.5379C17.3533 16.5379 18.0289 17.1891 18.0289 18.0031C18.0289 18.8171 17.3533 19.4682 16.5089 19.4682ZM20.4988 15.5001C20.0766 16.7211 19.0633 17.2298 18.5566 17.4333C18.3877 16.8228 17.9022 16.2938 17.2477 16.0903C19.0211 16.131 20.2244 15.378 20.6255 15.0525C20.6044 15.1949 20.5622 15.3577 20.4988 15.5001ZM24.2566 8.47964C24.6366 7.76741 24.9533 7.23833 25.1433 6.93309C25.2488 7.17728 25.3755 7.42147 25.4811 7.68602C25.3122 7.76741 24.8688 8.0116 24.2566 8.47964ZM30.7588 16.4769C30.3788 15.9275 29.5977 14.8083 29.1966 14.2588C28.6688 13.5466 27.3177 9.86339 27.3177 9.86339L27.0433 9.19186H31.8988L30.7588 16.4769Z" fill="#E57361"/>
<path d="M8.97219 16.7211C8.97219 17.5758 8.25441 18.2677 7.36775 18.2677C6.48108 18.2677 5.76331 17.5758 5.76331 16.7211C5.76331 15.8664 6.48108 15.1746 7.36775 15.1746C8.25441 15.1746 8.97219 15.8664 8.97219 16.7211Z" fill="#000728"/>
<path d="M15.3687 5.79353C15.2209 5.81388 14.292 5.99703 14.0387 6.01738C13.7643 6.03773 13.4687 6.58716 13.2576 6.58716C13.0465 6.58716 13.0676 6.44471 13.0676 6.44471H12.2443V6.58716C12.2443 6.58716 12.1809 6.95344 11.7798 6.95344C11.3787 6.95344 11.3998 6.70925 11.3998 6.70925C11.1043 6.70925 11.1676 6.34297 11.1676 6.22087C11.1676 6.09877 11.1465 6.11912 10.682 6.01738C10.2176 5.93598 10.3443 5.4069 10.3443 5.4069L10.7243 5.22375L14.4187 5.52899L15.3687 5.79353Z" fill="#000728"/>
<path d="M10.3234 5.42725C10.3234 5.42725 10.5134 4.65398 11.2523 4.63363C12.0122 4.61328 12.6456 4.97957 13.0256 5.02027C13.4056 5.08131 14.3134 4.87782 14.9467 5.06096C15.58 5.24411 15.9389 5.69179 15.6434 5.81389C15.3478 5.93598 14.1867 5.73249 13.2789 6.15982C12.3922 6.58716 12.6245 6.09878 10.3234 5.42725Z" fill="#E57361"/>
<path d="M23.349 2.33418C23.4546 2.35453 23.5812 2.35453 23.6868 2.31383C23.7923 2.29348 23.8979 2.25278 23.9823 2.17139H23.9612C23.8768 2.23243 23.7712 2.27313 23.6657 2.31383C23.5812 2.33418 23.4757 2.35453 23.349 2.33418C23.3701 2.33418 23.349 2.33418 23.349 2.33418Z" fill="#231F20"/>
<path d="M24.1509 2.11035C24.1298 2.11035 24.0876 2.1307 24.0453 2.15105C24.0453 2.15105 24.0242 2.15105 24.0242 2.1714C24.0242 2.15105 24.0242 2.15105 24.0242 2.1307H24.0031C24.0031 2.15105 24.0031 2.15105 24.0031 2.1714C23.9609 2.1307 23.9187 2.11035 23.8765 2.1307C23.8553 2.1307 23.8342 2.15105 23.8342 2.2121C23.8765 2.23245 23.9398 2.23245 23.982 2.2121C23.982 2.23245 23.9609 2.27315 24.0031 2.31384C24.0031 2.33419 24.0031 2.35454 23.982 2.37489C23.9609 2.39524 23.9609 2.43594 23.982 2.47664L24.0031 2.45629C23.982 2.41559 24.0031 2.39524 24.0031 2.37489C24.0031 2.35454 24.0242 2.33419 24.0242 2.31384C24.0031 2.27315 24.0031 2.2528 24.0031 2.23245C24.0031 2.2528 24.0242 2.2528 24.0242 2.2528C24.0453 2.27315 24.0453 2.27315 24.0453 2.2935C24.0453 2.33419 24.0453 2.33419 24.0453 2.33419C24.0453 2.33419 24.0242 2.35454 24.0242 2.37489C24.0242 2.41559 24.0453 2.41559 24.0453 2.43594C24.0453 2.45629 24.0665 2.47664 24.0242 2.53769L24.0453 2.55804C24.0876 2.47664 24.0876 2.45629 24.0665 2.43594C24.0665 2.41559 24.0453 2.41559 24.0453 2.37489C24.0453 2.35454 24.0453 2.35454 24.0453 2.35454C24.0665 2.33419 24.0665 2.33419 24.0665 2.27315C24.0665 2.2528 24.0453 2.23245 24.0453 2.23245C24.0453 2.2121 24.0242 2.2121 24.0242 2.19175H24.0453C24.1087 2.2121 24.172 2.23245 24.1931 2.19175C24.2142 2.1714 24.1931 2.15105 24.1931 2.11035C24.172 2.1307 24.1509 2.1307 24.1509 2.11035ZM23.8553 2.19175C23.8553 2.1714 23.8553 2.15105 23.8765 2.15105C23.8976 2.15105 23.9398 2.15105 23.9609 2.19175C23.9398 2.19175 23.8976 2.2121 23.8553 2.19175ZM24.172 2.2121C24.172 2.2121 24.172 2.2121 24.1298 2.2121C24.1087 2.2121 24.0876 2.19175 24.0453 2.19175C24.0453 2.19175 24.0453 2.19175 24.0242 2.19175C24.0242 2.19175 24.0453 2.19175 24.0453 2.1714C24.0665 2.15105 24.1087 2.1307 24.1298 2.15105C24.1298 2.15105 24.1509 2.15105 24.1509 2.1714C24.172 2.19175 24.172 2.2121 24.172 2.2121Z" fill="#231F20"/>
<path d="M24.1509 2.11035C24.1298 2.11035 24.1509 2.11035 24.1509 2.11035C24.1087 2.11035 24.0876 2.1307 24.0453 2.15105C24.0453 2.15105 24.0242 2.15105 24.0242 2.1714C24.0242 2.15105 24.0242 2.15105 24.0242 2.1307C24.0242 2.15105 24.0242 2.15105 24.0242 2.1714C24.0242 2.1714 24.0453 2.1714 24.0453 2.15105C24.0876 2.1307 24.1087 2.11035 24.1509 2.11035C24.1509 2.11035 24.1298 2.11035 24.1509 2.11035C24.172 2.11035 24.172 2.1307 24.1931 2.15105C24.2142 2.19175 24.2142 2.2121 24.1931 2.23245C24.1931 2.2528 24.172 2.2528 24.1509 2.2528C24.1298 2.2528 24.0876 2.23245 24.0453 2.23245H24.0242C24.0242 2.2528 24.0453 2.2528 24.0453 2.27315C24.0665 2.29349 24.0665 2.29349 24.0665 2.31384C24.0876 2.35454 24.0665 2.37489 24.0453 2.39524C24.0453 2.39524 24.0453 2.39524 24.0453 2.41559C24.0453 2.43594 24.0453 2.45629 24.0665 2.47664C24.0876 2.51734 24.0876 2.53769 24.0453 2.59873L24.0242 2.57838C24.0665 2.51734 24.0665 2.49699 24.0453 2.47664C24.0453 2.45629 24.0242 2.43594 24.0242 2.41559C24.0242 2.39524 24.0242 2.37489 24.0453 2.37489C24.0453 2.37489 24.0665 2.35454 24.0453 2.33419C24.0453 2.31384 24.0242 2.31384 24.0242 2.29349L24.0031 2.27315C24.0031 2.29349 24.0031 2.31384 24.0242 2.35454C24.0242 2.37489 24.0242 2.39524 24.0031 2.41559C23.982 2.43594 23.982 2.45629 24.0031 2.49699L23.982 2.51734C23.9609 2.47664 23.982 2.43594 23.982 2.41559C23.982 2.39524 24.0031 2.37489 24.0031 2.35454C23.9609 2.29349 23.982 2.27315 23.982 2.2528C23.9609 2.27315 23.9187 2.27315 23.8976 2.27315C23.8764 2.27315 23.8553 2.27315 23.8342 2.2528C23.8342 2.19175 23.8553 2.1714 23.8765 2.1714H23.8976C23.9187 2.1714 23.9609 2.19175 24.0031 2.23245C24.0031 2.2121 24.0031 2.2121 24.0031 2.19175C24.0031 2.2121 24.0031 2.2121 24.0031 2.23245C23.982 2.19175 23.9398 2.19175 23.8976 2.1714H23.8765C23.8553 2.1714 23.8342 2.19175 23.8342 2.2528C23.8553 2.2528 23.8764 2.27315 23.8976 2.27315C23.9187 2.27315 23.9398 2.27315 23.982 2.2528C23.982 2.27315 23.9609 2.31384 24.0031 2.35454C24.0031 2.37489 24.0031 2.39524 23.982 2.41559C23.9609 2.43594 23.9609 2.47664 23.982 2.51734L24.0031 2.49699C23.982 2.45629 24.0031 2.43594 24.0031 2.41559C24.0031 2.39524 24.0242 2.37489 24.0242 2.35454C24.0031 2.31384 24.0031 2.29349 24.0031 2.29349L24.0242 2.31384C24.0453 2.33419 24.0453 2.33419 24.0453 2.35454C24.0453 2.39524 24.0453 2.39524 24.0453 2.39524C24.0453 2.39524 24.0242 2.41559 24.0242 2.43594C24.0242 2.47664 24.0453 2.47664 24.0453 2.49699C24.0453 2.51734 24.0665 2.53769 24.0242 2.59873L24.0453 2.61908C24.0876 2.53769 24.0876 2.51734 24.0665 2.49699C24.0665 2.47664 24.0453 2.47664 24.0453 2.43594C24.0453 2.41559 24.0453 2.41559 24.0453 2.41559C24.0665 2.39524 24.0665 2.39524 24.0665 2.33419C24.0665 2.31384 24.0453 2.29349 24.0453 2.29349C24.0453 2.27315 24.0242 2.27315 24.0242 2.2528H24.0453C24.0876 2.27315 24.1298 2.27315 24.1509 2.27315C24.172 2.27315 24.1931 2.27315 24.1931 2.2528C24.2142 2.23245 24.1931 2.2121 24.1931 2.1714C24.172 2.1307 24.1509 2.11035 24.1509 2.11035Z" fill="#231F20"/>
<path d="M24.0454 2.19236C24.0667 2.19236 24.088 2.2129 24.1306 2.2129H24.152C24.1733 2.2129 24.1733 2.2129 24.1733 2.2129C24.1733 2.2129 24.1733 2.19236 24.152 2.17182C24.152 2.15128 24.1306 2.15128 24.1306 2.15128C24.1093 2.15128 24.088 2.15128 24.0454 2.19236C24.0454 2.17182 24.0454 2.17182 24.0454 2.19236ZM24.0667 2.17182C24.088 2.15128 24.1093 2.13074 24.1306 2.13074C24.1306 2.13074 24.152 2.13074 24.152 2.15128C24.1733 2.17182 24.1733 2.19236 24.1733 2.19236C24.1733 2.19236 24.1733 2.19236 24.152 2.19236H24.1306C24.1093 2.2129 24.0667 2.19236 24.0667 2.17182C24.0454 2.19236 24.0454 2.19236 24.0667 2.17182C24.0667 2.17182 24.0454 2.19236 24.0667 2.17182Z" fill="#231F20"/>
<path d="M23.8762 2.15054C23.8549 2.15054 23.8549 2.19162 23.8549 2.21216C23.8762 2.21216 23.8762 2.21216 23.8975 2.21216C23.9188 2.21216 23.9401 2.21216 23.9614 2.19162C23.9614 2.15054 23.9188 2.13 23.8762 2.15054C23.8975 2.13 23.8762 2.13 23.8762 2.15054ZM23.8975 2.19162C23.8762 2.19162 23.8762 2.19162 23.8549 2.19162C23.8549 2.17108 23.8549 2.15054 23.8762 2.15054C23.8762 2.15054 23.8762 2.15054 23.8975 2.15054C23.9188 2.15054 23.9401 2.17108 23.9827 2.19162C23.9401 2.19162 23.9188 2.19162 23.8975 2.19162Z" fill="#231F20"/>
</g>
<defs>
<clipPath id="clip0_1_5267">
<rect width="37.9999" height="23.5238" fill="white" transform="translate(0 0.238159)"/>
</clipPath>
</defs>
</svg>
