<svg width="31" height="31" viewBox="0 0 31 31" fill="none" xmlns="http://www.w3.org/2000/svg">
<g clip-path="url(#clip0_146_1310)">
<path d="M0.575043 20.5703C1.2151 20.071 2.47456 19.6757 4.68378 21.0696C3.42432 24.2111 2.74297 26.9364 2.45391 28.3719C1.91709 27.2693 0.698924 24.3151 0.575043 20.5703Z" fill="#682513"/>
<path d="M6.91366 22.7964C11.3321 26.8324 10.3823 29.8075 9.41194 30.8893C6.74849 30.7853 4.39474 30.0779 2.70169 28.8505C2.94945 27.623 3.61016 24.6896 4.97285 21.2568C5.57161 21.6521 6.21167 22.1514 6.91366 22.7964Z" fill="#7C341B"/>
<path d="M28.7788 2.63686C28.7788 2.63686 29.7492 4.90454 30.2654 8.15004C29.1091 5.81994 27.6638 4.07237 26.1979 2.78249C27.1477 2.61605 27.9529 2.55364 28.5517 2.53284C28.6342 2.57445 28.7168 2.59525 28.7788 2.63686Z" fill="#7C341B"/>
<path d="M24.1952 1.26379C25.6404 1.53425 26.8586 1.88793 27.7464 2.2208C27.2096 2.26241 26.5489 2.34562 25.8469 2.47045C25.2894 2.01275 24.7526 1.61747 24.1952 1.26379Z" fill="#682513"/>
<path d="M6.00519 18.1154C2.94945 16.2846 1.35963 17.1376 0.678284 17.8657C1.04993 14.6202 2.37133 11.0211 5.55096 7.58833C10.052 2.74089 15.0279 1.15976 19.2605 0.930908C20.3342 1.24297 21.5523 1.74228 22.7705 2.44963C23.0596 2.61607 23.3486 2.80331 23.617 2.99055C20.7471 3.82272 17.1339 5.44547 13.2729 8.60774C10.0313 11.2915 7.67759 14.7659 6.00519 18.1154Z" fill="#682513"/>
<path d="M13.5 8.89899C17.4436 5.6535 21.1394 4.05155 23.9887 3.26099C27.3128 5.6743 29.4808 9.31508 30.4305 14.1417C30.1002 17.1375 29.0472 20.2998 26.6315 23.0668C22.5847 27.7478 17.2784 30.1611 12.4677 30.7644C13.6652 29.2457 14.5943 25.5009 9.10223 20.4871C8.04924 19.5301 7.12013 18.8227 6.29425 18.2818C7.96665 14.9739 10.2791 11.5412 13.5 8.89899Z" fill="#7C341B"/>
<path d="M2.45392 28.3719C2.76362 26.9364 3.42432 24.2111 4.68379 21.0696C4.78702 21.132 4.89026 21.1944 4.97285 21.2568C3.5895 24.6896 2.9288 27.623 2.70168 28.8504C2.70168 28.8504 2.68103 28.8504 2.68103 28.8296C2.68103 28.8504 2.59845 28.684 2.45392 28.3719Z" fill="#47150E"/>
<path d="M27.7671 2.22083C28.0561 2.32485 28.3245 2.42887 28.5516 2.53289C27.9529 2.5537 27.1477 2.61611 26.1979 2.78255C26.074 2.67852 25.9708 2.5745 25.8469 2.49128C26.5695 2.34565 27.2096 2.26243 27.7671 2.22083Z" fill="#47150E"/>
<path d="M13.2936 8.62855C17.1545 5.46628 20.7884 3.84353 23.6377 3.01135C23.7616 3.09457 23.8854 3.17779 24.0093 3.28181C21.1394 4.07238 17.4643 5.67432 13.5207 8.91981C10.2791 11.5412 7.96666 14.9739 6.31491 18.3026C6.21167 18.2402 6.10844 18.1778 6.02585 18.1154C7.6776 14.7659 10.0314 11.2915 13.2936 8.62855Z" fill="#47150E"/>
<path d="M0.678287 17.8657C1.58675 16.9295 3.96115 15.7853 9.12288 20.5079C14.615 25.5217 13.6859 29.2665 12.4883 30.7853C11.4353 30.9101 10.403 30.9517 9.41194 30.9101C10.3823 29.8282 11.3321 26.8532 6.91366 22.8172C3.25915 19.4676 1.40093 19.9045 0.575052 20.5703C0.533758 19.6965 0.554405 18.8019 0.678287 17.8657Z" fill="#ECEFF1"/>
<path d="M22.7912 2.47043C21.573 1.74228 20.3548 1.26377 19.2812 0.951708C21.0981 0.86849 22.7705 1.01412 24.2158 1.28458C26.3218 2.63687 28.6136 4.77972 30.286 8.17085C30.5544 9.93922 30.699 12.0197 30.4512 14.1625C29.3775 8.75337 26.8173 4.84214 22.7912 2.47043Z" fill="#ECEFF1"/>
<path d="M8.3383 15.39C8.54476 15.39 8.73059 15.286 8.85447 15.0987C13.8923 7.23466 20.5819 5.02939 20.6439 5.00858C20.9742 4.90456 21.1394 4.55089 21.0362 4.23882C20.9329 3.90595 20.5819 3.73951 20.2722 3.84353C19.9832 3.92675 13.1077 6.21524 7.82212 14.4538C7.6363 14.7451 7.71889 15.1195 8.00794 15.3068C8.11118 15.3692 8.21441 15.39 8.3383 15.39Z" fill="#501910"/>
<path d="M8.27634 15.286C8.48281 15.286 8.66864 15.182 8.79252 14.9947C13.8304 7.13065 20.52 4.92538 20.5819 4.90458C20.9123 4.80056 21.0774 4.44688 20.9742 4.13482C20.871 3.80194 20.52 3.63551 20.2103 3.73953C19.9212 3.82275 13.0458 6.11124 7.76017 14.3498C7.57435 14.6411 7.65694 15.0155 7.94599 15.2028C8.04923 15.2652 8.15246 15.286 8.27634 15.286Z" fill="#ECEFF1"/>
<path d="M20.6232 7.73394C20.7265 7.73394 20.8297 7.71314 20.9329 7.65073C21.222 7.48429 21.3252 7.10981 21.16 6.81855C21.0981 6.69372 19.4464 3.84351 16.3493 3.96834C16.019 3.98914 15.7506 4.2804 15.7712 4.61328C15.7918 4.94615 16.0603 5.21661 16.4113 5.1958C18.765 5.09178 20.0864 7.40107 20.1071 7.42188C20.2103 7.60912 20.4168 7.73394 20.6232 7.73394Z" fill="#501910"/>
<path d="M17.5056 9.93919C17.6088 9.93919 17.712 9.91838 17.8153 9.85597C18.1043 9.68953 18.2075 9.31505 18.0424 9.02379C17.9804 8.89897 16.3287 6.02795 13.211 6.02795C13.1491 6.02795 13.0665 6.02795 13.0045 6.02795C12.6742 6.04876 12.4058 6.34002 12.4264 6.67289C12.4471 7.00576 12.7155 7.27622 13.0665 7.25542C15.5854 7.15139 16.9894 9.58551 16.9894 9.60632C17.0926 9.81436 17.2991 9.93919 17.5056 9.93919Z" fill="#501910"/>
<path d="M14.7182 12.2901C14.8214 12.2901 14.9247 12.2693 15.0279 12.2069C15.317 12.0405 15.4202 11.666 15.255 11.3747C15.1931 11.2499 13.5413 8.37891 10.4236 8.37891C10.3617 8.37891 10.2791 8.37891 10.2172 8.37891C9.88682 8.39971 9.61841 8.69097 9.63906 9.02384C9.6597 9.35671 9.92811 9.62717 10.2791 9.60637C12.798 9.50234 14.202 11.9365 14.202 11.9573C14.2846 12.1861 14.5117 12.2901 14.7182 12.2901Z" fill="#501910"/>
<path d="M12.096 14.9739C12.1993 14.9739 12.3025 14.9531 12.4057 14.8907C12.6948 14.7242 12.798 14.3497 12.6329 14.0585C12.5709 13.9337 10.8572 10.9378 7.59501 11.0834C7.26466 11.1043 6.99625 11.3955 7.01689 11.7284C7.03754 12.0613 7.30595 12.3317 7.65695 12.3109C10.1759 12.2069 11.5799 14.641 11.5799 14.6618C11.6831 14.8699 11.8896 14.9739 12.096 14.9739Z" fill="#501910"/>
<path d="M20.6232 7.60918C20.7265 7.60918 20.8297 7.58838 20.9329 7.52597C21.222 7.35953 21.3252 6.98505 21.16 6.69379C21.0981 6.56896 19.4464 3.71876 16.3493 3.84358C16.019 3.86439 15.7506 4.15565 15.7712 4.48852C15.7918 4.82139 16.0603 5.09185 16.4113 5.07104C18.765 4.96702 20.0864 7.27631 20.1071 7.29712C20.2103 7.48436 20.4168 7.60918 20.6232 7.60918Z" fill="white"/>
<path d="M17.5056 9.81444C17.6088 9.81444 17.712 9.79363 17.8153 9.73122C18.1043 9.56478 18.2075 9.1903 18.0424 8.89904C17.9804 8.75341 16.3287 5.9032 13.211 5.9032C13.1491 5.9032 13.0665 5.9032 13.0045 5.9032C12.6742 5.924 12.4058 6.21527 12.4264 6.54814C12.4471 6.88101 12.7155 7.15147 13.0665 7.13066C15.5854 7.02664 16.9894 9.46076 16.9894 9.48156C17.0926 9.68961 17.2991 9.81444 17.5056 9.81444Z" fill="white"/>
<path d="M14.7182 12.1654C14.8214 12.1654 14.9247 12.1446 15.0279 12.0822C15.317 11.9157 15.4202 11.5413 15.255 11.25C15.1931 11.1252 13.5413 8.25415 10.4236 8.25415C10.3617 8.25415 10.2791 8.25415 10.2172 8.25415C9.88682 8.27495 9.61841 8.56622 9.63906 8.89909C9.6597 9.23196 9.92811 9.50242 10.2791 9.48161C12.798 9.37759 14.202 11.8117 14.202 11.8325C14.2846 12.0614 14.5117 12.1654 14.7182 12.1654Z" fill="white"/>
<path d="M12.096 14.8491C12.1993 14.8491 12.3025 14.8283 12.4057 14.7659C12.6948 14.5995 12.798 14.225 12.6329 13.9337C12.5709 13.8089 10.8572 10.8131 7.59501 10.9587C7.26466 10.9795 6.99625 11.2708 7.01689 11.6036C7.03754 11.9365 7.30595 12.207 7.65695 12.1862C10.1759 12.0821 11.5799 14.5163 11.5799 14.5371C11.6831 14.7451 11.8896 14.8491 12.096 14.8491Z" fill="white"/>
</g>
<defs>
<clipPath id="clip0_146_1310">
<rect width="30" height="30" fill="white" transform="translate(0.554413 0.910156)"/>
</clipPath>
</defs>
</svg>
