<svg width="37" height="29" viewBox="0 0 37 29" fill="none" xmlns="http://www.w3.org/2000/svg">
<g clip-path="url(#clip0_146_973)">
<path d="M20.0915 4.89137V8.41194C20.0915 8.60935 19.9438 8.75741 19.747 8.75741H15.86C15.0892 8.75741 14.4659 8.13227 14.4659 7.35906V4.89137C14.4659 4.71041 14.6136 4.5459 14.8104 4.5459H19.7634C19.9438 4.5459 20.0915 4.71041 20.0915 4.89137Z" fill="#F96C51"/>
<path d="M17.8281 7.01352L17.8117 7.49061L14.4659 7.01352H9.34886C9.21765 7.01352 9.10284 6.89837 9.10284 6.76676V2.55524C9.10284 2.42363 9.21765 2.30847 9.34886 2.30847H16.2372C17.1065 2.30847 17.8281 3.01587 17.8281 3.90424V7.01352Z" fill="#FC8370"/>
<path d="M17.8281 7.6387V8.74093H15.86C15.0892 8.74093 14.4659 8.11578 14.4659 7.34257V7.01355H17.2049C17.5493 7.01355 17.8281 7.29322 17.8281 7.6387Z" fill="#E7553E"/>
<path d="M35.5575 18.9572C32.9498 16.2098 26.4386 14.2686 18.7794 14.2686C11.1202 14.2686 4.59259 16.2098 2.00125 18.9572H0.771179V21.5894C0.771179 25.6364 8.82403 28.9102 18.763 28.9102C28.7019 28.9102 36.7548 25.6364 36.7548 21.5894V18.9572H35.5575Z" fill="#88C053"/>
<path d="M36.7712 19.2533C36.7712 23.3003 28.7019 26.5905 18.763 26.5905H18.6482C8.75842 26.5412 0.771179 23.2838 0.771179 19.2533C0.771179 15.634 7.21674 12.6399 15.7124 12.0477C16.6965 11.9818 17.7297 11.9325 18.7794 11.9325C28.7183 11.9325 36.7712 15.2063 36.7712 19.2533Z" fill="#9ED36B"/>
<path d="M33.5894 19.352C33.5894 22.9877 27.1438 25.9819 18.6482 26.5741C8.75842 26.5412 0.771179 23.2839 0.771179 19.2533C0.771179 15.634 7.21674 12.6399 15.7124 12.0477C25.5858 12.0806 33.5894 15.3379 33.5894 19.352Z" fill="#B3DF80"/>
<path d="M14.22 19.0394C17.0008 19.0394 19.255 18.8111 19.255 18.5294C19.255 18.2477 17.0008 18.0194 14.22 18.0194C11.4392 18.0194 9.18488 18.2477 9.18488 18.5294C9.18488 18.8111 11.4392 19.0394 14.22 19.0394Z" fill="#9ED36B"/>
<path d="M21.6988 19.5494C22.7857 19.5494 23.6669 19.3211 23.6669 19.0394C23.6669 18.7577 22.7857 18.5294 21.6988 18.5294C20.6118 18.5294 19.7307 18.7577 19.7307 19.0394C19.7307 19.3211 20.6118 19.5494 21.6988 19.5494Z" fill="#9ED36B"/>
<path d="M13.9739 17.9372C13.9739 18.4965 12.711 18.9572 11.1366 18.9572H11.0217C11.0053 18.9572 11.0053 18.9572 10.9889 18.9572C10.2345 18.9407 9.57846 18.8255 9.10284 18.661C8.61081 18.4636 8.29919 18.2169 8.29919 17.9372C8.29919 17.6575 8.61081 17.4272 9.10284 17.2298C9.49646 17.0982 9.97209 16.983 10.5133 16.9501C10.5297 16.9501 10.5297 16.9501 10.5461 16.9501C10.7265 16.9337 10.9397 16.9337 11.1366 16.9337C12.711 16.9501 13.9739 17.3778 13.9739 17.9372Z" fill="#434752"/>
<path d="M13.2687 17.9536C13.2687 18.4307 12.3174 18.842 11.0382 18.9407C11.0218 18.9407 11.0218 18.9407 11.0054 18.9407C10.2509 18.9243 9.59488 18.8091 9.11926 18.6446C8.62723 18.4472 8.31561 18.2004 8.31561 17.9207C8.31561 17.6411 8.62723 17.4107 9.11926 17.2133C9.51288 17.0817 9.98851 16.9666 10.5297 16.9337C10.5461 16.9337 10.5461 16.9337 10.5625 16.9337C12.0714 16.983 13.2687 17.4272 13.2687 17.9536Z" fill="#646C77"/>
<path d="M11.153 1.93013V18.9572C10.8742 18.9572 10.5953 18.9407 10.3493 18.9243C9.8737 18.8749 9.44728 18.7926 9.11926 18.661V1.93013C9.11926 1.5024 9.38168 1.15692 9.7261 0.992412H9.7425C9.8409 0.926607 9.98851 0.910156 10.1197 0.910156C10.6938 0.910156 11.153 1.35434 11.153 1.93013Z" fill="#A9AFBB"/>
<path d="M10.3493 1.93015V18.9243C9.87371 18.8749 9.44728 18.7927 9.11926 18.6611V1.93015C9.11926 1.50242 9.38168 1.15694 9.7261 0.992432H9.7425C10.0869 1.15694 10.3493 1.50242 10.3493 1.93015Z" fill="#C9D0D8"/>
<path d="M22.5516 17.822C22.5516 17.9536 22.5352 18.0688 22.5024 18.1839C22.486 18.2662 22.4532 18.3484 22.4368 18.4142C22.4204 18.4471 22.4204 18.4636 22.404 18.4965C22.3712 18.5623 22.3384 18.6281 22.2892 18.6939C22.2728 18.7268 22.2564 18.7597 22.2236 18.7762L22.2072 18.7926C22.1908 18.8091 22.1744 18.8255 22.158 18.8584C22.158 18.8584 22.158 18.8584 22.1416 18.8749C22.1088 18.9078 22.076 18.9407 22.0431 18.9736C22.0103 19.0065 21.9775 19.0394 21.9447 19.0558C21.9283 19.0723 21.9119 19.0887 21.8791 19.1052C21.8627 19.1216 21.8463 19.1216 21.8463 19.1381C21.8463 19.1381 21.8299 19.1545 21.8135 19.1545C21.7807 19.171 21.7479 19.1874 21.7151 19.2203C21.6659 19.2532 21.6167 19.2697 21.5675 19.2861C21.5019 19.3191 21.4363 19.3355 21.3707 19.352C21.2395 19.3849 21.1083 19.4013 20.9771 19.4013C20.9607 19.4013 20.9443 19.4013 20.9279 19.4013C20.9115 19.4013 20.9115 19.4013 20.8951 19.4013C20.8623 19.4013 20.8295 19.4013 20.7967 19.3849C20.7803 19.3849 20.7803 19.3849 20.7639 19.3849C20.7311 19.3849 20.7147 19.3684 20.6819 19.3684C20.6655 19.3684 20.6491 19.3684 20.6491 19.352C20.6327 19.352 20.6163 19.352 20.6163 19.3355C20.5835 19.3191 20.5343 19.3191 20.5015 19.3026C20.4359 19.2697 20.3539 19.2532 20.2882 19.2203C20.2718 19.2203 20.2554 19.2039 20.239 19.1874C20.2226 19.1874 20.2226 19.171 20.2062 19.171C20.157 19.1545 20.1242 19.1216 20.0914 19.0887C20.0422 19.0558 20.0094 19.0229 19.9766 18.99C19.9602 18.9736 19.9438 18.9736 19.9438 18.9571C19.8946 18.9078 19.8454 18.8584 19.7962 18.7926C19.747 18.7268 19.7142 18.6775 19.665 18.6116C19.6322 18.5458 19.5994 18.48 19.5666 18.4142C19.5338 18.3484 19.5174 18.2826 19.501 18.2168C19.501 18.2004 19.501 18.1839 19.4846 18.1675C19.4682 18.1181 19.4682 18.0852 19.4682 18.0359V18.0194C19.4682 18.003 19.4682 17.9865 19.4682 17.9701C19.4682 17.9536 19.4682 17.9207 19.4682 17.9042V17.8878C19.4682 17.8713 19.4682 17.8549 19.4682 17.8384C19.4682 17.5259 19.5666 17.2297 19.7142 16.983C19.7306 16.9665 19.747 16.9336 19.7634 16.9172C19.7634 16.9007 19.7798 16.9007 19.7962 16.8843L19.8126 16.8678C19.829 16.8514 19.829 16.8349 19.8454 16.8185C19.8782 16.7856 19.911 16.7527 19.9274 16.7198C20.0258 16.621 20.157 16.5223 20.2882 16.4565C20.3046 16.4565 20.3046 16.4401 20.321 16.4401C20.3375 16.4401 20.3375 16.4236 20.3539 16.4236C20.3867 16.4072 20.4195 16.3907 20.4359 16.3907C20.4687 16.3743 20.5015 16.3578 20.5343 16.3578C20.5999 16.3414 20.6655 16.3249 20.7311 16.3085C20.7475 16.3085 20.7803 16.292 20.7967 16.292C20.8623 16.2756 20.9443 16.2756 21.0099 16.2756C21.0427 16.2756 21.0755 16.2756 21.1083 16.2756C21.1247 16.2756 21.1411 16.2756 21.1575 16.2756C21.2067 16.2756 21.2559 16.292 21.3051 16.292C21.3379 16.292 21.3871 16.3085 21.4199 16.3249C21.4855 16.3414 21.5511 16.3578 21.6167 16.3907C21.6331 16.4072 21.6659 16.4072 21.6823 16.4236C21.7151 16.4401 21.7315 16.4565 21.7643 16.4565C21.7971 16.473 21.8299 16.4894 21.8463 16.5059C21.8791 16.5388 21.9283 16.5552 21.9611 16.5881C22.0103 16.621 22.0596 16.6704 22.1088 16.7198C22.1416 16.7527 22.1908 16.802 22.2236 16.8349C22.24 16.8514 22.24 16.8678 22.2564 16.8678C22.2892 16.9007 22.3056 16.9336 22.322 16.9665C22.322 16.9665 22.322 16.9665 22.322 16.983L22.3384 16.9994C22.3876 17.0652 22.4204 17.1475 22.4532 17.2133C22.4532 17.2297 22.4532 17.2297 22.4696 17.2462C22.486 17.2791 22.486 17.2956 22.5024 17.3285C22.5352 17.4272 22.5516 17.5259 22.568 17.6246V17.641C22.568 17.6575 22.568 17.6904 22.568 17.7068V17.7233C22.5516 17.7726 22.5516 17.7891 22.5516 17.822Z" fill="#F6F7F2"/>
<path d="M19.5502 17.8056C19.6136 17.8056 19.665 17.754 19.665 17.6904C19.665 17.6268 19.6136 17.5753 19.5502 17.5753C19.4868 17.5753 19.4354 17.6268 19.4354 17.6904C19.4354 17.754 19.4868 17.8056 19.5502 17.8056Z" fill="#EFEFEF"/>
<path d="M19.9111 17.8056C19.9745 17.8056 20.0259 17.754 20.0259 17.6904C20.0259 17.6268 19.9745 17.5753 19.9111 17.5753C19.8477 17.5753 19.7963 17.6268 19.7963 17.6904C19.7963 17.754 19.8477 17.8056 19.9111 17.8056Z" fill="#EFEFEF"/>
<path d="M20.2718 17.8056C20.3353 17.8056 20.3867 17.754 20.3867 17.6904C20.3867 17.6268 20.3353 17.5753 20.2718 17.5753C20.2084 17.5753 20.157 17.6268 20.157 17.6904C20.157 17.754 20.2084 17.8056 20.2718 17.8056Z" fill="#EFEFEF"/>
<path d="M20.6327 17.8056C20.6961 17.8056 20.7475 17.754 20.7475 17.6904C20.7475 17.6268 20.6961 17.5753 20.6327 17.5753C20.5693 17.5753 20.5179 17.6268 20.5179 17.6904C20.5179 17.754 20.5693 17.8056 20.6327 17.8056Z" fill="#EFEFEF"/>
<path d="M20.9935 17.8056C21.0569 17.8056 21.1083 17.754 21.1083 17.6904C21.1083 17.6268 21.0569 17.5753 20.9935 17.5753C20.9301 17.5753 20.8787 17.6268 20.8787 17.6904C20.8787 17.754 20.9301 17.8056 20.9935 17.8056Z" fill="#EFEFEF"/>
<path d="M21.3543 17.8056C21.4177 17.8056 21.4691 17.754 21.4691 17.6904C21.4691 17.6268 21.4177 17.5753 21.3543 17.5753C21.2909 17.5753 21.2395 17.6268 21.2395 17.6904C21.2395 17.754 21.2909 17.8056 21.3543 17.8056Z" fill="#EFEFEF"/>
<path d="M21.7151 17.8056C21.7786 17.8056 21.83 17.754 21.83 17.6904C21.83 17.6268 21.7786 17.5753 21.7151 17.5753C21.6517 17.5753 21.6003 17.6268 21.6003 17.6904C21.6003 17.754 21.6517 17.8056 21.7151 17.8056Z" fill="#EFEFEF"/>
<path d="M22.076 17.8056C22.1394 17.8056 22.1908 17.754 22.1908 17.6904C22.1908 17.6268 22.1394 17.5753 22.076 17.5753C22.0126 17.5753 21.9612 17.6268 21.9612 17.6904C21.9612 17.754 22.0126 17.8056 22.076 17.8056Z" fill="#EFEFEF"/>
<path d="M22.5516 17.7398C22.5352 17.7727 22.486 17.8056 22.4532 17.8056C22.3876 17.8056 22.3384 17.7562 22.3384 17.6904C22.3384 17.6246 22.3876 17.5753 22.4532 17.5753C22.486 17.5753 22.5188 17.5917 22.5516 17.6246V17.6411C22.5516 17.6575 22.5516 17.6904 22.5516 17.7069C22.5516 17.7398 22.5516 17.7398 22.5516 17.7398Z" fill="#EFEFEF"/>
<path d="M19.665 17.3778C19.7284 17.3778 19.7798 17.3263 19.7798 17.2627C19.7798 17.1991 19.7284 17.1475 19.665 17.1475C19.6016 17.1475 19.5502 17.1991 19.5502 17.2627C19.5502 17.3263 19.6016 17.3778 19.665 17.3778Z" fill="#EFEFEF"/>
<path d="M20.0259 17.3778C20.0893 17.3778 20.1407 17.3263 20.1407 17.2627C20.1407 17.1991 20.0893 17.1475 20.0259 17.1475C19.9625 17.1475 19.9111 17.1991 19.9111 17.2627C19.9111 17.3263 19.9625 17.3778 20.0259 17.3778Z" fill="#EFEFEF"/>
<path d="M20.3867 17.3778C20.4501 17.3778 20.5015 17.3263 20.5015 17.2627C20.5015 17.1991 20.4501 17.1475 20.3867 17.1475C20.3232 17.1475 20.2719 17.1991 20.2719 17.2627C20.2719 17.3263 20.3232 17.3778 20.3867 17.3778Z" fill="#EFEFEF"/>
<path d="M20.7475 17.3778C20.8109 17.3778 20.8623 17.3263 20.8623 17.2627C20.8623 17.1991 20.8109 17.1475 20.7475 17.1475C20.6841 17.1475 20.6327 17.1991 20.6327 17.2627C20.6327 17.3263 20.6841 17.3778 20.7475 17.3778Z" fill="#EFEFEF"/>
<path d="M21.1083 17.3778C21.1717 17.3778 21.2231 17.3263 21.2231 17.2627C21.2231 17.1991 21.1717 17.1475 21.1083 17.1475C21.0449 17.1475 20.9935 17.1991 20.9935 17.2627C20.9935 17.3263 21.0449 17.3778 21.1083 17.3778Z" fill="#EFEFEF"/>
<path d="M21.4691 17.3778C21.5325 17.3778 21.5839 17.3263 21.5839 17.2627C21.5839 17.1991 21.5325 17.1475 21.4691 17.1475C21.4057 17.1475 21.3543 17.1991 21.3543 17.2627C21.3543 17.3263 21.4057 17.3778 21.4691 17.3778Z" fill="#EFEFEF"/>
<path d="M21.83 17.3778C21.8934 17.3778 21.9448 17.3263 21.9448 17.2627C21.9448 17.1991 21.8934 17.1475 21.83 17.1475C21.7665 17.1475 21.7151 17.1991 21.7151 17.2627C21.7151 17.3263 21.7665 17.3778 21.83 17.3778Z" fill="#EFEFEF"/>
<path d="M22.1908 17.3778C22.2542 17.3778 22.3056 17.3263 22.3056 17.2627C22.3056 17.1991 22.2542 17.1475 22.1908 17.1475C22.1274 17.1475 22.076 17.1991 22.076 17.2627C22.076 17.3263 22.1274 17.3778 22.1908 17.3778Z" fill="#EFEFEF"/>
<path d="M22.4696 17.3285C22.4532 17.312 22.4368 17.2791 22.4368 17.2462C22.4532 17.2791 22.4696 17.312 22.4696 17.3285Z" fill="#EFEFEF"/>
<path d="M20.0259 16.8185C20.0259 16.8843 19.9767 16.9337 19.9111 16.9337C19.8455 16.9337 19.7963 16.8843 19.7963 16.8185V16.8021C19.8291 16.7692 19.8619 16.7363 19.8783 16.7034H19.8947C19.9767 16.7034 20.0259 16.7527 20.0259 16.8185Z" fill="#EFEFEF"/>
<path d="M20.2719 16.9337C20.3353 16.9337 20.3867 16.8821 20.3867 16.8185C20.3867 16.7549 20.3353 16.7034 20.2719 16.7034C20.2085 16.7034 20.1571 16.7549 20.1571 16.8185C20.1571 16.8821 20.2085 16.9337 20.2719 16.9337Z" fill="#EFEFEF"/>
<path d="M20.6327 16.9337C20.6961 16.9337 20.7475 16.8821 20.7475 16.8185C20.7475 16.7549 20.6961 16.7034 20.6327 16.7034C20.5693 16.7034 20.5179 16.7549 20.5179 16.8185C20.5179 16.8821 20.5693 16.9337 20.6327 16.9337Z" fill="#EFEFEF"/>
<path d="M20.9935 16.9337C21.0569 16.9337 21.1083 16.8821 21.1083 16.8185C21.1083 16.7549 21.0569 16.7034 20.9935 16.7034C20.9301 16.7034 20.8787 16.7549 20.8787 16.8185C20.8787 16.8821 20.9301 16.9337 20.9935 16.9337Z" fill="#EFEFEF"/>
<path d="M21.3544 16.9337C21.4178 16.9337 21.4692 16.8821 21.4692 16.8185C21.4692 16.7549 21.4178 16.7034 21.3544 16.7034C21.291 16.7034 21.2396 16.7549 21.2396 16.8185C21.2396 16.8821 21.291 16.9337 21.3544 16.9337Z" fill="#EFEFEF"/>
<path d="M21.7151 16.9337C21.7786 16.9337 21.83 16.8821 21.83 16.8185C21.83 16.7549 21.7786 16.7034 21.7151 16.7034C21.6517 16.7034 21.6003 16.7549 21.6003 16.8185C21.6003 16.8821 21.6517 16.9337 21.7151 16.9337Z" fill="#EFEFEF"/>
<path d="M22.1908 16.8185C22.1908 16.8843 22.1416 16.9172 22.076 16.9172C22.0104 16.9172 21.9612 16.8679 21.9612 16.8021C21.9612 16.7362 22.0104 16.6869 22.076 16.6869C22.1252 16.7362 22.158 16.7856 22.1908 16.8185Z" fill="#EFEFEF"/>
<path d="M20.5015 16.3743C20.5015 16.4401 20.4523 16.4895 20.3867 16.4895C20.3375 16.4895 20.2883 16.4566 20.2719 16.4072C20.2883 16.4072 20.2883 16.3908 20.3047 16.3908C20.3375 16.3743 20.3703 16.3579 20.3867 16.3579C20.4195 16.3414 20.4523 16.325 20.4851 16.325C20.5015 16.3414 20.5015 16.3579 20.5015 16.3743Z" fill="#EFEFEF"/>
<path d="M20.7475 16.4895C20.8109 16.4895 20.8623 16.4379 20.8623 16.3743C20.8623 16.3107 20.8109 16.2592 20.7475 16.2592C20.6841 16.2592 20.6327 16.3107 20.6327 16.3743C20.6327 16.4379 20.6841 16.4895 20.7475 16.4895Z" fill="#EFEFEF"/>
<path d="M21.1083 16.4895C21.1717 16.4895 21.2231 16.4379 21.2231 16.3743C21.2231 16.3107 21.1717 16.2592 21.1083 16.2592C21.0449 16.2592 20.9935 16.3107 20.9935 16.3743C20.9935 16.4379 21.0449 16.4895 21.1083 16.4895Z" fill="#EFEFEF"/>
<path d="M21.5839 16.3743C21.5839 16.4401 21.5347 16.4895 21.4691 16.4895C21.4035 16.4895 21.3543 16.4401 21.3543 16.3743C21.3543 16.3414 21.3707 16.325 21.3871 16.2921C21.4527 16.325 21.5183 16.3414 21.5839 16.3743Z" fill="#EFEFEF"/>
<path d="M21.8299 16.4895C21.7971 16.4895 21.7643 16.473 21.7479 16.4401C21.7643 16.4566 21.7971 16.473 21.8299 16.4895Z" fill="#EFEFEF"/>
<path d="M20.5015 19.2533C20.5015 19.2697 20.5015 19.2862 20.4851 19.3026C20.4195 19.2697 20.3375 19.2533 20.2719 19.2204C20.2883 19.1875 20.3375 19.1546 20.3703 19.1546C20.4359 19.1381 20.5015 19.1875 20.5015 19.2533Z" fill="#EFEFEF"/>
<path d="M20.7475 19.3684C20.8109 19.3684 20.8623 19.3169 20.8623 19.2533C20.8623 19.1897 20.8109 19.1381 20.7475 19.1381C20.6841 19.1381 20.6327 19.1897 20.6327 19.2533C20.6327 19.3169 20.6841 19.3684 20.7475 19.3684Z" fill="#EFEFEF"/>
<path d="M21.1083 19.3684C21.1717 19.3684 21.2231 19.3169 21.2231 19.2533C21.2231 19.1897 21.1717 19.1381 21.1083 19.1381C21.0449 19.1381 20.9935 19.1897 20.9935 19.2533C20.9935 19.3169 21.0449 19.3684 21.1083 19.3684Z" fill="#EFEFEF"/>
<path d="M21.5839 19.2533C21.5183 19.2862 21.4527 19.3191 21.3871 19.3355C21.3707 19.3191 21.3543 19.2862 21.3543 19.2533C21.3543 19.1875 21.4035 19.1381 21.4691 19.1381C21.5183 19.1381 21.5839 19.1875 21.5839 19.2533Z" fill="#EFEFEF"/>
<path d="M21.8299 19.1381C21.7971 19.1546 21.7643 19.171 21.7315 19.2039C21.7479 19.1546 21.7807 19.1381 21.8299 19.1381Z" fill="#EFEFEF"/>
<path d="M19.9931 18.842C19.9931 18.8914 19.9603 18.9243 19.9275 18.9407C19.8783 18.8914 19.8291 18.842 19.7798 18.7762C19.7962 18.7433 19.8455 18.7104 19.8783 18.7104C19.9275 18.7268 19.9931 18.7762 19.9931 18.842Z" fill="#EFEFEF"/>
<path d="M20.2391 18.9572C20.3025 18.9572 20.3539 18.9056 20.3539 18.842C20.3539 18.7784 20.3025 18.7269 20.2391 18.7269C20.1757 18.7269 20.1243 18.7784 20.1243 18.842C20.1243 18.9056 20.1757 18.9572 20.2391 18.9572Z" fill="#EFEFEF"/>
<path d="M20.5999 18.9572C20.6633 18.9572 20.7147 18.9056 20.7147 18.842C20.7147 18.7784 20.6633 18.7269 20.5999 18.7269C20.5365 18.7269 20.4851 18.7784 20.4851 18.842C20.4851 18.9056 20.5365 18.9572 20.5999 18.9572Z" fill="#EFEFEF"/>
<path d="M20.9607 18.9572C21.0241 18.9572 21.0755 18.9056 21.0755 18.842C21.0755 18.7784 21.0241 18.7269 20.9607 18.7269C20.8973 18.7269 20.8459 18.7784 20.8459 18.842C20.8459 18.9056 20.8973 18.9572 20.9607 18.9572Z" fill="#EFEFEF"/>
<path d="M21.3215 18.9572C21.3849 18.9572 21.4363 18.9056 21.4363 18.842C21.4363 18.7784 21.3849 18.7269 21.3215 18.7269C21.2581 18.7269 21.2067 18.7784 21.2067 18.842C21.2067 18.9056 21.2581 18.9572 21.3215 18.9572Z" fill="#EFEFEF"/>
<path d="M21.6824 18.9572C21.7458 18.9572 21.7972 18.9056 21.7972 18.842C21.7972 18.7784 21.7458 18.7269 21.6824 18.7269C21.619 18.7269 21.5676 18.7784 21.5676 18.842C21.5676 18.9056 21.619 18.9572 21.6824 18.9572Z" fill="#EFEFEF"/>
<path d="M22.158 18.842C22.158 18.842 22.158 18.8585 22.158 18.842C22.1252 18.8914 22.0924 18.9243 22.0596 18.9572H22.0432C21.9775 18.9572 21.9283 18.9078 21.9283 18.842C21.9283 18.7762 21.9775 18.7269 22.0432 18.7269C22.1088 18.7269 22.158 18.7762 22.158 18.842Z" fill="#EFEFEF"/>
<path d="M19.7306 18.4801C19.7306 18.5294 19.6814 18.5788 19.6322 18.5953C19.5994 18.5294 19.5666 18.4636 19.5338 18.3978C19.5502 18.3814 19.583 18.3649 19.6158 18.3649C19.6814 18.3649 19.7306 18.4307 19.7306 18.4801Z" fill="#EFEFEF"/>
<path d="M19.9766 18.5953C20.04 18.5953 20.0914 18.5437 20.0914 18.4801C20.0914 18.4165 20.04 18.3649 19.9766 18.3649C19.9132 18.3649 19.8618 18.4165 19.8618 18.4801C19.8618 18.5437 19.9132 18.5953 19.9766 18.5953Z" fill="#EFEFEF"/>
<path d="M20.3375 18.5953C20.4009 18.5953 20.4523 18.5437 20.4523 18.4801C20.4523 18.4165 20.4009 18.3649 20.3375 18.3649C20.2741 18.3649 20.2227 18.4165 20.2227 18.4801C20.2227 18.5437 20.2741 18.5953 20.3375 18.5953Z" fill="#EFEFEF"/>
<path d="M20.7147 18.5953C20.7781 18.5953 20.8295 18.5437 20.8295 18.4801C20.8295 18.4165 20.7781 18.3649 20.7147 18.3649C20.6513 18.3649 20.5999 18.4165 20.5999 18.4801C20.5999 18.5437 20.6513 18.5953 20.7147 18.5953Z" fill="#EFEFEF"/>
<path d="M21.0755 18.5953C21.1389 18.5953 21.1903 18.5437 21.1903 18.4801C21.1903 18.4165 21.1389 18.3649 21.0755 18.3649C21.0121 18.3649 20.9607 18.4165 20.9607 18.4801C20.9607 18.5437 21.0121 18.5953 21.0755 18.5953Z" fill="#EFEFEF"/>
<path d="M21.4363 18.5953C21.4998 18.5953 21.5512 18.5437 21.5512 18.4801C21.5512 18.4165 21.4998 18.3649 21.4363 18.3649C21.3729 18.3649 21.3215 18.4165 21.3215 18.4801C21.3215 18.5437 21.3729 18.5953 21.4363 18.5953Z" fill="#EFEFEF"/>
<path d="M21.7971 18.5953C21.8605 18.5953 21.9119 18.5437 21.9119 18.4801C21.9119 18.4165 21.8605 18.3649 21.7971 18.3649C21.7337 18.3649 21.6823 18.4165 21.6823 18.4801C21.6823 18.5437 21.7337 18.5953 21.7971 18.5953Z" fill="#EFEFEF"/>
<path d="M22.158 18.5953C22.2214 18.5953 22.2728 18.5437 22.2728 18.4801C22.2728 18.4165 22.2214 18.3649 22.158 18.3649C22.0946 18.3649 22.0432 18.4165 22.0432 18.4801C22.0432 18.5437 22.0946 18.5953 22.158 18.5953Z" fill="#EFEFEF"/>
<path d="M22.4368 18.3978C22.4204 18.4307 22.4204 18.4472 22.404 18.4801C22.404 18.4472 22.4204 18.4307 22.4368 18.3978Z" fill="#EFEFEF"/>
<path d="M19.6323 18.0853C19.6323 18.1511 19.5831 18.2004 19.5174 18.2004C19.501 18.2004 19.4846 18.2004 19.4846 18.2004C19.4846 18.184 19.4846 18.1675 19.4682 18.1511C19.4518 18.1017 19.4518 18.0688 19.4518 18.0194V18.003C19.4682 17.9865 19.501 17.9701 19.5338 17.9701C19.5831 17.9701 19.6323 18.0194 19.6323 18.0853Z" fill="#EFEFEF"/>
<path d="M19.8782 18.2004C19.9416 18.2004 19.993 18.1489 19.993 18.0853C19.993 18.0217 19.9416 17.9701 19.8782 17.9701C19.8148 17.9701 19.7634 18.0217 19.7634 18.0853C19.7634 18.1489 19.8148 18.2004 19.8782 18.2004Z" fill="#EFEFEF"/>
<path d="M20.2391 18.2004C20.3025 18.2004 20.3539 18.1489 20.3539 18.0853C20.3539 18.0217 20.3025 17.9701 20.2391 17.9701C20.1757 17.9701 20.1243 18.0217 20.1243 18.0853C20.1243 18.1489 20.1757 18.2004 20.2391 18.2004Z" fill="#EFEFEF"/>
<path d="M20.5999 18.2004C20.6633 18.2004 20.7147 18.1489 20.7147 18.0853C20.7147 18.0217 20.6633 17.9701 20.5999 17.9701C20.5365 17.9701 20.4851 18.0217 20.4851 18.0853C20.4851 18.1489 20.5365 18.2004 20.5999 18.2004Z" fill="#EFEFEF"/>
<path d="M20.9607 18.2004C21.0241 18.2004 21.0755 18.1489 21.0755 18.0853C21.0755 18.0217 21.0241 17.9701 20.9607 17.9701C20.8973 17.9701 20.8459 18.0217 20.8459 18.0853C20.8459 18.1489 20.8973 18.2004 20.9607 18.2004Z" fill="#EFEFEF"/>
<path d="M21.3215 18.2004C21.3849 18.2004 21.4363 18.1489 21.4363 18.0853C21.4363 18.0217 21.3849 17.9701 21.3215 17.9701C21.2581 17.9701 21.2067 18.0217 21.2067 18.0853C21.2067 18.1489 21.2581 18.2004 21.3215 18.2004Z" fill="#EFEFEF"/>
<path d="M21.6824 18.2004C21.7458 18.2004 21.7972 18.1489 21.7972 18.0853C21.7972 18.0217 21.7458 17.9701 21.6824 17.9701C21.619 17.9701 21.5676 18.0217 21.5676 18.0853C21.5676 18.1489 21.619 18.2004 21.6824 18.2004Z" fill="#EFEFEF"/>
<path d="M22.0432 18.2004C22.1066 18.2004 22.158 18.1489 22.158 18.0853C22.158 18.0217 22.1066 17.9701 22.0432 17.9701C21.9797 17.9701 21.9283 18.0217 21.9283 18.0853C21.9283 18.1489 21.9797 18.2004 22.0432 18.2004Z" fill="#EFEFEF"/>
<path d="M22.404 18.2004C22.4674 18.2004 22.5188 18.1489 22.5188 18.0853C22.5188 18.0217 22.4674 17.9701 22.404 17.9701C22.3406 17.9701 22.2892 18.0217 22.2892 18.0853C22.2892 18.1489 22.3406 18.2004 22.404 18.2004Z" fill="#EFEFEF"/>
<path opacity="0.3" d="M22.3548 18.5623C22.3384 18.5952 22.322 18.6281 22.2892 18.661C22.2728 18.6939 22.2564 18.7268 22.2236 18.7433C22.1416 18.842 22.0432 18.9407 21.9448 19.0229C21.912 19.0558 21.8628 19.0887 21.8136 19.1052C21.5675 19.2532 21.2887 19.3519 20.9771 19.3519C20.6819 19.3519 20.4195 19.2697 20.1735 19.1381C20.0915 19.0887 20.0095 19.0229 19.9275 18.9571C19.6814 18.7268 19.501 18.4307 19.4354 18.0852C19.8782 18.4965 20.9279 19.2532 22.3548 18.5623Z" fill="#99918F"/>
</g>
<defs>
<clipPath id="clip0_146_973">
<rect width="36" height="28" fill="white" transform="translate(0.771179 0.910156)"/>
</clipPath>
</defs>
</svg>
