<svg width="38" height="24" viewBox="0 0 38 24" fill="none" xmlns="http://www.w3.org/2000/svg">
<g clip-path="url(#clip0_1_5235)">
<path d="M16.1151 2.79193C16.1151 2.79193 3.50121 4.02394 2.32251 7.89595C2.41047 6.58394 2.12899 4.87194 2.76232 3.86394C3.48362 2.69593 7.68825 -0.424073 14.1975 0.91993C14.9012 1.07993 15.5346 1.81593 16.1151 2.79193Z" fill="#344F5E"/>
<path d="M28.5353 17.352C27.6909 18.12 22.8353 18.184 22.6594 20.248C19.1585 19.688 14.602 18.888 12.702 18.648C10.6085 18.392 8.79644 18.184 3.60662 18.504C1.68903 18.616 0.299214 17.16 0.0529174 16.072C0.0353248 16.024 0.0353248 15.96 0.0177322 15.912C-0.0702308 15.208 -0.105416 13.944 0.844585 12.296C1.17884 11.704 1.7594 10.28 2.09366 9.03198C2.25199 10.024 5.70014 13.608 5.73533 13.528C5.73533 13.528 12.4733 14.36 13.7048 13.528C14.9363 12.712 29.3974 16.568 28.5353 17.352Z" fill="#344F5E"/>
<path d="M37.8242 18.3919C37.5427 19.0479 36.9798 19.2719 36.4696 19.4639C35.027 19.9919 32.1594 20.4719 29.5909 20.6799H29.5381C29.0983 20.4399 27.0752 19.2239 29.1335 18.4719C31.5613 17.5919 34.4288 17.3999 36.364 16.7919C38.0353 16.2639 36.3288 15.2239 35.8187 14.9359C36.7687 15.1759 37.789 15.6559 37.9474 16.8719C38.0529 17.5439 37.9825 18.0239 37.8242 18.3919Z" fill="#667A82"/>
<path d="M36.3816 16.792C34.4464 17.4 31.5788 17.592 29.151 18.472C27.0927 19.224 29.0983 20.424 29.5557 20.68C28.0075 20.808 26.5825 20.824 25.6501 20.696C24.8584 20.584 23.8205 20.44 22.6946 20.248C22.8705 18.168 27.726 18.12 28.5705 17.352C29.4149 16.584 14.9538 12.712 13.7399 13.544C12.526 14.376 5.77047 13.544 5.77047 13.544C2.21676 12.776 2.26954 10.04 2.11121 9.048L2.1288 8.984C2.18158 8.808 2.21676 8.648 2.25195 8.472C2.28713 8.296 2.30472 8.104 2.32232 7.912C3.51861 4.03999 16.1149 2.79199 16.1149 2.79199C16.7658 3.87999 17.3464 5.23999 17.8918 6.408C17.8918 6.408 16.8538 8.712 15.1649 8.552C13.476 8.392 5.50658 6.456 4.04639 9.432C3.00843 11.56 11.6112 12.056 12.8603 11.448C14.4084 10.696 17.2408 9.72 17.2408 9.72C17.2408 9.72 22.2899 13.832 28.0603 14.904C33.8307 15.976 32.5992 14.456 32.5992 14.456C33.4085 14.584 34.1825 14.68 34.7983 14.76C35.0973 14.792 35.4668 14.856 35.8362 14.952C36.3464 15.224 38.0529 16.28 36.3816 16.792Z" fill="#E37D3B"/>
<path d="M37.8242 18.3919C37.0325 20.4079 35.2205 20.8399 35.2205 20.8399C35.2205 20.8399 35.1677 20.6319 35.0622 20.5999C34.8686 20.5199 34.4112 20.7279 34.3585 20.9199C34.3233 21.0159 34.5168 21.2559 34.4288 21.3199C34.077 21.6239 33.3381 21.9119 32.8455 21.9439C32.7224 21.9439 32.6872 21.7039 32.5816 21.6399C32.3177 21.5119 31.8427 21.4959 31.4557 21.8319C31.2973 21.9759 31.4733 22.2319 31.3325 22.3599C30.8575 22.7599 29.6436 23.0479 28.9751 22.9679C28.6936 22.9359 28.852 22.4399 28.5881 22.3599C28.2714 22.2639 27.7788 22.3439 27.5853 22.5039C27.3742 22.6639 27.6381 23.0159 27.3918 23.0959C26.7409 23.2879 25.5798 23.5279 24.7177 23.3039C24.5242 23.2559 24.7001 22.7759 24.4714 22.6319C24.2075 22.4559 23.7677 22.3919 23.5038 22.5839C23.3103 22.7279 23.3455 23.2879 23.1696 23.3199C22.8529 23.3519 22.202 23.3679 21.8853 23.1599C20.9353 22.4719 20.1612 21.7839 12.9131 21.1599C11.664 21.0479 11.7168 22.1679 11.2946 22.8399C11.2066 22.9839 11.0307 22.9839 10.1686 22.9039C9.93992 22.8879 10.0103 22.5359 9.78159 22.4719C9.65844 22.4399 8.95473 22.3439 8.67325 22.5359C8.40936 22.7119 8.55011 22.9839 8.42696 22.9839C7.98714 22.9999 7.40659 23.0159 6.8964 23.0159C6.61492 23.0159 6.79084 22.6479 6.54455 22.5199C6.4214 22.4559 5.80566 22.4079 5.55936 22.5519C5.45381 22.6159 5.43621 23.0159 5.27788 23.0159C4.73251 23.0159 4.18714 23.0319 3.94084 23.0319C3.65936 23.0319 3.74732 22.5839 3.50103 22.4719C3.25473 22.3599 2.86769 22.3279 2.67417 22.5199C2.48066 22.6959 2.58621 22.9359 2.44547 22.9359C1.40751 22.9199 0.844543 22.3279 0.615839 21.8319C0.176024 20.9199 0.193616 20.3599 0.0880607 19.0959C-0.0174949 17.8319 0.0704681 16.5679 0.0880607 16.1039C0.334357 17.1919 1.72417 18.6479 3.64177 18.5359C8.83159 18.2159 10.6436 18.4239 12.7371 18.6799C15.2529 18.9999 22.4307 20.2959 25.6501 20.7279C26.6001 20.8559 28.0427 20.8239 29.6261 20.6959C32.1946 20.4879 35.0622 20.0079 36.5048 19.4799C36.9798 19.2719 37.5603 19.0319 37.8242 18.3919Z" fill="#4E6572"/>
<path d="M28.0603 14.904C22.2899 13.832 17.2408 9.71996 17.2408 9.71996C17.2408 9.71996 14.4084 10.696 12.8603 11.448C11.6112 12.056 3.00843 11.56 4.04639 9.44796C5.50658 6.47195 13.476 8.39195 15.1649 8.56795C16.8538 8.72795 17.8918 6.42395 17.8918 6.42395C18.3844 7.46395 18.8242 8.34395 19.264 8.71195C20.6362 9.87996 25.1399 11.96 29.2038 13.608C30.2418 14.024 31.4557 14.28 32.5816 14.472C32.5992 14.456 33.8307 15.976 28.0603 14.904Z" fill="#667A82"/>
<path d="M15.8895 3.41821L14.6417 3.89783L15.0116 4.69366L16.2593 4.21404L15.8895 3.41821Z" fill="#BBC2C6"/>
<path d="M15.1472 4.18401C15.288 4.47201 15.1296 4.80801 14.813 4.93601C14.4963 5.06401 14.1269 4.92001 13.9861 4.63201C13.8454 4.34401 14.0037 4.00801 14.3204 3.88001C14.6371 3.75201 15.0065 3.89601 15.1472 4.18401Z" fill="#BBC2C6"/>
<path d="M17.1602 5.92883L15.9125 6.40845L16.2823 7.20428L17.5301 6.72466L17.1602 5.92883Z" fill="#BBC2C6"/>
<path d="M16.414 6.67985C16.5547 6.96786 16.3964 7.30386 16.0797 7.43186C15.763 7.55986 15.3936 7.41586 15.2528 7.12786C15.1121 6.83985 15.2704 6.50385 15.5871 6.37585C15.9038 6.26385 16.2732 6.39185 16.414 6.67985Z" fill="#BBC2C6"/>
<path d="M17.4346 8.91955L16.5334 9.83948L17.2428 10.4142L18.1439 9.49428L17.4346 8.91955Z" fill="#BBC2C6"/>
<path d="M17.1175 9.89596C17.3814 10.104 17.399 10.472 17.1703 10.712C16.9416 10.952 16.537 10.968 16.2731 10.76C16.0092 10.552 15.9916 10.184 16.2203 9.94396C16.449 9.70396 16.8536 9.68796 17.1175 9.89596Z" fill="#BBC2C6"/>
<path d="M20.5687 11.0466L19.9247 12.1305L20.7605 12.5412L21.4045 11.4573L20.5687 11.0466Z" fill="#BBC2C6"/>
<path d="M20.4954 12.0719C20.7945 12.2159 20.9176 12.5679 20.7593 12.8559C20.6009 13.1279 20.2139 13.2399 19.8972 13.0959C19.5981 12.9519 19.475 12.5999 19.6333 12.3119C19.8092 12.0239 20.1963 11.9119 20.4954 12.0719Z" fill="#BBC2C6"/>
<path d="M23.6337 12.3307L23.3152 13.5282L24.2386 13.7313L24.5571 12.5338L23.6337 12.3307Z" fill="#BBC2C6"/>
<path d="M23.8735 13.3359C24.2078 13.4159 24.4189 13.7199 24.3309 14.0239C24.243 14.3279 23.9087 14.5199 23.5745 14.4399C23.2402 14.3599 23.0291 14.0559 23.117 13.7519C23.1874 13.4479 23.5217 13.2559 23.8735 13.3359Z" fill="#BBC2C6"/>
<path d="M26.9159 13.4033L26.5974 14.6008L27.5208 14.804L27.8393 13.6064L26.9159 13.4033Z" fill="#BBC2C6"/>
<path d="M27.1457 14.408C27.48 14.488 27.6911 14.792 27.6032 15.096C27.5152 15.4 27.1809 15.592 26.8467 15.512C26.5124 15.432 26.3013 15.128 26.3893 14.824C26.4596 14.52 26.8115 14.328 27.1457 14.408Z" fill="#BBC2C6"/>
<path d="M30.2771 14.7279C30.6114 14.8079 30.8225 15.1119 30.7345 15.4159C30.6465 15.7199 30.3123 15.9119 29.978 15.8319C29.6438 15.7519 29.4327 15.4479 29.5206 15.1439C29.591 14.8399 29.9252 14.6479 30.2771 14.7279Z" fill="#BBC2C6"/>
<path d="M30.1187 15.464L30.0307 15.448C29.89 15.4 29.8196 15.256 29.8724 15.128L30.4002 13.768C30.453 13.64 30.6113 13.576 30.752 13.624C30.8928 13.672 30.9631 13.816 30.9104 13.944L30.3826 15.304C30.3474 15.4 30.2418 15.464 30.1187 15.464Z" fill="#BE3F28"/>
<path d="M27.2686 14.2H27.1982C27.0575 14.168 26.9695 14.04 27.0047 13.896L27.339 12.648C27.3742 12.5201 27.5149 12.424 27.6732 12.472C27.814 12.504 27.9019 12.632 27.8668 12.776L27.5325 14.024C27.4973 14.12 27.3917 14.2 27.2686 14.2Z" fill="#BE3F28"/>
<path d="M24.0492 12.9039H23.9789C23.8381 12.8719 23.7502 12.7439 23.7853 12.5999L24.1548 11.2239C24.19 11.0959 24.3307 10.9999 24.4891 11.0479C24.6298 11.0799 24.7178 11.2079 24.6826 11.3519L24.3131 12.7279C24.2779 12.8239 24.1724 12.9039 24.0492 12.9039Z" fill="#BE3F28"/>
<path d="M20.8827 11.672C20.8475 11.672 20.7947 11.656 20.7595 11.64C20.6188 11.576 20.5836 11.416 20.654 11.304L21.4984 9.87995C21.5687 9.75195 21.7271 9.71995 21.8678 9.78395C22.0086 9.84795 22.0437 10.008 21.9734 10.12L21.1289 11.544C21.0762 11.624 20.9706 11.672 20.8827 11.672Z" fill="#BE3F28"/>
<path d="M16.8362 6.77583C16.7306 6.77583 16.6251 6.71183 16.5899 6.63183C16.5371 6.50383 16.5899 6.35983 16.7306 6.31183L17.8566 5.87983C17.9973 5.83183 18.1556 5.87983 18.2084 6.00783C18.2612 6.13583 18.2084 6.27983 18.0677 6.32783L16.9418 6.75983C16.9066 6.75983 16.8714 6.77583 16.8362 6.77583Z" fill="#BE3F28"/>
<path d="M15.6048 4.26388C15.4992 4.26388 15.3936 4.19988 15.3585 4.10388C15.3057 3.97588 15.3585 3.83188 15.4992 3.78388L16.6603 3.33589C16.8011 3.28789 16.9594 3.33588 17.0122 3.46388C17.0649 3.59188 17.0122 3.73588 16.8714 3.78388L15.7103 4.23188C15.6751 4.24788 15.6399 4.26388 15.6048 4.26388Z" fill="#BE3F28"/>
<path d="M17.6278 9.60784C17.5575 9.60784 17.5047 9.59184 17.4519 9.54384C17.3464 9.44784 17.3288 9.28784 17.4343 9.19184L18.7538 7.84783C18.8593 7.75183 19.0352 7.73583 19.1408 7.83183C19.2463 7.92783 19.2639 8.08783 19.1584 8.18383L17.8389 9.52784C17.7862 9.57584 17.7158 9.60784 17.6278 9.60784Z" fill="#BE3F28"/>
</g>
<defs>
<clipPath id="clip0_1_5235">
<rect width="38" height="22.8" fill="white" transform="translate(0 0.599976)"/>
</clipPath>
</defs>
</svg>
