<svg width="41" height="33" viewBox="0 0 41 33" fill="none" xmlns="http://www.w3.org/2000/svg">
<path d="M8.36215 5.8029C8.33783 5.87551 8.26485 5.92391 8.2162 5.89971C8.16756 5.87551 8.16756 5.8029 8.2162 5.7303C8.24053 5.65769 8.3135 5.60929 8.36215 5.63349C8.38647 5.63349 8.38647 5.7303 8.36215 5.8029Z" fill="#7CE1F2"/>
<path d="M8.99466 6.28692C8.99466 6.28692 8.07034 5.82709 7.85142 5.48827C7.6325 5.14944 7.68115 4.5686 7.68115 4.5686L8.99466 6.28692Z" fill="#7CE1F2"/>
<path d="M8.31351 5.70587C8.21621 5.87529 8.07026 5.99629 7.97297 5.92369C7.87567 5.87529 7.87567 5.68167 7.97297 5.51226C8.07026 5.34285 8.21621 5.22184 8.31351 5.29444C8.41081 5.34285 8.41081 5.53646 8.31351 5.70587Z" fill="#7CE1F2"/>
<path d="M20.646 10.3043C20.646 10.3043 19.7703 10.4737 18.5541 11.8532C17.3379 13.2327 17.2892 12.7971 15.9271 13.9588V15.1689C15.9271 15.1689 18.1406 14.588 20.3784 12.4825L20.646 10.3043Z" fill="#F4A422"/>
<path d="M15.9028 15.1932C15.9028 15.1932 14.492 14.8544 15.9028 9.82043C15.9028 9.82043 16.0731 9.86884 16.292 9.96564C16.3163 11.3693 16.5109 12.7246 16.365 13.6201C16.219 14.5156 15.9028 15.1932 15.9028 15.1932Z" fill="#F4A422"/>
<path d="M15.2947 13.4747C15.2947 15.0478 15.9271 15.1931 15.9271 15.1931C15.9271 15.1931 18.1406 14.6122 20.3785 12.5067L20.6704 10.3043C20.6704 10.3043 19.7947 10.4737 18.5785 11.8532C17.4839 13.0633 17.3379 12.8939 16.4136 13.5957C16.4379 13.4021 16.4622 13.2085 16.4622 12.9907L15.2947 13.4747Z" fill="#8A9CBC"/>
<path d="M16.4379 12.9907C16.4379 12.9907 15.392 13.4989 15.2947 13.4747L16.4379 12.9907Z" fill="#F4A422"/>
<path d="M16.5838 10.2075C16.5838 10.2075 16.9 10.0381 17.0216 10.1833C17.0216 10.1833 17.1189 10.2317 16.7054 10.4011L16.5838 10.2075Z" fill="#F4A422"/>
<path d="M16.3162 10.6917C16.3162 10.6917 16.9243 10.3287 16.754 10.2077C16.5594 10.0867 16.1459 10.5465 16.1459 10.5465L16.3162 10.6917Z" fill="#F4A422"/>
<path d="M15.6594 9.43286C15.6594 9.43286 15.4161 10.4735 15.6837 10.6429C15.9026 10.764 16.3161 10.9092 16.7053 9.86849L15.6594 9.43286Z" fill="#F4A422"/>
<path d="M2.5 31.3114C2.5 31.1178 11.7432 24.7043 22.4459 20.5416C33.173 16.379 38.5 14.2976 38.5 14.2976C38.5 14.2976 33.927 23.3006 23.3459 27.4875C12.7405 31.6744 2.5 31.3114 2.5 31.3114Z" fill="#3AAEC9"/>
<g opacity="0.3">
<path opacity="0.3" d="M8.2405 29.0846C15.3189 25.3817 23.4675 26.3256 29.2567 23.2035C32.6865 21.3642 34.8756 18.3632 34.9243 15.6768C34.3892 15.8946 33.781 16.1124 33.1243 16.3787C30.4 18.1696 24.6837 21.3884 17.0459 22.8647C12.9108 24.8009 9.28645 26.8822 6.65942 28.5037C6.7324 28.6005 6.78105 28.6731 6.85402 28.7699C7.19456 29.2056 7.77834 29.3266 8.2405 29.0846Z" fill="#3AAEC9"/>
</g>
<path d="M4.81082 22.5988C4.81082 22.5988 2.5973 22.5262 6.53785 27.9474C6.85406 28.383 7.43785 28.5282 7.92433 28.262C15.0027 24.5591 23.1514 25.503 28.9405 22.381C32.6135 20.4206 34.8514 17.105 34.5838 14.2976C34.5838 14.2976 22.2027 24.3171 4.81082 22.5988Z" fill="#FF7517"/>
<path d="M34.2919 14.104C33.6838 14.1766 30.6919 16.1611 26.0946 17.0808C26.0946 17.0808 22.9568 17.2986 19.0649 18.2909C18.2865 18.2425 17.6784 18.2425 17.4109 18.2909C16.2433 18.4845 13.1298 20.348 13.1298 20.348C8.87301 22.1632 8.11896 22.8892 4.81085 22.5988C4.81085 22.5988 15.8298 25.9144 27.5784 20.7595C27.5784 20.7595 31.6163 18.9201 33.246 16.8146C34.8271 15.0237 34.9 14.0314 34.2919 14.104Z" fill="#FF8B1A"/>
<path opacity="0.2" d="M16.2918 23.5426C16.2918 23.5426 17.581 21.8001 24.1729 19.9849C28.9891 18.9443 31.5918 18.8233 34.6324 14.3459C34.6567 14.3459 32.4188 22.6713 16.2918 23.5426Z" fill="#FF8B1A"/>
<path opacity="0.2" d="M19.065 18.2909C19.065 18.2909 27.9433 19.5978 29.4028 18.2909C30.8623 16.984 26.8488 16.984 25.8028 17.1051C25.8028 17.0809 21.9352 17.4439 19.065 18.2909Z" fill="#FF8B1A"/>
<path d="M26.5082 20.7108C18.2622 24.1475 10.4785 23.2278 7.19468 22.5986C7.02441 22.6228 6.85414 22.647 6.68387 22.647C9.50549 23.2762 17.7758 24.5589 26.6055 20.9044C26.7758 20.8076 26.6785 20.6382 26.5082 20.7108Z" fill="#75431F"/>
<path d="M31.0082 18.0486C31.0082 18.0486 32.3461 17.0805 32.8569 16.4513C33.5379 15.6042 34.0731 14.854 33.6839 14.4183C33.7325 14.6362 33.7812 15.1686 32.7596 16.3545C32.2244 16.9595 30.9109 17.8792 30.9109 17.8792L31.0082 18.0486Z" fill="#75431F"/>
<path d="M17.9946 23.0341C17.9703 23.0341 17.9459 23.0341 17.9216 23.0099C17.8973 22.9857 15.3432 20.1299 13.373 20.2993C13.3243 20.2993 13.2757 20.2751 13.2757 20.2267C13.2757 20.1783 13.3 20.1299 13.3486 20.1299C15.4162 19.9363 17.9459 22.7679 18.0676 22.8889C18.0919 22.9131 18.0919 22.9857 18.0676 23.0099C18.0432 23.0099 18.0189 23.0341 17.9946 23.0341Z" fill="#75431F"/>
<path d="M22.3244 22.4048C22.3001 22.4048 22.2758 22.4048 22.2515 22.3806C22.2271 22.3564 19.8434 19.3554 16.9244 18.4842C16.8758 18.46 16.8515 18.4116 16.8758 18.3874C16.9001 18.339 16.9488 18.3148 16.9731 18.339C19.965 19.2102 22.3731 22.2354 22.3974 22.2596C22.4217 22.308 22.4217 22.3564 22.3731 22.3806C22.3488 22.4048 22.3488 22.4048 22.3244 22.4048Z" fill="#75431F"/>
<path d="M26.581 20.856C26.5567 20.856 26.5567 20.856 26.5324 20.856C26.4837 20.8076 21.5945 18.0003 16.9729 18.4843C16.9243 18.4843 16.8756 18.4601 16.8756 18.4117C16.8756 18.3633 16.8999 18.3149 16.9486 18.3149C21.6432 17.8308 26.5567 20.6624 26.6053 20.6866C26.654 20.7108 26.654 20.7592 26.6297 20.8076C26.6297 20.8318 26.6053 20.856 26.581 20.856Z" fill="#75431F"/>
<path d="M12.6921 23.2762C12.6677 23.2762 12.6191 23.252 12.6191 23.2278C11.938 21.7757 10.4542 21.5337 10.4299 21.5337C10.3813 21.5337 10.3569 21.5095 10.3569 21.4611C10.3569 21.4127 10.3813 21.3885 10.4056 21.3643C12.8867 20.372 21.7894 21.9935 22.1785 22.0661C22.2272 22.0661 22.2515 22.1145 22.2515 22.1629C22.2515 22.2113 22.2029 22.2355 22.1542 22.2355C22.0569 22.2113 13.5434 20.6624 10.7461 21.4369C11.2326 21.5821 12.2299 22.0177 12.765 23.1552C12.7894 23.2036 12.765 23.252 12.7164 23.2762H12.6921Z" fill="#75431F"/>
<path d="M26.5813 20.8561C26.5569 20.8561 26.5569 20.8561 26.5813 20.8561C26.4596 20.8319 16.7299 19.2588 13.3975 20.2995C13.3488 20.3237 13.3002 20.2995 13.3002 20.251C13.2759 20.2026 13.3002 20.1542 13.3488 20.1542C16.7056 19.1136 26.1921 20.6383 26.5813 20.7109C26.6299 20.7109 26.6542 20.7593 26.6542 20.8077C26.6542 20.8319 26.6056 20.8561 26.5813 20.8561Z" fill="#75431F"/>
<path d="M17.9946 23.0342C17.8973 23.01 11.0621 21.5095 7.2189 22.6711C7.17025 22.6953 7.1216 22.6711 7.1216 22.6227C7.09728 22.5743 7.1216 22.5259 7.17025 22.5259C11.0378 21.34 17.9459 22.8647 18.0189 22.8647C18.0675 22.8647 18.0919 22.9132 18.0919 22.9616C18.0675 23.01 18.0432 23.0342 17.9946 23.0342Z" fill="#75431F"/>
<path d="M26.5082 20.6864C26.5812 20.8074 26.5812 20.9526 26.5082 21.001C26.4352 21.0494 26.3136 21.001 26.2163 20.88C26.1433 20.759 26.1433 20.6137 26.2163 20.5653C26.3136 20.4927 26.4352 20.5653 26.5082 20.6864Z" fill="#75431F"/>
<path d="M32.5164 16.7173C32.5894 16.7899 32.5894 16.9109 32.5407 16.9594C32.4921 17.0078 32.3948 16.9836 32.3218 16.8867C32.2488 16.8141 32.2488 16.6931 32.2975 16.6447C32.3461 16.5963 32.4434 16.6447 32.5164 16.7173Z" fill="#75431F"/>
<path d="M33.3676 15.7011C33.4162 15.7495 33.4405 15.8221 33.4162 15.8463C33.3919 15.8947 33.3189 15.8705 33.2459 15.8221C33.1973 15.7737 33.173 15.7011 33.1973 15.6769C33.2216 15.6285 33.2946 15.6527 33.3676 15.7011Z" fill="#75431F"/>
<path d="M31.0812 17.8792C31.1541 17.976 31.1298 18.097 31.0812 18.1454C31.0082 18.1938 30.9109 18.1454 30.8379 18.0244C30.765 17.9276 30.7893 17.8066 30.8379 17.7582C30.9109 17.734 31.0082 17.7824 31.0812 17.8792Z" fill="#75431F"/>
<path d="M6.95144 22.429C7.14604 22.4532 7.29198 22.55 7.26766 22.6468C7.24333 22.7436 7.09739 22.792 6.90279 22.7678C6.7082 22.7436 6.56225 22.6468 6.58658 22.55C6.6109 22.4774 6.78117 22.4048 6.95144 22.429Z" fill="#75431F"/>
<path d="M22.3487 22.1389C22.3973 22.2357 22.3973 22.3567 22.3243 22.4051C22.2514 22.4535 22.1541 22.3809 22.0811 22.2841C22.0324 22.1873 22.0324 22.0663 22.1054 22.0179C22.1784 21.9695 22.2757 22.0179 22.3487 22.1389Z" fill="#75431F"/>
<path d="M18.1162 22.9859C18.1649 23.0827 18.1162 23.2037 18.0676 23.2279C17.9946 23.2521 17.8973 23.1795 17.873 23.0827C17.8243 22.9859 17.873 22.8649 17.9216 22.8407C17.9946 22.7923 18.0919 22.8649 18.1162 22.9859Z" fill="#75431F"/>
<path d="M12.8136 23.252C12.838 23.3488 12.7893 23.4214 12.7163 23.4214C12.6677 23.4214 12.5947 23.373 12.5947 23.2762C12.5704 23.1794 12.619 23.1068 12.692 23.1068C12.7407 23.1068 12.7893 23.1552 12.8136 23.252Z" fill="#75431F"/>
<path d="M30.9596 18.0486C30.9353 18.0486 30.9109 18.0486 30.9109 18.0244C29.9136 17.0805 28.3812 16.9353 27.5542 16.9353C27.2136 16.9353 26.9947 16.9595 26.9947 16.9595C26.9461 16.9595 26.8974 16.9353 26.8974 16.8869C26.8974 16.8385 26.9218 16.7901 26.9704 16.7901C26.9704 16.7901 27.6758 16.6207 28.8677 16.2577C31.0812 15.5558 33.6109 14.3457 33.6353 14.3457C33.6596 14.3215 33.7082 14.3457 33.7326 14.3699C34.1704 14.854 33.3191 15.9914 32.7353 16.5965C31.9326 17.4435 30.9839 18.0244 30.9839 18.0486C30.9839 18.0244 30.9596 18.0486 30.9596 18.0486ZM27.7245 16.7659C28.5758 16.7901 29.9866 16.9595 30.9839 17.855C31.2028 17.7098 31.9812 17.1773 32.638 16.4755C33.2947 15.7736 33.8542 14.8782 33.6596 14.5393C33.2461 14.7329 30.9596 15.7978 28.9163 16.4513C28.4299 16.5723 28.0163 16.6933 27.7245 16.7659Z" fill="#75431F"/>
<path d="M32.4189 16.8869C32.3946 16.8869 32.3703 16.8869 32.3703 16.8627C32.3703 16.8627 31.3973 15.9188 29.7676 16.1367C29.7189 16.1367 29.6703 16.1125 29.6703 16.064C29.6703 16.0156 29.6946 15.9672 29.7432 15.9672C31.4703 15.7252 32.4432 16.6933 32.4919 16.7417C32.5162 16.7659 32.5162 16.8385 32.4919 16.8627C32.4676 16.8869 32.4432 16.8869 32.4189 16.8869Z" fill="#75431F"/>
<path d="M33.246 15.7976C33.2217 15.7976 33.173 15.7734 33.1487 15.7734C32.6622 15.5072 32.2001 15.362 31.7136 15.3862C31.6649 15.3862 31.6163 15.362 31.6163 15.3136C31.6163 15.2652 31.6406 15.2168 31.6892 15.2168C32.1757 15.1926 32.6865 15.3378 33.1974 15.6282C33.1974 15.6282 33.2217 15.6282 33.2217 15.6524H33.246C33.2947 15.6766 33.2947 15.725 33.2703 15.7734C33.2947 15.7734 33.2703 15.7976 33.246 15.7976Z" fill="#75431F"/>
<path d="M4.64054 22.9378L4.44594 22.7441C4.05676 23.083 3.83784 24.1962 6.56216 27.9475C6.68378 28.1169 6.85405 28.2379 7.02432 28.3105C4.37297 24.5351 4.64054 22.9378 4.64054 22.9378Z" fill="#FF8B1A"/>
<path d="M34.6568 14.3462C34.6568 14.3462 34.073 17.3714 27.6027 20.7596C15.8297 25.9146 4.81081 22.599 4.81081 22.599C4.81081 22.599 4.2027 22.5748 4.2027 23.3492C13.0811 25.5274 29.1108 24.0269 34.5108 15.8467C34.6081 15.3385 34.7054 14.8544 34.6568 14.3462Z" fill="#FFA42C"/>
<path d="M8.58115 27.9233C8.89736 27.4876 9.65142 27.052 10.1379 26.931C10.2838 26.8826 10.4541 26.9068 10.6001 26.8584C10.6001 26.8584 10.6001 26.7374 10.6974 26.5438C10.8676 26.2776 11.4028 26.2776 11.646 26.447C11.8163 26.1081 12.2055 25.6483 12.5947 26.1081C12.7893 25.6241 13.7622 25.4063 14.1757 25.8903C14.2974 25.8177 14.3217 25.6967 14.6622 25.6241C14.9784 25.5515 15.2217 25.6967 16.146 25.5999L12.3028 26.9068C9.72439 27.7781 9.26223 27.7781 8.58115 27.9233Z" fill="#7CE1F2"/>
<path d="M20.3053 18.1455C20.3053 18.1455 27.2621 19.162 28.4053 18.1455C29.5486 17.129 26.4107 17.129 25.5837 17.2017C25.5837 17.2017 22.5675 17.4921 20.3053 18.1455Z" fill="#202A35"/>
<path d="M22.4217 18.1698C22.0568 18.1213 21.7649 17.8309 21.6919 17.4679C21.6433 17.2259 21.5703 16.9113 21.473 16.645C21.2055 15.9916 18.0433 10.6188 21.0352 10.1832C24.4892 9.69917 24.4649 11.3449 25.4865 13.4988C26.0217 14.6605 26.7271 16.403 26.8487 17.5889C26.873 17.7583 26.8 17.9277 26.7028 18.0487C26.6055 18.1698 26.4352 18.2666 26.2649 18.2666C25.4865 18.3392 24.0028 18.4118 22.4217 18.1698Z" fill="#295282"/>
<path opacity="0.3" d="M25.3891 16.4031C25.3891 15.5802 21.4486 14.3701 20.3053 14.0313C20.7675 15.2414 21.3756 16.3547 21.4972 16.6209C21.6188 16.8871 21.6918 17.2017 21.7161 17.4437C21.7405 17.6132 21.8134 17.7584 21.9107 17.8552C22.9567 17.6858 25.3891 17.1533 25.3891 16.4031Z" fill="#295282"/>
<path d="M21.619 8.51355C21.619 8.51355 21.7163 9.74784 22.0325 10.4497L20.5244 10.8611C20.5244 10.8611 20.6947 10.2319 20.2082 9.74784L21.619 8.51355Z" fill="#F4A422"/>
<path d="M18.6999 7.01282C18.6999 7.01282 18.627 8.02929 18.8702 8.44071C19.1134 8.85214 19.0891 7.20643 19.0891 7.20643L18.6999 7.01282Z" fill="#774419"/>
<path d="M18.846 8.24702C18.9919 9.4571 19.673 10.3768 20.4757 10.3042C21.3028 10.2074 21.8379 9.14248 21.6919 7.93239C21.546 6.72231 20.8406 6.06886 20.0136 6.16567C19.2109 6.23828 18.7244 7.03693 18.846 8.24702Z" fill="#F9B74B"/>
<path d="M21.8135 8.39247C21.8135 8.39247 22.2513 6.11751 21.5459 5.87549C21.5459 5.87549 21.3513 5.51247 20.8162 5.39146C20.3541 5.29465 19.2838 5.27045 18.6757 6.55314C18.6757 6.55314 18.5297 6.77096 18.0432 6.55314C18.0432 6.55314 18.4324 7.13398 18.9189 7.25499C19.5757 7.4486 20.6946 6.64995 20.9135 6.81936C21.1324 6.96457 21.1081 8.05365 21.5459 8.07785C21.5703 8.07785 21.5216 8.61028 21.8135 8.39247Z" fill="#774419"/>
<path d="M21.5459 8.17457C21.5459 8.51339 21.5945 8.80381 21.7405 8.80381C21.9108 8.80381 22.1054 8.53759 22.1297 8.19877C22.1297 7.85995 22.0081 7.56953 21.8621 7.56953C21.6918 7.54533 21.5459 7.83575 21.5459 8.17457Z" fill="#F9B74B"/>
<path d="M21.7406 8.19865C21.7406 8.36807 21.7649 8.51327 21.8135 8.51327C21.8865 8.51327 21.9838 8.36807 21.9838 8.19865C21.9838 8.02924 21.9352 7.88403 21.8622 7.88403C21.8135 7.90823 21.7406 8.02924 21.7406 8.19865Z" fill="#F4A422"/>
<path d="M18.335 6.11768C18.335 6.11768 18.5053 6.86793 18.9431 6.86793L19.1134 6.4807C19.1134 6.4807 18.6026 6.4807 18.335 6.11768Z" fill="#774419"/>
<path d="M22.2271 10.4252C22.2757 10.643 21.473 11.2722 20.9622 11.4175C20.4514 11.5385 20.4271 11.127 20.3784 10.9092C20.3298 10.6914 20.6947 10.401 21.2055 10.2558C21.7163 10.1106 22.1784 10.1832 22.2271 10.4252Z" fill="#F4A422"/>
<path d="M13.3515 7.39707L13.0005 7.79895L30.7363 23.1331L31.0873 22.7312L13.3515 7.39707Z" fill="#202A35"/>
<path d="M16.7055 9.94136C16.5839 10.0866 16.2676 10.0382 15.9758 9.82035C15.6839 9.60254 15.5136 9.36052 15.6109 9.21531C15.7325 9.0701 16.3163 9.38473 16.4136 9.45733C16.5352 9.52994 16.8028 9.79615 16.7055 9.94136Z" fill="#F9B74B"/>
<path d="M15.854 9.38452C15.854 9.38452 15.3189 10.0864 15.5135 10.2316C15.6594 10.3284 16.0486 9.60234 16.0486 9.60234L15.854 9.38452Z" fill="#F9B74B"/>
<path d="M16.073 9.67505C16.073 9.67505 15.6351 10.3527 15.7811 10.4737C15.927 10.5947 16.3162 9.86866 16.3162 9.86866L16.073 9.67505Z" fill="#F9B74B"/>
<path d="M16.3404 9.91711C16.3404 9.91711 15.9513 10.5948 16.1215 10.6674C16.2675 10.7642 16.7053 9.94132 16.7053 9.94132L16.3404 9.91711Z" fill="#F9B74B"/>
<path d="M15.6351 9.21533C15.6351 9.21533 15.246 9.82038 15.3433 9.91718C15.4405 10.014 15.8541 9.36054 15.8541 9.36054L15.6351 9.21533Z" fill="#F9B74B"/>
<path d="M15.4405 9.72361C15.4161 9.69941 15.4161 9.6268 15.4405 9.5542C15.3675 9.72361 15.2945 9.86882 15.3432 9.91722C15.3918 9.96563 15.5621 9.79621 15.6837 9.6026C15.5621 9.72361 15.4891 9.77201 15.4405 9.72361Z" fill="#F4A422"/>
<path opacity="0.7" d="M15.6352 10.0625C15.5623 10.0141 15.5623 9.91727 15.6109 9.79626C15.5136 9.96568 15.4407 10.1593 15.538 10.2319C15.6109 10.2803 15.7569 10.1109 15.8785 9.94148C15.7812 10.0383 15.6839 10.0867 15.6352 10.0625Z" fill="#F4A422"/>
<path opacity="0.7" d="M15.9028 10.2558C15.8541 10.2074 15.8541 10.1106 15.8784 9.98962C15.7811 10.1832 15.7082 10.4011 15.7811 10.4495C15.8541 10.5221 16.0001 10.3284 16.1217 10.1348C16.0244 10.2558 15.9514 10.3042 15.9028 10.2558Z" fill="#F4A422"/>
<path opacity="0.7" d="M16.2432 10.4255C16.1945 10.4013 16.1702 10.3286 16.1945 10.2076C16.0972 10.4013 16.0242 10.6191 16.1215 10.6675C16.1945 10.7159 16.3648 10.5223 16.4864 10.3044C16.3891 10.4013 16.3161 10.4497 16.2432 10.4255Z" fill="#F4A422"/>
<path d="M13.8095 7.51633L13.1873 8.22876L13.4994 8.49862L14.1216 7.78619L13.8095 7.51633Z" fill="#202A35"/>
<path d="M30.5902 22.0499L29.968 22.7623L30.2801 23.0322L30.9024 22.3198L30.5902 22.0499Z" fill="#202A35"/>
<path d="M31.8837 26.2288C31.1783 25.6238 31.1297 24.5589 31.7378 23.857L31.8837 23.6876C32.4918 22.9858 33.5621 22.9374 34.2675 23.5424L35.8729 24.9461C36.5783 25.5512 36.627 26.616 36.0189 27.3179L35.8729 27.4873C35.2648 28.1891 34.1945 28.2375 33.4891 27.6325L31.8837 26.2288Z" fill="#283642"/>
<path d="M32.9296 23.1312C32.9296 23.1312 31.9323 23.4458 31.1053 22.7197L30.7161 23.1554C31.4944 23.833 31.2998 24.9705 31.2998 24.9705L32.9296 23.1312Z" fill="#283642"/>
<path d="M32.7107 24.9461C32.0297 24.3411 31.5675 23.7602 31.6891 23.6392C31.7864 23.5182 32.4432 23.9055 33.0999 24.4863C33.781 25.0913 34.2432 25.6722 34.1216 25.7932C34.0243 25.9384 33.3675 25.5512 32.7107 24.9461Z" fill="#202A35"/>
<path d="M24.5866 11.3452C25.073 12.1439 25.146 12.9909 24.7325 13.2571C24.319 13.5234 23.5649 13.0877 23.0784 12.3133C22.592 11.5146 22.519 10.6676 22.9325 10.4013C23.346 10.1351 24.1001 10.5466 24.5866 11.3452Z" fill="#8A9CBC"/>
<path d="M12.254 4.35072C12.9594 4.95576 13.008 6.02064 12.3999 6.72248L12.254 6.8919C11.6459 7.59374 10.5756 7.64215 9.87018 7.03711L8.26478 5.63341C7.55937 5.02837 7.51072 3.96349 8.11883 3.26165L8.26478 3.09223C8.87289 2.39038 9.94316 2.34198 10.6486 2.94702L12.254 4.35072Z" fill="#283642"/>
<path d="M11.208 7.44846C11.208 7.44846 12.2053 7.13384 13.0323 7.85989L13.4215 7.42426C12.6431 6.74661 12.8377 5.60913 12.8377 5.60913L11.208 7.44846Z" fill="#283642"/>
<path d="M11.4269 5.63343C12.108 6.23847 12.5701 6.81931 12.4485 6.94032C12.3512 7.06133 11.6945 6.6741 11.0377 6.09326C10.3566 5.48822 9.89446 4.90738 10.0161 4.78637C10.1134 4.66536 10.7701 5.02839 11.4269 5.63343Z" fill="#202A35"/>
<path d="M23.054 10.3525C23.054 10.3525 24.7811 9.74747 28.1378 14.2974C28.1378 14.2974 28.9162 15.5801 27.4081 14.9024C25.9 14.2248 23.2973 12.4097 22.7865 11.5142C22.227 10.5703 23.054 10.3525 23.054 10.3525Z" fill="#9FAED0"/>
<path d="M27.4569 14.5397C27.4569 14.5397 27.092 14.5397 26.7271 15.5078C26.3866 16.4517 26.265 17.3713 26.0217 18.0248C26.119 18.1216 26.3136 18.291 26.3136 18.291C26.3136 18.291 27.9677 16.2096 28.3082 14.9996L27.4569 14.5397Z" fill="#F4A422"/>
<path d="M27.919 15.9193C28.1136 15.5805 28.2595 15.2658 28.3325 14.9754L27.4812 14.4914C27.4812 14.4914 27.092 14.5398 26.7514 15.5079L27.919 15.9193Z" fill="#9FAED0"/>
<path d="M25.5837 17.8068C25.4864 17.952 25.6324 18.2182 25.9 18.4119C26.1675 18.6055 26.4351 18.7023 26.5324 18.5813C26.6297 18.4361 26.1918 18.0004 26.0945 17.9278C25.9973 17.8552 25.681 17.6858 25.5837 17.8068Z" fill="#F9B74B"/>
<path d="M26.5324 18.5812C26.5324 18.5812 26.0945 19.0894 25.9729 19.041C25.8513 18.9684 26.3378 18.4117 26.3378 18.4117L26.5324 18.5812Z" fill="#F9B74B"/>
<path d="M26.3378 18.4119C26.3378 18.4119 25.8269 19.0896 25.6567 18.9444C25.5107 18.8476 26.0702 18.2667 26.0702 18.2667L26.3378 18.4119Z" fill="#F9B74B"/>
<path d="M25.9973 18.3149C25.9973 18.3149 25.5108 18.8957 25.3649 18.7989C25.2189 18.7021 25.7784 18.1454 25.7784 18.1454L25.9973 18.3149Z" fill="#F9B74B"/>
<path d="M25.7053 18.1213C25.7053 18.1213 25.1945 18.6537 25.0729 18.5327C24.9513 18.4117 25.5837 17.8066 25.5837 17.8066L25.7053 18.1213Z" fill="#F9B74B"/>
<path d="M26.119 18.8959C26.1433 18.9201 26.2163 18.8959 26.2893 18.8475C26.1677 18.9686 26.046 19.0654 25.9974 19.0412C25.9244 19.017 26.046 18.8233 26.192 18.6539C26.0947 18.7749 26.0704 18.8717 26.119 18.8959Z" fill="#F4A422"/>
<path opacity="0.7" d="M25.7784 18.8234C25.8271 18.8718 25.9244 18.8476 26.0217 18.775C25.8757 18.9202 25.7298 19.0171 25.6568 18.9686C25.5839 18.9202 25.7055 18.7508 25.8271 18.5814C25.7541 18.6782 25.7298 18.775 25.7784 18.8234Z" fill="#F4A422"/>
<path opacity="0.7" d="M25.5107 18.6296C25.5594 18.6538 25.6567 18.6296 25.754 18.5812C25.608 18.7264 25.4378 18.8474 25.3648 18.799C25.2918 18.7506 25.4134 18.557 25.5594 18.4117C25.4621 18.5085 25.4378 18.6054 25.5107 18.6296Z" fill="#F4A422"/>
<path opacity="0.7" d="M25.2676 18.3633C25.3163 18.4117 25.3892 18.3875 25.4622 18.3633C25.3163 18.4843 25.1217 18.6295 25.073 18.5569C25.0001 18.5085 25.146 18.3149 25.2919 18.1454C25.2433 18.2181 25.219 18.3149 25.2676 18.3633Z" fill="#F4A422"/>
<path d="M6.51347 7.27905C6.51347 7.27905 5.17564 9.52981 5.46753 12.5308C5.46753 12.555 5.49185 12.555 5.51618 12.555C5.5405 12.555 5.5405 12.5308 5.5405 12.5308C5.51618 11.4417 5.6378 9.433 6.68374 7.47267L6.51347 7.27905Z" fill="#7CE1F2"/>
<path d="M7.38914 10.4497C7.38914 10.4497 6.39184 12.8941 7.12157 15.7983C7.12157 15.8225 7.14589 15.8225 7.17022 15.8225C7.19454 15.8225 7.19454 15.7983 7.19454 15.7741C7.02427 14.7092 6.854 12.7005 7.58373 10.6191L7.38914 10.4497Z" fill="#7CE1F2"/>
<path d="M7.82705 7.8114C7.75407 7.95661 7.65678 8.02921 7.5838 8.00501C7.51083 7.98081 7.51083 7.8356 7.55948 7.69039C7.63245 7.54518 7.72975 7.47257 7.80272 7.49677C7.87569 7.52098 7.87569 7.66619 7.82705 7.8114Z" fill="#7CE1F2"/>
<path d="M5.12711 9.62665C5.10278 9.77186 5.00549 9.89287 4.93251 9.86867C4.85954 9.84446 4.81089 9.72346 4.83522 9.57825C4.85954 9.43304 4.95684 9.31203 5.02981 9.33623C5.10278 9.33623 5.15143 9.48144 5.12711 9.62665Z" fill="#7CE1F2"/>
<path d="M8.75128 9.69914C8.72696 9.77175 8.65398 9.82015 8.60533 9.79595C8.55669 9.77175 8.55669 9.69914 8.60533 9.62654C8.62966 9.55393 8.70263 9.50553 8.75128 9.52973C8.7756 9.55393 8.79993 9.62654 8.75128 9.69914Z" fill="#7CE1F2"/>
<path d="M5.51612 7.76316C5.49179 7.83577 5.44314 7.90837 5.41882 7.90837C5.37017 7.90837 5.34584 7.83577 5.37017 7.73896C5.39449 7.66636 5.44314 7.59375 5.46747 7.59375C5.51612 7.59375 5.54044 7.66636 5.51612 7.76316Z" fill="#7CE1F2"/>
<path d="M7.29187 5.6574C7.26755 5.73 7.19457 5.7784 7.14592 5.7542C7.09727 5.73 7.09727 5.6574 7.14592 5.58479C7.17025 5.51219 7.24322 5.46378 7.29187 5.48799C7.31619 5.48799 7.31619 5.58479 7.29187 5.6574Z" fill="#7CE1F2"/>
<path d="M10.3324 9.21526C10.3081 9.28786 10.2351 9.33627 10.1865 9.31207C10.1378 9.28786 10.1378 9.21526 10.1865 9.14265C10.2108 9.07005 10.2838 9.02164 10.3324 9.04585C10.3568 9.04585 10.3568 9.11845 10.3324 9.21526Z" fill="#7CE1F2"/>
<path d="M8.53235 12.1194C8.4837 12.2646 8.3864 12.3614 8.31343 12.3372C8.24046 12.313 8.21613 12.1678 8.26478 12.0226C8.31343 11.8774 8.41073 11.7806 8.4837 11.8048C8.55667 11.8532 8.581 11.9742 8.53235 12.1194Z" fill="#7CE1F2"/>
</svg>
