<svg width="17" height="32" viewBox="0 0 17 32" fill="none" xmlns="http://www.w3.org/2000/svg">
<g clip-path="url(#clip0_1_5465)">
<path d="M19.2 6.40002H13.3334C13.0388 6.40002 12.8 6.63884 12.8 6.93334V13.8666C12.8 14.1612 13.0389 14.3999 13.3334 14.3999H16C18.0586 14.3999 19.7333 12.7252 19.7333 10.6666V6.93334C19.7333 6.63884 19.4945 6.40002 19.2 6.40002Z" fill="#B6C4C6"/>
<path d="M19.1999 6.40002H16.049L14.1871 7.54583C14.1349 7.57796 14.0885 7.61896 14.0501 7.6669L12.7999 9.22964V13.8667C12.7999 14.1613 13.0387 14.4 13.3332 14.4H14.4665V11.3778L15.8972 9.47033L19.7332 7.16871V6.9334C19.7333 6.63884 19.4945 6.40002 19.1999 6.40002Z" fill="#9DB0B3"/>
<path d="M15 13.8668H14.9333C14.6388 13.8668 14.4 13.628 14.4 13.3335C14.4 13.039 14.6388 12.8002 14.9333 12.8002H15C15.2946 12.8002 15.5333 13.039 15.5333 13.3335C15.5333 13.628 15.2946 13.8668 15 13.8668Z" fill="#6D888E"/>
<path d="M11.7334 11.2001H10.6667C10.5252 11.2001 10.3896 11.1439 10.2896 11.0439L5.48956 6.24389C5.28131 6.03557 5.28131 5.69795 5.48956 5.48964C5.69787 5.28145 6.0355 5.28145 6.24381 5.48964L10.8875 10.1334H11.7334C12.0279 10.1334 12.2667 10.3723 12.2667 10.6668C12.2667 10.9613 12.0279 11.2001 11.7334 11.2001Z" fill="#54747B"/>
<path d="M10.7693 8.88367L7.37524 5.48956C7.1698 5.28424 6.82636 5.28424 6.62099 5.48956L5.48956 6.62086C5.28424 6.8263 5.28424 7.16974 5.48956 7.37511L8.88367 10.7692C9.08923 10.9745 9.43242 10.9745 9.63792 10.7692L10.7692 9.63786C10.9775 9.42961 10.9775 9.09198 10.7693 8.88367Z" fill="#9DB0B3"/>
<path d="M10.1691 10.2338C9.96355 10.4392 9.62036 10.4392 9.41486 10.2338L6.02068 6.83976C5.82868 6.64764 5.8163 6.33482 5.98349 6.12708L5.48956 6.62101C5.28424 6.82645 5.28424 7.16988 5.48956 7.37526L8.88367 10.7693C9.08924 10.9747 9.43242 10.9747 9.63792 10.7693L10.1691 10.2338Z" fill="#859CA0"/>
<path d="M20.2104 4.02826L19.6771 2.96158C19.5494 2.7062 19.2431 2.59645 18.9823 2.71333C18.7891 2.7997 18.5903 2.89295 18.38 2.99164C17.1691 3.5597 15.662 4.26676 13.8668 4.26676C10.261 4.26676 8.74096 4.01995 7.13171 3.75864C7.00484 3.73808 6.87365 3.72139 6.74984 3.76639C6.64197 3.80558 6.54709 3.88145 6.48503 3.97795C6.31909 4.23583 6.41072 4.59107 6.68059 4.73639L13.6139 8.4697C13.7822 8.56032 13.9918 8.55276 14.1531 8.45001L20.0197 4.7167C20.2503 4.56995 20.3327 4.2727 20.2104 4.02826Z" fill="#FF8B1B"/>
<path d="M14.6863 7.91743C14.5251 8.02018 14.3155 8.02768 14.1471 7.93712L7.21378 4.20375C7.03797 4.109 6.93847 3.92519 6.93584 3.73738C6.86966 3.73644 6.80391 3.74456 6.73828 3.77056C6.63509 3.81144 6.54503 3.8845 6.48491 3.97794C6.31897 4.23581 6.41059 4.59106 6.68047 4.73637L13.6138 8.46968C13.7821 8.5603 13.9917 8.55274 14.153 8.44999L20.0196 4.71669C20.1459 4.63631 20.2274 4.51062 20.2554 4.37331L14.6863 7.91743Z" fill="#F57811"/>
<path d="M17.0667 10.1334C16.1845 10.1334 15.4667 10.8512 15.4667 11.7334C15.4667 12.6156 16.1845 13.3334 17.0667 13.3334C17.9489 13.3334 18.6667 12.6156 18.6667 11.7334C18.6667 10.8512 17.9489 10.1334 17.0667 10.1334Z" fill="#54747B"/>
<path d="M17.0667 10.6667C16.4786 10.6667 16 11.1453 16 11.7334C16 12.3216 16.4786 12.8001 17.0667 12.8001C17.6548 12.8001 18.1334 12.3216 18.1334 11.7334C18.1334 11.1453 17.6549 10.6667 17.0667 10.6667Z" fill="#6D888E"/>
<path d="M5.86671 18.1333C4.6904 18.1333 3.7334 17.1763 3.7334 16C3.7334 14.8237 4.6904 13.8667 5.86671 13.8667C7.04302 13.8667 8.00001 14.8237 8.00001 16C8.00001 17.1763 7.04308 18.1333 5.86671 18.1333ZM5.86671 14.9334C5.27858 14.9334 4.80002 15.4119 4.80002 16.0001C4.80002 16.5882 5.27858 17.0668 5.86671 17.0668C6.45483 17.0668 6.93339 16.5882 6.93339 16.0001C6.93339 15.4119 6.45495 14.9334 5.86671 14.9334Z" fill="#6D888E"/>
<path d="M11.2 15.4667H11.1733C11.0177 13.9077 10.1875 12.5453 8.98024 11.6739L8.99524 11.6479C9.14248 11.3929 9.05511 11.0667 8.80005 10.9194C8.54499 10.7721 8.2188 10.8595 8.07149 11.1145L8.05724 11.1392C7.54261 10.9064 6.98549 10.7518 6.40005 10.6934V10.6666C6.40005 10.3721 6.16124 10.1333 5.86674 10.1333C5.57218 10.1333 5.33343 10.3721 5.33343 10.6666V10.6934C4.74805 10.7517 4.1908 10.9064 3.67624 11.1392L3.66199 11.1145C3.51468 10.8594 3.18843 10.772 2.93337 10.9192C2.67831 11.0665 2.59081 11.3928 2.73812 11.6479L2.75318 11.6739C2.28687 12.0105 1.87718 12.4202 1.54068 12.8864L1.51462 12.8714C1.2595 12.7241 0.933371 12.8116 0.785996 13.0666C0.638746 13.3217 0.726184 13.6479 0.981246 13.7952L1.00593 13.8095C0.773121 14.3241 0.618559 14.8812 0.560121 15.4666H0.533434C0.238872 15.4666 0.00012207 15.7054 0.00012207 15.9999C0.00012207 16.2945 0.238934 16.5332 0.533434 16.5332H0.560184C0.618559 17.1186 0.773184 17.6758 1.006 18.1903C0.762434 18.329 0.642684 18.6193 0.760746 18.8835C0.896996 19.1886 1.26256 19.2775 1.54075 19.1134C1.87731 19.5797 2.28699 19.9894 2.75324 20.3259C2.61131 20.5682 2.65143 20.8798 2.88662 21.0502C3.15749 21.2465 3.51755 21.1405 3.67624 20.8606C4.19087 21.0934 4.74799 21.248 5.33343 21.3064V21.3332C5.33343 21.6277 5.57224 21.8665 5.86674 21.8665C6.1613 21.8665 6.40005 21.6277 6.40005 21.3332V21.3065C6.98543 21.2481 7.54267 21.0935 8.05724 20.8607C8.21624 21.1403 8.5758 21.2467 8.84686 21.0503C9.08192 20.88 9.12255 20.5681 8.98024 20.326C9.44655 19.9894 9.85623 19.5797 10.1927 19.1135C10.434 19.2554 10.7614 19.2062 10.9242 18.9701C11.108 18.7037 11.0019 18.3463 10.7274 18.1905C10.9602 17.6758 11.1147 17.1187 11.1732 16.5334H11.2C11.4945 16.5334 11.7333 16.2945 11.7333 16C11.7334 15.7056 11.4946 15.4667 11.2 15.4667ZM5.86674 19.7333C3.80824 19.7333 2.13343 18.0585 2.13343 16C2.13343 13.9415 3.80824 12.2667 5.86674 12.2667C7.92524 12.2667 9.60005 13.9415 9.60005 16C9.60005 18.0585 7.9253 19.7333 5.86674 19.7333Z" fill="#3C6168"/>
<path d="M5.86712 16.5334C5.70224 16.5334 5.53974 16.4572 5.43531 16.3137C5.26206 16.0755 5.31468 15.7419 5.55299 15.5687L11.4196 11.302C11.6578 11.1288 11.9914 11.1814 12.1646 11.4197C12.3379 11.6579 12.2852 11.9914 12.0469 12.1647L6.18031 16.4314C6.08568 16.5002 5.97587 16.5334 5.86712 16.5334Z" fill="#234D55"/>
<path d="M21.915 4.95836L21.289 3.52061C21.2272 3.37892 21.1072 3.27092 20.9598 3.22468C20.8124 3.17843 20.6521 3.1983 20.5206 3.2793L13.5873 7.54598C13.535 7.5781 13.4886 7.6191 13.4503 7.66704L11.3169 10.3337C11.2413 10.4283 11.2001 10.5458 11.2001 10.6668V14.9335C11.2001 15.2281 11.4389 15.4668 11.7334 15.4668H13.3334C13.6279 15.4668 13.8667 15.228 13.8667 14.9335V11.378L15.2974 9.47053L21.7004 5.62873C21.9301 5.49073 22.0219 5.20392 21.915 4.95836Z" fill="#FDD349"/>
<path d="M13.8 8.20011L21.3232 3.59911L21.289 3.52049C21.2272 3.3788 21.1072 3.2708 20.9598 3.22455C20.8124 3.1783 20.6521 3.19818 20.5206 3.27918L13.5873 7.54586C13.535 7.57798 13.4886 7.61898 13.4503 7.66692L11.3169 10.3336C11.2413 10.4282 11.2001 10.5457 11.2001 10.6667V14.9334C11.2001 15.228 11.4389 15.4667 11.7334 15.4667V10.7334L13.8 8.20011Z" fill="#FCAF27"/>
<path d="M31.3105 24.6895L29.1772 22.5562C28.9689 22.348 28.6312 22.348 28.4229 22.5562L27.0439 23.9353C26.8356 24.1436 26.4979 24.1436 26.2896 23.9353L24.9105 22.5562C24.7022 22.348 24.3646 22.348 24.1563 22.5562L22.7772 23.9353C22.569 24.1436 22.2312 24.1436 22.023 23.9353L20.6439 22.5562C20.4356 22.348 20.0979 22.348 19.8896 22.5562L18.5106 23.9353C18.3023 24.1436 17.9646 24.1436 17.7563 23.9353L16.3772 22.5562C16.1689 22.348 15.8312 22.348 15.6229 22.5562L14.2439 23.9353C14.0356 24.1436 13.6979 24.1436 13.4896 23.9353L12.1106 22.5562C11.9022 22.348 11.5646 22.348 11.3563 22.5562L9.97725 23.9353C9.769 24.1436 9.43125 24.1436 9.223 23.9353L7.84388 22.5562C7.63557 22.348 7.29794 22.348 7.08963 22.5562L5.7105 23.9353C5.50225 24.1435 5.16451 24.1435 4.95626 23.9353L3.57719 22.5562C3.36888 22.348 3.03126 22.348 2.82295 22.5562L0.689635 24.6895C0.589635 24.7896 0.533447 24.9252 0.533447 25.0667V31.4666C0.533447 31.7612 0.77226 31.9999 1.06676 31.9999H30.9334C31.2279 31.9999 31.4667 31.7611 31.4667 31.4666V25.0667C31.4666 24.9252 31.4105 24.7896 31.3105 24.6895Z" fill="#8B6728"/>
<path d="M31.3104 28.4229L29.1771 26.2896C28.9688 26.0814 28.6311 26.0814 28.4228 26.2896L27.0438 27.6687C26.8355 27.877 26.4978 27.877 26.2895 27.6687L24.9105 26.2896C24.7022 26.0814 24.3645 26.0814 24.1562 26.2896L22.7772 27.6687C22.5689 27.877 22.2312 27.877 22.0229 27.6687L20.6438 26.2896C20.4355 26.0814 20.0979 26.0814 19.8896 26.2896L18.5105 27.6687C18.3023 27.877 17.9645 27.877 17.7563 27.6687L16.3772 26.2896C16.1689 26.0814 15.8313 26.0814 15.623 26.2896L14.2439 27.6687C14.0357 27.877 13.6979 27.877 13.4897 27.6687L12.1106 26.2896C11.9023 26.0814 11.5647 26.0814 11.3564 26.2896L9.9773 27.6687C9.76905 27.877 9.4313 27.877 9.22305 27.6687L7.84399 26.2896C7.63568 26.0814 7.29806 26.0814 7.08974 26.2896L5.71062 27.6687C5.50237 27.8769 5.16462 27.8769 4.95637 27.6687L3.57731 26.2896C3.369 26.0814 3.03138 26.0814 2.82307 26.2896L0.689757 28.4229C0.589757 28.523 0.533569 28.6586 0.533569 28.8001V31.4667C0.533569 31.7613 0.772381 32 1.06688 32H30.9335C31.228 32 31.4668 31.7612 31.4668 31.4667V28.8001C31.4665 28.6586 31.4104 28.523 31.3104 28.4229Z" fill="#B08E53"/>
</g>
<defs>
<clipPath id="clip0_1_5465">
<rect width="32" height="32" fill="white"/>
</clipPath>
</defs>
</svg>
