<svg width="36" height="32" viewBox="0 0 36 32" fill="none" xmlns="http://www.w3.org/2000/svg">
<path d="M34.5647 23.4916C32.6041 19.5304 30.6232 15.5691 29.1678 11.3453C28.3189 8.89411 27.6114 6.33353 26.1965 4.21065C25.3475 2.96319 23.9124 1.80327 22.5986 2.26286C21.2443 2.54737 20.4762 4.2982 20.2943 5.83017C19.9911 8.43452 20.4964 11.0389 20.84 13.6213C21.406 18.0641 21.4262 22.5943 21.4464 27.0808C21.4464 28.1532 21.4464 29.2474 21.4666 30.3198C23.0635 29.8602 24.7209 29.707 26.3784 29.532C26.8635 29.4882 27.3486 29.4444 27.7933 29.6414C28.238 29.8383 28.6019 30.3417 28.4806 30.867C28.7433 31.6329 30.2189 31.1734 30.037 30.4293C29.7136 30.0353 29.8146 29.4006 30.1178 29.0067C30.421 28.6128 30.8859 28.3939 31.3306 28.1751C32.8466 27.4747 34.3828 26.7525 35.9999 26.3148C35.5147 25.3956 35.0296 24.4546 34.5647 23.4916Z" fill="#479DD6"/>
<path d="M24.6305 10.9298C26.1777 10.5037 27.0014 8.32547 26.4703 6.06455C25.9392 3.80363 24.2544 2.31617 22.7072 2.74223C21.16 3.16828 20.3363 5.34651 20.8674 7.60744C21.3985 9.86836 23.0833 11.3558 24.6305 10.9298Z" fill="#81CAEA"/>
<path d="M25.6711 6.28986C26.1157 8.15011 25.57 9.90093 24.4583 10.2073C23.3465 10.5137 22.0933 9.24437 21.6688 7.38412C21.2242 5.52387 21.7699 3.77305 22.8816 3.46665C23.9934 3.16026 25.2264 4.42961 25.6711 6.28986Z" fill="#0C2C48"/>
<path d="M22.2549 14.5185C22.2549 14.5185 22.3559 14.4528 22.5177 14.3872C22.6794 14.2996 22.9017 14.2121 23.1847 14.1027C23.7507 13.8838 24.4783 13.6431 25.2262 13.4242C25.4081 13.3805 25.5901 13.3148 25.7922 13.271C25.9741 13.2273 26.156 13.1835 26.338 13.1397C26.5199 13.0959 26.6816 13.0522 26.8433 13.0303C27.005 12.9865 27.1465 12.9646 27.288 12.9427C27.571 12.8771 27.7731 12.8114 27.9348 12.7458C28.0157 12.702 28.0763 12.6801 28.1167 12.6582C28.1571 12.6364 28.1774 12.6364 28.1774 12.6364L28.3189 12.7677C28.3189 12.7677 28.2784 12.8771 28.1571 13.0522C28.0359 13.2273 27.8337 13.4242 27.571 13.6212C27.4295 13.7087 27.288 13.7963 27.1263 13.8838C26.9646 13.9714 26.8029 14.0589 26.6209 14.1246C26.439 14.2121 26.2571 14.2777 26.0752 14.3434C25.8933 14.4091 25.6911 14.4747 25.489 14.5404C25.2869 14.606 25.1049 14.6498 24.9028 14.6936C24.7007 14.7373 24.5188 14.7592 24.3166 14.803C24.1347 14.8249 23.9528 14.8468 23.7709 14.8468C23.589 14.8468 23.4272 14.8687 23.2858 14.8468C22.9826 14.8468 22.7198 14.803 22.5379 14.7811C22.3559 14.7592 22.2549 14.7155 22.2549 14.7155V14.5185Z" fill="#E6E8EA"/>
<path d="M29.1073 15.416C29.5925 15.5692 29.8957 16.0944 30.1786 16.5978C31.4521 18.9614 32.7255 21.325 33.9989 23.6887C34.3223 24.3014 34.666 24.9142 34.8479 25.5927C34.666 26.0742 34.0596 26.1398 33.6553 25.8772C33.251 25.5927 32.9883 25.0893 32.7659 24.6078C31.6946 22.4631 30.4414 20.4277 29.0467 18.5675C28.7839 18.1954 28.3999 17.8015 28.0158 17.9547C27.5914 18.1298 27.5711 18.8301 27.652 19.3554C27.9956 22.1567 28.5009 24.958 29.1073 27.6937C29.2488 28.2846 29.3297 29.0506 28.885 29.3351C28.5818 29.532 28.1573 29.3351 27.9148 29.0068C27.6722 28.6785 27.5711 28.2408 27.4701 27.825C26.702 24.6516 25.8328 21.4782 24.4785 18.5675C24.2966 18.6113 24.1147 18.655 23.9328 18.6988C24.1551 21.4563 23.953 24.2358 23.3264 26.8401C23.1849 27.4529 22.8817 28.1751 22.3359 28.1751C23.4072 25.0455 22.2955 21.3907 22.4572 17.9766C22.4774 17.7577 22.4976 17.517 22.5987 17.32C22.7604 17.0355 23.0636 16.9261 23.3668 16.8385C25.0041 16.379 26.6211 15.9194 28.2584 15.4598C28.5009 15.416 28.8041 15.3285 29.1073 15.416Z" fill="#1C84AB"/>
<path d="M14.2301 26.2488C14.9173 21.8061 15.6046 17.3633 16.8376 13.0738C17.545 10.5789 18.4546 8.08398 18.5355 5.47963C18.5759 3.92577 18.0908 2.06552 16.7971 1.56216C15.5641 0.861829 13.9875 1.73724 12.9566 2.83151C11.2385 4.66987 10.1672 7.07726 8.97465 9.35333C6.89269 13.2489 4.36604 16.8162 1.81919 20.3835C1.21279 21.237 0.606395 22.0906 0 22.9441C1.51599 23.6444 2.93091 24.6293 4.32562 25.5922C4.72988 25.8767 5.15436 26.1612 5.39692 26.6208C5.63947 27.0804 5.63947 27.7151 5.25542 28.0434C5.03308 28.8312 6.46821 29.444 6.73099 28.7437C6.69056 28.2185 7.13525 27.7808 7.60015 27.6713C8.06505 27.5619 8.55017 27.6932 9.01507 27.8245C10.6119 28.2841 12.229 28.7218 13.745 29.4659C13.9067 28.3717 14.0684 27.2993 14.2301 26.2488Z" fill="#479DD6"/>
<path d="M17.7089 7.1131C18.5708 4.97511 18.0833 2.68146 16.6203 1.99009C15.1572 1.29872 13.2725 2.47143 12.4107 4.60942C11.5489 6.74741 12.0363 9.04106 13.4994 9.73243C14.9624 10.4238 16.8471 9.25109 17.7089 7.1131Z" fill="#81CAEA"/>
<path d="M16.9496 6.75398C17.6596 4.99263 17.3892 3.16501 16.3456 2.67186C15.302 2.17872 13.8804 3.2068 13.1704 4.96815C12.4605 6.72949 12.7309 8.55712 13.7745 9.05027C14.8181 9.54341 16.2396 8.51533 16.9496 6.75398Z" fill="#0C2C48"/>
<path d="M9.60143 10.9733C9.60143 10.9733 9.7025 10.9952 9.88442 11.0389C10.0663 11.0827 10.3089 11.1483 10.5919 11.2578C11.1578 11.4547 11.8855 11.7611 12.593 12.0675C12.7749 12.1551 12.9366 12.2426 13.1185 12.3083C13.3004 12.3958 13.4621 12.4834 13.6239 12.5709C13.7856 12.6584 13.9473 12.746 14.0888 12.8116C14.2302 12.8992 14.3717 12.9648 14.493 13.0305C14.7356 13.1618 14.9579 13.2493 15.1196 13.315C15.2005 13.3369 15.2611 13.3588 15.3015 13.3806C15.342 13.4025 15.3622 13.4025 15.3622 13.4025L15.3824 13.5995C15.3824 13.5995 15.2813 13.6652 15.0994 13.7089C14.9175 13.7527 14.6345 13.7965 14.3111 13.7527C14.1494 13.7308 13.9877 13.7089 13.8058 13.6652C13.6239 13.6214 13.4621 13.5776 13.2802 13.5338C13.0983 13.4901 12.9164 13.4244 12.7143 13.3588C12.5323 13.2931 12.3302 13.2056 12.1483 13.118C11.9664 13.0305 11.7845 12.9429 11.6025 12.8554C11.4206 12.7679 11.2589 12.6584 11.0972 12.549C10.9355 12.4396 10.7738 12.3302 10.6323 12.2207C10.4908 12.1113 10.3493 12.0019 10.228 11.8924C9.98548 11.6955 9.80356 11.4985 9.68229 11.3453C9.56101 11.214 9.50037 11.1046 9.50037 11.1046L9.60143 10.9733Z" fill="#E6E8EA"/>
<path d="M14.493 16.2473C14.7962 16.6851 14.7356 17.3197 14.6547 17.8887C14.3111 20.6025 13.9877 23.3163 13.6441 26.0082C13.5632 26.7085 13.4622 27.4089 13.2398 28.0654C12.8153 28.328 12.31 27.9779 12.1483 27.4964C11.9866 27.0149 12.0674 26.4459 12.1483 25.8988C12.5121 23.4914 12.6738 21.0621 12.6334 18.6547C12.6334 18.1951 12.5526 17.6261 12.1685 17.4948C11.744 17.3416 11.3398 17.8887 11.077 18.3483C9.76314 20.7995 8.57056 23.3163 7.49927 25.9206C7.27692 26.4678 6.89287 27.1462 6.38754 27.0806C6.0237 27.0368 5.80136 26.5991 5.80136 26.1833C5.80136 25.7675 5.96307 25.3516 6.12477 24.9577C7.31735 21.9375 8.42907 18.8736 8.99504 15.6564C8.83334 15.5689 8.65142 15.4814 8.48971 15.3938C7.11522 17.7137 5.37688 19.7709 3.39599 21.4123C2.93109 21.8062 2.30448 22.1783 1.88 21.8062C4.4875 20.0335 5.70029 16.4224 7.76204 13.84C7.90353 13.6649 8.04502 13.4898 8.22694 13.4241C8.50992 13.2928 8.83334 13.4241 9.09611 13.5555C10.6525 14.2777 12.1887 14.9999 13.7451 15.7221C14.0281 15.8315 14.3111 15.9628 14.493 16.2473Z" fill="#1C84AB"/>
</svg>
