<svg width="36" height="36" viewBox="0 0 36 36" fill="none" xmlns="http://www.w3.org/2000/svg">
<path d="M12.0039 29.6502L13.6439 31.4102L11.2839 32.5902C13.2439 33.4302 15.3839 33.9102 17.6439 33.9102C19.7639 33.9102 21.7839 33.4902 23.6239 32.7502L20.7639 31.9702L23.1439 26.9102C20.6639 28.7502 17.6039 29.8502 14.2639 29.8502C13.5239 29.8302 12.7639 29.7702 12.0039 29.6502Z" fill="#D8D8E0"/>
<path d="M27.0239 7.25002L29.7839 7.49002C27.9439 5.35002 25.5439 3.71002 22.8239 2.77002C24.5239 3.95002 25.9639 5.47002 27.0239 7.25002Z" fill="#D8D8E0"/>
<path d="M3.30374 24.97C3.76374 25.93 4.34374 26.83 4.98374 27.67L5.08374 26.63C4.44374 26.11 3.84374 25.57 3.30374 24.97Z" fill="#D8D8E0"/>
<path d="M33.6038 16.4903L30.7238 17.6303L29.1838 15.7503C28.9838 19.8103 27.1438 23.4503 24.3038 26.0103L29.1038 24.0903L29.9438 28.1903C32.2638 25.3903 33.6638 21.8103 33.6638 17.9103C33.6638 17.4303 33.6438 16.9503 33.6038 16.4903Z" fill="#D8D8E0"/>
<path d="M29.1638 15.7304L26.4238 12.3904L26.7638 7.21037L27.0238 7.23037C25.9438 5.47037 24.5038 3.93037 22.8238 2.75037C22.2438 2.55037 21.6438 2.39037 21.0238 2.25037V2.95037L14.9038 4.23037L9.90379 3.89037C7.82379 5.05037 6.02379 6.65037 4.64379 8.57037L4.12379 13.1704L1.66379 18.0904C1.68379 20.5704 2.28379 22.8904 3.30379 24.9704C3.84379 25.5704 4.44379 26.1104 5.06379 26.6104L5.16379 25.5504L8.76379 26.1904L12.0038 29.6504C12.7638 29.7704 13.5238 29.8304 14.3038 29.8304C17.6238 29.8304 20.7038 28.7304 23.1838 26.8904L23.4638 26.3104L24.3038 25.9704C27.1238 23.4304 28.9638 19.7904 29.1638 15.7304Z" fill="#EAEAEB"/>
<path d="M18.2638 14.0103L13.7238 9.69029L14.7038 3.51029L14.9838 3.55029L14.0238 9.59029L18.3438 13.7103L27.2638 12.0703L27.4638 8.17029C27.1438 7.73029 24.1038 3.49029 20.7038 2.81029L20.7638 2.55029C24.4438 3.29029 27.5838 7.87029 27.7238 8.07029L27.7438 8.11029L27.5238 12.3103L18.2638 14.0103Z" fill="#BBBEC1"/>
<path d="M8.20371 28.6903C7.32371 28.6903 5.88371 26.7903 5.70371 26.5503C5.68371 26.5303 1.8437 22.5103 2.0037 16.4503V16.4103L3.0637 12.9503L8.90371 13.5103L8.88371 13.7903L3.2637 13.2503L2.2637 16.4903C2.1037 22.4103 5.86371 26.3303 5.90371 26.3703C6.56371 27.2503 7.78371 28.5703 8.26371 28.4103C8.46371 28.3503 8.5437 27.9903 8.52371 27.3903C8.42371 24.3103 10.7237 20.0903 10.8237 19.9103L10.8437 19.8903L11.9637 18.7303C12.0437 18.6903 13.8637 17.6903 15.6437 18.2303C16.5637 18.5103 17.2837 19.1503 17.7837 20.1303C19.4237 23.3103 23.6637 26.3103 24.2237 26.6903L28.7037 25.0103C30.6837 21.9303 30.6037 16.5303 30.6037 16.4703H30.8837C30.8837 16.6903 30.9637 22.0703 28.9237 25.2103L28.9037 25.2503L24.2037 27.0303L24.1437 26.9903C24.1037 26.9503 19.3437 23.7303 17.5637 20.2903C17.0837 19.3703 16.4237 18.7703 15.5837 18.5303C14.0237 18.0503 12.3237 18.8903 12.1437 18.9903L11.0637 20.0503C10.9037 20.3303 8.72371 24.4503 8.82371 27.3703C8.84371 28.1103 8.70371 28.5303 8.36371 28.6503C8.30371 28.6703 8.26371 28.6903 8.20371 28.6903Z" fill="#BBBEC1"/>
<path d="M18.1039 20.9101H10.1839L7.88388 13.6301L13.9439 9.01013L20.7439 13.2301L18.1039 20.9101Z" fill="#3C444A"/>
<path d="M21.0438 2.97016V2.27016C19.9438 2.03016 18.8238 1.91016 17.6638 1.91016C14.8438 1.91016 12.2038 2.63016 9.92383 3.91016L14.9238 4.25016L21.0438 2.97016Z" fill="#3C444A"/>
<path d="M26.4238 12.3902L30.7038 17.6102L33.5838 16.4702C33.2838 13.0502 31.9038 9.9302 29.7838 7.4702L26.7638 7.21021L26.4238 12.3902Z" fill="#3C444A"/>
<path d="M4.64379 8.59009C2.76379 11.2301 1.66379 14.4301 1.66379 17.9101C1.66379 17.9701 1.66379 18.0301 1.66379 18.0901L4.14379 13.2101L4.64379 8.59009Z" fill="#3C444A"/>
<path d="M18.3238 32.2102C15.2838 32.2102 12.7038 31.4102 12.6638 31.3902L12.7638 31.1102C12.8038 31.1302 17.4038 32.5502 21.5038 31.5702L21.5838 31.8702C20.4838 32.1102 19.3638 32.2102 18.3238 32.2102Z" fill="#BBBEC1"/>
<path d="M8.76389 26.1904L5.16389 25.5504L4.98389 27.6504C6.62389 29.7904 8.80389 31.4904 11.3039 32.5904L13.6639 31.4104L8.76389 26.1904Z" fill="#3C444A"/>
<path d="M23.4637 26.3299L20.8037 31.9699L23.6637 32.7499C26.1237 31.7499 28.2837 30.1699 29.9637 28.1699L29.1237 24.0699L23.4637 26.3299Z" fill="#3C444A"/>
</svg>
