<svg width="30" height="36" viewBox="0 0 30 36" fill="none" xmlns="http://www.w3.org/2000/svg">
<path d="M3.01137 19.7485C4.38488 19.7485 5.49833 18.6495 5.49833 17.2937C5.49833 15.9379 4.38488 14.8389 3.01137 14.8389C1.63786 14.8389 0.524414 15.9379 0.524414 17.2937C0.524414 18.6495 1.63786 19.7485 3.01137 19.7485Z" fill="#517F99"/>
<path d="M18.0158 32.002C15.3009 27.278 10.5342 26.1641 7.0732 26.2878L6.14059 23.3585C13.9123 23.3585 14.9693 18.8614 15.0315 18.6345C15.1765 17.9331 14.6584 17.273 13.8502 17.1492C13.0419 17.0255 12.2751 17.4793 12.13 18.1807C12.13 18.2219 11.3217 21.5019 3.90233 20.6768C2.88683 20.5117 1.70552 20.8418 1.70552 20.8418C0.462043 21.1306 -0.263319 22.2446 0.0890001 23.3173L1.56045 27.8969C1.91277 28.9696 3.17697 29.5885 4.42045 29.2997L5.29088 29.0934H5.31161C5.58103 29.0315 12.13 27.4843 15.3838 33.1573C15.6325 33.6111 16.1713 33.8586 16.7102 33.8586C16.9381 33.8586 17.1454 33.8174 17.3733 33.7142C18.078 33.4048 18.3888 32.6415 18.0158 32.002Z" fill="#344F5E"/>
<path d="M7.5083 33.5287L29.6629 31.1564C29.6629 31.1358 20.1089 39.0779 7.5083 33.5287Z" fill="#E65235"/>
<path d="M17.0626 25.298C19.9019 21.5848 25.0416 17.6447 28.5648 15.1899C27.3213 12.3431 25.0002 9.02184 20.6687 6.21631C21.3526 13.6633 18.9486 20.9453 17.0626 25.298Z" fill="#F7F8F9"/>
<path d="M17.0629 25.2979C16.6277 26.3087 16.2132 27.1545 15.8816 27.8352C17.9333 25.6486 23.4668 20.6564 29.9951 21.6672C29.9951 21.6672 30.1609 18.8204 28.5651 15.2103C25.0419 17.6652 19.9022 21.5847 17.0629 25.2979Z" fill="#FFC90A"/>
<path d="M15.2391 28.5571C15.3842 28.3921 15.6122 28.1445 15.9023 27.8351C16.2339 27.175 16.6484 26.3085 17.0836 25.2977C16.2132 26.4323 15.5707 27.5256 15.2391 28.5571Z" fill="#FFC90A"/>
<path d="M20.6688 6.23679C16.6068 3.59629 10.8039 1.40962 2.49329 0.501953C2.49329 0.501953 15.5084 17.232 15.0317 28.8048C15.0317 28.8048 15.0939 28.7223 15.2389 28.5573C15.5705 27.5258 16.213 26.4325 17.0627 25.2979C18.9486 20.9452 21.3527 13.6632 20.6688 6.23679Z" fill="#FFC90A"/>
</svg>
