<svg width="28" height="42" viewBox="0 0 28 42" fill="none" xmlns="http://www.w3.org/2000/svg">
<g clip-path="url(#clip0_1_3171)">
<path d="M0 2.30309C0 2.30309 1.35179 0.879362 2.43521 0.806082C3.51864 0.732802 5.19844 1.37139 6.55023 0L7.95172 4.37587C7.95172 4.37587 6.83848 5.50648 4.82073 5.21336C2.79304 4.92024 1.2524 6.5324 1.2524 6.5324L0 2.30309Z" fill="#8254E6"/>
<path d="M1.08342 5.95669C1.31203 5.72638 2.75328 4.40734 4.62194 4.67952C6.63969 4.97264 7.75293 3.84203 7.75293 3.84203L6.53035 0.0209961C5.17856 1.36098 3.5087 0.732861 2.43521 0.806141C1.35179 0.879421 0 2.30315 0 2.30315L1.08342 5.95669Z" fill="#5533AC"/>
<path d="M2.43523 0.806141C1.43133 0.879421 0.188872 2.10425 0.0198975 2.28221L0.914466 5.2867C1.14308 5.05639 2.58433 3.73735 4.45298 4.00953C6.27194 4.28171 7.35536 3.38142 7.55415 3.20345L6.53037 0.0209961C5.17858 1.36098 3.50871 0.732861 2.43523 0.806141Z" fill="#0069E0"/>
<path d="M0.725613 4.66905C0.964164 4.42827 2.40541 3.1197 4.25419 3.39188C6.0632 3.6536 7.13669 2.7847 7.34542 2.59627L6.53037 0.0209961C5.17858 1.36098 3.50871 0.732861 2.43523 0.806141C1.43133 0.879421 0.188872 2.10425 0.0198975 2.28221L0.725613 4.66905Z" fill="#8ABB48"/>
<path d="M2.4352 0.806111C1.48099 0.868923 0.308113 1.98906 0.0496826 2.25078L0.586424 4.04091C0.824975 3.80013 2.26622 2.49155 4.115 2.76374C5.81468 3.01498 6.86828 2.25078 7.16647 1.99953L6.53033 0.010498C5.17854 1.36095 3.50868 0.732831 2.4352 0.806111Z" fill="#F6E400"/>
<path d="M0.417468 3.40235C0.65602 3.16157 2.09727 1.853 3.94605 2.12518C5.59603 2.36596 6.63969 1.6541 6.9677 1.39238L6.53036 0.0209961C5.17856 1.36098 3.5087 0.73286 2.43522 0.806141C1.50089 0.868952 0.35783 1.94722 0.0695801 2.22987L0.417468 3.40235Z" fill="#E27C22"/>
<path d="M0.228614 2.76377C0.477106 2.52299 1.90841 1.21442 3.75719 1.4866C5.38729 1.72738 6.42102 1.03645 6.75896 0.753798L6.52041 0.0209961C5.17856 1.36098 3.5087 0.73286 2.43522 0.806141C1.50089 0.868952 0.35783 1.94722 0.0695801 2.22987L0.228614 2.76377Z" fill="#DC3258"/>
<path opacity="0.3" d="M2.2066 5.7996C2.52467 5.61117 2.90238 5.4332 3.32978 5.31804L1.95811 0.910767C1.61022 1.03639 1.2524 1.25623 0.934326 1.48654C1.18282 2.31356 1.86865 4.64805 2.2066 5.7996Z" fill="#F6E400"/>
<path opacity="0.3" d="M2.57434 0.806152C2.52464 0.806152 2.47494 0.806152 2.42525 0.816621C2.31591 0.82709 2.21651 0.848027 2.10718 0.879432L3.50867 5.28671C3.60807 5.26577 3.7174 5.24484 3.82674 5.23437L2.57434 0.806152Z" fill="#F6E400"/>
<path opacity="0.3" d="M7.16654 4.89936C6.91805 4.12469 6.07318 1.59129 5.73523 0.586304C5.55631 0.670052 5.3774 0.732864 5.19849 0.774738L6.59004 5.10874C6.80871 5.05639 6.99756 4.97264 7.16654 4.89936Z" fill="#F6E400"/>
<path opacity="0.3" d="M6.30171 0.230347C6.2222 0.303627 6.13274 0.35597 6.05322 0.418781L7.52429 4.7109C7.60381 4.65856 7.68332 4.60622 7.74296 4.56434C7.48453 3.76873 6.749 1.57033 6.30171 0.230347Z" fill="#F6E400"/>
<path d="M3.11109 11.306C3.14091 11.3898 3.10115 11.484 3.02163 11.5049C2.95206 11.5259 2.87254 11.484 2.84272 11.3898L0.0297978 1.98898C-2.11354e-05 1.90523 0.0397375 1.81101 0.119255 1.79007C0.188832 1.76914 0.268349 1.81101 0.298168 1.90523L3.11109 11.306Z" fill="#330066"/>
<path d="M2.78313 12.4157C2.92228 12.9287 3.04156 13.4626 3.04156 13.4626L3.956 13.0334C3.956 13.0334 3.72739 11.997 3.65781 11.7457C3.58824 11.4945 3.65781 11.1176 3.5286 10.7722C3.39938 10.4267 3.01174 9.99749 2.91234 9.93468C2.81294 9.87187 2.2265 9.75671 2.14699 9.75671C2.07741 9.75671 1.87862 9.85093 1.97801 10.1964C1.97801 10.1964 1.73946 11.0025 1.78916 11.3165C1.8488 11.6201 2.54457 12.2901 2.78313 12.4157ZM2.69367 10.1964C2.70361 10.2801 2.74337 10.322 2.76325 10.4267C2.67379 10.3534 2.55451 10.2697 2.55451 10.2383C2.55451 10.2173 2.62409 10.2383 2.69367 10.1964Z" fill="#F9B799"/>
<path opacity="0.3" d="M3.61801 11.3794C3.12102 12.4786 2.70356 12.1541 2.17676 11.8924C2.39543 12.1331 2.6638 12.353 2.79302 12.4263C2.93217 12.9392 3.05145 13.4731 3.05145 13.4731L3.9659 13.0439C3.9659 13.0439 3.73728 12.0075 3.66771 11.7563C3.62795 11.6411 3.61801 11.5155 3.61801 11.3794Z" fill="#F26666"/>
<path d="M16.311 18.4038C16.2712 17.9327 16.0625 17.4616 15.6848 17.1894C15.4562 17.0219 15.1778 16.9382 14.9294 16.8125C14.82 16.7602 12.7029 15.9855 12.9215 13.9441C13.2098 11.2642 12.2357 8.85639 11.202 8.8878C10.7448 8.48999 10.2378 8.13406 9.66134 8.07125C6.82854 7.76766 5.70536 10.3429 5.68548 11.8818C5.6656 13.4626 5.07916 15.169 5.20837 15.483C5.30777 15.7447 5.64572 15.818 5.77493 16.0588C5.93397 16.3728 5.6656 16.7392 5.38729 16.9591C4.75115 17.472 4.00568 17.8175 3.42918 18.4038C3.11111 18.7283 2.85268 19.2308 3.06141 19.639C3.14093 19.7961 3.28008 19.9112 3.41924 20.0054C3.87646 20.3404 4.38338 20.6022 4.91018 20.7906C4.95988 20.8115 5.00958 20.822 5.04934 20.8743C5.0891 20.9267 5.0891 20.9895 5.0891 21.0523C5.05928 21.3768 4.80085 21.6176 4.612 21.8793C4.42314 22.141 4.31381 22.5598 4.55236 22.7692C4.80085 22.989 5.19843 22.8006 5.47674 22.9681C5.30777 23.2088 5.36741 23.5648 5.5662 23.7741C5.75506 23.9835 6.05325 24.0673 6.33156 24.0568C6.8683 24.0359 7.3454 23.7218 7.8225 23.4601C7.98154 23.3763 8.15051 23.2821 8.31949 23.2717C8.99538 23.2088 9.57188 24.1405 10.1981 23.8893C10.3571 23.8265 10.4764 23.6904 10.6454 23.659C10.8342 23.6171 11.0231 23.7009 11.2119 23.7637C11.8481 23.973 12.5339 23.837 13.18 23.7009C13.4583 23.6381 13.7465 23.5752 13.9453 23.3659C14.1441 23.1565 14.1839 22.7482 13.9453 22.5912C14.3429 22.6121 14.7405 22.3085 14.8399 21.9003C14.9393 21.492 14.7306 21.0209 14.3727 20.8429C14.4423 20.6231 14.7504 20.6859 14.9791 20.6964C15.4562 20.7173 15.8239 20.2672 16.0227 19.817C16.2215 19.3564 16.3408 18.8853 16.311 18.4038Z" fill="#FF196B"/>
<g opacity="0.25">
<g opacity="0.25">
<path opacity="0.25" d="M6.25202 15.5667C6.30172 16.0169 6.21226 16.4775 6.00353 16.8648C5.89419 17.0533 5.76498 17.2312 5.60594 17.3778C5.42703 17.5453 5.2183 17.6709 4.99963 17.7861C4.61198 17.9955 4.21439 18.2048 3.90626 18.5503C3.77705 18.6969 3.65777 18.8748 3.62795 19.0842C3.59813 19.2726 3.63789 19.4611 3.72735 19.6286C3.93608 20.0054 4.37343 20.2462 4.79089 20.1729C4.88035 20.152 4.84059 20.0159 4.75113 20.0368C4.41319 20.0892 4.04542 19.8589 3.86651 19.5657C3.77705 19.4087 3.73729 19.2412 3.78699 19.0633C3.83669 18.8748 3.95596 18.7073 4.09512 18.5712C4.41319 18.2467 4.81077 18.0478 5.17854 17.828C5.36739 17.7128 5.54631 17.5872 5.6954 17.4197C5.83456 17.2731 5.95383 17.1056 6.04329 16.9172C6.25202 16.5089 6.34148 16.0378 6.2719 15.5772C6.2719 15.5458 6.24208 15.5563 6.25202 15.5667Z" fill="white"/>
</g>
</g>
<g opacity="0.25">
<g opacity="0.25">
<path opacity="0.25" d="M5.48669 20.6231C5.55627 21.0418 5.32766 21.4396 5.09905 21.7642C5.03941 21.8479 4.96983 21.9317 4.9102 22.0154C4.85056 22.0887 4.78098 22.1724 4.75116 22.2562C4.69152 22.4237 4.83068 22.5807 4.95989 22.654C5.11893 22.7377 5.32766 22.7587 5.47675 22.654C5.53639 22.6121 5.49663 22.5074 5.42706 22.5284C5.24814 22.5912 5.03941 22.5912 4.9102 22.4342C4.88038 22.4028 4.85056 22.3504 4.8605 22.2981C4.87044 22.2457 4.92013 22.1934 4.94995 22.141C5.01953 22.0468 5.07917 21.9421 5.14875 21.8479C5.39724 21.4815 5.61591 21.0523 5.52645 20.5917C5.52645 20.5812 5.48669 20.5917 5.48669 20.6231Z" fill="white"/>
</g>
</g>
<g opacity="0.25">
<g opacity="0.25">
<path opacity="0.25" d="M6.41107 10.7512C6.44088 11.505 6.31167 12.2796 6.0433 12.981C5.80475 13.6091 5.37734 14.2163 5.48668 14.9177C5.52644 15.2004 5.68547 15.5668 5.96378 15.6715C6.02342 15.6924 6.07312 15.6086 6.02342 15.5563C5.92402 15.4726 5.83457 15.3888 5.76499 15.2736C5.69541 15.1585 5.65565 15.0224 5.63577 14.8968C5.58608 14.5827 5.65565 14.2791 5.75505 13.986C5.87433 13.651 6.03336 13.337 6.15263 13.0124C6.27191 12.6774 6.36137 12.3215 6.41107 11.9656C6.4707 11.5678 6.48064 11.1595 6.45082 10.7512C6.45082 10.7198 6.41107 10.7198 6.41107 10.7512Z" fill="white"/>
</g>
</g>
<path d="M10.6254 15.0643C10.6155 15.2737 10.6652 16.1321 10.7248 16.2054C10.7845 16.2682 11.6293 16.4566 12.4245 16.6765C12.345 17.0638 12.4842 18.9377 12.1263 19.0633C12.1064 19.0738 10.8739 21.1151 10.3571 21.0733C9.71099 21.0209 8.06101 19.3983 8.06101 19.3669C8.06101 18.4666 8.18029 17.336 7.8324 16.5404C7.96161 16.509 9.15437 16.3415 9.21401 16.2054C9.28359 16.0483 9.33328 15.347 9.27365 15.0538L10.6254 15.0643Z" fill="#F9B799"/>
<g opacity="0.3">
<path opacity="0.3" d="M9.67122 17.3255C9.86008 17.5245 9.94953 17.8176 9.86008 18.1107C10.6851 17.9223 10.9634 17.0638 10.9733 16.2892C10.7845 16.2578 10.6553 16.2263 10.6354 16.2054C10.5757 16.1321 10.6155 15.2737 10.6254 15.0643H9.29352C9.34322 15.3575 9.30346 16.0588 9.23388 16.2159C9.20406 16.2787 8.88599 16.3624 8.55798 16.4252C8.60768 17.022 9.41279 16.9696 9.67122 17.3255Z" fill="#F26666"/>
</g>
<g opacity="0.3">
<path opacity="0.3" d="M9.28369 15.996C9.32345 15.7238 9.33339 15.2737 9.29363 15.0538H10.6255C10.6156 15.2213 10.5858 15.7971 10.6057 16.0693C10.1683 16.1844 9.7111 16.1426 9.28369 15.996Z" fill="#F26666"/>
</g>
<path d="M12.1462 12.688C12.1661 12.6565 12.186 12.6147 12.2158 12.5833C12.3053 12.4786 12.4345 12.4262 12.5637 12.4472C12.6929 12.4681 12.8122 12.5519 12.8619 12.6775C12.8818 12.7194 12.8917 12.7612 12.9016 12.8031C12.9712 13.159 12.842 13.5359 12.5935 13.7767C12.504 13.8709 12.3848 13.9442 12.2556 13.9547C12.1959 13.9547 12.1462 13.9442 12.0965 13.9128C12.0568 13.8814 12.0269 13.829 12.0071 13.7767C11.9375 13.5987 11.9077 13.0962 12.1462 12.688Z" fill="#F9B799"/>
<g opacity="0.3">
<path opacity="0.3" d="M12.7227 12.8241C12.8519 12.9393 12.7028 13.5046 12.504 13.7035C12.4245 13.7767 12.335 13.8396 12.2356 13.8396C12.1959 13.8396 12.1462 13.8291 12.1064 13.8082C12.0766 13.7872 12.0567 13.7453 12.0368 13.7035C11.9872 13.5569 12.4245 12.5519 12.7227 12.8241Z" fill="#F26666"/>
</g>
<path d="M12.673 12.8345C12.6035 12.8554 12.5339 12.8973 12.4743 12.9496C12.4146 13.0124 12.355 13.0752 12.3053 13.1485C12.2655 13.2113 12.2158 13.3056 12.2059 13.3788C12.2059 13.4207 12.1959 13.4626 12.1959 13.5045C12.1959 13.5463 12.186 13.5987 12.1959 13.6406C12.1959 13.672 12.2456 13.672 12.2456 13.6406C12.2456 13.5673 12.2357 13.4731 12.2755 13.3998C12.2953 13.3684 12.2953 13.337 12.3152 13.2951C12.3252 13.2532 12.345 13.2218 12.3649 13.1799C12.4047 13.1067 12.4444 13.0438 12.4941 12.981C12.5438 12.9182 12.6035 12.8659 12.683 12.8449C12.6929 12.8554 12.683 12.8345 12.673 12.8345Z" fill="#F26666"/>
<path d="M12.335 13.2428C12.345 13.2323 12.3648 13.2218 12.3847 13.2113C12.3847 13.2113 12.3947 13.2113 12.3847 13.2113C12.3847 13.2113 12.3847 13.2113 12.3947 13.2113C12.3947 13.2113 12.3947 13.2113 12.4046 13.2113C12.3947 13.2113 12.4046 13.2113 12.4046 13.2113C12.4046 13.2113 12.4046 13.2113 12.4145 13.2113C12.4245 13.2113 12.4245 13.2113 12.4245 13.2218C12.4444 13.2428 12.4444 13.2846 12.4444 13.3056C12.4444 13.3474 12.4245 13.3893 12.4046 13.4207C12.3947 13.4417 12.3748 13.4626 12.3648 13.4835C12.3549 13.5045 12.335 13.5149 12.3251 13.5359C12.3151 13.5568 12.335 13.5673 12.3549 13.5673C12.3748 13.5673 12.3947 13.5359 12.4145 13.5254C12.4344 13.5045 12.4444 13.4835 12.4642 13.4626C12.494 13.4207 12.504 13.3684 12.5139 13.316C12.5139 13.2428 12.4742 13.1485 12.3947 13.159C12.3648 13.159 12.3251 13.1799 12.3052 13.2009C12.2754 13.2323 12.3052 13.2637 12.335 13.2428Z" fill="#F26666"/>
<path d="M11.6691 13.8081C11.8182 13.5254 12.1065 13.6615 12.1462 13.7871C12.1959 13.6615 12.504 13.5149 12.6233 13.8081C12.7327 14.0907 12.1959 14.4362 12.1462 14.4571C12.1065 14.4257 11.52 14.0907 11.6691 13.8081Z" fill="#DC3258"/>
<path d="M12.1462 14.4467C12.0965 14.4257 11.5399 14.1012 11.6592 13.8185L12.6233 13.7976C12.7327 14.0803 12.1959 14.4257 12.1462 14.4467Z" fill="#E27C22"/>
<path d="M11.6592 13.986L12.6233 13.9651C12.5438 14.1954 12.186 14.4257 12.1462 14.4466C12.1164 14.4257 11.7387 14.2163 11.6592 13.986Z" fill="#F6E400"/>
<path d="M11.7487 14.1326L12.5438 14.1117C12.4047 14.2897 12.186 14.4258 12.1562 14.4467C12.1164 14.4362 11.8878 14.3001 11.7487 14.1326Z" fill="#8ABB48"/>
<path d="M12.4146 14.2478C12.2953 14.363 12.1661 14.4362 12.1462 14.4467C12.1264 14.4362 11.9971 14.363 11.8679 14.2583L12.4146 14.2478Z" fill="#0069E0"/>
<path d="M12.2555 14.3734C12.1959 14.4153 12.1561 14.4362 12.1462 14.4467C12.1363 14.4362 12.0965 14.4153 12.0369 14.3839L12.2555 14.3734Z" fill="#5533AC"/>
<path d="M7.63362 13.4208C7.71313 14.834 9.12456 15.682 10.2477 15.6296C11.3709 15.5773 12.0866 14.4048 12.176 13.515C12.2556 12.6984 12.2456 11.8819 12.1562 11.5888C11.8977 10.678 11.2616 9.89284 10.2676 9.92425C7.9815 10.0185 7.52428 11.5888 7.63362 13.4208Z" fill="#F9B799"/>
<path d="M11.9077 14.5932C11.53 14.4885 11.1722 14.3524 10.874 13.986C10.6851 13.7871 10.3671 13.808 10.1385 13.8185C10.0291 13.829 9.66135 13.8185 9.45262 13.9337C9.11467 14.1326 8.07101 14.6769 7.87221 14.4571C7.88215 14.7711 7.7927 15.0433 8.03125 15.3469C8.18034 15.5353 8.58787 15.5668 8.80654 15.818C9.02521 16.0588 8.7469 16.3414 9.03515 16.6345C9.21407 16.823 9.70111 16.7288 9.96948 16.9277C10.1285 17.0428 10.2577 17.2522 10.1882 17.5977C10.6056 17.4825 11.0131 16.9486 10.9038 16.5613C10.7746 16.1006 10.9336 15.7447 11.2616 15.6714C11.5896 15.5982 11.8481 15.4621 11.9077 15.2318C11.9574 14.9805 11.9475 14.7816 11.9077 14.5932ZM10.6653 15.0957C10.4963 15.1794 10.3372 14.9491 10.2478 14.7816C10.1981 14.7816 10.1385 14.7816 10.0888 14.7816C9.9993 14.9386 9.84026 15.148 9.64147 15.0747C9.31346 14.9596 9.4228 14.3105 9.58183 14.1116C9.71105 13.9546 9.98936 14.0697 10.1086 14.0697C10.1981 14.0697 10.5659 13.9232 10.6752 14.0697C10.8839 14.3315 10.9237 14.97 10.6653 15.0957Z" fill="#FF196B"/>
<g opacity="0.25">
<path opacity="0.25" d="M7.80265 13.4103C7.35536 12.5519 7.97162 10.0289 10.2577 9.93471C11.2517 9.89283 11.8878 10.678 12.1463 11.5992C12.2159 11.8609 12.2059 12.2273 12.2457 12.6356C12.1264 12.5309 11.4903 11.4841 11.4207 10.8978C10.4963 11.7876 8.03126 12.1122 7.80265 13.4103Z" fill="#FF196B"/>
</g>
<path d="M7.80265 12.9182C7.68337 12.6984 7.45476 12.5309 7.21621 12.5727C7.12675 12.5832 7.0373 12.6355 6.96772 12.6984C6.85838 12.8135 6.80869 12.981 6.81863 13.1485C6.82856 13.316 6.8882 13.473 6.95778 13.6091C7.09694 13.8708 7.34543 14.1116 7.63368 14.1221C7.73307 14.1221 7.83247 14.0907 7.89211 14.0069C7.92193 13.9651 7.93187 13.9127 7.94181 13.8604C7.96168 13.7557 8.03126 13.3369 7.80265 12.9182Z" fill="#F9B799"/>
<path opacity="0.3" d="M7.1466 12.9601C6.93786 12.9601 7.07702 13.5045 7.26587 13.7243C7.45473 13.9441 7.71316 14.0174 7.68334 13.6405C7.65352 13.2741 7.40503 12.9706 7.1466 12.9601Z" fill="#F26666"/>
<path d="M7.20627 12.9705C7.28578 12.9915 7.33548 13.0438 7.39512 13.1066C7.44482 13.1694 7.49452 13.2322 7.53428 13.3055C7.57404 13.3683 7.58397 13.4416 7.62373 13.5149C7.64361 13.5568 7.65355 13.5882 7.65355 13.6405C7.65355 13.6824 7.65355 13.7243 7.65355 13.7557C7.65355 13.7871 7.69331 13.7871 7.70325 13.7557C7.70325 13.6719 7.69331 13.5777 7.69331 13.494C7.68337 13.4102 7.64361 13.3265 7.59391 13.2532C7.54422 13.1799 7.48458 13.1171 7.42494 13.0647C7.3653 13.0124 7.29572 12.9705 7.22614 12.9496C7.19633 12.9496 7.18639 12.9705 7.20627 12.9705Z" fill="#F26666"/>
<path d="M7.58398 13.316C7.54422 13.2741 7.47464 13.2532 7.42494 13.295C7.39512 13.3264 7.38518 13.3683 7.37524 13.4102C7.37524 13.4625 7.38518 13.5149 7.415 13.5568C7.42494 13.5882 7.44482 13.6091 7.4647 13.63C7.47464 13.6405 7.48458 13.651 7.49452 13.6614C7.50446 13.6719 7.5144 13.6824 7.53428 13.6824C7.54422 13.6824 7.5641 13.6719 7.5641 13.651C7.55416 13.63 7.54422 13.6196 7.52434 13.5986C7.5144 13.5777 7.49452 13.5672 7.48458 13.5463C7.4647 13.5149 7.44482 13.473 7.44482 13.4311C7.44482 13.3997 7.44482 13.3579 7.4647 13.3369C7.4647 13.3264 7.47464 13.3264 7.48458 13.316H7.49452H7.50446C7.50446 13.316 7.5144 13.316 7.50446 13.316H7.5144C7.52434 13.316 7.52434 13.316 7.52434 13.316C7.53428 13.3264 7.54422 13.3264 7.55416 13.3369C7.57404 13.3788 7.6138 13.3369 7.58398 13.316Z" fill="#F26666"/>
<path d="M10.5957 14.1222C10.546 14.1745 10.4764 14.1954 10.4068 14.2059C10.3273 14.2268 10.2478 14.2373 10.1683 14.2373C10.0888 14.2373 9.99931 14.2373 9.91979 14.2164C9.84027 14.2059 9.78063 14.1745 9.71106 14.1222C9.69118 14.1012 9.66136 14.1431 9.68124 14.164C9.73094 14.2268 9.82039 14.2583 9.88997 14.2897C9.97943 14.3211 10.0689 14.3315 10.1683 14.3315C10.3273 14.3211 10.4963 14.2687 10.6156 14.1536C10.6255 14.1326 10.6056 14.1117 10.5957 14.1222Z" fill="#F26666"/>
<path opacity="0.3" d="M9.97937 14.5304C9.97937 14.6037 10.0688 14.6561 10.1782 14.6561C10.2875 14.6561 10.377 14.6037 10.377 14.5304C10.377 14.4572 10.2875 14.4572 10.1782 14.4572C10.0589 14.4572 9.97937 14.4676 9.97937 14.5304Z" fill="#F26666"/>
<path d="M12.1164 12.0598C11.8381 11.7457 11.4604 11.6515 11.0628 11.7666C10.874 11.819 10.9535 12.1435 11.1423 12.0702C11.4107 11.976 11.7785 11.9656 12.0071 12.1749C12.0866 12.2482 12.186 12.1435 12.1164 12.0598Z" fill="#911969"/>
<path d="M8.31945 12.2063C8.61764 11.9655 9.10469 11.976 9.44263 12.0807C9.63149 12.1435 9.711 11.819 9.52215 11.7666C9.06493 11.641 8.57788 11.7352 8.22006 12.0702C8.15048 12.133 8.24988 12.2586 8.31945 12.2063Z" fill="#911969"/>
<path opacity="0.3" d="M8.73694 13.9651C8.95652 13.9651 9.13453 13.8292 9.13453 13.6615C9.13453 13.4938 8.95652 13.3579 8.73694 13.3579C8.51736 13.3579 8.33936 13.4938 8.33936 13.6615C8.33936 13.8292 8.51736 13.9651 8.73694 13.9651Z" fill="#F26666"/>
<path opacity="0.3" d="M11.4803 13.9651C11.6999 13.9651 11.8779 13.8292 11.8779 13.6615C11.8779 13.4938 11.6999 13.3579 11.4803 13.3579C11.2608 13.3579 11.0828 13.4938 11.0828 13.6615C11.0828 13.8292 11.2608 13.9651 11.4803 13.9651Z" fill="#F26666"/>
<path opacity="0.3" d="M10.2179 13.4207C9.97938 13.3265 9.71101 13.4312 9.91975 13.6405C10.1086 13.8394 10.3968 13.7766 10.4863 13.5254C10.5658 13.2846 10.367 13.473 10.2179 13.4207Z" fill="#F26666"/>
<path opacity="0.5" d="M10.218 13.1799C10.1385 13.1799 10.0391 13.2532 10.1186 13.337C10.1882 13.4102 10.2975 13.3893 10.3373 13.2951C10.3671 13.2009 10.2776 13.1799 10.218 13.1799Z" fill="white"/>
<path d="M10.2279 12.6879C10.2677 12.8658 10.3273 13.0124 10.4068 13.1799C10.4366 13.2427 10.4665 13.3055 10.4665 13.3683C10.4665 13.4102 10.4565 13.4626 10.4366 13.5044C10.4168 13.5463 10.377 13.5672 10.3372 13.5882C10.3174 13.5986 10.3273 13.651 10.3472 13.6405C10.4366 13.63 10.5062 13.5463 10.536 13.4626C10.5659 13.3788 10.546 13.2846 10.5162 13.2008C10.4366 13.0229 10.3174 12.8658 10.2577 12.6774C10.2478 12.6669 10.2279 12.6669 10.2279 12.6879Z" fill="#F26666"/>
<path d="M10.1087 13.5882C10.0987 13.5568 10.0788 13.5358 10.059 13.5149L10.049 13.5044C10.049 13.5044 10.0391 13.5044 10.0391 13.4939C10.0391 13.4939 10.0291 13.4939 10.0291 13.4835C10.0192 13.4835 10.0291 13.4835 10.0291 13.4835C10.0291 13.4835 10.0291 13.4835 10.0192 13.473C10.0192 13.473 10.0192 13.473 10.0093 13.473C9.99932 13.473 9.99932 13.473 9.98938 13.4625C9.97944 13.4625 9.97944 13.4625 9.9695 13.4521H9.97944C9.9695 13.4416 9.94962 13.4416 9.93968 13.4521C9.92974 13.4625 9.9198 13.473 9.9198 13.4939C9.9198 13.5253 9.95956 13.5463 9.97944 13.5358C9.9695 13.5358 9.9695 13.5358 9.95956 13.5463C9.9695 13.5463 9.9695 13.5463 9.97944 13.5463H9.98938C9.97944 13.5463 9.98938 13.5463 9.99932 13.5463C9.98938 13.5463 10.0093 13.5463 9.99932 13.5463H10.0093C10.0093 13.5463 10.0192 13.5463 10.0093 13.5463C10.0192 13.5463 10.0192 13.5568 10.0291 13.5568C10.0291 13.5568 10.0291 13.5568 10.0391 13.5672L10.049 13.5777C10.049 13.5777 10.049 13.5882 10.059 13.5882C10.0689 13.5986 10.0788 13.5986 10.0888 13.5986C10.1087 13.6091 10.1186 13.5986 10.1087 13.5882Z" fill="#F26666"/>
<path d="M8.08089 9.78811L7.36523 8.81453H8.2598V7.73627L9.10467 8.34344L9.72093 6.84644L10.367 8.32251L11.033 7.70486L11.2019 8.61563L12.0369 8.41672L11.4206 9.7567L8.08089 9.78811Z" fill="#F6E400"/>
<path d="M12.3052 10.3534C11.6592 9.06578 10.6453 8.78313 9.78057 8.81453C7.99143 8.87734 7.3056 10.008 7.1068 10.5733C6.90801 11.1386 6.74897 12.0598 6.96765 12.6984C7.51433 12.3948 7.75288 12.9077 7.81252 12.9601C7.67336 11.505 10.9137 11.3479 11.3709 10.479C11.3709 10.479 12.2058 11.9551 12.1959 12.5832C12.3351 12.4471 12.4245 12.4471 12.514 12.4471C12.5239 12.4471 12.7028 11.1281 12.3052 10.3534Z" fill="#FF196B"/>
<g opacity="0.25">
<g opacity="0.25">
<path opacity="0.25" d="M11.5698 10.1649C11.7885 10.3743 11.9575 10.6465 12.0768 10.9291C12.1861 11.2118 12.2457 11.5049 12.2656 11.8085C12.2756 11.9027 12.2855 11.9969 12.2855 12.0911C12.2954 12.1853 12.2855 12.29 12.3054 12.3842C12.3153 12.4261 12.3849 12.4261 12.3948 12.3842C12.4048 12.3005 12.3948 12.2063 12.3948 12.1225C12.3849 12.0388 12.3849 11.9446 12.375 11.8608C12.3551 11.7038 12.3352 11.5363 12.3054 11.3793C12.2457 11.0861 12.1364 10.793 11.9575 10.5522C11.8482 10.3952 11.7289 10.2696 11.5897 10.144C11.5798 10.1335 11.5599 10.1544 11.5698 10.1649Z" fill="white"/>
</g>
</g>
<g opacity="0.25">
<g opacity="0.25">
<path opacity="0.25" d="M10.9734 9.75665C10.8839 10.0079 10.6752 10.1754 10.4664 10.3115C10.2179 10.4685 9.94958 10.5837 9.67127 10.6884C9.38302 10.8035 9.08483 10.9082 8.79658 11.0338C8.54808 11.1385 8.28965 11.2641 8.07098 11.4421C7.88213 11.5991 7.69327 11.8399 7.72309 12.1121C7.73303 12.154 7.79267 12.1749 7.80261 12.1226C7.82249 12.0074 7.85231 11.9027 7.90201 11.8085C7.96165 11.7038 8.03122 11.6201 8.12068 11.5468C8.32941 11.3688 8.5779 11.2432 8.8264 11.1385C9.11464 11.0129 9.40289 10.9082 9.69114 10.793C9.96945 10.6779 10.2378 10.5627 10.4863 10.3848C10.7149 10.2277 10.9137 10.0184 10.9932 9.73572C10.9932 9.74619 10.9833 9.74619 10.9734 9.75665Z" fill="white"/>
</g>
</g>
<g opacity="0.25">
<g opacity="0.25">
<path opacity="0.25" d="M8.07103 10.6674C7.79272 10.8663 7.58399 11.1594 7.45477 11.484C7.39514 11.6515 7.35538 11.8294 7.3355 12.0074C7.31562 12.1853 7.31562 12.3843 7.37526 12.5517C7.39514 12.6146 7.47465 12.5832 7.46471 12.5308C7.44483 12.3633 7.41501 12.2063 7.42495 12.0283C7.43489 11.8608 7.46471 11.6829 7.51441 11.5258C7.62375 11.2013 7.82254 10.8977 8.08097 10.6883C8.09091 10.6779 8.08097 10.6569 8.07103 10.6674Z" fill="white"/>
</g>
</g>
<g opacity="0.25">
<g opacity="0.25">
<path opacity="0.25" d="M7.10688 11.4944C7.02737 11.6305 6.97767 11.7875 6.95779 11.9445C6.94785 12.0283 6.93791 12.1016 6.93791 12.1853C6.93791 12.2272 6.93791 12.2691 6.93791 12.311C6.93791 12.3528 6.92797 12.3947 6.94785 12.4261C6.95779 12.447 6.98761 12.447 6.99755 12.4261C7.00749 12.3947 6.99755 12.3424 6.99755 12.311C6.99755 12.2691 6.99755 12.2377 6.99755 12.1958C6.99755 12.112 6.99755 12.0388 7.00749 11.955C7.01743 11.798 7.05719 11.6305 7.12676 11.4944C7.12676 11.4944 7.10688 11.4839 7.10688 11.4944Z" fill="white"/>
</g>
</g>
<path d="M8.90596 12.6461C8.98548 12.6461 9.04511 12.667 9.09481 12.7089H9.10475C9.11469 12.7089 9.12463 12.6984 9.12463 12.6984C9.13457 12.688 9.15445 12.6775 9.16439 12.667C9.19421 12.6356 9.21409 12.6147 9.22403 12.5728C9.22403 12.5519 9.25385 12.5623 9.24391 12.5833C9.23397 12.6356 9.22403 12.688 9.20415 12.7403C9.19421 12.7612 9.17433 12.7822 9.15445 12.8031C9.16439 12.8241 9.20415 12.845 9.21409 12.845C9.22403 12.845 9.23397 12.8345 9.23397 12.8345C9.24391 12.8241 9.26379 12.8136 9.27373 12.8031C9.30355 12.7717 9.32343 12.7508 9.33336 12.7089C9.33336 12.688 9.36318 12.6984 9.35324 12.7194C9.3433 12.7717 9.33336 12.8241 9.31349 12.8764C9.29361 12.9078 9.25385 12.9706 9.21409 12.9706C9.22403 13.002 9.23397 13.0439 9.23397 13.0753C9.23397 13.1172 9.17433 13.1276 9.16439 13.0858C9.12463 12.9392 9.02524 12.7612 8.85626 12.8241C8.75686 12.8659 8.69723 12.9706 8.63759 13.0544C8.61771 13.0753 8.58789 13.0648 8.58789 13.0439C8.59783 12.8345 8.72705 12.6566 8.90596 12.6461Z" fill="#1B2346"/>
<path d="M11.3213 12.6565C11.3909 12.6565 11.4505 12.6775 11.5002 12.7089H11.5102C11.5201 12.7089 11.5201 12.6984 11.5301 12.6984C11.54 12.6879 11.5499 12.6775 11.5698 12.667C11.5996 12.6461 11.6096 12.6147 11.6195 12.5728C11.6195 12.5623 11.6394 12.5623 11.6394 12.5833C11.6295 12.6251 11.6295 12.6879 11.5996 12.7298C11.5897 12.7508 11.5798 12.7717 11.5599 12.7926C11.5698 12.8136 11.6096 12.8345 11.6195 12.8345C11.6295 12.8345 11.6295 12.824 11.6394 12.824C11.6493 12.8136 11.6593 12.8031 11.6792 12.7926C11.709 12.7717 11.7189 12.7403 11.7289 12.6984C11.7289 12.6879 11.7487 12.6879 11.7487 12.7089C11.7388 12.7508 11.7388 12.8136 11.709 12.8554C11.6891 12.8869 11.6493 12.9392 11.6096 12.9392C11.6195 12.9706 11.6195 13.002 11.6295 13.0439C11.6295 13.0858 11.5798 13.0858 11.5698 13.0543C11.54 12.9183 11.4406 12.7508 11.2816 12.8136C11.1822 12.8554 11.1325 12.9497 11.0828 13.0334C11.0629 13.0544 11.0331 13.0439 11.0331 13.0229C11.043 12.8345 11.1623 12.667 11.3213 12.6565Z" fill="#1B2346"/>
<g opacity="0.6">
<g opacity="0.65">
<path opacity="0.65" d="M8.63463 9.91477C8.90693 9.80685 9.08378 9.59654 9.02964 9.44503C8.97551 9.29352 8.71088 9.25819 8.43859 9.36611C8.1663 9.47403 7.98944 9.68435 8.04358 9.83585C8.09771 9.98736 8.36234 10.0227 8.63463 9.91477Z" fill="white"/>
</g>
<g opacity="0.65">
<path opacity="0.65" d="M7.87254 10.2912C7.96809 10.1874 8.00402 10.0609 7.95279 10.0086C7.90156 9.95625 7.78258 9.99794 7.68704 10.1017C7.59149 10.2054 7.55556 10.332 7.60679 10.3843C7.65801 10.4366 7.777 10.3949 7.87254 10.2912Z" fill="white"/>
</g>
</g>
<path d="M7.13658 13.986C7.26579 13.7034 7.57392 13.8185 7.61368 13.9441C7.66338 13.8185 7.96157 13.6615 8.09078 13.9337C8.22 14.2058 7.68326 14.5827 7.6435 14.6037C7.60374 14.5827 7.00736 14.2896 7.13658 13.986Z" fill="#DC3258"/>
<path d="M7.64353 14.6141C7.59383 14.5931 7.02727 14.3 7.12666 14.0174L8.09081 13.9441C8.21009 14.2163 7.69323 14.5827 7.64353 14.6141Z" fill="#E27C22"/>
<path d="M7.1366 14.1745L8.10074 14.1012C8.03117 14.342 7.68328 14.5828 7.64352 14.6037C7.6137 14.5932 7.22605 14.3943 7.1366 14.1745Z" fill="#F6E400"/>
<path d="M7.23596 14.3105L8.02119 14.2582C7.89198 14.4361 7.67331 14.5932 7.64349 14.6141C7.61367 14.5932 7.37512 14.478 7.23596 14.3105Z" fill="#8ABB48"/>
<path d="M7.90198 14.3943C7.7827 14.5094 7.66342 14.5932 7.64354 14.6141C7.62367 14.6037 7.48451 14.5408 7.36523 14.4362L7.90198 14.3943Z" fill="#0069E0"/>
<path d="M7.75285 14.5304C7.70315 14.5723 7.6634 14.6037 7.64352 14.6037C7.63358 14.5932 7.59382 14.5723 7.53418 14.5409L7.75285 14.5304Z" fill="#5533AC"/>
<path d="M12.3749 23.795L7.68338 23.8579C7.68338 23.8579 7.09694 25.2397 6.98761 26.0877C6.76894 27.7312 6.86833 30.2542 7.19634 32.3898C7.22616 33.4052 6.83851 34.4207 6.80869 35.3628C6.76894 36.8075 7.08701 38.0951 7.1367 38.9954C7.1367 38.9954 7.17646 39.4561 6.63972 40.5867C6.37135 41.1624 6.6099 41.8638 6.80869 41.9057C7.00749 41.9476 7.59393 41.5393 7.75296 41.1624C7.912 40.7856 7.90206 39.8957 7.93188 39.5817C8.00145 38.8698 8.44874 36.7866 8.73699 34.9127C8.87614 34.0229 8.84632 33.1016 8.9656 32.5363C9.35325 30.5787 9.36319 29.2178 9.98939 26.9566C10.1285 28.2861 10.546 31.4999 10.7448 32.6515C10.8144 33.0493 10.6553 34.0229 10.7547 34.9022C10.9436 36.5667 11.4108 38.4511 11.4803 39.3723C11.5002 39.6864 11.4704 40.6704 11.6394 41.0368C11.8083 41.4032 12.4147 41.7905 12.6135 41.7382C12.8122 41.6859 12.9912 40.9949 12.7327 40.4087C12.4942 39.8748 12.2159 39.8434 12.196 38.7233C12.186 38.3254 12.4544 37.0273 12.5141 35.4361C12.5439 34.4835 12.3153 33.4157 12.4047 32.3793C12.7228 30.4531 13.011 28.3698 13.0011 27.5219C12.9912 25.5747 12.3749 23.795 12.3749 23.795Z" fill="#F9B799"/>
<path opacity="0.25" d="M12.3749 23.795L7.68342 23.8579C7.68342 23.8579 7.29577 24.7791 7.08704 25.5747C8.10088 26.0667 8.97557 26.7053 9.85026 27.4276C9.89002 27.2706 9.92978 27.1136 9.97947 26.9566C9.99935 27.1345 10.0192 27.3334 10.0491 27.5637C10.8939 26.8728 11.7388 26.0981 12.8421 25.7736C12.6632 24.6221 12.3749 23.795 12.3749 23.795Z" fill="#FF196B"/>
<path d="M6.96776 30.5997C7.00752 31.186 7.08703 31.7827 7.09697 32.3794C7.12679 33.3948 6.73915 34.4103 6.70933 35.3525C6.66957 36.7971 6.98764 38.0848 7.03734 38.9851C7.03734 38.9851 7.07709 39.4457 6.54035 40.5763C6.27198 41.1521 6.4509 41.9058 6.79878 41.9896C7.14667 42.0838 7.68341 41.5185 7.83251 41.1521C7.99154 40.7752 7.9816 39.8854 8.01142 39.5713C8.081 38.8595 8.52828 36.7762 8.81653 34.9023C8.95569 34.0125 8.92587 33.0913 9.04515 32.526C9.17436 31.8874 9.26382 31.3011 9.34334 30.7358C8.62768 30.9347 7.65359 30.851 6.96776 30.5997Z" fill="#330066"/>
<path d="M12.2755 38.7233C12.2656 38.3255 12.534 37.0274 12.5936 35.4362C12.6234 34.4835 12.3948 33.4157 12.4843 32.3793C12.5439 31.7198 12.6731 31.0603 12.7626 30.4531C12.0569 30.7253 11.053 30.8719 10.3572 30.6939C10.4665 31.4895 10.5758 32.2118 10.6454 32.6411C10.715 33.0389 10.556 34.0124 10.6554 34.8918C10.8442 36.5563 11.3114 38.4407 11.381 39.3619C11.4008 39.676 11.371 40.66 11.54 41.0264C11.709 41.3928 12.2159 41.8848 12.6035 41.822C12.9912 41.7592 13.0707 40.9741 12.8123 40.3983C12.5737 39.8644 12.2954 39.8435 12.2755 38.7233Z" fill="#330066"/>
<path d="M7.67343 40.9845C7.62373 40.8903 7.54422 40.817 7.4647 40.7647C7.37524 40.7123 7.28579 40.6809 7.18639 40.66C7.08699 40.639 6.9876 40.6495 6.8882 40.6704C6.7888 40.6914 6.69935 40.7437 6.62977 40.817C6.61983 40.8275 6.61983 40.8379 6.62977 40.8379C6.63971 40.8484 6.63971 40.8484 6.64965 40.8379C6.80868 40.7333 6.99754 40.7123 7.17645 40.7437C7.26591 40.7542 7.35536 40.7856 7.43488 40.8275C7.5144 40.8693 7.59392 40.9217 7.65355 40.995C7.66349 41.0054 7.67343 41.0054 7.67343 40.995C7.68337 40.995 7.68337 40.995 7.67343 40.9845Z" fill="#68C1E0"/>
<path d="M9.02527 31.0917C8.86624 31.1231 8.70721 31.1545 8.53823 31.1754C8.3792 31.1963 8.21022 31.1963 8.05119 31.1963C7.89215 31.1859 7.73312 31.1649 7.57409 31.1231C7.42499 31.0812 7.26596 31.0393 7.1268 30.9765C7.11686 30.966 7.09698 30.9765 7.08704 30.987C7.0771 30.9974 7.0771 31.0079 7.08704 31.0079C7.21626 31.0812 7.35541 31.144 7.51445 31.1963C7.67348 31.2487 7.84246 31.2801 8.03131 31.2906C8.21022 31.301 8.38914 31.2906 8.56805 31.2592C8.73702 31.2278 8.906 31.1859 9.05509 31.1335C9.07497 31.1231 9.07497 31.1126 9.06503 31.1021C9.06503 31.0917 9.04515 31.0917 9.02527 31.0917Z" fill="#68C1E0"/>
<path d="M11.7089 40.9007C11.7586 40.8065 11.8281 40.7332 11.9176 40.6809C11.9971 40.6286 12.0965 40.5867 12.1959 40.5657C12.2953 40.5448 12.3947 40.5448 12.4941 40.5762C12.5935 40.5971 12.6829 40.6495 12.7525 40.7228C12.7625 40.7332 12.7625 40.7437 12.7525 40.7437C12.7525 40.7542 12.7426 40.7542 12.7326 40.7437C12.5736 40.6495 12.3848 40.6181 12.2058 40.66C12.1164 40.6809 12.0269 40.7123 11.9474 40.7542C11.8679 40.7961 11.7884 40.8484 11.7287 40.9217C11.7188 40.9322 11.7188 40.9322 11.7089 40.9217C11.7089 40.9217 11.7089 40.9112 11.7089 40.9007Z" fill="#68C1E0"/>
<path d="M10.6454 31.0394C10.7945 31.0708 10.9535 31.0917 11.1125 31.1022C11.2716 31.1127 11.4306 31.1127 11.5797 31.1022C11.7288 31.0812 11.8878 31.0498 12.027 31.008C12.1761 30.9661 12.3152 30.9033 12.4444 30.8405C12.4544 30.83 12.4743 30.8405 12.4842 30.8405C12.4941 30.8509 12.4941 30.8614 12.4842 30.8614C12.3649 30.9452 12.2357 31.0184 12.0866 31.0708C11.9375 31.1231 11.7685 31.165 11.5996 31.1859C11.4306 31.2069 11.2517 31.1964 11.0926 31.1755C10.9237 31.1545 10.7746 31.1231 10.6255 31.0708C10.6056 31.0603 10.6056 31.0498 10.6155 31.0394C10.6155 31.0394 10.6354 31.0394 10.6454 31.0394Z" fill="#68C1E0"/>
<path d="M12.7129 21.5653C12.8123 20.4033 12.9117 19.2204 12.7626 18.0584C11.5797 17.7548 10.8343 18.9587 10.3969 20.0893C10.0789 19.0215 9.08489 17.9118 8.06111 18.2259C8.07105 18.6027 7.13672 19.3774 7.13672 19.7647C7.13672 20.6546 7.41503 22.4447 7.43491 22.6331C7.47467 23.0623 7.34545 23.7847 7.22618 25.1037C8.22014 25.5329 9.06501 26.496 9.88006 27.344C9.94964 27.3754 9.96952 27.3649 10.0292 27.3649C11.0331 26.5275 11.8183 25.9307 12.852 25.3864C12.7725 23.6591 12.4544 23.0938 12.7129 21.5653Z" fill="#0069E0"/>
<path d="M12.7228 24.0149C12.6631 23.5124 12.6035 23.0832 12.6134 22.5912C10.8839 22.6435 9.15442 22.5912 7.43486 22.6226V22.6331C7.46468 22.9052 7.42492 23.2926 7.35535 23.8684C9.16436 24.0254 10.9336 24.0254 12.7228 24.0149Z" fill="#330066"/>
<g opacity="0.49">
<g opacity="0.5">
<g opacity="0.5">
<path opacity="0.5" d="M9.25391 21.3245C9.6515 21.0942 10.0789 20.9476 10.5361 20.9162C10.6455 20.9057 10.7548 20.9057 10.8641 20.9162C10.9735 20.9267 11.0629 20.9999 11.1623 21.0628C11.2617 21.1256 11.3611 21.1779 11.4705 21.2198C11.5599 21.2617 11.6593 21.314 11.7587 21.3245C11.7786 21.3245 11.7885 21.2931 11.7686 21.2826C11.7189 21.2512 11.6593 21.2303 11.6096 21.1988C11.5599 21.1674 11.5003 21.1465 11.4506 21.1151C11.3412 21.0523 11.2418 20.9895 11.1424 20.9162C11.053 20.8534 10.9735 20.801 10.8741 20.7906C10.7647 20.7801 10.6455 20.801 10.5361 20.8115C10.0888 20.8743 9.64156 21.0314 9.25391 21.2826C9.21415 21.3035 9.23403 21.3349 9.25391 21.3245Z" fill="#094370"/>
</g>
</g>
</g>
<path d="M8.09093 16.4566C7.01745 16.6451 5.18855 15.4412 5.18855 15.4412C5.04939 15.4307 4.11507 12.5833 3.92621 11.9761C3.59821 12.0912 2.77321 12.4367 2.39551 12.51C2.73346 13.9651 3.61808 16.844 3.97591 17.179C4.31386 17.4826 6.45089 18.8121 6.70932 19.7333C6.95781 20.6336 7.1566 21.827 7.33551 23.0937C8.97556 22.0364 9.52224 18.8853 8.09093 16.4566Z" fill="#68C1E0"/>
<path opacity="0.15" d="M7.70328 17.9641C7.56413 18.3619 7.46473 18.8435 7.16654 19.1889C7.44485 18.655 7.36534 18.1316 7.36534 17.7338C7.23612 18.3933 7.06715 18.8644 6.78884 18.8644C5.95391 18.7911 4.95994 17.5139 4.8506 17.1999C4.76115 16.9277 4.91024 16.5613 5.02952 16.2472C4.75121 16.2472 4.49278 16.9486 4.28404 16.6346C3.51869 15.1166 3.00183 13.8709 2.58436 12.4471C2.51478 12.4681 2.44521 12.4785 2.39551 12.489C2.73346 13.9442 3.61809 16.823 3.97591 17.158C4.31386 17.4616 6.45089 18.7911 6.70932 19.7123C6.95781 20.6126 7.1566 21.8061 7.33552 23.0728C7.43491 23.01 7.53431 22.9367 7.63371 22.8529C7.54425 22.1725 7.23612 20.1834 7.36534 19.7752C7.49455 19.3878 7.79274 18.32 7.70328 17.9641Z" fill="#1B2346"/>
<path d="M15.1978 26.1714C15.6948 25.4386 16.48 25.0618 16.48 25.0618C16.48 25.0618 14.9095 22.811 14.8101 22.5493C14.7108 22.2876 14.3032 20.3823 14.0647 18.9062C13.8758 17.7233 13.4782 17.2103 13.3689 17.1161C13.1602 16.9172 12.1463 16.5613 11.5996 16.4252C11.2319 18.8225 11.5897 21.3454 12.6731 22.497C12.7825 21.8479 12.7825 21.827 12.9216 20.7173C12.9614 21.471 13.1701 22.4446 13.3689 23.0309C13.5677 23.6171 14.6611 25.3235 15.1978 26.1714Z" fill="#68C1E0"/>
<path opacity="0.15" d="M13.349 20.0265C13.1502 20.1312 13.349 20.4452 13.0508 20.4452C13.1502 19.8171 13.1502 19.0843 13.1502 18.4562C12.7923 19.6705 12.6731 20.8849 12.3749 22.0992C12.4743 22.2458 12.5737 22.3819 12.683 22.4971C12.7923 21.848 12.7923 21.8271 12.9315 20.7174C12.9713 21.4711 13.18 22.4447 13.3788 23.031C13.5776 23.6172 14.661 25.3236 15.2077 26.1715C15.2872 26.0459 15.3767 25.9412 15.4761 25.8365C14.2137 24.1616 12.9216 22.2458 13.349 20.0265Z" fill="#1B2346"/>
<g opacity="0.5">
<g opacity="0.5">
<g opacity="0.5">
<path opacity="0.5" d="M12.9912 17.2104C13.0508 17.5978 13.0508 17.9851 13.0409 18.3724C13.0409 18.8645 13.021 19.3565 12.9713 19.8485C12.9514 20.0684 12.9117 20.2777 12.8819 20.4871C12.8719 20.5604 12.9614 20.5918 12.9813 20.5185C13.031 20.3405 13.0508 20.1416 13.0608 19.9532C13.0807 19.7124 13.1005 19.4717 13.1005 19.2309C13.1204 18.7388 13.1105 18.2573 13.0906 17.7653C13.0807 17.5768 13.0707 17.3779 13.0409 17.2C13.0409 17.1581 12.9813 17.179 12.9912 17.2104Z" fill="#094370"/>
</g>
</g>
<g opacity="0.5">
<g opacity="0.5">
<path opacity="0.5" d="M13.359 18.1212C13.3391 18.4248 13.2894 18.7179 13.2397 19.0215C13.1801 19.3774 13.1105 19.7333 13.0211 20.0788C13.0012 20.1521 12.9813 20.2358 12.9515 20.3091C12.9316 20.3719 12.9018 20.4347 12.8819 20.4975C12.872 20.5394 12.9217 20.5813 12.9515 20.5394C13.031 20.4452 13.0608 20.2986 13.0906 20.1835C13.1403 20.016 13.1702 19.8485 13.2 19.6705C13.2696 19.3146 13.3193 18.9482 13.3491 18.5818C13.359 18.4248 13.3789 18.2782 13.3888 18.1212C13.3988 18.1002 13.359 18.1002 13.359 18.1212Z" fill="#094370"/>
</g>
</g>
<g opacity="0.5">
<g opacity="0.5">
<path opacity="0.5" d="M7.69336 16.9591C7.74306 17.2941 7.73312 17.6396 7.67348 17.9641C7.6039 18.3619 7.47469 18.7493 7.27589 19.0947C7.15662 19.3146 6.99759 19.4925 6.83855 19.681C6.79879 19.7333 6.85843 19.7961 6.90813 19.7542C7.06716 19.5972 7.19638 19.4088 7.30571 19.2203C7.41505 19.0424 7.50451 18.8435 7.57408 18.6446C7.7033 18.2782 7.77288 17.8908 7.78282 17.5035C7.78282 17.3255 7.77288 17.1371 7.74306 16.9591C7.74306 16.9068 7.69336 16.9277 7.69336 16.9591Z" fill="#094370"/>
</g>
</g>
<g opacity="0.5">
<g opacity="0.5">
<path opacity="0.5" d="M7.3156 17.5977C7.34542 17.9641 7.3156 18.32 7.22614 18.6759C7.17644 18.8539 7.11681 19.0214 7.05717 19.1889C7.02735 19.2726 6.98759 19.3564 6.94783 19.4401C6.90807 19.5239 6.84844 19.6076 6.82856 19.7018C6.81862 19.7437 6.86832 19.7856 6.90807 19.7542C6.96771 19.6809 7.00747 19.5762 7.04723 19.4925C7.08699 19.4087 7.11681 19.3354 7.14662 19.2517C7.2162 19.0737 7.27584 18.8958 7.3156 18.7178C7.40505 18.3514 7.42493 17.985 7.38518 17.6186C7.37524 17.5558 7.3156 17.5558 7.3156 17.5977Z" fill="#094370"/>
</g>
</g>
</g>
<path opacity="0.15" d="M7.61377 20.6236L7.62442 20.6127C7.62442 20.6346 7.61377 20.6346 7.61377 20.6236Z" fill="#094370"/>
<path d="M16.311 25.1665C16.5794 25.3445 17.3248 25.3026 17.4044 25.5015C17.4839 25.6899 16.798 25.6271 16.798 25.6271C16.798 25.6271 18.1001 26.6426 17.9113 26.8101C17.8119 26.8938 16.9968 26.2657 16.9471 26.318C16.8974 26.3599 17.7622 27.2288 17.5833 27.323C17.4044 27.4068 16.7583 26.6007 16.7583 26.6949C16.7583 26.7891 17.3944 27.6266 17.2155 27.6894C17.0465 27.7522 16.4899 26.8729 16.4402 26.9148C16.3905 26.9566 16.7682 27.6685 16.6291 27.7104C16.5595 27.7313 16.3408 27.344 16.1122 27.0194C15.8836 26.6949 15.655 26.4437 15.5655 26.318C15.4959 26.2134 15.3966 26.0877 15.3369 25.9935C15.6252 25.6376 15.9035 25.4073 16.311 25.1665Z" fill="#F9B799"/>
<path opacity="0.4" d="M17.2453 27.6266C17.1261 27.6895 16.7384 27.0718 16.48 26.7368C16.4005 26.7996 16.4303 26.9043 16.4303 26.8938C16.48 26.852 17.0366 27.7209 17.2056 27.6685C17.2255 27.6685 17.2354 27.6476 17.2453 27.6266Z" fill="#F26666"/>
<path opacity="0.4" d="M16.9571 26.1715C16.9074 26.2448 16.9272 26.2762 16.9968 26.3181C17.1658 26.3913 17.7423 26.8206 17.8914 26.8101C17.5733 26.6112 17.2354 26.3809 16.9571 26.1715Z" fill="#F26666"/>
<path opacity="0.4" d="M17.5933 27.2917C17.3149 27.0718 17.0664 26.7997 16.8378 26.517C16.7186 26.5065 16.7583 26.5903 16.7683 26.674C16.8776 26.7368 17.4044 27.3859 17.5734 27.3126C17.5833 27.3021 17.5933 27.3021 17.5933 27.2917Z" fill="#F26666"/>
<path d="M3.03157 10.9187C2.94211 10.9815 2.85266 10.992 2.7135 10.9292L2.87254 11.4631C2.90235 11.5468 2.98187 11.5887 3.06139 11.5678C3.14091 11.5363 3.18066 11.4526 3.16079 11.3689L3.03157 10.9187Z" fill="#330066"/>
<path d="M26.36 11.7562C26.2805 11.7772 26.2009 11.7353 26.1711 11.6515L23.4775 2.08324C23.4576 1.99949 23.4974 1.91574 23.5769 1.88433C23.6564 1.85293 23.7359 1.90527 23.7657 1.98902L26.4594 11.5573C26.4793 11.6515 26.4395 11.7353 26.36 11.7562Z" fill="#1B2346"/>
<path d="M26.36 11.7562C26.2805 11.7772 26.2009 11.7353 26.1711 11.6515L23.4775 2.08324C23.4576 1.99949 23.4974 1.91574 23.5769 1.88433C23.6564 1.85293 23.7359 1.90527 23.7657 1.98902L26.4594 11.5573C26.4793 11.6515 26.4395 11.7353 26.36 11.7562Z" fill="#1B2346"/>
<path d="M26.3202 2.24026C25.207 1.0573 23.8949 2.17744 23.8651 2.86837C23.4377 2.31354 21.6883 2.07276 21.4995 3.67445C21.3206 5.25521 24.541 6.16598 24.7995 6.22879V6.23926C24.8094 6.23926 24.8094 6.23926 24.8094 6.23926V6.22879C24.9983 6.01942 27.4732 3.46508 26.3202 2.24026Z" fill="#DC3258"/>
<path d="M24.7995 6.21829C24.7995 6.22876 24.8095 6.22876 24.7995 6.21829C24.8095 6.21829 24.8194 6.21829 24.8194 6.21829V6.20782C24.9983 6.01939 27.3639 3.56974 26.3998 2.32397L21.4996 3.69536C21.3604 5.26565 24.5411 6.15548 24.7995 6.21829Z" fill="#E27C22"/>
<path d="M26.6283 3.151L21.7479 4.52239C22.4735 5.57972 24.6006 6.17642 24.8093 6.22877V6.23924C24.8193 6.23924 24.8193 6.23924 24.8193 6.23924V6.22877C24.9584 6.06127 26.5388 4.42817 26.6283 3.151Z" fill="#F6E400"/>
<path d="M26.3898 4.0199L22.3842 5.14004C23.3085 5.81003 24.6405 6.1869 24.8094 6.2183V6.22877C24.8194 6.22877 24.8194 6.22877 24.8194 6.22877V6.2183C24.9287 6.09268 25.9227 5.06676 26.3898 4.0199Z" fill="#8ABB48"/>
<path d="M23.1693 5.61113C23.9247 5.988 24.6801 6.19737 24.7994 6.22878V6.23925C24.8094 6.23925 24.8094 6.23925 24.8094 6.23925V6.22878C24.8889 6.14503 25.4455 5.56926 25.9226 4.84692L23.1693 5.61113Z" fill="#0069E0"/>
<path d="M24.1533 6.01941C24.4813 6.13456 24.7298 6.20784 24.7994 6.21831V6.22878C24.8093 6.22878 24.8093 6.22878 24.8093 6.22878V6.21831C24.8491 6.17644 25.038 5.988 25.2666 5.71582L24.1533 6.01941Z" fill="#5533AC"/>
<path opacity="0.3" d="M24.8889 1.77966C24.7298 1.82154 24.5808 1.90529 24.4515 1.98904C25.197 2.57528 26.0319 3.24527 26.5289 3.64307C26.5687 3.50698 26.5985 3.36042 26.6184 3.22433L24.8889 1.77966Z" fill="#F6E400"/>
<path opacity="0.3" d="M21.6685 3.09875C21.589 3.25578 21.5293 3.44422 21.4995 3.67453C21.4995 3.69546 21.4995 3.70593 21.4995 3.72687C22.3941 4.4492 23.6763 5.46466 24.551 6.15558C24.6703 6.19746 24.7597 6.2184 24.7995 6.22886V6.23933C24.8094 6.23933 24.8094 6.23933 24.8094 6.23933V6.22886C24.8392 6.19746 24.9287 6.10324 25.0579 5.95668L21.6685 3.09875Z" fill="#F6E400"/>
<path opacity="0.3" d="M23.0501 2.46008C22.6724 2.40774 22.2549 2.47055 21.9468 2.73226C23.0401 3.61163 24.3422 4.63755 25.4257 5.50644C25.5847 5.31801 25.7437 5.09817 25.9028 4.85739L23.0501 2.46008Z" fill="#F6E400"/>
<path d="M22.0561 3.9466C22.1455 3.89425 22.2847 3.98847 22.3741 4.15597C22.4636 4.32347 22.4537 4.50143 22.3642 4.55377C22.2747 4.60612 22.1356 4.5119 22.0461 4.3444C21.9567 4.17691 21.9567 3.99894 22.0561 3.9466ZM22.6326 4.90971C22.722 4.98299 22.8314 5.00392 22.8711 4.94111C22.9109 4.88877 22.8711 4.78408 22.7817 4.70034C22.6922 4.62706 22.5829 4.60612 22.5431 4.66893C22.5034 4.73174 22.5431 4.83643 22.6326 4.90971Z" fill="#F6E400"/>
<path d="M18.8257 16.1321C18.8754 16.6241 19.0543 17.0219 19.76 17.2418C20.8633 17.5768 21.5691 17.4721 22.563 17.4407C23.0103 17.4302 23.5471 16.6555 23.6166 16.0902C24.1633 16.2787 24.6702 16.0693 24.7994 15.2946C24.9187 14.5199 24.1534 14.4467 24.1534 14.4467L18.0206 14.4571C18.0206 14.4571 17.3248 14.7398 17.5534 15.483C17.782 16.2368 18.4281 16.1635 18.8257 16.1321Z" fill="#8254E6"/>
<path opacity="0.3" d="M18.8257 16.1321C18.8754 16.6241 19.0543 17.0219 19.76 17.2418C20.8633 17.5768 21.5691 17.4721 22.563 17.4407C23.0103 17.4302 23.5471 16.6555 23.6166 16.0902C24.1633 16.2787 24.6702 16.0693 24.7994 15.2946C24.9187 14.5199 24.1534 14.4467 24.1534 14.4467L18.0206 14.4571C18.0206 14.4571 17.3248 14.7398 17.5534 15.483C17.782 16.2368 18.4281 16.1635 18.8257 16.1321Z" fill="#6D3393"/>
<path d="M26.9066 12.4576C26.8867 12.3948 26.8669 12.332 26.847 12.2691C26.9563 12.0807 27.1452 11.327 27.0557 11.0967C26.9663 10.8664 26.4792 10.4476 26.4792 10.4476C26.3997 10.1754 26.2307 10.1964 26.191 10.2278C26.1413 10.2592 25.8033 10.6046 25.7636 10.6884C25.7238 10.7721 25.6443 11.2328 25.7039 11.5154C25.7536 11.7981 25.9524 12.0179 26.0121 12.2168C26.0319 12.2691 26.0518 12.3738 26.0816 12.489C26.1115 12.7088 26.5488 15.7447 26.4494 15.975C26.35 16.1949 24.5211 17.4825 24.1533 17.5034C23.7856 17.5348 22.394 17.6814 22.1257 17.3673C22.0561 17.2836 22.076 16.3414 22.0859 16.1111L20.6248 16.153C20.6943 16.4775 20.6943 17.2941 20.5949 17.4406C20.4061 17.7442 18.945 17.7861 18.5772 18.2467C18.3585 18.5294 16.0426 21.7642 16.0525 22.1829C16.0625 22.6644 17.6031 23.9312 18.279 24.4022C18.3983 24.4965 18.5772 24.6325 18.6667 24.7582C18.8257 24.9675 19.4519 25.3339 19.6109 25.313C19.6308 25.313 19.6507 25.3025 19.6706 25.2921C19.4817 25.7527 19.3425 26.2028 19.1636 26.9775C18.8654 28.2547 24.4913 26.7158 24.4913 26.7158C24.3422 25.8574 23.7856 24.8 23.7061 24.2871C23.6464 23.9102 24.2229 19.9007 24.2229 19.9007C25.5747 18.9062 27.8907 17.0428 28.0099 16.5403C28.1093 16.0588 27.006 12.6984 26.9066 12.4576ZM26.0618 10.9606C26.0319 10.8873 26.0419 10.8454 26.0121 10.7826C26.0816 10.7826 26.1115 10.7303 26.1214 10.7407C26.1313 10.7617 26.0916 10.8768 26.0618 10.9606ZM19.5413 23.5857C19.2929 23.5543 19.1438 23.6799 18.9151 23.6904C18.8157 23.6904 18.6965 23.6694 18.5871 23.6485C18.2691 23.5543 17.5137 22.2143 17.5137 22.2143L19.2829 20.2148C19.2829 20.2148 19.8197 22.4132 19.919 23.7008C19.7799 23.6485 19.6507 23.6066 19.5413 23.5857ZM19.9389 24.0882C19.8097 24.0254 19.6904 23.994 19.6904 23.994C19.6904 23.994 19.8097 24.0254 19.9389 24.0358C19.9389 24.0568 19.9389 24.0777 19.9389 24.0882Z" fill="#F9B799"/>
<path opacity="0.25" d="M19.8892 25.3444C18.6269 24.4755 17.3447 23.5019 16.301 22.3295C16.1917 22.2038 16.1718 22.0154 16.1818 21.8479C16.0923 22.0154 16.0426 22.141 16.0426 22.2038C16.0525 22.6854 17.5932 23.9521 18.2691 24.4232C18.3884 24.5174 18.5673 24.6535 18.6567 24.7791C18.8158 24.9885 19.442 25.3549 19.601 25.3339C19.6209 25.3339 19.6408 25.3235 19.6606 25.313C19.6109 25.4386 19.5513 25.5643 19.5016 25.6899C19.6408 25.6271 19.77 25.5224 19.8892 25.3444Z" fill="#FF196B"/>
<path opacity="0.25" d="M27.5826 14.6036C27.6621 15.2632 27.8211 16.1739 27.7317 16.5508C27.6323 16.9277 25.4157 18.4351 24.3522 19.4192C24.2727 19.5134 24.3025 19.6495 24.3522 19.817C25.7239 18.8015 27.8708 17.0428 27.9901 16.5717C28.0398 16.3205 27.8311 15.4725 27.5826 14.6036Z" fill="#FF196B"/>
<path opacity="0.25" d="M18.6865 20.4243C18.5573 21.0314 17.8516 21.356 17.7124 21.9946L19.1537 20.3615C19.1238 19.6391 18.9449 18.9273 18.3982 18.498C18.3485 18.5713 18.279 18.6551 18.2094 18.7598C18.607 19.1994 18.8356 19.8066 18.6865 20.4243Z" fill="#FF196B"/>
<path d="M17.8914 36.8599C17.8715 37.5195 17.8715 38.2523 17.8317 39.1002C17.8317 39.1002 17.8317 39.5504 17.1956 40.5868C16.8775 41.1102 17.0465 41.8221 17.2254 41.8849C17.4143 41.9477 18.0206 41.6127 18.2094 41.2672C18.3983 40.9218 18.4778 40.0633 18.5374 39.7597C18.6368 39.2782 18.9748 38.179 19.3227 36.9542C18.8654 36.8495 18.3784 36.8076 17.8914 36.8599Z" fill="#F9B799"/>
<path d="M24.3124 38.9641C24.2925 38.5035 24.4217 37.7812 24.531 36.9227C24.0937 36.9541 23.6663 37.0169 23.2389 37.1216C23.4178 38.1371 23.5868 39.0793 23.6365 39.6132C23.6663 39.9167 23.6564 40.8694 23.8353 41.2253C24.0142 41.5812 24.6106 41.9372 24.7994 41.8848C24.9883 41.8325 25.1473 41.152 24.8789 40.5972C24.6205 40.0738 24.3621 40.0528 24.3124 38.9641Z" fill="#F9B799"/>
<path opacity="0.25" d="M19.0643 37.8544C19.0643 37.844 19.0643 37.844 19.0742 37.8335H19.0245C19.0345 37.844 19.0444 37.844 19.0643 37.8544Z" fill="#FF196B"/>
<path d="M24.4317 33.0074C24.0043 31.4895 24.6206 29.5005 24.6504 28.3698C24.6802 27.4695 24.6802 26.3389 23.8552 24.8001C23.8552 24.8001 23.4079 25.1979 21.9667 25.2083C20.5254 25.2083 19.8296 24.7163 19.8296 24.7163C19.8296 24.7163 19.3028 25.9935 19.1438 26.81C18.5176 29.8564 19.283 31.322 18.5673 32.9656C17.9312 34.4416 17.9212 35.6874 17.8815 37.4566C18.2989 37.4566 18.7164 37.6031 19.0742 37.8125C19.3028 37.0483 19.5513 36.1689 19.77 35.3315C19.9887 34.4835 20.0583 33.5937 20.2272 33.0598C20.7938 31.2068 21.6585 28.0663 21.8971 28.0558C22.1356 28.0558 22.5332 31.9815 22.7519 33.0912C22.8314 33.4785 22.7817 34.2323 22.901 35.0907C23.0302 36.0224 23.229 37.1007 23.388 38.0114C23.7061 37.823 24.0639 37.7288 24.4218 37.6869C24.6106 36.3993 24.8889 34.6091 24.4317 33.0074Z" fill="#FF196B"/>
<path d="M17.6627 39.2677C17.6627 39.2677 17.7423 39.5504 17.1161 40.5868C16.798 41.1102 16.8079 41.8221 17.2353 41.9791C17.6627 42.1257 18.11 41.6127 18.2989 41.2672C18.4877 40.9218 18.5673 40.0634 18.6269 39.7598C18.6567 39.6027 18.9947 39.4038 19.0742 39.1212C18.7859 39.0374 17.7522 38.9851 17.464 38.8909C17.4441 38.9851 17.6627 39.1631 17.6627 39.2677Z" fill="#1B2346"/>
<path d="M24.6901 38.9117C24.4515 39.0269 23.4874 39.1839 23.2389 39.2363C23.2588 39.3933 23.5371 39.4875 23.547 39.6027C23.5768 39.9063 23.5669 40.8589 23.7458 41.2148C23.9247 41.5708 24.3621 42.0628 24.7895 41.9686C25.2169 41.8639 25.2169 41.1311 24.9485 40.5762C24.8292 40.325 24.4515 39.8434 24.4316 39.498C24.6901 39.1211 24.6901 38.9222 24.6901 38.9117Z" fill="#1B2346"/>
<path opacity="0.25" d="M23.8254 23.3658C23.8452 23.1774 23.8651 22.9785 23.885 22.7587C22.5233 22.9157 21.1715 22.9994 19.7998 22.7796C19.8296 22.9785 19.8594 23.1774 19.8793 23.3658C21.2013 23.659 22.5829 23.8474 23.8254 23.3658Z" fill="#FF196B"/>
<path d="M23.9147 23.1461C24.034 22.0469 24.1732 20.5708 24.1732 20.5708C25.1373 18.4771 24.1334 17.5559 24.0539 17.4826C24.0042 17.4407 23.6364 17.5244 23.547 17.493C23.1295 18.9691 20.4955 18.8958 19.1537 17.9118C18.597 17.9537 18.3784 18.4143 18.2491 18.5713C18.7759 19.1471 18.925 19.7438 19.0741 20.5603L19.2928 20.4138C19.2928 20.4138 19.6805 21.9108 19.8295 23.1356C21.3106 23.3031 22.5331 23.4392 23.9147 23.1461Z" fill="#FFF0CF"/>
<path d="M20.8832 20.4766C21.1914 19.7961 21.907 20.0683 22.0164 20.351C22.1157 20.0474 22.8314 19.6705 23.1395 20.3196C23.4377 20.9686 22.1953 21.8584 22.0959 21.9317C21.9965 21.8794 20.5751 21.1885 20.8832 20.4766Z" fill="#DC3258"/>
<path d="M22.1058 21.9317C22.1058 21.9421 22.1058 21.9421 22.1058 21.9317C22.0959 21.9421 22.0959 21.9421 22.1058 21.9317C21.9965 21.8793 20.6347 21.2093 20.8633 20.5289L23.1495 20.3405C23.4278 20.979 22.2052 21.8689 22.1058 21.9317Z" fill="#E27C22"/>
<path d="M20.8932 20.9162L23.1694 20.7278C23.0103 21.2931 22.1853 21.8898 22.1058 21.9421C22.0164 21.8898 21.1119 21.4501 20.8932 20.9162Z" fill="#F6E400"/>
<path d="M21.1118 21.2513L22.9805 21.0942C22.6823 21.5235 22.1654 21.9003 22.1058 21.9422C22.0362 21.9003 21.4597 21.6177 21.1118 21.2513Z" fill="#8ABB48"/>
<path d="M22.7121 21.4188C22.4438 21.7015 22.1555 21.9108 22.1058 21.9422C22.0561 21.9213 21.7381 21.7643 21.4299 21.534L22.7121 21.4188Z" fill="#0069E0"/>
<path d="M22.3543 21.7433C22.225 21.848 22.1356 21.9108 22.1058 21.9317C22.076 21.9213 21.9766 21.8689 21.8374 21.7852L22.3543 21.7433Z" fill="#5533AC"/>
<g opacity="0.15">
<path opacity="0.15" d="M19.2034 18.4666C19.4121 19.2412 19.3525 19.8065 18.9946 20.1415C19.0244 20.2776 19.0543 20.4137 19.0741 20.5603L19.2928 20.4137C19.2928 20.4137 19.6805 21.9107 19.8296 23.1356C20.0979 23.167 20.3564 23.1879 20.6148 23.2193C20.4657 22.6749 20.2172 22.497 19.9687 21.9107C19.7003 21.2617 19.75 19.1784 19.2034 18.4666Z" fill="#1B2346"/>
</g>
<g opacity="0.15">
<path opacity="0.15" d="M24.3224 18.4456C24.2329 18.5398 24.2329 19.0842 24.1832 19.2936C24.1335 18.969 24.054 18.3514 23.9546 18.0687C23.8552 19.3145 24.3919 20.8638 23.6962 21.9316C23.3582 22.4341 23.3582 22.633 23.3781 23.2402C23.557 23.2193 23.7359 23.1879 23.9248 23.146C24.0441 22.0468 24.1832 20.5707 24.1832 20.5707C24.6007 19.6704 24.6404 18.99 24.5609 18.4979C24.5311 18.4665 24.5013 19.0946 24.4516 19.0842C24.4118 19.0737 24.3621 18.4142 24.3224 18.4456Z" fill="#1B2346"/>
</g>
<g opacity="0.25">
<path opacity="0.25" d="M20.6248 17.1998C20.6646 16.8963 20.6546 16.4042 20.6149 16.1635L22.076 16.1216C22.0661 16.2995 22.0561 16.9486 22.0859 17.2417C21.5989 17.3673 21.1019 17.3464 20.6248 17.1998Z" fill="#FF196B"/>
</g>
<path d="M23.6762 13.4731C23.6961 13.4312 23.716 13.3893 23.7458 13.3579C23.8353 13.2428 23.9844 13.18 24.1235 13.2009C24.2627 13.2218 24.3919 13.316 24.4615 13.4417C24.4813 13.4835 24.4913 13.5254 24.5112 13.5778C24.6006 13.9651 24.4615 14.3838 24.1931 14.6665C24.0937 14.7712 23.9645 14.8549 23.8253 14.8654C23.7657 14.8654 23.6961 14.8549 23.6464 14.8235C23.5967 14.7921 23.5669 14.7398 23.547 14.677C23.4774 14.4781 23.4377 13.9232 23.6762 13.4731Z" fill="#F9B799"/>
<g opacity="0.2">
<path opacity="0.2" d="M24.3223 13.6092C24.4614 13.7348 24.3223 14.363 24.1036 14.5828C24.0241 14.6665 23.9247 14.7398 23.8154 14.7398C23.7657 14.7398 23.716 14.7398 23.6762 14.7084C23.6364 14.677 23.6166 14.6351 23.5967 14.5933C23.5271 14.4362 23.9843 13.3161 24.3223 13.6092Z" fill="#FF196B"/>
</g>
<path d="M24.2627 13.6196C24.1832 13.6406 24.1037 13.6929 24.054 13.7453C23.9844 13.8081 23.9247 13.8813 23.875 13.9651C23.8254 14.0384 23.7856 14.1326 23.7757 14.2268C23.7657 14.321 23.7558 14.4257 23.7657 14.5199C23.7657 14.5513 23.8154 14.5513 23.8154 14.5199C23.8055 14.4362 23.8055 14.3315 23.8353 14.2582C23.8552 14.2268 23.8651 14.1849 23.875 14.1431C23.8949 14.1012 23.9049 14.0593 23.9347 14.0174C23.9744 13.9442 24.0241 13.8604 24.0738 13.7976C24.1335 13.7243 24.1832 13.672 24.2726 13.6406C24.2826 13.6406 24.2826 13.6196 24.2627 13.6196Z" fill="#F26666"/>
<path d="M23.9048 14.0697C23.9247 14.0488 23.9347 14.0383 23.9545 14.0383C23.9744 14.0383 23.9943 14.0383 24.0042 14.0488C24.0241 14.0697 24.0341 14.1116 24.0341 14.143C24.0341 14.1849 24.0142 14.2372 23.9943 14.2687C23.9844 14.2896 23.9645 14.3105 23.9545 14.3315C23.9446 14.3524 23.9148 14.3733 23.9048 14.3943C23.8949 14.4152 23.9148 14.4257 23.9347 14.4257C23.9545 14.4152 23.9744 14.3943 23.9943 14.3733C24.0142 14.3524 24.0241 14.3315 24.044 14.3001C24.0738 14.2477 24.0937 14.1954 24.0937 14.143C24.0937 14.0593 24.0539 13.9651 23.9645 13.9755C23.9247 13.9755 23.8949 13.9965 23.8651 14.0279C23.8452 14.0593 23.875 14.1012 23.9048 14.0697Z" fill="#F26666"/>
<path d="M18.935 14.4886C18.9449 14.7607 19.2431 16.3834 20.9428 16.6765C21.8175 16.8231 22.712 16.4881 23.2985 15.6401C24.0241 14.5828 23.7855 12.688 23.6563 12.2692C23.3482 11.2747 22.6325 10.4267 21.5391 10.5C19.0244 10.6571 18.8554 12.4786 18.935 14.4886Z" fill="#F9B799"/>
<g opacity="0.25">
<path opacity="0.25" d="M19.4916 13.7662C19.9389 13.7558 20.5651 13.2951 20.4657 12.4786C21.3404 12.8973 22.4735 12.8555 23.1693 12.3948C23.3482 12.8973 23.4575 13.2951 23.8054 13.6092C23.8054 13.002 23.7259 12.4681 23.6563 12.2692C23.3482 11.2747 22.6325 10.4267 21.5392 10.5C19.0244 10.6675 18.8554 12.4786 18.935 14.4886C18.935 14.5618 18.9548 14.7084 19.0145 14.9073C19.2232 14.8654 19.6904 14.5304 19.4916 13.7662Z" fill="#FF196B"/>
</g>
<path opacity="0.25" d="M21.7579 14.0593C21.5193 13.9336 21.2509 14.0174 21.4796 14.2477C21.6883 14.4571 22.0163 14.3838 22.1058 14.1116C22.1952 13.8394 21.9268 14.143 21.7579 14.0593Z" fill="#FF196B"/>
<path opacity="0.35" d="M21.8076 13.7557C21.7181 13.7557 21.6187 13.85 21.6983 13.9337C21.7778 14.0175 21.897 13.986 21.9368 13.8814C21.9666 13.7871 21.8672 13.7557 21.8076 13.7557Z" fill="white"/>
<path d="M21.8275 13.4312C21.8474 13.5045 21.8673 13.5673 21.917 13.6301C21.9567 13.6929 21.9965 13.7452 22.0362 13.808C22.076 13.8709 22.0959 13.9546 22.076 14.0279C22.0661 14.0698 22.0561 14.1116 22.0263 14.143C21.9965 14.1744 21.9667 14.1954 21.9369 14.2163C21.917 14.2268 21.917 14.2791 21.9468 14.2687C22.0263 14.2582 22.1058 14.1849 22.1356 14.1116C22.1754 14.0174 22.1754 13.9127 22.1356 13.8185C22.0661 13.6615 21.907 13.5777 21.8573 13.4102C21.8474 13.3998 21.8275 13.4102 21.8275 13.4312Z" fill="#F26666"/>
<path d="M22.3344 14.6979C21.9666 14.8759 21.5094 14.834 21.0919 14.6665C21.0919 14.6665 21.3106 15.1585 21.7082 15.1481C22.225 15.1376 22.3344 14.6979 22.3344 14.6979Z" fill="white"/>
<path d="M22.3245 14.6665C21.9269 14.834 21.4895 14.7607 21.1118 14.6037C21.0522 14.5827 21.0224 14.656 21.0423 14.6979C21.1317 14.8968 21.3007 15.0957 21.4995 15.1794C21.7778 15.2841 22.1157 15.148 22.2748 14.8968C22.3145 14.834 22.3444 14.7712 22.3642 14.7083C22.3742 14.6665 22.3046 14.6455 22.2947 14.6874C22.2947 14.6769 22.2947 14.6874 22.2947 14.6979C22.2947 14.7083 22.2847 14.7188 22.2847 14.7293C22.2748 14.7607 22.2549 14.7921 22.245 14.813C22.1853 14.9073 22.1157 14.991 22.0164 15.0329C21.8871 15.0957 21.7082 15.1166 21.5691 15.0643C21.4498 15.0224 21.3504 14.9282 21.2709 14.8235C21.2212 14.7607 21.1814 14.6979 21.1516 14.6246C21.1317 14.656 21.1019 14.6874 21.082 14.7188C21.4896 14.8863 21.9468 14.8863 22.3543 14.7083C22.3742 14.7083 22.3543 14.656 22.3245 14.6665Z" fill="#FF196B"/>
<path opacity="0.25" d="M21.3801 15.504C21.3801 15.6192 21.5392 15.7134 21.7181 15.7029C21.9069 15.7029 22.0461 15.5982 22.0461 15.4831C22.0461 15.3679 21.897 15.3679 21.7081 15.3679C21.5292 15.3889 21.3801 15.3889 21.3801 15.504Z" fill="#FF196B"/>
<path d="M23.3085 12.9705C23.1494 12.803 22.7618 12.7507 22.563 12.8868C22.4139 12.9915 22.2549 12.7402 22.4139 12.646C22.7519 12.4471 23.1892 12.5832 23.4178 12.8763C23.4675 12.9496 23.3681 13.0333 23.3085 12.9705Z" fill="#8254E6"/>
<path d="M19.77 12.9706C20.088 12.6775 20.585 12.5309 20.9826 12.7507C21.1416 12.8345 21.0025 13.0857 20.8434 12.9915C20.5751 12.8345 20.1079 12.8764 19.8694 13.0648C19.8097 13.1276 19.7004 13.0334 19.77 12.9706Z" fill="#8254E6"/>
<path opacity="0.25" d="M23.0307 15.0855C23.2831 15.0787 23.4834 14.8951 23.4781 14.6755C23.4727 14.4558 23.2637 14.2833 23.0113 14.2901C22.7588 14.297 22.5585 14.4805 22.5639 14.7002C22.5692 14.9198 22.7782 15.0923 23.0307 15.0855Z" fill="#FF196B"/>
<path opacity="0.25" d="M23.0241 14.6458C23.1229 14.6431 23.2015 14.5801 23.1997 14.5049C23.1978 14.4298 23.1163 14.371 23.0175 14.3737C22.9187 14.3764 22.8401 14.4395 22.8419 14.5146C22.8438 14.5897 22.9253 14.6485 23.0241 14.6458Z" fill="white"/>
<path opacity="0.25" d="M20.317 15.1902C20.5695 15.1834 20.7698 14.9998 20.7644 14.7802C20.7591 14.5606 20.5501 14.388 20.2977 14.3949C20.0452 14.4017 19.8449 14.5853 19.8503 14.8049C19.8556 15.0245 20.0646 15.1971 20.317 15.1902Z" fill="#FF196B"/>
<path opacity="0.25" d="M20.3006 14.7508C20.3994 14.7481 20.478 14.685 20.4761 14.6099C20.4743 14.5348 20.3928 14.476 20.294 14.4787C20.1952 14.4814 20.1166 14.5444 20.1184 14.6196C20.1203 14.6947 20.2018 14.7535 20.3006 14.7508Z" fill="white"/>
<path d="M21.6982 14.2164C21.6783 14.185 21.6585 14.1536 21.6286 14.1326C21.6187 14.1222 21.5988 14.1117 21.5889 14.1012C21.5789 14.0908 21.569 14.0908 21.5591 14.0908H21.5491C21.5491 14.0908 21.5491 14.0908 21.5392 14.0908C21.5094 14.0698 21.4696 14.1012 21.4696 14.1326C21.4696 14.164 21.5094 14.185 21.5392 14.1745C21.5292 14.1745 21.5292 14.1745 21.5193 14.185C21.5292 14.185 21.5292 14.185 21.5392 14.185C21.5491 14.185 21.5491 14.185 21.5591 14.185C21.5491 14.185 21.569 14.185 21.5591 14.185H21.569H21.5789C21.569 14.185 21.5789 14.185 21.5789 14.185C21.5789 14.185 21.5789 14.185 21.5889 14.185C21.5988 14.185 21.5988 14.1955 21.6088 14.1955C21.6088 14.1955 21.6187 14.1954 21.6187 14.2059C21.6286 14.2059 21.6286 14.2164 21.6386 14.2164C21.6386 14.2164 21.6386 14.2269 21.6485 14.2269C21.6585 14.2373 21.6684 14.2373 21.6783 14.2373C21.6982 14.2478 21.6982 14.2269 21.6982 14.2164Z" fill="#F26666"/>
<path d="M23.0699 13.5987C23.06 13.6406 23.0202 13.6825 22.9805 13.7034C22.9805 13.693 22.9805 13.693 22.9705 13.6825C22.9805 13.6616 22.9904 13.6511 23.0004 13.6301C23.0302 13.5778 23.0302 13.5045 23.0302 13.4522C23.0302 13.4312 23.0004 13.4208 23.0004 13.4417C22.9904 13.4836 22.9705 13.515 22.9407 13.5464C22.9308 13.5569 22.9208 13.5569 22.9208 13.5673C22.891 13.5359 22.8612 13.515 22.8214 13.515C22.722 13.515 22.6525 13.672 22.6525 13.8709C22.6525 14.0594 22.7419 14.2164 22.8413 14.2164C22.9407 14.2164 23.0103 14.0594 23.0103 13.8605C23.0103 13.85 23.0103 13.85 23.0103 13.8395C23.0302 13.8186 23.0401 13.8081 23.0501 13.7872C23.0898 13.7348 23.0998 13.672 23.1097 13.6092C23.1097 13.5883 23.0799 13.5778 23.0699 13.5987Z" fill="#1B2346"/>
<path d="M20.6048 13.672C20.5949 13.7139 20.5551 13.7557 20.5154 13.7767C20.5154 13.7662 20.5154 13.7662 20.5054 13.7557C20.5154 13.7348 20.5253 13.7243 20.5353 13.7034C20.5651 13.651 20.5651 13.5778 20.5651 13.5254C20.5651 13.5045 20.5353 13.494 20.5353 13.515C20.5253 13.5568 20.5054 13.5882 20.4756 13.6196C20.4657 13.6301 20.4557 13.6301 20.4557 13.6406C20.4259 13.6092 20.3961 13.5882 20.3564 13.5882C20.257 13.5882 20.1874 13.7453 20.1874 13.9442C20.1874 14.1326 20.2768 14.2896 20.3762 14.2896C20.4756 14.2896 20.5452 14.1326 20.5452 13.9337C20.5452 13.9232 20.5452 13.9232 20.5452 13.9128C20.5651 13.8918 20.575 13.8814 20.585 13.8604C20.6247 13.8081 20.6347 13.7453 20.6446 13.6824C20.6446 13.651 20.6048 13.6406 20.6048 13.672Z" fill="#1B2346"/>
<path d="M21.8971 9.34844C21.8971 9.34844 22.6326 8.65751 23.4775 8.82501C24.1633 8.97157 24.2826 9.77765 24.2826 9.77765C24.2826 9.77765 25.2666 9.54734 25.3362 10.5942C25.3859 11.2956 24.8591 11.4736 24.4913 11.6306C24.4913 11.6306 24.8491 12.8345 24.372 13.3056C23.9745 13.7034 23.5868 13.2009 23.3284 12.0493C23.3284 12.0493 21.6486 12.824 20.2073 12.0284C20.2073 12.0284 20.3465 13.159 19.2929 13.6406C19.2929 13.6406 19.5712 14.3315 19.2829 14.4362C18.9947 14.5409 18.9848 13.7976 18.8257 13.7767C18.6667 13.7557 18.6369 13.5463 18.3784 13.6092C18.12 13.672 18.0007 13.9546 18.0007 13.9546C18.0007 13.9546 17.5932 12.6356 17.9013 11.4736C18.2095 10.3116 19.2929 9.37985 20.0881 9.63109C20.0781 9.64156 20.8037 8.81454 21.8971 9.34844Z" fill="#8254E6"/>
<path opacity="0.3" d="M24.034 10.8455C24.3123 11.4631 23.4277 11.8924 23.04 10.9711C22.5232 11.9342 20.734 12.2483 19.9687 11.0549C19.9886 11.8191 19.6506 12.6775 18.925 12.7926C18.3982 12.8764 18.0006 12.4891 17.782 12.018C17.6826 13.0125 17.9708 13.9547 17.9708 13.9547C17.9708 13.9547 18.0901 13.672 18.3485 13.6092C18.607 13.5464 18.6368 13.7558 18.7958 13.7767C18.9548 13.7976 18.9648 14.5409 19.253 14.4362C19.5413 14.3315 19.263 13.6406 19.263 13.6406C20.3166 13.1591 20.1774 12.0284 20.1774 12.0284C21.6286 12.8241 23.2985 12.0494 23.2985 12.0494C23.5569 13.2114 23.9445 13.7034 24.3421 13.3056C24.8192 12.8345 24.4614 11.6306 24.4614 11.6306C24.8292 11.4736 25.356 11.2956 25.3063 10.5942C25.2963 10.4582 25.2765 10.343 25.2367 10.2488C25.2069 10.8769 24.6403 11.2119 24.034 10.8455Z" fill="#6D3393"/>
<path opacity="0.5" d="M22.8214 13.7348C22.8598 13.7348 22.891 13.702 22.891 13.6615C22.891 13.6211 22.8598 13.5883 22.8214 13.5883C22.783 13.5883 22.7518 13.6211 22.7518 13.6615C22.7518 13.702 22.783 13.7348 22.8214 13.7348Z" fill="white"/>
<path opacity="0.5" d="M20.3464 13.8081C20.3849 13.8081 20.416 13.7753 20.416 13.7348C20.416 13.6943 20.3849 13.6615 20.3464 13.6615C20.308 13.6615 20.2769 13.6943 20.2769 13.7348C20.2769 13.7753 20.308 13.8081 20.3464 13.8081Z" fill="white"/>
<path d="M19.0244 13.8499C18.8853 13.6196 18.6368 13.4312 18.3783 13.4835C18.279 13.5045 18.1895 13.5568 18.11 13.6301C17.9907 13.7557 17.941 13.9442 17.9509 14.1221C17.9609 14.3001 18.0305 14.4676 18.1199 14.6246C18.2889 14.9177 18.5573 15.169 18.8753 15.169C18.9847 15.169 19.094 15.1271 19.1536 15.0329C19.1835 14.9805 19.1934 14.9282 19.2033 14.8759C19.2232 14.7607 19.2829 14.3001 19.0244 13.8499Z" fill="#F9B799"/>
<path opacity="0.2" d="M18.3088 13.9232C18.0802 13.9232 18.2392 14.5304 18.4579 14.7607C18.6766 15.0015 18.9549 15.0748 18.9151 14.656C18.8754 14.2477 18.5871 13.9127 18.3088 13.9232Z" fill="#FF196B"/>
<path d="M18.3685 13.9337C18.4579 13.9546 18.5076 14.007 18.5673 14.0698C18.6269 14.1326 18.6865 14.2059 18.7263 14.2896C18.7462 14.321 18.7661 14.3629 18.7859 14.3943C18.8058 14.4362 18.8158 14.4781 18.8356 14.5199C18.8754 14.6037 18.8754 14.6979 18.8754 14.7921C18.8754 14.8235 18.9251 14.8235 18.9251 14.7921C18.9251 14.6979 18.9052 14.6037 18.9052 14.499C18.8953 14.4048 18.8356 14.3106 18.7859 14.2373C18.7362 14.164 18.6667 14.0907 18.5971 14.0279C18.5374 13.9756 18.4579 13.9232 18.3784 13.9128C18.3585 13.9023 18.3585 13.9232 18.3685 13.9337Z" fill="#F26666"/>
<path d="M18.7957 14.3001C18.7461 14.2582 18.6765 14.2373 18.6168 14.2792C18.587 14.3106 18.5771 14.3629 18.5671 14.4048C18.5671 14.4571 18.587 14.52 18.6069 14.5618C18.6268 14.5932 18.6367 14.6142 18.6665 14.6456C18.6765 14.656 18.6864 14.6665 18.6964 14.677C18.7063 14.6874 18.7162 14.6979 18.7361 14.6979C18.756 14.6979 18.7659 14.6874 18.756 14.6665C18.756 14.656 18.7461 14.656 18.7361 14.6456C18.7262 14.6351 18.7162 14.6246 18.7162 14.6142C18.7063 14.5932 18.6864 14.5828 18.6765 14.5618C18.6566 14.52 18.6367 14.4781 18.6268 14.4362C18.6268 14.4048 18.6268 14.3629 18.6467 14.3315C18.6566 14.321 18.6566 14.321 18.6665 14.3106C18.6765 14.3106 18.6765 14.3106 18.6964 14.3106C18.7063 14.3106 18.7063 14.3106 18.7063 14.3106H18.7162C18.7262 14.321 18.7361 14.321 18.7461 14.3315C18.7858 14.3629 18.8256 14.321 18.7957 14.3001Z" fill="#F26666"/>
<g opacity="0.5">
<path opacity="0.5" d="M22.7916 9.08667C22.9407 9.04479 23.0898 9.08667 23.1097 9.18088C23.1296 9.2751 23.0302 9.37979 22.8711 9.42166C22.722 9.46354 22.5729 9.42166 22.5531 9.32744C22.5332 9.24369 22.6326 9.12854 22.7916 9.08667ZM23.2985 9.23323C23.2886 9.29604 23.3681 9.35885 23.4675 9.37979C23.5669 9.40072 23.6564 9.35885 23.6663 9.30651C23.6762 9.2437 23.6067 9.18088 23.4973 9.15995C23.388 9.13901 23.2985 9.17041 23.2985 9.23323Z" fill="white"/>
</g>
<g opacity="0.5">
<g opacity="0.5">
<g opacity="0.5">
<path opacity="0.5" d="M16.7483 22.1097C16.8874 22.0783 17.0167 22.0573 17.1558 22.0573C17.2254 22.0573 17.285 22.0678 17.3447 22.0992C17.3944 22.1306 17.4441 22.1725 17.4938 22.2039C17.5136 22.2248 17.5435 22.183 17.5236 22.162C17.4242 22.0678 17.3148 22.005 17.1757 22.005C17.0266 22.005 16.8775 22.0469 16.7383 22.0888C16.7284 22.0888 16.7284 22.1097 16.7483 22.1097Z" fill="#F26666"/>
</g>
</g>
<g opacity="0.25">
<g opacity="0.25">
<path opacity="0.25" d="M19.2034 18.7388C19.4022 19.2413 19.4519 19.7961 19.2729 20.3196C19.2431 20.3928 19.3723 20.4347 19.3922 20.351C19.5016 19.8171 19.4618 19.2204 19.2232 18.7283C19.2133 18.7179 19.2034 18.7283 19.2034 18.7388Z" fill="#1B2346"/>
</g>
</g>
<g opacity="0.25">
<g opacity="0.25">
<path opacity="0.25" d="M19.6208 19.0214C19.6606 19.2622 19.6208 19.5239 19.5612 19.7542C19.5015 19.9845 19.3922 20.2043 19.263 20.3928C19.2133 20.4661 19.3325 20.5393 19.3822 20.4661C19.5313 20.2567 19.6208 20.0159 19.6705 19.7647C19.6904 19.639 19.7003 19.5134 19.7003 19.3878C19.6904 19.2622 19.6705 19.1366 19.6407 19.0109C19.6307 19.0005 19.6208 19.0109 19.6208 19.0214Z" fill="#1B2346"/>
</g>
</g>
<g opacity="0.25">
<g opacity="0.25">
<path opacity="0.25" d="M23.9645 18.6341C24.0639 19.2622 24.1136 19.9008 24.1136 20.5393C24.1136 20.6126 24.2229 20.6126 24.2229 20.5393C24.2229 19.8903 24.1434 19.2517 24.0043 18.6236C23.9844 18.6131 23.9546 18.6236 23.9645 18.6341Z" fill="#1B2346"/>
</g>
</g>
<g opacity="0.25">
<g opacity="0.25">
<path opacity="0.25" d="M24.2527 18.8853C24.2626 19.147 24.2626 19.4192 24.2427 19.6809C24.2229 19.9531 24.1831 20.2043 24.1433 20.4765C24.1334 20.5393 24.2427 20.5603 24.2527 20.4975C24.3123 20.2357 24.3223 19.9636 24.3322 19.7018C24.3421 19.4297 24.3123 19.1575 24.2825 18.8958C24.2825 18.8644 24.2527 18.8539 24.2527 18.8853Z" fill="#1B2346"/>
</g>
</g>
<g opacity="0.25">
<g opacity="0.25">
<path opacity="0.25" d="M21.1516 22.6436C21.3206 22.6122 21.4796 22.5703 21.6386 22.5179C21.7977 22.4656 21.9468 22.4133 22.1058 22.3609C22.2549 22.319 22.394 22.2876 22.5531 22.2876C22.7022 22.2981 22.8314 22.34 22.9507 22.4237C23.0004 22.4551 23.06 22.3819 23.0202 22.3295C22.7916 22.1097 22.4338 22.1411 22.1555 22.2248C21.9865 22.2772 21.8275 22.3505 21.6684 22.4133C21.4995 22.4761 21.3206 22.5389 21.1416 22.5703C21.1019 22.6017 21.1218 22.654 21.1516 22.6436Z" fill="#1B2346"/>
</g>
</g>
<g opacity="0.5">
<g opacity="0.5">
<path opacity="0.5" d="M21.7281 26.318C21.8076 26.81 21.8275 27.2916 21.8176 27.7836C21.8176 27.8569 21.917 27.8569 21.9269 27.7836C21.9269 27.2916 21.8772 26.7891 21.7877 26.2971C21.7679 26.2657 21.7182 26.2761 21.7281 26.318Z" fill="#FFF0CF"/>
</g>
</g>
<g opacity="0.5">
<g opacity="0.5">
<path opacity="0.5" d="M22.1555 26.3389C22.1555 26.6111 22.1356 26.8833 22.0859 27.1555C22.066 27.2916 22.0461 27.4172 22.0163 27.5533C22.0064 27.6161 21.9865 27.6894 21.9766 27.7522C21.9666 27.8046 21.9567 27.8778 21.9169 27.9197C21.8871 27.9616 21.9169 28.0244 21.9666 28.0139C22.0163 27.993 22.0362 27.9616 22.0561 27.9092C22.076 27.836 22.0859 27.7627 22.1058 27.6894C22.1356 27.5428 22.1555 27.3963 22.1654 27.2497C22.1952 26.9461 22.2052 26.6425 22.1952 26.3389C22.1853 26.318 22.1555 26.318 22.1555 26.3389Z" fill="#FFF0CF"/>
</g>
</g>
<g opacity="0.5">
<g opacity="0.5">
<path opacity="0.5" d="M20.3862 25.2607C20.3365 25.4701 20.2869 25.6899 20.2372 25.8993C20.2272 25.9516 20.2173 26.004 20.1974 26.0563C20.1875 26.0982 20.1676 26.14 20.1775 26.1819C20.1875 26.2238 20.2272 26.2447 20.257 26.2657C20.2968 26.2971 20.3365 26.318 20.3763 26.3494C20.4558 26.3913 20.5254 26.3494 20.5552 26.2657C20.585 26.1715 20.595 26.0668 20.6149 25.9725C20.6347 25.8679 20.6546 25.7632 20.6745 25.648C20.6844 25.5957 20.6944 25.5433 20.7043 25.491C20.7143 25.4386 20.7242 25.3863 20.7143 25.334C20.7043 25.2816 20.6347 25.2816 20.6049 25.3235C20.585 25.3654 20.5751 25.4072 20.5751 25.4596C20.5652 25.5015 20.5652 25.5433 20.5552 25.5747C20.5453 25.6585 20.5254 25.7422 20.5155 25.826C20.5055 25.9097 20.4856 25.9935 20.4757 26.0772C20.4658 26.1191 20.4658 26.161 20.4558 26.2029C20.4558 26.2133 20.4558 26.2343 20.4459 26.2447C20.4558 26.2447 20.4161 26.2238 20.4161 26.2238C20.3862 26.2029 20.3465 26.1819 20.3167 26.161C20.2769 26.1296 20.2968 26.0982 20.3067 26.0563C20.3266 25.9725 20.3365 25.8888 20.3564 25.805C20.3862 25.6271 20.4161 25.4491 20.4459 25.2711C20.426 25.2502 20.3862 25.2397 20.3862 25.2607Z" fill="#FFF0CF"/>
</g>
</g>
<g opacity="0.5">
<g opacity="0.5">
<path opacity="0.5" d="M23.1494 25.292C23.2289 25.2711 23.3085 25.2502 23.3979 25.2502C23.388 25.2397 23.3681 25.2292 23.3582 25.2188C23.3979 25.3758 23.4476 25.5223 23.4874 25.6794C23.5271 25.8364 23.5768 25.983 23.6166 26.14C23.6365 26.1086 23.6563 26.0772 23.6762 26.0562C23.5172 26.0458 23.3482 26.0667 23.1892 26.0877C23.2091 26.1086 23.2289 26.1191 23.2488 26.14C23.2289 26.0144 23.2091 25.8783 23.1892 25.7527C23.1693 25.627 23.1494 25.4909 23.1097 25.3653C23.0898 25.2816 22.9705 25.313 22.9904 25.3967C23.0103 25.5223 23.0401 25.6584 23.06 25.7841C23.0798 25.9097 23.0997 26.0458 23.1196 26.1714C23.1196 26.2028 23.1594 26.2237 23.1792 26.2237C23.3383 26.2028 23.5072 26.2028 23.6663 26.1923C23.706 26.1923 23.7458 26.1505 23.7259 26.1086C23.6663 25.962 23.6265 25.805 23.5768 25.6584C23.5271 25.5119 23.4774 25.3548 23.4277 25.2083C23.4178 25.1873 23.4079 25.1769 23.388 25.1769C23.2985 25.1873 23.2091 25.2083 23.1196 25.2397C23.0898 25.2397 23.0997 25.313 23.1494 25.292Z" fill="#FFF0CF"/>
</g>
</g>
<g opacity="0.5">
<g opacity="0.5">
<path opacity="0.5" d="M21.569 25.5539C21.569 25.6585 21.5789 25.7632 21.5789 25.8679C21.5789 25.9726 21.5888 26.0773 21.5789 26.182C21.5789 26.2029 21.5988 26.2238 21.6187 26.2343C21.728 26.2762 21.8572 26.2762 21.9765 26.2762C22.0958 26.2762 22.225 26.2657 22.3343 26.2343C22.3641 26.2238 22.384 26.1924 22.3741 26.161C22.3741 26.1296 22.3443 26.0982 22.3144 26.1087C22.2548 26.1192 22.1952 26.1296 22.1455 26.1401C22.0858 26.1506 22.0361 26.1506 21.9765 26.1506C21.8572 26.1506 21.7479 26.1296 21.6385 26.1296C21.6584 26.1401 21.6684 26.161 21.6882 26.1715C21.6684 26.0668 21.6783 25.9621 21.6684 25.8574C21.6584 25.7528 21.6584 25.6481 21.6485 25.5434C21.6385 25.5015 21.569 25.5015 21.569 25.5539Z" fill="#FFF0CF"/>
</g>
</g>
<g opacity="0.5">
<g opacity="0.5">
<path opacity="0.5" d="M21.9566 25.6585C21.8572 25.7318 21.897 25.9098 22.0162 25.9412C22.0858 25.9621 22.1653 25.9203 22.2051 25.8574C22.2449 25.7946 22.2449 25.7109 22.2051 25.6481C22.1852 25.6167 22.1554 25.5853 22.1156 25.5643C22.0759 25.5434 22.0262 25.5225 21.9864 25.5539C21.9566 25.5748 21.9566 25.6062 21.9864 25.6271C21.9964 25.6271 21.9964 25.6376 22.0063 25.6376C22.0063 25.6376 22.0162 25.6376 22.0063 25.6376C21.9964 25.6376 22.0162 25.6376 22.0162 25.6376C22.0262 25.6376 22.0461 25.6481 22.056 25.6481C22.0461 25.6481 22.056 25.6481 22.0659 25.6481L22.0759 25.6585C22.0759 25.6585 22.0858 25.669 22.0858 25.6585C22.0958 25.6585 22.0958 25.669 22.1057 25.669C22.1057 25.669 22.1057 25.669 22.1156 25.6795C22.1156 25.6795 22.1256 25.69 22.1156 25.6795C22.1156 25.6795 22.1156 25.6795 22.1156 25.6899C22.1156 25.7004 22.1256 25.7004 22.1256 25.7109C22.1256 25.7004 22.1256 25.7109 22.1256 25.7109V25.7214C22.1256 25.7214 22.1256 25.7423 22.1256 25.7318C22.1256 25.7423 22.1256 25.7423 22.1256 25.7528V25.7632C22.1256 25.7528 22.1256 25.7632 22.1256 25.7632C22.1256 25.7737 22.1256 25.7737 22.1156 25.7842C22.1156 25.7842 22.1156 25.7946 22.1156 25.7842V25.7946L22.1057 25.8051C22.1057 25.8156 22.1156 25.7946 22.1057 25.8051C22.1057 25.8051 22.1057 25.8051 22.0958 25.8156C22.0958 25.826 22.0858 25.826 22.0759 25.826C22.0858 25.8156 22.0659 25.826 22.0659 25.826L22.056 25.8365C22.0659 25.8365 22.0461 25.8365 22.0461 25.8365C22.0461 25.8365 22.0262 25.8365 22.0361 25.8365C22.0262 25.8365 22.0262 25.8365 22.0162 25.8365C22.0063 25.8365 22.0262 25.8365 22.0162 25.8365H22.0063C22.0063 25.8365 22.0063 25.8365 21.9964 25.8365C21.9964 25.8365 22.0063 25.8365 21.9964 25.8365L21.9864 25.826C21.9864 25.826 21.9964 25.826 21.9864 25.826L21.9765 25.8156C21.9765 25.8051 21.9765 25.8156 21.9765 25.8156C21.9765 25.8156 21.9765 25.8156 21.9765 25.8051L21.9665 25.7946C21.9665 25.7842 21.9665 25.7946 21.9665 25.7946C21.9665 25.7842 21.9665 25.7842 21.9665 25.7737C21.9665 25.7737 21.9665 25.7737 21.9665 25.7632C21.9665 25.7632 21.9665 25.7737 21.9665 25.7632C21.9665 25.7528 21.9665 25.7528 21.9665 25.7423C21.9665 25.7318 21.9665 25.7423 21.9665 25.7423V25.7318C21.9665 25.7318 21.9665 25.7318 21.9665 25.7214C21.9665 25.7214 21.9665 25.7318 21.9665 25.7214C21.9765 25.7109 21.9765 25.7109 21.9864 25.7004C22.0262 25.6899 21.9864 25.6376 21.9566 25.6585Z" fill="#FFF0CF"/>
</g>
</g>
<g opacity="0.5">
<g opacity="0.5">
<path opacity="0.5" d="M22.5729 26.2029C22.6425 26.2133 22.712 26.2133 22.7717 26.2029C22.8015 26.2029 22.8413 26.1924 22.8711 26.1819C22.9108 26.1715 22.9506 26.1715 22.9705 26.1401C23.0003 26.1191 22.9705 26.0668 22.9407 26.0668C22.9108 26.0668 22.8711 26.0877 22.8413 26.0877C22.8114 26.0982 22.7816 26.0982 22.7518 26.1086C22.6922 26.1191 22.6226 26.1191 22.563 26.1086C22.5431 26.1086 22.5232 26.1296 22.5232 26.1505C22.5331 26.1924 22.553 26.2029 22.5729 26.2029Z" fill="#FFF0CF"/>
</g>
</g>
<g opacity="0.5">
<g opacity="0.5">
<path opacity="0.5" d="M23.706 25.9516C23.7756 25.9202 23.8452 25.8888 23.9147 25.8574C23.9545 25.8469 23.9843 25.826 24.0241 25.8155C24.0638 25.805 24.0937 25.7946 24.1334 25.7841C24.1831 25.7632 24.1632 25.6899 24.1135 25.7004C24.0738 25.7108 24.034 25.7213 23.9943 25.7422C23.9545 25.7527 23.9247 25.7736 23.8849 25.7841C23.8153 25.8155 23.7358 25.8469 23.6662 25.8783C23.6464 25.8888 23.6464 25.9202 23.6563 25.9307C23.6662 25.9621 23.6861 25.9621 23.706 25.9516Z" fill="#FFF0CF"/>
</g>
</g>
<g opacity="0.5">
<g opacity="0.5">
<path opacity="0.5" d="M19.6208 25.805C19.7202 25.8678 19.8296 25.9306 19.9389 25.9725C19.9886 25.9935 20.0482 26.0144 20.0979 26.0353C20.1277 26.0458 20.1576 26.0563 20.1774 26.0667C20.2073 26.0772 20.2371 26.0877 20.257 26.0667C20.2768 26.0563 20.2768 26.0353 20.2669 26.0144C20.257 25.983 20.2271 25.983 20.1973 25.9725C20.1675 25.9621 20.1377 25.9621 20.1079 25.9516C20.0582 25.9411 19.9985 25.9202 19.9488 25.8992C19.8395 25.8574 19.7302 25.805 19.6308 25.7527C19.6208 25.7527 19.591 25.7946 19.6208 25.805Z" fill="#FFF0CF"/>
</g>
</g>
<g opacity="0.5">
<g opacity="0.5">
<path opacity="0.5" d="M20.5651 26.161C20.7539 26.2133 20.9328 26.2447 21.1217 26.2343C21.3105 26.2238 21.4994 26.1924 21.6783 26.1296C21.7379 26.1086 21.7081 26.0144 21.6485 26.0354C21.3105 26.1505 20.9229 26.1819 20.5651 26.0982C20.5452 26.0877 20.5253 26.1505 20.5651 26.161Z" fill="#FFF0CF"/>
</g>
</g>
<g opacity="0.5">
<g opacity="0.5">
<path opacity="0.5" d="M19.4619 26.7681C19.1438 28.0034 19.2631 29.2911 19.1935 30.5578C19.1836 30.7357 19.1637 30.9137 19.1438 31.0917C19.1239 31.2696 19.0742 31.4476 19.0742 31.6255C19.0742 31.6674 19.1339 31.6674 19.1438 31.636C19.1935 31.4895 19.2034 31.322 19.2233 31.1649C19.2432 31.0079 19.2531 30.8613 19.2631 30.7043C19.283 30.3903 19.2929 30.0657 19.2929 29.7517C19.3028 29.1236 19.2929 28.4954 19.3327 27.8569C19.3625 27.4905 19.4022 27.1345 19.4817 26.7786C19.4817 26.7577 19.4619 26.7472 19.4619 26.7681Z" fill="#FFF0CF"/>
</g>
</g>
<g opacity="0.5">
<g opacity="0.5">
<path opacity="0.5" d="M18.8655 32.5468C18.4778 33.5832 18.2194 34.6719 18.12 35.7816C18.0902 36.0957 18.0703 36.4097 18.0703 36.7238C18.0703 36.7866 18.1697 36.7866 18.1697 36.7238C18.1796 35.6141 18.3486 34.5044 18.6369 33.4471C18.7164 33.1435 18.8058 32.8504 18.9052 32.5573C18.9052 32.5363 18.8754 32.5259 18.8655 32.5468Z" fill="#FFF0CF"/>
</g>
</g>
<g opacity="0.5">
<g opacity="0.5">
<path opacity="0.5" d="M17.9907 37.0902C18.269 37.2472 18.5871 37.331 18.8952 37.3101C18.9648 37.3101 18.9549 37.1949 18.8952 37.2054C18.597 37.2263 18.2889 37.1635 18.0205 37.0274C17.9907 37.0065 17.951 37.0693 17.9907 37.0902Z" fill="#FFF0CF"/>
</g>
</g>
<g opacity="0.5">
<g opacity="0.5">
<path opacity="0.5" d="M23.547 37.5194C23.6763 37.509 23.8154 37.488 23.9347 37.4566C23.9943 37.4357 24.0639 37.4148 24.1235 37.3938C24.1832 37.3729 24.2627 37.3519 24.2925 37.2996C24.3124 37.2787 24.3025 37.2263 24.2627 37.2263C24.2031 37.2263 24.1434 37.2682 24.0937 37.2891C24.0341 37.3101 23.9744 37.331 23.9148 37.3519C23.7955 37.3833 23.6663 37.4148 23.5371 37.4252C23.4973 37.4357 23.4973 37.5194 23.547 37.5194Z" fill="#FFF0CF"/>
</g>
</g>
<g opacity="0.5">
<g opacity="0.5">
<path opacity="0.5" d="M22.2449 28.2861C22.4437 29.312 22.5928 30.3484 22.6822 31.3952C22.7121 31.6884 22.722 31.992 22.7518 32.2851C22.7618 32.3479 22.8512 32.3584 22.8512 32.2851C22.8413 32.0234 22.8114 31.7512 22.7816 31.4895C22.7518 31.2278 22.722 30.966 22.6922 30.7043C22.6325 30.1809 22.553 29.6679 22.4636 29.1445C22.4139 28.8514 22.3542 28.5583 22.2946 28.2651C22.2946 28.2233 22.235 28.2442 22.2449 28.2861Z" fill="#FFF0CF"/>
</g>
</g>
<g opacity="0.5">
<g opacity="0.5">
<path opacity="0.5" d="M23.0301 33.4262C23.0003 33.5204 23.0202 33.646 23.0202 33.7402C23.0202 33.8449 23.0301 33.96 23.0301 34.0647C23.04 34.2846 23.05 34.5149 23.0699 34.7347C23.0997 35.1744 23.1394 35.6141 23.1792 36.0538C23.209 36.305 23.2289 36.5563 23.2687 36.797C23.2786 36.8598 23.3879 36.8494 23.378 36.7866C23.3283 36.3469 23.2687 35.9072 23.219 35.4675C23.1792 35.0278 23.1394 34.5882 23.1196 34.1485C23.1096 34.0229 23.1096 33.8972 23.0997 33.7716C23.0897 33.6669 23.1096 33.5308 23.0599 33.4262C23.0599 33.4052 23.04 33.4157 23.0301 33.4262Z" fill="#FFF0CF"/>
</g>
</g>
</g>
<path d="M26.0618 11.2223C26.1612 11.2223 26.2506 11.1804 26.3301 11.0548L26.4594 11.5782C26.4792 11.662 26.4295 11.7457 26.35 11.7667C26.2705 11.7876 26.191 11.7353 26.1711 11.6515L26.0618 11.2223Z" fill="#1B2346"/>
<path d="M18.3486 23.5857C18.3486 23.5857 18.269 24.0044 18.1299 24.3185C18.1299 24.3185 18.4977 24.5697 18.6567 24.7791C18.8157 24.9885 19.4419 25.3549 19.601 25.334C19.76 25.313 19.7302 25.1455 19.7302 25.1455C19.7302 25.1455 19.8395 25.156 19.8793 25.1036C19.9488 24.999 19.8793 24.8943 19.8793 24.8943C19.8793 24.8943 20.0681 24.9257 20.1178 24.7896C20.1576 24.643 20.0582 24.5593 20.0582 24.5593C20.0582 24.5593 20.1874 24.4965 20.1775 24.308C20.1675 24.1615 19.6805 24.0044 19.6805 24.0044C19.6805 24.0044 20.257 24.1615 20.2768 23.8474C20.0383 23.7532 19.7401 23.6276 19.5413 23.5962C19.2928 23.5648 19.1437 23.6904 18.9151 23.7008C18.6865 23.7008 18.3486 23.5857 18.3486 23.5857Z" fill="#F9B799"/>
<path opacity="0.25" d="M20.0582 24.5488C20.0582 24.5488 20.1874 24.486 20.1775 24.2976C20.1775 24.2452 20.1179 24.1929 20.0383 24.151C20.098 24.2662 20.0781 24.4127 19.9688 24.4965C20.0085 24.643 19.9886 24.7582 19.8296 24.8315C19.8495 24.9676 19.7998 25.0304 19.6905 25.0722C19.6805 25.1455 19.6109 25.1979 19.5612 25.2083C19.3823 25.2502 18.7064 24.4127 18.1995 24.1091C18.1796 24.1719 18.1399 24.2557 18.12 24.3185C18.12 24.3185 18.4878 24.5697 18.6468 24.7791C18.8158 24.999 19.3426 25.2816 19.4917 25.3235C19.5314 25.334 19.5612 25.3444 19.5911 25.334C19.7501 25.313 19.7203 25.1455 19.7203 25.1455C19.7203 25.1455 19.8296 25.156 19.8694 25.1036C19.9389 24.999 19.8694 24.8943 19.8694 24.8943C19.8694 24.8943 20.0582 24.9257 20.1079 24.7896C20.1576 24.6535 20.0582 24.5488 20.0582 24.5488Z" fill="#FF196B"/>
<path opacity="0.25" d="M19.6905 23.994C19.6905 23.994 20.1676 24.1197 20.267 23.9103C20.0384 24.0045 19.8396 23.8998 19.6209 23.8684C19.5811 23.9626 19.6905 23.994 19.6905 23.994Z" fill="#FF196B"/>
<path d="M20.3763 17.5035C20.3763 17.5035 20.933 19.1576 21.9866 19.0215C23.0402 18.8854 22.573 17.4512 22.573 17.4512" stroke="white" stroke-width="1.8179" stroke-miterlimit="10" stroke-linecap="round" stroke-linejoin="round"/>
</g>
<defs>
<clipPath id="clip0_1_3171">
<rect width="28" height="42" fill="white"/>
</clipPath>
</defs>
</svg>
