<svg width="34" height="28" viewBox="0 0 34 28" fill="none" xmlns="http://www.w3.org/2000/svg">
<g clip-path="url(#clip0_1_3150)">
<path d="M2.53848 14.6753L15.3091 27.3033C16.2393 28.2237 17.752 28.2237 18.6909 27.3033L29.2795 16.8258L31.4528 14.6753C33.148 12.9979 34 10.7957 34 8.59358C34 6.39143 33.148 4.18928 31.4528 2.51186C31.0355 2.09896 30.5922 1.73767 30.1227 1.42799C26.7497 -0.791361 22.1509 -0.430071 19.169 2.52047L16.9957 4.671L14.8223 2.52047C13.1271 0.843046 10.9103 3.60243e-05 8.68474 3.60243e-05C6.45922 3.60243e-05 4.2424 0.843046 2.53848 2.52047C-0.851955 5.8753 -0.851955 11.3205 2.53848 14.6753Z" fill="#FA4654"/>
<path d="M4.42498 15.6387L15.5265 26.6236C16.335 27.4236 17.6564 27.4236 18.4649 26.6236L27.6799 17.5054L29.5664 15.6387C31.0443 14.1763 31.7832 12.2666 31.7832 10.3484C31.7832 8.43869 31.0443 6.52041 29.5664 5.05805C29.2099 4.70536 28.8187 4.38708 28.4102 4.12042C25.4805 2.18493 21.4815 2.50321 18.8908 5.05805L17.0044 6.92471L15.1179 5.05805C13.64 3.59568 11.7101 2.8645 9.77144 2.8645C7.8415 2.8645 5.90286 3.59568 4.42498 5.05805C1.47791 7.98278 1.47791 12.714 4.42498 15.6387Z" fill="#FF8B00"/>
<path d="M6.25061 16.542L15.7438 25.9355C16.4393 26.6237 17.5608 26.6237 18.2562 25.9355L26.1325 18.142L27.7495 16.542C29.01 15.2947 29.6447 13.6603 29.6447 12.0259C29.6447 10.3914 29.01 8.75704 27.7495 7.50112C27.4452 7.20005 27.1062 6.92478 26.7584 6.69252C24.246 5.04091 20.8295 5.30757 18.6127 7.50112L16.9957 9.10112L15.3787 7.50112C14.1182 6.25381 12.4664 5.62585 10.806 5.62585C9.15422 5.62585 7.50247 6.25381 6.24192 7.50112C3.72082 9.99575 3.72082 14.0474 6.25061 16.542Z" fill="#F9C744"/>
<path d="M8.14578 17.5227L15.9612 25.256C16.5349 25.8237 17.4564 25.8237 18.0302 25.256L24.5242 18.8388L25.8543 17.5227C26.8888 16.499 27.4104 15.1485 27.4104 13.7979C27.4104 12.4474 26.8888 11.1054 25.8543 10.0732C25.6022 9.82373 25.324 9.60007 25.0371 9.41082C22.9681 8.05168 20.1514 8.26674 18.3345 10.0732L17.0044 11.3893L15.6743 10.0732C14.6311 9.04953 13.2749 8.5334 11.91 8.5334C10.5452 8.5334 9.18899 9.04953 8.14578 10.0732C6.06805 12.1291 6.06805 15.4667 8.14578 17.5227Z" fill="#15BE79"/>
<path d="M9.82361 18.2882L16.1611 24.5592C16.6219 25.0151 17.3782 25.0151 17.839 24.5592L23.0985 19.3549L24.1765 18.2882C25.0197 17.4538 25.437 16.3613 25.437 15.2689C25.437 14.1764 25.0197 13.0839 24.1765 12.2495C23.9678 12.0431 23.7505 11.8624 23.5158 11.7162C21.8379 10.6151 19.5516 10.7871 18.0737 12.2495L16.9957 13.3162L15.9177 12.2495C15.0744 11.4151 13.9704 11.0022 12.8663 11.0022C11.7622 11.0022 10.6582 11.4151 9.81492 12.2495C8.13709 13.9183 8.13709 16.6194 9.82361 18.2882Z" fill="#0391E8"/>
<path d="M11.4405 19.0108L16.3523 23.871C16.7088 24.2237 17.2912 24.2237 17.6477 23.871L21.7162 19.8452L22.5507 19.0194C23.2028 18.3743 23.5244 17.5312 23.5244 16.6882C23.5244 15.8452 23.1941 14.9936 22.5507 14.3485C22.3943 14.1936 22.2204 14.056 22.0378 13.9355C20.7425 13.0839 18.9691 13.2216 17.8302 14.3485L16.9956 15.1743L16.1611 14.3485C15.5091 13.7033 14.6571 13.385 13.7965 13.385C12.9445 13.385 12.0839 13.7033 11.4405 14.3485C10.1365 15.6302 10.1365 17.7205 11.4405 19.0108Z" fill="#AA0DD1"/>
<path d="M11.6302 15.7545C11.3528 15.3843 11.6313 14.7149 12.2523 14.2593C12.8732 13.8038 13.6015 13.7346 13.8789 14.1047C14.1562 14.4749 13.8777 15.1443 13.2568 15.5999C12.6358 16.0555 11.9076 16.1247 11.6302 15.7545Z" fill="#D63AFC"/>
<path d="M11.2823 17.8224C10.9878 17.7792 10.8074 17.3555 10.8794 16.8762C10.9513 16.3968 11.2483 16.0433 11.5428 16.0866C11.8372 16.1298 12.0176 16.5535 11.9457 17.0329C11.8737 17.5122 11.5767 17.8657 11.2823 17.8224Z" fill="#D63AFC"/>
<path d="M1.47282 5.55814C1.15254 5.13071 1.47132 4.35985 2.18483 3.83637C2.89835 3.3129 3.73641 3.23504 4.05668 3.66247C4.37696 4.0899 4.05818 4.86076 3.34466 5.38424C2.63115 5.90771 1.79309 5.98557 1.47282 5.55814Z" fill="#FB626E"/>
<path d="M1.08388 7.92842C0.746671 7.87887 0.540205 7.39297 0.622726 6.84312C0.705247 6.29328 1.04551 5.88771 1.38271 5.93726C1.71992 5.98681 1.92639 6.47272 1.84387 7.02256C1.76135 7.57241 1.42109 7.97797 1.08388 7.92842Z" fill="#FB626E"/>
<path d="M5.58955 9.7783C5.31216 9.40811 5.59068 8.73871 6.21163 8.28314C6.83258 7.82757 7.56083 7.75836 7.83821 8.12855C8.11559 8.49873 7.83707 9.16814 7.21612 9.6237C6.59517 10.0793 5.86693 10.1485 5.58955 9.7783Z" fill="#FAD98F"/>
<path d="M5.24989 11.8438C4.95543 11.8005 4.77505 11.3769 4.84699 10.8975C4.91893 10.4182 5.21595 10.0647 5.51041 10.1079C5.80487 10.1512 5.98526 10.5749 5.91332 11.0542C5.84138 11.5336 5.54435 11.8871 5.24989 11.8438Z" fill="#FAD98F"/>
<path d="M9.70223 13.847C9.42485 13.4768 9.70336 12.8074 10.3243 12.3519C10.9453 11.8963 11.6735 11.8271 11.9509 12.1973C12.2283 12.5675 11.9497 13.2369 11.3288 13.6924C10.7079 14.148 9.97961 14.2172 9.70223 13.847Z" fill="#22AEF4"/>
<path d="M9.36074 15.9213C9.06628 15.8781 8.88589 15.4544 8.95783 14.975C9.02977 14.4957 9.3268 14.1422 9.62125 14.1854C9.91571 14.2287 10.0961 14.6524 10.0242 15.1317C9.95222 15.6111 9.6552 15.9646 9.36074 15.9213Z" fill="#22AEF4"/>
<path d="M3.49371 7.70542C3.21632 7.33523 3.49484 6.66583 4.11579 6.21026C4.73675 5.7547 5.46499 5.68548 5.74238 6.05567C6.01976 6.42586 5.74125 7.09526 5.12029 7.55083C4.49934 8.00639 3.77109 8.07561 3.49371 7.70542Z" fill="#FFAC52"/>
<path d="M3.15466 9.77057C2.8602 9.72731 2.67981 9.30364 2.75175 8.82429C2.82369 8.34493 3.12072 7.99142 3.41519 8.03469C3.70965 8.07796 3.89004 8.50163 3.8181 8.98098C3.74616 9.46033 3.44913 9.81384 3.15466 9.77057Z" fill="#FFAC52"/>
<path d="M7.79841 11.9746C7.52103 11.6044 7.79954 10.935 8.42049 10.4794C9.04144 10.0239 9.76969 9.95465 10.0471 10.3248C10.3245 10.695 10.0459 11.3644 9.42499 11.82C8.80403 12.2756 8.07579 12.3448 7.79841 11.9746Z" fill="#33DB92"/>
<path d="M7.45715 14.0372C7.16269 13.9939 6.9823 13.5702 7.05424 13.0909C7.12618 12.6115 7.42321 12.258 7.71768 12.3013C8.01214 12.3446 8.19253 12.7682 8.12059 13.2476C8.04865 13.7269 7.75162 14.0804 7.45715 14.0372Z" fill="#33DB92"/>
</g>
<defs>
<clipPath id="clip0_1_3150">
<rect width="34" height="28" fill="white" transform="matrix(-1 0 0 1 34 0)"/>
</clipPath>
</defs>
</svg>
