<svg width="26" height="38" viewBox="0 0 26 38" fill="none" xmlns="http://www.w3.org/2000/svg">
<g clip-path="url(#clip0_1_2018)">
<path d="M18.1909 18.0824C16.9046 19.5221 15.0519 20.4396 13.0153 20.4396C10.9635 20.4396 9.12606 19.5379 7.83984 18.0824V22.7019C9.09544 21.7843 10.6113 21.2465 12.2651 21.2465H13.7656C15.4194 21.2465 16.9506 21.7843 18.1909 22.7019V18.0824Z" fill="#EF7816"/>
<path d="M21.0389 17.6395H4.96118V8.30558C4.96118 3.71774 8.55953 0 13.0001 0C17.4406 0 21.0389 3.71774 21.0389 8.30558V17.6395Z" fill="#FFA91A"/>
<path d="M17.8693 1.69276C18.8952 3.08493 19.5077 4.82515 19.5077 6.72356V17.6395H21.0389V8.30558C21.0389 5.60033 19.7986 3.21149 17.8693 1.69276Z" fill="#F79219"/>
<path d="M18.2827 2.05662C19.523 3.51207 20.2733 5.42631 20.2733 7.51457V17.6395H21.0389V8.30558C21.0389 5.80599 19.9671 3.57535 18.2827 2.05662Z" fill="#EF7816"/>
<path d="M20.0436 10.378V13.1624C20.0436 13.6844 19.9824 14.2065 19.8905 14.6969C19.9364 14.6969 19.9977 14.7127 20.0436 14.7127C21.192 14.7127 22.1414 13.7477 22.1414 12.5454C22.1414 11.3431 21.2073 10.378 20.0436 10.378Z" fill="#FFD2C0"/>
<path d="M21.3605 10.8526C21.6514 11.2323 21.8351 11.6911 21.8351 12.2132C21.8351 13.3364 21.0083 14.254 19.9518 14.3647C19.9364 14.4754 19.9211 14.5704 19.8905 14.6811C19.9364 14.6811 19.9977 14.6969 20.0436 14.6969C21.192 14.6969 22.1414 13.7319 22.1414 12.5296C22.1414 11.8493 21.8351 11.2481 21.3605 10.8526Z" fill="#FCC4AE"/>
<path d="M20.0436 11.4221V13.1465C20.0436 13.3047 20.0436 13.4788 20.0283 13.637H20.0436C20.6408 13.637 21.1155 13.1465 21.1155 12.5296C21.1155 11.9126 20.6408 11.4221 20.0436 11.4221Z" fill="#F2AD97"/>
<path d="M5.95641 13.1465V10.378C4.808 10.378 3.85864 11.3431 3.85864 12.5454C3.85864 13.7477 4.79268 14.7127 5.95641 14.7127C6.00234 14.7127 6.06359 14.7127 6.10953 14.6969C6.01765 14.1907 5.95641 13.6844 5.95641 13.1465Z" fill="#FFD2C0"/>
<path d="M5.95637 13.1465V11.4221C5.3592 11.4221 4.88452 11.9126 4.88452 12.5296C4.88452 13.1465 5.3592 13.637 5.95637 13.637H5.97168C5.97168 13.4788 5.95637 13.3206 5.95637 13.1465Z" fill="#F2AD97"/>
<path d="M24.4688 38H1.53121C0.689046 38 0 37.2881 0 36.418V30.7227C0 26.3564 3.42992 22.8127 7.65607 22.8127H18.3439C22.5701 22.8127 26 26.3564 26 30.7227V36.418C26 37.2881 25.311 38 24.4688 38Z" fill="#D10028"/>
<path d="M23.3663 24.7585C24.53 26.1507 25.2344 27.9542 25.2344 29.9475V35.6428C25.2344 36.5129 24.5454 37.2248 23.7032 37.2248H0.765615C0.535933 37.2248 0.321563 37.1773 0.137817 37.0824C0.382812 37.6361 0.918736 38.0158 1.53122 38.0158H24.4688C25.311 38.0158 26 37.3039 26 36.4338V30.7385C26 28.3339 24.9741 26.1982 23.3663 24.7585Z" fill="#B7022D"/>
<path d="M19.7986 33.2381L20.9164 32.1782C21.2379 31.8776 21.4217 31.4505 21.4217 31.0075V29.1407C21.4217 24.7744 17.9917 21.2306 13.7656 21.2306H12.2497C8.02355 21.2306 4.59363 24.7744 4.59363 29.1407V31.0075C4.59363 31.4505 4.77737 31.8776 5.09893 32.1782L6.21671 33.2381L4.82331 35.2948C4.6855 35.5004 4.60894 35.7535 4.60894 36.0225V38H21.4217V36.0225C21.4217 35.7694 21.3451 35.5162 21.2073 35.2948L19.7986 33.2381Z" fill="#E8566F"/>
<path d="M21.4064 31.0233V29.1565C21.4064 26.7677 20.3804 24.632 18.7727 23.1765C19.9364 24.5687 20.6407 26.3722 20.6407 28.3655V30.2323C20.6407 30.6753 20.457 31.1024 20.1354 31.403L19.0177 32.4629L20.4111 34.5196C20.5489 34.7252 20.6254 34.9783 20.6254 35.2473V36.592C20.6254 36.94 20.3498 37.2248 20.0129 37.2248H4.59363V38.0158H21.4064V36.0383C21.4064 35.7852 21.3298 35.532 21.192 35.3106L19.7986 33.2539L20.9164 32.194C21.2226 31.8934 21.4064 31.4663 21.4064 31.0233Z" fill="#E63950"/>
<path d="M17.4711 38H8.52881V24.8693C8.52881 23.7302 9.41691 22.8127 10.5194 22.8127H15.4652C16.5677 22.8127 17.4558 23.7302 17.4558 24.8693V38H17.4711Z" fill="#D1D3D4"/>
<path d="M13 20.4238C12.1272 20.4238 11.3003 20.2656 10.5194 19.965V23.6986C10.5194 23.841 10.5653 23.9833 10.6572 24.0941L12.5253 26.4829C12.7703 26.7993 13.2297 26.7993 13.4747 26.4829L15.3427 24.0941C15.4346 23.9833 15.4805 23.841 15.4805 23.6986V19.965C14.6996 20.2656 13.8728 20.4238 13 20.4238Z" fill="#FCC4AE"/>
<path d="M13 20.4238C12.1272 20.4238 11.3003 20.2656 10.5194 19.965V20.7719C11.3003 21.0566 12.1272 21.2148 13 21.2148C13.8728 21.2148 14.6996 21.0566 15.4805 20.7719V19.965C14.6996 20.2656 13.8728 20.4238 13 20.4238Z" fill="#F2AD97"/>
<path d="M8.03882 9.33389C11.6831 9.33389 14.7762 7.37219 15.9858 4.61948C18.2826 4.88843 20.0588 6.89758 20.0588 9.33389V13.1465C20.0588 17.1649 16.9045 20.4238 13.0153 20.4238C9.12598 20.4238 5.97168 17.1649 5.97168 13.1465V9.33389C5.97168 9.25478 5.97168 9.1915 5.97168 9.1124C6.6301 9.25478 7.31915 9.33389 8.03882 9.33389Z" fill="#FFD2C0"/>
<path d="M18.2979 5.60033C18.9104 6.40716 19.2779 7.43547 19.2779 8.54288V12.3555C19.2779 16.3739 16.1236 19.6328 12.2343 19.6328C10.4888 19.6328 8.88098 18.9684 7.65601 17.8768C8.94223 19.4271 10.8562 20.4238 12.9999 20.4238C16.8892 20.4238 20.0435 17.1649 20.0435 13.1465V9.33389C20.0435 7.81515 19.3545 6.47044 18.2979 5.60033Z" fill="#FCC4AE"/>
<path d="M16.0624 12.3081C16.5106 12.3081 16.8739 11.9327 16.8739 11.4696C16.8739 11.0065 16.5106 10.6311 16.0624 10.6311C15.6142 10.6311 15.2509 11.0065 15.2509 11.4696C15.2509 11.9327 15.6142 12.3081 16.0624 12.3081Z" fill="#995222"/>
<path d="M9.93752 12.3081C10.3857 12.3081 10.7491 11.9327 10.7491 11.4696C10.7491 11.0065 10.3857 10.6311 9.93752 10.6311C9.48932 10.6311 9.12598 11.0065 9.12598 11.4696C9.12598 11.9327 9.48932 12.3081 9.93752 12.3081Z" fill="#995222"/>
<path d="M13 16.8643C13.9647 16.8643 14.7303 16.3897 14.7303 15.7885H11.2698C11.2698 16.3897 12.0507 16.8643 13 16.8643Z" fill="#995222"/>
<path d="M20.0435 14.6969C19.9976 14.6969 19.9364 14.6969 19.8904 14.6811C19.6148 15.9783 19.0176 17.1332 18.1908 18.0666V22.9392C18.1908 24.0941 17.7008 25.2015 16.8586 25.9767L16.6443 26.1665C16.4299 26.3564 16.5677 26.7202 16.8433 26.7202H17.6242C19.5076 26.7202 21.0235 25.1382 21.0235 23.2082V14.4438C20.7479 14.602 20.411 14.6969 20.0435 14.6969Z" fill="#FFA91A"/>
<path d="M20.0435 14.6969C19.9976 14.6969 19.9364 14.6969 19.8904 14.6811C19.7986 15.1082 19.6761 15.5354 19.5076 15.9309V21.5945C19.5076 22.8918 18.8339 24.0308 17.808 24.632C17.5783 25.1224 17.2567 25.5812 16.8586 25.945L16.6443 26.1349C16.4299 26.3247 16.5677 26.6886 16.8433 26.6886H17.6242C19.5076 26.6886 21.0235 25.1066 21.0235 23.1765V14.4438C20.7479 14.602 20.411 14.6969 20.0435 14.6969Z" fill="#F79219"/>
<path d="M20.2732 14.6811V22.4013C20.2732 24.3314 18.7726 25.8976 16.9046 25.9134C16.8892 25.9292 16.8739 25.945 16.8586 25.9609L16.6443 26.1507C16.4299 26.3405 16.5677 26.7044 16.8433 26.7044H17.6242C19.5076 26.7044 21.0235 25.1224 21.0235 23.1923V14.4438C20.8092 14.5704 20.5488 14.6495 20.2732 14.6811Z" fill="#EF7816"/>
<path d="M9.14139 25.9609C8.29923 25.2015 7.80924 24.0941 7.80924 22.9234V18.0666C6.96707 17.1332 6.3699 15.9625 6.10959 14.6811C6.06365 14.6811 6.00241 14.6969 5.95647 14.6969C5.60429 14.6969 5.26742 14.602 4.96118 14.4438V23.1923C4.96118 25.1382 6.49239 26.7044 8.36047 26.7044H9.14139C9.41701 26.7044 9.55482 26.3405 9.34045 26.1507L9.14139 25.9609Z" fill="#FFA91A"/>
<path d="M6.232 6.32806C6.20137 6.32806 6.17075 6.32806 6.14012 6.31224C5.987 6.26478 5.89513 6.07494 5.94106 5.91674C6.55355 3.97086 7.93164 2.34138 9.70785 1.42382C9.86097 1.34472 10.0447 1.408 10.1213 1.5662C10.1978 1.7244 10.1366 1.91424 9.98347 1.99334C8.34507 2.83181 7.08947 4.33472 6.52293 6.1224C6.4923 6.24896 6.3698 6.32806 6.232 6.32806ZM10.9941 1.5662C10.8563 1.5662 10.7338 1.47128 10.7031 1.34472C10.6572 1.17069 10.7491 0.996672 10.9175 0.949211C10.9481 0.933391 10.9941 0.933391 11.0247 0.917571C11.1931 0.870111 11.3616 0.965032 11.4075 1.13905C11.4534 1.31307 11.3616 1.4871 11.1931 1.53456C11.1625 1.55038 11.1166 1.55038 11.0859 1.5662C11.04 1.5662 11.0247 1.5662 10.9941 1.5662Z" fill="#FFC91D"/>
<path d="M15.2202 26.3564C15.6796 25.8185 15.9705 25.1066 15.9705 24.3314C15.9705 22.6386 14.6384 21.2781 13.0153 21.2781C11.3769 21.2781 10.0601 22.6545 10.0601 24.3314C10.0601 25.1066 10.3357 25.8185 10.8104 26.3564H15.2202Z" fill="#939598"/>
<path d="M14.6537 23.6511C14.6537 24.8218 14.0106 25.8343 13.0765 26.3564H15.2202C15.6796 25.8185 15.9705 25.1066 15.9705 24.3314C15.9705 22.8601 14.9752 21.642 13.6278 21.3414C14.2556 21.8951 14.6537 22.7336 14.6537 23.6511Z" fill="#808285"/>
<path d="M15.4499 30.5645H10.55C10.1213 30.5645 9.78442 30.2165 9.78442 29.7735V27.1474C9.78442 26.7044 10.1213 26.3564 10.55 26.3564H15.4499C15.8787 26.3564 16.2155 26.7044 16.2155 27.1474V29.7735C16.2155 30.2165 15.8787 30.5645 15.4499 30.5645Z" fill="#377DE2"/>
<path d="M15.4499 26.3564V28.9825C15.4499 29.4255 15.113 29.7735 14.6843 29.7735H9.78442C9.78442 30.2165 10.1213 30.5645 10.55 30.5645H15.4499C15.8787 30.5645 16.2155 30.2165 16.2155 29.7735V27.1474C16.2155 26.7044 15.8787 26.3564 15.4499 26.3564Z" fill="#2266D3"/>
<path d="M14.4394 32.8268L14.6231 30.5645H11.377L11.5607 32.8268H14.4394Z" fill="#58595B"/>
<path d="M14.4394 32.8268L14.6231 30.5645H13.7963L13.6125 32.8268H14.4394Z" fill="#414042"/>
<path d="M16.2309 24.6953H9.76917C9.57011 24.6953 9.41699 24.5371 9.41699 24.3314C9.41699 24.1257 9.57011 23.9675 9.76917 23.9675H16.2309C16.4299 23.9675 16.5831 24.1257 16.5831 24.3314C16.5831 24.5371 16.4299 24.6953 16.2309 24.6953Z" fill="#58595B"/>
<path d="M10.3969 38H4.59363V32.8268H10.3969C10.5654 32.8268 10.7032 32.9692 10.7032 33.1432V37.6836C10.7032 37.8576 10.5654 38 10.3969 38Z" fill="#D10028"/>
<path d="M10.3969 32.8268H9.93756V36.8926C9.93756 37.0666 9.79976 37.209 9.63132 37.209H4.59363V38H10.3969C10.5654 38 10.7032 37.8576 10.7032 37.6836V33.1432C10.7032 32.9692 10.5654 32.8268 10.3969 32.8268Z" fill="#B7022D"/>
<path d="M11.4687 38H14.5312C14.9599 38 15.2968 37.652 15.2968 37.209V33.6178C15.2968 33.1749 14.9599 32.8268 14.5312 32.8268H11.4687C11.04 32.8268 10.7031 33.1749 10.7031 33.6178V37.209C10.7031 37.652 11.0553 38 11.4687 38Z" fill="#FFD2C0"/>
<path d="M14.5312 32.8268V36.418C14.5312 36.8609 14.1943 37.209 13.7656 37.209H10.7031C10.7031 37.652 11.04 38 11.4687 38H14.5312C14.9599 38 15.2968 37.652 15.2968 37.209V33.6178C15.2968 33.1749 14.9599 32.8268 14.5312 32.8268Z" fill="#FCC4AE"/>
</g>
<defs>
<clipPath id="clip0_1_2018">
<rect width="26" height="38" fill="white"/>
</clipPath>
</defs>
</svg>
