<svg width="30" height="30" viewBox="0 0 30 30" fill="none" xmlns="http://www.w3.org/2000/svg">
<g clip-path="url(#clip0_1_2264)">
<path d="M1.5 0H28.5V1.5C28.5 2.4 27.9 3 27 3H3C2.1 3 1.5 2.4 1.5 1.5V0Z" fill="#B1542B"/>
<path d="M27 3H3V27H27V3Z" fill="#F0EEEC"/>
<path d="M27 3H3V4.5H27V3Z" fill="#983424"/>
<path d="M1.5 25.5C1.5 24.6 2.1 24 3 24H27C27.9 24 28.5 24.6 28.5 25.5V27H1.5V25.5Z" fill="#983424"/>
<path d="M1.5 27H28.5C29.4 27 30 27.6 30 28.5C30 29.4 29.4 30 28.5 30H1.5C0.6 30 0 29.4 0 28.5C0 27.6 0.6 27 1.5 27Z" fill="#B1542B"/>
<path d="M27 4.5H25.5V24H27V4.5Z" fill="#AEAEAE"/>
<path d="M27 4.5H25.5V24H27V4.5Z" fill="#983424"/>
<path d="M4.5 4.5H3V24H4.5V4.5Z" fill="#983424"/>
<path d="M25.5 13.5H4.5V15H25.5V13.5Z" fill="#983424"/>
<path d="M5.25 6H6.75C7.2 6 7.5 6.3 7.5 6.75V12.75C7.5 13.2 7.2 13.5 6.75 13.5H5.25C4.8 13.5 4.5 13.2 4.5 12.75V6.75C4.5 6.3 4.8 6 5.25 6Z" fill="#6599FE"/>
<path d="M25.0501 16.5H23.55C23.1 16.5 22.8 16.8 22.8 17.25V23.25C22.8 23.7 23.1 24 23.55 24H25.0501C25.5001 24 25.8001 23.7 25.8001 23.25V17.25C25.8001 16.8 25.5001 16.5 25.0501 16.5Z" fill="#9DDC2D"/>
<path d="M11.25 6H12.75C13.2 6 13.5 6.3 13.5 6.75V12.75C13.5 13.2 13.2 13.5 12.75 13.5H11.25C10.8 13.5 10.5 13.2 10.5 12.75V6.75C10.5 6.3 10.8 6 11.25 6Z" fill="#9DDC2D"/>
<path d="M19.05 16.5H17.55C17.1 16.5 16.8 16.8 16.8 17.25V23.25C16.8 23.7 17.1 24 17.55 24H19.05C19.5 24 19.8 23.7 19.8 23.25V17.25C19.8 16.8 19.5 16.5 19.05 16.5Z" fill="#6599FE"/>
<path d="M8.25 4.5H9.75C10.2 4.5 10.5 4.8 10.5 5.25V12.75C10.5 13.2 10.2 13.5 9.75 13.5H8.25C7.8 13.5 7.5 13.2 7.5 12.75V5.25C7.5 4.8 7.8 4.5 8.25 4.5Z" fill="#FEBE40"/>
<path d="M22.05 15H20.55C20.1 15 19.8 15.3 19.8 15.75V23.25C19.8 23.7 20.1 24 20.55 24H22.05C22.5 24 22.8 23.7 22.8 23.25V15.75C22.8 15.3 22.5 15 22.05 15Z" fill="#FEBE40"/>
<path d="M14.25 4.5H15.75C16.2 4.5 16.5 4.8 16.5 5.25V12.75C16.5 13.2 16.2 13.5 15.75 13.5H14.25C13.8 13.5 13.5 13.2 13.5 12.75V5.25C13.5 4.8 13.8 4.5 14.25 4.5Z" fill="#5A5D62"/>
<path d="M16.05 15H14.55C14.1 15 13.8 15.3 13.8 15.75V23.25C13.8 23.7 14.1 24 14.55 24H16.05C16.5 24 16.8 23.7 16.8 23.25V15.75C16.8 15.3 16.5 15 16.05 15Z" fill="#9DDC2D"/>
<path d="M24.15 5.25L25.35 6.3C25.65 6.6 25.65 7.05 25.5 7.35L20.4 13.35C19.95 13.5 19.5 13.65 19.2 13.35L18 12.3C17.7 12 17.7 11.55 17.85 11.25L22.95 5.25C23.4 5.1 23.85 4.95 24.15 5.25Z" fill="#6599FE"/>
<path d="M13.5 21.75V23.25C13.5 23.7 13.2 24 12.75 24H5.25C4.8 24 4.5 23.7 4.5 23.25V21.75C4.5 21.3 4.8 21 5.25 21H12.75C13.2 21 13.5 21.3 13.5 21.75Z" fill="#5A5D62"/>
<path d="M12 18.75V20.25C12 20.7 11.7 21 11.25 21H5.25C4.8 21 4.5 20.7 4.5 20.25V18.75C4.5 18.3 4.8 18 5.25 18H11.25C11.7 18 12 18.3 12 18.75Z" fill="#FEBE40"/>
<path d="M7.5 7.5H4.5V9H7.5V7.5Z" fill="#3454FF"/>
<path d="M25.8001 18H22.8V19.5H25.8001V18Z" fill="#FD6D5E"/>
<path d="M13.5 7.5H10.5V9H13.5V7.5Z" fill="#74B743"/>
<path d="M19.8 18H16.8V19.5H19.8V18Z" fill="#FD6D5E"/>
<path d="M16.5 6H13.5V7.5H16.5V6Z" fill="#FD6D5E"/>
<path d="M16.8 16.5H13.8V18H16.8V16.5Z" fill="#FEBE40"/>
<path d="M16.5 10.5H13.5V12H16.5V10.5Z" fill="#FD6D5E"/>
<path d="M16.8 21H13.8V22.5H16.8V21Z" fill="#FEBE40"/>
<path d="M7.5 10.5H4.5V12H7.5V10.5Z" fill="#3454FF"/>
<path d="M25.8001 21H22.8V22.5H25.8001V21Z" fill="#6599FE"/>
<path d="M10.5 7.5H7.5V10.5H10.5V7.5Z" fill="#FD6D5E"/>
<path d="M22.8 18H19.8V21H22.8V18Z" fill="#3454FF"/>
<path d="M10.5 18H6V21H10.5V18Z" fill="#FD6D5E"/>
<path d="M12 21H10.5V24H12V21Z" fill="#6599FE"/>
</g>
<defs>
<clipPath id="clip0_1_2264">
<rect width="30" height="30" fill="white"/>
</clipPath>
</defs>
</svg>
