<svg width="44" height="22" viewBox="0 0 44 22" fill="none" xmlns="http://www.w3.org/2000/svg">
<g clip-path="url(#clip0_1_2223)">
<path d="M13.883 18.1955V21.6898L0 16.5207V13.0056L13.883 18.1955Z" fill="#FDF4D7"/>
<path d="M39.0751 12.0132V15.7763L13.8831 22V18.0301L39.0751 12.0132Z" fill="#C60508"/>
<path d="M39.0751 12.0132L24.0368 7.7124L0 12.8609L13.883 18.0301L39.0751 12.0132Z" fill="#F6352C"/>
<path d="M13.883 18.0301V18.5263L0 13.2538V12.8609L13.883 18.0301Z" fill="#C60508"/>
<path d="M13.883 21.5038V22L0 16.7274V16.3346L13.883 21.5038Z" fill="#C60508"/>
<path d="M13.883 19.1673C9.4445 17.3891 4.51958 15.5282 0 13.9361C4.43851 15.735 9.36343 17.5959 13.883 19.1673Z" fill="#E4DFBF"/>
<path d="M13.883 19.7876C9.4445 17.9887 4.51958 16.1278 0 14.5357C4.43851 16.3346 9.36343 18.1955 13.883 19.7876Z" fill="#E4DFBF"/>
<path d="M13.883 20.3872C9.4445 18.5883 4.51958 16.7274 0 15.156C4.43851 16.9342 9.36343 18.7951 13.883 20.3872Z" fill="#E4DFBF"/>
<path d="M13.883 20.9868C9.4445 19.2086 4.51958 17.3477 0 15.7556C4.43851 17.5545 9.36343 19.4154 13.883 20.9868Z" fill="#E4DFBF"/>
<path d="M33.0963 14.8872V15.5489C33.0963 15.9211 32.8531 16.2519 32.4883 16.3346L26.3271 17.844C26.1649 17.8853 26.0028 17.7613 26.0028 17.5752V16.8722C26.0028 16.5 26.246 16.1692 26.6108 16.0865L32.772 14.6184C32.9342 14.5771 33.0963 14.7011 33.0963 14.8872Z" fill="#91BA80"/>
<path d="M29.5496 12.5714L21.1387 10.0075L15.322 11.2895L23.2667 13.9361L29.5496 12.5714Z" fill="#91BA80"/>
<path d="M18.8079 15.3214V18.8158L4.94519 13.6466V10.1316L18.8079 15.3214Z" fill="#FDF4D7"/>
<path d="M44.0001 9.1391V12.9023L18.808 19.1259V15.1353L44.0001 9.1391Z" fill="#5C2E3B"/>
<path d="M44 9.1391L28.9618 4.81767L4.94519 9.98685L18.8079 15.1353L44 9.1391Z" fill="#903C7A"/>
<path d="M18.8079 15.1353V15.6523L4.94519 10.359V9.98685L18.8079 15.1353Z" fill="#5C2E3B"/>
<path d="M18.8079 18.609V19.1259L4.94519 13.8327V13.4605L18.8079 18.609Z" fill="#5C2E3B"/>
<path d="M18.8079 16.2932C14.3694 14.4944 9.4445 12.6335 4.92493 11.062C9.3837 12.8402 14.3086 14.7011 18.8079 16.2932Z" fill="#E4DFBF"/>
<path d="M18.8079 16.8929C14.3694 15.094 9.4445 13.2331 4.92493 11.6617C9.3837 13.4605 14.3086 15.3008 18.8079 16.8929Z" fill="#E4DFBF"/>
<path d="M18.8079 17.5132C14.3694 15.7143 9.4445 13.8534 4.94519 12.2613C9.3837 14.0602 14.3086 15.9211 18.8079 17.5132Z" fill="#E4DFBF"/>
<path d="M18.8079 18.1128C14.3694 16.3139 9.4445 14.453 4.92493 12.8816C9.3837 14.6598 14.3086 16.5207 18.8079 18.1128Z" fill="#E4DFBF"/>
<path d="M38.0415 11.9925V12.6541C38.0415 13.0263 37.7983 13.3571 37.4335 13.4399L31.2723 14.9493C31.1101 14.9906 30.948 14.8665 30.948 14.6805V13.9774C30.948 13.6053 31.1912 13.2744 31.556 13.1917L37.7172 11.7237C37.8794 11.703 38.0415 11.8271 38.0415 11.9925Z" fill="#903C7A"/>
<path d="M34.4948 9.69737L26.0839 7.13346L20.2672 8.41542L28.2119 11.062L34.4948 9.69737Z" fill="#F6352C"/>
<path d="M13.883 10.4831V13.9774L0 8.82895V5.29324L13.883 10.4831Z" fill="#FDF4D7"/>
<path d="M39.0751 4.30075V8.06391L13.8831 14.2876V10.3177L39.0751 4.30075Z" fill="#309084"/>
<path d="M39.0751 4.30075L24.0368 0L0 5.1485L13.883 10.3177L39.0751 4.30075Z" fill="#42C9B8"/>
<path d="M13.883 10.3177V10.8139L0 5.54136V5.1485L13.883 10.3177Z" fill="#309084"/>
<path d="M13.883 13.7913V14.2876L0 9.01503V8.62218L13.883 13.7913Z" fill="#309084"/>
<path d="M13.883 11.4549C9.4445 9.6767 4.51958 7.81579 0 6.22369C4.43851 8.02256 9.36343 9.88346 13.883 11.4549Z" fill="#E4DFBF"/>
<path d="M13.883 12.0752C9.4445 10.2763 4.51958 8.41542 0 6.82331C4.43851 8.62218 9.36343 10.4831 13.883 12.0752Z" fill="#E4DFBF"/>
<path d="M13.883 12.6748C9.4445 10.8759 4.51958 9.03572 0 7.44361C4.43851 9.22181 9.36343 11.0827 13.883 12.6748Z" fill="#E4DFBF"/>
<path d="M13.883 13.2744C9.4445 11.4962 4.51958 9.63534 0 8.04324C4.43851 9.84211 9.36343 11.703 13.883 13.2744Z" fill="#E4DFBF"/>
<path d="M33.0963 6.82331V8.47745L26.0028 10.2143V8.5188L33.0963 6.82331Z" fill="#42C9B8"/>
<path d="M29.5496 4.85902L21.1387 2.31579L15.322 3.57707L23.2667 6.22368L29.5496 4.85902Z" fill="#E4C141"/>
</g>
<defs>
<clipPath id="clip0_1_2223">
<rect width="44" height="22" fill="white"/>
</clipPath>
</defs>
</svg>
