<svg width="30" height="38" viewBox="0 0 30 38" fill="none" xmlns="http://www.w3.org/2000/svg">
<g clip-path="url(#clip0_1_2107)">
<path d="M28.0515 30.6661C28.0515 31.3497 27.4948 31.9074 26.8123 31.9074H4.14845C3.46602 31.9074 2.9093 31.3497 2.9093 30.6661V17.8577C2.9093 17.1741 3.46602 16.6164 4.14845 16.6164H26.8123C27.4948 16.6164 28.0515 17.1741 28.0515 17.8577V30.6661Z" fill="#78BEDE"/>
<path d="M30 18.1455C29.6947 16.3466 28.258 15.2672 26.5429 15.2672H3.45705C1.74199 15.2672 0.305298 16.3466 0 18.1455H30Z" fill="#2961A5"/>
<path d="M7.39894 18.7751H5.2439V20.3042H7.39894V18.7751Z" fill="#3D2A3D"/>
<path d="M10.3621 18.7751H8.11731V20.3042H10.3621V18.7751Z" fill="#3D2A3D"/>
<path d="M13.2355 18.7751H11.0804V20.3042H13.2355V18.7751Z" fill="#3D2A3D"/>
<path d="M16.0191 18.7751H13.9539V20.3042H16.0191V18.7751Z" fill="#3D2A3D"/>
<path d="M18.9823 18.7751H16.8273V20.3042H18.9823V18.7751Z" fill="#3D2A3D"/>
<path d="M21.8557 18.7751H19.7007V20.3042H21.8557V18.7751Z" fill="#3D2A3D"/>
<path d="M24.8189 18.7751H22.5741V20.3042H24.8189V18.7751Z" fill="#3D2A3D"/>
<path d="M7.39894 21.0238H5.2439V22.5529H7.39894V21.0238Z" fill="#3D2A3D"/>
<path d="M10.3621 21.0238H8.11731V22.5529H10.3621V21.0238Z" fill="#3D2A3D"/>
<path d="M13.2355 21.0238H11.0804V22.5529H13.2355V21.0238Z" fill="#3D2A3D"/>
<path d="M16.0191 21.0238H13.9539V22.5529H16.0191V21.0238Z" fill="#3D2A3D"/>
<path d="M18.9823 21.0238H16.8273V22.5529H18.9823V21.0238Z" fill="#3D2A3D"/>
<path d="M21.8557 21.0238H19.7007V22.5529H21.8557V21.0238Z" fill="#3D2A3D"/>
<path d="M24.8189 21.0238H22.5741V22.5529H24.8189V21.0238Z" fill="#3D2A3D"/>
<path d="M7.39894 23.1825H5.2439V24.8016H7.39894V23.1825Z" fill="#3D2A3D"/>
<path d="M10.3621 23.1825H8.11731V24.8016H10.3621V23.1825Z" fill="#3D2A3D"/>
<path d="M13.2355 23.1825H11.0804V24.8016H13.2355V23.1825Z" fill="#3D2A3D"/>
<path d="M16.0191 23.1825H13.9539V24.8016H16.0191V23.1825Z" fill="#3D2A3D"/>
<path d="M18.9823 23.1825H16.8273V24.8016H18.9823V23.1825Z" fill="#3D2A3D"/>
<path d="M21.8557 23.1825H19.7007V24.8016H21.8557V23.1825Z" fill="#3D2A3D"/>
<path d="M24.8189 23.1825H22.5741V24.8016H24.8189V23.1825Z" fill="#3D2A3D"/>
<path d="M7.48873 25.6111H5.2439V27.1402H7.48873V25.6111Z" fill="#3D2A3D"/>
<path d="M10.3621 25.6111H8.20703V27.1402H10.3621V25.6111Z" fill="#3D2A3D"/>
<path d="M13.3253 25.6111H11.0804V27.1402H13.3253V25.6111Z" fill="#3D2A3D"/>
<path d="M20.9578 25.6111H12.2478V27.1402H20.9578V25.6111Z" fill="#3D2A3D"/>
<path d="M18.9823 25.6111H16.917V27.1402H18.9823V25.6111Z" fill="#3D2A3D"/>
<path d="M21.9455 25.6111H19.7007V27.1402H21.9455V25.6111Z" fill="#3D2A3D"/>
<path d="M24.8189 25.6111H22.6638V27.1402H24.8189V25.6111Z" fill="#3D2A3D"/>
<path d="M12.4723 24.127C12.5442 23.7222 12.2838 23.3444 11.8887 23.2635C11.4846 23.1915 11.1075 23.4524 11.0267 23.8481L9.74262 30.6481C9.67079 31.0529 9.93119 31.4307 10.3263 31.5116C10.7304 31.5836 11.1075 31.3227 11.1883 30.927L12.4723 24.127Z" fill="#FFDBC5"/>
<path d="M10.0928 23.0926C10.0928 22.6968 9.76957 22.373 9.37448 22.373C8.97938 22.373 8.65613 22.6968 8.65613 23.0926V28.8492C8.65613 29.245 8.97938 29.5688 9.37448 29.5688C9.76957 29.5688 10.0928 29.245 10.0928 28.8492V23.0926Z" fill="#FFDBC5"/>
<path d="M11.5296 28.4894H6.77051V36.2249H11.5296V28.4894Z" fill="#FFDBC5"/>
<path d="M7.89288 23.5693C7.80309 23.1736 7.408 22.9217 7.01291 23.0117C6.61782 23.1016 6.3664 23.4974 6.45619 23.8931L7.69534 29.4698C7.78513 29.8656 8.18022 30.1175 8.57531 30.0275C8.9704 29.9376 9.22183 29.5418 9.13203 29.146L7.89288 23.5693Z" fill="#FFDBC5"/>
<path d="M6.52801 26.1598C6.38434 25.863 6.02516 25.746 5.72885 25.8989C5.43253 26.0429 5.3158 26.4026 5.46845 26.6995L8.24306 32.2222C8.38673 32.5191 8.7459 32.636 9.04222 32.4831C9.33854 32.3392 9.45527 31.9794 9.30262 31.6825L6.52801 26.1598Z" fill="#FFDBC5"/>
<path d="M12.8763 37.2143V35.3884C12.8763 34.9026 12.3286 34.5159 11.8437 34.5159H6.50101C6.01613 34.5159 5.69287 34.9026 5.69287 35.3884V37.2143H12.8763Z" fill="#4D917B"/>
<path d="M12.9303 27.518C12.4454 27.3741 11.9246 27.6529 11.7899 28.1296L11.6642 28.5614L11.4756 29.218L10.874 31.2958C10.9548 31.3408 11.0357 31.3857 11.1254 31.4037C11.6103 31.5476 12.1311 31.2688 12.2658 30.7921L12.3826 30.3963L12.5711 29.7397L13.1817 27.6349C13.0919 27.581 13.0111 27.545 12.9303 27.518Z" fill="#FFDBC5"/>
<path d="M11.8798 31.2508L10.3533 32.2132L10.6316 29.9646L11.8798 31.2508Z" fill="#FFDBC5"/>
<path d="M16.5041 24.127C16.4323 23.7222 16.6927 23.3444 17.0878 23.2635C17.4918 23.1915 17.869 23.4524 17.9498 23.8481L19.2338 30.6481C19.3057 31.0529 19.0453 31.4307 18.6502 31.5116C18.2461 31.5836 17.869 31.3227 17.7881 30.927L16.5041 24.127Z" fill="#FFDBC5"/>
<path d="M20.1497 28.8492C20.1497 29.245 19.8265 29.5688 19.4314 29.5688C19.0363 29.5688 18.713 29.245 18.713 28.8492V23.0926C18.713 22.6968 19.0363 22.373 19.4314 22.373C19.8265 22.373 20.1497 22.6968 20.1497 23.0926V28.8492Z" fill="#FFDBC5"/>
<path d="M22.1251 28.4894H17.3661V36.2249H22.1251V28.4894Z" fill="#FFDBC5"/>
<path d="M21.0835 23.5693C21.1733 23.1736 21.5684 22.9217 21.9635 23.0117C22.3586 23.1016 22.61 23.4974 22.5202 23.8931L21.2811 29.4698C21.1913 29.8656 20.7962 30.1175 20.4011 30.0275C20.006 29.9376 19.7546 29.5418 19.8444 29.146L21.0835 23.5693Z" fill="#FFDBC5"/>
<path d="M22.4484 26.1598C22.5921 25.863 22.9513 25.746 23.2476 25.8989C23.5439 26.0429 23.6606 26.4026 23.508 26.6995L20.7424 32.2222C20.5987 32.5191 20.2395 32.636 19.9432 32.4831C19.6469 32.3392 19.5302 31.9794 19.6828 31.6825L22.4484 26.1598Z" fill="#FFDBC5"/>
<path d="M16.109 37.2143V35.3884C16.109 34.9026 16.6388 34.5159 17.1237 34.5159H22.4664C22.9513 34.5159 23.2835 34.9026 23.2835 35.3884V37.2143H16.109Z" fill="#4D917B"/>
<path d="M16.0461 27.518C16.531 27.3741 17.0518 27.6529 17.1865 28.1296L17.3122 28.5614L17.5008 29.218L18.1024 31.2958C18.0216 31.3408 17.9408 31.3857 17.851 31.4037C17.3661 31.5476 16.8453 31.2688 16.7106 30.7921L16.5938 30.3963L16.4053 29.7397L15.7947 27.6349C15.8845 27.581 15.9653 27.545 16.0461 27.518Z" fill="#FFDBC5"/>
<path d="M17.0967 31.2508L18.6232 32.2132L18.3448 29.9646L17.0967 31.2508Z" fill="#FFDBC5"/>
<path d="M26.6687 9.35768C26.6687 10.2212 25.9683 10.9228 25.1063 10.9228H7.05777C6.19575 10.9228 5.49536 10.2212 5.49536 9.35768V8.16138V2.3508C5.49536 1.48731 6.19575 0.785721 7.05777 0.785721H25.0973C25.9593 0.785721 26.6597 1.48731 26.6597 2.3508V9.35768H26.6687Z" fill="#DB4646"/>
<path d="M5.49536 8.16138V13.909L12.9752 8.16138H5.49536Z" fill="#DB4646"/>
<path d="M8.11731 3.43917C8.38669 3.3852 8.80872 3.34023 9.24871 3.34023C9.86828 3.34023 10.2634 3.44816 10.5597 3.69102C10.8111 3.87991 10.9548 4.15874 10.9548 4.53652C10.9548 4.99525 10.6495 5.40001 10.1466 5.5889V5.60689C10.6046 5.72382 11.1344 6.09261 11.1344 6.80319C11.1344 7.21694 10.9727 7.53176 10.7303 7.76562C10.3981 8.07144 9.8593 8.21536 9.0781 8.21536C8.65607 8.21536 8.32383 8.18837 8.11731 8.16139V3.43917ZM8.73688 5.40001H9.2936C9.94909 5.40001 10.3262 5.05821 10.3262 4.59948C10.3262 4.04181 9.9042 3.81694 9.27564 3.81694C8.98831 3.81694 8.82668 3.83493 8.7279 3.86192V5.40001H8.73688ZM8.73688 7.69366C8.85362 7.71165 9.0332 7.72065 9.25769 7.72065C9.89522 7.72065 10.4879 7.48678 10.4879 6.79419C10.4879 6.13758 9.93114 5.86774 9.25769 5.86774H8.74586V7.69366H8.73688Z" fill="white"/>
<path d="M11.9604 3.3762H12.58V7.63969H14.6183V8.16138H11.9604V3.3762Z" fill="white"/>
<path d="M19.117 5.72382C19.117 7.36985 18.1203 8.24234 16.8991 8.24234C15.633 8.24234 14.7531 7.26191 14.7531 5.81377C14.7531 4.29366 15.6959 3.30424 16.9709 3.30424C18.273 3.29525 19.117 4.30266 19.117 5.72382ZM15.4085 5.79578C15.4085 6.82117 15.9653 7.73863 16.935 7.73863C17.9138 7.73863 18.4705 6.83916 18.4705 5.7508C18.4705 4.79736 17.9766 3.80795 16.944 3.80795C15.9204 3.80795 15.4085 4.75239 15.4085 5.79578Z" fill="white"/>
<path d="M23.5528 7.9545C23.2744 8.05345 22.7267 8.21535 22.0892 8.21535C21.3618 8.21535 20.7692 8.02646 20.3023 7.58572C19.8892 7.18995 19.6378 6.55133 19.6378 5.80477C19.6468 4.37461 20.6255 3.33122 22.2239 3.33122C22.7806 3.33122 23.2116 3.44815 23.4181 3.5471L23.2655 4.0508C23.014 3.93387 22.6908 3.84392 22.2059 3.84392C21.0476 3.84392 20.2843 4.57249 20.2843 5.76879C20.2843 6.98308 21.0117 7.70265 22.1251 7.70265C22.5292 7.70265 22.8075 7.64868 22.9512 7.57673V6.14657H21.9814V5.65186H23.5528V7.9545Z" fill="white"/>
</g>
<defs>
<clipPath id="clip0_1_2107">
<rect width="30" height="36.4286" fill="white" transform="translate(0 0.785721)"/>
</clipPath>
</defs>
</svg>
