<svg width="34" height="34" viewBox="0 0 34 34" fill="none" xmlns="http://www.w3.org/2000/svg">
<path d="M29.8001 1H4.20007V2.06667H29.8001V1Z" fill="#FD6D2F"/>
<path d="M3.13332 22.8667L1.53333 29.2667H4.73332L3.13332 22.8667Z" fill="#88B337"/>
<path d="M30.8666 22.8667L29.2666 29.2667H32.4666L30.8666 22.8667Z" fill="#88B337"/>
<path d="M3.66664 29.2668H2.59998V32.4668H3.66664V29.2668Z" fill="#A3603E"/>
<path d="M31.3999 29.2667H30.3333V32.4667H31.3999V29.2667Z" fill="#A3603E"/>
<path d="M28.7333 1.53333H5.2666V32.4667H28.7333V1.53333Z" fill="#FD6D2F"/>
<path d="M26.0666 22.8666H22.8666V30.8666H26.0666V22.8666Z" fill="#A12A2A"/>
<path d="M26.0666 22.8666H22.8666V25.5333H26.0666V22.8666Z" fill="#D1D4D6"/>
<path d="M26.5999 30.3333H22.3333V32.4666H26.5999V30.3333Z" fill="#FF8854"/>
<path d="M26.5999 22.3334H22.3333V23.4001H26.5999V22.3334Z" fill="#FF8854"/>
<path d="M11.1333 3.66656H7.93335V8.9999H11.1333V3.66656Z" fill="#A12A2A"/>
<path d="M11.1333 3.66656H7.93335V6.33323H11.1333V3.66656Z" fill="#D1D4D6"/>
<path d="M11.6667 8.46664H7.40002V9.53331H11.6667V8.46664Z" fill="#FF8854"/>
<path d="M11.6667 3.13327H7.40002V4.19994H11.6667V3.13327Z" fill="#FF8854"/>
<path d="M18.6 3.66653H15.4V8.99987H18.6V3.66653Z" fill="#A12A2A"/>
<path d="M18.6 3.66653H15.4V6.3332H18.6V3.66653Z" fill="#D1D4D6"/>
<path d="M19.1334 8.46661H14.8667V9.53328H19.1334V8.46661Z" fill="#FF8854"/>
<path d="M19.1334 3.13324H14.8667V4.19991H19.1334V3.13324Z" fill="#FF8854"/>
<path d="M26.0667 3.66653H22.8667V8.99987H26.0667V3.66653Z" fill="#A12A2A"/>
<path d="M26.0667 3.66653H22.8667V6.3332H26.0667V3.66653Z" fill="#D1D4D6"/>
<path d="M26.6 8.46661H22.3334V9.53328H26.6V8.46661Z" fill="#FF8854"/>
<path d="M26.6 3.13324H22.3334V4.19991H26.6V3.13324Z" fill="#FF8854"/>
<path d="M29.8001 20.1999H4.20007V21.2666H29.8001V20.1999Z" fill="#FD6D2F"/>
<path d="M29.8001 10.5999H4.20007V11.6666H29.8001V10.5999Z" fill="#FD6D2F"/>
<path d="M33 31.9333H1V33H33V31.9333Z" fill="#D1D4D6"/>
<path d="M8.46658 29.8H6.86658V30.8667H8.46658V29.8Z" fill="#FF8854"/>
<path d="M15.9333 29.8H14.3333V30.8667H15.9333V29.8Z" fill="#FF8854"/>
<path d="M20.2 30.3333H18.6V31.4H20.2V30.3333Z" fill="#FF8854"/>
<path d="M21.2666 24.4666H20.2V25.5333H21.2666V24.4666Z" fill="#FF8854"/>
<path d="M10.6 30.3333H9.53333V31.4H10.6V30.3333Z" fill="#FF8854"/>
<path d="M13.2666 14.8666H12.2V15.9333H13.2666V14.8666Z" fill="#FF8854"/>
<path d="M21.7999 5.26669H20.7333V6.33336H21.7999V5.26669Z" fill="#FF8854"/>
<path d="M28.7333 25.5335H27.6666V26.6001H28.7333V25.5335Z" fill="#FF8854"/>
<path d="M11.6667 9.53333H7.40002V10.6H11.6667V9.53333Z" fill="#E65719"/>
<path d="M19.1332 9.53333H14.8666V10.6H19.1332V9.53333Z" fill="#E65719"/>
<path d="M11.1333 13.2666H7.93335V18.5999H11.1333V13.2666Z" fill="#A12A2A"/>
<path d="M11.1333 13.2666H7.93335V15.9333H11.1333V13.2666Z" fill="#D1D4D6"/>
<path d="M11.6667 18.0667H7.40002V19.1334H11.6667V18.0667Z" fill="#FF8854"/>
<path d="M11.6667 12.7332H7.40002V13.7999H11.6667V12.7332Z" fill="#FF8854"/>
<path d="M18.6 13.2667H15.4V18.6H18.6V13.2667Z" fill="#A12A2A"/>
<path d="M18.6 13.2667H15.4V15.9333H18.6V13.2667Z" fill="#D1D4D6"/>
<path d="M19.1334 18.0668H14.8667V19.1334H19.1334V18.0668Z" fill="#FF8854"/>
<path d="M19.1334 12.7333H14.8667V13.7999H19.1334V12.7333Z" fill="#FF8854"/>
<path d="M26.0667 13.2667H22.8667V18.6H26.0667V13.2667Z" fill="#A12A2A"/>
<path d="M26.0667 13.2667H22.8667V15.9333H26.0667V13.2667Z" fill="#D1D4D6"/>
<path d="M26.6 18.0668H22.3334V19.1334H26.6V18.0668Z" fill="#FF8854"/>
<path d="M26.6 12.7333H22.3334V13.7999H26.6V12.7333Z" fill="#FF8854"/>
<path d="M11.1333 22.8666H7.93335V28.2H11.1333V22.8666Z" fill="#A12A2A"/>
<path d="M11.1333 22.8666H7.93335V25.5333H11.1333V22.8666Z" fill="#D1D4D6"/>
<path d="M11.6667 27.6667H7.40002V28.7334H11.6667V27.6667Z" fill="#FF8854"/>
<path d="M11.6667 22.3334H7.40002V23.4001H11.6667V22.3334Z" fill="#FF8854"/>
<path d="M18.5999 22.8666H15.3999V28.2H18.5999V22.8666Z" fill="#A12A2A"/>
<path d="M18.5999 22.8666H15.3999V25.5333H18.5999V22.8666Z" fill="#D1D4D6"/>
<path d="M19.1332 27.6667H14.8666V28.7334H19.1332V27.6667Z" fill="#FF8854"/>
<path d="M19.1332 22.3334H14.8666V23.4001H19.1332V22.3334Z" fill="#FF8854"/>
<path d="M26.5999 9.53333H22.3333V10.6H26.5999V9.53333Z" fill="#E65719"/>
<path d="M11.6667 19.1333H7.40002V20.1999H11.6667V19.1333Z" fill="#E65719"/>
<path d="M19.1332 19.1333H14.8666V20.1999H19.1332V19.1333Z" fill="#E65719"/>
<path d="M26.5999 19.1333H22.3333V20.1999H26.5999V19.1333Z" fill="#E65719"/>
<path d="M11.6667 28.7332H7.40002V29.7999H11.6667V28.7332Z" fill="#E65719"/>
<path d="M19.1332 28.7332H14.8666V29.7999H19.1332V28.7332Z" fill="#E65719"/>
<path d="M28.7333 2.06664H5.2666V3.1333H28.7333V2.06664Z" fill="#E65719"/>
<path d="M28.7333 11.6666H5.2666V12.7333H28.7333V11.6666Z" fill="#E65719"/>
<path d="M28.7333 21.2668H5.2666V22.3335H28.7333V21.2668Z" fill="#E65719"/>
<path d="M11.1333 4.19991H7.93335V5.26657H11.1333V4.19991Z" fill="#C3C5C7"/>
<path d="M18.6 4.19991H15.4V5.26657H18.6V4.19991Z" fill="#C3C5C7"/>
<path d="M26.0666 4.19991H22.8666V5.26657H26.0666V4.19991Z" fill="#C3C5C7"/>
<path d="M11.1333 13.8001H7.93335V14.8667H11.1333V13.8001Z" fill="#C3C5C7"/>
<path d="M18.6 13.8001H15.4V14.8667H18.6V13.8001Z" fill="#C3C5C7"/>
<path d="M26.0666 13.8001H22.8666V14.8667H26.0666V13.8001Z" fill="#C3C5C7"/>
<path d="M11.1333 23.4001H7.93335V24.4667H11.1333V23.4001Z" fill="#C3C5C7"/>
<path d="M18.6 23.4001H15.4V24.4667H18.6V23.4001Z" fill="#C3C5C7"/>
<path d="M26.0666 23.4001H22.8666V24.4667H26.0666V23.4001Z" fill="#C3C5C7"/>
</svg>
