<svg width="19" height="34" viewBox="0 0 19 34" fill="none" xmlns="http://www.w3.org/2000/svg">
<g clip-path="url(#clip0_1_4001)">
<path d="M9.49804 10.4615H4.94482V20.7051H9.49804V10.4615Z" fill="#CFD3D9"/>
<path d="M13.4116 10.1564C13.4116 12.107 15.0378 13.6872 17.0434 13.6872C19.0489 13.6872 20.6751 12.107 20.6751 10.1564C20.6751 8.20576 19.0489 6.62564 17.0434 6.62564C15.0378 6.61474 13.4116 8.20576 13.4116 10.1564Z" fill="#CFD3D9"/>
<path d="M1.56242 6.53847H4.72799V13.7308H1.56242C0.977004 13.7308 0.5 13.284 0.5 12.6955V7.60642C0.5 7.01795 0.977004 6.53847 1.56242 6.53847Z" fill="#DB4646"/>
<path d="M4.83643 6.20064L15.4606 2.17949V18.1224L4.83643 14.1013V6.20064Z" fill="#FFD205"/>
<path d="M18.0624 18.5256C18.0624 19.55 17.2385 20.3782 16.2194 20.3782C15.2004 20.3782 14.3765 19.55 14.3765 18.5256V1.85256C14.3765 0.828205 15.2004 0 16.2194 0C17.2385 0 18.0624 0.828205 18.0624 1.85256V18.5256Z" fill="#DB4646"/>
<path d="M20.339 32.7468C20.339 33.4442 19.7753 34 19.0923 34H3.26442C2.57059 34 2.0177 33.4333 2.0177 32.7468V23.266C2.0177 22.5686 2.58143 22.0128 3.26442 22.0128H19.0923C19.7861 22.0128 20.339 22.5795 20.339 23.266V32.7468Z" fill="#4D917B"/>
<path d="M18.7995 25.4455C17.542 25.4455 16.5338 24.4212 16.5338 23.168C16.5338 23.1462 16.5338 23.1244 16.5338 23.1135H5.74697C5.74697 23.1353 5.74697 23.1462 5.74697 23.168C5.74697 24.4321 4.72791 25.4455 3.4812 25.4455C3.3511 25.4455 3.21017 25.4346 3.08008 25.4128V30.6218C3.21017 30.6 3.34026 30.5891 3.4812 30.5891C4.69539 30.5891 5.68192 31.5372 5.74697 32.7359H16.5446C16.6096 31.5372 17.5962 30.5891 18.8104 30.5891C18.9405 30.5891 19.0814 30.6 19.2115 30.6218V25.4128C19.0706 25.4237 18.9405 25.4455 18.7995 25.4455Z" fill="#9EC853"/>
<path d="M14.5824 27.9628C14.5499 29.8808 12.9888 31.4064 11.0808 31.3737C9.17274 31.341 7.655 29.7718 7.68752 27.8539C7.72005 25.9359 9.28115 24.4103 11.1892 24.443C13.0972 24.4757 14.6149 26.0558 14.5824 27.9628Z" fill="#4D917B"/>
<path d="M12.4034 27.7667C12.1649 27.5596 11.8721 27.4616 11.5144 27.4616H11.471V26.6987H12.566V26.0558H11.471V25.3039H10.8314V26.0558H10.6688C10.3436 26.0558 10.0834 26.143 9.86657 26.3173C9.6389 26.5135 9.51965 26.7641 9.51965 27.0692C9.51965 27.3853 9.6389 27.6359 9.86657 27.8321C10.0834 28.0064 10.3544 28.0936 10.6688 28.0936H10.8314V29.1071H9.57386V29.75H10.8097V30.5019H11.4494V29.75H11.4927C11.8505 29.75 12.1432 29.6519 12.3817 29.4558C12.631 29.2378 12.7503 28.9545 12.7503 28.6058C12.772 28.268 12.6527 27.9846 12.4034 27.7667ZM10.658 27.4616C10.5387 27.4616 10.4303 27.4289 10.3436 27.3635C10.2568 27.2981 10.2135 27.2109 10.2135 27.091C10.2135 26.9712 10.2568 26.884 10.3436 26.8077C10.4303 26.7423 10.5387 26.7096 10.658 26.7096H10.8206V27.4616H10.658ZM11.9697 29.009C11.8396 29.0853 11.6879 29.1289 11.5144 29.1289H11.471V28.1154H11.5144C11.6879 28.1154 11.8396 28.159 11.9697 28.2353C12.1215 28.3225 12.1974 28.4532 12.1974 28.6167C12.1974 28.7801 12.1107 28.9109 11.9697 29.009Z" fill="#9EC853"/>
</g>
<defs>
<clipPath id="clip0_1_4001">
<rect width="33" height="34" fill="white" transform="translate(0.5)"/>
</clipPath>
</defs>
</svg>
