<svg width="38" height="42" viewBox="0 0 38 42" fill="none" xmlns="http://www.w3.org/2000/svg">
<path d="M27.6596 39.3709C27.6596 39.7176 27.3795 40 27.0357 40H10.9657C10.6219 40 10.3418 39.7176 10.3418 39.3709V38.3311C10.3418 37.9845 10.6219 37.702 10.9657 37.702H27.0229C27.3667 37.702 27.6469 37.9845 27.6469 38.3311V39.3709H27.6596Z" fill="#E3C3AA"/>
<path d="M36.1911 36.8162C36.1911 37.4325 35.6945 37.946 35.0706 37.946H2.93075C2.31953 37.946 1.81018 37.4453 1.81018 36.8162V36.752C1.81018 36.1358 2.30679 35.6223 2.93075 35.6223H35.0833C35.6945 35.6223 36.2039 36.123 36.2039 36.752V36.8162H36.1911Z" fill="#F2E5DA"/>
<path d="M8.39351 31.3344C6.17785 31.3344 4.31873 30.0892 3.65658 28.1635C3.22363 26.9054 3.37644 25.5446 4.06406 24.325C4.72621 23.1439 5.83404 22.2453 7.17108 21.7831C7.79503 21.5649 8.44445 21.4493 9.09386 21.4493C11.3095 21.4493 13.1686 22.6946 13.8308 24.6203C14.2637 25.8784 14.1109 27.2392 13.4233 28.4588C12.7612 29.627 11.6533 30.5385 10.3163 31.0007C9.69235 31.2317 9.04293 31.3344 8.39351 31.3344ZM9.1066 23.452C8.67365 23.452 8.24071 23.529 7.82049 23.6703C6.94187 23.9784 6.21605 24.5561 5.7831 25.3135C5.37563 26.0196 5.28649 26.8027 5.52843 27.5088C5.91044 28.6128 7.03101 29.3317 8.39351 29.3317C8.82646 29.3317 9.2594 29.2547 9.67961 29.1135C10.5582 28.8054 11.2841 28.2277 11.717 27.4703C12.1245 26.7642 12.2136 25.9811 11.9717 25.275C11.5897 24.1709 10.4691 23.452 9.1066 23.452Z" fill="#82422A"/>
<path d="M25.2401 34.1203C25.2401 33.8892 25.0619 33.7095 24.8327 33.7095H13.0413C12.8121 33.7095 12.6338 33.8892 12.6338 34.1203V35.3527C12.6338 35.5838 12.8121 35.7635 13.0413 35.7635H24.8327C25.0619 35.7635 25.2401 35.5838 25.2401 35.3527V34.1203Z" fill="#522E22"/>
<path d="M28.6783 18.304V30.2304C28.6783 32.4642 26.9337 34.223 24.7181 34.223H13.0158C10.8002 34.223 8.94104 32.477 8.94104 30.2304V18.304H28.6783Z" fill="#964C30"/>
<g opacity="0.44">
<path opacity="0.44" d="M20.3377 3.00135C20.3632 3.96419 21.3819 4.42635 21.8276 5.35067C22.4642 6.66013 22.1332 8.09797 21.2163 9.16351C20.6306 9.85675 19.9812 10.4345 20.5542 11.3716C20.7452 11.6797 21.2291 12.1034 21.522 12.4885C21.9549 13.0662 22.1332 13.7338 22.1586 14.4527C22.1968 15.775 20.1467 15.775 20.1212 14.4527C20.0958 13.477 19.0771 13.0277 18.6314 12.1034C17.9947 10.7939 18.3258 9.35608 19.2426 8.29054C19.8284 7.5973 20.4778 7.01959 19.9048 6.08243C19.7138 5.77432 19.2299 5.35067 18.937 4.96554C18.5041 4.38784 18.3258 3.72027 18.3003 3.00135C18.2621 1.66622 20.2995 1.66622 20.3377 3.00135Z" fill="#964C30"/>
</g>
<g opacity="0.44">
<path opacity="0.44" d="M15.0405 4.32365C15.0659 5.27365 16.1101 5.74865 16.5558 6.51892C17.1543 7.57162 16.8232 8.84256 16.0337 9.67702C15.4352 10.3061 14.5566 11.0378 15.3079 11.975C15.588 12.3345 15.97 12.6041 16.2502 12.9507C16.6449 13.4385 16.8232 13.9905 16.8487 14.6196C16.8741 15.5054 15.5116 15.5054 15.4862 14.6196C15.4607 13.6696 14.4165 13.1946 13.9708 12.4243C13.3724 11.3716 13.7034 10.1007 14.4929 9.26621C15.0914 8.63716 15.97 7.9054 15.2187 6.96824C14.9386 6.60878 14.5566 6.33919 14.2765 5.99256C13.8817 5.50473 13.7034 4.9527 13.678 4.32365C13.6525 3.43783 15.0023 3.45067 15.0405 4.32365Z" fill="#964C30"/>
</g>
<path d="M16.7087 27.9324C16.7469 27.9196 16.7851 27.9067 16.8105 27.8811C16.8869 27.8426 16.9633 27.804 17.027 27.7655C17.1034 27.7142 17.1798 27.6757 17.2562 27.6243C17.2689 27.6115 17.2817 27.6115 17.2817 27.5986L17.2944 27.5858C17.3326 27.5473 17.3835 27.5216 17.4217 27.4831C17.6127 27.3162 17.791 27.1365 17.9438 26.9439C17.9566 26.9311 17.9566 26.9311 17.9693 26.9182C17.9693 26.9182 17.982 26.9054 17.982 26.8926C18.0075 26.854 18.033 26.8155 18.0584 26.777C18.1094 26.7 18.1476 26.623 18.1858 26.5459C18.224 26.4817 18.2494 26.4047 18.2749 26.3405C18.2876 26.3149 18.3258 26.2121 18.3258 26.1865C18.364 26.0453 18.4022 25.904 18.4532 25.7757C18.555 25.429 18.6824 25.0824 18.8861 24.7743C19.3827 24.0169 20.0958 23.4135 20.9617 23.1311C21.1145 23.0797 21.2546 23.0412 21.4074 22.9899C21.4329 22.977 21.4456 22.977 21.4711 22.9642C20.0831 21.8858 17.9438 22.1426 16.4922 23.6061C15.1551 24.954 14.8368 26.9054 15.6263 28.2919C15.9574 28.1635 16.3139 28.0736 16.645 27.9581C16.6704 27.9453 16.6832 27.9324 16.7087 27.9324Z" fill="#522E22"/>
<path d="M21.4074 28.5486C22.7445 27.2007 23.0628 25.2493 22.2733 23.8628C21.9422 23.9912 21.5857 24.0811 21.2546 24.1966C21.2419 24.1966 21.2164 24.2094 21.2037 24.2094C21.1655 24.2223 21.1273 24.2351 21.1018 24.2608C21.0254 24.2993 20.949 24.3378 20.8853 24.3763C20.8089 24.4277 20.7325 24.4662 20.6561 24.5176C20.6434 24.5304 20.6307 24.5304 20.6307 24.5432L20.6179 24.5561C20.5797 24.5946 20.5288 24.6203 20.4906 24.6588C20.2996 24.8257 20.1213 25.0054 19.9685 25.198C19.9558 25.2108 19.9558 25.2108 19.943 25.2236C19.943 25.2236 19.9303 25.2365 19.9303 25.2493C19.9048 25.2878 19.8794 25.3263 19.8539 25.3649C19.803 25.4419 19.7648 25.5189 19.7266 25.5959C19.6884 25.6601 19.6629 25.7371 19.6374 25.8013C19.6247 25.827 19.5865 25.9297 19.5865 25.9554C19.5483 26.0966 19.5101 26.2378 19.4592 26.3662C19.3573 26.7128 19.23 27.0594 19.0262 27.3676C18.5296 28.125 17.8165 28.7284 16.9506 29.0108C16.7978 29.0622 16.6578 29.1007 16.505 29.152C16.4795 29.152 16.4668 29.1649 16.4413 29.1777C17.8038 30.2561 19.943 30.0122 21.4074 28.5486Z" fill="#522E22"/>
<path d="M27.2775 28.3176C27.2775 28.677 26.9974 28.9594 26.6408 28.9594C26.2843 28.9594 26.0042 28.677 26.0042 28.3176V20.6149C26.0042 20.2554 26.2843 19.973 26.6408 19.973C26.9974 19.973 27.2775 20.2554 27.2775 20.6149V28.3176Z" fill="#B87760"/>
</svg>
