<svg width="40" height="34" viewBox="0 0 40 34" fill="none" xmlns="http://www.w3.org/2000/svg">
<path d="M36.1861 12.4078L35.2957 11.5173L25.2219 21.5911L26.1123 22.4815L36.1861 12.4078Z" fill="#01579B"/>
<path d="M16.0381 12.408L15.1477 11.5176L5.07391 21.5914L5.96434 22.4818L16.0381 12.408Z" fill="#01579B"/>
<path d="M26.1118 21.5911L16.038 11.5173L15.1475 12.4078L25.2213 22.4815L26.1118 21.5911Z" fill="#01579B"/>
<path d="M35.2958 11.5178L33.1167 13.6969C33.3509 14.0508 33.6538 14.353 34.007 14.5872L36.1861 12.4081L35.2958 11.5178Z" fill="#466089"/>
<path d="M39.3339 14.6652L36.1858 11.5171L35.2954 12.4075L38.4435 15.5556L39.3339 14.6652Z" fill="#01579B"/>
<path d="M36.1862 11.5178L38.3653 13.6969C38.1311 14.0508 37.8283 14.353 37.475 14.5872L35.2959 12.4081L36.1862 11.5178Z" fill="#466089"/>
<path d="M35.7409 14.4816C37.1319 14.4816 38.2594 13.354 38.2594 11.9631C38.2594 10.5721 37.1319 9.44455 35.7409 9.44455C34.35 9.44455 33.2224 10.5721 33.2224 11.9631C33.2224 13.354 34.35 14.4816 35.7409 14.4816Z" fill="#01579B"/>
<path d="M35.7409 13.2221C36.4364 13.2221 37.0002 12.6583 37.0002 11.9629C37.0002 11.2674 36.4364 10.7036 35.7409 10.7036C35.0455 10.7036 34.4817 11.2674 34.4817 11.9629C34.4817 12.6583 35.0455 13.2221 35.7409 13.2221Z" fill="#EDEFF1"/>
<path d="M18.1113 33.9999V25.8147H21.2595L15.5928 18.2592L9.92615 25.8147H13.0743V33.9999H18.1113Z" fill="#65B916"/>
<path d="M28.1853 0V8.18518H31.3335L25.6668 15.7407L20.0001 8.18518H23.1483V0H28.1853Z" fill="#E83D30"/>
<path d="M5.9639 22.4822L8.14305 20.303C7.90883 19.9492 7.60598 19.647 7.25276 19.4128L5.07361 21.5919L5.9639 22.4822Z" fill="#466089"/>
<path d="M5.96379 21.5913L1.55664 17.1841L0.666218 18.0746L5.07336 22.4817L5.96379 21.5913Z" fill="#01579B"/>
<path d="M5.07356 22.4822L2.89441 20.303C3.12863 19.9492 3.43148 19.647 3.78471 19.4128L5.96385 21.5919L5.07356 22.4822Z" fill="#466089"/>
<path d="M5.51864 24.5556C6.90958 24.5556 8.03716 23.428 8.03716 22.0371C8.03716 20.6462 6.90958 19.5186 5.51864 19.5186C4.1277 19.5186 3.00012 20.6462 3.00012 22.0371C3.00012 23.428 4.1277 24.5556 5.51864 24.5556Z" fill="#01579B"/>
<path d="M5.51866 23.2963C6.21413 23.2963 6.77792 22.7325 6.77792 22.037C6.77792 21.3416 6.21413 20.7778 5.51866 20.7778C4.82319 20.7778 4.2594 21.3416 4.2594 22.037C4.2594 22.7325 4.82319 23.2963 5.51866 23.2963Z" fill="#EDEFF1"/>
<path d="M25.6669 22.9273L28.2912 20.303C28.057 19.9492 27.7541 19.647 27.4009 19.4128L25.6669 21.1467L23.9329 19.4128C23.579 19.647 23.2768 19.9498 23.0426 20.303L25.6669 22.9273Z" fill="#466089"/>
<path d="M25.6668 24.5556C27.0578 24.5556 28.1854 23.428 28.1854 22.0371C28.1854 20.6462 27.0578 19.5186 25.6668 19.5186C24.2759 19.5186 23.1483 20.6462 23.1483 22.0371C23.1483 23.428 24.2759 24.5556 25.6668 24.5556Z" fill="#E83D30"/>
<path d="M25.6669 23.2963C26.3623 23.2963 26.9261 22.7325 26.9261 22.037C26.9261 21.3416 26.3623 20.7778 25.6669 20.7778C24.9714 20.7778 24.4076 21.3416 24.4076 22.037C24.4076 22.7325 24.9714 23.2963 25.6669 23.2963Z" fill="#EDEFF1"/>
<path d="M15.5928 11.0728L12.9685 13.6971C13.2027 14.0509 13.5056 14.3532 13.8588 14.5874L15.5928 12.8534L17.3268 14.5874C17.6807 14.3532 17.9829 14.0503 18.2171 13.6971L15.5928 11.0728Z" fill="#466089"/>
<path d="M15.5929 14.4816C16.9838 14.4816 18.1114 13.354 18.1114 11.9631C18.1114 10.5721 16.9838 9.44455 15.5929 9.44455C14.2019 9.44455 13.0743 10.5721 13.0743 11.9631C13.0743 13.354 14.2019 14.4816 15.5929 14.4816Z" fill="#65B916"/>
<path d="M15.5928 13.2221C16.2882 13.2221 16.852 12.6583 16.852 11.9629C16.852 11.2674 16.2882 10.7036 15.5928 10.7036C14.8973 10.7036 14.3335 11.2674 14.3335 11.9629C14.3335 12.6583 14.8973 13.2221 15.5928 13.2221Z" fill="#EDEFF1"/>
</svg>
