<svg width="34" height="34" viewBox="0 0 34 34" fill="none" xmlns="http://www.w3.org/2000/svg">
<path d="M18.5938 8.5C18.5938 8.5 22.4682 4.55335 20.7188 3.1875C19.507 2.24135 18.2756 3.75382 17.5313 2.65625C16.4109 1.0046 15.4063 1.0625 15.4063 1.0625C15.4063 1.0625 14.4017 1.0046 13.2813 2.65625C12.537 3.75382 11.3056 2.24135 10.0938 3.1875C8.34437 4.55335 12.2188 8.5 12.2188 8.5H18.5938Z" fill="#3E5CA5"/>
<path d="M19.2333 7.12089C18.5209 6.79948 17.6752 6.60982 16.9282 6.50092C17.3022 6.15401 17.6401 5.63126 17.7926 4.8312L17.2709 4.73132C17.086 5.70139 16.5957 6.17632 16.1648 6.41114C15.8615 6.38617 15.5996 6.37501 15.4062 6.37501C15.2144 6.37501 14.9557 6.38564 14.6561 6.4106C14.2215 6.17526 13.7264 5.70032 13.542 4.73185L13.0203 4.83173C13.1728 5.63179 13.5107 6.15454 13.8847 6.50145C13.1372 6.61035 12.2915 6.80001 11.5791 7.12142C11.4463 7.18145 11.3262 7.25901 11.2173 7.34879C11.7528 8.0256 12.2187 8.50001 12.2187 8.50001H18.5937C18.5937 8.50001 19.0596 8.02507 19.5951 7.34826C19.4862 7.25901 19.3661 7.18092 19.2333 7.12089Z" fill="#466089"/>
<path d="M15.4062 9.5625H19.6562V8.58341C19.6562 8.15841 19.4018 7.78016 19.0145 7.60537C17.7788 7.04756 16.0762 6.90625 15.4062 6.90625C14.7363 6.90625 13.0337 7.04703 11.798 7.60484C11.4107 7.78016 11.1562 8.15841 11.1562 8.58341V9.5625H15.4062Z" fill="#FFE352"/>
<path d="M15.4062 7.96875H15.9375C20.6322 7.96875 24.4375 11.7741 24.4375 16.4688V21.4322C24.4375 21.9959 24.6612 22.5362 25.0601 22.9346L25.4092 23.2836C25.8076 23.6821 26.0318 24.2229 26.0318 24.786V24.9688C26.0318 26.1423 25.0803 27.0938 23.9068 27.0938H15.4062H6.90625C5.73272 27.0938 4.78125 26.1423 4.78125 24.9688V24.7865C4.78125 24.2229 5.00491 23.6826 5.40387 23.2842L5.75291 22.9351C6.15134 22.5367 6.37553 21.9959 6.37553 21.4328V16.4688C6.37553 11.7741 10.1809 7.96875 14.8755 7.96875H15.4062Z" fill="#3E5CA5"/>
<path d="M15.4062 21.25C17.7535 21.25 19.6562 19.3472 19.6562 17C19.6562 14.6528 17.7535 12.75 15.4062 12.75C13.059 12.75 11.1562 14.6528 11.1562 17C11.1562 19.3472 13.059 21.25 15.4062 21.25Z" fill="#FFE352"/>
<path d="M15.9375 16.4688H14.875C14.5823 16.4688 14.3438 16.2302 14.3438 15.9375C14.3438 15.6448 14.5823 15.4063 14.875 15.4063H15.9375C16.2302 15.4063 16.4688 15.6448 16.4688 15.9375H17.5312C17.5312 15.0588 16.8162 14.3438 15.9375 14.3438V13.8125H14.875V14.3438C13.9963 14.3438 13.2812 15.0588 13.2812 15.9375C13.2812 16.8162 13.9963 17.5313 14.875 17.5313H15.9375C16.2302 17.5313 16.4688 17.7698 16.4688 18.0625C16.4688 18.3552 16.2302 18.5938 15.9375 18.5938H14.875C14.5823 18.5938 14.3438 18.3552 14.3438 18.0625H13.2812C13.2812 18.9412 13.9963 19.6563 14.875 19.6563V20.1875H15.9375V19.6563C16.8162 19.6563 17.5312 18.9412 17.5312 18.0625C17.5312 17.1838 16.8162 16.4688 15.9375 16.4688Z" fill="#6E83B7"/>
<path d="M28.6875 23.375H27.0938V32.4062H28.6875V23.375Z" fill="#EDEFF1"/>
<path d="M32.9375 22.8438H28.6875V32.9375H32.9375V22.8438Z" fill="#DE6960"/>
<path d="M26.0312 23.9062C25.2673 22.4076 23.1369 21.7812 21.7812 21.7812C20.4254 21.7812 18.5772 22.3624 17.5312 23.9062H12.7499C11.8697 23.9062 11.1562 24.6197 11.1562 25.5C11.1562 26.3803 11.8697 27.0937 12.7499 27.0937H11.1562L4.51398 23.1466C3.54126 22.5627 2.28167 22.8464 1.65267 23.7899L1.24095 24.4072C0.915293 24.8954 1.04757 25.5552 1.53579 25.8809L10.09 31.518C10.4385 31.7507 10.8459 31.875 11.2656 31.875C13.083 31.875 18.1352 31.875 18.0624 31.875H27.0937V23.9062H26.0312Z" fill="#FFD3B3"/>
<path d="M11.5701 26.5625C11.8617 26.8866 12.2798 27.0938 12.75 27.0938H18.0625V26.5625H11.5701Z" fill="#FCB98B"/>
<path d="M28.6875 23.375H28.1562V32.4062H28.6875V23.375Z" fill="#D3D3D3"/>
<path d="M32.9375 9.03125L27.625 6.375V8.23438H23.375C21.1777 8.23438 19.3906 10.0215 19.3906 12.2188C19.3906 14.416 21.1777 16.2031 23.375 16.2031H27.625V14.6094H23.375C22.057 14.6094 20.9844 13.5368 20.9844 12.2188C20.9844 10.9007 22.057 9.82812 23.375 9.82812H27.625V11.6875L32.9375 9.03125Z" fill="#4DC4F7"/>
</svg>
