<svg width="21" height="36" viewBox="0 0 21 36" fill="none" xmlns="http://www.w3.org/2000/svg">
<path d="M17.2345 1.32269H0.769043V13.4494H17.2345V1.32269Z" fill="#38E0E0"/>
<path d="M16.4058 8.29834H1.95801V12.5552H16.4058V8.29834Z" fill="#95C11F"/>
<path d="M0.264648 0.5V14.2365H18.0992V0.5H0.264648ZM16.55 12.7341H1.81391V2.00243H16.5139V12.7341H16.55Z" fill="#9C592D"/>
<path d="M16.4057 11.0528V11.0886C16.4418 11.0886 16.4778 11.0886 16.5499 11.0528V11.017C16.5138 11.0528 16.4418 11.0528 16.4057 11.0528ZM16.4057 11.0528V11.0886C16.4418 11.0886 16.4778 11.0886 16.5499 11.0528V11.017C16.5138 11.0528 16.4418 11.0528 16.4057 11.0528ZM16.4057 11.0528V11.0886C16.4418 11.0886 16.4778 11.0886 16.5499 11.0528V11.017C16.5138 11.0528 16.4418 11.0528 16.4057 11.0528ZM1.38147 1.60895V13.1276H16.9822V1.60895H1.38147ZM16.4057 12.5552H1.95794V2.14553H16.4057V12.5552ZM16.4057 11.0528V11.0886C16.4418 11.0886 16.4778 11.0886 16.5499 11.0528V11.017C16.5138 11.0528 16.4418 11.0528 16.4057 11.0528ZM16.4057 11.0528V11.0886C16.4418 11.0886 16.4778 11.0886 16.5499 11.0528V11.017C16.5138 11.0528 16.4418 11.0528 16.4057 11.0528ZM16.4057 11.0528V11.0886C16.4418 11.0886 16.4778 11.0886 16.5499 11.0528V11.017C16.5138 11.0528 16.4418 11.0528 16.4057 11.0528Z" fill="#B17F4A"/>
<path opacity="0.1" d="M18.0992 0.5L16.4058 2.14552H1.95803L0.264648 0.5H18.0992Z" fill="#1D1D1B"/>
<path opacity="0.1" d="M18.0992 14.2365H0.264648V14.2008L0.624943 13.8788L0.733031 13.7715L1.02127 13.4853L1.38156 13.1276L1.74186 12.7699L1.81391 12.6983L1.95803 12.5552H16.4058L16.4419 12.591L16.55 12.6983L16.622 12.7699L16.9463 13.0918L16.9823 13.1276L17.0183 13.1634L17.1264 13.2707L17.2345 13.378L17.9191 14.0219L17.9551 14.0577L18.0992 14.2365Z" fill="#1D1D1B"/>
<path d="M15.0366 8.44165L16.1175 10.4449H15.0366L13.9557 8.47742L14.1358 8.15547C14.1358 8.19125 14.1358 8.19125 14.1358 8.22702C14.2079 8.19125 14.28 8.1197 14.352 8.04816C14.388 8.04816 14.388 8.1197 14.388 8.15547C14.388 8.22702 14.388 8.26279 14.388 8.33433C14.388 8.37011 14.388 8.37011 14.4241 8.37011C14.4601 8.37011 14.4601 8.37011 14.4961 8.33433C14.5322 8.29856 14.5322 8.29856 14.5682 8.26279C14.6042 8.40588 14.6402 8.54897 14.6763 8.69206C14.6763 8.72783 14.7123 8.79937 14.7844 8.83514C14.7844 8.62051 14.7844 8.44165 14.7844 8.22702C14.8204 8.37011 14.9285 8.54897 15.0726 8.62051C15.0005 8.62051 15.0005 8.54897 15.0366 8.44165Z" fill="#7B6A58"/>
<path d="M13.9558 8.47717L15.0006 10.4804H12.8749L13.9558 8.47717Z" fill="#A48A7B"/>
<path d="M15.0367 8.44149C15.0367 8.51304 15.0367 8.58458 15.0367 8.65613C14.8926 8.54881 14.8206 8.40572 14.7485 8.26263C14.7485 8.47727 14.7485 8.65613 14.7485 8.87076C14.6764 8.87076 14.6764 8.79922 14.6404 8.72767C14.6044 8.58458 14.5684 8.44149 14.5323 8.29841C14.4963 8.33418 14.4963 8.36995 14.4603 8.36995C14.4603 8.36995 14.4242 8.40572 14.3882 8.40572C14.3522 8.40572 14.3522 8.36995 14.3522 8.36995C14.3522 8.29841 14.3522 8.26263 14.3522 8.19109C14.3522 8.15532 14.3522 8.08377 14.3162 8.08377C14.2441 8.15532 14.172 8.19109 14.1 8.26263C14.1 8.22686 14.1 8.22686 14.1 8.19109L14.4963 7.47565L15.0367 8.44149Z" fill="white"/>
<path d="M13.5235 7.69031L13.9559 8.4773L12.875 10.4805H12.5147L11.4338 8.4773L11.8302 7.76186C12.0463 7.65454 12.1544 7.40414 12.3706 7.29682C12.2985 7.47568 12.2625 7.69031 12.1905 7.86917C12.2265 7.90495 12.2625 7.86917 12.2625 7.8334C12.3346 7.72609 12.4066 7.61877 12.4787 7.51145C12.5508 7.61877 12.4787 7.79763 12.6228 7.86917C12.6588 7.72609 12.6949 7.54722 12.7309 7.40414C12.875 7.583 12.875 7.8334 13.0191 8.01226C13.0191 8.04803 13.0552 8.04803 13.0552 8.04803C13.0912 8.04803 13.0912 8.01226 13.0912 7.97649C13.0912 7.72609 13.0552 7.51145 13.0552 7.26105C13.1633 7.40414 13.3074 7.54722 13.4155 7.69031C13.4515 7.72609 13.4875 7.72609 13.5235 7.69031C13.5235 7.72609 13.5235 7.69031 13.5235 7.69031Z" fill="#A48A7B"/>
<path d="M11.4697 8.47717L12.5506 10.4804H10.3888L11.4697 8.47717Z" fill="#A48A7B"/>
<path d="M13.0191 8.01237C12.911 7.83351 12.8749 7.54733 12.7308 7.40424C12.6948 7.54733 12.6588 7.72619 12.6227 7.86928C12.5146 7.79773 12.5867 7.61887 12.4786 7.51156C12.4066 7.61887 12.3345 7.72619 12.2624 7.83351C12.2624 7.86928 12.1904 7.90505 12.1904 7.86928C12.2624 7.69042 12.2985 7.47579 12.3705 7.29692C12.1543 7.40424 12.0463 7.65465 11.8301 7.76196L12.6948 6.18799L13.5235 7.72619C13.5235 7.72619 13.5235 7.72619 13.5235 7.76196C13.4874 7.79773 13.4514 7.76196 13.4154 7.72619C13.3073 7.5831 13.1632 7.44001 13.0551 7.29692C13.0551 7.54733 13.0911 7.76196 13.0911 8.01237C13.0911 8.04814 13.0911 8.08391 13.0551 8.08391C13.0551 8.04814 13.0191 8.01237 13.0191 8.01237Z" fill="white"/>
<path d="M11.0735 7.97644C11.1095 8.01221 11.1816 8.04798 11.2536 8.04798L11.4698 8.44148L10.3889 10.4447H8.94775L10.2448 8.04798C10.2808 8.01221 10.2808 8.01221 10.3169 7.97644C10.3169 8.11953 10.3169 8.26262 10.3169 8.40571C10.3889 8.26262 10.497 8.11953 10.6051 7.97644C10.6411 8.1553 10.6772 8.33416 10.6411 8.51302C10.6772 8.51302 10.7132 8.47725 10.7132 8.44148C10.7853 8.29839 10.8573 8.11953 10.9654 7.97644C11.0014 8.04798 11.0375 8.11953 11.0735 8.19107L11.1095 8.22685C11.1455 8.22685 11.1455 8.19107 11.1455 8.1553C11.0735 8.11953 11.0735 8.04798 11.0735 7.97644Z" fill="#634E42"/>
<path d="M11.0735 7.97682C11.0735 8.04836 11.0735 8.11991 11.0735 8.19145C11.0735 8.22722 11.0735 8.26299 11.0374 8.26299C11.0014 8.26299 11.0014 8.26299 11.0014 8.22722C10.9654 8.15568 10.9293 8.08413 10.8933 8.01259C10.8213 8.15568 10.7492 8.33454 10.6411 8.47763C10.6051 8.5134 10.6051 8.54917 10.5691 8.54917C10.6051 8.37031 10.6051 8.19145 10.533 8.01259C10.4249 8.15568 10.3529 8.29877 10.2448 8.44186C10.2448 8.29877 10.2448 8.15568 10.2448 8.01259C10.2088 8.01259 10.2088 8.04836 10.1727 8.08413L10.6771 7.11829L11.1816 8.08413C11.1816 8.04836 11.1095 8.01259 11.0735 7.97682Z" fill="white"/>
<path d="M7.54251 3.64799C7.50648 3.57645 7.39839 3.5049 7.25428 3.46913C7.25428 3.32604 7.14619 3.21873 7.00207 3.18296C6.96604 3.18296 6.93001 3.18296 6.89398 3.18296C6.82192 3.11141 6.74986 3.07564 6.64178 3.07564C6.56972 3.07564 6.49766 3.07564 6.46163 3.11141C6.35354 3.00409 6.20942 2.96832 6.02928 2.96832C5.74104 2.96832 5.48883 3.14718 5.48883 3.36182C5.27266 3.36182 5.12854 3.46913 5.12854 3.61222H7.54251V3.64799Z" fill="white"/>
<path d="M10.7131 5.90158C10.7131 5.83004 10.605 5.75849 10.4609 5.72272C10.4609 5.61541 10.3528 5.50809 10.2447 5.47232C10.2087 5.47232 10.1727 5.47232 10.1366 5.47232C10.1006 5.43655 9.99253 5.40077 9.92047 5.40077C9.84841 5.40077 9.81238 5.40077 9.77636 5.43655C9.7043 5.365 9.56018 5.29346 9.41606 5.29346C9.16385 5.29346 8.94768 5.43655 8.94768 5.61541C8.76753 5.61541 8.62341 5.72272 8.62341 5.83004V5.86581H10.7131V5.90158Z" fill="white"/>
<path d="M15.6852 5.7584C15.6491 5.65108 15.5411 5.57954 15.3609 5.54377C15.3609 5.43645 15.2168 5.32913 15.0727 5.29336C15.0006 5.29336 14.9286 5.29336 14.8925 5.29336C14.8565 5.22182 14.7484 5.18605 14.6764 5.18605C14.6043 5.18605 14.4962 5.18605 14.4602 5.22182C14.3881 5.15027 14.28 5.1145 14.1719 5.1145C13.9918 5.1145 13.8477 5.22182 13.7756 5.36491C13.7396 5.32914 13.6315 5.29336 13.5594 5.29336C13.4153 5.29336 13.2712 5.40068 13.2712 5.508H13.2352C13.019 5.508 12.8749 5.61531 12.8749 5.72263V5.7584H15.6852Z" fill="white"/>
<path d="M14.8926 3.97C14.8565 3.82691 14.6764 3.68382 14.3882 3.64805C14.3521 3.46919 14.208 3.3261 13.9558 3.25456C13.8477 3.25456 13.7757 3.25456 13.6676 3.25456C13.5955 3.18301 13.4874 3.11147 13.3433 3.07569C13.2352 3.03992 13.0911 3.07569 12.983 3.11147C12.9109 3.07569 12.7668 3.00415 12.5867 3.00415C12.3345 3.00415 12.0823 3.14724 12.0102 3.36187C11.9382 3.29033 11.8301 3.25456 11.6859 3.25456C11.4698 3.25456 11.2536 3.39764 11.2536 3.5765H11.2176C10.9293 3.5765 10.6771 3.71959 10.6771 3.89845C10.6771 3.93423 10.6771 3.93423 10.7132 3.97H14.8926Z" fill="white"/>
<path d="M4.73231 5.7584C4.69628 5.68686 4.58819 5.61531 4.48011 5.61531C4.48011 5.47222 4.37202 5.36491 4.2279 5.32913C4.19187 5.32913 4.15584 5.32913 4.11981 5.32913C4.04775 5.25759 3.97569 5.22182 3.86761 5.22182C3.79555 5.22182 3.72349 5.22182 3.68746 5.25759C3.57937 5.15027 3.43525 5.1145 3.25511 5.1145C2.96687 5.1145 2.71466 5.29336 2.71466 5.508C2.53452 5.508 2.35437 5.61531 2.35437 5.7584H4.73231Z" fill="white"/>
<path d="M10.0646 13.3421H8.29919V13.986H10.0646V13.3421Z" fill="white"/>
<path d="M6.53375 2.68243H6.42566V4.14909H6.53375V2.68243Z" fill="#C69F8A"/>
<path d="M7.57864 5.29358H5.41687V11.9472H7.57864V5.29358Z" fill="#FFFFDE"/>
<path opacity="0.1" d="M5.41687 5.57996V5.93768H6.89408V10.1946H7.57864V5.93768V5.57996H5.41687Z" fill="#171715"/>
<path d="M5.63297 7.33264H3.21899V11.9472H5.63297V7.33264Z" fill="#FFE9C0"/>
<path d="M5.95728 6.68878V7.40422L5.63301 7.6904H3.21904L2.89478 7.40422V6.68878H3.25507V6.93919H3.72345V6.68878H4.19183V6.93919H4.66022V6.68878H5.1286V6.93919H5.59698V6.68878H5.95728Z" fill="#FFE9C0"/>
<path d="M6.82202 9.40753H6.35364V9.69371H6.82202V9.40753Z" fill="#FFE9C0"/>
<path d="M8.22717 9.40753H7.75879V9.69371H8.22717V9.40753Z" fill="#FFE9C0"/>
<path d="M9.16394 9.40753H8.69556V9.69371H9.16394V9.40753Z" fill="#FFE9C0"/>
<path opacity="0.1" d="M2.89478 7.40417L3.21904 7.69035H4.94845V11.9472H5.63301V7.69035L5.95728 7.40417H2.89478Z" fill="#171715"/>
<path d="M9.16393 9.69379H4.94849V11.9474H9.16393V9.69379Z" fill="#FFE9C0"/>
<path d="M5.88525 9.40753H5.41687V9.69371H5.88525V9.40753Z" fill="#FFE9C0"/>
<path d="M5.20068 5.57983L6.49774 3.61237L7.75877 5.57983H5.20068Z" fill="#FF6F39"/>
<path d="M8.29928 3.14734C7.68677 3.54083 7.07427 2.75385 6.4978 3.14734C6.4978 3.04002 6.4978 2.89693 6.4978 2.78962C7.1103 2.39612 7.7228 3.18311 8.29928 2.78962C8.01104 3.04002 7.68677 3.00425 7.39854 2.96848C7.68677 3.11157 8.01104 3.29043 8.29928 3.14734Z" fill="#FF6F39"/>
<path d="M4.44411 9.15713H3.9397V8.44169C3.9397 8.2986 4.04779 8.19128 4.1919 8.19128C4.33602 8.19128 4.44411 8.2986 4.44411 8.44169V9.15713Z" fill="#8A735B"/>
<path d="M6.78597 11.1245V11.9473H5.45288V11.1603C5.45288 10.8026 5.74112 10.5164 6.10141 10.5164C6.49773 10.4806 6.78597 10.7668 6.78597 11.1245Z" fill="#8A735B"/>
<path d="M6.64187 6.72445H6.35364V6.29519C6.35364 6.22364 6.4257 6.1521 6.49776 6.1521C6.56981 6.1521 6.64187 6.22364 6.64187 6.29519V6.72445Z" fill="#8A735B"/>
<path d="M6.64187 8.79947H6.35364V8.3702C6.35364 8.29866 6.4257 8.22711 6.49776 8.22711C6.56981 8.22711 6.64187 8.29866 6.64187 8.3702V8.79947Z" fill="#8A735B"/>
<path d="M18.5315 28.2026V19.2595H6.74988V30.8139C9.344 27.1652 14.7844 26.3782 18.5315 28.2026Z" fill="#C9C421"/>
<path d="M18.5315 31.8871V28.2026C14.7844 26.3782 9.344 27.1652 6.74988 30.814V31.9587C10.1366 29.6692 14.7844 29.8481 18.5315 31.8871Z" fill="#749C30"/>
<path d="M6.74988 31.9944V35.035H18.5315V31.8871C14.7844 29.8481 10.1366 29.6692 6.74988 31.9944Z" fill="#638529"/>
<path d="M5.92126 35.5H19.2522V18.4009H5.92126V35.5ZM17.811 19.9034V33.9618H7.36244V19.9034H17.811Z" fill="#634E42"/>
<path d="M16.1896 20.0464H16.2256C16.2256 20.0106 16.2256 19.9749 16.1896 19.9033H16.1536C16.1896 19.9391 16.1896 20.0106 16.1896 20.0464ZM16.1896 20.0464H16.2256C16.2256 20.0106 16.2256 19.9749 16.1896 19.9033H16.1536C16.1896 19.9391 16.1896 20.0106 16.1896 20.0464ZM16.1896 20.0464H16.2256C16.2256 20.0106 16.2256 19.9749 16.1896 19.9033H16.1536C16.1896 19.9391 16.1896 20.0106 16.1896 20.0464ZM7.00208 34.391H18.1712V19.5098H7.00208V34.391ZM17.6308 20.0464V33.8545H7.54252V20.0464H17.6308ZM16.1896 20.0464H16.2256C16.2256 20.0106 16.2256 19.9749 16.1896 19.9033H16.1536C16.1896 19.9391 16.1896 20.0106 16.1896 20.0464ZM16.1896 20.0464H16.2256C16.2256 20.0106 16.2256 19.9749 16.1896 19.9033H16.1536C16.1896 19.9391 16.1896 20.0106 16.1896 20.0464ZM16.1896 20.0464H16.2256C16.2256 20.0106 16.2256 19.9749 16.1896 19.9033H16.1536C16.1896 19.9391 16.1896 20.0106 16.1896 20.0464Z" fill="#B17F4A"/>
<path opacity="0.1" d="M5.92126 18.4009L7.54259 20.0465V33.8545L5.92126 35.5V18.4009Z" fill="#1D1D1B"/>
<path d="M13.5954 34.5343H11.7939V35.2497H13.5954V34.5343Z" fill="white"/>
<path d="M16.5139 29.061C16.5139 29.061 16.5139 29.061 16.4778 29.0252C16.4778 28.9894 16.4418 28.9537 16.4418 28.9179C16.4058 28.8464 16.3698 28.739 16.2977 28.6317C16.2617 28.5244 16.1896 28.4171 16.1536 28.3455C16.1536 28.3098 16.1176 28.274 16.1176 28.2382C16.1176 28.2025 16.1176 28.2025 16.1176 28.2025C16.1176 28.2025 16.1176 28.2025 16.1536 28.2025C16.1896 28.2025 16.2256 28.2382 16.2617 28.2382C16.3337 28.274 16.4418 28.3813 16.5139 28.5244C16.5859 28.6675 16.5859 28.8106 16.5499 28.8821C16.5499 28.9179 16.5139 28.9537 16.5139 28.9894C16.5139 29.061 16.5139 29.061 16.5139 29.061Z" fill="#B17F4A"/>
<path d="M17.3787 30.6351C17.3787 30.6351 17.1985 30.6351 16.8743 30.6351C16.8022 30.6351 16.6941 30.6351 16.622 30.6351C16.514 30.6351 16.4059 30.6351 16.2978 30.5994C16.2618 30.5994 16.2257 30.5636 16.2257 30.5636C16.2257 30.5636 16.1897 30.5636 16.1897 30.5278L16.1537 30.492C16.1176 30.4563 16.0456 30.3847 16.0456 30.3132C16.0095 30.1701 16.0095 30.027 16.0456 29.9197C16.0816 29.8481 16.0816 29.8124 16.1176 29.7408C16.1537 29.705 16.1537 29.6335 16.1897 29.5977C16.2257 29.562 16.2257 29.4904 16.2618 29.4546C16.2978 29.4189 16.2978 29.3473 16.2978 29.3116C16.3338 29.1327 16.3698 28.9538 16.3338 28.8107C16.3338 28.6677 16.2978 28.5246 16.2618 28.453C16.2257 28.3815 16.2257 28.3099 16.2257 28.3099C16.2257 28.3099 16.2618 28.3457 16.2978 28.4173C16.3338 28.4888 16.4059 28.5961 16.4419 28.775C16.4779 28.9181 16.4779 29.1327 16.4779 29.3473C16.4779 29.3831 16.4419 29.4546 16.4419 29.5262C16.4059 29.562 16.4059 29.6335 16.3698 29.705C16.3338 29.7408 16.3338 29.8124 16.2978 29.8481C16.2618 29.8839 16.2618 29.9555 16.2257 29.9912C16.1897 30.0985 16.1897 30.1701 16.1897 30.2416C16.2257 30.3132 16.2618 30.3847 16.3698 30.4205C16.55 30.492 16.7301 30.492 16.8743 30.5278C17.1985 30.5994 17.3787 30.6351 17.3787 30.6351Z" fill="#B17F4A"/>
<path d="M15.7214 31.0287C15.7214 31.0287 15.6853 30.993 15.6493 30.9572C15.6133 30.9214 15.6133 30.8856 15.5772 30.8499C15.5412 30.8141 15.5412 30.7425 15.5052 30.671C15.4691 30.5279 15.4331 30.3848 15.4691 30.206C15.4691 30.0986 15.5052 30.0271 15.5412 29.9198C15.5412 29.884 15.5772 29.8125 15.5772 29.7767C15.6133 29.7409 15.6133 29.6694 15.6493 29.6336C15.7214 29.4548 15.8294 29.3117 15.9375 29.1686C16.0096 29.0255 16.1177 28.9182 16.1537 28.8109C16.2258 28.7035 16.2618 28.5962 16.2618 28.5247C16.2978 28.4531 16.2978 28.4174 16.2978 28.4174C16.2978 28.4174 16.2978 28.4531 16.2978 28.5247C16.2978 28.5962 16.2978 28.7035 16.2618 28.8109C16.2258 28.9182 16.1897 29.097 16.1177 29.2401C16.0456 29.3832 15.9736 29.5621 15.8655 29.7052C15.8294 29.7409 15.8294 29.7767 15.7934 29.8125C15.7574 29.8482 15.7574 29.884 15.7574 29.9198C15.7214 29.9913 15.6853 30.0629 15.6853 30.1702C15.6493 30.3133 15.6493 30.4564 15.6493 30.5995C15.6493 30.671 15.6853 30.7068 15.6853 30.7425C15.6853 30.7783 15.7214 30.8141 15.7214 30.8499C15.7214 30.993 15.7214 31.0287 15.7214 31.0287Z" fill="#B17F4A"/>
<path d="M17.4147 30.6706C17.3787 30.6349 17.3427 30.6349 17.3067 30.6349C17.2346 30.6349 17.1265 30.6349 17.0184 30.6706C16.9103 30.7064 16.7662 30.778 16.5861 30.8495C16.478 30.8853 16.3699 30.8853 16.2618 30.8495C16.1537 30.8137 16.0456 30.7422 15.9736 30.6349C15.9015 30.5276 15.8655 30.4202 15.8655 30.3129C15.8655 30.2771 15.8655 30.2771 15.8655 30.2414C15.8655 30.2056 15.8655 30.2056 15.8655 30.1698C15.8655 30.1341 15.8655 30.0625 15.9015 30.0267C15.9375 29.8479 15.9736 29.7048 16.0096 29.5975C16.0817 29.3471 16.1537 29.204 16.1537 29.204C16.1537 29.204 16.1537 29.3828 16.1177 29.6332C16.1177 29.7763 16.0817 29.9194 16.0817 30.0983C16.0817 30.1341 16.0817 30.1698 16.0817 30.2056C16.0817 30.2414 16.0817 30.2414 16.0817 30.2771C16.0817 30.3129 16.0817 30.3129 16.0817 30.3487C16.0817 30.4202 16.1177 30.4918 16.1537 30.5633C16.2258 30.7064 16.3699 30.7422 16.514 30.7064C16.6581 30.6706 16.8022 30.6349 16.9464 30.5991C17.0905 30.5633 17.1986 30.5991 17.2706 30.6349C17.3427 30.6349 17.3787 30.6349 17.4147 30.6706Z" fill="#B17F4A"/>
<path d="M16.694 31.4579C16.694 31.4579 16.658 31.4579 16.5859 31.4221C16.5139 31.3864 16.4058 31.3864 16.2617 31.3148C16.1176 31.2433 15.9734 31.1717 15.8653 31.0286C15.7212 30.8855 15.6492 30.6709 15.6492 30.4205C15.6492 30.1701 15.7573 29.9912 15.8293 29.8124C15.9014 29.6335 16.0095 29.5262 16.0455 29.3831C16.1176 29.2758 16.1536 29.1685 16.1536 29.0969C16.1536 29.0612 16.1536 29.0254 16.1536 29.0254C16.1536 28.9896 16.1536 28.9896 16.1536 28.9896C16.1536 28.9896 16.1536 28.9896 16.1536 29.0254C16.1536 29.0612 16.1536 29.0612 16.1536 29.0969C16.1536 29.1685 16.1536 29.2758 16.1176 29.4189C16.0815 29.562 16.0095 29.7051 15.9734 29.8839C15.9014 30.0628 15.8293 30.2416 15.8293 30.4205C15.8293 30.5994 15.8653 30.7782 15.9734 30.9213C16.0455 31.0644 16.1896 31.1717 16.2977 31.2433C16.4058 31.3148 16.5139 31.3864 16.5859 31.4221C16.658 31.4579 16.694 31.4579 16.694 31.4579Z" fill="#B17F4A"/>
<path d="M16.8381 31.3147C16.8381 31.3147 16.8021 31.3147 16.73 31.3147C16.658 31.3147 16.5499 31.2789 16.4058 31.2073C16.2977 31.1358 16.1536 31.0285 16.0455 30.8496C16.0095 30.8138 16.0095 30.7781 15.9734 30.7065C15.9734 30.6708 15.9374 30.5992 15.9374 30.5634C15.9014 30.4561 15.9014 30.3488 15.9014 30.2415C15.9374 30.0269 15.9734 29.848 16.0455 29.6691C16.1175 29.4903 16.1536 29.3472 16.1896 29.2399C16.2256 29.1326 16.2617 29.0252 16.2617 28.9537C16.2617 28.8821 16.2617 28.8464 16.2617 28.8464C16.2617 28.8464 16.2617 28.8821 16.2977 28.9537C16.2977 29.0252 16.3337 29.1326 16.2977 29.2756C16.2977 29.4187 16.2617 29.5618 16.2256 29.7407C16.1896 29.9195 16.1536 30.0984 16.1175 30.2773C16.1175 30.3846 16.1175 30.4561 16.1175 30.5634C16.1175 30.5992 16.1536 30.635 16.1536 30.6708C16.1536 30.7065 16.1896 30.7423 16.1896 30.7781C16.2617 30.9212 16.3698 31.0285 16.4418 31.1358C16.5499 31.2073 16.622 31.2789 16.694 31.3147C16.7661 31.3147 16.8381 31.3147 16.8381 31.3147Z" fill="#B17F4A"/>
<path d="M17.4867 30.8854C17.4867 30.8854 17.4867 30.8139 17.3786 30.7423C17.3426 30.7066 17.2705 30.7066 17.1985 30.7066C17.1625 30.7066 17.1625 30.7066 17.1264 30.7066C17.0904 30.7066 17.0904 30.7066 17.0544 30.7066C17.0183 30.7066 16.9823 30.7423 16.9102 30.7423C16.8742 30.7781 16.8022 30.7781 16.7661 30.8139C16.7301 30.8139 16.6941 30.8497 16.6941 30.8497C16.658 30.8497 16.622 30.8497 16.586 30.8854C16.55 30.8854 16.5139 30.8854 16.4779 30.8854C16.4419 30.8854 16.4058 30.8854 16.3698 30.8854C16.2977 30.8854 16.2257 30.8854 16.1536 30.8497C16.0095 30.8139 15.8654 30.7781 15.7213 30.6708C15.5772 30.5635 15.4691 30.4204 15.397 30.2773C15.325 30.1342 15.325 29.9554 15.325 29.7765C15.325 29.705 15.361 29.6334 15.361 29.5261C15.397 29.4545 15.433 29.383 15.4691 29.3115C15.5051 29.2757 15.5051 29.2399 15.5411 29.2041C15.5772 29.1684 15.5772 29.1684 15.6132 29.1326C15.6492 29.0968 15.6852 29.0253 15.7213 28.9895C15.7573 28.9537 15.7933 28.918 15.8294 28.8464C15.8654 28.8107 15.9014 28.7749 15.9375 28.7391C16.0455 28.596 16.1176 28.4172 16.1176 28.3098C16.1176 28.2383 16.1176 28.2025 16.1176 28.1668C16.1176 28.131 16.1176 28.131 16.1176 28.131C16.1176 28.131 16.1176 28.131 16.1176 28.1668C16.1176 28.2025 16.1536 28.2383 16.1536 28.3098C16.1536 28.4172 16.1176 28.596 16.0455 28.7749C16.0095 28.8107 15.9735 28.8822 15.9375 28.918C15.9014 28.9537 15.8654 29.0253 15.8294 29.0611C15.7933 29.0968 15.7573 29.1684 15.7213 29.2041C15.7213 29.2399 15.6852 29.2399 15.6852 29.2757C15.6852 29.3115 15.6492 29.3115 15.6492 29.3472C15.6132 29.383 15.6132 29.4545 15.5772 29.5261C15.5772 29.5976 15.5411 29.6334 15.5411 29.705C15.5411 29.848 15.5411 29.9554 15.6132 30.0984C15.7213 30.3489 15.9375 30.5277 16.1897 30.5993C16.2617 30.635 16.2977 30.635 16.3698 30.635C16.4058 30.635 16.4419 30.635 16.4419 30.635C16.4779 30.635 16.5139 30.635 16.5139 30.635C16.622 30.635 16.7301 30.5993 16.8382 30.5635C16.8742 30.5635 16.9463 30.5277 16.9823 30.5277C17.0183 30.5277 17.0183 30.5277 17.0544 30.5277C17.0904 30.5277 17.0904 30.5277 17.1264 30.5277C17.1985 30.5277 17.2705 30.5635 17.3426 30.5993C17.3786 30.635 17.3786 30.635 17.3786 30.6708C17.3786 30.7066 17.4147 30.7066 17.4147 30.7066C17.4867 30.8497 17.4867 30.8854 17.4867 30.8854Z" fill="#432918"/>
<path d="M17.4146 30.492C17.4146 30.492 17.1985 30.5635 16.8382 30.6351C16.658 30.6708 16.4419 30.7424 16.1896 30.7066C16.0455 30.6708 15.9374 30.6351 15.7933 30.5278C15.6852 30.4204 15.6132 30.2773 15.5771 30.0985C15.5771 29.9554 15.5771 29.8123 15.6492 29.6692C15.6852 29.5261 15.7573 29.4188 15.8294 29.3473C15.9735 29.1326 16.0816 28.9896 16.1176 28.8107C16.1896 28.6676 16.1896 28.5245 16.1536 28.4172C16.1536 28.3814 16.1536 28.3814 16.1536 28.3457V28.3099C16.1536 28.2741 16.1536 28.2741 16.1536 28.2741C16.1536 28.2741 16.1536 28.2741 16.1896 28.3099C16.1896 28.3099 16.1896 28.3457 16.2257 28.3457C16.2257 28.3457 16.2257 28.3814 16.2617 28.4172C16.2977 28.5245 16.3338 28.6676 16.2977 28.8465C16.2617 29.0253 16.1536 29.24 16.0455 29.4188C15.9735 29.5261 15.9374 29.6335 15.9014 29.7408C15.8654 29.8481 15.8294 29.9554 15.8654 30.0985C15.8654 30.2058 15.9014 30.3131 15.9735 30.3847C16.0455 30.4562 16.1536 30.492 16.2617 30.5278C16.4779 30.5635 16.6941 30.5635 16.8382 30.5278C17.1985 30.5278 17.4146 30.492 17.4146 30.492Z" fill="#432918"/>
<path d="M17.5947 30.5991C17.5587 30.5634 17.5947 30.5634 17.5947 30.5991C17.5587 30.5634 17.5587 30.5276 17.5227 30.5276C17.4866 30.5276 17.4866 30.4918 17.4506 30.4918C17.4146 30.4918 17.4146 30.4561 17.3785 30.4561C17.3425 30.4561 17.3425 30.4203 17.3065 30.4203C17.1984 30.3845 17.0543 30.3487 16.9462 30.3487C16.8381 30.3487 16.694 30.3845 16.5859 30.3487C16.4778 30.3487 16.3697 30.313 16.2977 30.2414C16.2256 30.1699 16.1896 30.0626 16.1896 29.9552C16.1896 29.9195 16.1896 29.8837 16.1896 29.8837C16.1896 29.8479 16.1896 29.8122 16.1896 29.8122C16.1896 29.7406 16.2256 29.7048 16.2256 29.6333C16.2616 29.526 16.2977 29.4187 16.3337 29.3114C16.3337 29.2756 16.3697 29.204 16.3697 29.1683C16.3697 29.1325 16.4057 29.0609 16.4057 29.0252C16.4057 28.9179 16.4057 28.8463 16.4057 28.7748C16.4057 28.7032 16.3697 28.6317 16.3337 28.5959C16.3337 28.5601 16.2977 28.5601 16.2977 28.5244L16.2616 28.4886C16.2256 28.4528 16.2256 28.4528 16.2256 28.4528C16.2256 28.4528 16.2256 28.4528 16.2616 28.4886C16.2616 28.4886 16.2616 28.5244 16.2977 28.5244C16.2977 28.5244 16.2977 28.5601 16.3337 28.5959C16.3697 28.7032 16.3697 28.8105 16.3337 28.9894C16.3337 29.0609 16.2616 29.1683 16.2256 29.2398C16.1896 29.3471 16.1535 29.4187 16.0815 29.5618C16.0454 29.6333 16.0454 29.6691 16.0094 29.7406C16.0094 29.7764 16.0094 29.8122 15.9734 29.8479C15.9734 29.8837 15.9734 29.9195 15.9734 29.9552C15.9734 30.0983 16.0094 30.2414 16.1175 30.3845C16.1896 30.4561 16.2616 30.4918 16.3337 30.5276C16.4057 30.5634 16.4778 30.5634 16.5499 30.5634C16.694 30.5634 16.8021 30.5276 16.9102 30.5276C17.0182 30.5276 17.1263 30.5276 17.1984 30.5634C17.2344 30.5634 17.2344 30.5634 17.2704 30.5991C17.3065 30.5991 17.3065 30.6349 17.3425 30.6349C17.3785 30.6349 17.3785 30.6707 17.4146 30.6707L17.4506 30.7065C17.4866 30.7422 17.5227 30.778 17.5587 30.778V30.5991H17.5947Z" fill="#432918"/>
<path d="M17.2706 31.3504C17.2706 31.3504 17.2706 31.2789 17.1985 31.2074C17.1264 31.1358 16.9823 31.0643 16.8382 31.0643C16.7661 31.0643 16.6581 31.0643 16.55 31.0643C16.4419 31.0643 16.2978 31.0285 16.1897 30.9569C16.0816 30.8854 15.9735 30.7781 15.9014 30.635C15.7934 30.5635 15.7573 30.3846 15.7573 30.2415C15.7573 29.9196 15.8654 29.6692 15.9375 29.4545C16.0456 29.2399 16.1176 29.061 16.1536 28.8822C16.1897 28.7033 16.2257 28.5602 16.2257 28.4887C16.2257 28.4529 16.2257 28.4171 16.2257 28.3814C16.2257 28.3456 16.2257 28.3456 16.2257 28.3456C16.2257 28.3456 16.2257 28.3456 16.2257 28.3814C16.2257 28.4171 16.2617 28.4529 16.2617 28.4887C16.2978 28.596 16.2978 28.7391 16.2617 28.9179C16.2257 29.0968 16.1536 29.3114 16.0816 29.5261C16.0095 29.7407 15.9375 29.9911 15.9375 30.2415C15.9375 30.4919 16.0456 30.7065 16.2257 30.8496C16.4059 30.9569 16.622 30.9569 16.8022 30.9927C16.9103 30.9927 16.9823 31.0285 17.0544 31.0643C17.1264 31.1 17.1625 31.1358 17.1985 31.2074C17.1985 31.2431 17.2345 31.2431 17.2345 31.2789V31.3147C17.2706 31.3147 17.2706 31.3504 17.2706 31.3504Z" fill="#432918"/>
<path d="M17.3065 30.3132C17.3065 30.3132 17.2705 30.2774 17.1984 30.2416C17.1624 30.2416 17.1264 30.2416 17.0543 30.2416C17.0183 30.2416 16.9462 30.2774 16.9102 30.3132C16.8381 30.3489 16.8021 30.3847 16.694 30.4205C16.658 30.4205 16.5859 30.4205 16.5139 30.4205C16.4778 30.4205 16.4418 30.4205 16.4418 30.3847C16.4058 30.3847 16.3698 30.349 16.3698 30.349C16.2617 30.2774 16.1896 30.1701 16.1896 30.0628C16.1536 29.9555 16.1896 29.8124 16.2256 29.7051C16.2977 29.4904 16.4058 29.3116 16.4778 29.1685C16.5139 29.0254 16.5139 28.8465 16.4778 28.7034C16.4418 28.5603 16.4058 28.4888 16.3698 28.4173C16.3337 28.3457 16.2977 28.3099 16.2977 28.3099C16.2977 28.3099 16.3337 28.3457 16.4058 28.3815C16.4778 28.453 16.5499 28.5246 16.622 28.6677C16.694 28.8107 16.73 28.9896 16.694 29.2042C16.658 29.4189 16.5499 29.5977 16.4778 29.7766C16.4418 29.8839 16.4418 29.9555 16.4418 30.027C16.4418 30.0985 16.4778 30.1701 16.5499 30.2059C16.5859 30.2416 16.658 30.2774 16.73 30.2774C16.8021 30.2774 16.8742 30.2416 16.9462 30.2059C17.0183 30.1701 17.0903 30.1701 17.1624 30.1701C17.2345 30.1701 17.2705 30.1701 17.3065 30.2059C17.3065 30.2774 17.3065 30.3132 17.3065 30.3132Z" fill="#432918"/>
<path d="M16.2258 31.3147C16.1537 31.3147 16.1177 31.2789 16.0817 31.2789C16.0096 31.2432 15.9015 31.1716 15.7934 31.0285C15.7574 30.957 15.6853 30.8855 15.6493 30.7781C15.6133 30.6708 15.6133 30.5635 15.6133 30.4562C15.6133 30.3846 15.6133 30.3489 15.6133 30.2773C15.6133 30.2058 15.6493 30.17 15.6493 30.0985C15.6853 29.9912 15.7214 29.8838 15.7934 29.7765C15.9375 29.5619 16.0817 29.383 16.1898 29.2399C16.2258 29.2042 16.2258 29.1684 16.2618 29.1326C16.2978 29.0969 16.2978 29.0611 16.3339 29.0253C16.3699 28.9538 16.3699 28.8822 16.4059 28.8107C16.4059 28.6676 16.3699 28.5603 16.3339 28.4887C16.2978 28.453 16.2978 28.4172 16.2618 28.4172L16.2258 28.3814C16.2258 28.3814 16.2258 28.3814 16.2618 28.4172C16.2978 28.4172 16.2978 28.453 16.3339 28.4887C16.4059 28.5603 16.478 28.6676 16.478 28.8464C16.478 28.918 16.478 29.0253 16.442 29.1326C16.442 29.1684 16.4059 29.2399 16.4059 29.2757C16.3699 29.3115 16.3699 29.383 16.3339 29.4188C16.2258 29.5977 16.0817 29.7765 15.9736 29.9554C15.9015 30.0627 15.8655 30.1342 15.8295 30.2416C15.7934 30.2773 15.7934 30.3489 15.7934 30.3846C15.7934 30.4204 15.7574 30.492 15.7574 30.5277C15.7214 30.7066 15.7574 30.8855 15.8295 31.0285C15.9015 31.1716 15.9736 31.2432 16.0456 31.2789C16.1537 31.2789 16.1898 31.2789 16.2258 31.3147Z" fill="#432918"/>
<path d="M16.7661 31.4936C16.7661 31.4936 16.7301 31.4578 16.622 31.422C16.55 31.3863 16.4059 31.3147 16.2617 31.2432C16.1897 31.2074 16.1176 31.1359 16.0456 31.1001C15.9735 31.0285 15.9014 30.957 15.8294 30.8497C15.7573 30.7424 15.7573 30.5993 15.7573 30.492C15.7573 30.3489 15.7573 30.2416 15.7934 30.0985C15.8654 29.8481 15.9735 29.6334 16.0816 29.4188C16.1176 29.383 16.1176 29.3115 16.1536 29.2757C16.1897 29.2399 16.1897 29.1684 16.1897 29.1326C16.2257 29.0611 16.2257 28.9538 16.2617 28.8822C16.2978 28.7391 16.2617 28.596 16.2257 28.5245C16.2257 28.4887 16.1897 28.453 16.1897 28.4172C16.1897 28.3814 16.1897 28.3814 16.1897 28.3814C16.1897 28.3814 16.1897 28.3814 16.2257 28.4172C16.2257 28.453 16.2617 28.453 16.2978 28.5245C16.3338 28.596 16.4059 28.7391 16.4059 28.918C16.4059 28.9895 16.4059 29.0968 16.3698 29.2042C16.3698 29.2399 16.3338 29.3115 16.3338 29.3473C16.3338 29.383 16.2978 29.4546 16.2978 29.4903C16.2257 29.705 16.1176 29.9196 16.0456 30.1342C15.9735 30.3489 15.9735 30.5993 16.0456 30.7781C16.1176 30.957 16.2617 31.1001 16.3698 31.2074C16.5139 31.3147 16.622 31.3863 16.6941 31.4578C16.7301 31.4578 16.7661 31.4936 16.7661 31.4936Z" fill="#432918"/>
<path d="M10.1727 27.3439L9.95654 26.9862L11.1455 26.0919L11.4338 26.7L10.1727 27.3439Z" fill="#432918"/>
<path d="M10.0287 26.9506C10.1367 26.9148 10.2809 27.0579 10.2809 27.201C10.3169 27.3441 10.2088 27.4871 10.1007 27.5229C9.99263 27.5587 9.84851 27.4156 9.84851 27.2725C9.84851 27.1294 9.92057 26.9863 10.0287 26.9506Z" fill="#432918"/>
<path d="M10.5691 28.2383C10.6412 28.1668 10.7853 28.2026 10.8934 28.3099C11.0015 28.4172 11.0015 28.5603 10.8934 28.6318C10.8213 28.7034 10.6772 28.6676 10.5691 28.5603C10.461 28.453 10.461 28.3099 10.5691 28.2383Z" fill="#432918"/>
<path d="M10.7854 28.3815L10.5332 28.5245L9.92065 27.3798L10.2089 27.2725L10.7854 28.3815Z" fill="#432918"/>
<path d="M11.1815 28.2383L11.3617 28.9896C11.2175 28.9538 11.0734 28.918 10.9293 28.8465C10.8573 28.8107 10.7852 28.7391 10.7131 28.7034L10.7492 28.2741L11.0014 28.2383H11.1815Z" fill="#432918"/>
<path d="M10.6052 28.1668L10.6773 28.3814C10.6773 28.3814 10.7854 28.3098 10.8214 28.2383C10.8574 28.2025 10.8574 28.1668 10.8574 28.131C10.8574 28.0952 10.8574 28.0952 10.8574 28.0952C10.8574 28.0952 10.8574 28.0952 10.8214 28.131C10.7854 28.1668 10.7493 28.1668 10.7133 28.1668C10.6773 28.1668 10.6052 28.1668 10.6052 28.1668Z" fill="#432918"/>
<path d="M10.6411 28.2743L10.8213 28.4531L10.9654 28.1312L10.6411 28.2743Z" fill="#432918"/>
<path d="M10.533 28.0238L10.3889 28.2384C10.3889 28.2384 10.4249 28.2384 10.461 28.2742C10.497 28.2742 10.5691 28.2742 10.6051 28.2742C10.6411 28.2742 10.6772 28.2384 10.7132 28.2027C10.7492 28.1669 10.7492 28.1669 10.7492 28.1669H10.7132C10.6772 28.1669 10.6411 28.1669 10.6051 28.1311C10.5691 28.0953 10.5691 28.0596 10.533 28.0238Z" fill="#432918"/>
<path d="M12.911 30.7783C12.8029 30.8498 12.7309 30.9213 12.7309 31.0644L12.6948 30.9571L12.7309 31.1002L12.6228 30.9929L12.6588 31.2433L12.5147 31.1002L12.3706 31.2791L11.9742 30.9571C12.1544 30.7783 12.1904 30.7067 12.4066 30.6352C12.7669 30.3848 13.1272 30.1344 13.4875 29.9913C13.7037 30.0628 13.7037 30.1701 13.8117 30.3132C13.3434 30.4921 13.1272 30.5636 12.911 30.7783Z" fill="#432918"/>
<path d="M12.5147 31.3147H11.7581C11.8661 31.1716 11.9022 31.0643 12.0463 30.9212L12.5507 31.1358L12.5147 31.3147Z" fill="#432918"/>
<path d="M13.8117 30.3131L13.4154 30.0269C13.4875 29.0253 13.8838 28.131 14.3522 27.8448L14.7485 29.2757C14.2801 29.4903 14.1 29.848 13.8117 30.3131Z" fill="#432918"/>
<path d="M11.6139 22.8009L11.3617 22.8724L11.3257 22.157C11.4698 22.3358 11.6139 22.5505 11.6139 22.8009Z" fill="#432918"/>
<path d="M12.8029 25.1263C12.9831 25.1263 13.1992 25.1263 13.3794 25.1263C13.4514 23.7312 12.2625 21.9426 11.0375 22.658L11.4338 22.8726C11.5059 22.8369 11.5419 22.8369 11.6139 22.8011H11.686C12.4426 23.1588 12.875 24.0174 12.8029 25.1263Z" fill="#432918"/>
<path d="M12.839 24.9474L12.767 25.0547C12.767 25.0547 12.803 25.0547 12.839 25.0905C12.8751 25.0905 12.9471 25.0905 13.0192 25.0905C13.0552 25.0905 13.0912 25.0547 13.0912 25.0547C13.1273 25.0547 13.1273 25.0547 13.1633 25.0189C13.1993 25.0189 13.1993 25.0189 13.1993 25.0189H13.1633C13.1273 25.0189 13.1273 25.0189 13.0912 25.0189H13.0552H13.0192C12.9831 25.0189 12.9111 25.0189 12.8751 24.9832C12.8751 24.9832 12.8751 24.9474 12.839 24.9474Z" fill="#B17F4A"/>
<path d="M12.8749 24.7684L12.8029 24.8399C12.8029 24.8399 12.8389 24.8757 12.8749 24.8757C12.9109 24.8757 12.9109 24.9115 12.947 24.9115C12.983 24.9115 13.019 24.9115 13.019 24.9115C13.0551 24.9115 13.0551 24.9115 13.0911 24.9115C13.1271 24.9115 13.1271 24.9115 13.1632 24.9115C13.1632 24.9115 13.1992 24.9115 13.1992 24.9472C13.1992 24.9472 13.1992 24.9115 13.1632 24.9115C13.1632 24.9115 13.1271 24.8757 13.0911 24.8757C13.0551 24.8757 13.0551 24.8757 13.019 24.8757C12.983 24.8757 12.983 24.8757 12.947 24.8757C12.947 24.8757 12.9109 24.8757 12.9109 24.8399C12.9109 24.7684 12.8749 24.7684 12.8749 24.7684Z" fill="#B17F4A"/>
<path d="M12.8749 24.6611L12.8029 24.7327C12.8029 24.7327 12.8389 24.7684 12.9109 24.7684C12.947 24.7684 12.983 24.7684 13.019 24.7684C13.019 24.7684 13.019 24.7684 13.0551 24.7684C13.0551 24.7684 13.0551 24.7684 13.0911 24.7684H13.1271C13.1632 24.7684 13.1992 24.7327 13.1992 24.7327C13.2352 24.7327 13.2352 24.7327 13.2712 24.7327C13.3073 24.7327 13.3073 24.7327 13.3073 24.7327C13.3073 24.7327 13.2712 24.7327 13.2712 24.6969C13.2352 24.6969 13.2352 24.6969 13.1992 24.6969C13.1632 24.6969 13.1271 24.6969 13.1271 24.6969C13.0551 24.6969 13.019 24.6969 12.983 24.6611C12.9109 24.6611 12.8749 24.6611 12.8749 24.6611Z" fill="#B17F4A"/>
<path d="M12.8749 24.5538L12.8029 24.6612C12.8029 24.6612 12.8029 24.6612 12.8389 24.6612C12.8389 24.6612 12.8749 24.6612 12.9109 24.6612C12.947 24.6612 12.947 24.6612 12.983 24.6612H13.019H13.0551C13.0911 24.6612 13.0911 24.6612 13.1271 24.6254C13.1632 24.6254 13.1632 24.6254 13.1992 24.6254H13.2352C13.2352 24.6254 13.1992 24.6254 13.1992 24.5896C13.1992 24.5896 13.1632 24.5896 13.1271 24.5896C13.0911 24.5896 13.0911 24.5896 13.0551 24.5896H13.019H12.983C12.947 24.5896 12.947 24.5896 12.947 24.5896C12.8749 24.5538 12.8749 24.5538 12.8749 24.5538Z" fill="#B17F4A"/>
<path d="M12.911 24.3751L12.839 24.4466C12.839 24.4466 12.839 24.4466 12.875 24.4824C12.875 24.4824 12.875 24.4824 12.911 24.4824H12.9471C12.9831 24.4824 12.9831 24.4824 13.0191 24.4824C13.0191 24.4824 13.0191 24.4824 13.0552 24.4824C13.0552 24.4824 13.0552 24.4824 13.0912 24.4824C13.0912 24.4824 13.0912 24.4824 13.1272 24.4824C13.1272 24.4824 13.1272 24.4824 13.1633 24.4824C13.1633 24.4824 13.1993 24.4824 13.1993 24.4466C13.2353 24.4466 13.2353 24.4466 13.2713 24.4466C13.3074 24.4466 13.3074 24.4466 13.3074 24.4466L13.2713 24.4108C13.2353 24.4108 13.2353 24.4108 13.1993 24.4108C13.1993 24.4108 13.1993 24.4108 13.1633 24.4108C13.1633 24.4108 13.1633 24.4108 13.1272 24.4108H13.0912C13.0552 24.4108 13.0552 24.4108 13.0552 24.3751C12.911 24.4108 12.911 24.4108 12.911 24.3751C12.911 24.4108 12.911 24.4108 12.911 24.3751Z" fill="#B17F4A"/>
<path d="M12.8751 24.2676L12.767 24.3391C12.767 24.3391 12.767 24.3391 12.803 24.3749H12.839H12.8751H12.9111C12.9471 24.3749 12.9831 24.3749 12.9831 24.3749C13.0192 24.3749 13.0192 24.3749 13.0192 24.3749C13.0192 24.3749 13.0192 24.3749 12.9831 24.3749C12.9471 24.3749 12.9471 24.3391 12.9111 24.3391C12.9111 24.3391 12.8751 24.3391 12.8751 24.3033C12.9111 24.3033 12.9111 24.2676 12.8751 24.2676Z" fill="#B17F4A"/>
<path d="M12.839 24.1603L12.767 24.2676C12.767 24.2676 12.767 24.2676 12.803 24.2676C12.803 24.2676 12.803 24.2676 12.839 24.2676H12.8751C12.9111 24.2676 12.9471 24.2676 12.9471 24.2676C12.9831 24.2676 13.0192 24.2676 13.0552 24.2318C13.0912 24.2318 13.0912 24.1961 13.1273 24.1961H13.1633H13.1993C13.2354 24.1961 13.2353 24.1961 13.2353 24.1961C13.2353 24.1961 13.1993 24.1961 13.1993 24.1603H13.1633H13.1273C13.0912 24.1603 13.0912 24.1961 13.0552 24.1961C13.0192 24.1961 13.0192 24.1961 12.9831 24.1961C12.9471 24.1961 12.9471 24.1961 12.9111 24.1961C12.839 24.1603 12.839 24.1603 12.839 24.1603Z" fill="#B17F4A"/>
<path d="M12.8029 24.053L12.7308 24.1245C12.7308 24.1245 12.7308 24.1245 12.7669 24.1245H12.8029C12.8389 24.1245 12.8389 24.1245 12.875 24.1245H12.911C12.911 24.1245 12.911 24.1245 12.947 24.1245L12.983 24.0888H13.0191H13.0551C13.0551 24.0888 13.0551 24.0888 13.0191 24.0888H12.983C12.947 24.0888 12.947 24.0888 12.911 24.0888C12.911 24.0888 12.911 24.0888 12.875 24.0888C12.875 24.0888 12.875 24.0888 12.8389 24.0888C12.8389 24.0888 12.8389 24.0888 12.8029 24.053Z" fill="#B17F4A"/>
<path d="M12.767 23.91L12.6949 24.0173C12.6949 24.0173 12.731 24.0531 12.767 24.0531C12.803 24.0531 12.803 24.0531 12.8391 24.0531C12.8751 24.0531 12.8751 24.0173 12.9111 24.0173C12.9472 24.0173 12.9472 23.9815 12.9472 23.9815C12.9472 23.9815 12.9472 23.9815 12.9832 23.9815C12.9832 23.9815 12.9832 23.9815 13.0192 23.9815H13.0552L13.0192 23.9457C12.9832 23.9457 12.9832 23.9457 12.9472 23.9457C12.9111 23.9457 12.9111 23.9457 12.8751 23.9815C12.8391 23.9815 12.8391 23.9815 12.803 23.9815H12.767C12.803 23.91 12.767 23.91 12.767 23.91Z" fill="#B17F4A"/>
<path d="M12.803 23.8026L12.6949 23.8741C12.6949 23.8741 12.6949 23.8741 12.731 23.8741C12.731 23.8741 12.767 23.8741 12.803 23.8741C12.803 23.8741 12.803 23.8741 12.8391 23.8741C12.8751 23.8383 12.8751 23.8383 12.9111 23.8383H12.9472C12.9472 23.8383 12.9472 23.8383 12.9111 23.8383H12.8751H12.8391C12.8391 23.8383 12.8391 23.8383 12.803 23.8026C12.803 23.8383 12.803 23.8383 12.803 23.8026C12.803 23.8383 12.803 23.8383 12.803 23.8026Z" fill="#B17F4A"/>
<path d="M12.7309 23.6953L12.6588 23.7669C12.6588 23.7669 12.6588 23.7669 12.6948 23.7669H12.7309C12.7669 23.7669 12.7669 23.7669 12.7669 23.7311L12.8029 23.6953C12.8029 23.6953 12.8029 23.6953 12.839 23.6953H12.875C12.875 23.6953 12.875 23.6953 12.839 23.6953C12.839 23.6953 12.839 23.6953 12.8029 23.6953C12.8029 23.6953 12.8029 23.6953 12.7309 23.6953C12.7669 23.6953 12.7669 23.6953 12.7309 23.6953Z" fill="#B17F4A"/>
<path d="M12.6227 23.5163L12.5507 23.6236C12.5507 23.6236 12.5507 23.6236 12.5867 23.6236C12.5867 23.6236 12.5867 23.6236 12.6227 23.6236H12.6587C12.6948 23.6236 12.6948 23.6236 12.7308 23.6236C12.7668 23.6236 12.7668 23.5878 12.8029 23.5878C12.8389 23.5878 12.8389 23.5521 12.8389 23.5521L12.8749 23.5163H12.911H12.8749C12.8749 23.5163 12.8389 23.5163 12.8029 23.5163C12.7668 23.5163 12.7668 23.5521 12.7308 23.5521C12.7308 23.5521 12.6948 23.5521 12.6227 23.5163C12.6587 23.5521 12.6587 23.5521 12.6227 23.5163C12.6587 23.5163 12.6587 23.5163 12.6227 23.5163Z" fill="#B17F4A"/>
<path d="M12.5868 23.4091L12.5148 23.5164C12.5148 23.5164 12.5148 23.5164 12.5508 23.5164H12.5868H12.6229C12.6229 23.5164 12.6589 23.5164 12.6589 23.4806C12.6589 23.4806 12.6949 23.4806 12.6949 23.4448H12.7309C12.7309 23.4448 12.7309 23.4448 12.767 23.4448C12.767 23.4448 12.767 23.4448 12.7309 23.4448H12.6949H12.6589C12.6229 23.4448 12.6229 23.4448 12.5868 23.4091C12.5868 23.4448 12.5868 23.4448 12.5868 23.4091Z" fill="#B17F4A"/>
<path d="M12.5147 23.3017L12.4426 23.409C12.4426 23.409 12.4426 23.409 12.4787 23.409H12.5147C12.5507 23.409 12.5867 23.409 12.6228 23.3732C12.6588 23.3375 12.6948 23.3375 12.6948 23.3017C12.7309 23.2659 12.7309 23.2659 12.7309 23.2659C12.7309 23.2659 12.7309 23.2659 12.6948 23.2659C12.6588 23.2659 12.6228 23.3017 12.5867 23.3017C12.5867 23.3375 12.5507 23.3375 12.5147 23.3017Z" fill="#B17F4A"/>
<path d="M12.3705 23.2302V23.3375C12.3705 23.3375 12.4065 23.3375 12.4425 23.3375C12.4786 23.3375 12.4786 23.3375 12.5146 23.3018C12.5506 23.3018 12.5506 23.266 12.5867 23.266C12.5867 23.2302 12.6227 23.2302 12.6227 23.1945C12.6227 23.1945 12.6227 23.1945 12.6587 23.1945H12.6947H12.6587H12.6227C12.5867 23.1945 12.5867 23.2302 12.5506 23.2302C12.5506 23.2302 12.5146 23.266 12.4786 23.266C12.4425 23.266 12.4425 23.266 12.4425 23.266C12.3705 23.266 12.3705 23.2302 12.3705 23.2302Z" fill="#B17F4A"/>
<path d="M12.3346 23.1585V23.2658C12.3346 23.2658 12.3706 23.2658 12.4067 23.2658C12.4427 23.2658 12.4427 23.2658 12.4787 23.2301V23.1943L12.5147 23.1585H12.5508H12.5147C12.5147 23.1585 12.4787 23.1585 12.4787 23.1943C12.4787 23.1943 12.4787 23.1943 12.4427 23.2301L12.4067 23.2658H12.3706C12.3346 23.1585 12.3346 23.1585 12.3346 23.1585Z" fill="#B17F4A"/>
<path d="M12.2264 23.0512L12.2985 23.1586C12.2985 23.1586 12.3706 23.087 12.4066 23.0512C12.4066 23.0512 12.4066 23.0512 12.4426 23.0512C12.4426 23.0512 12.4426 23.0512 12.4786 23.0512C12.4786 23.0512 12.4786 23.0512 12.5147 23.0512C12.5147 23.0512 12.5147 23.0512 12.4786 23.0512C12.4426 23.0512 12.4066 23.0512 12.3706 23.087C12.2985 23.0155 12.2264 23.0512 12.2264 23.0512Z" fill="#B17F4A"/>
<path d="M12.1904 22.9442L12.1544 23.0515C12.1544 23.0515 12.1544 23.0515 12.1904 23.0515C12.2265 23.0515 12.2265 23.0515 12.2625 23.0515C12.2985 23.0515 12.2985 23.0157 12.2985 23.0157C12.2985 22.9799 12.3346 22.9799 12.3346 22.9799L12.3706 22.9442H12.4066H12.4427H12.4066H12.3706C12.3346 22.9442 12.3346 22.9442 12.2985 22.9799C12.2625 22.9799 12.2625 23.0157 12.2625 23.0157C12.2265 22.9442 12.1904 22.9442 12.1904 22.9442Z" fill="#B17F4A"/>
<path d="M12.0824 22.8726L12.1184 22.9799C12.1184 22.9799 12.1545 22.9799 12.1545 22.9441L12.1905 22.9084C12.1905 22.9084 12.1905 22.9084 12.1905 22.8726C12.1905 22.8726 12.1905 22.8726 12.1905 22.8368C12.1905 22.8368 12.1905 22.8368 12.1905 22.801C12.1905 22.801 12.1905 22.801 12.1905 22.7653V22.7295C12.1905 22.7295 12.1905 22.7295 12.1545 22.7653C12.1545 22.7653 12.1545 22.7653 12.1545 22.801C12.1545 22.801 12.1545 22.801 12.1545 22.8368C12.1545 22.8368 12.1545 22.8368 12.1545 22.8726H12.1184H12.0824Z" fill="#B17F4A"/>
<path d="M12.0103 22.8366V22.944C12.0103 22.944 12.0103 22.944 12.0463 22.944L12.0823 22.9082C12.0823 22.9082 12.1183 22.8724 12.1183 22.8366V22.8009V22.7651V22.7293V22.6935C12.1183 22.6935 12.1183 22.6935 12.1183 22.6578C12.1183 22.6578 12.1183 22.6578 12.0823 22.6578L12.0463 22.6935C12.0463 22.6935 12.0463 22.7293 12.0103 22.7293C12.0103 22.7293 12.0103 22.7293 12.0103 22.7651C12.0463 22.8009 12.0463 22.8009 12.0103 22.8366Z" fill="#B17F4A"/>
<path d="M11.8301 22.8368L11.9382 22.8725C11.9382 22.8725 11.9382 22.8725 11.9382 22.8368C11.9742 22.801 11.9742 22.7652 11.9742 22.7294V22.6937C11.9742 22.6937 11.9742 22.6937 11.9742 22.7294C11.9742 22.7652 11.9382 22.7652 11.9382 22.801C11.9382 22.801 11.9382 22.801 11.9022 22.801C11.9022 22.801 11.9022 22.801 11.8661 22.801C11.8661 22.801 11.8661 22.801 11.8301 22.801C11.8301 22.801 11.8301 22.801 11.7941 22.801C11.8661 22.801 11.8661 22.801 11.8301 22.8368C11.8301 22.8368 11.8301 22.801 11.8301 22.8368Z" fill="#B17F4A"/>
<path d="M11.7941 22.7294L11.9022 22.7652V22.7294C11.9022 22.6936 11.9022 22.6936 11.9022 22.6579C11.9022 22.6221 11.9022 22.5505 11.9022 22.5505C11.9022 22.5505 11.8661 22.5863 11.8661 22.6579C11.8301 22.6936 11.8301 22.6936 11.7941 22.7294Z" fill="#B17F4A"/>
<path d="M11.5419 22.9083L11.614 22.8009C11.614 22.8009 11.5779 22.8009 11.5779 22.7652C11.5419 22.7652 11.5419 22.7294 11.5059 22.6936V22.6579C11.5059 22.6221 11.5059 22.6221 11.5059 22.5863L11.4698 22.5505V22.5863V22.6221V22.6579C11.4698 22.6936 11.4698 22.7652 11.5059 22.8009C11.5059 22.8725 11.5419 22.9083 11.5419 22.9083Z" fill="#B17F4A"/>
<path d="M11.4338 22.8724L11.5419 22.8009C11.5419 22.8009 11.4698 22.7293 11.4338 22.6578L11.3977 22.622L11.3617 22.5862H11.3257C11.3257 22.5862 11.3257 22.5862 11.3617 22.622C11.3617 22.622 11.3617 22.6578 11.3977 22.6578C11.3977 22.6936 11.3977 22.6936 11.4338 22.7293C11.3977 22.8009 11.4338 22.8724 11.4338 22.8724Z" fill="#B17F4A"/>
<path d="M11.3978 22.944L11.4698 22.8724C11.4698 22.8724 11.4698 22.8724 11.4338 22.8366C11.4338 22.8366 11.4338 22.8366 11.3978 22.8009C11.3978 22.8009 11.3978 22.8009 11.3978 22.7651C11.3978 22.7293 11.3617 22.7293 11.3617 22.6935C11.3617 22.6578 11.3257 22.6578 11.2897 22.6578C11.2537 22.6578 11.2537 22.6578 11.2537 22.6578C11.2537 22.6578 11.2897 22.6578 11.2897 22.6935L11.3257 22.7293C11.3257 22.7651 11.3257 22.7651 11.3257 22.8009V22.8366C11.3257 22.8366 11.3257 22.8366 11.3257 22.8724V22.9082V22.944V22.9797V23.0155C11.3618 22.9082 11.3618 22.944 11.3978 22.944C11.3978 22.944 11.3618 22.944 11.3978 22.944Z" fill="#B17F4A"/>
<path d="M12.9471 25.4482L11.3618 25.0905C11.5059 24.5539 11.3978 23.9458 11.3978 23.445C11.3978 23.1945 11.3978 23.0157 11.3978 22.7653L11.7581 22.6222C12.4787 22.9441 13.1633 23.8742 12.9471 25.4482Z" fill="#B17F4A"/>
<path d="M11.9743 23.6954C11.9382 23.7669 11.9022 23.8027 11.8662 23.8742C11.7581 23.9458 11.614 23.9815 11.4699 23.9458C11.4338 23.9458 11.4338 23.9458 11.3978 23.91C11.3978 23.91 11.3618 23.91 11.3618 23.8742L10.8213 24.0531L10.7132 24.3393C10.6772 24.4466 10.5691 24.4823 10.461 24.4466L10.3529 24.375L10.5691 24.1246L10.2809 24.3035C10.1007 24.1962 10.0287 24.0531 10.1007 23.91L10.9294 23.123L10.9654 23.0515L11.2176 22.8368C11.3257 22.7295 11.4699 22.658 11.614 22.658L11.7221 22.6222C11.7581 22.8726 11.7941 23.0515 11.8301 23.1945C11.9743 23.3019 12.0463 23.4807 11.9743 23.6954C11.9743 23.6954 11.9743 23.6596 11.9743 23.6954Z" fill="#B17F4A"/>
<path d="M11.3618 23.8026L10.7853 24.0172L10.7132 24.196C10.6412 24.3391 10.4971 24.3391 10.4971 24.3391L10.6412 24.0172L10.3529 24.196C10.2088 24.1603 10.1007 24.0172 10.1007 23.9099C10.0647 24.053 10.1368 24.196 10.2809 24.3034L10.5691 24.1245L10.3529 24.3749L10.461 24.4107C10.5691 24.4464 10.6772 24.4107 10.7132 24.3034L10.8213 24.053L11.3618 23.8741C11.3978 23.9099 11.4338 23.9099 11.4699 23.9099C11.5779 23.9456 11.686 23.9099 11.7941 23.8741C11.5419 23.9456 11.3978 23.8383 11.3618 23.8026Z" fill="#683C11"/>
<path d="M11.3618 23.8026L10.7853 24.0172L10.7132 24.196C10.6412 24.3391 10.4971 24.3391 10.4971 24.3391L10.6412 24.0172L10.3529 24.196C10.2088 24.1603 10.1007 24.0172 10.1007 23.9099C10.0647 24.053 10.1368 24.196 10.2809 24.3034L10.5691 24.1245L10.3529 24.3749L10.461 24.4107C10.5691 24.4464 10.6772 24.4107 10.7132 24.3034L10.8213 24.053L11.3618 23.8741C11.3978 23.9099 11.4338 23.9099 11.4699 23.9099C11.5779 23.9456 11.686 23.9099 11.7941 23.8741C11.5419 23.9456 11.3978 23.8383 11.3618 23.8026Z" fill="#432918"/>
<path d="M11.3618 23.8026L10.7853 24.0172L10.7132 24.196C10.6412 24.3391 10.4971 24.3391 10.4971 24.3391L10.6412 24.0172L10.3529 24.196C10.2088 24.1603 10.1007 24.0172 10.1007 23.9099C10.0647 24.053 10.1368 24.196 10.2809 24.3034L10.5691 24.1245L10.3529 24.3749L10.461 24.4107C10.5691 24.4464 10.6772 24.4107 10.7132 24.3034L10.8213 24.053L11.3618 23.8741C11.3978 23.9099 11.4338 23.9099 11.4699 23.9099C11.5779 23.9456 11.686 23.9099 11.7941 23.8741C11.5419 23.9456 11.3978 23.8383 11.3618 23.8026Z" fill="#432918"/>
<path d="M11.7941 22.7652H11.5779L11.5419 22.1571V22.0855C11.686 22.3001 11.8301 22.5148 11.7941 22.7652Z" fill="#B17F4A"/>
<path d="M11.5779 22.7651L11.5059 22.157C11.65 22.3716 11.7941 22.6578 11.5779 22.7651Z" fill="#432918"/>
<path d="M10.3169 24.0173C10.3169 24.053 10.2448 24.0888 10.2088 24.053C10.1727 24.053 10.1367 24.0173 10.1367 23.9457C10.1367 23.91 10.2088 23.8742 10.2448 23.91C10.3169 23.9457 10.3169 23.9815 10.3169 24.0173Z" fill="#432918"/>
<path d="M10.9653 23.123L11.0014 23.0514L11.2896 22.8368L10.9653 23.123Z" fill="white"/>
<path d="M11.2536 23.2302C11.2536 23.266 11.1816 23.3018 11.1455 23.266C11.1095 23.266 11.0735 23.1945 11.0735 23.1587C11.0735 23.1229 11.1455 23.0871 11.1816 23.1229C11.2536 23.1587 11.2536 23.1945 11.2536 23.2302Z" fill="#432918"/>
<path d="M11.2537 23.2301C11.2537 23.2658 11.2177 23.2658 11.1817 23.2658C11.1456 23.2658 11.1096 23.2301 11.1096 23.1943C11.1096 23.1585 11.1456 23.1585 11.1817 23.1585C11.2177 23.1585 11.2537 23.1943 11.2537 23.2301Z" fill="#432918"/>
<path d="M11.3617 23.2304C11.2536 23.1588 11.1816 23.123 11.0735 23.1588L11.1095 23.123C11.2176 23.123 11.2897 23.1588 11.3617 23.2304Z" fill="#432918"/>
<path d="M11.1459 23.1949C11.1094 23.1949 11.1094 23.1949 11.1459 23.1949C11.1094 23.1586 11.1459 23.1586 11.1459 23.1949C11.1459 23.1949 11.1459 23.1586 11.1459 23.1949Z" fill="white"/>
<path d="M10.6772 23.9457C11.0736 23.588 11.0015 23.3734 10.9655 23.2303C11.0375 23.4449 11.2177 23.4807 11.3978 23.2303C11.3978 23.4449 11.1817 23.6596 10.6772 23.9457Z" fill="#432918"/>
<path d="M12.0103 23.2659C12.0463 23.3375 12.0463 23.409 12.0103 23.5163C11.9743 23.6952 11.8302 23.8025 11.686 23.8383C11.8662 23.8741 12.0103 23.7667 12.0824 23.5879C12.0824 23.4806 12.0824 23.3732 12.0103 23.2659Z" fill="#432918"/>
<path d="M16.1176 28.3454C16.0095 28.5243 15.8654 28.6674 15.7212 28.8462C15.6131 28.9535 15.469 29.0609 15.2889 29.0966C15.0367 29.1682 15.0367 28.9535 14.7845 28.9178L13.8837 28.417L13.8477 28.3812C13.3433 28.2023 12.8749 27.9519 12.4065 27.6657C12.3345 27.5942 12.2264 27.5584 12.1543 27.4869C11.794 27.2365 11.4698 26.9145 11.1455 26.5568C10.9654 26.3422 10.8212 26.2706 10.9293 25.9129V25.8771L10.9654 25.7698L11.3256 25.0901H11.4337H13.3433V25.1259C13.4514 25.4836 14.3521 26.1275 15.2168 26.4137C15.2529 26.4137 15.2889 26.4495 15.3249 26.4495C15.469 26.521 15.6131 26.6284 15.6852 26.7357C15.9014 27.0218 16.0815 27.308 16.1536 27.5942C16.2977 27.8446 16.2617 28.1308 16.1176 28.3454Z" fill="#B17F4A"/>
<path d="M14.3522 31.5293L14.2081 31.3147C14.2081 31.2789 14.3522 31.3862 14.3522 31.3505C14.3522 31.3147 14.2441 31.2074 14.2802 31.1358C14.3883 30.8854 14.6765 30.5992 14.9287 30.2773C14.7846 30.2057 14.6405 30.2057 14.4603 30.2773C14.2081 30.5635 14.028 30.8854 13.8118 31.2789C13.7037 31.3147 13.5596 31.422 13.5236 31.4578C13.5596 31.5651 13.5956 31.6366 13.6677 31.7439C13.7037 31.8155 13.7758 31.7439 13.8118 31.8155L14.028 31.6366L14.2441 31.6724L14.1361 31.4935L14.3522 31.5293Z" fill="#B17F4A"/>
<path d="M14.064 31.8154H13.2714C13.3795 31.6723 13.4155 31.565 13.5596 31.4219L14.064 31.6008V31.8154Z" fill="#432918"/>
<path d="M11.1816 26.2349C11.1816 26.2707 11.1816 26.2707 11.1816 26.3065C11.1816 26.378 11.1455 26.4496 11.0735 26.4496C11.1095 26.4853 11.1455 26.5211 11.1816 26.5569C11.5058 26.9146 11.8661 27.2365 12.1904 27.487C12.2625 27.5585 12.3705 27.5943 12.4426 27.6658C12.911 27.952 13.3794 28.2382 13.8838 28.417L14.1 28.5243L14.136 28.0235C12.875 27.7731 11.9742 27.2723 11.1816 26.2349Z" fill="#432918"/>
<path d="M11.1816 28.2383L11.3618 28.9896C11.2177 28.9538 11.0736 28.918 10.9294 28.8465L11.0015 28.2741L11.1816 28.2383Z" fill="#432918"/>
<path d="M11.9742 22.8368C12.4426 23.3376 12.8029 24.5896 12.5147 25.7343C13.0912 24.3035 12.5147 23.3018 11.9742 22.8368Z" fill="#432918"/>
<path d="M11.9022 25.5912L11.7581 25.6985C12.2264 25.1619 12.3706 24.1961 12.2985 23.9457C12.4066 24.1245 12.4426 24.3392 12.4426 24.5896C12.4426 24.9473 12.2264 25.3408 11.9022 25.5912Z" fill="#432918"/>
<path d="M11.3617 25.1263C11.4698 24.7328 11.4338 24.3035 11.3978 23.91C11.4338 23.91 11.4338 23.9458 11.4698 23.9458C11.6139 23.9816 11.7581 23.9458 11.8662 23.8743C11.722 24.1962 11.65 24.697 11.5059 25.1263C11.5059 25.1621 11.4698 25.1978 11.4698 25.2336C11.3257 25.5198 11.1816 25.6986 11.0375 25.806L11.3617 25.1263Z" fill="#432918"/>
<path d="M11.5419 26.9146C11.2897 26.9862 11.0375 26.8431 10.9654 26.5927C10.8933 26.3423 11.0014 26.0919 11.2536 26.0203C11.5058 25.9488 11.758 26.0919 11.8301 26.3423C11.9022 26.5569 11.758 26.8431 11.5419 26.9146Z" fill="#B17F4A"/>
<path d="M9.77649 26.4854L9.84855 26.0919L11.3258 26.1634L11.1456 26.7715L9.77649 26.4854Z" fill="#B17F4A"/>
<path d="M10.1007 26.2351C10.1368 26.3424 9.99266 26.4855 9.84854 26.4855C9.70442 26.4855 9.56031 26.4139 9.52428 26.3066C9.48825 26.1993 9.63236 26.0562 9.77648 26.0562C9.9206 26.0562 10.0647 26.1278 10.1007 26.2351Z" fill="#B17F4A"/>
<path d="M8.76755 26.7715C8.83961 26.843 8.80358 26.9861 8.69549 27.0934C8.58741 27.2007 8.44329 27.2007 8.37123 27.0934C8.29917 26.9861 8.3352 26.8788 8.44329 26.7715C8.55138 26.6999 8.69549 26.6641 8.76755 26.7715Z" fill="#B17F4A"/>
<path d="M8.65962 26.9862L8.5155 26.7358L9.63242 26.1277L9.77653 26.4496L8.65962 26.9862Z" fill="#B17F4A"/>
<path d="M8.80362 27.3796L8.047 27.5585C8.08303 27.4154 8.11906 27.2723 8.19111 27.165C8.22714 27.0935 8.2992 27.0219 8.33523 26.9504L8.76759 26.9861L8.80362 27.2366V27.3796Z" fill="#B17F4A"/>
<path d="M8.87562 26.8071L8.62341 26.9144C8.62341 26.9144 8.69547 27.0218 8.80356 27.0575C8.83959 27.0933 8.87562 27.0933 8.91165 27.0933C8.94768 27.0933 8.94768 27.0933 8.94768 27.0933C8.94768 27.0933 8.94768 27.0933 8.91165 27.0575C8.87562 27.0218 8.87562 26.986 8.87562 26.9502C8.83959 26.8429 8.87562 26.8071 8.87562 26.8071Z" fill="#B17F4A"/>
<path d="M8.76757 26.8431L8.55139 27.0219L8.87566 27.165L8.76757 26.8431Z" fill="#B17F4A"/>
<path d="M9.01991 26.7357L8.80373 26.5927C8.80373 26.5927 8.80373 26.6284 8.7677 26.6642C8.7677 26.7 8.7677 26.7715 8.7677 26.8073C8.7677 26.8431 8.80373 26.8788 8.83976 26.9146C8.87579 26.9504 8.87579 26.9504 8.87579 26.9504V26.9146C8.87579 26.8788 8.87579 26.8431 8.91182 26.8073C8.94785 26.8073 8.94785 26.7715 9.01991 26.7357Z" fill="#B17F4A"/>
<path d="M8.80362 27.3796L8.047 27.5585C8.08303 27.4154 8.11906 27.2723 8.19111 27.165L8.80362 27.2365V27.3796Z" fill="#432918"/>
<path d="M11.0735 26.3782C11.0735 26.3424 11.0735 26.3424 11.0735 26.3066C11.0735 26.2708 11.1095 26.1993 11.1455 26.1278C11.2176 26.092 11.2536 26.0562 11.3257 26.0562C11.3617 26.0562 11.3617 26.0562 11.3617 26.0562C11.3617 26.0562 11.3617 26.0562 11.3257 26.0562H11.2897C11.2536 26.0562 11.2176 26.092 11.1455 26.1278C11.1095 26.1635 11.0735 26.1993 11.0735 26.2351C11.0735 26.3424 11.0735 26.3782 11.0735 26.3782Z" fill="#432918"/>
<path d="M11.6499 26.7715C11.6139 26.7715 11.6499 26.7715 11.6499 26.7715C11.6139 26.8072 11.6139 26.843 11.5779 26.843C11.5058 26.8788 11.4337 26.9145 11.3257 26.8788C11.2176 26.843 11.1455 26.7357 11.1455 26.6641C11.1455 26.6284 11.1455 26.5926 11.1455 26.5926V26.5568C11.1455 26.5568 11.1455 26.5568 11.1455 26.5926C11.1455 26.5926 11.1815 26.6284 11.1815 26.6641C11.2176 26.6999 11.2896 26.7715 11.3617 26.7715C11.4337 26.8072 11.5058 26.8072 11.5779 26.7715C11.5779 26.7715 11.5779 26.7715 11.6499 26.7715C11.6499 26.7715 11.6139 26.7715 11.6499 26.7715Z" fill="#432918"/>
<path d="M9.59631 26.2706C9.59631 26.2706 9.59631 26.2348 9.63234 26.2348C9.63234 26.199 9.66837 26.1633 9.74043 26.1633C9.77646 26.1633 9.84852 26.1633 9.88455 26.1633C9.92058 26.1633 9.92058 26.199 9.92058 26.199H9.88455C9.84852 26.199 9.81249 26.199 9.77646 26.2348C9.74043 26.2348 9.7044 26.2706 9.66837 26.2706C9.59631 26.2706 9.59631 26.2706 9.59631 26.2706Z" fill="#432918"/>
<path d="M10.9655 26.6285C10.9655 26.6285 10.7133 26.6285 10.4251 26.557C10.1368 26.4854 9.92065 26.3781 9.92065 26.3781C9.92065 26.3781 10.1729 26.3781 10.4611 26.4497C10.7493 26.5212 10.9655 26.6285 10.9655 26.6285Z" fill="#432918"/>
<path d="M8.69556 26.9861C8.69556 26.9861 8.69556 26.9861 8.69556 26.9503C8.69556 26.9503 8.69556 26.9146 8.73159 26.9146C8.73159 26.9146 8.76762 26.8788 8.76762 26.843C8.83967 26.7715 8.94776 26.6642 9.05585 26.6284C9.19997 26.5568 9.30806 26.5211 9.41615 26.4853C9.45217 26.4853 9.4882 26.4495 9.52423 26.4495C9.56026 26.4495 9.56026 26.4495 9.56026 26.4495C9.56026 26.4495 9.56026 26.4495 9.52423 26.4853C9.4882 26.4853 9.4882 26.5211 9.41615 26.5568C9.34409 26.5926 9.19997 26.6642 9.09188 26.6999C8.94776 26.7715 8.83967 26.8072 8.80365 26.8788L8.76762 26.9146C8.73159 26.9503 8.73159 26.9503 8.69556 26.9861Z" fill="#432918"/>
<path d="M8.40735 27.0576C8.40735 27.0576 8.40735 27.0218 8.40735 26.9861C8.40735 26.9503 8.40735 26.8787 8.44338 26.843C8.47941 26.8072 8.55147 26.7714 8.5875 26.7714C8.62353 26.7714 8.65955 26.7714 8.65955 26.7714C8.65955 26.7714 8.62353 26.7714 8.62353 26.8072C8.5875 26.843 8.55147 26.843 8.51544 26.9145C8.47941 26.9503 8.47941 26.9861 8.44338 27.0218C8.40735 27.0218 8.40735 27.0576 8.40735 27.0576Z" fill="#432918"/>
<path d="M15.9375 27.5944C15.9375 27.5944 15.9375 27.5944 15.9375 27.6302C15.9375 27.666 15.9736 27.7017 15.9736 27.7375C16.0096 27.8448 16.0096 27.9879 15.9736 28.131C15.9015 28.2741 15.8295 28.3814 15.7574 28.4172C15.6853 28.453 15.6493 28.453 15.6493 28.453C15.6133 28.453 15.6133 28.453 15.6133 28.453C15.6133 28.453 15.6133 28.453 15.6493 28.4172C15.6493 28.3814 15.6853 28.3814 15.7214 28.3456C15.7934 28.2741 15.8295 28.1668 15.9015 28.0595C15.9375 27.9521 15.9736 27.8091 15.9736 27.7375C15.9736 27.7017 15.9736 27.666 15.9736 27.6302C15.9375 27.5944 15.9375 27.5944 15.9375 27.5944Z" fill="#432918"/>
<path d="M14.9287 30.2773H14.4603C14.1 29.4187 13.8838 28.8464 14.136 28.0594L15.361 28.8106C15.1809 29.0252 14.8926 29.7049 14.9287 30.2773Z" fill="#B17F4A"/>
<path d="M14.4964 29.9553C14.4964 29.9553 14.4964 29.9553 14.4604 29.9196C14.4243 29.8838 14.4243 29.848 14.3883 29.8122C14.3162 29.7049 14.2442 29.5618 14.2081 29.383C14.1721 29.2041 14.1721 29.0253 14.1721 28.9179C14.1721 28.8464 14.1721 28.8106 14.1721 28.7748C14.1721 28.7391 14.1721 28.7391 14.1721 28.7391V28.7748C14.1721 28.8106 14.1721 28.8464 14.2081 28.9179C14.2442 29.0253 14.2442 29.2041 14.3162 29.383C14.3523 29.5618 14.3883 29.7049 14.4243 29.8122C14.4243 29.8838 14.4604 29.9196 14.4604 29.9553C14.4964 29.9196 14.4964 29.9553 14.4964 29.9553Z" fill="#432918"/>
<path d="M14.7845 29.9554C14.7845 29.9554 14.7845 29.9912 14.7845 30.0269C14.7845 30.0627 14.8205 30.0985 14.8565 30.17C14.8565 30.2058 14.8565 30.2416 14.8565 30.2773C14.8565 30.3131 14.8205 30.3131 14.7845 30.3489C14.7484 30.3846 14.7124 30.3489 14.7124 30.3489C14.7124 30.3489 14.7484 30.3489 14.7484 30.3131C14.7845 30.2773 14.7845 30.2416 14.7845 30.2058C14.7845 30.17 14.7484 30.0985 14.7484 30.0627C14.7845 29.9554 14.7845 29.9554 14.7845 29.9554Z" fill="#432918"/>
<path d="M14.6764 30.4204C14.6764 30.4204 14.6764 30.4562 14.6764 30.4204C14.6404 30.492 14.6044 30.492 14.5684 30.5277C14.4963 30.5993 14.4242 30.7066 14.3522 30.8139C14.2801 30.9212 14.2081 31.0643 14.172 31.1359C14.136 31.1716 14.136 31.2074 14.136 31.2432C14.136 31.2789 14.1 31.2789 14.1 31.2789C14.1 31.2789 14.1 31.2789 14.1 31.2432C14.1 31.2074 14.1 31.1716 14.1 31.1359C14.136 31.0285 14.172 30.9212 14.2441 30.7781C14.3162 30.635 14.4242 30.5635 14.5323 30.492C14.5684 30.4562 14.6044 30.4562 14.6404 30.4204C14.6764 30.4204 14.6764 30.4204 14.6764 30.4204Z" fill="#432918"/>
<path d="M16.0095 28.1669C16.0095 28.1669 16.0095 28.2027 16.0095 28.2385C16.0095 28.2742 16.0095 28.2742 15.9734 28.31C15.9734 28.3458 15.9374 28.3816 15.9374 28.4173C15.9014 28.4889 15.8653 28.5604 15.7933 28.632C15.7212 28.7035 15.6492 28.7751 15.5411 28.8466C15.433 28.8824 15.3249 28.9181 15.2168 28.9539C15.1087 28.9539 15.0367 28.9539 14.9646 28.9539C14.9286 28.9539 14.8926 28.9539 14.8565 28.9181C14.8205 28.9181 14.8205 28.9181 14.7845 28.8824C14.7484 28.8824 14.7124 28.8466 14.7124 28.8466C14.7124 28.8466 14.7484 28.8466 14.7845 28.8466C14.8205 28.8466 14.8205 28.8466 14.8565 28.8466C14.8926 28.8466 14.9286 28.8466 14.9646 28.8466C15.0367 28.8466 15.1087 28.8466 15.2168 28.8108C15.3249 28.7751 15.397 28.7751 15.5051 28.7035C15.6131 28.6677 15.6852 28.5962 15.7573 28.5247C15.8293 28.4531 15.8653 28.3816 15.9374 28.3458C15.9734 28.31 15.9734 28.2742 15.9734 28.2742C15.9734 28.2385 16.0095 28.2385 16.0095 28.2027C16.0095 28.1669 16.0095 28.1669 16.0095 28.1669Z" fill="#432918"/>
</svg>
