<svg width="30" height="42" viewBox="0 0 30 42" fill="none" xmlns="http://www.w3.org/2000/svg">
<g clip-path="url(#clip0_1_6826)">
<path d="M17.4934 8.15167H17.9684V28.5698H17.4934V8.15167Z" fill="#4D3C33"/>
<path d="M24.0238 13.2255C24.3008 13.1846 24.7362 13.2664 24.9736 13.1846C25.2507 13.1028 25.2507 13.3074 25.2507 13.3074C25.2902 13.471 25.0132 13.5529 24.934 13.5938C24.7362 13.6756 24.1029 13.6756 23.628 13.5938C23.7863 13.4301 23.8654 13.3892 24.0238 13.2255Z" fill="#EBB677"/>
<path d="M28.2587 4.24518L28.7015 4.42249L20.0266 27.5833L19.5837 27.406L28.2587 4.24518Z" fill="#CBBBA0"/>
<path d="M28.1794 3.44611C28.1794 3.56886 28.1794 3.6507 28.1794 3.77345C28.1398 3.85529 28.1003 3.93713 28.0607 4.05988C28.0211 4.14172 28.0211 4.22355 28.0607 4.30539C28.0607 4.34631 28.1003 4.34631 28.1003 4.38723C28.1003 4.38723 28.1003 4.42814 28.1398 4.42814C28.1398 4.46906 28.1794 4.50998 28.219 4.50998C28.2982 4.5509 28.3773 4.59182 28.4565 4.59182C28.496 4.59182 28.5356 4.59182 28.6148 4.59182C28.6544 4.59182 28.6544 4.59182 28.6939 4.59182C28.6939 4.5509 28.7731 4.50998 28.8127 4.50998C28.9314 4.42814 29.0501 4.30539 29.1293 4.18263C29.3668 3.85529 29.5646 3.44611 29.6438 2.99601C29.6834 2.87325 29.6834 2.70958 29.723 2.54591C29.723 2.50499 29.723 2.46407 29.7625 2.42315C29.7625 2.3004 29.8021 2.13673 29.8417 2.01397C29.8417 1.76846 29.8813 1.48204 29.9208 1.23653C29.9208 1.11377 29.9604 0.991018 29.9604 0.868263C29.9604 0.786427 30 0.745509 30 0.663673C30 0.581836 30 0.5 29.9604 0.5C29.723 0.827345 29.5251 1.15469 29.2876 1.44112C29.248 1.48204 29.2084 1.56387 29.1689 1.60479C29.1293 1.64571 29.1293 1.68663 29.0897 1.72755C29.0501 1.76846 29.0106 1.8503 28.971 1.89122C28.971 1.89122 28.9314 1.93214 28.9314 1.97305C28.8918 2.01397 28.8522 2.05489 28.8127 2.13673C28.7731 2.21856 28.6939 2.34132 28.6544 2.42315C28.5752 2.58683 28.5356 2.7505 28.4565 2.91417C28.3377 3.07784 28.219 3.24152 28.1794 3.44611Z" fill="#DADADA"/>
<path d="M28.4565 4.59184C28.4961 4.59184 28.5356 4.59184 28.6148 4.59184C28.6544 4.59184 28.6544 4.59184 28.694 4.59184C28.694 4.55092 28.7731 4.51 28.8127 4.51C28.9314 4.42817 29.0502 4.30541 29.1293 4.18266C29.3668 3.85531 29.5647 3.44613 29.6438 2.99603C29.6834 2.87328 29.6834 2.7096 29.723 2.54593C29.723 2.50501 29.723 2.46409 29.7626 2.42318C29.7626 2.30042 29.8021 2.13675 29.8417 2.01399C29.8417 1.76849 29.8813 1.48206 29.9209 1.23655C29.9209 1.1138 29.9604 0.991041 29.9604 0.868286C29.9604 0.909204 29.9209 0.950122 29.9209 1.03196C29.8813 1.1138 29.8417 1.23655 29.8021 1.31839C29.8021 1.3593 29.7626 1.40022 29.7626 1.40022C29.723 1.44114 29.723 1.44114 29.6834 1.44114C29.6042 1.52298 29.6438 1.64573 29.6438 1.72757C29.6438 1.85032 29.6438 1.93216 29.6438 2.05491C29.6042 2.01399 29.5647 2.05491 29.5251 2.05491C29.4855 2.09583 29.4855 2.13675 29.4855 2.17767C29.4855 2.2595 29.4855 2.30042 29.4855 2.38226C29.4855 2.42318 29.4855 2.46409 29.5251 2.54593C29.5251 2.58685 29.5251 2.62777 29.5251 2.66869C29.5251 2.75052 29.5251 2.83236 29.5251 2.87328C29.4855 2.95511 29.3668 3.03695 29.3272 3.11878C29.2876 3.24154 29.2876 3.36429 29.2876 3.48705C29.2085 3.44613 29.0897 3.48705 29.0502 3.56888C29.0106 3.65072 29.0106 3.73256 28.971 3.81439C28.971 3.97807 28.9314 4.10082 28.8523 4.18266C28.8127 4.18266 28.8127 4.22358 28.7731 4.22358C28.7335 4.26449 28.6544 4.26449 28.6148 4.30541C28.5752 4.30541 28.5752 4.34633 28.5752 4.34633C28.5356 4.42817 28.4961 4.51 28.4565 4.59184Z" fill="#B2B2B2"/>
<path d="M29.4063 1.93211C29.4063 2.05486 29.3271 2.1367 29.2876 2.25945C29.248 2.38221 29.2876 2.50496 29.2876 2.66864C29.2876 2.83231 29.248 2.95506 29.2084 3.07782C29.1688 3.07782 29.1688 3.07782 29.1293 3.07782C29.1293 3.11873 29.0897 3.11873 29.0897 3.15965C29.0501 3.32333 28.8918 3.44608 28.8126 3.60975C28.7731 3.65067 28.7335 3.73251 28.7335 3.77343C28.6543 3.9371 28.496 4.05985 28.3377 4.18261C28.3773 4.10077 28.3773 4.01893 28.3773 3.9371C28.3773 3.89618 28.3773 3.85526 28.3773 3.81434C28.4168 3.73251 28.5752 3.69159 28.6147 3.60975C28.6543 3.56883 28.6543 3.487 28.6147 3.40516C28.5752 3.36424 28.5356 3.28241 28.496 3.24149L28.4564 3.20057C28.4564 3.15965 28.496 3.15965 28.5356 3.15965C28.6147 3.15965 28.6939 3.07782 28.7731 3.0369C28.8126 3.0369 28.8126 2.99598 28.8126 2.95506C28.8126 2.91414 28.7731 2.87323 28.7731 2.83231C28.7731 2.75047 28.9314 2.75047 28.9709 2.66864C28.9709 2.62772 28.9709 2.5868 28.9709 2.54588C28.9314 2.46404 28.9314 2.38221 28.9709 2.34129C29.0105 2.30037 29.0897 2.30037 29.1293 2.25945C29.2084 2.21854 29.2084 2.09578 29.248 2.01394C29.248 1.93211 29.248 1.85027 29.2876 1.76844C29.2876 1.64568 29.4063 1.52293 29.4855 1.40017C29.5646 1.31834 29.6042 1.2365 29.6438 1.15466C29.6833 1.2365 29.6438 1.31834 29.6042 1.40017C29.525 1.48201 29.4855 1.56384 29.4459 1.64568C29.4063 1.76844 29.4459 1.85027 29.4063 1.93211Z" fill="#B2B2B2"/>
<path d="M28.1794 3.44613C28.1794 3.56888 28.1794 3.65072 28.1794 3.77347C28.1399 3.85531 28.1003 3.93714 28.0607 4.0599C28.0211 4.14173 28.0211 4.22357 28.0607 4.30541C28.0607 4.34633 28.1003 4.34633 28.1003 4.38724V4.34633C28.1003 4.30541 28.1399 4.26449 28.1399 4.18265C28.1399 4.10082 28.1399 4.0599 28.1399 4.01898C28.1399 3.93714 28.219 3.85531 28.2586 3.77347C28.2586 3.73255 28.2586 3.65072 28.2586 3.6098C28.2586 3.48704 28.2982 3.36429 28.3773 3.24154C28.4169 3.11878 28.4961 2.99603 28.5752 2.91419C28.6148 2.87327 28.6544 2.83235 28.6939 2.75052C28.7335 2.66868 28.7335 2.54593 28.7731 2.42317C28.8127 2.34134 28.8523 2.30042 28.8918 2.21858C29.0106 2.05491 29.0897 1.89124 29.0897 1.68665C29.0501 1.72756 29.0106 1.8094 28.971 1.85032C28.971 1.85032 28.9314 1.89124 28.9314 1.93215C28.8918 2.01399 28.8523 2.05491 28.8127 2.13675C28.7731 2.21858 28.6939 2.34134 28.6544 2.42317C28.5752 2.58684 28.5356 2.75052 28.4565 2.91419C28.3377 3.07786 28.219 3.24154 28.1794 3.44613Z" fill="#B2B2B2"/>
<path d="M28.0607 4.5918L28.6543 4.71455C28.6939 4.71455 28.7731 4.67363 28.7731 4.63272C28.7731 4.5918 28.7335 4.50996 28.6939 4.50996L28.1002 4.38721C28.0607 4.38721 27.9815 4.42813 27.9815 4.46904C27.9815 4.50996 28.0211 4.5918 28.0607 4.5918Z" fill="#634E42"/>
<path d="M27.9816 4.75547L28.5752 4.87822C28.6148 4.87822 28.694 4.83731 28.694 4.79639C28.694 4.75547 28.6544 4.67363 28.6148 4.67363L28.0211 4.5918C27.9816 4.5918 27.9024 4.63271 27.9024 4.67363C27.9024 4.71455 27.942 4.75547 27.9816 4.75547Z" fill="#7B6A58"/>
<path d="M27.9023 4.91919C27.9419 4.96011 27.9419 4.96011 27.9023 4.91919L28.496 5.04195C28.5356 5.04195 28.6147 5.00103 28.6147 4.96011C28.6147 4.91919 28.5752 4.83735 28.5356 4.83735L27.9419 4.7146C27.9023 4.7146 27.8232 4.75552 27.8232 4.79644C27.8628 4.87827 27.8628 4.91919 27.9023 4.91919Z" fill="#634E42"/>
<path d="M27.8628 5.12378L28.4565 5.24653C28.496 5.24653 28.5752 5.20562 28.5752 5.1647C28.5752 5.12378 28.5356 5.04194 28.496 5.04194L27.9024 4.91919C27.8628 4.91919 27.7836 4.96011 27.7836 5.00103C27.7836 5.04194 27.8232 5.08286 27.8628 5.12378Z" fill="#7B6A58"/>
<path d="M27.7837 5.28742L28.3774 5.41017C28.4169 5.41017 28.4961 5.36925 28.4961 5.32833C28.4961 5.28742 28.4565 5.20558 28.4169 5.20558L27.8233 5.08282C27.7837 5.08282 27.7045 5.12374 27.7045 5.16466C27.7045 5.20558 27.7441 5.28742 27.7837 5.28742Z" fill="#634E42"/>
<path d="M27.7045 5.45111C27.744 5.45111 27.744 5.45111 27.7045 5.45111L28.2981 5.57387C28.3377 5.57387 28.4169 5.53295 28.4169 5.49203C28.4169 5.45111 28.3773 5.36928 28.3377 5.36928L27.744 5.24652C27.7045 5.24652 27.6253 5.28744 27.6253 5.32836C27.6649 5.41019 27.6649 5.45111 27.7045 5.45111Z" fill="#7B6A58"/>
<path d="M27.6649 5.61475C27.6649 5.61475 27.6649 5.65567 27.6649 5.61475L28.2586 5.7375C28.2982 5.7375 28.3773 5.69658 28.3773 5.65567C28.3773 5.61475 28.3377 5.53291 28.2982 5.53291L27.7045 5.41016C27.6649 5.41016 27.5858 5.45107 27.5858 5.49199C27.5858 5.57383 27.6253 5.61475 27.6649 5.61475Z" fill="#634E42"/>
<path d="M27.5857 5.81934L28.1794 5.94209C28.2189 5.94209 28.2981 5.90117 28.2981 5.86026C28.2981 5.81934 28.2585 5.7375 28.2189 5.7375L27.6253 5.61475C27.5857 5.61475 27.5065 5.65566 27.5065 5.69658C27.5461 5.7375 27.5461 5.77842 27.5857 5.81934Z" fill="#7B6A58"/>
<path d="M28.1003 4.38723C28.1003 4.42815 28.1003 4.42815 28.1399 4.42815C28.1399 4.46907 28.1794 4.50999 28.219 4.50999L28.6939 3.89621L28.9314 3.56887L29.5647 2.66867L29.723 2.42316C29.723 2.3004 29.7625 2.13673 29.8021 2.01398L29.5251 2.42316L29.2876 2.7505L28.971 3.2006L28.7335 3.52795L28.3773 4.01897L28.1003 4.38723Z" fill="#634E42"/>
<path d="M28.9314 1.93214L28.8918 2.21857L28.8126 2.79142V2.91418V3.03693L28.7335 3.48703L28.6939 3.8553V3.89621L28.6543 4.34631L28.6147 4.59182C28.6543 4.59182 28.6543 4.59182 28.6939 4.59182C28.6939 4.5509 28.773 4.50999 28.8126 4.50999L28.8522 4.18264L28.9314 3.56887V3.4052L28.9709 3.15969L29.0897 2.30041L29.1688 1.6048C29.1292 1.64572 29.1292 1.68663 29.0897 1.72755C29.0501 1.76847 29.0105 1.85031 28.9709 1.89122L28.9314 1.93214Z" fill="#634E42"/>
<path d="M17.6121 5.98303L18.3641 4.26447C18.9181 4.75548 20.1055 5.45109 20.2638 5.53293L18.9181 7.66067C18.9181 7.66067 17.058 6.10578 17.6121 5.98303Z" fill="#F9C484"/>
<path d="M12.2295 13.9212C12.4274 12.98 13.219 11.3842 13.4169 11.016C14.8021 8.47904 16.3456 6.06487 17.8892 5.77844L19.1161 7.33333C19.1161 7.33333 19.1161 9.9521 18.2454 11.1796C18.2058 11.2206 15.8311 14.1257 14.4063 15.3124L12.2691 14.6168C12.2691 14.5349 12.2691 14.4531 12.2691 14.3713C12.2295 14.4122 12.2295 13.9212 12.2295 13.9212Z" fill="#F9C484"/>
<path d="M17.8892 5.36926C17.7705 5.001 17.7309 4.5509 17.7309 4.14172C17.8892 2.25948 19.1557 2.46408 19.8285 2.50499C20.6201 2.58683 21.095 3.07785 21.4116 4.42815C21.372 4.5509 21.1742 4.67366 21.1742 4.67366L21.372 5.24651C21.4116 5.36926 21.3325 5.49202 21.2137 5.49202L21.095 5.57386C21.095 5.69661 21.2137 6.02396 21.2137 6.02396C21.1742 6.3513 20.818 7.08783 20.4222 7.04691L20.0264 7.00599C19.5515 6.92415 18.8786 6.26946 18.9578 5.4511C18.7203 5.36926 17.9683 5.65569 17.8892 5.36926Z" fill="#F9C484"/>
<path d="M18.5224 4.51C18.5224 4.83735 18.7599 5.20561 18.9577 5.20561C19.1556 5.20561 19.1556 4.9601 19.1556 4.63276C19.1556 4.42817 19.2348 4.14174 19.0369 4.0599C18.839 4.01899 18.562 4.0599 18.5224 4.51Z" fill="#F9C484"/>
<path d="M12.2296 14.6168C12.2692 14.7804 12.3087 14.9441 12.4275 15.1487L12.6649 15.7215C12.6649 15.7215 14.6438 20.2635 16.3061 20.5908H16.3457C17.0185 20.2635 17.3351 19.4451 17.0185 18.7495L15.8312 16.0489L14.9209 14.003C14.8021 13.6347 14.6043 13.3892 14.3668 13.2255C14.0502 12.98 13.694 12.8982 13.3378 12.98C12.6254 13.0619 12.0317 13.6756 12.2296 14.6168Z" fill="#F9C484"/>
<path d="M13.5356 26.2375C14.9604 22.3912 13.8126 22.6776 14.6833 20.1816C15.0395 19.1178 15.554 18.2994 16.306 18.3812L16.3456 18.1766C17.0184 18.4631 17.335 19.3223 17.058 20.018L14.8812 26.2375H13.5356Z" fill="#F9C484"/>
<path d="M14.9209 26.3194C14.6834 26.033 14.2877 26.033 13.9315 26.033C13.8127 26.033 13.694 26.033 13.6148 26.1148C13.5357 26.1557 13.4961 26.2785 13.4565 26.3603C13.3774 26.524 13.2191 26.6877 13.1399 26.8922C13.0607 27.0968 13.0212 27.3014 13.1399 27.4651C13.2586 27.6697 13.5357 27.6697 13.7336 27.6697C13.9315 27.6288 14.1689 27.5469 14.3668 27.506C14.9605 27.4651 16.1478 27.8743 16.5832 27.5879C16.8206 27.7515 17.1373 27.6288 17.1768 27.6288C17.256 27.5879 17.256 27.4242 17.1768 27.3423C17.0977 27.2605 16.979 27.2605 16.8602 27.2196C16.6227 27.1787 16.3457 27.0968 16.1082 27.015C15.9499 26.9741 15.0001 26.4012 14.9209 26.3194Z" fill="#F9C484"/>
<path d="M12.6253 13.7575C12.5461 13.9212 12.467 14.0848 12.4274 14.2894L12.2691 14.9032C12.2691 14.9032 10.8443 19.6497 11.9129 21.0409H11.9525C12.6649 21.2864 13.4169 20.8363 13.6543 20.0998L14.4459 17.2765L15.0791 15.1078C15.1979 14.7395 15.2374 14.4122 15.1583 14.1258C15.0791 13.7166 14.8417 13.4302 14.525 13.2256C13.9709 12.8164 13.1002 12.8982 12.6253 13.7575Z" fill="#F9C484"/>
<path d="M6.17419 23.3323C9.69661 21.4501 8.66759 20.8772 10.8839 19.5678C11.8338 18.995 12.7441 18.7495 13.2586 19.3223L13.4169 19.1996C13.7336 19.8952 13.4565 20.7135 12.7837 21.0818L7.16363 24.2734L6.17419 23.3323Z" fill="#F9C484"/>
<path d="M7.16355 24.3553C7.16355 23.987 6.88651 23.7006 6.60946 23.496C6.5303 23.4142 6.45115 23.3323 6.33242 23.3323C6.25326 23.3323 6.1741 23.3733 6.05537 23.4142C5.85748 23.496 5.65959 23.496 5.50128 23.5778C5.30339 23.6597 5.14508 23.8234 5.14508 24.0279C5.1055 24.2325 5.30339 24.4371 5.4617 24.5599C5.65959 24.6826 5.85748 24.7645 6.05537 24.8872C6.5303 25.2555 7.12397 26.4012 7.67806 26.483C7.75722 26.7695 8.07384 26.8922 8.07384 26.9331C8.19257 26.9741 8.27173 26.8513 8.27173 26.7285C8.27173 26.6058 8.19257 26.524 8.11342 26.4421C7.95511 26.2375 7.79679 25.992 7.67806 25.7874C7.55933 25.5419 7.16355 24.478 7.16355 24.3553Z" fill="#F9C484"/>
<path d="M13.1398 7.94712L10.0527 10.9751L9.49866 10.2385L11.8338 6.63774C12.19 6.26948 12.744 6.26948 13.1002 6.59682C13.4564 7.006 13.4564 7.57886 13.1398 7.94712Z" fill="#F9C484"/>
<path d="M17.3746 5.98305L12.3087 6.39223L12.3878 8.19263L17.2955 8.06988C17.81 8.06988 18.4037 7.70162 18.3641 7.04692C18.3641 7.08784 18.3641 5.90122 17.3746 5.98305Z" fill="#F9C484"/>
<path d="M10.4089 11.016C10.3694 11.3024 10.1319 11.6707 10.1319 11.9571C10.1319 12.2435 9.934 12.2026 9.934 12.2026C9.77569 12.1617 9.77569 11.9162 9.77569 11.7934C9.77569 11.5479 9.97358 10.9751 10.211 10.525C10.2902 10.7296 10.3298 10.8114 10.4089 11.016Z" fill="#EBB677"/>
<path d="M9.73604 11.8343C9.85477 11.9162 9.85477 12.0389 9.8152 12.1208L9.61731 12.4072C9.53815 12.489 9.41942 12.5299 9.34026 12.489C9.26111 12.4072 9.22153 12.2844 9.26111 12.2026L9.459 11.9162C9.49857 11.7934 9.61731 11.7525 9.73604 11.8343Z" fill="#EBB677"/>
<path d="M9.37993 11.6297C9.45908 11.7116 9.49866 11.8343 9.45908 11.9162L9.26119 12.2026C9.18204 12.2844 9.06331 12.3253 8.98415 12.2844C8.90499 12.2026 8.86542 12.0798 8.90499 11.998L9.10288 11.7116C9.14246 11.5888 9.26119 11.5479 9.37993 11.6297Z" fill="#EBB677"/>
<path d="M9.02364 11.3433C9.14237 11.4251 9.14237 11.5479 9.10279 11.6297L8.90491 11.9162C8.82575 11.998 8.70702 12.0389 8.62786 11.998C8.54871 11.9162 8.50913 11.7934 8.5487 11.7116L8.74659 11.4251C8.82575 11.3024 8.94448 11.2615 9.02364 11.3433Z" fill="#EBB677"/>
<path d="M8.78617 11.016C8.86533 11.0569 8.90491 11.1797 8.82575 11.3024L8.66744 11.5888C8.62786 11.6707 8.50913 11.7116 8.39039 11.6298C8.31124 11.5888 8.27166 11.4661 8.35081 11.3433L8.50913 11.0569C8.58828 10.9751 8.70702 10.9341 8.78617 11.016Z" fill="#EBB677"/>
<path d="M9.73607 12.2435L9.97354 11.8753L10.2506 11.4252C10.4485 11.1387 10.5672 10.6886 10.2902 10.484L10.0923 10.2795C9.81522 10.0749 9.34029 10.0749 9.06324 10.4022L8.66746 10.9341L8.50915 11.1797C8.46958 11.2615 8.46957 11.3842 8.54873 11.4252C8.62789 11.4661 8.74662 11.4661 8.7862 11.3842L8.74662 11.4252C8.66746 11.507 8.70704 11.6707 8.82578 11.7116C8.90493 11.7934 9.06324 11.7525 9.10282 11.6298L9.06324 11.6707C8.98409 11.7525 9.02367 11.9162 9.1424 11.9571C9.22155 12.0389 9.37987 11.998 9.41944 11.8753C9.34029 11.9571 9.37987 12.1208 9.4986 12.1617C9.53818 12.3663 9.65691 12.3254 9.73607 12.2435Z" fill="#F9C484"/>
<path d="M16.3457 6.1058C16.5831 5.77845 16.9393 5.49202 17.2955 5.32835C17.1372 5.32835 16.9789 5.32835 16.8602 5.32835C16.9393 4.96009 17.1372 4.59182 17.4143 4.3054C17.2955 4.3054 17.2164 4.34631 17.0977 4.34631C17.2164 3.65071 17.5726 3.03693 18.0871 2.54592C17.8892 2.58683 17.6913 2.62775 17.533 2.70959C17.8496 2.34133 18.3246 2.13673 18.7599 2.17765C18.9182 1.80939 19.2349 1.48204 19.6306 1.40021C19.4327 1.48204 19.2744 1.68663 19.1953 1.93214C19.5119 1.80939 19.7889 1.68663 20.1056 1.52296C19.9868 1.64572 19.8285 1.76847 19.7098 1.89123C20.2639 1.68663 20.8971 1.64572 21.4512 1.76847C21.095 1.85031 20.7784 2.01398 20.5013 2.21857C21.095 2.54592 21.6095 2.9551 21.9261 3.48703C21.6491 3.4052 21.3721 3.28244 21.1346 3.20061C21.4116 3.36428 21.6491 3.60979 21.8074 3.89622C21.3721 3.69162 20.9367 3.56887 20.5013 3.48703C20.6201 3.60979 20.7388 3.77346 20.818 3.97805C20.6201 3.8553 20.4222 3.77346 20.1847 3.73254C20.2243 3.93713 20.2639 4.14172 20.3035 4.3054C20.1847 4.10081 20.0264 3.97805 19.8285 3.89622C19.9868 4.26448 20.0264 4.71458 20.0264 5.12376C19.9473 4.91917 19.8285 4.7555 19.7098 4.59182C19.6306 5.12376 19.4327 5.6557 19.1161 6.1058C19.0765 5.94212 19.0765 5.77845 19.037 5.61478C18.7599 5.77845 18.562 6.02396 18.3641 6.26947C18.3641 6.1058 18.3641 5.98304 18.3641 5.81937C17.9684 5.94212 17.5726 6.1058 17.1768 6.26947C17.3351 6.1058 17.4934 5.94212 17.6517 5.77845C17.1768 5.90121 16.781 5.98304 16.3457 6.1058Z" fill="#874E16"/>
<path d="M11.4776 17.3583C11.2797 17.6038 11.0818 17.8084 10.9235 18.0539C11.161 16.7036 11.3589 15.3533 11.5963 14.003C11.4776 14.2076 11.3589 14.4122 11.2401 14.6168C11.3589 13.7984 11.7151 12.9801 12.3087 12.4072C12.1504 12.4481 11.9921 12.4481 11.8734 12.489C12.19 12.1617 12.5066 11.7934 12.8232 11.4661C12.7045 11.4661 12.5462 11.4252 12.467 11.3024C12.9024 10.9751 13.2586 10.5659 13.5752 10.0749C13.4565 10.1158 13.2982 10.1158 13.1794 10.1567C13.4169 9.7066 13.694 9.29742 14.0106 8.92915C13.8918 8.92915 13.8127 8.92915 13.694 8.92915C14.1689 8.39722 14.4855 7.70161 14.9209 7.12875C15.475 6.43315 16.2269 5.94213 17.0185 5.73754C17.256 5.6557 17.533 5.61478 17.81 5.6557C18.4829 5.77846 18.9182 6.47406 19.2349 7.08784C19.5119 7.57885 19.7494 8.11079 19.7889 8.68364C19.7494 8.60181 19.7098 8.56089 19.6306 8.51997C19.6702 8.97007 19.6306 9.46109 19.5119 9.91119C19.4327 9.87027 19.3932 9.82935 19.3536 9.74752C19.1953 10.2385 18.9974 10.7705 18.8391 11.2615C18.7995 11.3842 18.6808 11.5888 18.562 11.5479C18.5224 11.5479 18.4433 11.507 18.4037 11.507C18.3246 11.507 18.285 11.5888 18.2454 11.6707C18.0475 12.1617 17.8892 12.7345 17.4143 12.9801C17.4143 12.9391 17.4538 12.8573 17.4538 12.8164C17.0976 13.2256 16.7414 13.5938 16.3457 13.9621C16.3852 13.9621 16.3852 13.8803 16.3457 13.8803C16.3061 13.8803 16.2665 13.8802 16.2269 13.9212C15.9895 14.0848 15.7124 14.3304 15.7124 14.6168C15.7124 14.7804 15.8312 14.9441 15.9499 15.0669C16.4644 15.7625 16.8602 16.5399 17.1372 17.3583C17.0581 17.2355 16.9789 17.1128 16.8602 17.0309C16.8602 17.3174 16.8602 17.6038 16.8998 17.8493C16.7414 17.6447 16.5436 17.481 16.3061 17.3583C16.504 17.8902 16.5831 18.4631 16.4644 18.995C16.1874 18.5858 15.8312 18.2585 15.4354 17.9721C15.5541 18.3403 15.5541 18.7495 15.475 19.1587C15.2771 18.9132 15.0792 18.7086 14.8813 18.4631C14.8417 18.7904 14.7626 19.1178 14.6438 19.4042C14.5647 19.0769 14.3668 18.7904 14.0897 18.6268C14.0502 18.7495 13.971 18.8313 13.8918 18.9132C13.8127 18.6677 13.7335 18.4631 13.6544 18.2176C13.4565 18.4631 13.3378 18.7086 13.219 18.995C13.2586 18.6268 13.1399 18.2176 12.9024 17.9311C12.7441 18.2176 12.5858 18.504 12.4275 18.7904C12.4275 18.5449 12.4275 18.2994 12.3483 18.0539C12.1504 18.1767 12.0317 18.3812 11.9525 18.5858C12.0317 18.2585 12.0317 17.9311 11.9525 17.6447C11.6755 17.8902 11.438 18.1357 11.2401 18.4222C11.3984 18.1357 11.4776 17.7266 11.4776 17.3583Z" fill="#683C11"/>
<path d="M20.343 11.5888L24.1425 13.5938L23.6675 14.3713L19.6306 13.3074C19.1952 13.1028 18.9973 12.5709 19.1952 12.0798C19.3535 11.5888 19.8681 11.3842 20.343 11.5888Z" fill="#F9C484"/>
<path d="M17.0976 8.1108L19.1556 12.9391L20.7783 12.2845L19.0369 7.53795C18.839 7.04693 18.3245 6.55591 17.7308 6.84234C17.81 6.76051 16.7414 7.16969 17.0976 8.1108Z" fill="#F9C484"/>
<path d="M25.0131 13.6347C25.0527 13.5119 25.1715 13.4301 25.2506 13.471L25.5672 13.5529C25.686 13.5938 25.7651 13.7165 25.7255 13.7984C25.686 13.9211 25.5672 14.003 25.4881 13.962L25.1715 13.8802C25.0527 13.8393 24.9736 13.7575 25.0131 13.6347Z" fill="#EBB677"/>
<path d="M24.934 14.0439C24.9736 13.9211 25.0924 13.8393 25.1715 13.8802L25.4881 13.962C25.6069 14.003 25.686 14.1257 25.6464 14.2076C25.6069 14.3303 25.4881 14.4121 25.409 14.3712L25.0924 14.2894C24.9736 14.2894 24.8945 14.1666 24.934 14.0439Z" fill="#EBB677"/>
<path d="M24.7757 14.4531C24.8153 14.3304 24.934 14.2485 25.0132 14.2895L25.3298 14.3713C25.4485 14.4122 25.5277 14.535 25.4881 14.6168C25.4485 14.7396 25.3298 14.8214 25.2507 14.7805L24.934 14.6986C24.8153 14.6986 24.7361 14.5759 24.7757 14.4531Z" fill="#EBB677"/>
<path d="M24.5382 14.8214C24.5778 14.6986 24.6569 14.6577 24.7757 14.6577L25.0923 14.7396C25.211 14.7805 25.2506 14.8623 25.2506 14.9851C25.211 15.1078 25.1319 15.1487 25.0131 15.1487L24.6965 15.0669C24.5778 15.026 24.5382 14.9441 24.5382 14.8214Z" fill="#EBB677"/>
<path d="M25.3694 13.5119L24.9736 13.3892L24.4987 13.2664C24.1821 13.1846 23.7071 13.2255 23.628 13.5529L23.5092 13.8393C23.4301 14.1666 23.5884 14.6167 23.9446 14.8213L24.5778 15.0259L24.8549 15.1078C24.934 15.1487 25.0528 15.0668 25.0924 14.985C25.1319 14.9032 25.0528 14.7804 24.9736 14.7395H25.0528C25.1715 14.7804 25.2902 14.6986 25.2902 14.5758C25.3298 14.4531 25.2507 14.3303 25.1319 14.3303H25.2111C25.3298 14.3712 25.4486 14.2894 25.4486 14.1666C25.4881 14.0439 25.409 13.9211 25.2902 13.9211C25.409 13.962 25.5277 13.8802 25.5277 13.7575C25.5277 13.6347 25.4881 13.5119 25.3694 13.5119Z" fill="#F9C484"/>
<path d="M5.97625 27.6697H23.0343V31.1886H5.97625V27.6697Z" fill="#3C3C3B"/>
<path d="M7.48026 31.2296H21.5304V40.2725H7.48026V31.2296Z" fill="#575756"/>
<path d="M13.0211 30.534H15.9499C16.1082 30.534 16.2665 30.3703 16.2665 30.2066V28.6926C16.2665 28.529 16.1082 28.3653 15.9499 28.3653H13.0211C12.8628 28.3653 12.7045 28.529 12.7045 28.6926V30.2066C12.7045 30.4112 12.8628 30.534 13.0211 30.534Z" fill="white"/>
<path opacity="0.1" d="M7.44069 32.989L21.5304 34.7485V31.2296H7.44069V32.989Z" fill="#1D1D1B"/>
<path d="M14.6438 33.3164C14.7626 33.3164 14.8813 33.3164 15 33.3164C22.599 33.2345 27.5858 29.2655 27.8232 29.1427L26.8734 28.8563C26.8338 28.8972 21.8074 32.2116 14.9209 32.2934C10.686 32.3343 6.53036 31.1886 2.57258 28.8154L1.66229 29.1427C6.01586 31.7206 9.02377 33.3164 14.6438 33.3164Z" fill="#E94E1B"/>
<path d="M27.8233 41.7046C27.3424 41.7046 26.9525 38.4437 26.9525 34.4212C26.9525 30.3987 27.3424 27.1378 27.8233 27.1378C28.3041 27.1378 28.694 30.3987 28.694 34.4212C28.694 38.4437 28.3041 41.7046 27.8233 41.7046Z" fill="#FFE14D"/>
<path d="M26.6358 27.7515C26.6358 28.3653 27.1899 28.8563 27.8232 28.8563C28.496 28.8563 29.0105 28.3653 29.0105 27.7515C29.0105 27.1377 28.4564 26.6467 27.8232 26.6467C27.1503 26.6467 26.6358 27.1377 26.6358 27.7515Z" fill="#FFE14D"/>
<path d="M26.7545 28.6517H28.8522V29.1427H26.7545V28.6517Z" fill="#E89B13"/>
<path d="M26.5963 40.8454H28.9709V40.2316C28.9709 40.027 28.8126 39.9042 28.5752 39.9042H26.9921C26.7942 39.9042 26.5963 40.0679 26.5963 40.2316V40.8454Z" fill="#E89B13"/>
<path d="M26.0818 41.5H29.4855V40.6817C29.4855 40.518 29.3272 40.3953 29.1689 40.3953H26.438C26.2797 40.3953 26.1214 40.518 26.1214 40.6817V41.5H26.0818Z" fill="#FFE14D"/>
<path d="M1.14777 39.9861C1.50396 39.9861 1.89974 39.9861 2.25594 39.9861C2.57256 34.9531 2.57256 33.8893 2.25594 28.8563C1.89974 28.8563 1.50396 28.8563 1.14777 28.8563C0.831144 33.8483 0.831144 34.9531 1.14777 39.9861Z" fill="#FFE14D"/>
<path d="M0.514488 27.7515C0.514488 28.3653 1.06858 28.8563 1.70182 28.8563C2.37465 28.8563 2.88916 28.3653 2.88916 27.7515C2.88916 27.1377 2.33507 26.6467 1.70182 26.6467C1.06858 26.6467 0.514488 27.1377 0.514488 27.7515Z" fill="#FFE14D"/>
<path d="M0.672884 28.6517H2.77051V29.1427H0.672884V28.6517Z" fill="#E89B13"/>
<path d="M0.514526 40.8454H2.84961V40.2316C2.84961 40.027 2.6913 39.9042 2.45383 39.9042H0.870726C0.672837 39.9042 0.474949 40.0679 0.474949 40.2316V40.8454H0.514526Z" fill="#E89B13"/>
<path d="M2.09808e-05 41.5H3.36414V40.6817C3.36414 40.518 3.20583 40.3953 3.04751 40.3953H0.316645C0.158334 40.3953 2.09808e-05 40.518 2.09808e-05 40.6817V41.5Z" fill="#FFE14D"/>
</g>
<defs>
<clipPath id="clip0_1_6826">
<rect width="30" height="41" fill="white" transform="matrix(-1 0 0 1 30 0.5)"/>
</clipPath>
</defs>
</svg>
