<svg width="30" height="32" viewBox="0 0 30 32" fill="none" xmlns="http://www.w3.org/2000/svg">
<path fill-rule="evenodd" clip-rule="evenodd" d="M23.1615 4.98929C23.5771 6.24695 23.5995 7.63721 23.1605 8.95299C22.9739 9.51239 22.7026 10.0587 22.3414 10.5757C21.7385 11.4379 21.1417 12.3738 20.6349 13.3243C20.1377 14.2569 19.7284 15.2024 19.4894 16.1017C19.2498 17.0028 19.1345 18.0263 19.1019 19.0817C19.0684 20.1607 19.1201 21.2702 19.214 22.3182C19.2701 22.9439 19.2334 23.5525 19.1166 24.1321C18.8432 25.4896 18.1317 26.6843 17.1445 27.5699C16.1579 28.4551 14.8939 29.0324 13.5147 29.1559C12.9282 29.2085 12.3213 29.1784 11.7065 29.0547H11.7041C11.5271 29.0185 11.3744 28.9859 11.2579 28.9588C11.1372 28.9307 10.9913 28.8936 10.8119 28.8447L10.8116 28.8457L10.8046 28.8438C6.91729 27.808 3.82297 25.3026 1.959 22.0848C0.0951216 18.8671 -0.539067 14.9376 0.493868 11.0534L0.495728 11.0464C1.53049 7.16241 4.04032 4.06624 7.26203 2.19992C11.8069 -0.432756 21.1196 -1.18976 23.1615 4.9893L23.1615 4.98929Z" fill="#FB8C00"/>
<path fill-rule="evenodd" clip-rule="evenodd" d="M10.7912 27.9885L11.0278 28.0531C11.1659 28.0908 11.3046 28.1272 11.444 28.1597C11.5579 28.1863 11.6726 28.2105 11.7872 28.2341H11.7883L11.8685 28.2503C12.3862 28.3546 12.9153 28.3859 13.4414 28.3387C14.6154 28.2335 15.7199 27.7456 16.5965 26.9592C17.4736 26.1723 18.0793 25.1263 18.3122 23.9701C18.4169 23.4504 18.444 22.9193 18.3967 22.3914C18.2976 21.2853 18.2473 20.1669 18.2817 19.0564C18.3144 18.0008 18.4245 16.9135 18.6964 15.8909C18.9681 14.8686 19.4141 13.87 19.9109 12.9383C20.433 11.9589 21.0333 11.0149 21.6688 10.1057C21.9727 9.67093 22.2142 9.19663 22.3821 8.69336C22.7554 7.57449 22.7522 6.36595 22.3824 5.24676C22.0556 4.25775 21.4996 3.41834 20.6957 2.75374C18.8299 1.21125 16.0333 0.920701 13.7062 1.12346C11.6921 1.29898 9.43153 1.8914 7.67329 2.90991C4.51175 4.74132 2.22405 7.72213 1.28891 11.2563L1.28702 11.2633C0.353505 14.7913 0.838968 18.5143 2.66898 21.6735C4.46181 24.7686 7.36253 27.005 10.7912 27.9885L10.7912 27.9885Z" fill="#FFA726"/>
<path fill-rule="evenodd" clip-rule="evenodd" d="M6.73502 19.9116C6.16429 20.2421 5.4677 20.3551 4.78143 20.1728L4.77751 20.1718H4.77501C4.09044 19.9884 3.54344 19.5452 3.21302 18.9755C2.88303 18.4066 2.76982 17.7121 2.95228 17.0252L2.95334 17.0212C3.13619 16.333 3.58076 15.7847 4.15125 15.4544C4.72195 15.124 5.41857 15.011 6.10494 15.1931C6.79316 15.376 7.34139 15.8206 7.67172 16.3911C8.00217 16.9618 8.11521 17.6584 7.93302 18.3447C7.75017 19.033 7.30554 19.5812 6.73501 19.9116L6.73502 19.9116Z" fill="#0277BD"/>
<path fill-rule="evenodd" clip-rule="evenodd" d="M7.62056 9.85749C7.71127 9.50623 7.65309 9.15119 7.48492 8.86051C7.31543 8.56753 7.03488 8.33942 6.68336 8.24605L6.68293 8.24592L6.66355 8.24097L6.66352 8.24107L6.66325 8.241L6.66329 8.24087C6.31552 8.15411 5.96476 8.21279 5.67708 8.37923C5.3841 8.54873 5.15596 8.82931 5.06262 9.18083L5.0577 9.20047L5.05764 9.2007L5.0573 9.20146C4.97078 9.54903 5.02946 9.89949 5.1958 10.187C5.36536 10.4801 5.64601 10.7082 5.99756 10.8016L5.99766 10.8016C6.35161 10.8956 6.70951 10.838 7.00228 10.6684C7.29496 10.499 7.52323 10.2175 7.6182 9.8641L7.62056 9.85749V9.85749Z" fill="#424242"/>
<path fill-rule="evenodd" clip-rule="evenodd" d="M8.83022 10.1853L8.82942 10.1878L8.83019 10.188C8.6456 10.8748 8.20084 11.4225 7.63038 11.7528C7.06015 12.083 6.36479 12.1958 5.67872 12.0136L5.67866 12.0136L5.67862 12.0135C4.99004 11.8306 4.4417 11.3858 4.11145 10.8151C3.78129 10.2444 3.66842 9.54812 3.85061 8.86222L3.8507 8.86192L3.85595 8.84264L3.85556 8.84251L3.85562 8.84228L3.85599 8.84241C4.042 8.16306 4.48374 7.62194 5.04901 7.29487C5.61964 6.96475 6.31587 6.85184 7.00184 7.03396L7.02148 7.03888L7.02171 7.03895L7.0246 7.04021C7.70269 7.22666 8.24275 7.66796 8.56932 8.23248C8.89944 8.80307 9.01238 9.49933 8.83023 10.1853L8.83022 10.1853Z" fill="#558B2F"/>
<path fill-rule="evenodd" clip-rule="evenodd" d="M15.8457 15.4401C15.237 16.4769 14.6256 17.0732 13.2974 16.2934C12.5434 15.8495 12.0397 15.1415 11.8352 14.3565C11.6309 13.5721 11.7254 12.7095 12.1672 11.9557L12.1673 11.9556C12.6109 11.2001 13.318 10.6956 14.103 10.491C14.8871 10.2866 15.7496 10.3819 16.505 10.8254L16.505 10.8255C17.8353 11.6065 17.611 12.4326 17.0013 13.4712C16.9048 13.6355 16.8138 13.7797 16.7188 13.9303C16.6109 14.1011 16.4979 14.2801 16.4032 14.4415C16.3009 14.6156 16.2028 14.796 16.109 14.9683C16.0203 15.1313 15.9353 15.2875 15.8458 15.4401L15.8457 15.4401Z" fill="#C62828"/>
<path fill-rule="evenodd" clip-rule="evenodd" d="M11.5498 2.75805C12.044 2.47175 12.6468 2.37333 13.2403 2.53133H13.2427L13.2445 2.5318L13.2444 2.53243C13.8402 2.69173 14.3139 3.07661 14.599 3.56969C14.8846 4.06352 14.9821 4.66572 14.825 5.25842V5.26087L14.8245 5.2627L14.8217 5.27074C14.6614 5.86158 14.2776 6.33302 13.7861 6.61771C13.292 6.90401 12.6891 7.00236 12.0957 6.84453L12.0944 6.8441L12.0943 6.84416L12.0934 6.84387L12.0932 6.8445L12.0919 6.84416L12.092 6.84353C11.4959 6.68427 11.0221 6.29932 10.7369 5.80608C10.4513 5.31208 10.3538 4.70971 10.511 4.11692V4.11443L10.5113 4.11317L10.512 4.11333C10.671 3.51861 11.0562 3.04411 11.5498 2.75805L11.5498 2.75805Z" fill="#8E24AA"/>
<path fill-rule="evenodd" clip-rule="evenodd" d="M12.6283 25.6378C12.0576 25.9683 11.361 26.0813 10.6747 25.899L10.6708 25.898H10.6683C9.98376 25.7146 9.43675 25.2714 9.10633 24.7017C8.77634 24.1328 8.66313 23.4383 8.84559 22.7513L8.84665 22.7474C9.02951 22.0592 9.47407 21.511 10.0446 21.1806C10.6153 20.8502 11.3119 20.7371 11.9982 20.9194C12.6865 21.1022 13.2347 21.5468 13.565 22.1173C13.8955 22.688 14.0085 23.3846 13.8263 24.0709C13.6435 24.7592 13.1989 25.3074 12.6283 25.6378L12.6283 25.6378Z" fill="#283593"/>
<path fill-rule="evenodd" clip-rule="evenodd" d="M23.9391 18.7119L28.7482 18.731L27.5413 1.38918C27.518 1.10425 27.3901 0.84161 27.1804 0.647357C26.9715 0.453836 26.701 0.346309 26.416 0.345645C26.1321 0.344981 25.8627 0.452507 25.6534 0.643204C25.4439 0.8341 25.3139 1.09335 25.2878 1.37579L25.2672 1.59785L25.2652 1.59985L23.9391 18.7119V18.7119Z" fill="#E64A19"/>
<path d="M26.3111 31.7547C23.0801 29.4901 22.1462 25.7425 23.9824 22.0021L28.6873 22.0132C30.4971 25.7724 29.5606 29.4999 26.3111 31.7548L26.3111 31.7547Z" fill="#E0F7FA"/>
<path d="M23.6464 18.2726C23.7419 18.2456 25.0235 18.2349 26.2756 18.2378C27.5276 18.2408 28.8091 18.2575 28.9048 18.285L28.9043 18.287C29.224 18.3769 29.4993 18.5695 29.6936 18.8267C29.8869 19.0825 30.0008 19.3984 30 19.7371L29.9979 20.6076C29.9969 21.0233 29.8274 21.3994 29.5542 21.6713C29.2811 21.9431 28.9042 22.1109 28.4885 22.1099L24.0378 22.0994C23.6221 22.0984 23.246 21.9289 22.9742 21.6557C22.7023 21.3826 22.5345 21.0057 22.5355 20.59L22.5376 19.7195L22.5401 19.7143C22.5439 19.3722 22.6599 19.0581 22.8527 18.8083C23.0491 18.5536 23.3263 18.3631 23.6469 18.2746L23.6464 18.2726L23.6464 18.2726Z" fill="#388E3C"/>
<path d="M29.8613 21.2319C29.7857 21.3966 29.6812 21.5453 29.5544 21.6716C29.2812 21.9434 28.9043 22.1112 28.4886 22.1102L24.0379 22.0997C23.6223 22.0987 23.2462 21.9292 22.9743 21.656C22.8481 21.5292 22.7443 21.38 22.6694 21.215L29.8613 21.2319L29.8613 21.2319Z" fill="#1B5E20"/>
<path d="M25.9529 30.9137C23.9656 28.8012 23.4981 24.5598 24.6086 21.9247C24.0364 22.4507 25.3553 30.7508 25.9529 30.9137Z" fill="#ADBEBF"/>
<path d="M23.8423 22.3003C23.8872 22.2009 23.9336 22.1015 23.9824 22.0021L28.6873 22.0132C28.7353 22.1128 28.781 22.2125 28.8251 22.3121L23.8423 22.3003Z" fill="#424242"/>
<path d="M24.7572 16.1367L25.7612 2.00696L25.1664 16.1632L24.7572 16.1367Z" fill="#D84315"/>
<path fill-rule="evenodd" clip-rule="evenodd" d="M12.813 4.66199C12.9901 4.55941 13.2061 4.52416 13.4187 4.58075H13.4195L13.4202 4.58091L13.4201 4.58115C13.6336 4.6382 13.8033 4.7761 13.9055 4.95277C14.0078 5.12968 14.0427 5.34543 13.9864 5.55776V5.55862L13.9862 5.55929L13.9852 5.56218C13.9278 5.77384 13.7903 5.94274 13.6142 6.04472C13.4372 6.14729 13.2212 6.18252 13.0086 6.12599L13.0081 6.12583V6.12586L13.0078 6.12573L13.0077 6.12596L13.0073 6.12586L13.0073 6.12563C12.7937 6.06858 12.624 5.93068 12.5218 5.75394C12.4195 5.57696 12.3846 5.36118 12.4409 5.14878V5.14792L12.441 5.14745L12.4412 5.14752C12.4982 4.93446 12.6362 4.76447 12.813 4.66199H12.813Z" fill="#6A1B9A"/>
<path fill-rule="evenodd" clip-rule="evenodd" d="M6.96844 9.94052C7.14548 9.83798 7.36146 9.80273 7.57405 9.85931H7.57492L7.57558 9.85948L7.57552 9.85971C7.78901 9.91676 7.95867 10.0547 8.06085 10.2313C8.16316 10.4082 8.19808 10.624 8.14179 10.8363V10.8372L8.14163 10.8379L8.1406 10.8407C8.08318 11.0524 7.94568 11.2213 7.76963 11.3233C7.59259 11.4259 7.37661 11.4611 7.16402 11.4045L7.16352 11.4044L7.16315 11.4043L7.16312 11.4045L7.16265 11.4044L7.16269 11.4042C6.94913 11.3471 6.7794 11.2092 6.67722 11.0325C6.57488 10.8555 6.53996 10.6397 6.59628 10.4274V10.4265L6.59641 10.426L6.59664 10.4261C6.6536 10.213 6.79159 10.043 6.96844 9.94052Z" fill="#33691E"/>
<path fill-rule="evenodd" clip-rule="evenodd" d="M6.89825 16.5148C7.07529 16.4122 7.29124 16.3769 7.50386 16.4336H7.50473L7.50539 16.4337L7.50533 16.434C7.71878 16.491 7.88848 16.6289 7.99066 16.8055C8.09297 16.9825 8.12789 17.1982 8.0716 17.4105V17.4114L8.07144 17.4121L8.07041 17.415C8.01299 17.6266 7.87546 17.7955 7.69941 17.8975C7.5224 18.0001 7.30639 18.0353 7.09383 17.9788L7.09333 17.9786V17.9786L7.09296 17.9785L7.0929 17.9788L7.09247 17.9786L7.0925 17.9784C6.87894 17.9214 6.70918 17.7835 6.60703 17.6067C6.50469 17.4297 6.46977 17.214 6.52609 17.0016V17.0007L6.52622 17.0002L6.52642 17.0003C6.58341 16.7872 6.7214 16.6172 6.89825 16.5148Z" fill="#01579B"/>
<path fill-rule="evenodd" clip-rule="evenodd" d="M11.5003 23.3279C11.6773 23.2254 11.8933 23.1901 12.1059 23.2467H12.1068L12.1074 23.2469L12.1074 23.2471C12.3208 23.3042 12.4905 23.4421 12.5927 23.6187C12.695 23.7956 12.7299 24.0114 12.6737 24.2237V24.2246L12.6735 24.2252L12.6725 24.2281C12.615 24.4398 12.4775 24.6087 12.3015 24.7107C12.1244 24.8132 11.9084 24.8485 11.6959 24.7919L11.6954 24.7918V24.7918L11.695 24.7917L11.6949 24.7919L11.6945 24.7918L11.6945 24.7916C11.481 24.7345 11.3112 24.5966 11.2091 24.4199C11.1067 24.2429 11.0718 24.0271 11.1281 23.8148V23.8139L11.1282 23.8134L11.1285 23.8135C11.1855 23.6004 11.3234 23.4304 11.5003 23.3279H11.5003Z" fill="#1A237E"/>
<path fill-rule="evenodd" clip-rule="evenodd" d="M14.3698 12.8719C14.6187 12.7276 14.9224 12.678 15.2214 12.7577H15.2227L15.2236 12.7579L15.2235 12.7582C15.5237 12.8384 15.7623 13.0324 15.906 13.2808C16.0498 13.5296 16.099 13.833 16.0198 14.1315V14.1328L16.0195 14.1337L16.0181 14.1377C15.9374 14.4354 15.744 14.6729 15.4964 14.8164C15.2475 14.9606 14.9437 15.0101 14.6448 14.9306L14.6441 14.9304V14.9304L14.6436 14.9303L14.6435 14.9306L14.6429 14.9304L14.643 14.9301C14.3426 14.8499 14.1039 14.656 13.9602 14.4074C13.8163 14.1586 13.7672 13.8551 13.8464 13.5565V13.5552L13.8466 13.5546L13.8469 13.5546C13.9271 13.255 14.1211 13.016 14.3698 12.8719L14.3698 12.8719Z" fill="#B71C1C"/>
</svg>
