<svg width="24" height="44" viewBox="0 0 24 44" fill="none" xmlns="http://www.w3.org/2000/svg">
<path d="M19.8003 13.864C18.9838 13.297 18.5537 13.3406 16.8187 12.3082C16.0095 11.8284 15.5502 11.5594 15.1347 11.0505C14.187 9.89458 14.1943 8.38242 14.2891 7.50275L10.5639 8.16432C10.542 9.07307 10.3525 10.2944 9.51414 11.2395C9.02571 11.7848 8.67579 11.8357 7.07929 12.6426C4.83398 13.7768 3.69675 14.3584 3.0042 15.398C2.59596 16.0087 2.04193 17.1791 2.25334 17.8698L21.8196 17.928C22.1331 16.5757 21.2218 14.8527 19.8003 13.864Z" fill="#D2BAB6"/>
<path d="M12.0656 10.3673C12.8019 9.98194 13.7204 9.42942 14.2599 8.68788C14.2307 8.23714 14.2526 7.83002 14.289 7.50287L10.5639 8.16444C10.542 8.98595 10.3889 10.0546 9.74011 10.9489C10.5493 10.9198 11.3366 10.738 12.0656 10.3673Z" fill="black"/>
<path d="M8.47172 13.0061C9.05491 13.0788 9.61624 13.1951 10.1776 13.3478C10.6587 13.4786 11.169 13.624 11.672 13.5877C11.6793 13.4132 11.7012 13.2387 11.7157 13.057C11.22 12.9552 8.90182 12.0755 8.16554 12.1046C7.88123 12.2354 7.53131 12.4027 7.08662 12.628C6.84605 12.7516 6.62007 12.8607 6.40137 12.977C7.08662 12.9043 7.78646 12.9261 8.47172 13.0061Z" fill="black"/>
<path d="M17.3217 12.5846C17.1614 12.5047 17.001 12.4101 16.826 12.3084C16.7385 12.2575 16.6583 12.2066 16.5782 12.163C15.7325 12.163 14.865 12.163 14.034 12.3374C13.5018 12.4465 13.0571 12.8027 12.5468 12.9845C12.5249 13.2098 12.4812 13.4279 12.4812 13.6533C13.9902 12.9699 15.6669 12.6501 17.3217 12.5846Z" fill="black"/>
<path d="M15.5575 3.32967C15.4482 1.60668 14.5077 0 12.3572 0C10.6805 0 9.41936 1.25044 9.18608 3.22062C8.85074 6.09955 10.5639 9.08026 12.226 9.1675C14.012 9.25474 15.7398 6.07047 15.5575 3.32967Z" fill="#D2BAB6"/>
<path d="M9.54325 3.38794C9.55054 3.16984 11.1106 2.76272 11.5772 3.38794C11.7375 3.59877 11.7084 3.86049 11.6573 4.3912C11.5844 5.16183 11.3366 5.85248 11.2418 5.83794C11.1252 5.81613 11.5261 4.8056 11.0158 4.11494C10.5274 3.43883 9.53596 3.55515 9.54325 3.38794Z" fill="black"/>
<path d="M11.1543 6.05597C11.1616 6.08505 11.322 6.62303 11.7229 6.703C12.2259 6.80478 12.6633 6.09959 12.6415 6.07778C12.6269 6.06324 12.3426 6.44128 11.927 6.45582C11.6063 6.46309 11.3293 6.24499 11.1543 6.05597Z" fill="black"/>
<path d="M14.8212 3.82418C14.8577 3.71513 14.4203 3.40979 13.9392 3.36617C13.8225 3.35163 13.3924 3.31528 13.1008 3.59881C12.9915 3.70786 12.8529 3.90415 12.9113 3.99866C12.9842 4.10771 13.2758 3.9405 13.8152 3.87507C14.4567 3.78056 14.7921 3.91869 14.8212 3.82418Z" fill="black"/>
<path d="M13.1372 7.61196H11.2491C11.1908 7.61196 11.1398 7.56107 11.1398 7.50291C11.1398 7.44475 11.1908 7.39386 11.2491 7.39386H13.1372C13.1955 7.39386 13.2466 7.44475 13.2466 7.50291C13.2466 7.56107 13.1955 7.61196 13.1372 7.61196Z" fill="black"/>
<path d="M19.7639 33.2168H3.31042V36.6119H19.7639V33.2168Z" fill="#526D64"/>
<path d="M18.2912 23.882H5.72327V27.2771H18.2912V23.882Z" fill="#526D64"/>
<path d="M2.2395 44H1.31015C0.653699 44 0.166895 43.4181 0.329163 42.8081L6.65024 18.2549H9.65957L3.22048 43.2638C3.10985 43.6915 2.70418 44 2.2395 44Z" fill="#6C9480"/>
<path d="M21.7664 44.0001H22.6891C23.346 44.0001 23.8332 43.4181 23.6708 42.8082L17.3522 18.255H14.3405L20.7846 43.2639C20.8953 43.6916 21.3013 44.0001 21.7664 44.0001Z" fill="#6C9480"/>
<path d="M20.0627 20.6685H3.94458V26.3681H20.0627V20.6685Z" fill="#526D64"/>
<path d="M22.5339 21.4318H1.47322C1.09414 21.4318 0.787964 21.1265 0.787964 20.7484V18.3057C0.787964 17.9277 1.09414 17.6223 1.47322 17.6223H22.5339C22.913 17.6223 23.2192 17.9277 23.2192 18.3057V20.7484C23.2192 21.1265 22.913 21.4318 22.5339 21.4318Z" fill="black"/>
<path d="M4.79593 6.16939C5.75415 6.16939 6.53094 5.39473 6.53094 4.43913C6.53094 3.48353 5.75415 2.70886 4.79593 2.70886C3.8377 2.70886 3.06091 3.48353 3.06091 4.43913C3.06091 5.39473 3.8377 6.16939 4.79593 6.16939Z" fill="#E38950"/>
<path d="M3.06088 10.4369C3.72519 10.4369 4.26372 9.89983 4.26372 9.23733C4.26372 8.57484 3.72519 8.03778 3.06088 8.03778C2.39656 8.03778 1.85803 8.57484 1.85803 9.23733C1.85803 9.89983 2.39656 10.4369 3.06088 10.4369Z" fill="#E38950"/>
</svg>
