<svg width="34" height="38" viewBox="0 0 34 38" fill="none" xmlns="http://www.w3.org/2000/svg">
<g clip-path="url(#clip0_1_6923)">
<path d="M20.6422 35.6964H19.3729V25.1484H21.4147L20.6422 35.6964Z" fill="#A67839"/>
<path d="M29.0301 35.6964H30.2994V25.1484H28.2576L29.0301 35.6964Z" fill="#A67839"/>
<path d="M32.8378 20.9402H17.0552C17.0552 20.175 17.6622 19.5739 18.4348 19.5739H31.4582C32.2308 19.5192 32.8378 20.175 32.8378 20.9402Z" fill="#F45D61"/>
<path d="M32.8378 20.9402H24.9465V19.5739H31.4582C32.2308 19.5192 32.8378 20.175 32.8378 20.9402Z" fill="#F45D61"/>
<path d="M33.5 20.9402H16.2274V25.1485H33.5V20.9402Z" fill="#ECB96A"/>
<path d="M33.5 8.37001C33.5 10.9934 32.5619 13.1795 31.7893 15.147C31.1271 16.6773 30.5201 18.1529 30.5201 19.5739H29.1957C29.1957 17.8796 29.8579 16.3493 30.5753 14.6551C31.3478 12.7422 32.1756 10.7747 32.1756 8.42467C32.1756 5.63737 30.6304 3.66987 28.5335 2.68612C29.4164 3.99778 30.0234 5.91064 30.0234 8.42467C30.0234 10.9934 29.5268 13.1795 29.0853 15.0923C28.699 16.6773 28.3679 18.1529 28.3679 19.6285H26.9883C26.9883 17.9889 27.3746 16.4586 27.7609 14.8191C28.2024 12.9062 28.699 10.884 28.699 8.47932C28.699 4.2164 26.7676 1.92097 25.0017 1.92097C23.1806 1.92097 21.3044 4.2164 21.3044 8.47932C21.3044 10.884 21.7458 12.9062 22.2425 14.8191C22.6288 16.4586 23.0151 18.0436 23.0151 19.6285H21.6355C21.6355 18.1529 21.3044 16.6773 20.9181 15.0923C20.4766 13.1795 19.9799 11.048 19.9799 8.42467C19.9799 5.91064 20.587 3.99778 21.4699 2.68612C19.3729 3.66987 17.8278 5.63737 17.8278 8.42467C17.8278 10.7747 18.6555 12.7422 19.4281 14.6551C20.1455 16.3493 20.8077 17.8796 20.8077 19.5739H19.4281C19.4281 18.1529 18.8211 16.7319 18.1589 15.147C17.3311 13.2341 16.4482 11.048 16.4482 8.37001C16.3378 3.23264 20.8077 0.5 24.9465 0.5C29.0853 0.5 33.5 3.23264 33.5 8.37001Z" fill="#D59849"/>
<path opacity="0.81" d="M24.9465 0.5V1.86632C23.1254 1.86632 21.2491 4.16174 21.2491 8.42467C21.2491 10.8294 21.6906 12.8516 22.1873 14.7644C22.5736 16.404 22.9599 17.9889 22.9599 19.5739H21.5803C21.5803 18.0982 21.2491 16.6226 20.8629 15.0377C20.4214 13.1248 19.9247 10.9934 19.9247 8.37002C19.9247 5.85598 20.5318 3.94313 21.4147 2.63146C19.3177 3.61521 17.7726 5.58272 17.7726 8.37002C17.7726 10.7201 18.6003 12.6876 19.3729 14.6004C20.0903 16.2947 20.7525 17.825 20.7525 19.5192H19.3729C19.3729 18.0982 18.7659 16.6773 18.1037 15.0923C17.2759 13.1795 16.393 10.9934 16.393 8.31536C16.3378 3.23264 20.8077 0.5 24.9465 0.5Z" fill="#D59849"/>
<path d="M18.821 37.5H17.3862V25.1484H19.7591L18.821 37.5Z" fill="#D59849"/>
<path d="M30.7409 37.5H32.2308V25.1484H29.8579L30.7409 37.5Z" fill="#D59849"/>
<path opacity="0.48" d="M31.9548 20.9402H28.6438V23.7275H31.9548V20.9402Z" fill="#F6F8CE"/>
<path opacity="0.34" d="M19.7591 25.1484L19.5936 27.3892H17.3862V25.1484H19.7591Z" fill="#CABAAB"/>
<path opacity="0.34" d="M32.2308 25.1484V27.3892H30.0235L29.8579 25.1484H32.2308Z" fill="#CABAAB"/>
<path d="M16.1171 13.9993H0.5V16.1854H16.1171V13.9993Z" fill="#976D49"/>
<path opacity="0.25" d="M16.1171 13.9993H0.5V15.0923H16.1171V13.9993Z" fill="white"/>
<path d="M4.14212 36.079H2.26587V37.4454H4.14212V36.079Z" fill="#5B412C"/>
<path d="M14.3512 36.079H12.475V37.4454H14.3512V36.079Z" fill="#5B412C"/>
<path d="M15.1237 16.1307H1.54846V36.0244H15.1237V16.1307Z" fill="#7B593C"/>
<path d="M13.9097 17.2238H2.76257V22.0879H13.9097V17.2238Z" fill="#976D49"/>
<path d="M13.9097 23.3449H2.76257V28.209H13.9097V23.3449Z" fill="#976D49"/>
<path d="M13.9097 29.4114H2.76257V34.2755H13.9097V29.4114Z" fill="#976D49"/>
<path opacity="0.75" d="M9.71572 31.5975C9.71572 32.0893 9.32943 32.4719 8.83277 32.4719C8.33612 32.4719 7.94983 32.0893 7.94983 31.5975C7.94983 31.1056 8.33612 30.723 8.83277 30.723C9.32943 30.723 9.71572 31.1056 9.71572 31.5975Z" fill="#CABAAB"/>
<path opacity="0.75" d="M9.71572 25.531C9.71572 26.0229 9.32943 26.4054 8.83277 26.4054C8.33612 26.4054 7.94983 26.0229 7.94983 25.531C7.94983 25.0391 8.33612 24.6566 8.83277 24.6566C9.32943 24.6566 9.71572 25.0391 9.71572 25.531Z" fill="#CABAAB"/>
<path opacity="0.75" d="M9.71572 19.5192C9.71572 20.0111 9.32943 20.3937 8.83277 20.3937C8.33612 20.3937 7.94983 20.0111 7.94983 19.5192C7.94983 19.0273 8.33612 18.6448 8.83277 18.6448C9.32943 18.6448 9.71572 19.0273 9.71572 19.5192Z" fill="#CABAAB"/>
<path d="M9.16384 18.9727C9.16384 19.4645 8.77755 19.8471 8.28089 19.8471C7.78424 19.8471 7.39795 19.4645 7.39795 18.9727C7.39795 18.4808 7.78424 18.0982 8.28089 18.0982C8.77755 18.1529 9.16384 18.5354 9.16384 18.9727Z" fill="#7DC9DE"/>
<path d="M8.83279 18.9727C8.83279 19.246 8.61205 19.4646 8.33613 19.4646C8.06021 19.4646 7.83948 19.246 7.83948 18.9727C7.83948 18.6994 8.06021 18.4808 8.33613 18.4808C8.61205 18.4808 8.83279 18.6994 8.83279 18.9727Z" fill="#5F9DAC"/>
<path d="M9.16384 25.0392C9.16384 25.5311 8.77755 25.9136 8.28089 25.9136C7.78424 25.9136 7.39795 25.5311 7.39795 25.0392C7.39795 24.5473 7.78424 24.1647 8.28089 24.1647C8.77755 24.1647 9.16384 24.5473 9.16384 25.0392Z" fill="#7DC9DE"/>
<path d="M8.83279 25.0391C8.83279 25.3124 8.61205 25.531 8.33613 25.531C8.06021 25.531 7.83948 25.3124 7.83948 25.0391C7.83948 24.7659 8.06021 24.5473 8.33613 24.5473C8.61205 24.4926 8.83279 24.7659 8.83279 25.0391Z" fill="#5F9DAC"/>
<path d="M9.16384 31.1056C9.16384 31.5975 8.77755 31.9801 8.28089 31.9801C7.78424 31.9801 7.39795 31.5975 7.39795 31.1056C7.39795 30.6138 7.78424 30.2312 8.28089 30.2312C8.77755 30.2312 9.16384 30.6138 9.16384 31.1056Z" fill="#7DC9DE"/>
<path d="M8.83279 31.1056C8.83279 31.3789 8.61205 31.5975 8.33613 31.5975C8.06021 31.5975 7.83948 31.3789 7.83948 31.1056C7.83948 30.8323 8.06021 30.6137 8.33613 30.6137C8.61205 30.5591 8.83279 30.8323 8.83279 31.1056Z" fill="#5F9DAC"/>
<path opacity="0.25" d="M13.9097 23.3449H2.76257V23.8368H13.9097V23.3449Z" fill="white"/>
<path opacity="0.25" d="M13.9097 29.4114H2.76257V29.9033H13.9097V29.4114Z" fill="white"/>
<path opacity="0.25" d="M13.9097 17.2238H2.76257V17.7157H13.9097V17.2238Z" fill="white"/>
<path opacity="0.75" d="M15.1237 16.1307H1.54846V16.8959H15.1237V16.1307Z" fill="#CABAAB"/>
<path d="M28.6438 8.37003C28.6438 10.7748 28.2023 12.7969 27.7057 14.7098C27.3194 16.3493 26.9331 17.8796 26.9331 19.5192H22.7943C22.7943 17.8796 22.408 16.3493 22.0217 14.7098C21.5803 12.7969 21.1388 10.7748 21.1388 8.37003C21.1388 8.15141 21.1388 7.87815 21.1388 7.65954C21.1388 7.16766 21.194 6.73044 21.3043 6.34787C21.3595 6.12926 21.3595 5.9653 21.4147 5.74669C21.4699 5.47342 21.5251 5.25481 21.6354 4.98155C21.7458 4.70828 21.8562 4.43502 21.9666 4.21641C22.0217 4.16175 22.0217 4.05245 22.0769 3.9978C22.1873 3.83384 22.2425 3.72453 22.3528 3.56057C23.0702 2.46751 24.0084 1.86633 24.8913 1.86633C26.7676 1.86633 28.6438 4.1071 28.6438 8.37003Z" fill="#F1594F"/>
</g>
<defs>
<clipPath id="clip0_1_6923">
<rect width="33" height="37" fill="white" transform="translate(0.5 0.5)"/>
</clipPath>
</defs>
</svg>
