<svg width="36" height="30" viewBox="0 0 36 30" fill="none" xmlns="http://www.w3.org/2000/svg">
<path d="M26.1292 13.9371L35.3415 9.44956C35.4804 9.38284 35.6045 9.28917 35.7068 9.174C35.8091 9.05883 35.8875 8.92446 35.9373 8.77871C35.9872 8.63297 36.0076 8.47876 35.9972 8.32507C35.9869 8.17137 35.9461 8.02127 35.8772 7.8835L35.7413 7.61161C35.6074 7.34376 35.3752 7.138 35.0931 7.0373C34.8111 6.93659 34.5011 6.94873 34.2278 7.07118L25.1857 11.1791L26.1292 13.9371Z" fill="#D38F29"/>
<path d="M25.8388 13.9369C26.6405 13.9369 27.2904 13.287 27.2904 12.4853C27.2904 11.6836 26.6405 11.0337 25.8388 11.0337C25.0371 11.0337 24.3872 11.6836 24.3872 12.4853C24.3872 13.287 25.0371 13.9369 25.8388 13.9369Z" fill="#AA6B17"/>
<path d="M23.0808 15.0259C22.9561 15.026 22.8347 14.986 22.7345 14.9118C22.6343 14.8376 22.5607 14.7331 22.5245 14.6138C22.4883 14.4945 22.4915 14.3667 22.5336 14.2493C22.5757 14.132 22.6544 14.0313 22.7581 13.9621L25.2259 12.2928C25.354 12.2073 25.5108 12.1763 25.6618 12.2065C25.8128 12.2367 25.9456 12.3257 26.0311 12.4538C26.1165 12.582 26.1475 12.7388 26.1173 12.8898C26.0871 13.0408 25.9981 13.1736 25.87 13.259L23.4023 14.9284C23.3071 14.992 23.1952 15.026 23.0808 15.0259Z" fill="#D38F29"/>
<path d="M24.1854 14.4927C26.0817 19.9446 22.217 26.243 15.5541 28.5607C8.89123 30.8784 1.95148 28.3377 0.0551758 22.8861L24.1854 14.4927Z" fill="#CCCCCC"/>
<path d="M5.8064 17.5686C6.86607 17.0342 8.03701 16.5118 9.29025 16.0212C9.83702 15.8072 10.3988 15.5997 10.9756 15.3988C17.6389 13.0811 23.5531 12.6755 24.1852 14.4927C24.8173 16.31 19.928 19.6621 13.2646 21.9798C6.60123 24.2975 0.687103 24.7032 0.0550024 22.8861C-0.158601 22.272 0.258227 21.4826 1.16127 20.6171" fill="#A0A09D"/>
<path d="M11.3353 22.6048C8.94744 23.3211 6.72213 23.7726 4.88658 23.9446C1.44265 23.332 0.541203 19.0331 0.533219 17.7397C0.53252 17.6218 0.555158 17.5049 0.599831 17.3957C0.644503 17.2866 0.710326 17.1874 0.793508 17.1038C0.876691 17.0202 0.975589 16.9539 1.08451 16.9087C1.19342 16.8635 1.31021 16.8403 1.42813 16.8404C1.66526 16.8403 1.89264 16.7461 2.06031 16.5784C2.22798 16.4108 2.32222 16.1834 2.32232 15.9462V11.8397C2.32232 11.6577 2.35816 11.4775 2.42779 11.3094C2.49742 11.1413 2.59948 10.9886 2.72814 10.8599C2.8568 10.7313 3.00954 10.6292 3.17765 10.5596C3.34575 10.4899 3.52592 10.4541 3.70788 10.4541C3.88983 10.4541 4.07 10.4899 4.23811 10.5596C4.40621 10.6292 4.55895 10.7313 4.68761 10.8599C4.81627 10.9886 4.91833 11.1413 4.98796 11.3094C5.05759 11.4775 5.09343 11.6577 5.09343 11.8397C5.09343 11.8629 5.09343 11.8861 5.09198 11.9093C4.94319 14.9461 5.03537 21.6765 11.3223 22.5743L11.3353 22.6048Z" fill="#F9EE64"/>
<path d="M4.64529 6.96942C5.28665 6.96942 5.80658 6.44949 5.80658 5.80813C5.80658 5.16677 5.28665 4.64685 4.64529 4.64685C4.00393 4.64685 3.48401 5.16677 3.48401 5.80813C3.48401 6.44949 4.00393 6.96942 4.64529 6.96942Z" fill="#AA6F21"/>
<path d="M8.70987 2.90496C9.35123 2.90496 9.87115 2.38504 9.87115 1.74368C9.87115 1.10232 9.35123 0.582397 8.70987 0.582397C8.06851 0.582397 7.54858 1.10232 7.54858 1.74368C7.54858 2.38504 8.06851 2.90496 8.70987 2.90496Z" fill="#79C143"/>
<path d="M6.96777 8.13086H8.12906V9.29214H6.96777V8.13086Z" fill="#D38F29"/>
<path d="M6.38721 13.3566H7.54849V14.5179H6.38721V13.3566Z" fill="#D38F29"/>
<path d="M9.87036 18.5824H11.0316V19.7437H9.87036V18.5824Z" fill="#D38F29"/>
<path d="M0.580566 7.55011H1.74185V8.71139H0.580566V7.55011Z" fill="#F23F00"/>
<path d="M5.48454 23.1299C3.54011 21.8339 3.48401 20.4749 3.48401 20.3242H4.64529C4.64529 20.3242 4.64529 20.3191 4.64529 20.3093C4.64725 20.3456 4.70982 21.2176 6.1289 22.1637L5.48454 23.1299Z" fill="#C6B834"/>
<path d="M10.4518 7.54995H9.29053C9.29053 5.59029 11.1245 3.73361 11.2025 3.65552L12.0236 4.47662L11.6131 4.0661L12.0242 4.47618C11.7244 4.79131 11.453 5.13228 11.2131 5.49514C10.7151 6.24728 10.4518 6.95784 10.4518 7.54995Z" fill="#79C143"/>
<path d="M10.0059 17.7928C8.33884 15.7923 8.43487 13.9451 8.80902 12.7478C9.05785 11.9574 9.47871 11.2318 10.0414 10.6234L10.8625 11.4445L10.4519 11.0339L10.8641 11.443C10.7614 11.5472 8.3805 14.0282 10.898 17.0493L10.0059 17.7928Z" fill="#F23F00"/>
<path d="M21.9846 16.3947C21.9099 17.0312 21.7647 17.7207 21.4838 18.0016L21.4896 18.0292C20.4067 18.7746 19.0466 19.5396 17.4868 20.2705C17.8258 19.9867 19.3362 18.5997 19.6744 16.1094C19.7114 15.8301 19.8485 15.5737 20.0601 15.3878C20.2718 15.2019 20.5438 15.0991 20.8255 15.0984H20.8313C20.9952 15.0984 21.1572 15.1331 21.3067 15.2002C21.4563 15.2673 21.5899 15.3653 21.6988 15.4878C21.8077 15.6102 21.8895 15.7543 21.9388 15.9106C21.988 16.0669 22.0037 16.2319 21.9846 16.3947Z" fill="#F9EE64"/>
<g opacity="0.3">
<path opacity="0.3" d="M2.32244 18.5822C4.3282 17.1664 3.8406 12.2504 3.58773 10.4593C3.24242 10.4894 2.92093 10.6478 2.68669 10.9033C2.45246 11.1588 2.32249 11.4929 2.32244 11.8395V15.9461C2.32235 16.1832 2.22811 16.4106 2.06043 16.5782C1.89276 16.7459 1.66538 16.8402 1.42825 16.8403C1.31033 16.8401 1.19355 16.8633 1.08463 16.9085C0.975711 16.9537 0.876813 17.02 0.793631 17.1036C0.710448 17.1872 0.644625 17.2864 0.599953 17.3956C0.55528 17.5047 0.532642 17.6216 0.533341 17.7395C0.537115 18.352 0.741501 19.6384 1.32113 20.8882C1.21748 20.0668 1.42158 19.2181 2.32244 18.5822Z" fill="white"/>
</g>
<g opacity="0.3">
<path opacity="0.3" d="M5.33706 4.87714C5.21175 4.78336 5.06877 4.71591 4.91671 4.67883C4.76465 4.64176 4.60667 4.63583 4.45226 4.66141C4.29785 4.687 4.15021 4.74355 4.01824 4.82768C3.88626 4.91182 3.77267 5.02178 3.6843 5.15096C3.59593 5.28014 3.53462 5.42586 3.50404 5.57936C3.47347 5.73286 3.47427 5.89095 3.50639 6.04413C3.53851 6.19731 3.6013 6.34241 3.69096 6.47069C3.78063 6.59897 3.89533 6.70778 4.02815 6.79058C3.89264 5.70913 4.69269 5.14925 5.33706 4.87714Z" fill="white"/>
</g>
<g opacity="0.3">
<path opacity="0.3" d="M9.40163 0.812692C9.27633 0.718912 9.13334 0.651454 8.98128 0.61438C8.82923 0.577305 8.67124 0.571381 8.51683 0.596961C8.36243 0.622542 8.21479 0.6791 8.08281 0.763231C7.95083 0.847362 7.83724 0.957327 7.74888 1.08651C7.66051 1.21569 7.59919 1.36141 7.56862 1.51491C7.53804 1.6684 7.53884 1.8265 7.57096 1.97968C7.60309 2.13286 7.66587 2.27796 7.75554 2.40624C7.84521 2.53452 7.9599 2.64333 8.09272 2.72612C7.95721 1.64468 8.75727 1.0848 9.40163 0.812692Z" fill="white"/>
</g>
<g opacity="0.3">
<path opacity="0.3" d="M18.6547 18.9037C20.6013 18.138 21.2972 16.2498 21.5262 15.3293C21.3258 15.1789 21.0818 15.0979 20.8313 15.0984H20.8255C20.5437 15.0991 20.2718 15.2019 20.0601 15.3878C19.8484 15.5737 19.7114 15.8301 19.6743 16.1094C19.5419 17.104 19.1939 18.0576 18.6547 18.9037Z" fill="white"/>
</g>
<path d="M35.7986 7.72618L35.7413 7.61143C35.6074 7.34358 35.3752 7.13782 35.0931 7.03711C34.8111 6.93641 34.5011 6.94855 34.2278 7.07099L25.7113 10.9402C30.8731 10.4707 34.3393 8.64736 35.7986 7.72618Z" fill="#EFB66A"/>
<g opacity="0.3">
<path opacity="0.3" d="M7.98638 23.4609C3.72548 24.3511 0.511996 24.1987 0.0551758 22.8861C1.95155 28.3378 8.89044 30.8784 15.554 28.5608C17.0092 28.058 18.3801 27.3382 19.6202 26.4257C11.925 27.7115 8.97477 24.9197 7.98638 23.4609Z" fill="white"/>
</g>
</svg>
