<svg width="34" height="32" viewBox="0 0 34 32" fill="none" xmlns="http://www.w3.org/2000/svg">
<g clip-path="url(#clip0_1_103)">
<path d="M29.2254 6.96081L25.5741 11.0723C24.9532 11.8734 23.5415 11.7752 22.758 11.1403L19.1067 8.17763C18.3232 7.54277 17.9167 6.15212 18.5375 5.35854L21.6271 0.786036C22.248 -0.0150977 23.3862 -0.143581 24.1623 0.491279C24.118 0.529068 24.0736 0.574416 24.0367 0.627321L21.1023 4.40625C20.7328 4.8824 20.8141 5.57016 21.2723 5.94806C21.738 6.32595 22.4106 6.24281 22.7802 5.77423L25.7145 1.99529C25.7515 1.94995 25.7884 1.89704 25.8106 1.84414L27.1706 2.94758C27.1262 2.98537 27.0819 3.03072 27.0449 3.08363L24.1106 6.86256C23.741 7.3387 23.8223 8.02647 24.2806 8.40436C24.7462 8.78226 25.4189 8.69912 25.7884 8.23053L28.7228 4.4516C28.7597 4.40625 28.7967 4.35335 28.8189 4.30044L28.9223 4.38358C29.7132 4.99577 29.8463 6.15968 29.2254 6.96081Z" fill="#414141"/>
<path d="M25.5519 3.60515C25.1824 3.31039 25.1232 2.75867 25.4115 2.38077L25.8032 1.88195C26.0915 1.50406 26.6311 1.4436 27.0006 1.73836C27.3702 2.03311 27.4293 2.58484 27.1411 2.96273L26.7493 3.46155C26.4537 3.83944 25.9215 3.8999 25.5519 3.60515Z" fill="#414141"/>
<path d="M9.87489 23.898C9.23924 23.3841 9.14315 22.4318 9.66054 21.7969L21.0579 7.6637L22.8097 9.08458L11.9297 23.641C11.4418 24.2986 10.5105 24.4195 9.87489 23.898Z" fill="#414141"/>
<path d="M22.6692 24.0264C22.1962 24.3741 21.5309 24.2456 21.2057 23.7543L13.8588 12.5838L15.0635 11.7147L22.9057 22.53C23.2531 23.0061 23.1422 23.6863 22.6692 24.0264Z" fill="#A35648"/>
<path d="M15.8692 13.6873L15.337 14.0727C14.8048 14.4582 14.0657 14.3297 13.6814 13.7855L4.5531 0.566834C5.92049 -0.415688 7.80528 -0.0907004 8.77354 1.3075L16.1575 11.9943C16.5344 12.5385 16.4088 13.3018 15.8692 13.6873Z" fill="#B2B2B2"/>
<path d="M21.8709 26.5961L19.9492 28.0245C19.7127 28.1984 19.6166 28.5082 19.7053 28.7879L20.437 31.1006C20.6366 31.7355 19.927 32.257 19.4022 31.8715L17.4805 30.4431C17.244 30.2692 16.9261 30.2692 16.6896 30.4431L14.7679 31.8715C14.5314 32.0453 14.2505 32.0378 14.0361 31.9093C13.7848 31.7581 13.6222 31.4407 13.7331 31.1006L14.4648 28.7879C14.5535 28.5082 14.4575 28.1908 14.2209 28.0245L12.2992 26.5961C11.7744 26.2031 12.0405 25.3491 12.6983 25.3491H15.0709C15.3592 25.3491 15.6179 25.1601 15.714 24.8729L16.4457 22.5602C16.5492 22.2428 16.8153 22.084 17.0887 22.084C17.3548 22.084 17.6283 22.2428 17.7318 22.5602L18.4635 24.8729C18.5522 25.1525 18.8109 25.3491 19.1066 25.3491H21.4792C22.1222 25.3491 22.3957 26.2031 21.8709 26.5961Z" fill="#CECB90"/>
<path d="M17.0888 22.0916V27.0496L14.0436 31.9093C13.7923 31.7581 13.6297 31.4407 13.7406 31.1006L14.4723 28.7879C14.561 28.5082 14.4649 28.1908 14.2284 28.0245L12.3066 26.5961C11.7819 26.2031 12.0479 25.3491 12.7058 25.3491H15.0784C15.3666 25.3491 15.6253 25.1601 15.7214 24.8729L16.4532 22.5602C16.5492 22.2503 16.8153 22.0916 17.0888 22.0916Z" fill="#B3AF80"/>
<path d="M20.1858 26.8682L18.5671 27.1252C18.3527 27.1554 18.1531 27.0118 18.1236 26.7926L18.094 26.6112C18.0644 26.3921 18.2049 26.188 18.4192 26.1578L20.0379 25.9008C20.2523 25.8706 20.4518 26.0142 20.4814 26.2333L20.511 26.4147C20.5405 26.6263 20.3927 26.8304 20.1858 26.8682Z" fill="#EBEAE3"/>
<path d="M19.0992 30.8814L17.9609 29.6797C17.8131 29.521 17.8131 29.2716 17.9683 29.1129L18.1013 28.9844C18.2566 28.8332 18.5005 28.8332 18.6557 28.9919L19.794 30.1937C19.9418 30.3524 19.9418 30.6018 19.7866 30.7605L19.6535 30.889C19.4909 31.0401 19.247 31.0401 19.0992 30.8814Z" fill="#EBEAE3"/>
<path d="M8.0196 22.2126L6.45265 23.3765C6.26047 23.5201 6.17917 23.7695 6.25308 24.0038L6.85178 25.8857C7.01438 26.3996 6.43786 26.8304 6.00917 26.513L4.44221 25.3491C4.25004 25.2055 3.99134 25.2055 3.79917 25.3491L2.23221 26.513C2.04004 26.6566 1.81091 26.649 1.64091 26.5432C1.43395 26.4223 1.30091 26.1653 1.3896 25.8857L1.9883 24.0038C2.06221 23.7695 1.98091 23.5201 1.78873 23.3765L0.229167 22.2126C-0.199528 21.8951 0.0222107 21.1998 0.554385 21.1998H2.49091C2.72743 21.1998 2.93438 21.0411 3.01569 20.8144L3.61438 18.9324C3.69569 18.6755 3.91743 18.547 4.13917 18.547C4.36091 18.547 4.57525 18.6755 4.66395 18.9324L5.26265 20.8144C5.33656 21.0487 5.54352 21.1998 5.78743 21.1998H7.72395C8.22656 21.1998 8.4483 21.8951 8.0196 22.2126Z" fill="#CECB90"/>
<path d="M4.12438 18.5394V22.5753L1.64091 26.5357C1.43395 26.4147 1.30091 26.1578 1.3896 25.8781L1.9883 23.9962C2.06221 23.7619 1.98091 23.5125 1.78873 23.3689L0.229167 22.2126C-0.199528 21.8951 0.0222107 21.1998 0.554385 21.1998H2.49091C2.72743 21.1998 2.93438 21.0411 3.01569 20.8143L3.61438 18.9324C3.6883 18.6679 3.90264 18.5394 4.12438 18.5394Z" fill="#B3AF80"/>
<path d="M6.64484 22.4317L5.32918 22.6358C5.15918 22.666 4.99657 22.5451 4.96701 22.3637L4.94484 22.2126C4.91527 22.0387 5.03353 21.8725 5.21092 21.8422L6.52658 21.6382C6.69658 21.6079 6.85918 21.7289 6.88875 21.9103L6.91092 22.0614C6.94049 22.2428 6.82223 22.4091 6.64484 22.4317Z" fill="#EBEAE3"/>
<path d="M5.76522 25.7043L4.83391 24.7293C4.70826 24.6008 4.71565 24.3968 4.8413 24.2683L4.94478 24.1625C5.07043 24.034 5.27 24.0416 5.39565 24.17L6.32696 25.145C6.45261 25.2735 6.44522 25.4776 6.31957 25.606L6.21609 25.7119C6.08304 25.8403 5.88348 25.8328 5.76522 25.7043Z" fill="#EBEAE3"/>
<path d="M33.7709 22.2126L32.2039 23.3765C32.0118 23.5201 31.9304 23.7695 32.0044 24.0038L32.6031 25.8857C32.7657 26.3996 32.1891 26.8304 31.7605 26.513L30.1935 25.3491C30.0013 25.2055 29.7426 25.2055 29.5505 25.3491L27.9835 26.513C27.7913 26.6566 27.5622 26.649 27.3922 26.5432C27.1852 26.4223 27.0522 26.1653 27.1409 25.8857L27.7396 24.0038C27.8135 23.7695 27.7322 23.5201 27.54 23.3765L25.9731 22.2126C25.5444 21.8951 25.7661 21.1998 26.2983 21.1998H28.2348C28.4713 21.1998 28.6783 21.0411 28.7596 20.8144L29.3583 18.9324C29.4396 18.6755 29.6613 18.547 29.8831 18.547C30.1048 18.547 30.3191 18.6755 30.4078 18.9324L31.0065 20.8144C31.0805 21.0487 31.2874 21.1998 31.5313 21.1998H33.4678C33.9852 21.1998 34.1996 21.8951 33.7709 22.2126Z" fill="#CECB90"/>
<path d="M29.8757 18.5394V22.5753L27.3922 26.5357C27.1852 26.4147 27.0522 26.1578 27.1409 25.8781L27.7396 23.9962C27.8135 23.7619 27.7322 23.5125 27.54 23.3689L25.9731 22.205C25.5444 21.8876 25.7661 21.1922 26.2983 21.1922H28.2348C28.4713 21.1922 28.6783 21.0335 28.7596 20.8068L29.3583 18.9249C29.4396 18.6679 29.6539 18.5394 29.8757 18.5394Z" fill="#B3AF80"/>
<path d="M32.3961 22.4317L31.0804 22.6358C30.9104 22.666 30.7478 22.5451 30.7182 22.3637L30.6961 22.2126C30.6665 22.0387 30.7848 21.8725 30.9621 21.8422L32.2778 21.6382C32.4478 21.6079 32.6104 21.7289 32.64 21.9103L32.6621 22.0614C32.6917 22.2428 32.5735 22.4091 32.3961 22.4317Z" fill="#EBEAE3"/>
<path d="M31.5165 25.7043L30.5853 24.7293C30.4596 24.6008 30.467 24.3968 30.5926 24.2683L30.6961 24.1625C30.8218 24.034 31.0213 24.0416 31.147 24.17L32.0783 25.145C32.2039 25.2735 32.1965 25.4776 32.0709 25.606L31.9674 25.7119C31.8418 25.8403 31.6348 25.8328 31.5165 25.7043Z" fill="#EBEAE3"/>
<path d="M32.4922 14.5715L31.4427 15.35C31.317 15.4483 31.2579 15.6145 31.3096 15.7657L31.7087 17.0279C31.8196 17.3755 31.4279 17.6627 31.1396 17.4511L30.0901 16.6651C29.9644 16.5668 29.787 16.5668 29.654 16.6651L28.6118 17.4586C28.4788 17.5569 28.3309 17.5493 28.2127 17.4813C28.0722 17.3982 27.9835 17.2244 28.0427 17.0354L28.4418 15.7732C28.4935 15.6221 28.4344 15.4483 28.3087 15.3576L27.2592 14.5791C26.9709 14.3675 27.1188 13.8989 27.4735 13.8989H28.7744C28.937 13.8989 29.0774 13.7931 29.1218 13.6419L29.5209 12.3798C29.5727 12.2059 29.7279 12.1228 29.8683 12.1228C30.0161 12.1228 30.164 12.2059 30.2157 12.3798L30.6148 13.6419C30.6666 13.7931 30.807 13.8989 30.9622 13.8989H32.2631C32.6327 13.8913 32.7805 14.3599 32.4922 14.5715Z" fill="#CECB90"/>
<path d="M29.8757 12.1152V14.8285L28.2127 17.4889C28.0722 17.4057 27.9835 17.2319 28.0427 17.043L28.4418 15.7808C28.4935 15.6296 28.4344 15.4558 28.3087 15.3651L27.2592 14.5867C26.9709 14.375 27.1188 13.9064 27.4735 13.9064H28.7744C28.937 13.9064 29.0774 13.8006 29.1218 13.6495L29.5209 12.3873C29.58 12.1984 29.7279 12.1152 29.8757 12.1152Z" fill="#B3AF80"/>
<path d="M31.5683 14.7227L30.6813 14.8587C30.5631 14.8738 30.4596 14.7983 30.4374 14.6773L30.4227 14.5791C30.4079 14.4582 30.4818 14.3523 30.6 14.3297L31.487 14.1936C31.6053 14.1785 31.7087 14.2541 31.7309 14.375L31.7457 14.4733C31.7679 14.5942 31.6866 14.7076 31.5683 14.7227Z" fill="#EBEAE3"/>
<path d="M30.977 16.9221L30.3561 16.2645C30.2748 16.1814 30.2748 16.0378 30.3635 15.9547L30.4374 15.8866C30.5187 15.8035 30.6592 15.8035 30.7405 15.8942L31.3613 16.5517C31.4426 16.6349 31.4426 16.7785 31.3539 16.8616L31.28 16.9296C31.1913 17.0052 31.0583 17.0052 30.977 16.9221Z" fill="#EBEAE3"/>
<path d="M6.74095 13.9443L5.69139 14.7227C5.56573 14.821 5.5066 14.9873 5.55834 15.1384L5.95747 16.4006C6.06834 16.7482 5.6766 17.0354 5.38834 16.8238L4.33878 16.0378C4.21313 15.9396 4.03573 15.9396 3.90269 16.0378L2.85313 16.8238C2.72008 16.9221 2.57226 16.9145 2.454 16.8465C2.31356 16.7634 2.22487 16.5895 2.284 16.4006L2.68313 15.1384C2.73487 14.9873 2.67573 14.8134 2.55008 14.7227L1.50052 13.9443C1.21226 13.7327 1.36008 13.2641 1.71487 13.2641H3.01573C3.17834 13.2641 3.31878 13.1583 3.36313 13.0071L3.76226 11.7449C3.814 11.5711 3.96921 11.488 4.10965 11.488C4.25747 11.488 4.4053 11.5711 4.45704 11.7449L4.85617 13.0071C4.90791 13.1583 5.04834 13.2641 5.20356 13.2641H6.50443C6.88139 13.2641 7.02921 13.7251 6.74095 13.9443Z" fill="#CECB90"/>
<path d="M4.12449 11.4804V14.1937L2.46144 16.8541C2.32101 16.7709 2.23231 16.5971 2.29144 16.4081L2.69057 15.146C2.74231 14.9948 2.68318 14.821 2.55753 14.7303L1.50796 13.9518C1.2197 13.7402 1.36753 13.2716 1.72231 13.2716H3.02318C3.18579 13.2716 3.32622 13.1658 3.37057 13.0147L3.7697 11.7525C3.82883 11.5635 3.97666 11.4804 4.12449 11.4804Z" fill="#B3AF80"/>
<path d="M5.81709 14.0879L4.93013 14.2239C4.81186 14.239 4.70839 14.1634 4.68621 14.0425L4.67143 13.9443C4.65665 13.8233 4.73056 13.7175 4.84882 13.6948L5.73578 13.5588C5.85404 13.5437 5.95752 13.6193 5.97969 13.7402L5.99448 13.8384C6.01665 13.9594 5.93535 14.0727 5.81709 14.0879Z" fill="#EBEAE3"/>
<path d="M5.22575 16.2872L4.60488 15.6297C4.52358 15.5466 4.52358 15.403 4.61228 15.3198L4.68619 15.2518C4.76749 15.1687 4.90793 15.1687 4.98923 15.2594L5.6101 15.9169C5.69141 16 5.69141 16.1436 5.60271 16.2268L5.5288 16.2948C5.4401 16.3779 5.30706 16.3704 5.22575 16.2872Z" fill="#EBEAE3"/>
</g>
<defs>
<clipPath id="clip0_1_103">
<rect width="34" height="32" fill="white"/>
</clipPath>
</defs>
</svg>
