<svg width="36" height="36" viewBox="0 0 36 36" fill="none" xmlns="http://www.w3.org/2000/svg">
<path d="M10.9077 23.8509L11.9015 22.8572V21.8634C11.9015 20.7656 11.0117 19.8758 9.91395 19.8758H5.64297C4.54523 19.8758 3.6554 20.7656 3.6554 21.8634V23.7666L10.9077 23.8509Z" fill="#FF6C72"/>
<path d="M11.9015 22.8571H3.65533V21.8633C3.65533 21.8484 3.655 21.8335 3.65427 21.8185L3.02586 7.90545C3.00115 7.35714 2.53725 6.93359 1.98828 6.95751C1.43997 6.98229 1.01556 7.44685 1.04034 7.99516L1.66775 21.8857V28.7918C1.66775 29.3269 2.07898 29.7873 2.61351 29.8125C3.18421 29.8394 3.65533 29.3847 3.65533 28.8199V24.8447H9.91388V28.7918C9.91388 29.3269 10.3251 29.7873 10.8596 29.8125C11.4303 29.8394 11.9015 29.3847 11.9015 28.8199V22.8571Z" fill="#704C55"/>
<path d="M21.9366 28.5468C22.1189 29.1823 21.6397 29.8136 20.9812 29.8136H15.0185C14.3601 29.8136 13.8808 29.1823 14.0631 28.5468L15.905 22.0991L11.2958 16.6293H24.704L20.0948 22.0991L21.9366 28.5468Z" fill="#916A67"/>
<path d="M21.9367 28.5468C22.1189 29.1822 21.6399 29.8136 20.9814 29.8136H18V16.6293H24.7041L20.0949 22.0991L21.9367 28.5468Z" fill="#704C55"/>
<path d="M18.9905 3.97847V7.60845H17.0029V3.97847C17.0029 3.4299 17.4482 2.98468 17.9967 2.98468C18.5453 2.98468 18.9905 3.4299 18.9905 3.97847Z" fill="#DFE7F4"/>
<path d="M18.9905 3.97847V7.60845H18V2.98468C18.5472 2.98667 18.9905 3.43122 18.9905 3.97847Z" fill="#C7CFE1"/>
<path d="M17.9998 1.98758C18.5486 1.98758 18.9936 1.54264 18.9936 0.993788C18.9936 0.444934 18.5486 0 17.9998 0C17.4509 0 17.006 0.444934 17.006 0.993788C17.006 1.54264 17.4509 1.98758 17.9998 1.98758Z" fill="#FFCA6D"/>
<path d="M18.9938 0.993788C18.9938 1.54236 18.5486 1.98758 18 1.98758V0C18.5486 0 18.9938 0.445217 18.9938 0.993788Z" fill="#FFA557"/>
<path d="M19.9845 7.14441H16.016C15.4672 7.14441 15.0222 7.58936 15.0222 8.1382V9.12867C15.0222 10.7707 16.3582 12.1067 18.0003 12.1067C19.6423 12.1067 20.9783 10.7707 20.9783 9.12867V8.1382C20.9783 7.58936 20.5333 7.14441 19.9845 7.14441Z" fill="#99E176"/>
<path d="M20.9781 8.13844V9.12892C20.9781 10.7707 19.6424 12.107 18 12.107V7.14465H19.9843C20.5328 7.14465 20.9781 7.58921 20.9781 8.13844Z" fill="#63CD71"/>
<path d="M26.9441 11.9917H9.05595C7.41203 11.9917 6.07458 13.3291 6.07458 14.9731V15.9669C6.07458 16.5157 6.51954 16.9606 7.06837 16.9606H28.9317C29.4806 16.9606 29.9255 16.5157 29.9255 15.9669V14.9731C29.9255 13.3291 28.5881 11.9917 26.9441 11.9917Z" fill="#FFE887"/>
<path d="M29.9255 14.9731V15.9669C29.9255 16.5154 29.4802 16.9606 28.9317 16.9606H18V11.9917H26.9441C28.5878 11.9917 29.9255 13.3293 29.9255 14.9731Z" fill="#FFCA6D"/>
<path d="M25.0924 23.8509L24.0986 22.8572V21.8634C24.0986 20.7656 24.9885 19.8758 26.0862 19.8758H30.3572C31.4549 19.8758 32.3448 20.7656 32.3448 21.8634V23.7666L25.0924 23.8509Z" fill="#F13C5B"/>
<path d="M24.0986 22.8571H32.3448V21.8633C32.3448 21.8484 32.3451 21.8335 32.3458 21.8185L32.9742 7.90545C32.999 7.35714 33.4629 6.93359 34.0118 6.95751C34.5601 6.98229 34.9845 7.44685 34.9598 7.99516L34.3324 21.8857V28.7918C34.3324 29.3269 33.9211 29.7873 33.3866 29.8125C32.8159 29.8394 32.3448 29.3847 32.3448 28.8199V24.8447H26.0862V28.7918C26.0862 29.3269 25.675 29.7873 25.1405 29.8125C24.5698 29.8394 24.0986 29.3847 24.0986 28.8199V22.8571Z" fill="#5A344B"/>
</svg>
