<svg width="32" height="32" viewBox="0 0 32 32" fill="none" xmlns="http://www.w3.org/2000/svg">
<g clip-path="url(#clip0_1_142)">
<path d="M15.9999 29.4125C24.122 29.4125 30.7062 22.8283 30.7062 14.7062C30.7062 6.58421 24.122 0 15.9999 0C7.87791 0 1.2937 6.58421 1.2937 14.7062C1.2937 22.8283 7.87791 29.4125 15.9999 29.4125Z" fill="#F7B239"/>
<path d="M16.0001 24.3861C21.3462 24.3861 25.68 20.0523 25.68 14.7062C25.68 9.36015 21.3462 5.02631 16.0001 5.02631C10.654 5.02631 6.32019 9.36015 6.32019 14.7062C6.32019 20.0523 10.654 24.3861 16.0001 24.3861Z" fill="#E09B2D"/>
<path d="M29.2312 30.362C29.2613 30.4746 29.276 30.588 29.276 30.6992C29.276 31.2741 28.8925 31.7995 28.3115 31.9554C27.6178 32.1413 26.904 31.7293 26.7181 31.0356L24.5321 22.8773C24.3461 22.1836 24.7581 21.4699 25.4518 21.2839C26.1463 21.098 26.8593 21.51 27.0452 22.2045L29.2312 30.362Z" fill="#F24C8F"/>
<path d="M4.91944 23.0364L6.03735 23.3359L8.98813 12.323L7.87022 12.0234L4.91944 23.0364Z" fill="#CCCCCC"/>
<path d="M23.2894 15.4392L24.894 21.431L26.0121 21.1316L24.4074 15.1398L23.2894 15.4392Z" fill="#CCCCCC"/>
<path d="M10.5281 4.34239C12.3777 4.83777 13.2195 7.69122 12.4093 10.7144C11.5991 13.7384 9.76958 14.5709 7.92001 14.0756C6.07119 13.5802 4.903 11.9444 5.71319 8.92041C6.52338 5.89646 8.67926 3.84702 10.5281 4.34239Z" fill="#E6E6E6"/>
<path d="M5.98869 21.284C6.68313 21.4699 7.09444 22.1837 6.90844 22.8774L4.72325 31.0357C4.56737 31.6167 4.04187 32.0002 3.46705 32.0002C3.35593 32.0002 3.24249 31.9855 3.12987 31.9554C2.43542 31.7695 2.02336 31.0557 2.2093 30.362L4.39531 22.2045C4.58125 21.51 5.295 21.098 5.98869 21.284Z" fill="#F24C8F"/>
<path d="M26.1317 12.044L24.2821 5.1408C24.2091 4.86867 23.9259 4.7088 23.6537 4.79017C23.3903 4.86898 23.2475 5.1553 23.3186 5.4208L24.7933 10.9233C24.9035 11.3348 24.6594 11.7578 24.2479 11.8681L24.2472 11.8682C23.8356 11.9786 23.4124 11.7343 23.3021 11.3228L21.8221 5.79961C21.7492 5.5273 21.4656 5.36749 21.1935 5.44905C20.9302 5.52799 20.7876 5.81424 20.8587 6.07968L22.3333 11.5826C22.4436 11.9942 22.1994 12.4172 21.7878 12.5276C21.3762 12.6378 20.9532 12.3936 20.8429 11.9821L19.3629 6.45862C19.29 6.18637 19.0067 6.02661 18.7345 6.10799C18.4712 6.1868 18.3283 6.47305 18.3994 6.73856L20.2434 13.6209C20.4539 14.4076 20.9581 15.065 21.6634 15.4722C22.1331 15.7435 22.6543 15.882 23.1825 15.882C23.4473 15.882 23.7141 15.8471 23.9768 15.7767C25.3069 15.4202 26.2358 14.2104 26.2358 12.8347C26.2358 12.5669 26.2008 12.3005 26.1317 12.044Z" fill="#E6E6E6"/>
</g>
<defs>
<clipPath id="clip0_1_142">
<rect width="32.0001" height="32.0001" fill="white"/>
</clipPath>
</defs>
</svg>
