<svg width="18" height="32" viewBox="0 0 18 32" fill="none" xmlns="http://www.w3.org/2000/svg">
<g clip-path="url(#clip0_1_178)">
<path d="M15.3512 20.6728C14.7342 22.2603 14.4177 24.4648 14.4177 27.8665C12.3481 28.3913 10.1758 28.3531 8.12587 27.7557C1.76018 25.7569 -0.771325 17.9936 1.55977 12.572C3.11187 13.6992 4.90473 14.4503 6.79683 14.7659C9.30197 15.1668 11.3588 15.6309 13.1256 17.2816C14.1095 18.2332 14.8697 19.3915 15.3512 20.6728Z" fill="#24AE5F"/>
<path d="M14.945 28.3939C14.7517 28.3944 14.5736 28.2892 14.4809 28.1196C14.4809 28.0774 12.155 23.9585 6.7492 20.2825C6.56728 20.1026 6.54074 19.8181 6.68624 19.6076C6.83174 19.3971 7.10731 19.3215 7.33989 19.4281C12.9725 23.2623 15.3089 27.4551 15.4091 27.6344C15.4766 27.7574 15.4922 27.9023 15.4526 28.0369C15.4131 28.1715 15.3215 28.2848 15.1981 28.3517C15.1185 28.3864 15.0315 28.4009 14.945 28.3939Z" fill="#4C8056"/>
<path d="M22.814 30.2873C20.8822 30.9129 18.8489 31.1653 16.8228 31.0309C16.7226 31.0309 16.6329 30.9518 16.5327 30.9412V31.0309C16.2654 31.0315 16.0023 30.9643 15.768 30.8357C15.0191 30.4455 14.4178 29.4487 14.4178 27.8665C14.4178 24.4648 14.7343 22.2603 15.3513 20.6781C15.7259 19.6899 16.3191 18.7993 17.0865 18.0727C19.117 16.1424 21.4692 15.6045 24.3329 15.1351C26.5026 14.7651 28.5538 13.8868 30.3189 12.572C32.9822 18.9007 30.1027 27.972 22.814 30.2873Z" fill="#4FBA6F"/>
<path d="M23.0565 8.60064L16.3743 15.3566C16.253 15.4786 16.0798 15.5337 15.9102 15.5043C15.6676 15.4674 16.2109 15.9473 8.94859 8.60064C5.94242 5.5681 8.15222 0.4418 12.3081 0.4418C13.5646 0.434884 14.7698 0.939428 15.6465 1.8394L16.021 2.20858L16.3954 1.8394C17.2086 1.00724 18.3033 0.508803 19.4649 0.4418C23.779 0.220293 26.0943 5.51009 23.0565 8.60064Z" fill="#DF4D60"/>
<path d="M22.1757 8.60061L16.3269 15.3566C16.2277 15.4815 16.0659 15.5388 15.9102 15.5043C15.7098 15.4515 16.1739 15.9367 9.82932 8.60061C7.26089 5.63664 9.02768 0.658006 12.5349 0.441772C13.7036 0.500136 14.8073 0.997366 15.6254 1.8341L15.9999 2.20328L16.3743 1.8341C17.1936 0.999093 18.2966 0.502185 19.4649 0.441772C23.0407 0.658006 24.6809 5.67883 22.1757 8.60061Z" fill="#FF5364"/>
<path d="M10.1986 7.35069C10.0326 7.35069 9.8763 7.27253 9.7767 7.13973C8.83756 5.86146 8.96258 4.09107 10.072 2.95747C10.2049 2.82369 10.399 2.77094 10.5813 2.81909C10.7635 2.86724 10.9063 3.00897 10.9557 3.1909C11.0052 3.37283 10.9538 3.56732 10.8209 3.7011C10.0753 4.46284 9.99051 5.65231 10.6205 6.51213C10.7953 6.74515 10.7481 7.07572 10.5151 7.25048C10.4231 7.31707 10.3121 7.35221 10.1986 7.35069Z" fill="white"/>
<path d="M12.8357 3.14213H12.7249C12.5889 3.10551 12.4491 3.08428 12.3083 3.07884C12.017 3.07884 11.7809 2.84272 11.7809 2.55145C11.7809 2.26017 12.017 2.02405 12.3083 2.02405C12.5209 2.02804 12.7327 2.05099 12.9412 2.09261C13.2324 2.12319 13.4438 2.38411 13.4132 2.67538C13.3826 2.96666 13.1217 3.17799 12.8304 3.14741L12.8357 3.14213Z" fill="white"/>
<path d="M24.9656 21.4902C21.4289 23.8649 18.6122 27.1651 16.8226 31.0309H16.5272C16.2599 31.0314 15.9968 30.9643 15.7625 30.8357C15.7602 30.8112 15.7602 30.7864 15.7625 30.7619C15.8469 30.5298 17.8721 25.1029 24.3327 20.6253C24.5716 20.4505 24.9068 20.5025 25.0816 20.7413C25.2564 20.9802 25.2044 21.3155 24.9656 21.4902Z" fill="#4C8056"/>
</g>
<defs>
<clipPath id="clip0_1_178">
<rect width="31.1165" height="31.1165" fill="white" transform="translate(0.441772 0.441772)"/>
</clipPath>
</defs>
</svg>
