<svg width="40" height="26" viewBox="0 0 40 26" fill="none" xmlns="http://www.w3.org/2000/svg">
<path d="M29.0913 15.0921C29.2291 15.0809 29.3555 15.0583 29.4933 15.047C29.5508 15.0357 29.6082 15.1034 29.6082 15.1598C29.6082 15.2275 29.5508 15.2613 29.4933 15.2726C29.3555 15.2839 29.2291 15.3064 29.0913 15.3177C29.0339 15.329 28.9764 15.2613 28.9764 15.2049C28.965 15.1373 29.0224 15.1034 29.0913 15.0921Z" fill="#F6C03B"/>
<path d="M7.92251 14.5733C7.78468 14.562 7.65833 14.5394 7.5205 14.5282C7.46307 14.5169 7.40564 14.5846 7.40564 14.6409C7.40564 14.7086 7.46307 14.7425 7.5205 14.7537C7.65833 14.765 7.78468 14.7876 7.92251 14.7988C7.97994 14.8101 8.03737 14.7425 8.03737 14.6861C8.03737 14.6184 7.97994 14.5733 7.92251 14.5733Z" fill="#F6C03B"/>
<path d="M30.596 23.5288L28.8386 23.0325C28.8386 23.0325 29.8149 18.8481 29.5163 14.7878C29.2176 10.7161 28.6318 7.02798 28.6318 7.02798L29.0568 6.73473L29.0913 6.71218C29.1028 6.7009 32.0432 11.7538 30.596 23.5288Z" fill="#855E4F"/>
<path d="M29.1027 6.70099L29.0682 6.72355C29.1716 6.97168 29.0912 7.2762 28.873 7.37771C28.8155 7.40027 28.85 7.50178 28.896 7.4905C29.1257 7.42283 29.3554 7.51306 29.4703 7.81758C29.5736 8.13339 29.4473 8.48303 29.1831 8.51687C29.1257 8.52815 29.1372 8.62965 29.1831 8.62965C29.4013 8.61838 29.677 8.68605 29.8148 8.95674C30.0216 9.36277 29.6655 9.58835 29.4358 9.67858C29.4243 9.67858 29.4013 9.67858 29.3899 9.67858C29.3439 9.67858 29.3439 9.74625 29.3669 9.78009C29.3784 9.80264 29.3899 9.81392 29.4128 9.81392C29.4243 9.81392 29.4358 9.80264 29.4358 9.80264C29.677 9.83648 29.9297 9.92671 30.0675 10.2312C30.2284 10.5809 30.079 11.1674 29.723 11.032C29.6655 11.0207 29.654 11.1223 29.7115 11.1448C30.0446 11.235 30.2054 11.6298 30.3202 12.0246C30.481 12.5547 30.1135 12.9269 29.7689 12.9832C29.7344 12.9945 29.7115 13.0622 29.7574 13.096C30.0216 13.2765 30.5844 13.2765 30.6304 13.8066C30.6763 14.3254 30.2858 14.5059 29.9642 14.5848C29.8953 14.5961 29.8263 14.6074 29.7689 14.6187C29.7115 14.6299 29.723 14.7427 29.7689 14.7315C29.8378 14.7202 29.9182 14.7089 29.9986 14.6863C30.3202 14.6525 30.6533 14.754 30.6648 15.2954C30.6763 15.7917 30.3547 16.0736 30.0331 16.1413C29.9986 16.1413 29.9642 16.1526 29.9297 16.1526C29.8723 16.1639 29.8838 16.2766 29.9412 16.2654C29.9986 16.2654 30.0446 16.2541 30.102 16.2315C30.2283 16.209 30.3662 16.209 30.481 16.2992C30.6763 16.4458 30.6648 16.7616 30.6074 17.021C30.55 17.3256 30.4351 17.4722 30.2054 17.4947C30.1135 17.506 30.0216 17.506 29.9182 17.5286C29.9182 17.5286 29.9182 17.5286 29.9067 17.5286H29.8953C29.8493 17.5399 29.8608 17.6526 29.9067 17.6414C30.2398 17.5737 30.8256 17.7767 30.6878 18.4196C30.6074 18.8144 30.3202 18.8933 30.0446 18.8482C29.9642 18.8144 29.8952 18.8031 29.8148 18.7805C29.8034 18.7805 29.8034 18.7692 29.7919 18.7692C29.7459 18.7467 29.723 18.8482 29.7689 18.882C29.7689 18.882 29.7804 18.882 29.7804 18.8933H29.7919C29.8608 18.9159 29.9297 18.9384 29.9986 18.9497C30.1135 18.9948 30.2169 19.0512 30.2973 19.1527C30.4581 19.3557 30.4466 19.7167 30.4121 19.9986C30.3317 20.6415 29.9412 20.7205 29.5277 20.6866C29.4817 20.6866 29.4703 20.7881 29.5162 20.7994C29.8838 20.8445 30.1365 21.2619 30.2054 21.7243C30.2398 21.9386 30.2398 22.0965 30.0905 22.2544C30.0216 22.3221 29.9412 22.3559 29.8608 22.3897C29.6885 22.4687 29.5047 22.48 29.3209 22.4687C29.275 22.4687 29.275 22.5702 29.3095 22.5815C29.4817 22.6379 29.677 22.6943 29.8148 22.8522C29.9412 22.9988 29.9757 23.1567 29.9986 23.3597L30.5729 23.5176C32.0432 11.7539 29.1027 6.70099 29.1027 6.70099Z" fill="#775044"/>
<path d="M23.1759 7.16321C23.1988 7.49029 23.3137 7.79482 23.4056 8.09934C23.5664 8.02039 23.7272 7.93016 23.8995 7.85121C23.8995 7.76098 23.888 7.67075 23.8765 7.58052C23.8765 7.51285 23.9684 7.50157 23.9914 7.55796C24.0143 7.62563 24.0373 7.70459 24.0603 7.77226C25.4386 7.15193 27.173 6.67822 29.0797 6.85868C29.0797 6.85868 24.738 4.12922 21.8664 7.23088C20.6949 8.52793 20.8097 9.89266 20.8097 9.89266C20.8097 9.89266 21.1084 9.61069 21.6367 9.22722C21.6597 8.95653 21.6827 8.69712 21.7401 8.42643C21.7516 8.35875 21.8435 8.37003 21.855 8.4377C21.8779 8.64072 21.9009 8.84374 21.9009 9.03548C22.234 8.79862 22.6475 8.53921 23.1184 8.26852C23.1069 8.13318 23.084 7.99783 23.084 7.85121C23.0725 7.62563 23.084 7.40006 23.0725 7.17448C23.061 7.10681 23.1759 7.09553 23.1759 7.16321Z" fill="#AFC737"/>
<path d="M20.8097 9.89257C20.8097 9.89257 20.6374 6.92626 23.9914 6.02396C27.3453 5.12167 29.0912 6.88115 29.0912 6.88115C29.0912 6.88115 25.2089 5.64049 23.4515 6.63302C21.6827 7.62555 20.8097 9.89257 20.8097 9.89257Z" fill="#A3B20B"/>
<path d="M26.794 5.66326C26.8515 5.52792 26.863 5.39257 26.9089 5.25723C26.9319 5.20083 27.0123 5.20083 27.0238 5.26851C27.0582 5.52792 27.1271 5.78733 27.0467 6.04674C28.1379 6.39638 29.0798 6.89265 29.0798 6.89265C29.0798 6.89265 27.644 3.93762 24.8414 3.75716C22.0388 3.5767 20.1896 6.57684 20.1896 6.57684C20.1896 6.57684 21.0051 6.33999 22.0733 6.11441C22.1192 5.97907 22.1422 5.84372 22.1881 5.70838C22.2456 5.5392 22.303 5.38129 22.3719 5.22339C22.3949 5.15572 22.4868 5.20083 22.4868 5.25723C22.4638 5.41513 22.4294 5.58431 22.4294 5.75349C22.4294 5.855 22.4408 5.94523 22.4408 6.03546C22.751 5.97907 23.0611 5.9114 23.3827 5.86628L23.4861 5.55048C23.4976 5.49408 23.578 5.4828 23.6009 5.5392C23.6354 5.62943 23.6469 5.71966 23.6698 5.82117C23.8651 5.78733 24.0719 5.76477 24.2671 5.74221C24.3705 5.44897 24.4279 5.15572 24.5083 4.86247C24.5313 4.7948 24.6117 4.80608 24.6232 4.87375C24.6462 5.04293 24.6691 5.21211 24.6921 5.39257C24.7036 5.4828 24.7495 5.61815 24.738 5.71966C24.8989 5.70838 25.0597 5.70838 25.209 5.70838C25.6684 5.70838 26.1738 5.80989 26.6792 5.94523C26.7136 5.83244 26.7596 5.75349 26.794 5.66326Z" fill="#AFC737"/>
<path d="M20.1896 6.56551C20.1896 6.56551 21.8206 3.52025 24.8414 3.74583C27.8623 3.9714 28.6318 6.53168 28.6318 6.53168C28.6318 6.53168 26.5299 3.91501 24.4164 4.26465C21.4875 4.76091 20.1896 6.56551 20.1896 6.56551Z" fill="#A3B20B"/>
<path d="M32.2383 5.212C30.4695 4.94131 28.7466 6.88125 28.7466 6.88125L29.6195 7.06171C30.2053 6.77975 31.0897 6.73463 31.9742 6.79102C32.0201 6.6444 32.066 6.4865 32.1694 6.37371C32.2039 6.33987 32.2728 6.35115 32.2728 6.40755C32.2728 6.54289 32.2383 6.67824 32.1924 6.8023C32.3762 6.81358 32.5599 6.83614 32.7322 6.8587C32.8126 6.66696 32.893 6.47522 32.9734 6.28348C32.9964 6.22709 33.0883 6.24965 33.0883 6.30604C33.0768 6.50906 33.0194 6.70079 32.9505 6.88125C33.2951 6.92637 33.6167 6.98276 33.9038 7.03916C33.9038 6.97148 33.9153 6.89253 33.9268 6.82486C33.9268 6.74591 33.9268 6.67824 33.9383 6.59929C33.9383 6.57673 33.9498 6.56545 33.9727 6.55417C34.0072 6.52033 34.0646 6.53161 34.0761 6.58801C34.0876 6.75719 34.1335 6.91509 34.145 7.08427C34.7078 7.19706 35.0754 7.29857 35.0754 7.29857C35.0754 7.29857 34.0072 5.49397 32.2383 5.212Z" fill="#AFC737"/>
<path d="M29.0682 6.64445C29.0682 6.64445 30.1135 4.95264 32.2384 5.21205C34.3518 5.47146 35.0639 7.30989 35.0639 7.30989C35.0639 7.30989 33.5708 5.52785 32.0776 5.53913C30.5844 5.55041 29.0682 6.64445 29.0682 6.64445Z" fill="#A3B20B"/>
<path d="M31.3194 2.56153C31.3309 2.56153 31.3539 2.56153 31.3654 2.57281C31.5147 2.64048 31.664 2.70816 31.8019 2.78711C32.2843 2.35852 32.6978 2.05399 32.6978 2.05399C32.6978 2.05399 29.7114 1.49005 28.5168 3.19314C27.3223 4.90751 28.7121 6.9828 28.7121 6.9828C28.7121 6.9828 30.0215 5.85492 30.3087 4.88495C30.2053 4.83984 30.1134 4.78344 30.056 4.69321C30.0215 4.6481 30.0675 4.60298 30.1134 4.60298C30.1938 4.61426 30.2742 4.63682 30.3546 4.65938C30.3891 4.4338 30.5269 4.17439 30.7337 3.9037C30.6877 3.85859 30.6533 3.80219 30.6073 3.75708C30.481 3.63301 30.3431 3.52023 30.2053 3.41872C30.1479 3.3736 30.2168 3.29465 30.2742 3.32849C30.4924 3.43 30.7107 3.54278 30.8945 3.70069C31.1127 3.44127 31.3539 3.19314 31.6066 2.96757C31.5032 2.87734 31.3884 2.78711 31.2965 2.67432C31.285 2.67432 31.285 2.66304 31.2735 2.66304C31.2161 2.64048 31.262 2.55025 31.3194 2.56153Z" fill="#AFC737"/>
<path d="M32.7093 2.06522C32.7093 2.06522 29.6655 2.26824 29.0567 3.46379C28.0919 5.36989 28.7466 6.88125 28.7466 6.88125C28.7466 6.88125 27.3568 5.40373 28.4135 3.37356C29.4702 1.34338 32.7093 2.06522 32.7093 2.06522Z" fill="#A3B20B"/>
<path d="M32.0546 6.63319C30.4351 5.59555 28.7236 6.19332 28.7236 6.99411C29.4473 7.02795 30.1479 7.28736 30.7911 7.67084C30.9749 7.43398 31.2506 7.25352 31.4918 7.06178C31.5377 7.01667 31.5951 7.08434 31.5722 7.14073C31.4688 7.41142 31.2735 7.62572 31.1012 7.86257C31.2391 7.9528 31.3884 8.05431 31.5147 8.15582C31.5492 8.12199 31.5951 8.09943 31.6296 8.06559C31.7445 7.97536 31.8364 7.8513 31.9168 7.73851C31.9512 7.69339 32.0316 7.73851 32.0201 7.78362C31.9627 7.97536 31.9053 8.18966 31.7789 8.34756C32.2384 8.71976 32.6519 9.12579 32.9735 9.47543C32.985 9.31753 33.0079 9.17091 33.0424 9.01301C33.0539 8.95661 33.1572 8.95661 33.1572 9.02428C33.1572 9.26114 33.1917 9.49799 33.2032 9.73485C33.5822 10.1747 33.812 10.4905 33.812 10.4905C33.812 10.4905 33.6741 7.67084 32.0546 6.63319Z" fill="#AFC737"/>
<path d="M28.7236 6.98283C28.7236 6.98283 28.6662 5.88879 30.3776 6.08053C32.0775 6.27227 32.7897 7.05051 33.2721 8.15582C33.743 9.27242 33.8234 10.5018 33.8234 10.5018C33.8234 10.5018 33.1802 7.32119 31.5032 6.68959C29.8033 6.06925 28.7236 6.98283 28.7236 6.98283Z" fill="#A3B20B"/>
<path d="M22.8658 6.6784C22.8658 6.6784 23.601 6.4641 24.6692 6.37387C24.7266 6.23853 24.784 6.0919 24.8529 5.95656C24.8874 5.90017 24.9678 5.934 24.9678 5.99039C24.9448 6.11446 24.9219 6.23853 24.8874 6.35131C25.232 6.32876 25.5995 6.32876 25.9786 6.34004C25.9901 6.19341 25.9671 6.03551 25.9556 5.88889C25.9441 5.82121 26.0475 5.80994 26.0705 5.86633C26.1049 5.96784 26.2542 6.22725 26.1853 6.35131C27.0008 6.40771 27.8853 6.58817 28.7352 6.98292C28.7237 6.98292 25.7144 2.93386 22.8658 6.6784Z" fill="#AFC737"/>
<path d="M28.7467 6.88145C28.7467 6.88145 27.4143 5.12196 25.5995 5.08813C23.6124 5.06557 22.8658 6.66715 22.8658 6.66715C22.8658 6.66715 24.5543 5.22347 25.9441 5.39265C27.311 5.57311 28.7467 6.88145 28.7467 6.88145Z" fill="#A3B20B"/>
<path d="M29.0913 6.88134C29.0913 6.88134 24.6118 6.49787 23.9915 9.80254C23.7273 11.2237 24.6118 12.7801 24.6118 12.7801C24.6118 12.7801 24.7841 12.0808 25.1516 11.2011C25.0597 10.953 24.9219 10.7161 24.8874 10.4454C24.876 10.389 24.9449 10.3665 24.9793 10.4003C25.1057 10.5131 25.232 10.6597 25.3124 10.8176C25.5192 10.3778 25.7604 9.90404 26.059 9.4529C26.0016 9.26116 25.9327 9.0807 25.9097 8.87768C25.8982 8.82129 25.9671 8.79873 26.0016 8.83256C26.105 8.91152 26.2198 9.03558 26.2543 9.17093C26.3691 9.01302 26.484 8.8664 26.6103 8.71978C26.5414 8.61827 26.4955 8.51676 26.461 8.40397C26.4381 8.3363 26.5529 8.29118 26.5759 8.37014C26.5989 8.46037 26.6448 8.5506 26.6907 8.62955C27.1502 8.122 27.7015 7.70469 28.3447 7.50167C30.1366 6.94902 29.0913 6.88134 29.0913 6.88134Z" fill="#AFC737"/>
<path d="M28.7467 6.88134C28.7467 6.88134 25.8637 6.64449 24.5543 8.48292C23.0612 10.5808 24.6118 12.7914 24.6118 12.7914C24.6118 12.7914 23.9571 9.71231 25.278 8.42653C26.5874 7.15203 28.7467 6.88134 28.7467 6.88134Z" fill="#A3B20B"/>
<path d="M30.1595 7.17458C30.1135 7.38888 29.9757 7.55806 29.7919 7.65957C29.7574 7.68213 29.723 7.69341 29.6885 7.70469C29.5622 7.7498 29.4358 7.76108 29.298 7.72724C29.1832 7.70469 29.0798 7.64829 28.9879 7.58062C28.7926 7.42272 28.6778 7.17458 28.7237 6.90389C28.7237 6.89262 28.7237 6.88134 28.7237 6.88134C28.7582 6.72343 28.8501 6.57681 28.9649 6.48658C29.1257 6.35123 29.3554 6.28356 29.5852 6.32868C29.9872 6.40763 30.2399 6.79111 30.1595 7.17458Z" fill="#564E4E"/>
<path d="M29.2406 7.18581C29.321 6.80233 29.0683 6.41886 28.6778 6.33991C28.2872 6.26095 27.8967 6.50909 27.8163 6.89256C27.7359 7.27604 27.9886 7.65952 28.3791 7.73847C28.7696 7.81742 29.1602 7.56929 29.2406 7.18581Z" fill="#564E4E"/>
<path d="M29.8034 7.6482C29.7689 7.67076 29.7345 7.68204 29.7 7.69332C29.7 7.7046 29.7 7.71587 29.6885 7.72715C29.6541 7.89633 29.5622 8.03168 29.4358 8.13319C29.2865 8.21214 29.1142 8.24598 28.9304 8.21214C28.6663 8.15575 28.471 7.97528 28.3906 7.73843C28.3447 7.62564 28.3447 7.4903 28.3676 7.36623C28.4021 7.19705 28.494 7.06171 28.6203 6.9602C28.6548 6.92636 28.6892 6.90381 28.7352 6.88125C28.873 6.8023 29.0453 6.77974 29.2061 6.8023C29.2176 6.8023 29.2176 6.8023 29.2291 6.8023C29.6311 6.89253 29.8838 7.26473 29.8034 7.6482Z" fill="#473D3D"/>
<path d="M29.7 7.69334C29.7 7.70462 29.7 7.7159 29.6885 7.72718C29.654 7.89636 29.5622 8.0317 29.4358 8.13321C29.275 8.26855 29.0453 8.32495 28.827 8.27983C28.5284 8.22344 28.3102 7.97531 28.2642 7.70462C28.2527 7.62567 28.2527 7.53544 28.2642 7.44521C28.3102 7.23091 28.448 7.06173 28.6203 6.9715C28.6548 6.94894 28.6892 6.93767 28.7352 6.92639C28.8615 6.88127 28.9879 6.86999 29.1257 6.90383C29.1716 6.91511 29.2061 6.92639 29.2405 6.93767C29.5622 7.03917 29.7574 7.36626 29.7 7.69334Z" fill="#564E4E"/>
<path d="M6.25705 25.6491L8.24413 25.0626C8.24413 25.0626 7.12999 20.1 7.47457 15.2614C7.80766 10.4228 8.47385 6.04669 8.47385 6.04669L7.99144 5.69704L7.94549 5.66321C7.94549 5.66321 4.60306 11.6522 6.25705 25.6491Z" fill="#855E4F"/>
<path d="M6.25705 25.6491L6.91175 25.4574C6.93472 25.2318 6.96918 25.0288 7.1185 24.8596C7.2793 24.6679 7.49754 24.5889 7.6928 24.5325C7.73874 24.5213 7.73874 24.3972 7.68131 24.3972C7.47457 24.4198 7.26782 24.3972 7.07255 24.307C6.99215 24.2731 6.88878 24.2167 6.80838 24.1378C6.63608 23.9573 6.64757 23.7656 6.68203 23.5062C6.76243 22.9535 7.04958 22.4573 7.46308 22.4009C7.52051 22.3896 7.50902 22.2655 7.45159 22.2655C6.98067 22.3106 6.5442 22.2091 6.45231 21.4422C6.40636 21.1151 6.39488 20.6865 6.57865 20.4384C6.67054 20.3143 6.79689 20.2466 6.91175 20.1902C6.99215 20.179 7.07255 20.1451 7.15296 20.1113H7.16444L7.17593 20.1C7.23336 20.0662 7.21039 19.9421 7.15296 19.9759C7.14147 19.9759 7.12998 19.9872 7.12998 19.9872C7.04958 20.0098 6.95769 20.0323 6.87729 20.0662C6.57866 20.1226 6.24556 20.021 6.15367 19.5586C5.99287 18.8029 6.65906 18.5548 7.0381 18.6338C7.09553 18.645 7.10701 18.521 7.06107 18.4984H7.04958H7.0381C6.93472 18.4759 6.83135 18.4759 6.71649 18.4646C6.45231 18.442 6.32596 18.2616 6.25705 17.9006C6.19962 17.5961 6.17664 17.2239 6.40636 17.0435C6.53271 16.942 6.68203 16.942 6.83135 16.9645C6.88878 16.9871 6.94621 16.9983 7.00364 16.9983C7.06107 16.9983 7.07255 16.8743 7.01512 16.863C6.98067 16.8517 6.94621 16.8517 6.90026 16.8404C6.53271 16.7615 6.17664 16.4231 6.18813 15.8366C6.19962 15.1937 6.57866 15.0697 6.93472 15.1148C7.02661 15.1374 7.10701 15.1486 7.18741 15.1599C7.24485 15.1712 7.25633 15.0358 7.18741 15.0246C7.1185 15.002 7.0381 14.9907 6.95769 14.9795C6.59014 14.8892 6.14219 14.6749 6.19962 14.0546C6.24556 13.4343 6.88878 13.4343 7.18741 13.22C7.23336 13.1861 7.21039 13.0959 7.16444 13.0959C6.77392 13.0282 6.36042 12.5884 6.53271 11.9567C6.67054 11.483 6.85432 11.0093 7.23336 10.9078C7.29079 10.8853 7.2793 10.7612 7.21039 10.7725C6.79689 10.9417 6.63609 10.2537 6.81986 9.82506C6.96918 9.47542 7.26782 9.35136 7.54348 9.31752C7.55497 9.31752 7.56645 9.3288 7.57794 9.3288C7.60091 9.34008 7.62388 9.31752 7.63537 9.29496C7.66983 9.26113 7.65834 9.1709 7.6124 9.1709C7.58943 9.1709 7.57794 9.1709 7.55497 9.18218C7.29079 9.08067 6.87729 8.80998 7.1185 8.32499C7.2793 8.00919 7.58943 7.93024 7.84212 7.94151C7.89955 7.94151 7.91103 7.81745 7.8536 7.80617C7.55497 7.77233 7.40565 7.34374 7.532 6.97154C7.64686 6.61062 7.92252 6.50911 8.17521 6.58807C8.23264 6.61062 8.2671 6.48656 8.20967 6.45272C7.95698 6.33993 7.86509 5.96773 7.97995 5.67449L7.94549 5.66321C7.94549 5.66321 4.60306 11.6522 6.25705 25.6491Z" fill="#775044"/>
<path d="M15.0209 6.21564C14.9979 6.59911 14.8601 6.96003 14.7452 7.33223C14.5615 7.23072 14.3547 7.14049 14.1594 7.03898C14.1594 6.93748 14.1824 6.82469 14.1824 6.72318C14.1824 6.64423 14.0676 6.62167 14.0446 6.70062C14.0216 6.79085 13.9986 6.8698 13.9642 6.96003C12.3217 6.22691 10.2657 5.66298 8.00293 5.87727C8.00293 5.87727 13.1487 2.62899 16.5715 6.31714C17.9728 7.8285 17.835 9.45264 17.835 9.45264C17.835 9.45264 17.4904 9.12555 16.8587 8.66312C16.8242 8.34732 16.8012 8.03151 16.7323 7.71571C16.7208 7.63676 16.606 7.64804 16.5945 7.72699C16.5715 7.96384 16.5371 8.2007 16.5485 8.43755C16.1465 8.15558 15.6526 7.83978 15.1013 7.53525C15.1128 7.36607 15.1358 7.20817 15.1472 7.03898C15.1702 6.76829 15.1472 6.4976 15.1587 6.22691C15.1587 6.13668 15.0209 6.12541 15.0209 6.21564Z" fill="#AFC737"/>
<path d="M17.835 9.44137C17.835 9.44137 18.0417 5.9224 14.0561 4.85092C10.0704 3.77944 8.00293 5.87729 8.00293 5.87729C8.00293 5.87729 12.6088 4.39977 14.7108 5.58404C16.7898 6.74575 17.835 9.44137 17.835 9.44137Z" fill="#A3B20B"/>
<path d="M10.7251 4.42239C10.6562 4.26449 10.6447 4.09531 10.5873 3.9374C10.5643 3.86973 10.461 3.86973 10.4495 3.94868C10.4035 4.25321 10.3346 4.56901 10.415 4.87354C9.11709 5.29085 7.99146 5.87734 7.99146 5.87734C7.99146 5.87734 9.70288 2.36966 13.0338 2.14408C16.3648 1.92979 18.5586 5.48259 18.5586 5.48259C18.5586 5.48259 17.5823 5.20062 16.3188 4.92993C16.2614 4.77203 16.2269 4.60285 16.181 4.44495C16.1121 4.25321 16.0432 4.06147 15.9628 3.86973C15.9283 3.79078 15.8249 3.84717 15.8364 3.91485C15.8709 4.10658 15.9053 4.29832 15.9053 4.50134C15.9053 4.61413 15.8939 4.72691 15.8939 4.8397C15.5263 4.77203 15.1473 4.69308 14.7682 4.63668L14.6534 4.26449C14.6304 4.19681 14.5385 4.18554 14.5155 4.25321C14.4811 4.35472 14.4581 4.4675 14.4351 4.58029C14.1939 4.54645 13.9642 4.51262 13.723 4.49006C13.6081 4.1517 13.5392 3.79078 13.4473 3.44114C13.4244 3.36219 13.321 3.37347 13.3095 3.45242C13.275 3.65543 13.2521 3.85845 13.2176 4.06147C13.2061 4.17426 13.1487 4.33216 13.1602 4.44495C12.9649 4.43367 12.7811 4.42239 12.5974 4.42239C12.0575 4.42239 11.4488 4.53518 10.8515 4.70436C10.8285 4.62541 10.7711 4.5239 10.7251 4.42239Z" fill="#AFC737"/>
<path d="M18.5702 5.49387C18.5702 5.49387 16.629 1.8734 13.0454 2.15536C9.46173 2.42605 8.54285 5.47132 8.54285 5.47132C8.54285 5.47132 11.0353 2.35838 13.5508 2.7757C17.0195 3.35091 18.5702 5.49387 18.5702 5.49387Z" fill="#A3B20B"/>
<path d="M4.25847 3.89243C6.36041 3.56535 8.40493 5.86621 8.40493 5.86621L7.37118 6.08051C6.67054 5.74215 5.62531 5.69703 4.58008 5.76471C4.53413 5.58425 4.4767 5.40379 4.33887 5.27972C4.30441 5.24588 4.21252 5.25716 4.21252 5.32483C4.21252 5.48274 4.25847 5.64064 4.30441 5.79854C4.08618 5.8211 3.86794 5.84366 3.66119 5.86621C3.55782 5.64064 3.46593 5.41506 3.37404 5.18949C3.35107 5.1331 3.23621 5.14437 3.24769 5.21205C3.25918 5.4489 3.3281 5.67448 3.41998 5.90005C3.01797 5.95644 2.62745 6.02412 2.28287 6.09179C2.27138 6.00156 2.27138 5.92261 2.25989 5.83238C2.25989 5.74215 2.25989 5.65192 2.24841 5.57297C2.24841 5.55041 2.23692 5.52785 2.21395 5.51657C2.17949 5.48274 2.09909 5.49402 2.09909 5.56169C2.0876 5.76471 2.03017 5.95644 2.0072 6.14818C1.34101 6.28353 0.904541 6.39632 0.904541 6.39632C0.904541 6.39632 2.15652 4.21952 4.25847 3.89243Z" fill="#AFC737"/>
<path d="M8.0144 5.59556C8.0144 5.59556 6.77391 3.58794 4.25846 3.89247C1.74302 4.20827 0.904541 6.38507 0.904541 6.38507C0.904541 6.38507 2.67339 4.27595 4.45373 4.28722C6.22258 4.28722 8.0144 5.59556 8.0144 5.59556Z" fill="#A3B20B"/>
<path d="M5.33807 0.7456C5.3151 0.7456 5.30361 0.7456 5.28064 0.768158C5.09687 0.847109 4.92457 0.92606 4.75228 1.01629C4.17798 0.508746 3.68408 0.147827 3.68408 0.147827C3.68408 0.147827 7.23327 -0.528898 8.64605 1.50128C10.0703 3.53145 8.41633 6.00149 8.41633 6.00149C8.41633 6.00149 6.8772 4.65932 6.54411 3.50889C6.65897 3.4525 6.77383 3.3961 6.84274 3.28332C6.8772 3.22692 6.83126 3.17053 6.77383 3.18181C6.67045 3.19309 6.57857 3.22692 6.48668 3.24948C6.44073 2.97879 6.27993 2.67427 6.03872 2.35846C6.08467 2.30207 6.1421 2.23439 6.18804 2.18928C6.33736 2.04266 6.49816 1.90731 6.65897 1.78324C6.72788 1.73813 6.64748 1.63662 6.57857 1.67046C6.31439 1.79452 6.06169 1.92987 5.83197 2.11033C5.57928 1.8058 5.28064 1.51255 4.98201 1.23059C5.10835 1.1178 5.2347 1.01629 5.34956 0.880945C5.36104 0.880945 5.36104 0.869666 5.37253 0.869666C5.46442 0.824551 5.41847 0.734321 5.33807 0.7456Z" fill="#AFC737"/>
<path d="M3.69556 0.147842C3.69556 0.147842 7.31366 0.395975 8.02579 1.80582C9.17439 4.07285 8.40483 5.86617 8.40483 5.86617C8.40483 5.86617 10.0588 4.10668 8.79535 1.70431C7.54338 -0.709342 3.69556 0.147842 3.69556 0.147842Z" fill="#A3B20B"/>
<path d="M4.47668 5.57308C6.40633 4.3437 8.43936 5.05426 8.43936 6.00168C7.57791 6.03551 6.73943 6.35132 5.98135 6.80247C5.76311 6.5205 5.43002 6.3062 5.15435 6.08063C5.09692 6.03551 5.02801 6.11446 5.05098 6.17086C5.17733 6.49794 5.40705 6.75735 5.60231 7.02804C5.43002 7.14083 5.26921 7.25362 5.10841 7.37768C5.06247 7.34385 5.01652 7.31001 4.97058 7.27617C4.83275 7.16339 4.72937 7.02804 4.626 6.8927C4.58005 6.8363 4.48816 6.8927 4.51114 6.94909C4.58005 7.17466 4.64897 7.43408 4.79829 7.62581C4.24696 8.07696 3.76454 8.55067 3.3855 8.96798C3.36253 8.78752 3.35105 8.60706 3.3051 8.4266C3.28213 8.35893 3.16727 8.35893 3.16727 8.43788C3.16727 8.71985 3.12133 9.00182 3.10984 9.28379C2.6504 9.80261 2.39771 10.1748 2.39771 10.1748C2.39771 10.1748 2.54702 6.80247 4.47668 5.57308Z" fill="#AFC737"/>
<path d="M8.43939 6.00158C8.43939 6.00158 8.5083 4.69325 6.47527 4.9301C4.45373 5.15568 3.60376 6.08053 3.04095 7.40015C2.47813 8.73104 2.37476 10.186 2.37476 10.186C2.37476 10.186 3.13283 6.40762 5.13141 5.66322C7.14146 4.90754 8.43939 6.00158 8.43939 6.00158Z" fill="#A3B20B"/>
<path d="M15.3998 5.62941C15.3998 5.62941 14.5269 5.37 13.2634 5.26849C13.1945 5.09931 13.1256 4.93013 13.0452 4.77222C13.0107 4.70455 12.9074 4.73839 12.9189 4.81734C12.9418 4.96396 12.9763 5.11059 13.0107 5.24593C12.6087 5.22337 12.1723 5.2121 11.7128 5.23465C11.7013 5.05419 11.7243 4.87373 11.7473 4.70455C11.7588 4.6256 11.6439 4.60304 11.6094 4.68199C11.5635 4.79478 11.3912 5.11059 11.4831 5.25721C10.5068 5.32488 9.46156 5.53918 8.46227 6.00161C8.4393 6.00161 12.0115 1.18559 15.3998 5.62941Z" fill="#AFC737"/>
<path d="M8.40491 5.86621C8.40491 5.86621 9.98998 3.76836 12.1379 3.7458C14.4925 3.71197 15.3884 5.62935 15.3884 5.62935C15.3884 5.62935 13.3784 3.91499 11.7359 4.118C10.1048 4.32102 8.40491 5.86621 8.40491 5.86621Z" fill="#A3B20B"/>
<path d="M8.00285 5.8774C8.00285 5.8774 13.3209 5.42625 14.056 9.35125C14.3661 11.0318 13.3209 12.8928 13.3209 12.8928C13.3209 12.8928 13.1141 12.0694 12.6777 11.0092C12.781 10.7047 12.9533 10.434 12.9878 10.1182C12.9993 10.0618 12.9189 10.028 12.8729 10.0618C12.7236 10.1972 12.5743 10.3663 12.4709 10.5581C12.2297 10.028 11.9311 9.46404 11.5865 8.93393C11.6554 8.70836 11.7358 8.49406 11.7703 8.25721C11.7818 8.18954 11.7014 8.16698 11.6554 8.20082C11.5291 8.29105 11.3912 8.43767 11.3568 8.60685C11.2189 8.42639 11.0811 8.24593 10.9318 8.07675C11.0122 7.96396 11.0696 7.8399 11.1156 7.70455C11.1385 7.61432 11.0122 7.58049 10.9892 7.65944C10.9548 7.77222 10.9088 7.87373 10.8514 7.96396C10.3001 7.35491 9.64535 6.86992 8.88727 6.63307C6.75087 5.95635 8.00285 5.8774 8.00285 5.8774Z" fill="#AFC737"/>
<path d="M8.40479 5.86606C8.40479 5.86606 11.8276 5.5841 13.3782 7.76089C15.1586 10.2535 13.3093 12.8814 13.3093 12.8814C13.3093 12.8814 14.0789 9.21585 12.5168 7.7045C10.9547 6.19315 8.40479 5.86606 8.40479 5.86606Z" fill="#A3B20B"/>
<path d="M6.71642 6.21578C6.77385 6.46391 6.93465 6.66693 7.15289 6.79099C7.18735 6.81355 7.23329 6.82483 7.26775 6.84739C7.41707 6.90378 7.57787 6.91506 7.73868 6.88122C7.87651 6.85867 8.00286 6.79099 8.10623 6.71204C8.34744 6.53158 8.47379 6.22706 8.41635 5.91125C8.41635 5.89997 8.41635 5.88869 8.41635 5.87742C8.37041 5.68568 8.26704 5.5165 8.1292 5.40371C7.93394 5.24581 7.66976 5.16685 7.3941 5.22325C6.92317 5.31348 6.62453 5.75335 6.71642 6.21578Z" fill="#564E4E"/>
<path d="M7.8191 6.22715C7.72721 5.76472 8.02585 5.32485 8.48529 5.22334C8.95622 5.13311 9.40417 5.42636 9.50755 5.87751C9.59944 6.33994 9.3008 6.77981 8.84136 6.88132C8.37043 6.98283 7.91099 6.68958 7.8191 6.22715Z" fill="#564E4E"/>
<path d="M7.15284 6.79097C7.1873 6.81353 7.23324 6.82481 7.2677 6.84736C7.2677 6.85864 7.2677 6.86992 7.27919 6.8812C7.32513 7.08422 7.42851 7.24212 7.57782 7.36619C7.75011 7.4677 7.96835 7.50153 8.1751 7.45642C8.48522 7.38874 8.72643 7.17445 8.81832 6.89248C8.86426 6.75713 8.87575 6.59923 8.84129 6.45261C8.79534 6.24959 8.69197 6.09169 8.54265 5.96762C8.49671 5.93379 8.45076 5.89995 8.40482 5.87739C8.23253 5.78716 8.03727 5.75333 7.842 5.78716C7.83052 5.78716 7.83052 5.78716 7.81903 5.78716C7.35959 5.88867 7.06095 6.32854 7.15284 6.79097Z" fill="#473D3D"/>
<path d="M7.26779 6.83613C7.26779 6.84741 7.26779 6.85868 7.27928 6.86996C7.32522 7.07298 7.4286 7.23088 7.57791 7.35495C7.77318 7.51285 8.03735 7.58053 8.30153 7.53541C8.6576 7.45646 8.92178 7.17449 8.97921 6.84741C9.00218 6.7459 8.99069 6.64439 8.97921 6.5316C8.92178 6.28347 8.76097 6.08045 8.55423 5.96766C8.50828 5.9451 8.47382 5.92255 8.42788 5.91127C8.27856 5.85487 8.12924 5.84359 7.95695 5.87743C7.91101 5.88871 7.86506 5.89999 7.81912 5.92255C7.44008 6.05789 7.21036 6.44137 7.26779 6.83613Z" fill="#564E4E"/>
<path d="M18.5012 25.604C18.5012 25.604 25.6915 22.0625 29.0684 21.758C32.4338 21.4534 39.0957 25.8747 39.0957 25.8747C39.0957 25.8747 23.3368 26.292 18.5012 25.604Z" fill="#F9D472"/>
<path d="M3.58081 25.604C3.58081 25.604 10.7711 22.0625 14.148 21.758C17.5134 21.4534 24.1753 25.8747 24.1753 25.8747C24.1753 25.8747 8.40494 26.292 3.58081 25.604Z" fill="#F9D472"/>
<path d="M24.1752 25.8747C24.1752 25.8747 22.1192 24.6115 21.453 24.2506L22.0273 24.0024C22.0273 24.0024 23.6353 25.2882 24.1752 25.8747Z" fill="#F7BC4D"/>
<path d="M10.7596 15.9043C9.93259 15.7238 9.11708 15.5321 8.30157 15.2952C8.37049 15.2276 8.42792 15.1486 8.47386 15.0697C8.50832 14.9907 8.46238 14.923 8.39346 14.9005C8.43941 14.7877 8.29009 14.6975 8.20969 14.7764C8.22117 14.6862 8.1178 14.6072 8.0374 14.6636C8.04888 14.5508 7.85362 14.5057 7.80767 14.6298C7.7847 14.6862 7.75024 14.7426 7.7043 14.7877C7.68133 14.7764 7.65836 14.7764 7.6239 14.799C7.3712 14.9118 7.10703 14.9907 6.83136 15.0133C6.67056 15.0246 5.96991 15.0358 5.92396 14.8328C5.91248 14.7877 5.84356 14.8554 5.85505 14.9118C5.94693 15.1937 6.28003 15.2163 6.54421 15.2388C6.86582 15.2614 7.17594 15.205 7.47458 15.1035C7.44012 15.1373 7.44012 15.1937 7.47458 15.2276C7.44012 15.2952 7.46309 15.3967 7.55498 15.3967C7.54349 15.4531 7.57795 15.5321 7.65836 15.5321C7.79619 15.5321 7.92253 15.5095 8.04888 15.4531C8.07185 15.9832 8.12928 16.5246 8.45089 16.9645C8.5313 17.0773 8.73804 16.9645 8.64616 16.8517C8.34752 16.457 8.30157 15.9832 8.2786 15.5095C9.08263 15.7351 9.88665 15.9269 10.7022 16.1073C10.84 16.1524 10.8974 15.9381 10.7596 15.9043Z" fill="#F6C03B"/>
<path d="M27.7015 17.7315C27.5981 17.8442 27.4603 17.9796 27.3109 17.8781C27.288 17.8555 27.2765 17.833 27.288 17.7991C27.3339 17.7089 27.4258 17.6751 27.5177 17.6412L27.4143 17.5848C27.2765 17.7089 27.1272 17.833 26.9319 17.7202C26.7596 17.6187 26.9089 17.4946 27.0353 17.3931L26.8974 17.3254C26.7252 17.4156 26.5069 17.5848 26.3461 17.4608C26.2198 17.3593 26.3117 17.2126 26.4265 17.0886L26.3231 17.0434C26.3231 17.0434 22.6591 19.4909 19.0525 19.1751C15.6641 18.8819 13.9527 17.551 11.9196 16.1186L11.6899 16.1299C11.6899 16.1299 12.2068 17.1111 11.6899 17.0096C11.173 16.9194 10.9663 16.3893 10.9663 16.3893L10.7136 16.4795C10.7136 16.4795 11.4257 17.4044 10.817 17.4495C10.2082 17.4946 9.93256 16.9758 9.93256 16.9758L9.70283 17.0547C9.70283 17.0547 10.2886 17.9232 9.93256 18.036C9.57649 18.1488 8.64612 17.4608 8.64612 17.4608C8.64612 17.4608 13.3669 21.9497 17.766 21.7918C22.1652 21.6339 27.8278 17.7991 27.8278 17.7991L27.7015 17.7315Z" fill="#7059A1"/>
<path d="M7.93408 17.0659L11.667 15.4756C11.667 15.4756 12.2184 15.6109 12.0691 16.2651L8.37055 17.8554C8.35906 17.8554 8.39352 17.3704 7.93408 17.0659Z" fill="#F39428"/>
<path d="M8.38204 17.3478C8.4969 17.5733 8.46244 17.8102 8.32461 17.8779C8.18677 17.9455 7.98002 17.8215 7.86516 17.5959C7.7503 17.3703 7.78476 17.1335 7.92259 17.0658C8.07191 16.9981 8.27866 17.1222 8.38204 17.3478Z" fill="#ED8924"/>
<path d="M26.2542 16.4343C27.0812 16.2538 27.8967 16.0621 28.7122 15.8252C28.6433 15.7575 28.5859 15.6786 28.5399 15.5996C28.5055 15.5207 28.5514 15.453 28.6203 15.4305C28.5744 15.3177 28.7237 15.2274 28.8041 15.3064C28.7926 15.2162 28.896 15.1372 28.9764 15.1936C28.9649 15.0808 29.1602 15.0357 29.2061 15.1598C29.2291 15.2162 29.2635 15.2726 29.3095 15.3177C29.3325 15.3064 29.3554 15.3064 29.3899 15.3289C29.6426 15.4417 29.9068 15.5207 30.1824 15.5432C30.3432 15.5545 30.8831 15.5884 30.9405 15.3853C30.9979 15.3177 31.1128 15.4079 31.0783 15.5094C30.9864 15.7914 30.7337 15.7575 30.4811 15.7801C30.1594 15.8027 29.8493 15.7463 29.5507 15.6447C29.5851 15.6786 29.5851 15.735 29.5507 15.7688C29.5851 15.8365 29.5622 15.938 29.4703 15.938C29.4818 15.9944 29.4473 16.0733 29.3669 16.0733C29.2291 16.0733 29.1027 16.0508 28.9764 15.9944C28.9534 16.5245 28.896 17.0659 28.5744 17.5057C28.494 17.6185 28.2872 17.5057 28.3791 17.393C28.6777 16.9982 28.7237 16.5245 28.7467 16.0508C27.9426 16.2764 27.1386 16.4681 26.3231 16.6486C26.1738 16.6824 26.1049 16.4568 26.2542 16.4343Z" fill="#F6C03B"/>
<path d="M28.7582 17.3027L26.1624 16.1298C26.1624 16.1298 25.6111 16.2651 25.7604 16.9193L28.3218 18.0923C28.3218 18.0923 28.2988 17.6073 28.7582 17.3027Z" fill="#F39428"/>
<path d="M28.2988 17.5847C28.1839 17.8102 28.2184 18.0471 28.3562 18.1148C28.494 18.1824 28.7008 18.0584 28.8156 17.8328C28.9305 17.6072 28.896 17.3704 28.7582 17.3027C28.6089 17.235 28.4136 17.3591 28.2988 17.5847Z" fill="#ED8924"/>
<path d="M16.6749 12.6896C16.7553 12.5317 16.985 12.5204 17.0884 12.5655C17.1688 12.5993 17.41 12.8475 17.4215 13.0618C17.4215 13.1971 17.2952 13.3212 17.1688 13.2535C16.9965 13.2197 16.8242 13.2084 16.7209 13.0505C16.6749 13.0167 16.629 12.7798 16.6749 12.6896Z" fill="#F5B379"/>
<path d="M16.2844 12.4864C16.2499 12.4864 16.204 12.4638 16.1695 12.4976C16.158 12.5089 16.158 12.5315 16.1695 12.5428C16.2384 12.633 16.3303 12.6556 16.4337 12.6894C16.5485 12.7232 16.6289 12.7683 16.6979 12.8586C16.7553 12.9375 16.8127 13.0165 16.8587 13.1067C16.8816 13.1518 16.9506 13.1067 16.9161 13.0616C16.9046 13.0503 16.8931 13.0277 16.8816 13.0052C16.9046 13.0052 16.9276 12.9826 16.9161 12.9601C16.8702 12.7909 16.7668 12.6104 16.5945 12.5428C16.5141 12.5089 16.3877 12.4976 16.2844 12.4864Z" fill="#F5B379"/>
<path d="M16.4222 12.2497C16.3877 12.2497 16.3418 12.2271 16.3073 12.261C16.2958 12.2722 16.2958 12.2948 16.3073 12.3061C16.3762 12.3963 16.4681 12.4189 16.5715 12.4527C16.6864 12.4865 16.7668 12.5316 16.8357 12.6219C16.8931 12.7008 16.9505 12.7798 16.9965 12.87C17.0195 12.9151 17.0884 12.87 17.0539 12.8249C17.0424 12.8136 17.0309 12.7911 17.0195 12.7685C17.0424 12.7685 17.0654 12.7459 17.0539 12.7234C17.008 12.5542 16.9046 12.3737 16.7323 12.3061C16.6519 12.2722 16.5256 12.261 16.4222 12.2497Z" fill="#F5B379"/>
<path d="M16.6749 12.1821C16.6405 12.1708 16.5945 12.1482 16.5601 12.1708C16.5486 12.1821 16.5371 12.2046 16.5486 12.2159C16.606 12.3174 16.6864 12.3625 16.7783 12.4076C16.8817 12.464 16.9506 12.5204 17.008 12.6332C17.054 12.7234 17.0884 12.8137 17.1114 12.9039C17.1229 12.949 17.2033 12.9265 17.1803 12.8813C17.1688 12.8588 17.1688 12.8475 17.1573 12.8249C17.1803 12.8362 17.3871 13.1407 17.3985 13.1182C17.4675 12.9377 17.1344 12.4189 16.9736 12.3287C16.8932 12.2497 16.7783 12.2159 16.6749 12.1821Z" fill="#F5B379"/>
<path d="M16.3073 12.3174C16.2729 12.3174 16.2269 12.2948 16.1925 12.3286C16.181 12.3399 16.181 12.3625 16.1925 12.3738C16.2614 12.464 16.3533 12.4865 16.4566 12.5204C16.5715 12.5542 16.6519 12.5993 16.7208 12.6896C16.7782 12.7685 16.8357 12.8475 16.8816 12.9377C16.9046 12.9828 16.9735 12.9377 16.939 12.8926C16.9276 12.8813 16.9161 12.8587 16.9046 12.8362C16.9276 12.8362 16.9505 12.8136 16.939 12.7911C16.8931 12.6219 16.7897 12.4414 16.6174 12.3738C16.5255 12.3399 16.4107 12.3286 16.3073 12.3174Z" fill="#F5B379"/>
<path d="M16.6864 12.7347C16.6864 12.7347 16.7898 12.4978 17.0769 12.5204C16.8702 12.588 16.6864 12.7347 16.6864 12.7347Z" fill="#F29866"/>
<path d="M16.7667 12.9265C16.7667 12.9265 16.8701 12.8249 17.0539 12.8926C17.0539 12.8926 16.9046 12.8249 16.8471 12.8362C16.7897 12.8475 16.7667 12.9265 16.7667 12.9265Z" fill="#F29866"/>
<path d="M16.8701 12.701C16.8471 13.0507 15.5837 13.4454 14.0446 13.592C12.5054 13.7387 11.2764 13.5695 11.2994 13.2311C11.3224 12.8815 12.5858 12.4867 14.125 12.3401C15.6526 12.1935 16.8931 12.3514 16.8701 12.701Z" fill="#F6C03B"/>
<path d="M17.364 15.4867C17.4444 15.4754 17.7201 15.3288 17.6971 15.0017C17.6512 14.122 17.387 12.9152 17.387 12.9152L17.0194 13.0054C17.0194 13.0054 16.6404 14.9905 16.7782 15.2273C16.9161 15.4754 17.1573 15.5206 17.364 15.4867Z" fill="#F5B379"/>
<path d="M14.4236 16.4005C14.5499 16.6712 15.6411 16.581 17.5133 15.4305C17.9957 15.1373 17.1802 14.641 16.8701 14.7764C16.5715 14.923 14.527 15.7576 14.527 15.7576C14.527 15.7576 14.1939 15.9043 14.4236 16.4005Z" fill="#F5B379"/>
<path d="M14.7911 16.3214C14.7911 16.3214 14.8945 16.0168 15.3769 16.0281C16.0431 16.0394 17.1343 15.5657 17.4559 15.4642C17.4559 15.4642 15.7904 16.3439 15.4688 16.468C15.1587 16.6033 14.7911 16.3214 14.7911 16.3214Z" fill="#F29866"/>
<path d="M18.9606 19.1748C19.5234 19.4568 22.0733 21.4419 22.0733 21.4419L21.7862 21.4644L18.4782 20.3929C18.4782 20.3929 15.7101 20.7877 15.4689 20.3704C15.2391 19.9756 15.2391 19.2876 15.2391 19.2876C15.354 19.2876 14.6304 18.8026 14.6304 18.8026C16.3418 18.8139 18.616 19.0056 18.9606 19.1748Z" fill="#AFC737"/>
<path d="M18.4781 20.393L21.7632 21.5885L21.9354 21.4532C21.9354 21.4532 19.1443 20.0095 18.7653 19.829C17.9153 19.423 15.4114 19.0734 15.4114 19.0734L16.6174 20.7426C16.6174 20.7426 18.3518 20.4494 18.4781 20.393Z" fill="#A3B20B"/>
<path d="M18.3289 19.987C18.685 20.2464 21.2578 21.7916 21.2578 21.7916L20.7295 22.0398L17.5478 20.8104C17.5478 20.8104 13.6196 21.0698 13.3784 20.6525C13.1487 20.2577 13.0109 19.1186 13.0109 19.1186C13.1257 19.1186 14.148 18.8817 14.148 18.8817C15.8709 18.893 17.5938 19.4457 18.3289 19.987Z" fill="#AFC737"/>
<path d="M13.5966 16.1298C13.5966 16.1298 14.1938 15.532 15.1127 15.3629C15.1127 15.3629 15.3884 16.1185 15.6411 16.4682L15.1357 16.784C15.1242 16.784 14.1019 16.8178 13.5966 16.1298Z" fill="#EA5081"/>
<path d="M15.285 15.0582C15.3654 14.9454 15.3539 14.7875 15.2276 14.7085C15.308 14.6183 15.2965 14.5055 15.2506 14.3927C15.2506 14.3476 15.2391 14.3138 15.2276 14.2687C15.3654 14.1446 15.3999 13.9754 15.331 13.8063C15.4228 13.6596 15.3999 13.4566 15.262 13.3438C15.1816 12.8363 14.9864 12.4415 14.9864 12.4415C14.7107 12.904 14.3546 13.998 14.3546 13.998C14.4006 14.2912 14.1823 14.7988 14.056 15.0695C14.0215 15.1033 13.9986 15.1484 13.9986 15.1935C13.9756 15.2274 13.9641 15.2499 13.9641 15.2499C13.9756 15.2499 13.9871 15.2499 13.9871 15.2386C13.9986 15.4191 14.2283 15.577 14.4121 15.4304C14.5499 15.577 14.7567 15.5657 14.883 15.4078C15.0208 15.4981 15.2161 15.4981 15.331 15.374C15.4114 15.2612 15.3769 15.1259 15.285 15.0582Z" fill="#ED8924"/>
<path d="M15.4573 18.8817C14.6188 19.4569 12.9763 19.6148 12.9763 19.6148C12.9763 19.6148 12.6662 17.9794 12.6662 17.3703C12.6318 17.3026 12.6088 17.235 12.5858 17.156C12.5743 17.1335 12.5743 17.1109 12.5628 17.0996C12.5054 16.9417 12.448 16.7951 12.3905 16.6485C12.3905 16.6372 12.3791 16.6259 12.3791 16.6146C12.2987 16.3891 12.2642 16.0056 12.5973 15.78C12.7811 15.656 13.2405 15.5544 13.2405 15.5544C13.5621 15.7349 14.1364 15.6785 14.1364 15.6785C14.1364 15.6785 15.1242 16.4793 15.2735 16.8177C15.4343 17.156 15.0783 17.4831 15.0783 17.4831C15.0438 17.7538 15.1357 18.6448 15.4573 18.8817Z" fill="#EA5081"/>
<path d="M14.2168 14.8326C14.1594 15.1484 14.1249 15.4868 14.1364 15.6898C14.3891 16.1184 13.2061 15.577 13.2061 15.577C13.229 15.4981 13.2175 15.4755 13.229 15.374C13.252 15.171 13.252 14.9567 13.252 14.9003V14.889V14.8778L14.2168 14.8326Z" fill="#F5B379"/>
<path d="M14.2169 14.8325C14.2054 14.8664 14.2054 14.9002 14.194 14.9228C14.171 15.0243 14.1595 15.0919 14.1595 15.1483C14.148 15.2273 14.148 15.3401 14.1365 15.419C13.9183 15.5544 13.3899 15.216 13.2406 15.013C13.2521 14.7987 13.2406 14.5731 13.2406 14.5731L14.2169 14.8325Z" fill="#F29866"/>
<path d="M13.1601 13.2873C13.1601 13.2873 13.1372 14.3701 13.2405 14.6521C13.3439 14.9453 13.8952 15.3513 14.1824 15.3626C14.4695 15.3852 14.906 14.731 14.9864 14.5054C15.0668 14.2799 15.0668 13.5242 15.0553 13.355C15.0438 13.1858 14.9175 12.6896 14.8486 12.6219C14.7797 12.5429 13.4243 12.5881 13.1601 13.2873Z" fill="#F5B379"/>
<path d="M14.4236 14.0093C14.4811 14.1333 14.5155 14.2574 14.5615 14.3589L14.573 14.3928L14.5615 14.4153C14.5385 14.4492 14.504 14.4717 14.4811 14.4717C14.4466 14.483 14.4236 14.483 14.3892 14.483C14.3318 14.4717 14.2858 14.4604 14.2399 14.4379C14.2858 14.4153 14.3432 14.404 14.3777 14.3928C14.4236 14.3815 14.4466 14.3589 14.4581 14.3476V14.404C14.4236 14.3364 14.4122 14.2687 14.4007 14.201C14.3892 14.1446 14.4007 14.077 14.4236 14.0093Z" fill="#F29866"/>
<path d="M14.2053 14.0093C14.2168 14.1108 13.9182 14.2011 13.7344 14.0996C13.654 14.0545 13.7229 13.8176 13.9411 13.8063C14.1249 13.795 14.1938 13.9304 14.2053 14.0093Z" fill="white"/>
<path d="M13.8263 13.9869C13.8378 13.9079 13.9067 13.8628 13.9756 13.8628C14.056 13.8741 14.102 13.9417 14.102 14.0094C14.0905 14.0884 14.0216 14.1335 13.9526 14.1335C13.8722 14.1222 13.8148 14.0658 13.8263 13.9869Z" fill="#80B2D5"/>
<path d="M13.9985 13.8854C13.9985 13.8628 14.0215 13.8403 14.0445 13.8403C14.0675 13.8403 14.0904 13.8628 14.0904 13.8854C14.0904 13.9079 14.0675 13.9305 14.0445 13.9305C14.0215 13.9305 13.9985 13.9079 13.9985 13.8854Z" fill="white"/>
<path d="M14.952 14.0205C14.9405 14.122 14.6649 14.1784 14.5156 14.0656C14.4466 14.0205 14.5385 13.7836 14.7338 13.7949C14.8946 13.7949 14.952 13.9302 14.952 14.0205Z" fill="white"/>
<path d="M14.596 13.9641C14.6075 13.8852 14.6879 13.8401 14.7568 13.8626C14.8372 13.8739 14.8832 13.9528 14.8602 14.0205C14.8487 14.0995 14.7683 14.1446 14.6994 14.122C14.6305 14.1107 14.5845 14.0318 14.596 13.9641Z" fill="#80B2D5"/>
<path d="M14.7913 13.885C14.7913 13.8625 14.8257 13.8399 14.8487 13.8512C14.8717 13.8512 14.8946 13.885 14.8831 13.9076C14.8831 13.9302 14.8487 13.9527 14.8257 13.9414C14.8027 13.9302 14.7913 13.9076 14.7913 13.885Z" fill="white"/>
<path d="M14.1709 13.4228C14.2168 13.4341 14.2053 13.5356 14.1824 13.5807C14.1594 13.6258 13.9412 13.5356 13.5851 13.6484C13.5736 13.6597 13.9526 13.3777 14.1709 13.4228Z" fill="#F39428"/>
<path d="M14.5844 13.434C14.5384 13.4453 14.5614 13.5468 14.5844 13.5919C14.6074 13.637 14.8141 13.5468 15.1587 13.6483C15.1817 13.6596 14.8026 13.3776 14.5844 13.434Z" fill="#F39428"/>
<path d="M13.9526 14.6071C13.9526 14.6071 14.1134 14.8439 14.4236 14.7537C14.4236 14.7537 14.2513 15.0131 14.1249 14.9793C13.9986 14.9567 13.9526 14.6071 13.9526 14.6071Z" fill="white"/>
<path d="M14.5385 13.8853C14.5614 13.8402 14.6074 13.8063 14.6533 13.7951C14.6993 13.7725 14.7567 13.7725 14.8026 13.7838C14.8486 13.7951 14.8945 13.8289 14.929 13.874C14.952 13.9191 14.9749 13.9642 14.952 14.0093C14.952 13.9642 14.929 13.9191 14.906 13.8853C14.883 13.8514 14.8371 13.8176 14.7911 13.8063C14.7452 13.7951 14.6993 13.7951 14.6533 13.8063C14.6074 13.8289 14.5729 13.8514 14.5385 13.8853Z" fill="#534741"/>
<path d="M14.1594 13.8964C14.1249 13.8626 14.079 13.84 14.033 13.8287C13.9871 13.8175 13.9412 13.8175 13.8952 13.8287C13.8493 13.84 13.8033 13.8626 13.7803 13.8964C13.7459 13.9303 13.7229 13.9754 13.7114 14.0205C13.7114 13.9754 13.7344 13.919 13.7689 13.8851C13.8033 13.84 13.8493 13.8175 13.8952 13.8062C13.9526 13.7949 13.9986 13.8062 14.0445 13.8175C14.0905 13.8287 14.1364 13.8513 14.1594 13.8964Z" fill="#534741"/>
<path d="M15.0783 17.4943C14.6648 17.5507 13.9871 17.7424 13.5966 17.5732C13.5966 17.5732 14.079 17.9454 15.0783 17.889C15.0783 17.889 15.0668 17.7086 15.0783 17.4943Z" fill="#D64579"/>
<path d="M12.9764 19.6148C12.9764 19.6148 12.6663 18.1486 12.6663 17.3703C12.7352 17.4493 12.7007 16.8064 12.9649 16.4229C13.2865 16.7387 13.3784 18.8591 13.6426 19.4456C13.4129 19.5697 12.9764 19.6148 12.9764 19.6148Z" fill="#D64579"/>
<path d="M12.5054 15.9604C12.2182 15.9041 11.8047 17.156 11.6554 19.3215C11.6209 19.8742 12.5054 19.5245 12.5628 19.1974C12.6202 18.8704 12.9993 17.1673 12.9993 17.1673C12.9993 17.1673 13.0452 16.0845 12.5054 15.9604Z" fill="#F5B379"/>
<path d="M12.5974 15.78C12.5974 15.78 12.0116 16.0394 11.736 17.032C11.736 17.032 12.8961 17.4267 13.0109 17.6861L13.1602 17.156C13.1487 17.1673 13.1947 16.3778 12.5974 15.78Z" fill="#EA5081"/>
<path d="M11.6554 19.2652C11.6439 19.3442 11.6784 19.7389 12.0114 19.7728C12.827 19.863 14.4809 19.5246 14.4809 19.5246L14.5154 19.1524C14.5154 19.1524 12.3445 18.8028 12.0804 18.8479C11.7932 18.893 11.7013 19.0622 11.6554 19.2652Z" fill="#F5B379"/>
<path d="M11.6899 19.4908C11.6899 19.4908 12.023 19.6149 12.5284 19.6036C13.0223 19.5923 14.4811 19.5133 14.4811 19.5133C14.4811 19.5133 12.5284 19.9307 11.9197 19.7389C11.8393 19.7276 11.7244 19.6487 11.6899 19.4908Z" fill="#F29866"/>
<path d="M15.1817 16.7388L14.4926 15.938C14.4926 15.938 14.8371 16.0959 15.331 16.6147L15.1817 16.7388Z" fill="#D64579"/>
<path d="M15.3655 13.5016C15.2506 13.5129 15.1358 13.4001 15.0668 13.3211C15.0324 13.2873 15.0094 13.2422 14.9979 13.2083C14.952 13.2196 14.906 13.2196 14.8601 13.2083C14.7567 13.1858 14.6533 13.1407 14.5844 13.0617C14.5155 13.1181 14.4006 13.1181 14.2858 13.1181C14.1824 13.1181 14.0676 13.1068 13.9757 13.0617C13.9412 13.1294 13.8608 13.1632 13.7574 13.1971C13.6426 13.2309 13.5277 13.2422 13.4243 13.2196V13.2309C13.5507 13.4678 13.4588 13.761 13.3095 13.9866C13.3095 14.0091 13.298 14.0204 13.298 14.0204H13.2865C13.275 14.0317 13.275 14.043 13.2635 14.0543C13.2406 14.1106 13.2406 14.246 13.2406 14.3926C13.3324 14.4716 13.3899 14.5844 13.3439 14.731C13.5277 14.8438 13.677 15.1032 13.5392 15.2949C13.4703 15.4077 13.3439 15.419 13.275 15.3513C13.1487 15.5318 12.9304 15.5769 12.7696 15.4077C12.5284 15.5205 12.092 15.3513 12.2642 15.1145C12.0575 14.9678 12.0805 14.7084 12.2642 14.5505C12.2413 14.528 12.2298 14.5167 12.2068 14.4941C12.1034 14.3475 12.1838 14.167 12.3332 14.043C12.1724 13.8625 12.2413 13.6369 12.3906 13.4565C12.3791 13.4226 12.3791 13.4001 12.3906 13.3662C12.4136 13.2422 12.471 13.1294 12.5399 13.0279C12.5284 12.9715 12.5169 12.9264 12.5169 12.87C12.5399 12.7234 12.6548 12.6218 12.7581 12.5429C12.7581 12.5429 12.7696 12.5429 12.7696 12.5316C12.7811 12.4639 12.8041 12.4076 12.85 12.3624C12.9534 12.2271 13.1602 12.2158 13.3095 12.1933C13.3324 12.1707 13.3669 12.1481 13.4014 12.1256C13.5047 12.0805 13.6541 12.0692 13.7459 12.1369C13.7919 12.103 13.8378 12.0917 13.9068 12.0917C14.0676 12.0805 14.2284 12.1256 14.3317 12.2497C14.4006 12.2158 14.4811 12.2045 14.5729 12.2158C14.6419 12.2271 14.6993 12.2497 14.7452 12.2948C14.8141 12.2497 14.9175 12.2609 14.9979 12.2835C15.1013 12.3173 15.1243 12.4188 15.1128 12.5091C15.2506 12.5655 15.4114 12.667 15.3655 12.8361C15.3655 12.8587 15.354 12.8813 15.331 12.9038C15.4114 12.994 15.4803 13.0956 15.4918 13.2196C15.5148 13.2986 15.4918 13.4903 15.3655 13.5016Z" fill="#F39428"/>
<path d="M13.3439 14.7085C13.3899 14.5732 13.3439 14.4604 13.2406 14.3702C13.2406 14.2236 13.252 14.0882 13.2635 14.0318C13.275 14.0205 13.275 14.0093 13.2865 13.998H13.298C13.298 13.998 13.298 13.9867 13.3095 13.9642C13.4588 13.7386 13.5507 13.4453 13.4243 13.2085C13.3899 13.1972 13.3439 13.1972 13.3439 13.2423C13.3095 13.4002 13.1946 13.5017 13.0453 13.5468C13.0108 13.5581 12.9994 13.592 12.9994 13.6145C13.0568 13.7273 13.0223 13.8401 12.9075 13.9416C12.8615 13.9529 12.85 14.0093 12.8845 14.0431C12.9764 14.1333 12.9075 14.5506 12.7122 14.3927C12.6777 14.3702 12.6088 14.3815 12.6088 14.4379C12.5514 14.4604 12.494 14.4717 12.4365 14.4943C12.4136 14.4379 12.3447 14.4379 12.3217 14.4943L12.2068 14.483C12.2183 14.5055 12.2413 14.5281 12.2642 14.5394C12.0805 14.6973 12.0575 14.9567 12.2642 15.1033C12.092 15.3402 12.5284 15.5093 12.7696 15.3965C12.9304 15.5657 13.1602 15.5093 13.275 15.3402C13.3439 15.4078 13.4703 15.3853 13.5392 15.2838C13.677 15.0807 13.5277 14.8213 13.3439 14.7085Z" fill="#ED8924"/>
<path d="M13.3209 13.9528C13.2405 13.8851 12.9534 13.8738 12.8959 14.0205C12.8155 14.2009 13.1371 14.607 13.3554 14.3814C13.4473 14.2686 13.3898 14.0092 13.3209 13.9528Z" fill="#F5B379"/>
<path d="M13.2176 14.043C13.2176 14.043 13.0109 13.9528 13.0109 14.0543C12.9994 14.2122 13.1487 14.3024 13.2061 14.3137C13.2061 14.3137 13.1372 14.246 13.1602 14.1671C13.1717 14.0881 13.2176 14.043 13.2176 14.043Z" fill="#F29866"/>
<path d="M15.6296 18.893C15.5492 18.8254 15.3195 18.7013 15.1817 18.7464C15.0438 18.7915 14.9175 18.9269 14.8026 19.0058C14.7567 19.0397 14.7797 19.096 14.8256 19.1073C14.8371 19.1299 14.8715 19.1412 14.8945 19.1299C14.9979 19.0735 15.1013 18.9945 15.2161 18.9607C15.3195 18.9269 15.4229 18.9945 15.5377 19.0058C15.5952 19.0058 15.6526 18.9156 15.6296 18.893Z" fill="#F5B379"/>
<path d="M15.5607 19.3217C15.4688 19.2315 15.2735 19.1074 15.1242 19.1413C14.9864 19.1751 14.8256 19.2315 14.6992 19.2992C14.6533 19.333 14.7107 19.4571 14.7452 19.4345C14.8485 19.3894 15.0323 19.3781 15.1472 19.3443C15.2505 19.3104 15.3539 19.3894 15.4573 19.4119C15.5262 19.4232 15.5951 19.3443 15.5607 19.3217Z" fill="#F5B379"/>
<path d="M15.3655 19.4681C15.3195 19.3666 15.1472 19.1861 14.9979 19.1974C14.8601 19.1974 14.6878 19.2876 14.5614 19.344C14.504 19.3666 14.5155 19.423 14.55 19.4455C14.5614 19.4681 14.5729 19.4906 14.6189 19.4794C14.7337 19.4568 14.8601 19.4117 14.9749 19.4004C15.0783 19.3891 15.1702 19.4906 15.2621 19.5245C15.3195 19.547 15.377 19.4906 15.3655 19.4681Z" fill="#F5B379"/>
<path d="M15.664 19.175C15.6181 19.1073 15.3999 18.9381 15.2506 18.9607C15.1127 18.9832 14.9634 19.0847 14.8371 19.1524C14.7911 19.175 14.8026 19.2314 14.8371 19.2539C14.8486 19.2765 14.8715 19.299 14.906 19.2878C15.0208 19.2539 15.1357 19.1975 15.2506 19.175C15.3539 19.1524 15.4573 19.2427 15.5492 19.2652C15.6066 19.2652 15.6755 19.1975 15.664 19.175Z" fill="#F5B379"/>
<path d="M14.481 19.5247C14.481 19.5247 14.8485 19.5811 14.9519 19.4006C15.0208 19.2879 15.0208 19.0736 15.0208 19.0736L14.906 18.9269L14.4465 19.1976L14.481 19.5247Z" fill="#F5B379"/>
<path d="M15.0439 12.4414C15.0439 12.4414 14.9749 11.8323 14.504 11.7421C14.1824 11.6857 13.5737 11.7872 13.275 11.9113C12.7696 12.103 12.8156 12.5091 12.85 12.7234L15.0439 12.4414Z" fill="#F6C03B"/>
<path d="M15.0208 12.3061C14.01 12.3173 12.827 12.588 12.8155 12.588C12.804 12.588 12.781 12.588 12.781 12.5655C12.781 12.5542 12.8155 12.4076 12.8384 12.3963C12.8499 12.3963 13.9411 12.1256 14.9519 12.1256C14.9634 12.1256 15.0438 12.2722 15.0438 12.2835C15.0438 12.2948 15.0323 12.3061 15.0208 12.3061Z" fill="#F39428"/>
<path d="M14.1364 12.6669C15.4229 12.5429 16.4681 12.7008 16.56 13.0166C16.7552 12.9151 16.8701 12.8023 16.8816 12.7008C16.9046 12.3511 15.6756 12.1932 14.1364 12.3399C12.5973 12.4865 11.3338 12.8812 11.3109 13.2309C11.2994 13.3437 11.3109 13.3888 11.5291 13.4677C11.598 13.1181 12.804 12.791 14.1364 12.6669Z" fill="#F6C03B"/>
<path d="M16.3762 12.7348C16.3533 12.7348 16.3418 12.7686 16.3533 12.7911C16.4107 12.8927 16.4796 13.028 16.5715 13.107C16.6749 13.1746 16.8012 13.1972 16.9161 13.2197C16.9391 13.2197 16.9505 13.1972 16.9505 13.1859C16.962 13.1746 16.962 13.1633 16.962 13.1521C16.9161 13.0167 16.7782 13.028 16.6749 12.9603C16.56 12.8701 16.5256 12.7009 16.3762 12.7348Z" fill="#F5B379"/>
<path d="M8.64612 17.4606C8.64612 17.4606 11.9656 22.6263 18.0187 22.5812C24.0719 22.5361 27.8278 17.7877 27.8278 17.7877C27.8278 17.7877 21.3841 21.0585 18.0532 21.036C12.1034 21.0021 8.64612 17.4606 8.64612 17.4606Z" fill="#7059A1"/>
<path d="M8.64612 17.4606C8.64612 17.4606 13.0108 21.036 17.2951 20.9232C22.2341 20.7991 27.8278 17.7877 27.8278 17.7877C27.8278 17.7877 23.1645 21.1713 17.1802 21.2052C11.9886 21.239 8.64612 17.4606 8.64612 17.4606Z" fill="#5D4A93"/>
<path d="M23.2219 20.63C23.2219 20.63 27.0697 18.7351 27.8278 17.799C27.8278 17.799 24.7495 20.754 23.3137 20.8894C21.8895 21.0247 23.2219 20.63 23.2219 20.63Z" fill="#5D4A93"/>
<path d="M8.78394 17.6638C8.78394 17.6638 12.0919 20.7993 14.2053 21.2166C16.9505 21.758 14.5155 21.6903 13.8837 21.4985C11.5521 20.7993 8.78394 17.6638 8.78394 17.6638Z" fill="#5D4A93"/>
</svg>
