<svg width="30" height="30" viewBox="0 0 30 30" fill="none" xmlns="http://www.w3.org/2000/svg">
<path d="M25.8973 2.14886H3.22959C1.93323 2.14886 0.882324 3.19977 0.882324 4.49613V24.5091C0.882324 25.8055 1.93323 26.8564 3.22959 26.8564H25.8973C27.1937 26.8564 28.2446 25.8055 28.2446 24.5091V4.49613C28.2446 3.19977 27.1937 2.14886 25.8973 2.14886Z" fill="#FFE75E"/>
<path d="M14.9157 2.14886H3.22959C2.60705 2.14886 2.01002 2.39617 1.56982 2.83636C1.12962 3.27656 0.882324 3.87359 0.882324 4.49613V24.5091C0.882324 25.1317 1.12962 25.7287 1.56982 26.1689C2.01002 26.6091 2.60705 26.8564 3.22959 26.8564H14.9157V2.14886Z" fill="#F9DC4B"/>
<path d="M25.8976 2.14886H3.22959C2.60705 2.14886 2.01002 2.39617 1.56982 2.83636C1.12962 3.27656 0.882324 3.87359 0.882324 4.49613V6.9915H28.2448V4.49613C28.2448 3.87359 27.9975 3.27656 27.5573 2.83636C27.1171 2.39617 26.5201 2.14886 25.8976 2.14886Z" fill="#527318"/>
<path d="M14.9157 2.14886H3.22959C2.60705 2.14886 2.01002 2.39617 1.56982 2.83636C1.12962 3.27656 0.882324 3.87359 0.882324 4.49613V6.9915H14.9157V2.14886Z" fill="#4B6610"/>
<path d="M5.52499 0H5.52429C5.0939 0 4.745 0.348901 4.745 0.779291V3.5561C4.745 3.98649 5.0939 4.33539 5.52429 4.33539H5.52499C5.95538 4.33539 6.30428 3.98649 6.30428 3.5561V0.779291C6.30428 0.348901 5.95538 0 5.52499 0Z" fill="#A55520"/>
<path d="M10.0767 0H10.076C9.64565 0 9.29675 0.348901 9.29675 0.779291V3.5561C9.29675 3.98649 9.64565 4.33539 10.076 4.33539H10.0767C10.5071 4.33539 10.856 3.98649 10.856 3.5561V0.779291C10.856 0.348901 10.5071 0 10.0767 0Z" fill="#A55520"/>
<path d="M19.0761 0H19.0754C18.645 0 18.2961 0.348901 18.2961 0.779291V3.5561C18.2961 3.98649 18.645 4.33539 19.0754 4.33539H19.0761C19.5065 4.33539 19.8554 3.98649 19.8554 3.5561V0.779291C19.8554 0.348901 19.5065 0 19.0761 0Z" fill="#B5622A"/>
<path d="M23.6029 0H23.6022C23.1718 0 22.8229 0.348901 22.8229 0.779291V3.5561C22.8229 3.98649 23.1718 4.33539 23.6022 4.33539H23.6029C24.0333 4.33539 24.3822 3.98649 24.3822 3.5561V0.779291C24.3822 0.348901 24.0333 0 23.6029 0Z" fill="#B5622A"/>
<path d="M18.6577 11.6119C18.7759 11.5222 18.9137 11.4617 19.0598 11.4356C19.2059 11.4094 19.3561 11.4182 19.4981 11.4613C19.6401 11.5044 19.7699 11.5806 19.8768 11.6836C19.9837 11.7865 20.0646 11.9134 20.113 12.0537C20.4552 13.0527 20.8437 14.6019 20.6808 16.1611C20.5604 17.3134 19.8391 18.7635 19.2659 19.6224C19.2031 19.7179 19.1773 19.8331 19.1934 19.9463C19.2095 20.0595 19.2663 20.1629 19.3532 20.2372L22.5689 22.9961C22.6861 23.0966 22.7813 23.2203 22.8485 23.3593C22.9156 23.4983 22.9533 23.6497 22.9592 23.804C22.965 23.9583 22.9389 24.1121 22.8825 24.2559C22.8261 24.3996 22.7406 24.5301 22.6314 24.6392C22.5223 24.7484 22.3918 24.834 22.248 24.8904C22.1043 24.9468 21.9505 24.9728 21.7962 24.967C21.6419 24.9611 21.4905 24.9234 21.3515 24.8563C21.2125 24.7891 21.0888 24.694 20.9883 24.5768L18.2387 21.373C18.1615 21.2836 18.0534 21.2264 17.936 21.2129C17.8186 21.1995 17.7004 21.2306 17.605 21.3002C16.6355 21.9981 15.3152 22.5929 14.1545 22.6891C12.7699 22.7632 11.3842 22.5676 10.0742 22.1131C9.93169 22.0669 9.80225 21.9873 9.6967 21.8809C9.59115 21.7746 9.51255 21.6445 9.46745 21.5016C9.42234 21.3587 9.41204 21.2071 9.4374 21.0595C9.46275 20.9118 9.52304 20.7723 9.61323 20.6526C9.81376 20.3885 10.0289 20.1359 10.2578 19.8959C8.75765 19.1863 7.66265 17.9098 7.04838 17.043C6.96765 16.9304 6.91279 16.8014 6.88772 16.6651C6.86265 16.5289 6.86799 16.3888 6.90335 16.2548C6.93872 16.1209 7.00324 15.9964 7.0923 15.8903C7.18136 15.7842 7.29276 15.699 7.41854 15.641C7.93368 15.4036 8.46705 15.208 9.0135 15.056C8.57254 13.825 8.30843 12.5376 8.22905 11.2324C8.22077 11.0995 8.24085 10.9664 8.28794 10.8418C8.33504 10.7173 8.40809 10.6042 8.50223 10.5101C8.59637 10.4159 8.70946 10.3429 8.83399 10.2958C8.95852 10.2487 9.09164 10.2286 9.22452 10.2369C10.5298 10.3161 11.8172 10.5803 13.0482 11.0213C13.2002 10.4745 13.3958 9.94074 13.6332 9.4252C13.6913 9.29947 13.7764 9.18812 13.8826 9.09911C13.9887 9.0101 14.1132 8.94562 14.2471 8.91028C14.381 8.87494 14.5211 8.86962 14.6573 8.89468C14.7936 8.91974 14.9226 8.97458 15.0352 9.05527C15.9015 9.6726 17.178 10.766 17.8883 12.2661C18.1321 12.0336 18.389 11.8152 18.6577 11.6119Z" fill="#4182C3"/>
<path d="M8.22904 11.2328C8.30842 12.538 8.57253 13.8254 9.01349 15.0565C8.46704 15.2085 7.93367 15.4041 7.41853 15.6414C7.29282 15.6995 7.18148 15.7846 7.09248 15.8907C7.00347 15.9968 6.93898 16.1212 6.90362 16.2551C6.86826 16.389 6.8629 16.529 6.88792 16.6652C6.91294 16.8014 6.96773 16.9304 7.04837 17.043C7.66311 17.9094 8.75764 19.1858 10.2578 19.8961C10.0289 20.1361 9.81375 20.3887 9.61322 20.6528C9.52308 20.7725 9.46284 20.912 9.43751 21.0596C9.41217 21.2073 9.42249 21.3588 9.46759 21.5017C9.51269 21.6446 9.59128 21.7746 9.6968 21.8809C9.80232 21.9873 9.93172 22.0669 10.0742 22.1131C11.3837 22.5671 12.7689 22.7625 14.1528 22.6884C15.3145 22.5921 16.6348 21.9973 17.6033 21.2995C17.6988 21.2299 17.817 21.1987 17.9344 21.2122C18.0518 21.2257 18.1598 21.2828 18.2371 21.3723L20.9862 24.5756C21.0867 24.6928 21.2103 24.7879 21.3494 24.8551C21.4884 24.9222 21.6398 24.9599 21.7941 24.9658C21.9484 24.9716 22.1022 24.9456 22.2459 24.8892C22.3896 24.8328 22.5201 24.7473 22.6293 24.638L8.50203 10.5103C8.40757 10.6043 8.33433 10.7174 8.28725 10.842C8.24016 10.9666 8.22031 11.0999 8.22904 11.2328Z" fill="#F05C4C"/>
<path d="M18.087 19.6797C18.1375 19.7461 18.1596 19.8298 18.1484 19.9125C18.1372 19.9951 18.0937 20.0699 18.0274 20.1205C17.9945 20.1455 17.9571 20.1639 17.9172 20.1744C17.8773 20.185 17.8357 20.1875 17.7947 20.182C17.7538 20.1765 17.7144 20.1629 17.6787 20.1421C17.643 20.1214 17.6118 20.0938 17.5868 20.0609C17.4753 19.9151 17.3655 19.7722 17.2558 19.6311C15.9537 20.4457 14.4547 20.8913 12.919 20.9205C12.7653 20.9205 12.6728 20.9141 12.6554 20.9125C12.6137 20.9104 12.5728 20.8999 12.5351 20.8817C12.4974 20.8635 12.4638 20.8379 12.4362 20.8065C12.4086 20.7751 12.3875 20.7385 12.3743 20.6988C12.3611 20.6591 12.356 20.6172 12.3592 20.5755C12.3625 20.5338 12.374 20.4931 12.3932 20.456C12.4124 20.4188 12.4389 20.3859 12.471 20.3591C12.5032 20.3324 12.5403 20.3123 12.5804 20.3002C12.6204 20.288 12.6624 20.284 12.704 20.2884C14.1717 20.3051 15.6141 19.9054 16.8638 19.1356C16.3777 18.5286 15.9024 17.9634 15.4381 17.44C14.8422 17.4651 14.2854 17.4761 13.7716 17.4761C10.9436 17.4761 9.4019 17.1435 9.32491 17.1264C9.28475 17.1174 9.24674 17.1006 9.21307 17.0769C9.17939 17.0533 9.15071 17.0232 9.12865 16.9885C9.10659 16.9537 9.09159 16.915 9.08451 16.8744C9.07743 16.8339 9.0784 16.7924 9.08737 16.7522C9.09634 16.712 9.11313 16.674 9.13679 16.6404C9.16045 16.6067 9.19051 16.578 9.22525 16.5559C9.25999 16.5339 9.29874 16.5189 9.33928 16.5118C9.37982 16.5047 9.42136 16.5057 9.46152 16.5147C9.48171 16.5194 11.4203 16.9351 14.8898 16.8315C11.9435 13.613 9.68944 12.1088 9.65963 12.0903C9.59243 12.0435 9.54615 11.9722 9.53065 11.8918C9.51515 11.8114 9.53165 11.728 9.57663 11.6596C9.62161 11.5911 9.69153 11.5429 9.77151 11.5252C9.8515 11.5075 9.93523 11.5217 10.0049 11.5648C10.1223 11.6432 12.2963 13.0926 15.1924 16.2262C15.1766 13.2102 14.7907 11.5413 14.7877 11.5241C14.7781 11.4841 14.7765 11.4425 14.783 11.4018C14.7895 11.3611 14.8039 11.3221 14.8255 11.287C14.869 11.2161 14.9389 11.1654 15.0198 11.146C15.1008 11.1266 15.1861 11.1402 15.257 11.1838C15.2921 11.2053 15.3226 11.2336 15.3468 11.2669C15.371 11.3003 15.3884 11.3381 15.398 11.3781C15.417 11.4598 15.8656 13.3858 15.8184 16.9177C16.2921 17.451 16.7783 18.0272 17.277 18.6462C17.94 17.3681 18.2313 15.9297 18.1178 14.4944C18.1108 14.4531 18.1121 14.4108 18.1217 14.37C18.1313 14.3293 18.1489 14.2908 18.1736 14.257C18.1983 14.2232 18.2295 14.1946 18.2654 14.173C18.3013 14.1514 18.3411 14.1372 18.3826 14.1313C18.424 14.1253 18.4662 14.1277 18.5068 14.1384C18.5473 14.149 18.5852 14.1676 18.6184 14.1931C18.6516 14.2186 18.6794 14.2506 18.7001 14.287C18.7208 14.3234 18.7339 14.3636 18.7388 14.4052C18.8828 16.0655 18.522 17.7307 17.7037 19.1826C17.8314 19.3457 17.9584 19.5119 18.087 19.6797Z" fill="#FFE75E"/>
<path d="M15.4811 17.489C15.9304 17.999 16.3912 18.5477 16.8636 19.1351C15.614 19.9049 14.1717 20.3046 12.704 20.2879C12.6624 20.2835 12.6204 20.2875 12.5804 20.2997C12.5404 20.3119 12.5032 20.3319 12.471 20.3587C12.4389 20.3854 12.4124 20.4184 12.3932 20.4555C12.374 20.4927 12.3625 20.5333 12.3592 20.575C12.356 20.6167 12.3611 20.6586 12.3743 20.6983C12.3876 20.738 12.4086 20.7746 12.4362 20.806C12.4638 20.8374 12.4975 20.863 12.5351 20.8812C12.5728 20.8994 12.6137 20.9099 12.6555 20.912C12.6728 20.9137 12.7653 20.92 12.9191 20.92C14.4547 20.891 15.9536 20.4455 17.2559 19.6311C17.3655 19.772 17.4753 19.9151 17.5868 20.0609C17.6118 20.0938 17.6431 20.1214 17.6787 20.1421C17.7144 20.1629 17.7538 20.1765 17.7948 20.182C17.8357 20.1875 17.8773 20.185 17.9172 20.1744C17.9571 20.1639 17.9946 20.1456 18.0274 20.1205C18.0432 20.1083 18.0579 20.0946 18.0713 20.0797L15.4811 17.489Z" fill="#F9DC4B"/>
<path d="M11.6647 13.673L9.60479 11.613C9.59212 11.6261 9.58065 11.6404 9.57052 11.6555C9.52478 11.725 9.50849 11.8098 9.52521 11.8912C9.54194 11.9727 9.59031 12.0442 9.65971 12.09C10.3584 12.5781 11.0279 13.1066 11.6647 13.673Z" fill="#F9DC4B"/>
<path d="M9.46225 16.5146C9.42209 16.5056 9.38055 16.5047 9.34001 16.5118C9.29947 16.5188 9.26072 16.5338 9.22598 16.5559C9.19124 16.578 9.16118 16.6066 9.13752 16.6403C9.11386 16.674 9.09707 16.712 9.0881 16.7522C9.07913 16.7923 9.07816 16.8339 9.08524 16.8744C9.09233 16.9149 9.10733 16.9537 9.12938 16.9884C9.15144 17.0232 9.18013 17.0532 9.2138 17.0769C9.24747 17.1005 9.28548 17.1173 9.32564 17.1263C9.40263 17.1434 10.9453 17.4761 13.7723 17.4761C14.2833 17.4761 14.8382 17.465 15.4318 17.4401L14.8248 16.8331C11.3971 16.9294 9.48244 16.5193 9.46225 16.5146Z" fill="#F9DC4B"/>
</svg>
