<svg width="28" height="40" viewBox="0 0 28 40" fill="none" xmlns="http://www.w3.org/2000/svg">
<g clip-path="url(#clip0_1_1469)">
<path opacity="0.1" fill-rule="evenodd" clip-rule="evenodd" d="M23.6438 23.595C23.6037 22.7686 22.6023 22.0971 21.4506 22.0971C20.7296 22.0971 20.0086 22.0971 19.2875 22.0971C18.4964 21.4153 17.7153 20.7335 16.9542 20.0517C16.9442 20.031 16.9442 20.0207 16.9442 20C16.9041 19.4318 16.8641 18.8533 16.814 18.2851C16.804 18.1405 16.794 17.9959 16.784 17.8512C16.784 17.8306 16.784 17.8099 16.784 17.7893C16.7639 17.5517 16.7539 17.3037 16.7339 17.0661C16.7339 17.0558 16.7339 17.0455 16.7339 17.0351C17.505 16.3223 18.0558 15.4959 18.1359 15.0103C18.3061 13.657 18.3963 13.1921 18.5164 12.469C18.5765 12.6033 18.6566 12.7169 18.7568 12.7996C19.4177 13.3264 20.0787 11.6426 19.9084 10.7231C19.8383 10.3512 19.6981 10.2066 19.5079 10.1756C19.4978 10.1136 19.4778 10.062 19.4478 10.0103C19.8383 9.97934 20.1588 9.65909 20.1588 9.27686C20.1588 9.1219 20.1087 8.97727 20.0186 8.8533C20.6895 8.62603 21.1702 8.0062 21.1702 7.28306C21.1702 6.58058 20.7196 5.97107 20.0787 5.73347C20.1388 5.63016 20.1688 5.51653 20.1688 5.39256C20.1688 5.08264 19.9585 4.82438 19.6781 4.74173C19.8684 4.53512 19.9885 4.2562 19.9885 3.95661C19.9885 3.31611 19.4478 2.79958 18.7868 2.79958C18.7768 2.79958 18.7668 2.79958 18.7568 2.79958C18.6667 2.51033 18.3562 2.30372 17.9857 2.30372C17.8355 2.30372 17.7053 2.33471 17.5851 2.39669C17.5951 2.33471 17.6051 2.27272 17.6051 2.20041C17.6051 1.4876 17.0043 0.888427 16.2031 0.754129C15.8727 0.41322 15.412 0.206608 14.9013 0.206608C14.6509 0.206608 14.4006 0.258261 14.1802 0.351236C13.9099 0.185947 13.5894 0.0929718 13.2589 0.0929718C12.6981 0.0929718 12.1974 0.351236 11.8569 0.754129C11.0658 0.888427 10.4749 1.4876 10.4749 2.19008C10.4749 2.25206 10.485 2.32438 10.495 2.38636C10.3748 2.32438 10.2446 2.29339 10.0944 2.29339C9.72388 2.29339 9.41343 2.51033 9.3233 2.78925C9.31329 2.78925 9.30327 2.78925 9.29326 2.78925C8.63232 2.78925 8.09154 3.30578 8.09154 3.94628C8.09154 4.24587 8.21172 4.52479 8.40199 4.7314C8.12159 4.82438 7.91129 5.08264 7.91129 5.38223C7.91129 5.5062 7.94133 5.61983 8.00141 5.72314C7.3605 5.96074 6.90986 6.57025 6.90986 7.27273C6.90986 8.0062 7.39054 8.6157 8.0615 8.84297C7.97137 8.96694 7.9213 9.11157 7.9213 9.26653C7.9213 9.65909 8.23174 9.97934 8.63232 10C8.58224 10.093 8.5522 10.2066 8.5522 10.3202C8.5522 10.4029 8.56222 10.4752 8.59226 10.5475C8.38196 10.5578 8.22173 10.7025 8.15163 11.1054C7.98139 12.0248 8.64233 13.7087 9.30327 13.1818C9.44347 13.0682 9.54362 12.9029 9.6037 12.7066C9.63375 12.9339 9.65378 13.1302 9.66379 13.2955C9.7439 14.5455 9.7439 13.7397 9.86408 14.9793C9.92416 15.5785 10.5751 16.3636 11.3662 17.0351C11.3662 17.0661 11.3562 17.0971 11.3562 17.1384C11.3362 17.4174 11.3161 17.6963 11.2961 17.9855C11.2961 17.9959 11.2961 18.0062 11.2961 18.0165C11.2861 18.1095 11.2861 18.1922 11.2761 18.2851C11.226 18.8533 11.1759 19.4215 11.1359 20C11.1359 20.0103 11.1259 20.031 11.1259 20.0413C10.3548 20.7231 9.56365 21.4153 8.77252 22.0971C8.09154 22.0971 7.42059 22.0971 6.73961 22.0971C5.58797 22.0971 4.58654 22.7686 4.54648 23.595C4.39626 26.9835 3.06436 30.4442 3.99569 33.7293C6.84977 33.7293 10.6752 33.6984 14.4807 33.6674C14.4807 33.6674 14.4807 33.6777 14.4907 33.6777V33.6674C18.1259 33.6364 21.7511 33.6157 24.4749 33.6157C25.3963 30.3306 23.784 26.9835 23.6438 23.595Z" fill="#131414"/>
<path d="M24.1945 33.5434C25.1259 30.2479 23.5136 26.9112 23.3734 23.5124C23.3333 22.686 22.3319 22.0145 21.1802 22.0145C16.2832 22.0145 11.3762 22.0145 6.47924 22.0145C5.32759 22.0145 4.32616 22.686 4.2861 23.5124C4.13589 26.9008 2.80399 30.3616 3.73532 33.6467C9.30327 33.657 18.6166 33.5434 24.1945 33.5434Z" fill="#E2BDA3"/>
<path d="M18.6366 22.0248C17.1245 22.0248 16.6238 19.7624 16.6238 19.7624C16.5637 18.5641 16.4836 17.376 16.3834 16.1983C14.6409 16.1983 12.8984 16.1983 11.1559 16.1983C11.0458 17.376 10.9657 18.5641 10.9056 19.7624C10.9056 19.7624 10.4049 22.0248 8.89271 22.0248C8.8827 22.2211 8.87268 22.4174 8.87268 22.6136C9.5136 22.6136 10.1645 22.6136 10.8054 22.6136C10.8054 22.6963 10.8054 22.7789 10.7954 22.8616C12.7783 22.8616 14.7511 22.8616 16.7339 22.8616C16.7339 22.7789 16.7339 22.6963 16.7239 22.6136C17.3648 22.6136 18.0157 22.6136 18.6567 22.6136C18.6567 22.4174 18.6466 22.2211 18.6366 22.0248Z" fill="#BA7568"/>
<path d="M12.4677 19.5145C13.9799 19.2149 15.3419 18.6054 16.5035 17.7789C16.4635 17.2521 16.4234 16.7252 16.3833 16.1983C14.6409 16.1983 12.8984 16.1983 11.1559 16.1983C11.0557 17.3554 10.9656 18.5331 10.9055 19.7107C11.4263 19.6798 11.947 19.6178 12.4677 19.5145Z" fill="#AD6860"/>
<path d="M16.5737 19.1529C15.6624 19.7107 14.721 20.2789 13.7596 20.8471C12.7882 20.1859 11.8469 19.5351 10.9556 18.874C10.9356 19.1632 10.9256 19.4628 10.9056 19.7624C10.9056 19.7624 10.4048 22.0248 8.89268 22.0248C8.09154 22.0248 7.28038 22.0248 6.47924 22.0248C5.32759 22.0248 4.32616 22.6963 4.2861 23.5227C4.13589 26.9112 2.80399 30.3719 3.73532 33.657C9.3233 33.657 18.6266 33.5434 24.2146 33.5434C25.1459 30.2479 23.5336 26.9112 23.3934 23.5124C23.3533 22.6859 22.3519 22.0145 21.2003 22.0145C20.3491 22.0145 19.5078 22.0145 18.6566 22.0145C17.1445 22.0145 16.6438 19.7521 16.6438 19.7521C16.6337 19.5454 16.6237 19.3492 16.6137 19.1426C16.5837 19.1529 16.5837 19.1529 16.5737 19.1529Z" fill="#F9F1DE"/>
<path d="M10.9957 18.2128C10.9356 18.905 10.8755 19.5971 10.8354 20.2893C11.2661 21.126 11.7267 21.9628 12.2074 22.8099C12.7382 22.1591 13.2589 21.4979 13.7696 20.8471C12.7982 19.9587 11.8569 19.0806 10.9957 18.2128Z" fill="#E8E1D1"/>
<path d="M16.5336 18.2128C16.5937 18.905 16.6438 19.5971 16.6938 20.2893C16.2732 21.126 15.8326 21.9628 15.3719 22.7996C14.8312 22.1488 14.2904 21.4979 13.7596 20.8471C14.731 19.9587 15.6724 19.0806 16.5336 18.2128Z" fill="#E8E1D1"/>
<path d="M23.3734 23.5124C23.3333 22.686 22.3319 22.0145 21.1802 22.0145C20.329 22.0145 19.4878 22.0145 18.6366 22.0145C18.0458 22.0145 17.6151 21.6736 17.2947 21.25C16.2732 25 14.8512 28.8017 13.7596 32.4897C12.5779 28.9256 11.0357 25.2376 9.91414 21.6116C9.64376 21.8595 9.30327 22.0248 8.89268 22.0248C8.09154 22.0248 7.28038 22.0248 6.47924 22.0248C5.32759 22.0248 4.32616 22.6963 4.2861 23.5227C4.13589 26.9112 2.80399 30.3719 3.73532 33.657C9.3233 33.657 18.6266 33.5434 24.2146 33.5434C25.1259 30.2479 23.5136 26.9008 23.3734 23.5124Z" fill="#333333"/>
<path d="M19.0171 22.0248C18.226 21.3327 17.4348 20.6508 16.6737 19.969C15.8526 24.0496 14.5707 28.2335 13.6294 32.2624C13.7095 32.438 13.7896 32.6033 13.8597 32.7789C15.1616 30.8161 16.6737 28.8223 18.1659 26.8182C17.8254 26.1984 17.4849 25.5785 17.1244 24.9587C17.6852 25.1136 18.236 25.2686 18.7868 25.4236C18.8969 24.2872 18.977 23.1508 19.0171 22.0248Z" fill="#424141"/>
<path d="M14.2102 33.6054C13.2388 29.1632 11.7567 24.5041 10.8454 19.969C10.0743 20.6508 9.2832 21.343 8.49207 22.0248C8.53212 23.1612 8.61224 24.2872 8.72239 25.4236C9.27318 25.2686 9.83398 25.1136 10.3848 24.9587C10.0343 25.5785 9.68377 26.1984 9.34328 26.8182C11.0557 29.1116 12.7982 31.3843 14.2102 33.6054Z" fill="#424141"/>
<path d="M13.7897 20.8678L12.9985 21.7562L13.4892 22.6859H14.0901L14.5708 21.7562L13.7897 20.8678Z" fill="#E59A05"/>
<path d="M14.0902 22.6859H13.4893L12.8684 28.2025L13.7397 31.6942L14.701 28.2025L14.0902 22.6859Z" fill="#F8B00B"/>
<path d="M9.3332 10.8988C8.66224 10.5475 8.04136 10.1136 7.87112 11.0331C7.70087 11.9525 8.36182 13.6364 9.02276 13.1095C9.67369 12.5827 9.3332 10.8988 9.3332 10.8988Z" fill="#E0A79F"/>
<path d="M8.41187 11.4463C8.28168 11.9731 8.67224 12.9029 9.12288 12.593C9.57353 12.2831 9.38326 11.3326 9.38326 11.3326C8.94263 11.1467 8.54205 10.9194 8.41187 11.4463Z" fill="#D1948C"/>
<path d="M18.1559 10.5062C18.8269 10.155 19.4477 9.72108 19.618 10.6405C19.7882 11.5599 19.1273 13.2438 18.4663 12.7169C17.8154 12.2004 18.1559 10.5062 18.1559 10.5062Z" fill="#E0A79F"/>
<path d="M19.0772 11.0641C19.2074 11.5909 18.8168 12.5207 18.3662 12.2108C17.9155 11.9008 18.1058 10.9504 18.1058 10.9504C18.5464 10.7645 18.947 10.5372 19.0772 11.0641Z" fill="#D1948C"/>
<path d="M9.5836 14.907C9.45341 13.6674 9.46343 14.4731 9.38331 13.2231C9.28317 11.7252 8.27172 7.54132 8.99276 6.23967C11.256 2.12809 16.3533 3.02686 18.4162 6.05371C19.3175 7.37603 18.5865 9.66942 18.4563 10.7748C18.1959 12.8719 18.1058 12.8409 17.8454 14.938C17.6852 15.9504 15.5221 18.3678 13.5593 18.3471C12.3175 18.1612 9.71378 16.1364 9.5836 14.907Z" fill="#DAABA2"/>
<path opacity="0.1" d="M17.3146 8.77066C17.3146 9.08058 17.4148 9.28719 17.6551 9.39049H17.8554L17.8454 9.01859C17.4648 8.95661 17.3146 8.72934 17.3146 8.34711C17.3146 8.30578 17.3146 8.26446 17.3246 8.22314C17.1043 8.16116 16.9241 8.01653 16.8239 7.82025C16.6837 7.93388 16.5035 8.0062 16.3032 8.0062C15.9927 8.0062 15.7224 7.83058 15.5922 7.58264V7.40702C15.452 7.46901 15.3018 7.5 15.1515 7.5C14.6508 7.5 14.2202 7.15909 14.08 6.68389C13.9799 6.68389 13.8797 6.66322 13.7796 6.63223C13.6294 7.25207 13.0886 7.71694 12.4377 7.71694C12.2474 7.71694 12.0671 7.67562 11.8969 7.60331C11.7567 7.84091 11.4963 7.99587 11.2059 7.99587C11.0056 7.99587 10.8254 7.92355 10.6852 7.80992C10.585 8.0062 10.4048 8.15082 10.1844 8.21281C10.1945 8.25413 10.1945 8.29545 10.1945 8.33677C10.1945 8.71901 10.0442 8.94628 9.6637 9.00826L9.65369 9.45248H9.6637V9.43181C10.0442 9.36983 10.1945 9.14256 10.1945 8.76033C10.1945 8.71901 10.1945 8.67768 10.1844 8.63636C10.4048 8.57438 10.585 8.42975 10.6852 8.23347C10.8254 8.34711 11.0056 8.41942 11.2059 8.41942C11.5063 8.41942 11.7667 8.26446 11.8969 8.02686C12.0671 8.09917 12.2474 8.14049 12.4377 8.14049C13.0886 8.14049 13.6294 7.67562 13.7796 7.05579C13.8697 7.08678 13.9699 7.10744 14.08 7.10744C14.2202 7.58264 14.6508 7.92355 15.1515 7.92355C15.3118 7.92355 15.462 7.89256 15.5922 7.83058V8.0062C15.7224 8.25413 15.9927 8.42975 16.3032 8.42975C16.5035 8.42975 16.6837 8.35744 16.8239 8.2438C16.9241 8.44008 17.1043 8.58471 17.3246 8.64669C17.3146 8.68801 17.3146 8.72934 17.3146 8.77066Z" fill="#111111"/>
<path d="M20.8798 7.20041C20.8798 6.49793 20.4291 5.88843 19.7882 5.65082C19.8483 5.54752 19.8783 5.43388 19.8783 5.30992C19.8783 5 19.668 4.74173 19.3876 4.65909C19.5779 4.45248 19.6981 4.17355 19.6981 3.87397C19.6981 3.23347 19.1573 2.71694 18.4964 2.71694C18.4863 2.71694 18.4763 2.71694 18.4663 2.71694C18.3762 2.42768 18.0657 2.22107 17.6952 2.22107C17.545 2.22107 17.4148 2.25206 17.2946 2.31405C17.3047 2.25206 17.3147 2.19008 17.3147 2.11777C17.3147 1.40496 16.7138 0.805784 15.9127 0.671487C15.5822 0.330578 15.1215 0.123967 14.6108 0.123967C14.3604 0.123967 14.1101 0.175619 13.8898 0.268595C13.6194 0.103305 13.2989 0.0103302 12.9685 0.0103302C12.4077 0.0103302 11.9069 0.268595 11.5665 0.671487C10.7753 0.805784 10.1845 1.40496 10.1845 2.10744C10.1845 2.16942 10.1945 2.24173 10.2045 2.30372C10.0843 2.24173 9.95415 2.21074 9.80394 2.21074C9.43341 2.21074 9.12296 2.42768 9.03283 2.70661C9.02282 2.70661 9.01281 2.70661 9.00279 2.70661C8.34185 2.70661 7.80107 3.22314 7.80107 3.86363C7.80107 4.16322 7.92125 4.44215 8.11152 4.64876C7.83112 4.74173 7.62082 5 7.62082 5.29958C7.62082 5.42355 7.65086 5.53719 7.71094 5.64049C7.07003 5.8781 6.61938 6.4876 6.61938 7.19008C6.61938 7.92355 7.10007 8.53305 7.77103 8.76033C7.6809 8.88429 7.63083 9.02892 7.63083 9.18388C7.63083 9.57644 7.94127 9.89669 8.34185 9.91735C8.29178 10.0103 8.26173 10.124 8.26173 10.2376C8.26173 10.6508 8.60222 10.9814 9.02282 10.9814L9.61366 11.1157L9.64371 9.11157C10.0243 9.04958 10.1745 8.82231 10.1745 8.44008C10.1745 8.39876 10.1745 8.35743 10.1645 8.31611C10.3848 8.25413 10.565 8.1095 10.6652 7.91322C10.8054 8.02686 10.9856 8.09917 11.1859 8.09917C11.4863 8.09917 11.7467 7.94421 11.8769 7.70661C12.0471 7.77892 12.2274 7.82024 12.4177 7.82024C13.0686 7.82024 13.6094 7.35537 13.7596 6.73553C13.8497 6.76653 13.9499 6.78719 14.06 6.78719C14.2002 7.26239 14.6308 7.6033 15.1315 7.6033C15.2918 7.6033 15.442 7.57231 15.5722 7.51033V7.68595C15.7024 7.93388 15.9728 8.1095 16.2832 8.1095C16.4835 8.1095 16.6637 8.03719 16.8039 7.92355C16.9041 8.11983 17.0843 8.26446 17.3047 8.32644C17.2946 8.36776 17.2946 8.40909 17.2946 8.45041C17.2946 8.83264 17.4449 9.05991 17.8254 9.1219L17.8554 11.126L18.4463 10.9917C18.8669 10.9917 19.2074 10.6612 19.2074 10.2479C19.2074 10.1343 19.1773 10.0207 19.1273 9.92768C19.5178 9.89669 19.8383 9.57644 19.8383 9.19421C19.8383 9.03925 19.7882 8.89462 19.6981 8.77066C20.3991 8.54338 20.8798 7.92355 20.8798 7.20041Z" fill="#1E2D3A"/>
<path opacity="0.1" d="M14.1802 31.4876H0.370483V33.5641H0.380498L2.65375 36.3843H2.86405L4.77678 40H14.2403H23.7038L25.5064 36.3843H25.7167L27.99 33.5641H28V31.4876H14.1802Z" fill="#131414"/>
<path opacity="0.1" d="M24.1045 30.4339V30.3099C24.1045 29.7004 23.6939 28.9566 23.1631 28.6054L20.1889 26.6322L19.558 25.8161C19.1574 25.3203 17.9457 23.967 17.2747 25.0207C16.6038 26.0744 18.2261 26.7252 18.8269 26.9318V26.9422L19.0272 26.9938C19.0372 26.9938 19.0372 26.9938 19.0372 26.9938L19.8884 27.2314L22.8126 29.1736C23.1531 29.4008 23.4535 29.9277 23.4535 30.3099V30.4339H22.9328V31.4979H24.6252V30.4339H24.1045Z" fill="#131414"/>
<path d="M27.6395 33.5124L27.6195 33.5227L25.3562 36.343H2.28326L0.0100143 33.5227L0 33.5124H27.6395Z" fill="#545352"/>
<path d="M25.3562 33.5227L25.2961 34.2975L25.1459 36.343L23.3433 39.969H4.41625L2.4935 36.343L2.34329 34.2975L2.2832 33.5227H25.3562Z" fill="#434341"/>
<path d="M27.6395 31.4566H0V33.5227H27.6395V31.4566Z" fill="#434341"/>
<path d="M25.3562 33.5227H2.2832V34.2975H25.3562V33.5227Z" fill="#545352"/>
<path opacity="0.1" d="M13.8197 31.4566L13.8798 39.969H4.41631L2.49356 36.343H2.28326L0.0100143 33.5227H0V31.4566H13.8197Z" fill="white"/>
<path d="M24.4248 30.4029H22.7324V31.4669H24.4248V30.4029Z" fill="#8E8C8B"/>
<path d="M23.9042 31.1674H23.2432V30.2686C23.2432 29.8864 22.9428 29.3595 22.6023 29.1322L17.1545 25.5165L17.505 24.9483L22.9528 28.5641C23.4836 28.9153 23.8942 29.6591 23.8942 30.2686V31.1674H23.9042Z" fill="#8E8C8B"/>
<path d="M19.4978 25.9607L18.8369 26.9731C18.8369 26.9731 16.2733 26.2707 17.0844 25C17.8956 23.7293 19.4978 25.9607 19.4978 25.9607Z" fill="#8E8C8B"/>
<path d="M20.0086 26.6116L19.3676 25.7851L18.6266 26.9112L19.6881 27.2107L20.0086 26.6116Z" fill="#35495A"/>
</g>
<defs>
<clipPath id="clip0_1_1469">
<rect width="28" height="40" fill="white"/>
</clipPath>
</defs>
</svg>
