<svg width="30" height="40" viewBox="0 0 30 40" fill="none" xmlns="http://www.w3.org/2000/svg">
<g clip-path="url(#clip0_1_1289)">
<path d="M14.8542 12.0514C17.0173 12.0514 18.7708 9.74953 18.7708 6.91002C18.7708 4.07051 17.0173 1.76863 14.8542 1.76863C12.6911 1.76863 10.9375 4.07051 10.9375 6.91002C10.9375 9.74953 12.6911 12.0514 14.8542 12.0514Z" fill="#291D09"/>
<path d="M29.1667 38.9306C27.9167 40.0617 22.2917 35.1877 22.2917 35.1877L20.0834 35.6812L15.7501 35.9897C15.7501 35.9897 11.1876 38.3753 7.91672 39.2802C2.93755 40.6581 0.770886 39.6093 0.145886 37.964C-0.0416138 37.491 -0.0624472 36.9974 0.0625529 36.5039C0.375053 35.1877 1.70839 33.8715 3.79172 32.7815C6.64589 31.3008 9.00005 30.0874 9.68755 29.1825C9.68755 29.1825 17.2292 28.2365 19.4167 28.7918C19.6876 28.8535 19.8751 28.9563 19.9584 29.0591C19.9792 29.1003 20.0001 29.1414 20.0001 29.1825C20.0209 29.4087 20.2292 29.6555 20.5834 29.9023C22.1876 31.0951 26.6876 32.5758 28.6459 34.3445C30.2709 35.7841 30.4167 37.7995 29.1667 38.9306Z" fill="#2D4454"/>
<path d="M20.5833 29.9023C16.3333 31.054 11.1458 30.4164 9.75 29.2236L9.72917 29.2031C9.72917 29.2031 9.70833 29.2031 9.70833 29.1825C9.70833 29.1825 9.70833 29.1825 9.6875 29.162L19.4167 28.7712L19.8542 28.7506C19.8958 28.874 19.9375 28.9769 19.9583 29.0386C19.9792 29.0797 20 29.1208 20 29.162C20.0208 29.4087 20.2292 29.635 20.5833 29.9023Z" fill="#C7C7C7"/>
<path d="M19.4375 25.2339C19.3959 25.8715 19.4167 26.4473 19.4792 26.982C19.5625 27.7635 19.7292 28.3805 19.8542 28.7712C19.8959 28.8946 19.9375 28.9974 19.9584 29.0591C19.9792 29.1414 20 29.1825 20 29.1825C20 29.1825 19.2917 29.9846 14.8542 30.0051C11.0417 29.9846 9.97921 29.3882 9.75004 29.2236L9.72921 29.2031C9.72921 29.2031 9.70837 29.2031 9.70837 29.1825C9.70837 29.1825 9.70837 29.1825 9.68754 29.1619C9.68754 29.1619 10.0625 28.2982 10.2084 26.9614C10.2709 26.4473 10.2917 25.8509 10.25 25.2134C10.2292 24.9049 10.1875 24.5964 10.1459 24.2673C10.0417 23.6504 9.87504 23.0128 9.60421 22.3342C9.60421 22.3342 8.62504 20.874 8.58337 19.2082L9.25004 14.5193C9.25004 14.5193 9.64587 14.4164 9.95837 14.3959C9.97921 14.3959 10 14.3959 10.0209 14.3959C10.4584 14.3753 12.625 14.437 14.8542 14.4987C17.0834 14.437 19.25 14.3753 19.6875 14.3959C19.7084 14.3959 19.7292 14.3959 19.75 14.3959C20.0625 14.437 20.4584 14.5193 20.4584 14.5193L21.125 19.2082C21.0834 20.8535 20.1042 22.3342 20.1042 22.3342C19.6667 23.383 19.4792 24.3496 19.4375 25.2339Z" fill="#E17D39"/>
<path d="M14.8334 19.9075C11.5626 19.9075 9.02089 16.9049 9.95839 14.4165C9.97922 14.4165 10.0001 14.4165 10.0209 14.4165C11.3751 14.3342 12.4167 14.2725 12.9167 13.9434C13.0001 13.8818 13.0626 13.8406 13.1251 13.7584C13.4376 13.4293 13.5626 12.9152 13.5834 12.072C13.5834 12.072 14.1876 11.9692 14.8334 11.928C15.4792 11.9692 16.0834 12.072 16.0834 12.072C16.1042 12.4833 16.1251 12.8329 16.2084 13.1003C16.2917 13.3882 16.3959 13.5938 16.5417 13.7789C16.6042 13.8406 16.6876 13.9023 16.7501 13.964C17.2501 14.2931 18.2917 14.3342 19.6459 14.437C19.6667 14.437 19.6876 14.437 19.7084 14.437C20.6667 16.9049 18.1251 19.9075 14.8334 19.9075Z" fill="#FCB78A"/>
<path d="M16.2083 13.1002C14.7292 13.7172 14.0833 12.6889 13.125 13.7789C13.4375 13.4499 13.5625 12.9357 13.5833 12.0925C13.5833 12.0925 14.1875 11.9897 14.8333 11.9486C15.4792 11.9897 16.0833 12.0925 16.0833 12.0925C16.1042 12.4833 16.1458 12.8123 16.2083 13.1002Z" fill="#E0E0E0"/>
<path d="M25.4792 27.1465C23.9167 27.1465 21.8542 27.126 19.8126 26.982C19.7084 26.982 19.5834 26.9614 19.4792 26.9614C17.7292 26.8381 16.2501 26.7147 15.8959 26.6941C14.9792 26.6324 14.8542 26.1388 14.8542 26.1388V20.8329C15.7917 21.018 14.5626 25.2339 17.2501 25.3985C17.7292 25.419 18.5417 25.3162 19.4376 25.2134C19.5417 25.1928 19.6459 25.1928 19.7501 25.1722C21.6251 24.946 23.5209 24.617 23.6459 24.5964C23.8334 24.5347 24.0626 24.3702 23.7709 23.6093C23.4376 22.7866 21.5001 19.4962 21.1042 19.2082L20.4376 14.5193C21.3542 14.6632 22.4792 15.1568 23.7501 17.2751C24.8959 19.1877 26.6042 22.8689 27.1042 24.2674C27.1459 24.3702 27.1667 24.473 27.2084 24.5553C27.5417 25.6864 28.3542 27.1465 25.4792 27.1465Z" fill="#FCB78A"/>
<path d="M14.8334 20.8535V26.1594C14.8334 26.1594 14.7084 26.653 13.7918 26.7146C13.4376 26.7352 11.9376 26.8586 10.2084 26.982C10.1043 26.982 9.97926 27.0026 9.87509 27.0026C7.83342 27.126 5.75009 27.1671 4.20842 27.1671C1.33342 27.1671 2.14592 25.7069 2.47926 24.5758C2.81259 23.4653 4.68759 19.3522 5.93759 17.2956C7.20842 15.1979 8.33342 14.7044 9.25009 14.5398L8.58342 19.2288C8.18759 19.4961 6.22926 22.8072 5.91676 23.6298C5.60426 24.3907 5.85426 24.5553 6.04176 24.617C6.16676 24.6581 8.06259 24.9666 9.93759 25.1928C10.0418 25.2134 10.1459 25.2134 10.2501 25.2339C11.1459 25.3368 11.9584 25.4601 12.4376 25.419C15.1251 25.2545 13.8959 21.018 14.8334 20.8535Z" fill="#FCB78A"/>
<path d="M18.8334 8.06169C18.9167 7.54755 18.8125 7.11568 18.6042 7.09511C18.5209 7.07454 18.4375 7.13624 18.375 7.23907C18.4375 6.16966 17.9584 5.05912 17.1459 4.66838C16.2709 4.2365 15.5209 4.85347 15.1875 4.85347C14.625 4.87403 14.1042 4.07197 12.9792 4.68894C12.0834 5.18251 11.6459 6.27249 11.5625 7.44472C11.5417 7.38303 11.4584 7.30077 11.3959 7.30077C11.2292 7.2802 11.0209 7.62981 11.0209 8.14395C11.0209 8.65809 11.1875 9.17223 11.3959 9.17223C11.4792 9.17223 11.5834 9.1311 11.6459 8.98714C11.6667 9.15167 11.7084 9.29562 11.75 9.43958C12.2292 11.0848 13.2917 12.6067 14.8542 12.6067C17.375 12.6067 18.0209 9.29562 18.1667 8.65809C18.2084 8.80205 18.2709 8.88431 18.3542 8.90488C18.5417 8.94601 18.75 8.55526 18.8334 8.06169Z" fill="#FCB78A"/>
<path d="M27.5626 39.8149C26.6251 40.2057 25.0626 39.9177 23.2501 39.3213C20.8959 38.5193 18.1042 37.162 15.7292 35.9897C13.3126 34.7764 11.3959 33.419 10.7501 33.3985C9.83339 33.3573 8.64589 33.4602 7.52089 33.9743C6.20839 34.1594 5.12506 34.3856 5.12506 34.3856C5.06256 34.1594 5.08339 33.9126 5.25006 33.6452C5.50006 33.2339 6.08339 32.7815 7.16673 32.3496C8.87506 31.6504 10.1667 31.0334 11.5209 31.6093C11.5834 31.6298 11.6251 31.6504 11.6876 31.6915C11.8334 31.7738 12.0209 31.8355 12.2084 31.9177C13.2292 32.3085 14.8542 32.7404 16.6459 33.0694C17.7501 33.2751 18.9167 33.4396 20.0417 33.5424C21.7917 33.7069 23.3751 33.8303 24.6042 34.1388C25.7292 34.4062 27.1667 34.7352 27.0001 35.5373C26.7084 37.1414 29.0626 36.5861 29.4584 37.9846C29.6251 38.5193 29.3334 39.0951 27.5626 39.8149Z" fill="#2D4454"/>
<path d="M23.0417 33.8098L22.3334 34.0154L15.75 35.9897C15.75 35.9897 11.1875 38.3753 7.9167 39.2802C7.81254 36.1748 7.06254 34.7969 6.83337 34.2622C6.52087 33.5424 10.0625 32.1645 10.0625 32.1645C10.0625 32.1645 13.7917 33.0488 15.8959 32.8843C17.1459 32.7815 17.9167 32.5141 18.5 32.2879C19.2917 31.9794 19.75 31.7738 20.5834 32.2262C21.1667 32.5347 23.0417 33.8098 23.0417 33.8098Z" fill="#2D4454"/>
<path d="M23.0417 33.8098L22.3333 34.0154L15.75 35.9897C15.75 35.9897 13.7917 33.0488 15.875 32.8843C17.125 32.7815 17.8958 32.5141 18.4792 32.2879C19.2708 31.9794 19.7292 31.7738 20.5625 32.2262C21.1667 32.5347 23.0417 33.8098 23.0417 33.8098Z" fill="#FCB78A"/>
<path d="M23.0417 33.8098L22.3333 34.0154C22.125 33.9126 21.8958 33.7892 21.6667 33.6452C20.7083 33.0283 19.4583 32.3702 18.5 32.2673C19.2917 31.9589 19.75 31.7532 20.5833 32.2056C21.1667 32.5347 23.0417 33.8098 23.0417 33.8098Z" fill="#E0E0E0"/>
<path d="M16.6459 33.0283C16.3959 33.4602 16.0001 34.3445 15.8126 35.4139C15.7918 35.599 15.7501 35.7841 15.7501 35.9897C13.3334 34.7763 11.4168 33.419 10.7709 33.3985C9.85427 33.3573 8.66677 33.4601 7.54177 33.9743C6.33343 34.5296 5.14593 34.3856 5.14593 34.3856C5.08343 34.1594 5.10427 33.9126 5.27093 33.6452C5.52093 33.2339 6.10427 32.7815 7.1876 32.3496C8.89593 31.6504 10.1876 31.0334 11.5418 31.6093C11.6043 31.6298 11.6459 31.6504 11.7084 31.6915C11.8543 31.7738 12.0418 31.8355 12.2293 31.9177C13.2293 32.2673 14.8543 32.6992 16.6459 33.0283Z" fill="#FCB78A"/>
<path d="M7.41673 33.4807C7.3959 33.6247 7.43757 33.7892 7.54173 33.9743C5.4584 34.9203 5.2709 34.6941 5.1459 34.3856C5.0209 34.0977 4.97923 33.6864 5.29173 33.2545C5.56257 32.9049 6.10423 32.5347 7.0834 32.2262C9.06256 31.6093 10.1876 31.0129 11.5209 31.5887C11.5834 31.6093 11.6251 31.6298 11.6876 31.6709C11.8334 31.7532 12.0209 31.8149 12.2084 31.8972C10.9792 32.0206 7.54173 32.2879 7.41673 33.4807Z" fill="#E0E0E0"/>
<path d="M23.3126 38.0463C23.2292 38.8278 23.2501 39.3213 23.2501 39.3213C20.8959 38.5193 18.1042 37.1619 15.7292 35.9897C15.7501 35.7841 15.7709 35.599 15.7917 35.4139C15.9584 34.3445 16.3751 33.4602 16.6251 33.0283C17.7292 33.2339 18.8959 33.3985 20.0209 33.5013C21.7709 33.6658 23.3542 33.7892 24.5834 34.0977C23.7501 35.6195 23.4376 37.0591 23.3126 38.0463Z" fill="#2D4454"/>
<path d="M25.4793 27.1465C23.9168 27.1465 21.8543 27.126 19.8126 26.982C19.7084 26.982 19.5834 26.9614 19.4793 26.9614C17.7292 26.838 16.2501 26.7147 15.8959 26.6941C14.9792 26.6324 14.8542 26.1388 14.8542 26.1388V25.3368C14.8542 26.4267 15.1459 26.5707 18.3751 26.5707C21.6043 26.5707 27.7501 26.8997 27.1251 24.2673C27.1668 24.3702 27.1876 24.473 27.2293 24.5553C27.5418 25.6864 28.3543 27.1465 25.4793 27.1465Z" fill="#E0E0E0"/>
<path d="M4.20838 27.1465C5.77088 27.1465 7.83338 27.126 9.87505 26.982C9.97922 26.982 10.1042 26.9614 10.2084 26.9614C11.9584 26.838 13.4375 26.7147 13.7917 26.6941C14.7084 26.6324 14.8334 26.1388 14.8334 26.1388V25.3368C14.8334 26.4267 14.5417 26.5707 11.3125 26.5707C8.08338 26.5707 1.93755 26.8997 2.56255 24.2673C2.52088 24.3702 2.50005 24.473 2.45838 24.5553C2.14588 25.6864 1.31255 27.1465 4.20838 27.1465Z" fill="#E0E0E0"/>
<path d="M15.75 35.9897C15.75 35.9897 11.1875 38.3753 7.91672 39.2802C2.93755 40.6581 0.770886 39.6093 0.145886 37.964C-0.0416138 37.491 -0.0624471 36.9974 0.0625528 36.5039C0.562553 38.1285 4.12505 40 14.6667 35.4344L15.75 35.9897Z" fill="#DBDBDB"/>
<path d="M29.4584 37.9434C29.6875 38.5193 29.3125 39.1157 27.5625 39.8355C26.625 40.2262 25.0625 39.9383 23.25 39.3419C20.8959 38.5398 18.1042 37.1825 15.7292 36.0103C13.3125 34.7969 11.3959 33.4396 10.75 33.419C9.83336 33.3779 8.64586 33.4807 7.52086 33.9949C5.43753 34.9409 5.25003 34.7146 5.12503 34.4062C5.00003 34.1182 4.95836 33.7069 5.27086 33.2751C5.25003 33.3985 5.22919 33.5424 5.25003 33.6452C5.29169 33.9537 5.62503 34.1182 6.79169 33.7069C7.00003 33.6247 7.18753 33.563 7.39586 33.5218C8.79169 33.1311 10.125 33.0694 10.8542 33.2339C11.2292 33.3162 13.2292 34.3445 15.7917 35.4756C18.0834 36.4627 20.8125 37.5527 23.2917 38.108C24.2084 38.3136 25.1042 38.4576 25.9167 38.4987C27.6459 38.5193 28.75 38.2931 29.4584 37.9434Z" fill="#DBDBDB"/>
<path d="M12.7292 4.85346C12.375 5.20308 12.0417 6.21079 12.0209 6.82776C12.0209 6.82776 11.9584 6.14909 12.1459 5.53213C12.3334 4.91516 12.2917 4.33932 12.2917 4.33932L12.7292 4.85346Z" fill="#291D09"/>
<path d="M14.0208 3.0437C13.7917 2.59126 12.8958 2.01542 12.3125 1.80977C12.3125 1.80977 13 1.95373 13.5417 2.30334C14.0833 2.65296 14.6458 2.77635 14.6458 2.77635L14.0208 3.0437Z" fill="#291D09"/>
<path d="M15.375 2.6324C15.875 2.509 16.6458 1.78921 16.9792 1.27507C16.9792 1.27507 16.6875 1.89204 16.2292 2.34448C15.7708 2.77636 15.5 3.31106 15.5 3.31106L15.375 2.6324Z" fill="#291D09"/>
<path d="M15.4792 2.11826C15.9584 2.28278 17 2.09769 17.5834 1.85091C17.5834 1.85091 17 2.22109 16.3542 2.34448C15.7292 2.46787 15.2084 2.75579 15.2084 2.75579L15.4792 2.11826Z" fill="#291D09"/>
<path d="M14.8542 3.53728C15.6941 3.53728 16.375 2.74543 16.375 1.76864C16.375 0.791846 15.6941 0 14.8542 0C14.0143 0 13.3334 0.791846 13.3334 1.76864C13.3334 2.74543 14.0143 3.53728 14.8542 3.53728Z" fill="#291D09"/>
</g>
<defs>
<clipPath id="clip0_1_1289">
<rect width="30" height="40" fill="white"/>
</clipPath>
</defs>
</svg>
