<svg width="40" height="42" viewBox="0 0 40 42" fill="none" xmlns="http://www.w3.org/2000/svg">
<path d="M38.2781 28.8867L8.2701 40.2164L8.33675 31.5325L38.2781 28.8867Z" fill="#DE3000"/>
<path d="M8.33679 31.5324L38.2781 28.8866L1.79734 37.8521L8.33679 31.5324Z" fill="#FA4614"/>
<path d="M28.5193 4.37778C28.5193 4.37778 28.2807 3.80232 28.2409 3.70725C28.2011 3.61217 28.2558 3.33695 28.3503 3.0217C28.4398 2.70645 28.7033 2.32615 28.758 2.31114C28.8127 2.29613 28.8574 2.25109 28.9966 2.29613C29.1309 2.34116 29.2253 2.45125 29.2253 2.45125C29.2253 2.45125 29.4192 2.42623 29.5236 2.57135C29.5236 2.57135 29.7076 2.55633 29.7971 2.74148C29.7971 2.74148 29.9761 2.73147 30.0307 2.87158C30.0307 2.87158 29.9761 3.15181 29.986 3.25689C29.9959 3.36698 29.8418 3.93743 29.6081 4.45784C29.6032 4.47285 29.3347 5.02829 28.5193 4.37778Z" fill="#EEA886"/>
<path d="M29.6332 4.40755C29.6332 4.40755 29.4493 4.93797 28.8228 5.40835C28.1964 5.88373 28.2511 4.90795 28.2511 4.90795C28.2511 4.90795 28.5096 4.4676 28.5046 4.3375C28.4997 4.20239 29.6332 4.40755 29.6332 4.40755Z" fill="#EEA886"/>
<path d="M25.7699 8.43105C26.5654 8.12581 29.4441 4.91327 29.4441 4.91327L28.3652 4.31779C28.3652 4.31779 26.819 5.9691 25.9539 6.54956C25.5263 6.83979 24.8999 6.85981 24.8154 6.88483C24.7308 6.91485 22.0411 6.67466 21.7975 6.60961C21.5539 6.54456 20.7137 6.18928 20.127 6.2243C19.5403 6.25933 19.3066 6.82478 19.3066 6.82478C19.2072 8.25591 21.3848 8.2459 21.3848 8.2459C21.3848 8.2459 24.6563 8.85639 25.7699 8.43105Z" fill="#292C47"/>
<path d="M23.9057 28.5918C23.9057 28.5918 24.6912 29.0422 25.0442 29.2123C25.3972 29.3775 26.7694 29.4075 26.9037 29.5376C27.0429 29.6627 26.9981 30.078 26.7694 30.123C26.5407 30.1681 24.8802 30.3432 24.3233 30.2181C23.7665 30.093 22.7324 30.3282 22.4987 30.2531C22.27 30.1781 22.3992 28.9271 22.4838 28.6469C22.5782 28.3667 23.9057 28.5918 23.9057 28.5918Z" fill="#292C47"/>
<path d="M23.8661 28.0663L23.9058 28.5917C23.9058 28.5917 22.8667 28.8019 22.4889 28.6468L22.5585 28.1164L23.8661 28.0663Z" fill="#3D416B"/>
<path d="M10.0442 31.5796C10.0442 31.5796 10.79 32.095 11.128 32.2902C11.4661 32.4853 12.8334 32.6254 12.9576 32.7655C13.0819 32.9056 13.0074 33.311 12.7787 33.336C12.55 33.361 10.8794 33.401 10.3326 33.2359C9.78566 33.0708 8.73662 33.2209 8.51289 33.1258C8.28916 33.0307 8.51786 31.7998 8.62724 31.5246C8.73165 31.2493 10.0442 31.5796 10.0442 31.5796Z" fill="#292C47"/>
<path d="M10.1389 31.0738L10.0394 31.5792C10.0394 31.5792 8.99038 31.7043 8.68213 31.5241L8.79648 30.9987L10.1389 31.0738Z" fill="#3D416B"/>
<path d="M18.6804 15.4266C18.581 15.7669 18.3225 16.4874 18.044 17.248C17.9844 17.4182 17.9197 17.5883 17.8551 17.7534C17.4773 18.7742 17.1193 19.715 17.1193 19.715C16.5724 20.971 15.2947 23.6431 14.6732 24.1135C13.8379 24.744 10.1389 31.4143 10.1389 31.4143L8.47339 31.2141C8.47339 31.2141 10.2831 26.2302 11.0388 25.1243C11.879 23.8933 13.2015 22.282 13.3407 20.9159C13.4302 20.0553 13.9572 17.3932 13.9572 17.3932C13.9572 17.3932 14.5737 14.4058 15.9111 12.4542C16.2492 11.9639 18.6804 15.4266 18.6804 15.4266Z" fill="#292C47"/>
<path d="M20.4552 15.1264C20.4552 15.1264 25.0939 18.6091 25.611 19.3247C26.128 20.0453 25.8148 21.1812 25.7352 21.5314C25.6557 21.8817 24.1841 27.6263 24.1443 28.2267C24.1443 28.2267 22.7124 28.582 22.3495 28.1167C22.3495 28.1167 22.8467 22.6623 23.1748 21.5314C23.5029 20.4055 21.9318 19.665 21.022 19.2546C20.1122 18.8443 15.5183 16.6225 15.5978 15.7268C15.6525 15.1063 15.737 14.5209 15.737 14.5209C15.737 14.5209 16.6419 13.7853 20.4552 15.1264Z" fill="#292C47"/>
<path d="M20.3558 5.81882C20.3558 5.81882 20.8728 7.35003 20.8778 8.22072C20.8828 9.09641 20.0724 11.7185 20.0127 12.2039C19.8586 13.5099 20.4552 15.1262 20.4552 15.1262L15.6674 16.0519C15.6674 16.0519 15.5331 14.6658 15.553 13.0045C15.5779 11.3432 15.9707 9.9671 16.259 9.05137C17.1689 6.18911 19.2172 5.06322 19.2172 5.06322L20.3558 5.81882Z" fill="#CFBEB6"/>
<path d="M22.5534 2.03587C22.5534 2.03587 22.9859 2.84151 22.7721 2.9666C22.5931 3.07169 22.9809 3.86231 23.0306 3.99242C23.0804 4.12252 22.7125 4.21759 22.6329 4.29766C22.5534 4.38273 22.3197 5.40353 22.0164 5.43356C21.7131 5.46358 20.3359 4.9832 19.9631 4.59289C19.5902 4.20258 19.2819 2.43118 19.5305 1.68559C19.7741 0.934997 21.7927 0.624751 22.5534 2.03587Z" fill="#EEA886"/>
<path d="M21.0965 5.21331C21.0965 5.21331 21.0617 5.29337 21.007 5.42347C20.9822 5.47852 20.9573 5.53857 20.9325 5.60362C20.9126 5.65366 20.8877 5.7087 20.8678 5.76374C20.7286 6.11402 20.5695 6.53936 20.5447 6.74953C20.4999 7.14484 19.4061 5.0732 19.4061 5.0732C19.4061 5.0732 19.9232 3.90227 20.2812 2.51617C20.6391 1.13508 21.0965 5.21331 21.0965 5.21331Z" fill="#EEA886"/>
<path d="M22.6428 2.21103C22.6428 2.21103 23.0853 1.34034 22.2848 0.694831C21.4844 0.0493196 20.0078 1.18022 19.8387 1.22525C19.6747 1.27029 18.7449 1.33033 19.2023 3.00166C19.61 4.49284 19.6697 4.40777 19.6697 4.40777C19.6697 4.40777 19.973 3.66218 20.147 3.53708C20.4154 3.34193 21.0121 3.38696 21.0121 3.38696C21.0121 3.38696 20.7287 2.63136 21.1712 2.52628C21.6136 2.4212 22.1953 2.0409 22.6428 2.21103Z" fill="#FCCCA2"/>
<path d="M20.5398 2.95672C20.5001 2.85164 20.3758 2.40629 19.9929 2.6715C19.6151 2.9317 20.2316 3.77237 20.2962 3.78238C20.3658 3.79238 20.868 3.82741 20.5398 2.95672Z" fill="#EEA886"/>
<path d="M19.4808 4.88806C19.4808 4.88806 20.162 6.11904 20.679 6.50434L20.5398 7.29497L19.2223 5.0682L19.4808 4.88806Z" fill="#EDDAD3"/>
<path d="M21.0967 5.21344C21.0967 5.21344 21.0619 5.29351 21.0072 5.42361C20.9823 5.47865 20.9575 5.5387 20.9326 5.60375C20.1968 5.05331 20.0228 4.658 20.0178 4.64299C20.3559 4.89319 21.0967 5.21344 21.0967 5.21344Z" fill="#A77860"/>
<path d="M20.4553 15.1263C20.4553 15.1263 20.321 14.7059 20.2912 14.6009L15.6277 15.4766L15.6724 16.052C15.6724 16.052 19.0831 15.4315 20.4553 15.1263Z" fill="#23263D"/>
<path d="M15.7669 10.6428C15.7669 10.6428 15.5531 13.375 13.7086 16.0521C13.4849 16.3773 16.2641 16.8027 16.2641 16.8027L15.7669 10.6428Z" fill="#323657"/>
<path d="M33.9138 2.88221L23.2068 2.64125L23.1868 3.54178L33.8938 3.78274L33.9138 2.88221Z" fill="#2F4563"/>
<path d="M24.0134 2.47025L23.2083 2.45212L23.1799 3.72775L23.9851 3.74588L24.0134 2.47025Z" fill="#2F4563"/>
<path d="M35.444 2.55813L31.3033 2.46495L31.2676 4.0759L35.4082 4.16908L35.444 2.55813Z" fill="#2F4563"/>
<path d="M37.8459 2.15726L35.097 2.0954L35.041 4.61689L37.7899 4.67875L37.8459 2.15726Z" fill="#2F4563"/>
<path d="M27.5599 2.80141C27.5599 2.80141 27.6046 2.96654 27.5897 3.05161C27.5897 3.05161 27.5499 3.20172 27.5251 3.30681C27.5201 3.34184 27.5151 3.37186 27.5102 3.39187C27.5052 3.47194 27.5151 3.65708 27.4455 3.84723C27.3759 4.03739 27.0627 4.69791 27.0627 4.69791L26.4611 4.52777L25.9192 4.53278C25.9192 4.53278 25.6656 3.31181 25.7104 3.12666C25.7153 3.10665 25.7203 3.09164 25.7253 3.07663C25.78 2.9215 25.8794 2.83143 25.9192 2.75137C25.9341 2.72134 26.0882 2.44613 26.1777 2.43111C26.307 2.40609 26.4064 2.44613 26.4661 2.51118C26.4661 2.51118 26.7196 2.47615 26.8638 2.56622C26.8638 2.56622 27.0975 2.52619 27.2466 2.69132C27.2516 2.69132 27.4903 2.67631 27.5599 2.80141Z" fill="#EFAA88"/>
<path d="M27.0628 4.69797C27.0628 4.69797 26.849 5.1083 26.4065 5.63371C25.9591 6.15913 25.7701 5.05826 25.7701 5.05826L25.9193 4.53284C25.9193 4.53284 26.5805 4.24762 27.0628 4.69797Z" fill="#EFAA88"/>
<path d="M28.7333 2.39626C28.7333 2.39626 28.5195 3.1969 28.6438 3.24694C28.7681 3.29698 28.8427 3.24193 28.8427 3.24193L28.9024 3.61223C28.9024 3.61223 29.0813 3.8324 29.2653 3.5772C29.2653 3.5772 29.4095 3.80238 29.5586 3.52716C29.5586 3.52716 29.7177 3.63224 29.8122 3.51715C29.9067 3.40206 30.021 2.79658 30.021 2.79658C30.021 2.79658 29.9464 2.64646 29.8022 2.73153C29.8022 2.73153 29.7227 2.54638 29.5288 2.56139C29.5288 2.56139 29.4443 2.43129 29.2305 2.4463C29.2305 2.4463 29.0117 2.17108 28.7582 2.3212C28.7631 2.3162 28.7433 2.36124 28.7333 2.39626Z" fill="#DB9C7C"/>
<path d="M28.251 3.68228C28.251 3.68228 28.6288 3.26195 28.9371 3.12183C29.0067 3.09181 29.0813 3.0718 29.136 3.12684C29.1906 3.18188 29.1857 3.327 29.0315 3.51715C28.8774 3.7073 28.7631 4.02755 28.7631 4.02755C28.7631 4.02755 28.5393 4.17767 28.251 3.68228Z" fill="#EEA886"/>
<path d="M20.8728 6.90964C20.8728 6.90964 21.0617 7.45007 21.0269 7.6102C21.0269 7.6102 20.7336 7.75031 20.5049 7.63021C20.5049 7.63021 20.6192 7.22989 20.8728 6.90964Z" fill="#D44040"/>
<path d="M20.6193 7.57025C20.6193 7.57025 20.0923 9.39169 20.3906 11.3532C20.6989 13.3849 20.9574 14.1054 20.9574 14.1054L21.4347 14.6058L21.559 13.9253C21.559 13.9253 20.7436 11.3783 20.8779 8.81123C20.9027 8.34586 20.9226 7.47017 20.9226 7.47017L20.6193 7.57025Z" fill="#D44040"/>
<path d="M20.5299 8.85106C20.4255 9.14129 20.326 9.43652 20.2365 9.73176C20.0327 10.3823 19.8636 11.0378 19.7195 11.6783C19.6697 11.9085 19.62 12.1337 19.5753 12.3538C19.0383 15.0109 17.6214 16.9675 17.6214 16.9675C17.6214 16.9675 15.4984 16.7973 15.0062 16.4421C15.0062 16.4421 15.1454 13.3796 15.8216 10.4273C15.8763 10.1971 15.931 9.97195 15.9906 9.74677C16.6171 7.36989 17.6214 5.22819 19.2273 5.05806C19.2521 5.1031 21.0817 7.32485 20.5299 8.85106Z" fill="#323657"/>
<path d="M24.1394 8.96143C24.9746 8.80631 26.9981 5.11339 26.9981 5.11339L25.7403 4.44286C25.7403 4.44286 25.1337 5.61378 24.3681 6.37939C24.0002 6.74468 23.5229 7.41521 23.4334 7.42522C23.3439 7.43522 20.853 6.74468 20.6243 6.63959C20.3956 6.52951 19.6349 6.02411 19.0483 5.94905C18.4666 5.87399 18.1335 6.3894 18.1335 6.3894C17.7705 7.77549 19.9183 8.17081 19.9183 8.17081C19.9183 8.17081 22.966 9.1766 24.1394 8.96143Z" fill="#323657"/>
</svg>
