<svg width="38" height="36" viewBox="0 0 38 36" fill="none" xmlns="http://www.w3.org/2000/svg">
<path d="M37.9633 36H0.0367432V35.1694L0.636373 34.1006L0.947292 33.1094L1.45809 31.4924L1.76901 30.5068L2.2798 28.8898L2.59072 27.8986L3.10707 26.2816L3.41799 25.2959L3.85105 23.9171H34.149L34.5821 25.2959L34.893 26.2816L35.4038 27.8986L35.7203 28.8898L36.2311 30.5068L36.542 31.4924L37.0528 33.1094L37.3637 34.1006L37.9633 35.1694V36Z" fill="#A57954"/>
<path d="M37.9633 35.1694H0.0367432L0.636373 33.27L0.947292 32.2843L1.45809 30.6618L1.76901 29.6817L2.2798 28.0591L2.59072 27.0735L3.10707 25.451L3.41799 24.4653L3.85105 23.0864H34.149L34.5821 24.4653L34.893 25.451L35.4038 27.0735L35.7203 28.0591L36.2311 29.6817L36.542 30.6618L37.0528 32.2843L37.3637 33.27L37.9633 35.1694Z" fill="#CC9050"/>
<path d="M4.14526 32.0684C4.39511 32.0684 4.6394 31.8469 4.62829 31.5866C4.61719 31.3263 4.41732 31.1048 4.14526 31.1048C3.89542 31.1048 3.65113 31.3263 3.66223 31.5866C3.67333 31.8524 3.87321 32.0684 4.14526 32.0684Z" fill="white"/>
<path d="M9.33654 32.0684C9.58639 32.0684 9.83068 31.8469 9.81957 31.5866C9.80847 31.3263 9.60859 31.1048 9.33654 31.1048C9.0867 31.1048 8.84241 31.3263 8.85351 31.5866C8.86462 31.8524 9.06449 32.0684 9.33654 32.0684Z" fill="white"/>
<path d="M14.5277 32.0684C14.7775 32.0684 15.0218 31.8469 15.0107 31.5866C14.9996 31.3263 14.7998 31.1048 14.5277 31.1048C14.2779 31.1048 14.0336 31.3263 14.0447 31.5866C14.0613 31.8524 14.2612 32.0684 14.5277 32.0684Z" fill="white"/>
<path d="M30.1071 32.0684C30.3569 32.0684 30.6012 31.8469 30.5901 31.5866C30.579 31.3263 30.3791 31.1048 30.1071 31.1048C29.8572 31.1048 29.6129 31.3263 29.624 31.5866C29.6407 31.8524 29.8406 32.0684 30.1071 32.0684Z" fill="white"/>
<path d="M35.3037 32.0684C35.5536 32.0684 35.7979 31.8469 35.7868 31.5866C35.7757 31.3263 35.5758 31.1048 35.3037 31.1048C35.0539 31.1048 34.8096 31.3263 34.8207 31.5866C34.8318 31.8524 35.0317 32.0684 35.3037 32.0684Z" fill="white"/>
<path d="M4.07314 27.151C4.18418 27.3448 4.31188 27.5276 4.45623 27.6937C4.51175 27.7546 4.57283 27.8377 4.66166 27.8487C4.7616 27.8543 4.83933 27.7712 4.9004 27.6992C5.03365 27.5386 5.12249 27.3448 5.23908 27.1676C5.36123 26.9793 5.51113 26.8077 5.67215 26.6471C5.74432 26.5751 5.66659 26.4699 5.57776 26.4865C5.04476 26.5972 4.5062 26.6471 3.96209 26.6305C3.83995 26.6249 3.83995 26.8187 3.96209 26.8243C4.52286 26.8409 5.08362 26.7911 5.62773 26.6748C5.59442 26.6194 5.56666 26.5696 5.53334 26.5142C5.26684 26.7744 5.07252 27.0679 4.88374 27.3836C4.83933 27.4611 4.78936 27.5331 4.72829 27.5995C4.71718 27.6106 4.69497 27.6438 4.68387 27.6438C4.66721 27.6494 4.67832 27.6438 4.65611 27.6328C4.6228 27.6162 4.58948 27.5608 4.56727 27.5331C4.43958 27.3836 4.33409 27.223 4.23415 27.0569C4.17863 26.9461 4.01206 27.0402 4.07314 27.151Z" fill="#F9C350"/>
<path d="M23.6166 25.0966C23.7276 25.2904 23.8553 25.4731 23.9997 25.6392C24.0552 25.7002 24.1163 25.7832 24.2051 25.7943C24.3051 25.7998 24.3828 25.7168 24.4439 25.6448C24.5771 25.4842 24.6659 25.2904 24.7825 25.1132C24.9047 24.9249 25.0546 24.7533 25.2156 24.5927C25.2878 24.5207 25.2101 24.4155 25.1212 24.4321C24.5882 24.5428 24.0497 24.5927 23.5056 24.5761C23.3834 24.5705 23.3834 24.7643 23.5056 24.7699C24.0663 24.7865 24.6271 24.7366 25.1712 24.6204C25.1379 24.565 25.1101 24.5151 25.0768 24.4598C24.8103 24.72 24.616 25.0135 24.4272 25.3292C24.3828 25.4067 24.3328 25.4787 24.2717 25.5451C24.2606 25.5562 24.2384 25.5894 24.2273 25.5894C24.2107 25.5949 24.2218 25.5894 24.1996 25.5783C24.1663 25.5617 24.1329 25.5064 24.1107 25.4787C23.983 25.3292 23.8775 25.1686 23.7776 25.0024C23.7221 24.8917 23.5555 24.9858 23.6166 25.0966Z" fill="#F9C350"/>
<path d="M14.0614 25.0966C14.1725 25.2904 14.3002 25.4731 14.4445 25.6392C14.5 25.7002 14.5611 25.7832 14.6499 25.7943C14.7499 25.7998 14.8276 25.7168 14.8887 25.6448C15.0219 25.4842 15.1108 25.2904 15.2274 25.1132C15.3495 24.9249 15.4994 24.7533 15.6604 24.5927C15.7326 24.5207 15.6549 24.4155 15.566 24.4321C15.033 24.5428 14.4945 24.5927 13.9504 24.5761C13.8282 24.5705 13.8282 24.7643 13.9504 24.7699C14.5111 24.7865 15.0719 24.7366 15.616 24.6204C15.5827 24.565 15.5549 24.5151 15.5216 24.4598C15.2551 24.72 15.0608 25.0135 14.872 25.3292C14.8276 25.4067 14.7776 25.4787 14.7166 25.5451C14.7055 25.5562 14.6833 25.5894 14.6722 25.5894C14.6555 25.5949 14.6666 25.5894 14.6444 25.5783C14.6111 25.5617 14.5778 25.5064 14.5556 25.4787C14.4279 25.3292 14.3224 25.1686 14.2224 25.0024C14.1669 24.8917 14.0003 24.9858 14.0614 25.0966Z" fill="#F9C350"/>
<path d="M31.7837 26.4366C31.8948 26.6304 32.0225 26.8132 32.1668 26.9793C32.2223 27.0402 32.2834 27.1233 32.3722 27.1344C32.4722 27.1399 32.5499 27.0568 32.611 26.9848C32.7442 26.8243 32.8331 26.6304 32.9497 26.4532C33.0718 26.265 33.2217 26.0933 33.3827 25.9327C33.4549 25.8607 33.3772 25.7555 33.2883 25.7721C32.7553 25.8829 32.2168 25.9327 31.6727 25.9161C31.5505 25.9106 31.5505 26.1044 31.6727 26.1099C32.2334 26.1265 32.7942 26.0767 33.3383 25.9604C33.305 25.905 33.2772 25.8552 33.2439 25.7998C32.9774 26.0601 32.7831 26.3536 32.5943 26.6692C32.5499 26.7467 32.4999 26.8187 32.4389 26.8852C32.4278 26.8962 32.4055 26.9295 32.3944 26.9295C32.3778 26.935 32.3889 26.9295 32.3667 26.9184C32.3334 26.9018 32.3001 26.8464 32.2779 26.8187C32.1502 26.6692 32.0447 26.5086 31.9447 26.3425C31.8892 26.2317 31.7226 26.3314 31.7837 26.4366Z" fill="#F9C350"/>
<g opacity="0.15">
<path opacity="0.15" d="M18.7919 32.55C25.4826 32.55 30.9066 31.3501 30.9066 29.8698C30.9066 28.3896 25.4826 27.1897 18.7919 27.1897C12.1011 27.1897 6.67712 28.3896 6.67712 29.8698C6.67712 31.3501 12.1011 32.55 18.7919 32.55Z" fill="#293033"/>
</g>
<path d="M8.0929 24.6424C10.0806 24.6368 12.5624 24.9746 14.7332 25.1131C16.4766 25.2238 22.3119 25.2294 23.761 25.1131C25.3656 24.9802 28.0195 24.731 30.8344 24.7587C26.9979 28.2916 21.7789 30.9607 18.4643 30.9884C15.1496 31.0161 8.0929 24.6424 8.0929 24.6424Z" fill="#5378BB"/>
<path d="M12.2514 32.0241C12.7955 31.9133 14.339 31.7915 14.5 31.7638C15.8325 31.5035 17.5093 31.1713 18.2977 30.839C19.0861 30.5068 23.4167 27.8986 25.9263 26.3979C28.5858 24.8086 30.7067 24.0555 31.7894 25.2959C32.6777 26.3093 32.3945 28.2475 30.0737 29.1335C25.5377 30.8667 21.2348 32.2179 19.5747 32.8381C17.9146 33.4583 15.0941 34.3222 15.0164 34.3443C13.4951 34.7818 13.4784 34.7873 12.8622 34.0674C12.3569 33.4749 11.5852 32.157 12.2514 32.0241Z" fill="#FCC9B3"/>
<path d="M18.2977 30.8389C17.5093 31.1712 15.8326 31.5034 14.5 31.7637C14.4445 31.7748 14.2335 31.7969 13.9559 31.8246C14.6999 32.2842 17.0318 32.7217 18.2089 33.3197C19.025 33.0539 18.8807 33.0982 19.5747 32.838C20.4908 32.4946 22.2119 31.9298 24.3273 31.2044C23.3002 31.0106 20.5519 31.3041 18.9973 30.479C18.0756 31.0106 18.5809 30.7171 18.2977 30.8389Z" fill="#F79C82"/>
<path d="M18.9806 30.479C18.9584 30.4956 18.9418 30.5067 18.9196 30.5233L18.8863 30.5454L18.8529 30.562C18.8085 30.5897 18.7641 30.6119 18.7197 30.634C18.6309 30.6783 18.542 30.7226 18.4476 30.7614L18.381 30.7946L18.3088 30.8223L18.17 30.8777C18.0756 30.9109 17.9813 30.9497 17.8869 30.9829C17.7925 31.0161 17.6981 31.0493 17.6037 31.077L17.315 31.1656C17.1207 31.221 16.9319 31.2764 16.732 31.3207C16.3434 31.4204 15.9492 31.4979 15.5605 31.5809C15.3662 31.6197 15.1663 31.6529 14.972 31.6862L14.3835 31.7969C14.0115 31.8357 13.634 31.8744 13.262 31.9132C13.0732 31.9354 12.89 31.952 12.7012 31.9741C12.6068 31.9852 12.5124 31.9963 12.4236 32.0073L12.3514 32.0184L12.2848 32.0295C12.2737 32.0295 12.2626 32.035 12.2515 32.035C12.2459 32.035 12.2404 32.035 12.2348 32.0406L12.2182 32.0461C12.196 32.0572 12.1737 32.0627 12.1571 32.0738C12.1182 32.0959 12.0849 32.1292 12.0572 32.1624C12.0294 32.2012 12.0127 32.2399 12.0016 32.2842C11.9961 32.2953 11.9961 32.3064 11.9961 32.3174C11.9961 32.3285 11.9905 32.3396 11.9905 32.3507V32.3839V32.4005V32.4171C11.9905 32.4614 11.9961 32.5113 12.0072 32.5556C12.0127 32.5777 12.0183 32.5999 12.0238 32.622C12.0294 32.6442 12.0405 32.6663 12.0516 32.6829C12.0738 32.7217 12.1127 32.7494 12.1515 32.7715C12.2348 32.8158 12.3292 32.8324 12.418 32.838C12.6068 32.8546 12.79 32.8435 12.9788 32.8214C13.1676 32.7992 13.3508 32.766 13.534 32.7217C13.3508 32.766 13.1676 32.8048 12.9788 32.8269C12.79 32.8491 12.6068 32.8712 12.418 32.8546C12.3237 32.8435 12.2293 32.8324 12.1404 32.7881C12.096 32.766 12.0572 32.7383 12.0294 32.694C12.0183 32.6719 12.0016 32.6497 11.9961 32.6276C11.9905 32.6054 11.985 32.5833 11.9794 32.5611C11.9683 32.5168 11.9628 32.467 11.9628 32.4227V32.406V32.3894V32.3562C11.9628 32.3451 11.9683 32.3341 11.9683 32.323C11.9683 32.3119 11.9683 32.3008 11.9739 32.2898C11.985 32.2399 12.0016 32.1956 12.0294 32.1569C12.0572 32.1181 12.096 32.0849 12.1349 32.0572C12.1571 32.0461 12.1793 32.035 12.2015 32.024L12.2182 32.0184C12.2237 32.0184 12.2293 32.0129 12.2348 32.0129C12.2459 32.0129 12.257 32.0073 12.2681 32.0073L12.3403 31.9963L12.4125 31.9852C12.5069 31.9741 12.6013 31.963 12.6901 31.952C12.8789 31.9298 13.0621 31.9077 13.2509 31.8855C13.6229 31.8412 13.9948 31.8025 14.3724 31.7637L14.9609 31.6529C15.1552 31.6197 15.3551 31.5865 15.5494 31.5477L15.8437 31.4868C15.9436 31.4647 16.038 31.448 16.138 31.4259L16.4322 31.3594L16.5044 31.3428L16.5766 31.3262L16.7209 31.293C16.9153 31.2487 17.1096 31.1933 17.3039 31.1435L17.5926 31.0604C17.687 31.0327 17.7814 30.9995 17.8758 30.9663C17.9702 30.9331 18.0645 30.8998 18.1589 30.8666L18.2977 30.8112L18.3699 30.7835L18.4365 30.7559C18.5309 30.7171 18.6198 30.6783 18.7086 30.6285C18.753 30.6063 18.7974 30.5842 18.8418 30.5565L18.8752 30.5399L18.9085 30.5177C18.9418 30.5067 18.964 30.49 18.9806 30.479Z" fill="#293133"/>
<path d="M12.0127 32.6277C12.0516 32.755 12.096 32.8768 12.1459 32.9987C12.1682 33.0596 12.1959 33.1205 12.2237 33.1759C12.2514 33.2368 12.2847 33.2922 12.3236 33.342C12.3458 33.3697 12.3625 33.3918 12.3902 33.4084C12.4013 33.4195 12.418 33.4251 12.4291 33.4306C12.4402 33.4361 12.4569 33.4417 12.4735 33.4472C12.5346 33.4694 12.5957 33.4804 12.6623 33.486C12.7289 33.4915 12.7955 33.4915 12.8566 33.4915C12.9232 33.4915 12.9899 33.486 13.0565 33.4804C12.9288 33.5081 12.7955 33.5247 12.6623 33.5192C12.5957 33.5137 12.529 33.5081 12.4624 33.486C12.4458 33.4804 12.4291 33.4749 12.4124 33.4638C12.3958 33.4527 12.3791 33.4472 12.368 33.4361C12.3403 33.414 12.3181 33.3918 12.2959 33.3641C12.2126 33.2534 12.1626 33.1316 12.1182 33.0042C12.0738 32.8824 12.0405 32.755 12.0127 32.6277Z" fill="#293133"/>
<path d="M12.3903 33.4304C12.4458 33.5024 12.5013 33.5799 12.5568 33.6519C12.6123 33.7294 12.6623 33.8014 12.7178 33.8789C12.7289 33.8955 12.7456 33.9177 12.7567 33.9343C12.7678 33.9509 12.7845 33.962 12.8067 33.9731C12.8455 33.9952 12.89 34.0063 12.9344 34.0118C13.0232 34.0284 13.1176 34.034 13.212 34.0395C13.1176 34.0506 13.0232 34.0506 12.9288 34.0395C12.8844 34.034 12.8344 34.0229 12.79 34.0007C12.7678 33.9897 12.7456 33.9731 12.7289 33.9564C12.7123 33.9398 12.7012 33.9177 12.6845 33.9011C12.629 33.8235 12.579 33.746 12.5291 33.6685C12.4791 33.591 12.4347 33.5135 12.3903 33.4304Z" fill="#293133"/>
<path d="M12.7456 33.9455C12.8067 34.0175 12.8678 34.0839 12.9288 34.1559C12.9621 34.1891 12.9899 34.2223 13.0232 34.2556C13.0399 34.2722 13.0565 34.2888 13.0732 34.3054L13.1009 34.3275L13.1287 34.3497C13.162 34.3774 13.2064 34.394 13.2453 34.4106C13.2897 34.4272 13.3341 34.4383 13.3785 34.4494C13.4674 34.466 13.5618 34.477 13.6562 34.4826C13.5618 34.4937 13.4674 34.4937 13.373 34.477C13.2786 34.4604 13.1842 34.4383 13.1065 34.3774L13.0787 34.3552L13.051 34.3331C13.0343 34.3165 13.0177 34.2999 13.001 34.2832C12.9677 34.25 12.9399 34.2113 12.9066 34.178C12.8511 34.1005 12.7956 34.0285 12.7456 33.9455Z" fill="#293133"/>
<path d="M13.1232 34.3663C13.1676 34.4217 13.2231 34.4716 13.2842 34.5159C13.3453 34.5602 13.4063 34.5934 13.4785 34.6155C13.4896 34.6155 13.4952 34.6211 13.5063 34.6211L13.534 34.6266C13.5507 34.6321 13.5673 34.6321 13.5895 34.6321C13.6062 34.6321 13.6284 34.6321 13.6451 34.6321C13.6617 34.6321 13.6839 34.6321 13.7006 34.6321C13.7395 34.6321 13.7728 34.6266 13.8116 34.6211C13.8505 34.6155 13.8838 34.61 13.9171 34.6045C14.0615 34.5768 14.2058 34.5435 14.3446 34.5103C14.489 34.4771 14.6278 34.4328 14.7666 34.394C15.3274 34.2334 15.8881 34.0507 16.4433 33.868C16.9986 33.6852 17.5538 33.5025 18.1145 33.3142L19.7802 32.7549C19.5026 32.8546 19.2305 32.9543 18.9529 33.0539L18.1256 33.3419C17.848 33.436 17.5704 33.5302 17.2928 33.6243C17.0152 33.7184 16.7376 33.8126 16.46 33.9012C16.1824 33.9898 15.9048 34.0784 15.6216 34.167C15.344 34.2556 15.0609 34.3387 14.7777 34.4162C14.6389 34.4549 14.4945 34.4937 14.3502 34.5269C14.2058 34.5602 14.067 34.5934 13.9171 34.6155C13.8783 34.6211 13.8449 34.6266 13.8061 34.6321C13.7672 34.6377 13.7339 34.6377 13.695 34.6432C13.6784 34.6432 13.6562 34.6432 13.6395 34.6432C13.6229 34.6432 13.6007 34.6432 13.584 34.6377C13.5673 34.6377 13.5451 34.6321 13.5285 34.6266L13.5007 34.6211C13.4896 34.6211 13.4841 34.6155 13.473 34.61C13.4008 34.5878 13.3397 34.5491 13.2786 34.5048C13.2176 34.4771 13.1676 34.4273 13.1232 34.3663Z" fill="#293133"/>
<path d="M25.7486 32.0241C25.2045 31.9133 23.661 31.7915 23.5 31.7638C22.1675 31.5035 20.4908 31.1713 19.7024 30.839C18.914 30.5068 14.5833 27.8986 12.0737 26.3979C9.41427 24.8086 7.29336 24.0555 6.2107 25.2959C5.32236 26.3093 5.60552 28.2475 7.9263 29.1335C12.4624 30.8667 16.7653 32.2179 18.4254 32.8381C20.0855 33.4583 22.9059 34.3222 22.9837 34.3443C24.5049 34.7818 24.5216 34.7873 25.1379 34.0674C25.6431 33.4749 26.4149 32.157 25.7486 32.0241Z" fill="#FCC9B3"/>
<path d="M29.7018 24.6757C29.7018 24.6757 10.7579 23.6513 8.93127 24.6425C8.93127 24.6425 11.4131 24.9914 13.2453 25.4455C13.2453 25.4455 15.5439 27.367 16.0935 27.0624C16.6432 26.7579 18.12 27.666 18.12 27.666C18.864 28.1367 19.4637 28.7625 19.5358 29.6595C19.5358 29.6595 20.3798 27.5054 23.6333 26.2263C26.3316 25.7832 29.7018 24.6757 29.7018 24.6757Z" fill="#4B6AA0"/>
<path d="M18.9972 30.4791C19.0194 30.4957 19.0361 30.5068 19.0583 30.5234L19.0916 30.5455L19.1249 30.5622C19.1693 30.5898 19.2137 30.612 19.2581 30.6341C19.347 30.6784 19.4358 30.7227 19.5302 30.7615L19.5968 30.7892L19.669 30.8169L19.8078 30.8723C19.9022 30.9055 19.9966 30.9387 20.091 30.9719C20.1853 31.0052 20.2797 31.0329 20.3741 31.0661L20.6628 31.1491C20.8572 31.199 21.0515 31.2544 21.2458 31.2987L21.3902 31.3319L21.4623 31.3485L21.5345 31.3651L21.8288 31.4316C21.9287 31.4537 22.0231 31.4703 22.123 31.4925L22.4173 31.5534C22.6116 31.5921 22.8115 31.6254 23.0058 31.6586L23.5944 31.7693C23.9663 31.8081 24.3439 31.8469 24.7159 31.8912C24.9047 31.9133 25.0879 31.9355 25.2766 31.9576C25.371 31.9687 25.4654 31.9798 25.5543 31.9908L25.6264 32.0019L25.6986 32.013C25.7097 32.013 25.7208 32.0185 25.7319 32.0185C25.7375 32.0185 25.743 32.0185 25.7486 32.0241L25.7652 32.0296C25.7874 32.0407 25.8096 32.0462 25.8319 32.0628C25.8763 32.085 25.9096 32.1237 25.9373 32.1625C25.9651 32.2013 25.9873 32.2456 25.9929 32.2954C25.9984 32.3065 25.9984 32.3176 25.9984 32.3286C25.9984 32.3397 26.004 32.3508 26.004 32.3619V32.3951V32.4117V32.4283C26.004 32.4782 25.9929 32.5225 25.9873 32.5668C25.9818 32.5889 25.9762 32.6111 25.9707 32.6332C25.9651 32.6554 25.954 32.6775 25.9373 32.6997C25.9096 32.7384 25.8707 32.7716 25.8263 32.7938C25.7375 32.8381 25.6431 32.8547 25.5487 32.8602C25.3599 32.8769 25.1712 32.8602 24.9879 32.8326C24.7992 32.8049 24.6159 32.7716 24.4327 32.7273C24.6159 32.7716 24.7992 32.8049 24.9879 32.827C25.1767 32.8492 25.3599 32.8602 25.5487 32.8436C25.6431 32.8326 25.7319 32.8159 25.8152 32.7772C25.8541 32.755 25.8929 32.7273 25.9151 32.6886C25.9262 32.672 25.9373 32.6498 25.9429 32.6277C25.9485 32.6055 25.954 32.5834 25.9596 32.5612C25.9707 32.5169 25.9762 32.4726 25.9762 32.4228V32.4062V32.3896V32.3563C25.9762 32.3453 25.9707 32.3342 25.9707 32.3231C25.9707 32.312 25.9707 32.301 25.9651 32.2899C25.954 32.2456 25.9373 32.2013 25.9096 32.1681C25.8818 32.1293 25.8485 32.1016 25.8097 32.0794C25.793 32.0684 25.7708 32.0573 25.7486 32.0518L25.7319 32.0462C25.7264 32.0462 25.7208 32.0462 25.7153 32.0407C25.7042 32.0407 25.6931 32.0351 25.682 32.0351L25.6153 32.0241L25.5431 32.013C25.4488 32.0019 25.3544 31.9908 25.2655 31.9798C25.0768 31.9576 24.8935 31.9355 24.7048 31.9189C24.3328 31.8801 23.9552 31.8413 23.5832 31.8026L22.9947 31.6918C22.8004 31.6586 22.6005 31.6198 22.4062 31.5866C22.012 31.5091 21.6178 31.426 21.2347 31.3263C21.0404 31.282 20.8461 31.2211 20.6517 31.1713L20.363 31.0827C20.2686 31.055 20.1742 31.0218 20.0799 30.9885C19.9855 30.9553 19.8911 30.9166 19.7967 30.8833L19.6579 30.828L19.5857 30.8003L19.5191 30.767C19.4247 30.7283 19.3359 30.684 19.247 30.6397C19.2026 30.6175 19.1582 30.5954 19.1138 30.5677L19.0805 30.5511L19.0472 30.5289C19.0416 30.5068 19.0194 30.4902 18.9972 30.4791Z" fill="#293133"/>
<path d="M25.9652 32.6277C25.9374 32.755 25.9041 32.8824 25.8597 33.0098C25.8153 33.1316 25.7653 33.2589 25.682 33.3697C25.6598 33.3974 25.6376 33.4195 25.6099 33.4417C25.5932 33.4528 25.5821 33.4583 25.5654 33.4694C25.5488 33.4749 25.5321 33.4804 25.5155 33.4915C25.4488 33.5137 25.3822 33.5248 25.3156 33.5248C25.1823 33.5303 25.0491 33.5137 24.9214 33.486C24.988 33.4915 25.0546 33.4971 25.1213 33.4971C25.1879 33.4971 25.2545 33.4971 25.3156 33.4915C25.3822 33.486 25.4433 33.4749 25.5044 33.4528C25.521 33.4472 25.5321 33.4417 25.5488 33.4361C25.5599 33.4306 25.5765 33.4195 25.5876 33.414C25.6099 33.3974 25.6321 33.3697 25.6543 33.3475C25.6931 33.2977 25.7264 33.2423 25.7542 33.1814C25.782 33.1205 25.8097 33.0651 25.8319 33.0042C25.8819 32.8769 25.9263 32.7495 25.9652 32.6277Z" fill="#293133"/>
<path d="M25.5931 33.4306C25.5487 33.5137 25.4987 33.5912 25.4488 33.6687C25.3988 33.7462 25.3488 33.8238 25.2933 33.9013C25.2767 33.9179 25.2656 33.94 25.2489 33.9567C25.2322 33.9788 25.21 33.9899 25.1878 34.001C25.1434 34.0231 25.0934 34.0342 25.049 34.0397C24.9546 34.0508 24.8603 34.0508 24.7659 34.0397C24.8603 34.0342 24.9546 34.0286 25.0435 34.012C25.0879 34.001 25.1323 33.9899 25.1712 33.9733C25.1878 33.9622 25.21 33.9511 25.2211 33.9345C25.2378 33.9179 25.2489 33.8957 25.26 33.8791C25.3155 33.8071 25.3655 33.7296 25.421 33.6521C25.4821 33.5801 25.5376 33.5026 25.5931 33.4306Z" fill="#293133"/>
<path d="M25.2323 33.9456C25.1824 34.0231 25.1268 34.1006 25.0713 34.1726C25.0436 34.2114 25.0102 34.2446 24.9769 34.2778C24.9603 34.2945 24.9436 34.3111 24.927 34.3277L24.8992 34.3498L24.8714 34.372C24.7937 34.4274 24.6993 34.4551 24.6049 34.4717C24.5105 34.4827 24.4162 34.4883 24.3218 34.4772C24.4162 34.4717 24.505 34.4606 24.5994 34.444C24.6438 34.4329 24.6882 34.4218 24.7326 34.4052C24.7771 34.3886 24.8159 34.3665 24.8492 34.3443L24.877 34.3221L24.9048 34.3C24.9214 34.2834 24.9381 34.2668 24.9547 34.2502C24.988 34.2169 25.0213 34.1837 25.0491 34.1505C25.1157 34.0896 25.1713 34.0176 25.2323 33.9456Z" fill="#293133"/>
<path d="M24.8603 34.3665C24.8103 34.4274 24.7548 34.4828 24.6882 34.5271C24.6216 34.5714 24.5549 34.6101 24.4772 34.6267C24.3995 34.6489 24.3217 34.6489 24.244 34.6378C24.2052 34.6323 24.1663 34.6323 24.1274 34.6212C24.0886 34.6157 24.0497 34.6101 24.0108 34.6046C23.6999 34.5492 23.4001 34.4662 23.0947 34.3775C22.4895 34.2059 21.8955 34.0121 21.2958 33.8183C20.1021 33.4306 18.9195 33.0153 17.7314 32.6055L14.178 31.3706L12.4013 30.7504L10.6246 30.1247L12.4069 30.7338L14.1891 31.343L17.748 32.5668L18.6364 32.8769L19.5247 33.187C20.1188 33.3919 20.7129 33.5912 21.3069 33.7906C21.901 33.9899 22.5006 34.1837 23.1003 34.3609C23.4001 34.4495 23.7055 34.5326 24.0108 34.5935C24.0497 34.5991 24.0886 34.6101 24.1274 34.6157C24.1663 34.6212 24.2052 34.6267 24.244 34.6323C24.3217 34.6378 24.3995 34.6434 24.4772 34.6212C24.5549 34.6046 24.6216 34.5658 24.6882 34.5215C24.7548 34.4828 24.8103 34.4274 24.8603 34.3665Z" fill="#293133"/>
<path d="M21.3735 13.0469L21.7955 12.0612C21.3624 11.812 20.946 11.5683 20.785 11.4576C20.4519 11.2305 20.4297 10.926 20.4297 10.494C20.4297 10.0621 20.5074 9.08197 20.5074 9.08197H17.4926C17.4926 9.08197 17.5703 10.0621 17.5703 10.494C17.5703 10.926 17.5481 11.2305 17.215 11.4576C16.9985 11.6071 16.3433 11.9892 15.7881 12.2993L18.9972 14.4811L21.3735 13.0469Z" fill="#FCC9B3"/>
<path d="M17.4927 9.08197C17.4927 9.08197 17.5704 10.0621 17.5704 10.494C17.5704 10.5716 17.5704 10.6436 17.5649 10.7155C17.9257 10.9703 18.2866 11.1973 18.3699 11.2582C18.5143 11.3579 18.7475 11.3856 18.9973 11.3856C19.2471 11.3856 19.4803 11.3579 19.6247 11.2582C19.708 11.1973 20.0689 10.9703 20.4297 10.7155C20.4242 10.6436 20.4242 10.5716 20.4242 10.494C20.4242 10.0621 20.5019 9.08197 20.5019 9.08197H17.4927Z" fill="#F79C82"/>
<path d="M21.7233 7.88028C22.1833 7.88028 22.5561 7.38691 22.5561 6.7783C22.5561 6.1697 22.1833 5.67633 21.7233 5.67633C21.2634 5.67633 20.8905 6.1697 20.8905 6.7783C20.8905 7.38691 21.2634 7.88028 21.7233 7.88028Z" fill="#FCC9B3"/>
<path d="M16.1324 7.88028C16.5923 7.88028 16.9652 7.38691 16.9652 6.7783C16.9652 6.1697 16.5923 5.67633 16.1324 5.67633C15.6724 5.67633 15.2996 6.1697 15.2996 6.7783C15.2996 7.38691 15.6724 7.88028 16.1324 7.88028Z" fill="#FCC9B3"/>
<path d="M18.9973 1.74467C20.1244 1.74467 21.0238 2.11569 21.7456 3.03492C22.4618 3.95416 22.2897 5.38838 22.112 6.52912C22.112 6.52912 21.7622 8.17377 21.6623 8.52264C21.5624 8.8715 21.4902 9.00994 21.0904 9.39203C20.6907 9.77966 19.769 10.3556 19.6247 10.4552C19.4803 10.5549 19.2471 10.5826 18.9973 10.5826C18.7474 10.5826 18.5142 10.5549 18.3699 10.4552C18.2255 10.3556 17.3039 9.77966 16.9041 9.39203C16.5044 9.00441 16.4322 8.86597 16.3323 8.52264C16.2323 8.17377 15.8825 6.52912 15.8825 6.52912C15.7049 5.38285 15.5328 3.94862 16.249 3.03492C16.9652 2.12123 17.8758 1.74467 18.9973 1.74467Z" fill="#FCC9B3"/>
<path d="M20.613 5.67636C20.3132 5.68744 20.0744 5.78158 19.9634 5.84803C19.8468 5.91447 19.869 6.07506 19.869 6.07506C19.869 6.07506 20.1633 5.90894 20.6574 5.84803C21.1293 5.78711 21.3237 5.85356 21.3237 5.85356C21.3237 5.85356 21.0905 5.65975 20.613 5.67636Z" fill="#272936"/>
<path d="M19.9911 6.60666C20.1965 6.68418 20.3964 6.73956 20.6129 6.70633C20.8295 6.67311 20.996 6.53467 21.0404 6.47929L21.2403 6.46268C21.2403 6.46268 21.0349 6.7451 20.7073 6.80601C20.3242 6.87246 20.0855 6.72295 19.9911 6.60666Z" fill="#272936"/>
<path d="M17.3872 5.67636C17.687 5.68744 17.9257 5.78158 18.0368 5.84803C18.1534 5.91447 18.1312 6.07506 18.1312 6.07506C18.1312 6.07506 17.8369 5.90894 17.3428 5.84803C16.8708 5.78711 16.6765 5.85356 16.6765 5.85356C16.6765 5.85356 16.9097 5.65975 17.3872 5.67636Z" fill="#272936"/>
<path d="M18.009 6.60666C17.8035 6.68418 17.6037 6.73956 17.3871 6.70633C17.1706 6.67311 17.0041 6.53467 16.9596 6.47929L16.7598 6.46268C16.7598 6.46268 16.9652 6.7451 17.2928 6.80601C17.6758 6.87246 17.9146 6.72295 18.009 6.60666Z" fill="#272936"/>
<path d="M18.6475 8.99889C18.6475 8.99889 19.025 9.02104 19.3526 8.97674C19.6802 8.93244 20.0022 8.80508 20.0022 8.77739C20.0022 8.74971 20.0133 8.75524 20.0355 8.75524C20.0577 8.75524 20.0577 8.78847 20.0466 8.82169C20.03 8.85492 19.658 8.99889 19.3526 9.03765C18.9917 9.08195 18.6808 9.04319 18.653 9.03765C18.6253 9.03212 18.5975 9.00443 18.6142 8.99335C18.6308 8.97674 18.6475 8.97674 18.6475 8.99889Z" fill="#293133"/>
<path d="M18.8029 6.46268C18.7641 6.62327 18.7252 6.78939 18.6808 6.94998C18.6586 7.03305 18.6419 7.11057 18.6197 7.19364C18.6031 7.2767 18.5809 7.35423 18.5642 7.43729C18.5476 7.52035 18.5309 7.59788 18.5198 7.68094C18.5142 7.71971 18.5087 7.76401 18.5142 7.80277C18.5142 7.81938 18.5198 7.84153 18.5253 7.85815C18.5253 7.86368 18.5309 7.86368 18.5309 7.86922L18.542 7.8803C18.5476 7.88583 18.5531 7.89691 18.5642 7.90245C18.592 7.93013 18.6253 7.95229 18.6586 7.97444C18.6919 7.99659 18.7308 8.0132 18.7696 8.03535C18.8474 8.06857 18.9251 8.1018 19.0028 8.12949C18.9195 8.11288 18.8418 8.09072 18.7585 8.06304C18.6808 8.02981 18.6031 7.99659 18.5309 7.94121C18.5198 7.93567 18.5142 7.9246 18.5087 7.91906L18.4976 7.90798C18.492 7.90245 18.4865 7.89691 18.4865 7.89137C18.4754 7.86922 18.4754 7.84153 18.4698 7.81938C18.4643 7.77508 18.4698 7.73078 18.4754 7.69202C18.4865 7.60896 18.4976 7.52589 18.5142 7.44283C18.5476 7.2767 18.592 7.11611 18.6419 6.95552C18.6864 6.77832 18.7419 6.61773 18.8029 6.46268Z" fill="#272936"/>
<path d="M18.9972 14.0104C20.7961 13.7667 21.7899 12.0611 21.7899 12.0611C21.7899 12.0611 21.8566 12.039 21.9621 12.0611C22.0675 12.0833 24.3661 13.1299 24.3994 13.141C24.4327 13.152 24.5105 13.1631 24.4716 13.3625C24.4327 13.5674 23.4833 17.9033 23.4833 17.9033C23.4445 19.9854 23.5777 24.9138 23.5777 24.9138L23.8165 25.2294C23.8165 25.2294 22.7727 26.7744 18.9972 26.7744C15.2218 26.7744 14.178 25.2294 14.178 25.2294L14.4167 24.9138C14.4167 24.9138 14.55 19.9854 14.5111 17.9033C14.5111 17.9033 13.5673 13.5618 13.5228 13.3625C13.484 13.1576 13.5617 13.152 13.595 13.141C13.6283 13.1299 15.9269 12.0833 16.0324 12.0611C16.1379 12.039 16.2045 12.0611 16.2045 12.0611C16.2045 12.0611 17.2039 13.7667 18.9972 14.0104Z" fill="#07B592"/>
<path d="M23.9941 25.0966C22.1453 26.8797 15.8547 24.7532 17.3149 25.1519C18.7751 25.5562 22.7838 24.421 22.7838 24.421C22.7838 24.421 16.2212 23.9005 15.4716 23.3245C15.3162 23.2027 15.2107 22.8539 15.1441 22.3666C15.9491 22.0675 18.1644 21.248 18.442 21.3255C18.7807 21.4196 19.1471 21.2314 19.0916 21.0375C19.0361 20.8437 20.574 22.1284 22.7671 22.4718C24.9602 22.8151 24.6382 22.4718 24.6382 22.4718L23.2501 21.4972L19.1305 19.5756L15.0719 21.5747C14.9553 19.6255 15.1718 16.7847 15.1718 16.7847L13.7616 19.1548L14.1669 19.3154L14.0281 23.463C14.0281 23.463 12.2181 22.9425 13.6339 25.7555C15.0497 28.5686 22.7949 26.5972 23.6332 26.2207C24.4716 25.8497 25.8485 23.3079 23.9941 25.0966Z" fill="#0C9678"/>
<path d="M18.2144 17.4492C18.2144 17.4492 18.3643 16.7902 18.392 16.6684C18.4198 16.5466 18.4864 16.4247 18.5253 16.2531C18.5697 16.0814 18.6363 15.8876 18.6363 15.7658C18.6419 15.6439 18.6086 15.572 18.6807 15.5609C18.7529 15.5498 18.8751 15.6052 18.9306 15.7492C18.9861 15.8987 18.9972 16.0925 18.9972 16.2863C18.9972 16.4801 18.2144 17.4492 18.2144 17.4492Z" fill="#F79C82"/>
<path d="M18.814 15.9596C18.7418 15.9541 18.7307 16.0039 18.6974 16.1479C18.6641 16.2919 18.5142 16.602 18.4587 16.6961C18.4031 16.7902 18.0978 17.8867 18.07 17.9697C18.0367 18.0528 17.9534 18.2078 17.9368 18.2632C17.9201 18.3131 17.8091 19.0717 17.748 19.2655C17.6869 19.4649 17.6203 19.6698 17.5148 19.7196C17.4093 19.7694 16.1323 20.1128 14.8165 20.1737C13.9948 20.2124 13.3618 20.0795 12.7677 19.9799L14.4278 17.5378L13.5839 13.656C13.3951 13.8276 13.2008 14.0215 13.0231 14.2374C12.3125 15.1013 12.0126 16.0316 11.8738 16.314C11.735 16.5964 11.041 17.4492 10.5358 18.4293C10.0305 19.415 9.85287 19.9633 9.74183 20.2124C9.63078 20.4616 9.2699 20.9988 9.35318 21.259C9.35873 21.2757 9.36428 21.2923 9.37539 21.3033C9.36428 21.3643 9.37539 21.4196 9.40315 21.4529C9.52529 21.5968 9.99167 22.1174 10.4969 22.278C11.0022 22.4441 11.9072 22.5714 13.4451 22.3444C14.983 22.1174 17.7424 21.104 17.8479 21.0597C17.9534 21.0154 18.4087 21.0375 18.6696 20.7883C18.9306 20.5392 19.0083 20.218 19.0083 19.93C19.0083 19.6476 19.0083 16.4358 19.0083 16.2697C18.9972 16.1202 18.8862 15.9651 18.814 15.9596Z" fill="#FCC9B3"/>
<path d="M19.7857 17.4492C19.7857 17.4492 19.6358 16.7902 19.608 16.6684C19.5803 16.5466 19.5136 16.4247 19.4748 16.2531C19.4304 16.0814 19.3637 15.8876 19.3637 15.7658C19.3582 15.6439 19.3915 15.572 19.3193 15.5609C19.2471 15.5498 19.125 15.6052 19.0695 15.7492C19.0139 15.8987 19.0028 16.0925 19.0028 16.2863C18.9973 16.4801 19.7857 17.4492 19.7857 17.4492Z" fill="#F79C82"/>
<path d="M28.2638 20.2236C28.1527 19.9744 27.9751 19.4262 27.4698 18.4405C27.4365 18.3796 27.4087 18.3242 27.3754 18.2633L25.199 19.4594L25.571 19.9301C24.877 20.0298 24.1663 20.2236 23.1891 20.1793C21.8733 20.1184 20.5963 19.7751 20.4908 19.7252C20.3853 19.6754 20.3187 19.465 20.2576 19.2712C20.1965 19.0718 20.0855 18.3187 20.0688 18.2689C20.0522 18.219 19.9689 18.0584 19.9356 17.9754C19.9023 17.8923 19.6024 16.7959 19.5469 16.7017C19.4914 16.6076 19.3415 16.2975 19.3082 16.1535C19.2749 16.0095 19.2638 15.9597 19.1916 15.9652C19.1194 15.9708 19.0028 16.1258 19.0028 16.2919C19.0028 16.4581 19.0028 19.6699 19.0028 19.9523C19.0028 20.2347 19.0805 20.5614 19.3415 20.8106C19.6024 21.0598 20.0577 21.0376 20.1632 21.0819C20.2687 21.1262 23.0281 22.1341 24.566 22.3666C26.104 22.5937 27.009 22.4663 27.5142 22.3002C28.0195 22.1341 28.4859 21.6191 28.608 21.4751C28.6358 21.4419 28.6469 21.3865 28.6358 21.3256C28.6469 21.309 28.6524 21.2924 28.658 21.2813C28.7357 21.0099 28.3748 20.4728 28.2638 20.2236Z" fill="#FCC9B3"/>
<path d="M23.3279 3.21212C23.1169 3.0183 22.8116 2.96846 22.5728 3.09029C22.7616 2.7525 22.8449 2.32611 22.7672 1.92186C22.6894 1.52316 22.4396 1.15768 22.1065 1.02478C21.7733 0.897416 21.3736 1.03032 21.1904 1.37365C21.1626 1.01371 21.0405 0.653764 20.8295 0.387961C20.6129 0.122158 20.2965 -0.0328931 19.9911 0.00586977C19.6857 0.0501702 19.4026 0.304898 19.3248 0.653764C18.9084 0.327048 18.4532 -0.0107429 17.9646 0.0446327C17.6426 0.0833956 17.3538 0.288285 17.1151 0.537475C16.8486 0.819891 16.6487 1.15214 16.4933 1.51209C16.4766 1.28505 16.4322 1.05801 16.4044 0.947254C16.3878 0.880804 16.3711 0.814353 16.3323 0.764515C16.2934 0.714677 16.2323 0.681452 16.1768 0.698064C16.1157 0.720215 16.088 0.79774 16.0713 0.864191C15.9714 1.25182 16.0658 1.7059 16.3045 2.00493C16.3045 2.00493 16.3045 2.00493 16.2989 2.00493C16.0713 1.77789 15.7937 1.62284 15.4994 1.56192C15.455 1.55085 15.3995 1.55085 15.3773 1.58961C15.3384 1.65052 15.3995 1.73913 15.4606 1.78343C15.5661 1.86095 15.8159 2.03262 16.0435 2.11568C15.9547 2.13783 15.8659 2.17105 15.777 2.20982C15.5105 2.32057 15.2329 2.43686 15.0442 2.68605C14.7443 3.08475 14.7777 3.69388 14.8776 4.22549C14.9553 4.64081 15.0719 5.06166 15.2996 5.40499C15.3606 5.49913 15.4384 5.56558 15.5161 5.63757C15.5716 5.6874 15.6716 5.74832 15.6993 5.82584C15.7049 5.84245 15.7049 5.85907 15.7104 5.88122L15.8048 6.2467C15.8048 6.2467 15.9214 6.76723 16.0491 7.30991C16.1768 7.85259 16.2379 7.79721 16.2379 7.79721L16.0213 6.07503C16.0102 5.88675 15.9158 5.68187 15.9381 5.49913C15.9714 5.27209 16.0546 5.10596 16.2101 4.97306C16.7265 4.54113 16.9819 3.74372 16.8764 3.00723C16.9263 2.95739 16.9763 2.90755 17.0318 2.86879C17.3372 2.64175 17.7814 2.71374 18.0312 3.02938C18.2422 3.29518 18.3088 3.67727 18.4643 3.99291C18.6641 4.39715 19.025 4.68511 19.4137 4.75709C19.8023 4.82354 20.2132 4.67403 20.4908 4.35285C20.4519 4.79586 20.5685 5.29977 20.9016 5.52681C21.1515 5.69848 21.4569 5.67079 21.7345 5.5988C21.7622 5.59326 21.7844 5.58219 21.8122 5.57665C21.9177 5.91444 21.7789 7.6034 21.7289 7.9578C21.7678 7.98549 21.8177 7.96334 21.8455 7.92458C21.8733 7.88581 21.8844 7.83598 21.8955 7.78614C21.9788 7.4262 22.2342 5.74832 22.3119 5.38838C22.5673 5.26655 22.8171 5.1115 23.0448 4.92322C23.3057 4.70726 23.5556 4.42484 23.6055 4.05382C23.6499 3.73818 23.5389 3.40593 23.3279 3.21212Z" fill="#293133"/>
<path d="M13.595 13.1411L10.558 17.9754L13.5117 19.5813L14.5055 17.9089L15.3328 16.7903L13.595 13.1411Z" fill="#07B592"/>
<path d="M23.4944 17.9088L24.9768 19.5867L27.7196 18.0749C27.7196 18.0749 25.9596 14.47 24.4549 13.1686L21.801 14.8964L23.4944 17.9088Z" fill="#07B592"/>
<path d="M15.7881 12.2992C15.7881 12.2992 16.6875 14.481 18.9972 14.481C21.3069 14.481 22.1786 12.1496 22.1786 12.1496C22.1786 12.1496 22.0564 12.0389 21.6789 11.9946C21.6789 11.9946 20.996 13.6448 19.0028 14.0103C19.0028 14.0103 17.1595 13.5894 16.26 12.0334C16.26 12.0334 15.7881 12.0112 15.7881 12.2992Z" fill="white"/>
<path d="M10.558 17.9753L13.5117 19.5812L13.7615 19.1548L10.7634 17.6541L10.558 17.9753Z" fill="white"/>
<path d="M24.9769 19.5813L27.7196 18.0695L27.4198 17.4936L24.6382 19.2047L24.9769 19.5813Z" fill="white"/>
<path d="M26.2872 19.6531C26.1706 19.6974 26.0596 19.7417 25.943 19.786L25.7709 19.8525C25.7153 19.8747 25.6543 19.8968 25.5988 19.9134C25.3656 19.9909 25.1213 20.0408 24.877 20.0796C24.3884 20.1626 23.8942 20.1903 23.4001 20.1848C23.1558 20.1792 22.906 20.1682 22.6617 20.146L22.4784 20.1294C22.4174 20.1239 22.3563 20.1183 22.2952 20.1072C22.2342 20.1017 22.1731 20.0906 22.112 20.0851L21.9288 20.0574C21.6845 20.0186 21.4458 19.9743 21.2015 19.9134C20.9627 19.858 20.724 19.7971 20.4852 19.7251L20.6629 19.7694C20.724 19.786 20.7795 19.7971 20.8406 19.8137C20.9627 19.8414 21.0793 19.8691 21.2015 19.8913C21.4402 19.9411 21.6845 19.9799 21.9288 20.0186C22.1731 20.0519 22.4174 20.0796 22.6617 20.1017C22.906 20.1239 23.1503 20.1349 23.3946 20.1349C23.8831 20.146 24.3773 20.1128 24.8603 20.0463C25.1046 20.0076 25.3434 19.9633 25.5821 19.8968C25.6432 19.8802 25.6987 19.858 25.7542 19.8414L25.9263 19.7805C26.054 19.7307 26.1706 19.6919 26.2872 19.6531Z" fill="#293133"/>
<path d="M18.9973 19.9467C18.9862 20.0242 18.9918 20.1017 18.9973 20.1792C19.0084 20.2568 19.0251 20.3287 19.0473 20.4007C19.0973 20.5447 19.1861 20.6721 19.2971 20.7717C19.3527 20.8216 19.4193 20.8603 19.4859 20.8991C19.5192 20.9157 19.5525 20.9323 19.5914 20.9434C19.6081 20.9489 19.6247 20.96 19.6469 20.9656L19.7024 20.9822C19.8468 21.0265 20.0023 21.0431 20.1522 21.0486H20.1577H20.1633C20.4409 21.1483 20.7185 21.248 20.9961 21.3421C21.2737 21.4418 21.5513 21.5359 21.8289 21.6301L22.2453 21.7685C22.3841 21.8128 22.5229 21.8571 22.6673 21.9014C22.7395 21.9235 22.8061 21.9457 22.8783 21.9623C22.9504 21.9845 23.0171 22.0066 23.0893 22.0232L23.3002 22.0841L23.5168 22.1395L23.3002 22.0952L23.0837 22.0454C22.9393 22.0121 22.795 21.9734 22.6562 21.9346C22.373 21.8571 22.0899 21.7685 21.8123 21.6799C21.5291 21.5913 21.2515 21.4972 20.9739 21.3975C20.8351 21.3476 20.6963 21.2978 20.5575 21.248C20.4187 21.1981 20.2799 21.1483 20.1411 21.0929H20.1466C19.9912 21.0874 19.8357 21.0652 19.6858 21.0154L19.6303 20.9988C19.6136 20.9932 19.5914 20.9822 19.5747 20.9766C19.5359 20.9656 19.5026 20.9434 19.4693 20.9268C19.4026 20.888 19.336 20.8437 19.2749 20.7939C19.2194 20.7385 19.1639 20.6831 19.125 20.6167C19.0806 20.5502 19.0528 20.4783 19.0306 20.4063C19.0084 20.3343 18.9918 20.2568 18.9862 20.1792C18.9807 20.1405 18.9807 20.1017 18.9862 20.0629C18.9918 20.0242 18.9918 19.9854 18.9973 19.9467Z" fill="#293133"/>
<path d="M18.9751 16.757C18.9862 16.6629 18.9918 16.5743 18.9918 16.4801C18.9918 16.4358 18.9918 16.386 18.9918 16.3417L18.9862 16.2752C18.9862 16.2531 18.9862 16.2254 18.9862 16.2033C18.9918 16.1534 19.0084 16.1091 19.0306 16.0648C19.0528 16.0205 19.0917 15.9873 19.1306 15.9596C19.1417 15.9541 19.1528 15.9485 19.1639 15.943L19.175 15.9375H19.1805H19.1861H19.1916C19.1972 15.9375 19.2083 15.9375 19.2138 15.9375C19.2416 15.943 19.2638 15.9651 19.2805 15.9873C19.2971 16.0094 19.3027 16.0316 19.3082 16.0537C19.3138 16.0759 19.3193 16.098 19.3249 16.1257C19.3415 16.1756 19.3582 16.2254 19.3749 16.2697C19.3915 16.3195 19.4137 16.3638 19.4304 16.4137C19.4692 16.5078 19.5192 16.602 19.5636 16.6906C19.6025 16.829 19.6469 16.9619 19.6858 17.1003C19.708 17.1668 19.7246 17.2388 19.7468 17.3052C19.7691 17.3717 19.7857 17.4437 19.8024 17.5101C19.7802 17.4437 19.7579 17.3772 19.7302 17.3052C19.708 17.2388 19.6858 17.1723 19.6636 17.1003C19.6191 16.9674 19.5747 16.829 19.5303 16.6906V16.6961C19.5026 16.6518 19.4803 16.6075 19.4581 16.5577C19.4359 16.5134 19.4137 16.4635 19.3915 16.4192C19.3693 16.3694 19.3526 16.3251 19.336 16.2752C19.3193 16.2254 19.3027 16.1756 19.286 16.1257C19.2805 16.0814 19.2694 16.0371 19.2472 16.0039C19.236 15.9873 19.2194 15.9707 19.2083 15.9707C19.2027 15.9707 19.2027 15.9707 19.1972 15.9707H19.1916L19.1861 15.9762C19.175 15.9818 19.1639 15.9873 19.1583 15.9928C19.1195 16.015 19.0917 16.0482 19.0639 16.0814C19.0417 16.1202 19.0251 16.159 19.0195 16.2033C19.014 16.2476 19.014 16.2919 19.014 16.3417C19.014 16.386 19.014 16.4358 19.0084 16.4801C19.0029 16.5743 18.9918 16.6684 18.9751 16.757Z" fill="#293133"/>
<path d="M17.4815 19.7251C17.0096 19.8525 16.5266 19.9632 16.038 20.0352C15.7937 20.074 15.5494 20.1017 15.3051 20.1238C15.0608 20.146 14.8165 20.1571 14.5667 20.1626C14.0725 20.1737 13.5839 20.146 13.0954 20.0685C12.8511 20.0297 12.6123 19.9799 12.3736 19.9079C12.3569 19.9023 12.3458 19.8968 12.3292 19.8913C12.3125 19.8857 12.3014 19.8802 12.2847 19.8802L12.1959 19.858C12.1682 19.8525 12.1348 19.8414 12.1071 19.8303L12.0182 19.8027C11.9627 19.7805 11.9017 19.7584 11.8461 19.7362L11.7628 19.6974C11.7351 19.6808 11.7073 19.6698 11.6796 19.6531C11.7129 19.6587 11.7406 19.6642 11.7684 19.6698L11.8572 19.6919C11.9183 19.7085 11.9738 19.7251 12.0349 19.7473L12.1237 19.7805C12.1515 19.7916 12.1793 19.8027 12.207 19.8137C12.2625 19.8414 12.3181 19.8691 12.3791 19.8857C12.6123 19.9577 12.8566 20.0076 13.0954 20.0463C13.5784 20.1238 14.0725 20.1515 14.5667 20.146C14.811 20.1405 15.0553 20.1294 15.3051 20.1128C15.5494 20.0906 15.7937 20.0629 16.038 20.0297C16.5266 19.9577 17.0041 19.8525 17.4815 19.7251Z" fill="#293133"/>
<path d="M18.9695 19.9467C18.9751 19.9854 18.9806 20.0242 18.9806 20.0629C18.9806 20.1017 18.9806 20.1405 18.9806 20.1792C18.9751 20.2568 18.9584 20.3343 18.9362 20.4063C18.914 20.4783 18.8807 20.5502 18.8418 20.6167C18.7974 20.6831 18.7474 20.7441 18.6919 20.7939C18.6308 20.8437 18.5698 20.888 18.4976 20.9268C18.4643 20.9434 18.4254 20.9656 18.3921 20.9766C18.3754 20.9822 18.3532 20.9932 18.3366 20.9988L18.281 21.0154C18.1311 21.0652 17.9757 21.0818 17.8202 21.0929H17.8258C17.687 21.1428 17.5482 21.1981 17.4094 21.248C17.2706 21.2978 17.1318 21.3476 16.9929 21.3975C16.7153 21.4916 16.4377 21.5913 16.1546 21.6799C15.877 21.7685 15.5938 21.8571 15.3107 21.9346C15.1718 21.9734 15.0275 22.0121 14.8831 22.0454L14.6666 22.0952L14.4501 22.1395L14.6666 22.0841L14.8776 22.0232C14.9498 22.0011 15.0164 21.9789 15.0886 21.9623C15.1607 21.9402 15.2274 21.918 15.2995 21.9014C15.4384 21.8571 15.5827 21.8128 15.7215 21.7685L16.1379 21.6301C16.4155 21.5359 16.6931 21.4418 16.9707 21.3421C17.2483 21.248 17.526 21.1483 17.8036 21.0486H17.8091H17.8147C17.9701 21.0431 18.12 21.0209 18.2644 20.9822L18.3199 20.9656C18.3366 20.96 18.3532 20.9545 18.3754 20.9434C18.4087 20.9323 18.4476 20.9157 18.4809 20.8991C18.5475 20.8659 18.6142 20.8216 18.6697 20.7717C18.7863 20.6721 18.8696 20.5447 18.9195 20.4007C18.9473 20.3287 18.964 20.2512 18.9695 20.1792C18.9751 20.1017 18.9806 20.0242 18.9695 19.9467Z" fill="#293133"/>
<path d="M27.3754 18.2632C27.1977 18.3685 27.02 18.4737 26.8368 18.5733C26.748 18.6232 26.6591 18.6786 26.5647 18.7284L26.2927 18.8779L26.0206 19.0274L25.7486 19.1769L25.4765 19.3265L25.2045 19.4704L25.21 19.4538C25.2711 19.5313 25.3322 19.6089 25.3932 19.6919C25.4543 19.7695 25.5154 19.8525 25.5765 19.93C25.5098 19.8525 25.4488 19.775 25.3821 19.703C25.3155 19.6255 25.2544 19.548 25.1934 19.4704L25.1823 19.4594L25.1934 19.4538L25.4654 19.2988L25.7375 19.1493L26.0095 18.9997L26.2816 18.8502L26.5536 18.7007C26.6425 18.6509 26.7369 18.601 26.8257 18.5567C27.0034 18.4515 27.1866 18.3574 27.3754 18.2632Z" fill="#293133"/>
<path d="M10.7412 18.086C10.9466 18.1912 11.1521 18.2964 11.3519 18.4016L11.6573 18.5622L11.9627 18.7228L12.268 18.8834L12.5734 19.0495L12.8788 19.2157L13.1786 19.3818L13.1897 19.3873L13.1841 19.3984C13.1175 19.4981 13.0453 19.5978 12.9787 19.6974C12.9065 19.7971 12.8399 19.8968 12.7677 19.9965C12.8344 19.8968 12.901 19.7916 12.9676 19.6919C13.0342 19.5922 13.1009 19.487 13.1675 19.3873L13.173 19.404L12.8677 19.2434L12.5623 19.0828L12.2569 18.9222L11.9516 18.7561L11.6462 18.5899L11.3464 18.4238C11.141 18.313 10.9411 18.2023 10.7412 18.086Z" fill="#293133"/>
<path d="M18.9584 18.9002C18.9361 18.806 18.925 18.7064 18.9195 18.6067C18.9139 18.507 18.9195 18.4129 18.9195 18.3132C18.925 18.2135 18.9306 18.1194 18.925 18.0197C18.925 17.9698 18.925 17.9255 18.9195 17.8757C18.9139 17.8314 18.9028 17.7816 18.8751 17.7428C18.864 17.7262 18.8473 17.7096 18.8307 17.6985C18.814 17.6874 18.7918 17.6819 18.7696 17.6819C18.7252 17.6819 18.6863 17.7096 18.6585 17.7428C18.6252 17.776 18.603 17.8148 18.5753 17.8591C18.5531 17.9034 18.5308 17.9422 18.5086 17.9865C18.4309 18.1637 18.3754 18.3519 18.331 18.5402V18.5458L18.3254 18.5513C18.2755 18.6011 18.2255 18.651 18.1755 18.7008C18.1255 18.7507 18.0811 18.806 18.0367 18.8614C17.9923 18.9168 17.9479 18.9722 17.909 19.0275C17.8868 19.0552 17.8702 19.0884 17.8535 19.1161C17.8368 19.1494 17.8202 19.1771 17.8091 19.2103C17.8257 19.1438 17.8646 19.0774 17.8979 19.0165C17.9368 18.9555 17.9756 18.9002 18.0201 18.8393C18.0645 18.7839 18.1089 18.7285 18.1589 18.6731C18.2033 18.6177 18.2532 18.5679 18.3032 18.5181L18.2977 18.5236C18.3199 18.4295 18.3421 18.3298 18.3698 18.2357C18.3976 18.1415 18.4309 18.0474 18.4698 17.9588C18.5086 17.8702 18.5531 17.776 18.6252 17.704C18.6419 17.6874 18.6641 17.6708 18.6863 17.6542C18.7085 17.6431 18.7363 17.632 18.764 17.632C18.7807 17.632 18.7918 17.632 18.8029 17.6376C18.814 17.6431 18.8307 17.6487 18.8418 17.6542C18.864 17.6653 18.8862 17.6874 18.8973 17.7096C18.925 17.7539 18.9361 17.8037 18.9417 17.8536C18.9472 17.9034 18.9472 17.9532 18.9472 18.0031C18.9472 18.1027 18.9361 18.1969 18.9306 18.2966C18.9306 18.507 18.9195 18.7064 18.9584 18.9002Z" fill="#293133"/>
<path d="M18.9806 18.9001C19.0139 18.7062 19.0084 18.5124 18.9972 18.3186C18.9917 18.2189 18.9806 18.1248 18.9806 18.0251C18.9806 17.9753 18.9806 17.9254 18.9861 17.8756C18.9917 17.8257 19.0028 17.7759 19.0306 17.7316C19.0472 17.7095 19.0639 17.6873 19.0861 17.6762C19.0972 17.6707 19.1083 17.6652 19.1249 17.6596C19.136 17.6541 19.1527 17.6541 19.1638 17.6541C19.1916 17.6541 19.2193 17.6652 19.2415 17.6762C19.2637 17.6873 19.286 17.7095 19.3026 17.7261C19.3748 17.8036 19.4192 17.8922 19.4581 17.9808C19.4969 18.0694 19.5302 18.1635 19.558 18.2577C19.5858 18.3518 19.6135 18.446 19.6302 18.5456L19.6246 18.5401C19.6746 18.5899 19.7246 18.6453 19.769 18.6952C19.8134 18.7505 19.8634 18.8059 19.9078 18.8613C19.9522 18.9167 19.9911 18.9776 20.0299 19.0385C20.0688 19.0994 20.1021 19.1603 20.1188 19.2323C20.1077 19.1991 20.091 19.1659 20.0743 19.1382C20.0577 19.1049 20.041 19.0773 20.0188 19.0496C19.98 18.9887 19.9355 18.9333 19.8911 18.8834C19.8467 18.8281 19.7967 18.7782 19.7523 18.7228C19.7024 18.673 19.6524 18.6176 19.6024 18.5733L19.5969 18.5678V18.5623C19.5524 18.374 19.4969 18.1857 19.4192 18.0085C19.397 17.9642 19.3803 17.9199 19.3526 17.8811C19.3304 17.8424 19.3026 17.7981 19.2693 17.7648C19.236 17.7316 19.1971 17.7039 19.1583 17.7039C19.136 17.7039 19.1138 17.7095 19.0972 17.7205C19.0805 17.7316 19.0639 17.7482 19.0528 17.7648C19.0306 17.8036 19.0195 17.8479 19.0084 17.8977C19.0028 17.9476 19.0028 17.9919 19.0028 18.0417C19.0028 18.1414 19.0084 18.2355 19.0084 18.3352C19.0139 18.4349 19.0139 18.529 19.0084 18.6287C19.0139 18.7062 19.0028 18.8059 18.9806 18.9001Z" fill="#293133"/>
<path d="M17.9313 18.2687C17.9701 18.1801 18.009 18.0971 18.059 18.014C18.1034 17.9309 18.1534 17.8479 18.2144 17.7704C18.2422 17.7316 18.2755 17.6928 18.3033 17.6596C18.331 17.6208 18.3532 17.5765 18.3699 17.5378C18.3921 17.4935 18.4088 17.4492 18.4254 17.4049C18.4421 17.3606 18.4587 17.3163 18.4698 17.272C18.4976 17.1834 18.5254 17.0892 18.5531 17.0006C18.5809 16.912 18.6086 16.8179 18.6419 16.7293C18.6586 16.685 18.6808 16.6407 18.703 16.5964C18.7141 16.5743 18.7308 16.5521 18.753 16.5355C18.7696 16.5189 18.7919 16.5023 18.8252 16.4967C18.8418 16.4967 18.8585 16.4967 18.8696 16.5023C18.8862 16.5078 18.8973 16.5189 18.9029 16.53C18.9196 16.5521 18.9307 16.5743 18.9418 16.5964C18.9584 16.6407 18.9695 16.6905 18.9751 16.7404C18.9751 16.8456 18.9751 16.9508 18.9751 17.0616C18.9751 17.1668 18.9695 17.272 18.9695 17.3827C18.9695 17.4879 18.964 17.5932 18.9584 17.7039C18.9584 17.7593 18.9529 17.8091 18.9473 17.8645C18.9473 17.8922 18.9418 17.9199 18.9418 17.942L18.9362 17.9808L18.9251 18.0195L18.9307 17.9808L18.9362 17.942C18.9362 17.9143 18.9418 17.8866 18.9418 17.8645C18.9418 17.8091 18.9473 17.7593 18.9473 17.7039C18.9473 17.5987 18.9473 17.4935 18.9473 17.3827C18.9473 17.2775 18.9473 17.1723 18.9473 17.0616L18.9418 16.7404C18.9362 16.6961 18.9251 16.6462 18.9084 16.6075C18.9029 16.5853 18.8918 16.5687 18.8751 16.5521C18.864 16.5355 18.8474 16.53 18.8307 16.5355C18.8141 16.541 18.7919 16.5521 18.7807 16.5632C18.7641 16.5798 18.753 16.5964 18.7419 16.613C18.7197 16.6518 18.6975 16.6961 18.6808 16.7404C18.6475 16.829 18.6197 16.9176 18.5864 17.0117C18.5587 17.1003 18.5309 17.1945 18.4976 17.2831C18.4698 17.3717 18.4365 17.4658 18.3921 17.5489C18.3699 17.5932 18.3477 17.6319 18.3199 17.6762C18.2922 17.715 18.2588 17.7482 18.2311 17.787C18.1145 17.9309 18.0146 18.0971 17.9313 18.2687Z" fill="#293133"/>
<path d="M19.9856 18.2687C19.9023 18.0971 19.8024 17.9365 19.6858 17.787C19.658 17.7482 19.6247 17.715 19.5969 17.6762C19.5692 17.6375 19.547 17.5932 19.5247 17.5489C19.4803 17.4603 19.447 17.3717 19.4193 17.2831C19.3915 17.1945 19.3582 17.1003 19.3304 17.0117C19.3027 16.9231 19.2749 16.829 19.236 16.7404C19.2194 16.6961 19.1972 16.6518 19.175 16.613C19.1639 16.5964 19.1472 16.5743 19.1361 16.5632C19.1194 16.5466 19.1028 16.5355 19.0861 16.5355C19.0695 16.53 19.0528 16.541 19.0417 16.5521C19.0306 16.5687 19.0195 16.5853 19.0084 16.6075C18.9917 16.6518 18.9806 16.6961 18.9751 16.7404L18.9695 17.0616C18.9695 17.1668 18.9695 17.272 18.9695 17.3827C18.9695 17.4879 18.9695 17.5932 18.9695 17.7039C18.9695 17.7593 18.9695 17.8091 18.9751 17.8645C18.9751 17.8922 18.9751 17.9199 18.9806 17.942L18.9862 17.9808L18.9917 18.0195L18.9806 17.9808L18.9751 17.942C18.9695 17.9143 18.9695 17.8866 18.9695 17.8645C18.964 17.8091 18.964 17.7593 18.9584 17.7039C18.9529 17.5987 18.9473 17.4935 18.9473 17.3827C18.9473 17.2775 18.9418 17.1723 18.9418 17.0616C18.9418 16.9563 18.9418 16.8511 18.9418 16.7404C18.9473 16.6905 18.9584 16.6462 18.9751 16.5964C18.9862 16.5743 18.9973 16.5521 19.014 16.53C19.0251 16.5189 19.0362 16.5078 19.0473 16.5023C19.0639 16.4967 19.0806 16.4967 19.0917 16.4967C19.1194 16.5023 19.1416 16.5189 19.1639 16.5355C19.1861 16.5521 19.1972 16.5743 19.2138 16.5964C19.2416 16.6407 19.2582 16.685 19.2749 16.7293C19.3082 16.8179 19.336 16.912 19.3637 17.0006C19.3915 17.0892 19.4193 17.1834 19.447 17.272C19.4637 17.3163 19.4748 17.3606 19.4914 17.4049C19.5081 17.4492 19.5247 17.4935 19.547 17.5378C19.5692 17.5821 19.5858 17.6208 19.6136 17.6596C19.6413 17.6984 19.6747 17.7316 19.7024 17.7704C19.7579 17.8479 19.8079 17.9309 19.8579 18.014C19.9023 18.0915 19.9467 18.1801 19.9856 18.2687Z" fill="#293133"/>
<path d="M18.9584 16.735C18.9695 16.6464 18.975 16.5578 18.9806 16.4636C18.9806 16.4193 18.9861 16.375 18.9861 16.3307C18.9861 16.2864 18.9861 16.2421 18.9806 16.1978C18.975 16.1535 18.9584 16.1147 18.9362 16.076C18.914 16.0428 18.8807 16.0095 18.8418 15.9874C18.8307 15.9818 18.8251 15.9763 18.814 15.9763H18.8085C18.8085 15.9763 18.8085 15.9763 18.8029 15.9763C18.7974 15.9763 18.7974 15.9763 18.7918 15.9763C18.7752 15.9818 18.7641 15.9929 18.753 16.0095C18.7308 16.0428 18.7197 16.0871 18.7141 16.1314C18.6974 16.1812 18.6808 16.231 18.6641 16.2809C18.6475 16.3307 18.6253 16.375 18.6086 16.4249C18.5864 16.4747 18.5642 16.519 18.542 16.5633C18.5198 16.6076 18.492 16.6574 18.4698 16.7017V16.6962C18.4254 16.8346 18.381 16.9675 18.3366 17.106C18.3143 17.1724 18.2921 17.2389 18.2699 17.3109C18.2477 17.3773 18.2255 17.4438 18.1978 17.5158C18.2144 17.4493 18.2366 17.3773 18.2533 17.3109C18.2699 17.2444 18.2921 17.1724 18.3143 17.106C18.3532 16.9675 18.3976 16.8291 18.4365 16.6962C18.4865 16.6076 18.5309 16.5135 18.5697 16.4193C18.592 16.375 18.6086 16.3252 18.6253 16.2753C18.6419 16.2255 18.6586 16.1812 18.6752 16.1314C18.6808 16.0871 18.6919 16.0372 18.7196 15.9929C18.7308 15.9708 18.753 15.9486 18.7807 15.9431C18.7863 15.9431 18.7974 15.9431 18.8029 15.9431C18.8085 15.9431 18.8085 15.9431 18.814 15.9431L18.8251 15.9486C18.8362 15.9542 18.8473 15.9597 18.8585 15.9652C18.8973 15.9874 18.9362 16.0261 18.9584 16.0649C18.9861 16.1037 18.9973 16.1535 19.0028 16.1978C19.0084 16.2421 19.0084 16.292 19.0028 16.3363C18.9973 16.3806 18.9973 16.4249 18.9917 16.4692C18.9861 16.5578 18.975 16.6464 18.9584 16.735Z" fill="#293133"/>
<path d="M23.4945 17.9088V16.1091L25.3822 18.745L24.6382 19.2046L23.4945 17.9088Z" fill="#0C9678"/>
</svg>
