<svg width="38" height="22" viewBox="0 0 38 22" fill="none" xmlns="http://www.w3.org/2000/svg">
<g clip-path="url(#clip0_1_1808)">
<path d="M33.3658 19.6868C33.228 18.8009 32.3889 18.198 31.4871 18.3333L26.6901 18.7763C25.7883 18.9116 25.1746 19.736 25.3124 20.6219C25.4502 21.5078 26.2893 22.1107 27.1911 21.9754L31.9881 21.5324C32.8899 21.3971 33.5036 20.5604 33.3658 19.6868Z" fill="#FFDBC5"/>
<path d="M13.8398 8.12081H6.01184V15.9955H13.8398C15.4555 15.9955 16.9083 14.8635 16.9083 13.547V10.4832C16.9083 9.15436 15.468 8.12081 13.8398 8.12081Z" fill="#FFDBC5"/>
<path d="M20.1522 15.6018C20.9538 14.802 20.9413 13.5101 20.1272 12.7226L16.0691 8.55146C15.255 7.76399 13.9399 7.77629 13.1384 8.57607C12.3368 9.37584 12.3493 10.6678 13.1634 11.4553L17.2214 15.6264C18.0355 16.4016 19.3506 16.4016 20.1522 15.6018Z" fill="#FFDBC5"/>
<path d="M22.4318 19.4899C23.2459 18.2964 22.9328 16.6846 21.7179 15.8725L15.6309 11.5537C14.416 10.7539 12.7752 11.0615 11.9611 12.2427C11.1345 13.4362 11.4601 15.0481 12.675 15.8602L18.7621 20.179C19.9644 20.9788 21.6052 20.6711 22.4318 19.4899Z" fill="#FFDBC5"/>
<path d="M27.4416 18.764C27.2663 19.8222 27.1661 20.8803 27.0784 21.9508L20.3151 21.1756C19.0751 21.028 18.1859 19.9329 18.3236 18.7763C18.4614 17.6197 19.5886 16.7584 20.8286 16.8937L27.4416 18.764Z" fill="#FFDBC5"/>
<path d="M22.1688 14.396C21.7429 15.6879 22.3566 17.0783 23.5465 17.5089L25.4502 18.198C25.3501 18.4195 25.2499 18.5671 25.1121 18.7148C24.4357 19.453 23.3461 19.5392 22.6823 18.8747L19.0877 15.245C18.6618 14.8143 18.5116 14.1868 18.6493 13.5962C19.8266 13.9407 20.9914 14.2114 22.1688 14.396Z" fill="#E8B494"/>
<path d="M25.8886 16.217C25.5254 17.1644 24.4483 17.6443 23.4964 17.2875L18.2736 15.3557C17.3092 14.9989 16.8207 13.9407 17.1839 13.0056C17.5472 12.0582 18.6243 11.5783 19.5762 11.9351L24.799 13.8669C25.7634 14.2237 26.2393 15.2696 25.8886 16.217Z" fill="#FFDBC5"/>
<path d="M9.51881 7.99776H4.00793V15.8725H9.51881V7.99776Z" fill="#E8B494"/>
<path d="M0 18.7025H4.95979C6.4878 18.7025 7.76533 17.4843 7.76533 15.9955V7.62864C7.76533 6.12752 6.4878 4.9217 4.95979 4.9217H0V18.7025Z" fill="#4662AA"/>
<path d="M38 4.26958C37.9749 1.89486 35.996 -0.0246072 33.5788 1.30724e-06C31.5873 0.0123056 29.9216 1.32886 29.408 3.12528C28.857 1.34116 27.1661 0.0615225 25.1747 0.0738268C22.7574 0.0984353 20.8036 2.04251 20.8286 4.41723C20.8411 5.73378 21.4548 6.90268 22.4067 7.69016C22.4443 7.73937 22.4819 7.77629 22.5194 7.8255L27.5544 13.7069C28.6691 14.9989 30.4601 14.9866 31.5498 13.67L36.4845 7.70246C36.5972 7.56711 36.6974 7.43177 36.7726 7.29642C37.5366 6.50895 38.0125 5.43848 38 4.26958Z" fill="#DB4646"/>
<path d="M24.9994 1.18121C23.4713 1.48882 22.4067 2.67003 22.2189 4.18345C22.1437 4.76175 23.0831 4.76175 23.1457 4.18345C23.2835 3.07607 24.1602 2.28859 25.2499 2.06712C25.8385 1.95638 25.588 1.07047 24.9994 1.18121Z" fill="#E7AD84"/>
</g>
<defs>
<clipPath id="clip0_1_1808">
<rect width="38" height="22" fill="white"/>
</clipPath>
</defs>
</svg>
