<svg width="32" height="36" viewBox="0 0 32 36" fill="none" xmlns="http://www.w3.org/2000/svg">
<g clip-path="url(#clip0_1_1833)">
<path d="M12.0893 0.835518C14.9283 1.32593 15.3984 4.54087 15.0317 6.62058C14.2515 10.9707 10.9424 11.2069 10.2938 11.3794C10.0212 9.79919 10.51 8.44601 10.7074 6.89304C10.8578 5.68517 10.5664 4.51362 10.7168 3.31483L12.0893 0.835518Z" fill="#E23B5B"/>
<path d="M14.5524 22.3229C14.2233 22.2957 13.7721 22.0505 13.7815 21.4601V21.3148C13.8473 16.5923 13.7251 13.2503 13.4431 12.3784C13.2175 11.661 12.6158 11.4702 12.6158 11.4702C12.174 11.3431 11.9202 10.8981 12.0424 10.4712C12.174 10.0444 12.6346 9.79011 13.0764 9.91726C13.6217 10.0716 14.6464 10.6529 15.0412 11.9062C15.4736 13.2593 15.5018 17.7911 15.4548 21.3421C15.4548 21.4147 15.4548 21.4692 15.4548 21.4965C15.4548 21.5237 15.4548 21.5419 15.4548 21.5691C15.4266 22.005 15.0412 22.3411 14.59 22.3229C14.5712 22.3229 14.5618 22.3229 14.5524 22.3229Z" fill="#E23B5B"/>
<path d="M14.6463 22.4501L14.5523 12.5056C14.5053 10.8254 13.0482 9.4995 11.2997 9.54491C9.56056 9.5994 8.18806 10.998 8.23506 12.6872L8.33847 22.0777C8.33847 22.0777 8.49828 22.6044 11.7603 22.8497C14.3455 23.0495 14.6463 22.4501 14.6463 22.4501Z" fill="#F44E66"/>
<path d="M7.50178 22.8224C7.09755 22.7952 6.76853 22.4864 6.73092 22.0868C6.73092 22.0595 6.73092 22.0323 6.73092 22.0141C6.73092 21.9869 6.73092 21.9324 6.72152 21.8597C6.59931 18.3088 6.54291 13.777 6.94714 12.4147C7.32317 11.1614 8.26324 10.3623 9.25031 10.2987L9.36312 11.9425L9.38192 11.9334C9.35372 11.9425 8.77087 12.1514 8.55466 12.8597C8.29144 13.7407 8.23503 17.0827 8.39485 21.8052L8.40425 21.9506C8.42305 22.559 7.94361 22.8133 7.62399 22.8315C7.57699 22.8224 7.53938 22.8224 7.50178 22.8224Z" fill="#F44E66"/>
<path d="M11.5441 11.5247C12.0706 11.4248 12.409 10.9344 12.3056 10.4258C12.1552 9.70837 12.4184 8.57316 12.5312 8.19173C12.6816 7.69223 12.3808 7.17457 11.8638 7.03835C11.3467 6.89304 10.8109 7.18366 10.6699 7.67407C10.6135 7.8557 10.1434 9.4995 10.4066 10.7891C10.5194 11.2886 11.0271 11.6246 11.5441 11.5247Z" fill="#FF7347"/>
<path d="M10.3314 9.77194C10.3596 8.76387 10.6322 7.81029 10.6698 7.67407C10.8203 7.17457 11.3561 6.89304 11.8637 7.03835C12.3808 7.18365 12.6722 7.70131 12.5312 8.19172C12.4654 8.40969 12.3526 8.89102 12.2962 9.39959L10.3314 9.77194Z" fill="#FF572D"/>
<path d="M8.23502 5.68517C8.21622 6.03936 8.49824 6.33905 8.86486 6.35722C9.23149 6.37538 9.54171 6.10293 9.56051 5.74874L9.56991 5.57619C9.58872 5.222 9.3067 4.9223 8.94007 4.90414C8.57344 4.88598 8.26322 5.15843 8.24442 5.51262L8.23502 5.68517Z" fill="#FF7347"/>
<path d="M11.798 9.28153L11.1493 9.2452C9.87081 9.18163 8.89314 8.20081 8.95895 7.06559L9.08116 4.90414L9.13756 3.98688C9.20336 2.85166 10.2844 1.9889 11.5629 2.05247L12.2116 2.0888C12.5876 2.10696 12.9448 2.20686 13.2457 2.37033C13.9789 2.75176 14.449 3.46922 14.4019 4.26841L14.2233 7.34712C14.1575 8.48234 13.0765 9.3451 11.798 9.28153Z" fill="#FF7347"/>
<path d="M9.6827 4.50454C10.3219 4.33199 10.9236 4.01413 11.3748 3.5328C11.6098 3.28759 11.8355 2.99697 11.9483 2.67003C12.0141 2.47931 12.0329 2.27951 12.0611 2.07972L11.5722 2.05247C10.2937 1.9889 9.21266 2.85166 9.14686 3.98688L9.10925 4.60444C9.29727 4.58628 9.48528 4.55903 9.6827 4.50454Z" fill="#002B43"/>
<path d="M12.5311 3.29667C12.8226 3.73259 13.255 4.12311 13.7156 4.38648C13.9225 4.50454 14.1481 4.5772 14.3831 4.64077L14.4019 4.26842C14.4489 3.46922 13.9789 2.75177 13.2456 2.37033C12.9354 2.20686 12.5876 2.10696 12.2115 2.0888H12.1833C12.1739 2.51564 12.2773 2.9334 12.5311 3.29667Z" fill="#002B43"/>
<path d="M11.3749 2.07063C12.8132 1.7891 14.2515 3.81433 14.3549 5.14026C15.9248 -0.245209 8.6299 -0.56307 7.44541 3.37841C5.9507 8.30979 8.08466 12.2059 12.9354 11.8063C13.9789 11.7245 13.9131 11.2614 15.0506 11.8971C15.1446 9.32694 10.463 10.5802 9.56057 7.43794C9.02473 5.61251 8.96832 2.55197 11.3749 2.07063Z" fill="#F9627F"/>
<path d="M27.2432 1.41675C27.2432 2.19778 26.5851 2.8335 25.7767 2.8335C24.9682 2.8335 24.3102 2.19778 24.3102 1.41675C24.3102 0.635722 24.9682 0 25.7767 0C26.5945 0 27.2432 0.635722 27.2432 1.41675Z" fill="#FF4444"/>
<path d="M26.2561 2.0888C25.9741 1.77094 25.5699 1.51665 25.1656 1.3441C24.9212 1.2442 24.6768 1.17154 24.4136 1.15338C24.3948 1.15338 24.3666 1.15338 24.3478 1.1443C24.329 1.22603 24.3196 1.31685 24.3196 1.40767C24.3196 2.1887 24.9776 2.82442 25.7861 2.82442C26.0681 2.82442 26.3407 2.74269 26.5663 2.60646C26.4911 2.42482 26.3971 2.24319 26.2561 2.0888Z" fill="#FFB646"/>
<path d="M26.5852 4.60444C26.5852 6.23007 26.3596 9.48133 23.53 9.48133C20.7097 9.48133 20.4747 6.23007 20.4747 4.60444C20.4747 2.97881 21.8378 1.65288 23.53 1.65288C25.2221 1.65288 26.5852 2.97881 26.5852 4.60444Z" fill="#FF4444"/>
<path d="M21.3302 6.30272C21.349 6.65691 21.067 6.95661 20.7003 6.97477C20.3337 6.99294 20.0235 6.72048 20.0047 6.3663L19.9953 6.19374C19.9765 5.83955 20.2585 5.53986 20.6251 5.52169C20.9917 5.50353 21.302 5.77598 21.3208 6.13017L21.3302 6.30272Z" fill="#FFA077"/>
<path d="M19.7509 22.9496C20.1269 22.9223 20.6627 22.6771 20.6533 22.0868V21.9415C20.5687 17.219 20.7191 13.8769 21.0482 13.005C21.3114 12.2876 22.007 12.0969 22.0164 12.0969C22.5335 11.9697 22.8343 11.5247 22.6839 11.0979C22.5335 10.671 21.9976 10.4167 21.4806 10.5439C20.8507 10.6983 19.6569 11.2795 19.1868 12.5328C18.6792 13.886 18.651 18.4178 18.7074 21.9687C18.7074 22.0414 18.7074 22.0959 18.7074 22.1231C18.7074 22.1504 18.7074 22.1685 18.7074 22.1958C18.745 22.6317 19.1868 22.9677 19.7227 22.9496C19.7321 22.9496 19.7415 22.9496 19.7509 22.9496Z" fill="#FFA077"/>
<path d="M20.7662 14.894C20.832 13.9677 20.926 13.3138 21.0482 12.996C21.3114 12.2785 22.007 12.0878 22.0164 12.0878C22.5335 11.9606 22.8343 11.5156 22.6839 11.0888C22.5335 10.662 23.0411 10.1625 22.5241 10.2624C20.4653 10.6801 19.5347 11.2704 19.0646 12.5146C18.886 12.9869 18.7638 13.8315 18.6886 14.885H20.7662V14.894Z" fill="#825BBC"/>
<path d="M19.6475 23.0676L19.7603 13.1231C19.8167 11.443 21.5182 10.1171 23.5488 10.1625C25.5793 10.217 27.1774 11.6155 27.1116 13.3047L26.9894 22.7043C26.9894 22.7043 26.8108 23.2311 23.0035 23.4763C20.0047 23.6761 19.6475 23.0676 19.6475 23.0676Z" fill="#825BBC"/>
<path d="M27.1962 23.1221C27.6663 23.0949 28.0517 22.7861 28.0893 22.3865C28.0893 22.3592 28.0893 22.332 28.0893 22.3138C28.0893 22.2866 28.0893 22.2321 28.0987 22.1594C28.2397 18.6085 28.3149 14.0767 27.8355 12.7144C27.403 11.4612 26.3032 10.662 25.1469 10.5984L25.0153 12.2422H24.9965C25.0247 12.2513 25.7109 12.4601 25.9553 13.1685C26.2656 14.0494 26.3314 17.3915 26.1433 22.114L26.1339 22.2593C26.1151 22.8678 26.6698 23.1221 27.0458 23.1403C27.1116 23.1221 27.1492 23.1221 27.1962 23.1221Z" fill="#FFA077"/>
<path d="M25.9647 13.1594C26.0775 13.4773 26.1527 14.113 26.1997 15.0212H28.1456C28.202 13.9859 28.0516 13.114 27.92 12.6418C27.685 11.8426 26.6791 10.3986 24.6674 10.3532L24.658 12.3239V12.5328C24.6862 12.5419 25.7202 12.442 25.9647 13.1594Z" fill="#825BBC"/>
<path d="M23.2949 12.1423C22.7684 12.0424 22.43 11.552 22.5334 11.0434C22.6838 10.3259 22.4206 9.19072 22.3078 8.80928C22.1574 8.30979 22.4582 7.79213 22.9753 7.6559C23.4923 7.51059 24.0281 7.80121 24.1691 8.29162C24.2255 8.47326 24.6956 10.1171 24.4323 11.4067C24.3195 11.9152 23.8119 12.2422 23.2949 12.1423Z" fill="#FFA077"/>
<path d="M24.5077 10.3895C24.4795 9.38143 24.2068 8.42785 24.1692 8.29162C24.0188 7.79213 23.483 7.5106 22.9754 7.6559C22.4583 7.80121 22.1669 8.31887 22.3079 8.80928C22.3737 9.02724 22.4865 9.50858 22.5429 10.0172L24.5077 10.3895Z" fill="#FF865E"/>
<path d="M26.604 6.30272C26.6228 6.65691 26.3408 6.95661 25.9741 6.97477C25.6075 6.99294 25.2973 6.72048 25.2785 6.3663L25.2691 6.19374C25.2503 5.83955 25.5323 5.53986 25.8989 5.52169C26.2656 5.50353 26.5758 5.77598 26.5946 6.13017L26.604 6.30272Z" fill="#FFA077"/>
<path d="M23.0411 9.89909L23.6897 9.86276C24.9682 9.79011 25.9459 8.81836 25.8801 7.68314L25.7579 5.52169L25.7015 4.60444C25.6356 3.46922 24.5546 2.60646 23.2761 2.67003L22.6274 2.70635C22.2514 2.72452 21.8942 2.82442 21.5934 2.98789C20.8601 3.36932 20.3901 4.08678 20.4371 4.88597L20.6157 7.96468C20.6815 9.10898 21.7626 9.97174 23.0411 9.89909Z" fill="#FFA077"/>
<path d="M25.2691 5.04036C25.4195 5.21292 25.5699 5.39455 25.7391 5.5671C25.7391 5.5671 25.8989 5.59435 25.8989 4.76791C25.8989 3.95055 25.1281 3.02422 24.1316 2.66095C24.2726 3.56912 24.658 4.35923 25.2691 5.04036Z" fill="#FF4444"/>
<path d="M21.1516 4.49546C21.5746 4.38647 21.9882 4.25025 22.383 4.0777C22.7027 3.95055 23.0411 3.81433 23.3325 3.62361C23.4735 3.53279 24.0188 3.12412 24.4042 2.72452C24 2.55197 23.5487 2.47023 23.0693 2.4884L22.2984 2.52472C21.8472 2.55197 21.4336 2.67003 21.0764 2.85166C20.3243 3.24218 19.7979 3.95055 19.7133 4.74974C20.2021 4.71342 20.6815 4.6226 21.1516 4.49546Z" fill="#FF4444"/>
<path d="M24.5641 20.334C24.4325 19.2714 23.5488 18.3633 22.6464 18.1544C22.7874 17.8547 22.8626 17.5096 22.8626 17.1463C22.8626 15.9112 21.9695 14.9122 20.8696 14.9122C20.7944 14.9122 20.7192 14.9213 20.644 14.9304C20.268 13.2048 18.463 12.1877 16.8461 12.1877C15.2292 12.1877 13.9507 13.2048 13.5841 14.9304C13.5089 14.9213 13.4337 14.9122 13.3585 14.9122C12.2586 14.9122 11.3749 15.9112 11.3749 17.1463C11.3749 17.5096 11.4501 17.8547 11.5911 18.1544C10.6887 18.3633 9.80499 19.2714 9.67338 20.334C9.09994 25.111 10.9613 28.4803 17.1281 28.4803C23.2762 28.4803 25.1375 25.111 24.5641 20.334Z" fill="#FFB646"/>
<path d="M11.0834 34.8557C10.7262 34.8557 10.1998 34.6287 10.1528 33.9657L10.1434 33.8113C9.79554 28.6075 9.36311 24.9384 8.97768 24.003C8.66746 23.2311 7.99061 23.0676 7.98121 23.0676C7.48297 22.9677 7.16335 22.4954 7.25735 22.0141C7.36076 21.5328 7.8496 21.224 8.34784 21.3148C8.95888 21.4329 10.134 21.996 10.6886 23.34C11.2903 24.8022 11.7227 29.779 11.9859 33.6932C11.9953 33.775 11.9953 33.8385 11.9953 33.8658C11.9953 33.893 11.9953 33.9203 12.0047 33.9475C12.0141 34.4289 11.6193 34.8285 11.121 34.8466C11.1116 34.8557 11.0928 34.8557 11.0834 34.8557Z" fill="#A0525F"/>
<path d="M7.98119 23.0676C7.99059 23.0676 8.65804 23.2311 8.97766 24.003C9.13748 24.3935 9.30669 25.2563 9.4759 26.5096H11.3372C11.1492 25.0838 10.933 23.9304 10.698 23.3491C10.1434 22.005 9.20328 21.0515 6.96591 21.1423C6.45827 21.1604 7.37014 21.5419 7.27614 22.0232C7.16333 22.5045 7.48295 22.9677 7.98119 23.0676Z" fill="#69ACE8"/>
<path d="M11.2055 34.9919L10.2091 24.0575C10.0023 22.2048 8.28192 20.8698 6.36418 21.0696C4.44644 21.2694 3.06453 22.9314 3.27135 24.775L4.23022 35.11C4.23022 35.11 4.44644 35.6731 8.06571 35.6731C10.9141 35.6731 11.2055 34.9919 11.2055 34.9919Z" fill="#69ACE8"/>
<path d="M3.36541 36C2.92358 36 2.52875 35.6912 2.45354 35.2553C2.44414 35.2281 2.44414 35.2008 2.44414 35.1736C2.44414 35.1463 2.43474 35.0827 2.42534 35.001C1.97411 31.0959 1.50407 26.1191 1.83309 24.5842C2.13392 23.1675 3.1962 22.4228 3.76964 22.1957L4.44649 23.8577L4.46529 23.8486C4.43709 23.8577 3.80724 24.1392 3.63803 24.9384C3.43121 25.9283 3.65683 29.6155 4.25848 34.8012L4.27728 34.9556C4.35248 35.6276 3.85425 35.9455 3.49702 35.9909C3.45002 36 3.41241 36 3.36541 36Z" fill="#A0525F"/>
<path d="M3.60048 27.4723C3.54408 26.219 3.55348 25.3471 3.63809 24.9384C3.8073 24.1302 5.51823 23.5489 5.54643 23.5399L5.31141 22.7225L5.41482 21.2785C2.24678 22.1958 2.13398 23.1675 1.83315 24.5843C1.71094 25.1564 1.70154 26.1917 1.75795 27.4723H3.60048Z" fill="#69ACE8"/>
<path d="M21.9037 34.8739L21.2644 24.0394C21.0576 22.1867 19.9013 21.2422 16.8555 21.2967C13.8379 21.3421 12.8978 22.0232 12.6722 23.2674C12.5876 23.7397 12.1082 35.3098 12.1082 35.3098C12.1082 35.3098 13.7909 35.8729 17.4101 35.8729C20.268 35.8638 21.9037 34.8739 21.9037 34.8739Z" fill="#E1F8F9"/>
<path d="M17.3255 23.2129C17.8896 23.0585 18.228 22.4864 18.0682 21.9415C17.8426 21.1604 18.0212 19.889 18.1152 19.4622C18.228 18.9082 17.8614 18.3633 17.2785 18.2452C16.7051 18.1362 16.1411 18.4904 16.0188 19.0535C15.9718 19.2624 15.6052 21.1059 16.0094 22.4954C16.1693 23.0403 16.7615 23.3673 17.3255 23.2129Z" fill="#FFA077"/>
<path d="M15.8307 21.3784C15.7649 20.2613 15.9811 19.1988 16.0188 19.0444C16.141 18.4904 16.705 18.1271 17.2785 18.2361C17.8519 18.3542 18.2279 18.89 18.1151 19.4531C18.0587 19.6983 17.9835 20.2432 17.9647 20.7972L15.8307 21.3784Z" fill="#FF865E"/>
<path d="M19.309 16.9193C19.3184 17.3098 19.6569 17.6186 20.0611 17.6095C20.4653 17.6004 20.7849 17.2735 20.7755 16.8829V16.6922C20.7661 16.3017 20.4277 15.9929 20.0235 16.002C19.6193 16.0111 19.2996 16.338 19.309 16.7286V16.9193Z" fill="#FFA077"/>
<path d="M13.1516 17.0555C13.161 17.446 13.4994 17.7548 13.9036 17.7457C14.3079 17.7366 14.6275 17.4097 14.6181 17.0192V16.8285C14.6087 16.4379 14.2703 16.1292 13.866 16.1382C13.4618 16.1473 13.1422 16.4743 13.1516 16.8648V17.0555Z" fill="#FFA077"/>
<path d="M17.41 20.7154L16.6956 20.7336C15.2855 20.7609 14.1198 19.7709 14.0916 18.5177L14.0352 16.1201L14.007 15.1029C13.9788 13.8496 15.0975 12.8052 16.4982 12.778L17.2126 12.7598C17.6263 12.7508 18.0211 12.8325 18.3783 12.9778C19.215 13.332 19.7978 14.0858 19.8166 14.9667L19.9012 18.3724C19.9294 19.6438 18.8107 20.6882 17.41 20.7154Z" fill="#FFA077"/>
<path d="M18.5663 15.221C18.8578 15.439 19.497 15.9203 19.8448 16.0383L20.3337 15.112C20.3149 14.2311 19.3278 13.2412 18.4911 12.887C18.1997 12.7598 17.6639 12.6599 17.3348 12.6418C17.457 13.4864 17.8801 14.7033 18.5663 15.221Z" fill="#FFB646"/>
<path d="M16.1598 15.0212C16.7426 14.5217 17.2315 13.3047 17.4383 12.6327C17.4101 12.6327 17.3161 12.5328 17.2879 12.5328L16.4324 12.6236C15.0599 12.6509 13.725 13.7134 13.6216 16.111C13.8002 16.1292 14.3548 16.5651 16.1598 15.0212Z" fill="#FFB646"/>
<path d="M11.9202 21.6236C11.4783 21.56 10.9707 21.4601 10.3878 21.3057C6.74037 20.3522 4.44659 19.9526 3.2433 20.8971C2.90488 21.1604 2.51005 21.6599 2.56645 22.5318C2.59466 23.0222 3.02709 23.4036 3.53473 23.3764C4.04236 23.3491 4.43719 22.9314 4.40899 22.441C4.39959 22.3501 4.40899 22.3047 4.41839 22.2866C4.4842 22.2502 4.82262 22.1049 6.03531 22.2866C7.06939 22.441 8.44189 22.9586 9.899 23.4854C10.8485 23.8305 11.4689 23.9485 12.0894 24.0121C12.1458 23.3855 12.0706 22.223 11.9202 21.6236Z" fill="#F7916D"/>
<path d="M15.4736 22.3592C15.3702 21.8779 15.0318 21.4601 14.5335 21.56C13.8379 21.6963 13.0952 21.7235 11.4783 21.56C11.5253 22.1776 11.3843 23.3946 11.2433 23.9939C11.5159 24.0575 11.7979 24.1483 12.0141 24.2573C12.9636 24.7477 12.1176 26.0918 12.879 25.9374C13.3772 25.8285 15.577 22.8406 15.4736 22.3592Z" fill="#E1F8F9"/>
<path d="M21.9318 21.6236C22.3737 21.56 22.8813 21.4601 23.4642 21.3057C27.1116 20.3522 29.4054 19.9526 30.6087 20.8971C30.9471 21.1604 31.3419 21.6599 31.2855 22.5318C31.2573 23.0222 30.8249 23.4036 30.3173 23.3764C29.8096 23.3491 29.4148 22.9314 29.443 22.441C29.4524 22.3501 29.443 22.3047 29.4336 22.2866C29.3678 22.2502 29.0294 22.1049 27.8167 22.2866C26.7826 22.441 25.4101 22.9586 23.953 23.4854C23.0035 23.8305 22.3831 23.9485 21.7626 24.0121C21.7062 23.3855 21.7814 22.223 21.9318 21.6236Z" fill="#F7916D"/>
<path d="M18.3784 22.3592C18.4818 21.8779 18.8202 21.4601 19.3185 21.56C20.0141 21.6963 20.7568 21.7235 22.3737 21.56C22.3267 22.1776 22.4677 23.3946 22.6087 23.9939C22.3361 24.0575 22.0541 24.1483 21.8379 24.2573C20.8884 24.7477 21.7345 26.0918 20.973 25.9374C20.4748 25.8285 18.275 22.8406 18.3784 22.3592Z" fill="#E1F8F9"/>
<path d="M4.5312 23.8668C4.39019 23.8668 4.25858 23.7851 4.19277 23.6579C3.94836 23.1493 3.76974 22.5954 3.76034 22.5772C3.69454 22.3865 3.80735 22.1867 3.99536 22.1231C4.19277 22.0595 4.39959 22.1685 4.4654 22.3501C4.4654 22.3592 4.64401 22.886 4.86963 23.3582C4.95423 23.5399 4.86963 23.7487 4.69101 23.8305C4.63461 23.8577 4.5782 23.8668 4.5312 23.8668Z" fill="#F7916D"/>
<path d="M4.22088 25.002C4.10807 25.002 3.99527 24.9475 3.92006 24.8567C3.168 23.8668 3.1116 22.7952 3.1116 22.7497C3.1022 22.5499 3.26201 22.3865 3.45943 22.3774C3.66624 22.3683 3.83545 22.5227 3.84486 22.7134C3.84486 22.7316 3.90126 23.6216 4.5123 24.4299C4.63451 24.5843 4.59691 24.8113 4.4371 24.9294C4.37129 24.9839 4.29609 25.002 4.22088 25.002Z" fill="#F7916D"/>
<path d="M3.37487 25.2018C3.28086 25.2018 3.18685 25.1655 3.11165 25.1019C2.29378 24.3118 2.557 22.6044 2.58521 22.4137C2.61341 22.223 2.81082 22.0868 3.00824 22.1231C3.20565 22.1504 3.34666 22.3411 3.30906 22.5318C3.24326 22.9223 3.15865 24.1483 3.62868 24.6024C3.76969 24.7386 3.76969 24.9657 3.62868 25.111C3.56288 25.1655 3.46887 25.2018 3.37487 25.2018Z" fill="#F7916D"/>
<path d="M2.40657 24.7296C2.25616 24.7296 2.11515 24.6387 2.05875 24.4934C1.29729 22.5227 2.94241 21.0878 3.01762 21.0333C3.16803 20.9061 3.40305 20.9152 3.53465 21.0605C3.66626 21.2058 3.65686 21.4329 3.50645 21.56C3.45005 21.6054 2.17155 22.7407 2.7544 24.2391C2.8296 24.4208 2.7262 24.6297 2.53818 24.7023C2.49118 24.7296 2.44417 24.7296 2.40657 24.7296Z" fill="#F7916D"/>
<path d="M6.4395 19.8164C5.83786 21.442 2.36899 21.1877 2.90484 19.2533C1.22211 20.2523 0.112826 17.8365 1.31612 17.1463C-0.253802 17.2735 -0.545223 14.7124 1.1375 14.4945C0.423049 13.6408 0.874283 12.0424 2.17158 12.3512C1.69214 11.116 3.35607 10.3532 4.32434 10.7709C5.0952 9.87185 6.57111 10.5621 6.95654 11.5429C7.718 10.7619 9.35372 10.998 9.44773 12.1877C10.4066 12.1877 10.8296 13.2957 10.4912 13.7861C11.0176 14.1766 11.1117 14.9304 10.7826 15.5025C11.4595 16.2018 11.3843 17.4006 10.463 17.9001C10.9142 18.6811 10.2562 19.3895 9.43833 19.6166C9.66394 21.3512 6.82493 21.0061 6.20448 19.9617L6.4395 19.8164Z" fill="#002B43"/>
<path d="M6.81553 23.222C7.13515 23.1312 7.37957 23.0494 7.50178 22.777C7.59579 22.5681 7.55819 22.2684 7.55819 21.9505C7.55819 21.1423 7.51118 19.8981 7.60519 19.4712C7.718 18.9173 7.35137 18.3723 6.76853 18.2543C6.19509 18.1453 5.63104 18.4995 5.50884 19.0626C5.46183 19.2714 5.09521 21.115 5.49944 22.5045C5.64985 23.0585 6.24209 23.3764 6.81553 23.222Z" fill="#A0525F"/>
<path d="M7.6428 21.8143H5.20801C5.23622 22.0505 5.17041 22.3592 5.17041 22.5863C5.17041 23.5035 6.24209 23.8305 6.80613 23.6761C7.12576 23.5853 7.51118 23.4036 7.63339 23.1312C7.7368 22.9223 7.6428 21.8597 7.6428 21.8143Z" fill="#69ACE8"/>
<path d="M5.32085 21.3966C5.25504 20.2795 5.47126 19.217 5.50886 19.0626C5.63107 18.5086 6.19511 18.1453 6.76856 18.2543C7.342 18.3724 7.71803 18.9082 7.60522 19.4712C7.54881 19.7165 7.56762 20.2614 7.54881 20.8244L5.32085 21.3966Z" fill="#753845"/>
<path d="M8.44185 16.9374C8.45125 17.328 8.78968 17.6367 9.19391 17.6276C9.59814 17.6186 9.91776 17.2916 9.90836 16.9011V16.7104C9.89896 16.3199 9.56053 16.0111 9.15631 16.0202C8.75208 16.0293 8.43245 16.3562 8.44185 16.7467V16.9374Z" fill="#A0525F"/>
<path d="M2.64156 17.0737C2.65096 17.4642 2.98938 17.773 3.39361 17.7639C3.79784 17.7548 4.11747 17.4278 4.10807 17.0373V16.8466C4.09867 16.4561 3.76024 16.1473 3.35601 16.1564C2.95178 16.1655 2.63216 16.4924 2.64156 16.8829V17.0737Z" fill="#A0525F"/>
<path d="M6.89076 20.7336L6.17631 20.7518C4.7662 20.779 3.60051 19.7891 3.57231 18.5358L3.51591 16.1382L3.4877 15.1211C3.4595 13.8678 4.57819 12.8234 5.97889 12.7962L6.69334 12.778C7.10698 12.7689 7.50181 12.8507 7.85903 12.996C8.69569 13.3502 9.27854 14.1039 9.29734 14.9849L9.38195 18.3905C9.41955 19.662 8.30087 20.6973 6.89076 20.7336Z" fill="#A0525F"/>
<path d="M9.73919 11.334C9.34436 10.78 8.35729 10.3532 7.66164 10.9163C7.45482 10.1715 6.52415 9.73563 5.55588 9.95359C4.56881 10.1716 3.92016 10.9707 4.09877 11.7427C4.03297 11.7518 3.97656 11.7699 3.91076 11.7881C2.66986 12.106 1.852 13.0595 2.08702 13.9314C2.32204 14.7942 3.51593 15.2392 4.75682 14.9304C5.38667 14.7669 5.91311 14.44 6.24213 14.0494C6.38314 14.0949 6.15753 14.5853 6.27033 14.7669C6.30794 14.8305 6.37374 14.885 6.43955 14.9122C6.55235 14.9667 6.68397 14.9576 6.79677 14.894C7.107 14.7215 7.35142 14.5217 7.54883 14.3219C8.06587 14.5762 8.62051 14.6034 9.04354 14.3219C9.73919 13.8587 10.369 12.2149 9.73919 11.334Z" fill="#002B43"/>
<path d="M29.3208 23.8668C29.4618 23.8668 29.5934 23.7851 29.6592 23.6579C29.9036 23.1493 30.0822 22.5954 30.0916 22.5772C30.1574 22.3865 30.0446 22.1867 29.8566 22.1231C29.6592 22.0595 29.4524 22.1685 29.3866 22.3501C29.3866 22.3592 29.208 22.886 28.9824 23.3582C28.8977 23.5399 28.9824 23.7487 29.161 23.8305C29.2174 23.8577 29.2738 23.8668 29.3208 23.8668Z" fill="#F7916D"/>
<path d="M29.6311 25.002C29.7439 25.002 29.8567 24.9475 29.9319 24.8567C30.684 23.8668 30.7404 22.7952 30.7404 22.7497C30.7498 22.5499 30.59 22.3865 30.3926 22.3774C30.1858 22.3683 30.0165 22.5227 30.0071 22.7134C30.0071 22.7316 29.9507 23.6216 29.3397 24.4299C29.2175 24.5843 29.2551 24.8113 29.4149 24.9294C29.4807 24.9839 29.5559 25.002 29.6311 25.002Z" fill="#F7916D"/>
<path d="M30.4771 25.2018C30.5711 25.2018 30.6651 25.1655 30.7404 25.1019C31.5582 24.3118 31.295 22.6044 31.2668 22.4137C31.2386 22.223 31.0412 22.0868 30.8438 22.1231C30.6463 22.1504 30.5053 22.3411 30.5429 22.5318C30.6087 22.9223 30.6933 24.1483 30.2233 24.6024C30.0823 24.7386 30.0823 24.9657 30.2233 25.111C30.2891 25.1655 30.3831 25.2018 30.4771 25.2018Z" fill="#F7916D"/>
<path d="M31.4454 24.7296C31.5958 24.7296 31.7368 24.6387 31.7932 24.4934C32.5547 22.5227 30.9096 21.0878 30.8344 21.0333C30.684 20.9061 30.449 20.9152 30.3173 21.0605C30.1857 21.2058 30.1951 21.4329 30.3455 21.56C30.402 21.6054 31.6804 22.7407 31.0976 24.2391C31.0224 24.4208 31.1258 24.6297 31.3138 24.7023C31.3608 24.7296 31.4078 24.7296 31.4454 24.7296Z" fill="#F7916D"/>
<path d="M22.825 35.219C22.3173 35.219 21.9131 34.8103 21.9037 34.329C21.9037 34.3017 21.9037 34.2654 21.9037 34.2381C21.9037 34.2109 21.9037 34.1473 21.9131 34.0656C22.0353 30.1423 22.3079 25.1473 22.8532 23.6761C23.3608 22.3229 24.5171 21.7235 25.1281 21.5782L25.5512 23.3128H25.57C25.5418 23.3219 24.8837 23.5035 24.5923 24.2846C24.2351 25.2381 23.9248 28.9162 23.7556 34.1292L23.7462 34.3017C23.7274 34.9556 23.1822 35.219 22.825 35.219Z" fill="#FF7347"/>
<path d="M24.0564 25.1655C24.1128 25.4379 24.188 25.7104 24.2632 25.9828C24.3666 25.1564 24.47 24.5661 24.5923 24.2573C24.8837 23.4854 25.5417 23.2947 25.5699 23.2856H25.5511L25.8708 21.1877C24.7333 21.551 24.2162 21.887 23.9624 22.1322C22.8813 24.884 23.8496 24.2028 24.0564 25.1655Z" fill="#7BC984"/>
<path d="M22.8813 34.6468L23.436 24.0575C23.6428 22.2048 25.3631 20.8698 27.2809 21.0696C29.1986 21.2694 30.5805 22.9314 30.3737 24.775L29.8661 34.7649C29.8661 34.7649 29.6499 35.328 26.04 35.328C23.1634 35.337 22.8813 34.6468 22.8813 34.6468Z" fill="#7BC984"/>
<path d="M30.8814 35.3189C30.8626 35.3189 30.8438 35.3189 30.825 35.3189C30.4677 35.3007 29.9413 35.0192 29.9601 34.3471L29.9695 34.1927C30.1481 28.9798 30.0823 25.2926 29.7909 24.3118C29.5559 23.5217 28.9072 23.2947 28.879 23.2856L28.8978 23.2947L29.4431 21.5873C30.0353 21.7598 31.154 22.4319 31.5676 23.8214C32.0189 25.329 31.9531 30.3239 31.8214 34.2472C31.8214 34.329 31.812 34.3925 31.812 34.4198C31.812 34.447 31.812 34.4743 31.812 34.5015C31.765 34.9647 31.3608 35.3189 30.8814 35.3189Z" fill="#FF7347"/>
<path d="M30.449 23.0858C30.5994 22.9405 30.7968 22.7952 31.0036 22.7134C30.1575 21.6327 28.738 21.3148 28.3244 21.1968V23.2492L27.9296 23.4945C27.9578 23.5035 28.926 23.5762 29.8379 24.5298C29.8567 24.5388 29.7439 23.776 30.449 23.0858Z" fill="#7BC984"/>
<path d="M28.0517 12.5782C22.8719 12.6236 23.9436 15.2664 23.8966 16.7286C23.8684 17.5913 24.752 18.1907 25.8707 16.665C26.5287 15.7659 25.9177 16.1201 26.3407 15.112C26.5664 14.5762 26.8108 14.0949 26.7074 13.5045L28.0517 12.5782Z" fill="#002B43"/>
<path d="M26.8297 23.222C26.2656 23.0676 25.9272 22.4955 26.087 21.9505C26.3126 21.1695 26.134 19.8981 26.04 19.4712C25.9272 18.9173 26.2938 18.3723 26.8767 18.2543C27.4501 18.1453 28.0142 18.4995 28.1364 19.0626C28.1834 19.2714 28.55 21.115 28.1458 22.5045C27.9859 23.0585 27.3937 23.3764 26.8297 23.222Z" fill="#FF7347"/>
<path d="M28.3244 21.3966C28.3902 20.2795 28.174 19.217 28.1364 19.0626C28.0142 18.5086 27.4501 18.1453 26.8767 18.2543C26.3032 18.3724 25.9272 18.9082 26.04 19.4712C26.0964 19.7165 26.1716 20.2614 26.1904 20.8244L28.3244 21.3966Z" fill="#FF572D"/>
<path d="M25.1939 17.1372C25.1845 17.5277 24.8461 17.8365 24.4418 17.8274C24.0376 17.8184 23.718 17.4914 23.7274 17.1009V16.9102C23.7368 16.5197 24.0752 16.2109 24.4794 16.22C24.8837 16.2291 25.2033 16.556 25.1939 16.9465V17.1372Z" fill="#FF7347"/>
<path d="M31.0036 16.8829C30.9942 17.2735 30.6557 17.5822 30.2515 17.5732C29.8473 17.5641 29.5277 17.2371 29.5371 16.8466V16.6559C29.5465 16.2654 29.8849 15.9566 30.2891 15.9657C30.6934 15.9748 31.013 16.3017 31.0036 16.6922V16.8829Z" fill="#FF7347"/>
<path d="M26.7544 20.7336L27.4689 20.7518C28.879 20.779 30.0447 19.7891 30.0729 18.5358L30.1293 16.1382L30.1575 15.1211C30.1857 13.8678 29.067 12.8234 27.6663 12.7962L26.9519 12.778C26.5382 12.7689 26.1434 12.8507 25.7862 12.996C24.9495 13.3502 24.3667 14.1039 24.3479 14.9849L24.2632 18.3905C24.2256 19.662 25.3443 20.6973 26.7544 20.7336Z" fill="#FF7347"/>
<path d="M29.3303 15.893C29.3397 16.1201 29.3773 16.3653 29.5935 16.4834C29.7157 16.556 29.8661 16.6014 30.0071 16.5469C30.0447 16.5288 30.4207 16.329 30.5241 15.3118C30.6934 13.5227 29.6029 12.3966 27.7885 12.3966C25.9742 12.3966 25.2316 12.7962 24.8837 12.9869C23.7462 13.6135 24.0095 14.222 24.2915 14.4854C24.4325 14.6125 24.7709 14.6761 25.4666 14.6034C26.275 14.5126 27.3561 14.0767 27.939 14.0858C28.4184 14.0949 29.0106 14.2038 29.2551 14.6579C29.4619 15.0394 29.3209 15.4934 29.3303 15.893Z" fill="#002B43"/>
<path d="M30.6087 20.888C30.4019 20.7336 30.1763 20.6155 29.9037 20.5338H28.926L29.1422 21.4511C29.5935 21.778 29.3961 22.2412 29.4337 22.2684C29.4431 22.2866 29.4431 22.332 29.4431 22.4228C29.4149 22.9132 29.8003 23.331 30.3173 23.3582C30.825 23.3855 31.2574 23.0131 31.2856 22.5136C31.342 21.6509 30.9472 21.1514 30.6087 20.888Z" fill="#F7916D"/>
<path d="M29.3208 23.8668C29.4618 23.8668 29.5934 23.7851 29.6592 23.6579C29.9036 23.1493 30.0822 22.5954 30.0916 22.5772C30.1574 22.3865 30.0446 22.1867 29.8566 22.1231C29.6592 22.0595 29.4524 22.1685 29.3866 22.3501C29.3866 22.3592 29.208 22.886 28.9824 23.3582C28.8977 23.5399 28.9824 23.7487 29.161 23.8305C29.2174 23.8577 29.2738 23.8668 29.3208 23.8668Z" fill="#F7916D"/>
<path d="M29.6311 25.002C29.7439 25.002 29.8567 24.9475 29.9319 24.8567C30.684 23.8668 30.7404 22.7952 30.7404 22.7497C30.7498 22.5499 30.59 22.3865 30.3926 22.3774C30.1858 22.3683 30.0165 22.5227 30.0071 22.7134C30.0071 22.7316 29.9507 23.6216 29.3397 24.4299C29.2175 24.5843 29.2551 24.8113 29.4149 24.9294C29.4807 24.9839 29.5559 25.002 29.6311 25.002Z" fill="#F7916D"/>
<path d="M30.4771 25.2018C30.5711 25.2018 30.6651 25.1655 30.7404 25.1019C31.5582 24.3118 31.295 22.6044 31.2668 22.4137C31.2386 22.223 31.0412 22.0868 30.8438 22.1231C30.6463 22.1504 30.5053 22.3411 30.5429 22.5318C30.6087 22.9223 30.6933 24.1483 30.2233 24.6024C30.0823 24.7386 30.0823 24.9657 30.2233 25.111C30.2891 25.1655 30.3831 25.2018 30.4771 25.2018Z" fill="#F7916D"/>
<path d="M31.4454 24.7296C31.5958 24.7296 31.7368 24.6388 31.7932 24.4935C32.5547 22.5227 30.9096 21.0878 30.8344 21.0333C30.2703 20.5883 30.449 20.9152 30.3173 21.0605C30.1857 21.2058 30.1951 21.4329 30.3455 21.56C30.402 21.6054 31.6804 22.7407 31.0976 24.2392C31.0224 24.4208 31.1258 24.6297 31.3138 24.7023C31.3608 24.7296 31.4078 24.7296 31.4454 24.7296Z" fill="#F7916D"/>
<path d="M15.0411 4.1776C14.7779 2.62462 13.9318 1.15338 12.0893 0.835522L10.7168 3.32392C10.6792 3.60545 10.6698 3.89607 10.6698 4.1776H15.0411Z" fill="#E23B5B"/>
<path d="M14.4018 4.1776C14.4112 3.41473 13.9506 2.7336 13.2456 2.37034C12.9353 2.20686 12.5875 2.10696 12.2115 2.0888L11.5628 2.05247C10.2843 1.9889 9.20326 2.85167 9.13745 3.98688L9.12805 4.1776H14.4018Z" fill="#FF7347"/>
<path d="M10.51 4.1776C10.8296 4.00505 11.121 3.79617 11.3654 3.5328C11.6004 3.28759 11.826 2.99697 11.9389 2.67003C12.0047 2.47932 12.0235 2.27952 12.0517 2.07972L11.5628 2.05247C10.2843 1.9889 9.20326 2.85167 9.13745 3.98688L9.12805 4.1776H10.51Z" fill="#002B43"/>
<path d="M13.396 4.1776H14.4019C14.4113 3.41473 13.9507 2.7336 13.2456 2.37033C12.9354 2.20686 12.5876 2.10696 12.2116 2.0888H12.1833C12.1833 2.51564 12.2868 2.9334 12.5312 3.29667C12.7474 3.62361 13.0576 3.93239 13.396 4.1776Z" fill="#002B43"/>
<path d="M9.38189 4.1776C9.61691 3.16045 10.1998 2.30676 11.3748 2.07064C12.4935 1.85268 13.6028 3.01514 14.0916 4.1776H14.5429C15.0129 -0.26337 8.55463 -0.308778 7.43594 3.37841C7.35134 3.65086 7.28553 3.91423 7.21973 4.1776H9.38189Z" fill="#F9627F"/>
<path d="M27.2432 1.41675C27.2432 2.19778 26.5852 2.8335 25.7767 2.8335C24.9682 2.8335 24.3102 2.19778 24.3102 1.41675C24.3102 0.635722 24.9682 0 25.7767 0C26.5946 0 27.2432 0.635722 27.2432 1.41675Z" fill="#FF4444"/>
<path d="M26.2561 2.0888C25.9741 1.77094 25.5699 1.51665 25.1656 1.3441C24.9212 1.2442 24.6768 1.17154 24.4136 1.15338C24.3948 1.15338 24.3666 1.15338 24.3478 1.1443C24.329 1.22603 24.3196 1.31685 24.3196 1.40767C24.3196 2.1887 24.9776 2.82442 25.7861 2.82442C26.0681 2.82442 26.3407 2.74269 26.5663 2.60646C26.4911 2.42482 26.3971 2.24319 26.2561 2.0888Z" fill="#FFB646"/>
<path d="M26.557 4.1776C26.3408 2.75177 25.0717 1.65288 23.5394 1.65288C22.007 1.65288 20.7285 2.75177 20.5217 4.1776H26.557Z" fill="#FF4444"/>
<path d="M25.6263 4.1776C25.3537 3.26034 24.3854 2.61554 23.2761 2.67911L22.6275 2.71544C22.2515 2.7336 21.8942 2.8335 21.5934 2.99697C21.0858 3.26034 20.7097 3.68718 20.5405 4.18668H25.6263V4.1776Z" fill="#FFA077"/>
<path d="M25.7767 4.1776C25.5229 3.54188 24.893 2.94248 24.141 2.66095C24.2256 3.20585 24.3948 3.71443 24.658 4.1776H25.7767Z" fill="#FF4444"/>
<path d="M22.148 4.1776C22.2326 4.15035 22.3078 4.11403 22.383 4.08678C22.7027 3.95964 23.0411 3.82341 23.3325 3.6327C23.4735 3.54188 24.0188 3.1332 24.4042 2.7336C24 2.56105 23.5487 2.47932 23.0693 2.49748L22.2984 2.53381C21.8472 2.56105 21.4336 2.67911 21.0763 2.86075C20.5123 3.15136 20.0799 3.61453 19.8636 4.16852H22.148V4.1776Z" fill="#FF4444"/>
</g>
<defs>
<clipPath id="clip0_1_1833">
<rect width="32" height="36" fill="white"/>
</clipPath>
</defs>
</svg>
