<svg width="36" height="28" viewBox="0 0 36 28" fill="none" xmlns="http://www.w3.org/2000/svg">
<g clip-path="url(#clip0_1_1989)">
<path d="M35.9392 12.7477C35.8784 13.4081 35.7566 14.0561 35.5863 14.6791C34.138 20.0249 29.1116 23.676 23.5497 23.0903C17.3428 22.4424 12.8155 16.7726 13.4483 10.405C13.6674 8.17445 14.495 6.1433 15.7485 4.48598C17.4646 2.21807 19.9838 0.635514 22.8195 0.149533C23.7932 -0.0124612 24.8033 -0.0498444 25.8378 0.049844C27.5903 0.23676 29.209 0.809969 30.6086 1.6947C34.1867 3.96262 36.3895 8.17445 35.9392 12.7477Z" fill="#98CDE6"/>
<path d="M20.4219 9.61993C20.4341 9.61993 24.0487 10.8536 24.0487 10.8536C24.3651 10.9657 24.852 12.0498 25.0467 12.324C25.3388 12.7352 26.142 13.2586 25.8986 13.8692C25.424 15.0903 23.9148 15.053 23.0751 15.7632C22.4179 16.324 21.8459 16.9969 21.2252 17.6075C21.067 17.7695 21.0548 18.567 21.0183 18.7788C20.9209 19.3396 20.6897 19.9875 20.8722 20.5483C20.9331 20.7352 21.2009 20.9346 21.067 21.1589C20.6654 21.7819 19.9838 19.4766 19.8864 19.2523C19.5457 18.4797 19.2171 17.6947 18.8885 16.9221C18.6694 16.3988 18.6938 15.5763 18.6086 15.0156C18.5477 14.5545 18.499 14.1433 18.3165 13.7196C18.1339 13.2835 17.8297 12.81 18.1096 12.3364C18.4625 11.7134 19.0102 11.3894 19.4848 10.9034C19.5944 10.8162 20.3002 9.58255 20.4219 9.61993Z" fill="#43B06D"/>
<path d="M22.7709 2.5296L23.3672 3.7757L24.3165 3.95016L26.0325 1.66978L24.6938 1.47041L22.7709 2.5296Z" fill="#43B06D"/>
<path d="M27.3469 7.31464L25.0953 8.53583L25.1197 6.94081L27.0061 4.2866L28.0649 4L27.3469 7.31464Z" fill="#4D917B"/>
<path d="M34.0771 22.3676C33.6754 21.5701 32.7018 21.2461 31.9229 21.6698L27.6389 23.6262C26.8478 24.0374 26.5436 25.0343 26.9574 25.8318C27.3712 26.6293 28.3326 26.9533 29.1115 26.5296L33.3955 24.5732C34.1866 24.162 34.4909 23.1651 34.0771 22.3676Z" fill="#FFDBC5"/>
<path d="M13.4483 16.8598H5.8418V24.8349H13.4483C15.0183 24.8349 16.43 23.6885 16.43 22.3551V19.2648C16.43 17.919 15.0304 16.8598 13.4483 16.8598Z" fill="#FFDBC5"/>
<path d="M21.1034 22.5171C21.5902 21.4953 21.1764 20.2617 20.1785 19.7632L15.1278 17.0467C14.1298 16.5483 12.9249 16.972 12.4381 17.9938C11.9513 19.0156 12.3651 20.2492 13.3631 20.7477L18.4138 23.4642C19.4239 23.9626 20.6166 23.5389 21.1034 22.5171Z" fill="#FFDBC5"/>
<path d="M24.2434 26.1059C24.7546 24.7477 24.0852 23.2274 22.7586 22.704L16.0162 19.8131C14.6896 19.2897 13.2049 19.9751 12.6937 21.3333C12.1825 22.6916 12.8519 24.2118 14.1785 24.7352L20.9209 27.6137C22.2475 28.1371 23.7322 27.4642 24.2434 26.1059Z" fill="#FFDBC5"/>
<path d="M28.5761 23.3769C28.7464 24.4486 28.9899 25.4953 29.2454 26.5545L22.7708 27.9502C21.5781 28.2118 20.4097 27.4392 20.1785 26.2804C19.9351 25.1215 20.7018 23.9377 21.8945 23.676L28.5761 23.3769Z" fill="#FFDBC5"/>
<path d="M22.3449 20.8474C22.357 22.2305 23.3672 23.3645 24.5964 23.3894L26.568 23.4393C26.5436 23.6885 26.495 23.8629 26.4219 24.0498C26.0325 24.972 25.0589 25.4081 24.2434 24.972L19.7891 22.6293C19.2658 22.3551 18.925 21.7944 18.8641 21.1838C20.0447 21.1589 21.2009 21.0467 22.3449 20.8474Z" fill="#E8B494"/>
<path d="M26.5801 21.2959C26.5436 22.3178 25.7039 23.1153 24.7059 23.0779L19.2901 22.8785C18.2921 22.8411 17.5132 21.9813 17.5497 20.9595C17.5862 19.9377 18.426 19.1402 19.4239 19.1776L24.8398 19.3769C25.8377 19.4143 26.6166 20.2741 26.5801 21.2959Z" fill="#FFDBC5"/>
<path d="M9.2495 16.8598H3.89453V24.8349H9.2495V16.8598Z" fill="#E8B494"/>
<path d="M0 27.5763H4.81947C6.30426 27.5763 7.54564 26.3427 7.54564 24.8349V16.3614C7.54564 14.8411 6.30426 13.6199 4.81947 13.6199H0V27.5763Z" fill="#FF9800"/>
<path d="M25.6552 4.47352L23.6349 6.00623L21.6147 6.90343L21.3347 8.29906L19.8865 8.31153L20.1542 10.4673L15.7485 4.49844C17.4646 2.23053 19.9838 0.647976 22.8195 0.161995L24.0366 1.93147L24.0244 2.80374L25.3145 3.09034L25.6552 4.47352Z" fill="#43B06D"/>
<path d="M35.9392 12.7477C35.8784 13.4081 35.7566 14.0561 35.5863 14.6791C35.5132 14.7539 35.4402 14.8536 35.3915 14.9533C35.2211 15.2523 35.0508 15.5639 34.8926 15.8629C34.7343 16.1869 34.6978 16.5109 34.4544 16.7726C34.1502 17.109 33.712 17.3209 33.3713 17.6324C32.4341 18.5296 31.5579 19.4766 30.5599 20.2991C30.2191 20.5857 29.6958 21.4206 29.1846 21.3458C28.5153 21.2586 29.0508 20.2243 29.1238 19.8505C29.1968 19.514 29.1968 19.1651 29.2942 18.8287C29.3672 18.5545 29.6106 18.243 29.6349 17.9688C29.708 17.3209 28.5883 16.486 28.1745 16.0498C28.1867 15.4766 28.4788 15.0654 28.6491 14.5296C28.7465 14.2181 29.0629 11.0903 29.5376 11.1153C30.0731 11.1526 30.2191 11.9751 30.7546 11.9502C31.1441 11.9252 31.3875 11.2773 31.6309 11.0031C32.0447 10.5421 32.5437 10.2181 33.0305 9.85669C33.4321 9.54517 33.3347 9.43302 33.2374 8.9595C32.7384 9.15888 32.2516 9.35825 31.7404 9.52025C31.4848 9.60747 31.0102 9.66978 30.7911 9.83177L29.5984 10.7664L27.5051 9.0218L27.8216 7.72585L28.783 7.16511L30.7181 7.23987L30.1218 5.38318L29.0629 4.27414L30.5964 1.66978C34.1867 3.96262 36.3895 8.17445 35.9392 12.7477Z" fill="#4D917B"/>
</g>
<defs>
<clipPath id="clip0_1_1989">
<rect width="36" height="28" fill="white"/>
</clipPath>
</defs>
</svg>
