<svg width="30" height="32" viewBox="0 0 30 32" fill="none" xmlns="http://www.w3.org/2000/svg">
<path d="M29.0942 27.836C29.0942 30.1316 27.2364 32.0002 24.93 32.0002H5.07007C2.77443 32.0002 0.905884 30.1423 0.905884 27.836V10.6453C0.905884 8.34971 2.76375 6.48116 5.07007 6.48116H24.93C27.2257 6.48116 29.0942 8.33903 29.0942 10.6453V27.836Z" fill="#A18FA1"/>
<path d="M22.047 9.39611H7.95287C7.17447 9.39611 6.54346 10.0271 6.54346 10.8055C6.54346 11.5839 7.17447 12.2149 7.95287 12.2149H22.047C22.8254 12.2149 23.4565 11.5839 23.4565 10.8055C23.4565 10.0271 22.8254 9.39611 22.047 9.39611Z" fill="white"/>
<path d="M23.2858 4.0576C23.2645 1.79399 21.4173 -0.0211683 19.1537 0.000186508C17.2958 0.0215413 15.7369 1.2708 15.2564 2.9685C14.7439 1.28148 13.1636 0.0535725 11.3058 0.0642499C9.04216 0.0856047 7.227 1.9328 7.24836 4.19641C7.25903 5.44566 7.83561 6.56679 8.72184 7.30353C8.75387 7.34624 8.7859 7.38895 8.82861 7.43166L13.5373 13.0266C14.5731 14.2652 16.2494 14.2438 17.2744 12.9946L21.8871 7.31421C21.9938 7.18608 22.0793 7.04727 22.154 6.92982C22.8587 6.1824 23.2965 5.16805 23.2858 4.0576Z" fill="#DB4646"/>
<path d="M11.1136 1.12132C9.68278 1.40961 8.68979 2.54141 8.50827 3.97218C8.44421 4.52741 9.30908 4.51673 9.37314 3.97218C9.50127 2.91512 10.3234 2.1677 11.3378 1.96483C11.893 1.84738 11.6581 1.01454 11.1136 1.12132Z" fill="#E7AD84"/>
<path d="M19.6981 10.3623H11.2416C10.7227 10.3623 10.302 10.783 10.302 11.3019C10.302 11.8209 10.7227 12.2416 11.2416 12.2416H19.6981C20.217 12.2416 20.6377 11.8209 20.6377 11.3019C20.6377 10.783 20.217 10.3623 19.6981 10.3623Z" fill="white"/>
<path d="M18.7585 12.2416H11.2416C10.7227 12.2416 10.302 12.6622 10.302 13.1812C10.302 13.7001 10.7227 14.1208 11.2416 14.1208H18.7585C19.2774 14.1208 19.6981 13.7001 19.6981 13.1812C19.6981 12.6622 19.2774 12.2416 18.7585 12.2416Z" fill="#A18FA1"/>
</svg>
