<svg width="21" height="34" viewBox="0 0 21 34" fill="none" xmlns="http://www.w3.org/2000/svg">
<g clip-path="url(#clip0_1_8265)">
<path d="M36.4794 26.8337C35.0383 26.4568 29.2342 27.0802 24.1009 26.1862C18.9677 25.2922 6.22149 24.809 2.58895 26.1862C-1.04359 27.5634 -0.457218 30.3178 1.87834 30.6464C4.2139 30.9702 4.07973 34.7007 11.0268 33.8889C17.9738 33.0771 22.5207 30.4821 27.2912 31.3761C32.0617 32.2652 41.7319 28.2109 36.4794 26.8337Z" fill="#877373"/>
<path d="M15.5489 8.54831C15.5489 8.54831 16.5775 8.66428 16.6371 8.7271C16.6968 8.78992 16.6818 8.84791 16.5825 8.83825C16.4831 8.83341 15.5836 8.75127 15.5836 8.75127C15.5836 8.75127 16.7663 9.08953 16.826 9.13302C16.8607 9.15718 16.8409 9.26349 16.7862 9.26349C16.7315 9.26349 15.5389 8.99288 15.5389 8.99288C15.5389 8.99288 16.6421 9.31181 16.6769 9.36013C16.7117 9.40362 16.6669 9.50027 16.5825 9.48094C16.498 9.46161 15.4544 9.22483 15.4544 9.22483C15.4544 9.22483 16.2396 9.5051 16.2446 9.56792C16.2495 9.60658 16.2346 9.69839 16.0358 9.62108C15.8371 9.54376 15.3451 9.40362 15.3451 9.40362L15.5489 8.54831Z" fill="#EEA886"/>
<path d="M14.3313 8.5918C14.3313 8.5918 14.6742 8.61113 14.7786 8.442C14.868 8.29703 15.0867 8.16656 15.1513 8.1279C15.2407 8.07474 15.4594 7.8138 15.524 7.92011C15.5886 8.02642 15.186 8.36468 15.1115 8.45166C15.0419 8.53864 15.5339 8.50482 15.6233 8.56764C15.7128 8.63046 15.6631 9.42779 15.3252 9.40846C14.9873 9.39396 14.6494 9.15718 14.5897 9.16684C14.5301 9.17651 14.3413 9.16684 14.3413 9.16684L14.3313 8.5918Z" fill="#EEA886"/>
<path d="M14.4705 9.37946C14.4705 9.37946 11.9461 9.03637 11.3846 8.90107C11.1262 8.83825 10.7833 8.49032 10.4603 8.08441C10.3509 7.94911 10.2466 7.80897 10.1472 7.66883C9.74967 7.10829 9.43661 6.5719 9.43661 6.5719C9.43661 6.5719 8.2589 5.23336 9.20305 4.63416C9.20305 4.63416 9.49127 4.58583 9.67513 4.63899C10.2565 4.80329 10.7386 5.94854 10.8181 6.1225C10.9025 6.29646 11.7722 7.85729 11.8318 7.89595C11.8914 7.93461 12.6169 8.08924 13.0145 8.16656C13.5909 8.28253 14.6742 8.49999 14.6742 8.49999L14.4705 9.37946Z" fill="#E8734D"/>
<path d="M11.5983 25.7948C11.5983 25.7948 12.0207 26.2538 12.453 26.3505C12.8853 26.4471 13.1835 26.5679 13.1885 26.8337C13.1934 27.0995 11.9511 27.2735 11.4592 27.0077C10.7237 26.6114 10.6492 26.7322 10.5697 26.5293C10.4902 26.3312 10.669 25.7996 10.6641 25.7368C10.6492 25.6595 11.5983 25.7948 11.5983 25.7948Z" fill="#202338"/>
<path d="M11.5535 25.5725C11.5535 25.5725 11.6082 25.7899 11.6032 25.7948C11.5933 25.7996 10.6342 25.9108 10.664 25.7368C10.6889 25.5967 10.7236 25.442 10.7236 25.442L11.5535 25.5725Z" fill="#81807E"/>
<path d="M7.33963 25.9881C7.33963 25.9881 7.76202 26.4471 8.19435 26.5438C8.62667 26.6404 8.92483 26.7612 8.92979 27.027C8.93476 27.2928 7.69245 27.4667 7.2005 27.2009C6.46505 26.8047 6.39051 26.9255 6.311 26.7226C6.23149 26.5244 6.41038 25.9929 6.40541 25.9301C6.39051 25.8528 7.33963 25.9881 7.33963 25.9881Z" fill="#202338"/>
<path d="M7.28995 25.7706C7.28995 25.7706 7.34462 25.988 7.33965 25.9929C7.32971 25.9977 6.37064 26.1088 6.40046 25.9349C6.42531 25.7948 6.46009 25.6401 6.46009 25.6401L7.28995 25.7706Z" fill="#81807E"/>
<path d="M10.6789 12.6654C10.6789 12.6654 11.0268 15.9659 11.2106 17.0966C11.4243 18.4207 11.4939 19.5128 11.5535 20.1941C11.6281 21.0543 11.643 25.2874 11.6927 25.5387C11.7473 25.7899 10.5348 25.6063 10.5348 25.6063C10.5348 25.6063 9.64533 20.1217 9.42171 19.2035C9.213 18.3482 8.74092 14.6322 8.55209 14.8641C8.36325 15.0961 8.33841 19.1552 8.19927 19.8269C8.06013 20.4986 7.42903 25.7658 7.42903 25.7658C7.42903 25.7658 6.46499 25.9542 6.21156 25.7416C6.21156 25.7416 6.09726 21.1993 6.18174 19.938C6.21653 19.4596 5.60034 14.1731 6.39045 12.0469C6.8029 10.9306 10.6789 12.6654 10.6789 12.6654Z" fill="#292C47"/>
<path d="M10.6293 12.1097L10.6989 12.7186C10.6989 12.7186 9.38697 13.313 6.03768 13.6609L6.02774 13.11L10.6293 12.1097Z" fill="#C46141"/>
<path d="M8.20923 4.49402C8.20923 4.49402 8.62168 4.54717 9.58074 4.61966C9.7497 4.73563 10.2814 6.08384 10.3361 6.4366C10.3907 6.78936 10.4205 8.17622 10.3261 8.74643C10.2317 9.31181 10.9324 11.8294 10.6889 12.245C10.6889 12.245 8.31855 13.2018 5.92338 13.1487C5.92338 13.1487 5.94822 10.8485 5.76933 10.1043C5.54074 9.14751 5.00406 6.94882 5.00406 6.94882C5.00406 6.94882 4.81026 5.21886 5.05872 5.09805C5.61528 4.81778 6.97189 4.59066 6.97189 4.59066L8.20923 4.49402Z" fill="#E8734D"/>
<path d="M8.7658 4.55685C8.7658 4.55685 8.80059 4.23309 7.77195 4.26691C6.73835 4.30074 6.07247 4.59551 6.08737 4.88545C6.09731 5.17055 8.79065 5.61512 8.79065 5.61512L8.7658 4.55685Z" fill="#E8734D"/>
<path d="M7.31975 0.951943C7.31975 0.951943 8.7012 0.285086 8.8155 2.15035C8.92979 4.01562 8.61672 4.24273 7.64275 4.07844C6.66877 3.91897 6.46006 2.75439 6.2762 2.20351C6.08737 1.65746 6.86257 1.08241 7.31975 0.951943Z" fill="#EEA987"/>
<path d="M8.48254 4.76464C8.48254 4.76464 8.15457 4.94827 6.98183 4.58584C6.98183 4.58584 6.93214 3.83684 6.63398 3.16032C6.33583 2.4838 8.23905 3.93348 8.23905 3.93348C8.22414 3.94798 8.22414 4.01563 8.24899 4.11228C8.26887 4.19443 8.29868 4.29591 8.33843 4.39739C8.42291 4.61967 8.40304 4.58101 8.48254 4.76464Z" fill="#EEA987"/>
<path d="M6.57438 3.10715C6.57438 3.10715 6.51475 2.60943 6.72345 2.54177C6.93216 2.47412 7.0713 2.74956 7.0713 2.74956L7.24026 2.72057C7.24026 2.72057 7.03155 2.23251 7.22038 2.0972C7.40921 1.9619 8.63165 1.93774 8.76582 1.74928C8.89999 1.56082 8.56705 0.579863 8.22914 0.517043C7.88626 0.454223 6.96198 0.347913 6.44518 0.903627C6.44518 0.903627 5.97807 1.15974 5.99794 1.55599C6.02279 1.95707 6.37064 2.85587 6.57438 3.10715Z" fill="#3B3B40"/>
<path d="M8.3335 4.39254C7.2005 4.32489 6.96695 3.72569 6.96198 3.72086C7.45394 4.21858 8.24902 4.11227 8.24902 4.11227C8.26393 4.19442 8.29374 4.2959 8.3335 4.39254Z" fill="#A77860"/>
<path d="M6.94204 2.30982C6.86254 2.15518 6.50477 2.21317 6.56936 2.46445C6.63396 2.72056 6.97683 3.08782 7.08614 3.00084C7.19546 2.91385 7.05136 2.52244 6.94204 2.30982Z" fill="#EEA987"/>
<path d="M5.31713 13.975C5.31713 13.975 5.25253 13.8735 5.24259 13.8155C5.24259 13.8155 5.23762 13.7092 5.23265 13.6319C5.22768 13.6077 5.22769 13.5884 5.22272 13.5739C5.20781 13.5159 5.16308 13.3999 5.16805 13.2598C5.17302 13.1197 5.24756 12.6171 5.24756 12.6171L5.6948 12.6026L6.0675 12.4866C6.0675 12.4866 6.49983 13.2405 6.50977 13.3758C6.50977 13.3903 6.50977 13.3999 6.50977 13.4144C6.5048 13.5256 6.4551 13.6126 6.44517 13.6706C6.4402 13.6947 6.39547 13.9073 6.33584 13.9363C6.25136 13.9798 6.17682 13.975 6.12216 13.946C6.12216 13.946 5.95817 14.0233 5.83394 13.9895C5.83394 13.9895 5.68486 14.062 5.54572 13.9847C5.55069 13.9847 5.3867 14.0426 5.31713 13.975Z" fill="#EFAA88"/>
<path d="M5.63015 4.98209C5.78917 5.01109 6.01278 5.33485 6.01775 6.03553C6.02769 6.78937 5.83886 7.14696 5.76929 7.33542C5.69972 7.52388 5.29224 8.77544 5.32703 8.94457C5.41647 9.38431 5.62021 10.5489 5.65003 10.6359C5.70469 10.7857 6.12708 12.5205 6.12708 12.5205L5.19286 12.9215C5.19286 12.9215 4.66114 10.9693 4.46237 10.3894C4.38287 10.1575 4.18907 9.50995 4.15428 8.84309C4.1195 8.19556 4.33317 6.71688 4.37293 6.59608C4.41268 6.47527 4.58164 4.78397 5.63015 4.98209Z" fill="#E8734D"/>
<path d="M10.6095 8.21974C10.6095 8.21974 10.2765 7.82832 10.2219 7.77034C10.1672 7.71235 9.95353 7.6592 9.70009 7.61571C9.44665 7.57222 9.08389 7.6302 9.05407 7.6592C9.02425 7.69302 8.97953 7.70752 8.95965 7.81866C8.94474 7.9298 8.98947 8.03128 8.98947 8.03128C8.98947 8.03128 8.90499 8.15692 8.97456 8.27772C8.97456 8.27772 8.90002 8.39853 8.99941 8.52417C8.99941 8.52417 8.92983 8.64498 9.00934 8.72712C9.00934 8.72712 9.22303 8.78028 9.29757 8.82377C9.37211 8.86726 9.95353 8.94458 10.4057 8.95907C10.4107 8.95907 10.7188 8.8431 10.6095 8.21974Z" fill="#EEA886"/>
<path d="M9.35217 27.2155L9.14841 27.2203L9.49629 6.2868H9.69507L9.35217 27.2155Z" fill="#8A664D"/>
<path d="M10.2069 8.98324C10.2069 8.98324 10.5448 9.04123 10.7337 9.03157C10.9225 9.02673 10.5299 8.46619 10.5299 8.46619L10.2069 8.98324Z" fill="#EEA886"/>
<path d="M9.12359 7.66885C9.12359 7.66885 9.76462 7.78966 9.75469 7.89114C9.74972 7.99262 9.68015 8.02644 9.68015 8.02644L9.91867 8.19074C9.91867 8.19074 10.0131 8.38887 9.76462 8.43236C9.76462 8.43236 9.87395 8.60632 9.63045 8.62081C9.63045 8.62081 9.65033 8.76578 9.53604 8.79478C9.42174 8.81894 9.01426 8.72713 9.01426 8.72713C9.01426 8.72713 8.91488 8.66914 8.97948 8.51934C8.97948 8.51934 8.87015 8.41303 8.94966 8.27772C8.94966 8.27772 8.88506 8.17624 8.96954 8.03128C8.96954 8.03128 8.85524 7.78 9.05402 7.65436C9.05402 7.65919 9.09377 7.66402 9.12359 7.66885Z" fill="#DB9C7C"/>
<path d="M10.202 7.7655C10.202 7.7655 9.77463 7.88631 9.57089 8.0506C9.52617 8.08926 9.48641 8.13275 9.50629 8.19074C9.52617 8.24872 9.63052 8.29221 9.81935 8.24872C10.0082 8.20523 10.2716 8.23423 10.2716 8.23423C10.2716 8.23423 10.4504 8.13275 10.202 7.7655Z" fill="#EEA886"/>
<path d="M21.8996 9.45678C21.8996 9.45678 19.415 9.11852 18.8684 8.98805C18.6149 8.92523 18.277 8.58697 17.959 8.18106C17.8546 8.05059 17.7503 7.91045 17.6509 7.77031C17.2583 7.21943 16.9552 6.69271 16.9552 6.69271C16.9552 6.69271 15.7973 5.3735 16.7266 4.78879C16.7266 4.78879 17.0098 4.74047 17.1887 4.79362C17.7602 4.95309 18.2323 6.07901 18.3118 6.25297C18.3913 6.42694 19.246 7.95877 19.3057 7.99743C19.3653 8.03126 20.0759 8.18589 20.4685 8.26321C21.035 8.37918 22.0984 8.5918 22.0984 8.5918L21.8996 9.45678Z" fill="#FF935C"/>
<path d="M14.3562 11.3027C14.3562 11.3027 13.7053 12.1242 13.5313 13.1004C13.3524 14.0765 13.3624 17.4349 13.3574 17.9181C13.3475 18.4014 13.2381 20.2521 13.3276 21.1606C13.422 22.0691 13.8046 25.9349 13.8046 25.9349L14.8929 25.8576C14.8929 25.8576 14.9625 21.5569 15.0221 21.1751C15.0817 20.7934 15.2706 19.1552 15.2954 18.9957C15.3203 18.8411 16.3688 14.4582 16.3688 13.7527C16.3638 13.0569 15.9265 10.1575 14.3562 11.3027Z" fill="#3C3F66"/>
<path d="M17.6261 11.6265C17.6261 11.6265 18.6945 15.5938 18.8237 16.1447C18.9529 16.6956 19.1367 17.1498 19.1367 17.3818C19.1367 17.923 18.928 18.7928 18.928 18.7928L17.477 25.2826L16.4036 25.4034C16.4036 25.4034 16.6272 21.4264 16.6471 20.6871C16.667 19.9429 16.7763 18.6382 16.662 18.3241C16.5477 18.01 15.6483 14.5307 15.6483 14.5307C15.6483 14.5307 14.3314 10.4716 17.6261 11.6265Z" fill="#3C3F66"/>
<path d="M16.4185 4.58101C16.4185 4.58101 16.99 4.84195 17.1887 4.88061C17.3875 4.91927 18.1577 5.89056 18.2919 6.24332C18.4261 6.59607 18.2919 7.13246 18.0136 7.75583C17.7354 8.37919 17.9987 8.58698 17.8695 9.21518C17.7403 9.83854 17.7403 11.5443 17.7652 11.8874C17.79 12.2354 14.2867 13.1003 13.5512 12.4673C13.5512 12.4673 14.0432 10.7953 14.4457 9.94485C14.5252 9.78056 14.565 9.05571 14.4755 8.83826C14.3861 8.62081 13.4071 7.01165 13.4071 7.01165C13.4071 7.01165 13.2034 5.4025 13.6307 5.07873C14.0034 4.79846 15.1513 4.66799 15.3302 4.61C15.5141 4.55202 16.0458 4.52785 16.4185 4.58101Z" fill="#EDDAD3"/>
<path d="M13.5463 12.4721C14.2817 13.1052 18.0932 12.535 18.0683 12.1919C18.0435 11.8439 17.8397 10.6214 17.8994 9.98352C17.9689 9.18619 17.9093 8.65464 18.0981 7.99744C18.3217 7.22911 18.4211 6.60091 18.287 6.24815C18.1528 5.8954 17.467 4.88062 17.2683 4.82746C17.0844 4.77914 16.4135 4.58101 16.4135 4.58101C16.0408 4.52786 15.5091 4.55202 15.3253 4.61484C15.2408 4.64383 14.9526 4.68732 14.6345 4.75014C14.5302 4.76947 14.4258 4.79363 14.3165 4.8178C14.0382 4.88545 13.7699 4.97243 13.6258 5.08357C13.1984 5.40733 13.4022 7.01649 13.4022 7.01649C13.4022 7.01649 13.7152 8.65464 13.7649 9.09921C13.7898 9.33116 13.8246 9.7274 13.7798 10.2831C13.7798 10.288 13.6208 12.187 13.5463 12.4721Z" fill="#FF935C"/>
<path d="M16.6868 3.93832C16.6868 3.93832 16.5725 4.95794 16.5973 5.28653C16.5973 5.28653 16.006 5.86641 15.3302 4.61001C15.3302 4.61001 15.6134 4.09296 15.3997 3.38744C15.186 2.69159 16.6868 3.93832 16.6868 3.93832Z" fill="#EEA886"/>
<path d="M16.7614 25.355C16.7614 25.355 16.995 25.1521 17.1092 25.1279C17.2235 25.1038 17.3378 25.1086 17.3826 25.1617C17.4323 25.2149 17.5714 25.4275 17.6509 25.4952C17.7254 25.5628 18.2721 26.075 18.4013 26.1089C18.5305 26.1427 19.087 26.1137 19.0572 26.4326C19.0274 26.7467 18.5752 26.8869 17.7652 26.8144C16.9552 26.7419 17.0546 26.5583 16.6024 26.4616C16.1502 26.365 16.1204 26.1475 16.1999 25.8769C16.2794 25.6111 16.6024 25.3405 16.5676 25.2729C16.5328 25.2004 16.7614 25.355 16.7614 25.355Z" fill="#4183BA"/>
<path d="M14.237 25.8624C14.237 25.8624 14.4954 25.7464 14.6693 25.7561C14.8433 25.7609 14.8234 25.8624 14.8681 25.9252C14.9128 25.9881 15.3153 26.5824 15.4247 26.6936C15.534 26.7999 15.9265 26.9158 15.8719 27.1816C15.8172 27.4522 15.3203 27.5585 14.7041 27.4812C14.0879 27.4039 13.7898 26.8482 13.6904 26.7226C13.591 26.5969 13.924 25.7899 14.0233 25.7319C14.1178 25.6788 14.237 25.8624 14.237 25.8624Z" fill="#4183BA"/>
<path d="M13.9438 4.99177C13.9438 4.99177 14.5997 5.35419 14.55 6.11286C14.4954 6.98267 14.2916 7.25811 14.1624 7.6157C14.0084 8.02644 13.8494 8.48551 13.8096 8.58216C13.7748 8.6788 13.591 9.83855 13.1537 10.0657C12.7164 10.2928 10.197 9.1572 10.1175 9.09921C10.0181 9.02673 10.5746 8.16658 10.5746 8.16658C10.5746 8.16658 11.5536 8.59182 11.8517 8.7078C12.4779 8.94941 12.5574 8.44685 12.6369 8.25839C12.8406 7.77517 12.7909 7.4804 12.8207 7.26294C12.8555 7.05032 13.0096 4.89512 13.9438 4.99177Z" fill="#FF935C"/>
<path d="M17.8993 12.3369L17.9341 12.7573C17.9341 12.7573 15.9364 13.4724 13.5313 13.1004C13.5313 13.1004 13.5562 12.8056 13.6804 12.5543C13.6804 12.5591 15.1066 13.1149 17.8993 12.3369Z" fill="#FF935C"/>
<path d="M16.642 4.4167C16.642 4.4167 17.0247 4.48435 17.0495 4.72597C17.0744 4.96275 17.1787 5.40249 16.4383 5.4943C15.6929 5.58612 14.8978 5.15121 14.9475 4.84194C15.0022 4.53267 15.1612 4.28622 15.3302 4.28622C15.4991 4.28622 15.4444 4.28622 15.4444 4.28622C15.4444 4.28622 15.8271 4.68247 16.642 4.4167Z" fill="#3C3F66"/>
<path d="M15.7327 5.44116C15.7327 5.44116 14.878 6.63957 12.5971 6.14667C10.3211 5.64895 9.47139 6.49943 9.47139 6.49943L9.97329 5.84224L9.21796 5.78908C9.21796 5.78908 10.346 4.61484 12.8356 5.20921C15.3202 5.80358 15.1761 4.76947 15.1761 4.76947L15.7327 5.44116Z" fill="#3C3F66"/>
<path d="M14.6097 0.734504C14.719 1.01478 15.042 1.15974 15.3302 1.05343C15.6184 0.947124 15.7675 0.633026 15.6582 0.352753C15.5489 0.0724799 15.2259 -0.0724888 14.9376 0.0338216C14.6494 0.140132 14.5003 0.454231 14.6097 0.734504Z" fill="#4183BA"/>
<path d="M15.6929 0.985771C16.011 0.879461 17.1738 0.628181 17.4322 2.07304C17.6906 3.52272 16.8607 4.54234 16.1054 4.26207C15.3501 3.98179 14.8979 2.97668 14.8631 2.21317C14.8333 1.44967 15.2954 1.11624 15.6929 0.985771Z" fill="#EEA886"/>
<path d="M17.467 2.27601C17.467 2.27601 16.6024 1.8846 14.883 3.00569C14.883 3.00569 14.0233 1.98124 14.6445 0.971295C15.2656 -0.0434858 17.4323 0.357594 17.467 2.27601Z" fill="#4183BA"/>
<path d="M16.6073 4.26691C16.6073 4.26691 16.2098 4.49403 15.5787 3.89966C15.5787 3.89966 15.8669 4.46987 16.2545 4.44087C16.6421 4.41671 16.6073 4.26691 16.6073 4.26691Z" fill="#A77860"/>
<path d="M16.8657 2.21802C16.8657 2.21802 16.016 2.45963 15.9414 2.84138C15.8669 3.22796 15.5936 4.38771 15.0718 4.17026C14.55 3.95281 14.878 3.00568 14.878 3.00568C14.878 3.00568 15.4594 2.40164 16.8657 2.21802Z" fill="#3B3B40"/>
</g>
<defs>
<clipPath id="clip0_1_8265">
<rect width="38" height="34" fill="white" transform="matrix(-1 0 0 1 38 0)"/>
</clipPath>
</defs>
</svg>
