<svg width="42" height="28" viewBox="0 0 42 28" fill="none" xmlns="http://www.w3.org/2000/svg">
<g clip-path="url(#clip0_1_8245)">
<path d="M1.4 15.7073H0.7C0.28 15.7073 0 15.4341 0 15.0244V12.2927H1.4V14.0683L16.1 0L17.08 0.956098L1.89 15.5024C1.75 15.639 1.61 15.7073 1.4 15.7073Z" fill="#E7B900"/>
<path d="M41.3 15.7073H40.6C40.39 15.7073 40.25 15.639 40.11 15.5024L24.92 0.956098L25.9 0L40.6 14.0683V12.2927H42V15.0244C42 15.4341 41.72 15.7073 41.3 15.7073Z" fill="#E7B900"/>
<path d="M16.8 15.0244V8.87804L25.2 0.682922H25.9L34.3 8.87804V15.0244H16.8Z" fill="#F40E34"/>
<path d="M16.8 8.87804L25.2 0.682922H16.1L7.69995 8.87804H16.8Z" fill="#5AAAE7"/>
<path d="M25.2 4.78049L21 15.0244H19.6V9.56097L24.5 4.78049H25.2Z" fill="#FFD422"/>
<path d="M25.9 4.78049L30.1 15.0244H31.5V9.56097L26.6 4.78049H25.9Z" fill="#FFD422"/>
<path d="M24.5 21.1707V22.5366L23.1 25.2683H18.9L17.5 22.5366V21.1707H18.9V19.8049L21 17.7561L23.1 19.8049V21.1707H24.5Z" fill="#FFD422"/>
<path d="M21.7 22.5366H20.3V25.2683H21.7V22.5366Z" fill="#F40E34"/>
<path d="M31.5 28H21V25.2683H31.5C30.73 25.2683 30.1 25.8829 30.1 26.6341C30.1 27.3854 30.73 28 31.5 28Z" fill="#693B00"/>
<path d="M21 25.2683V28H10.5C11.27 28 11.9 27.3854 11.9 26.6341C11.9 25.8829 11.27 25.2683 10.5 25.2683H21Z" fill="#693B00"/>
<path d="M31.5 28C32.2732 28 32.9 27.3885 32.9 26.6341C32.9 25.8798 32.2732 25.2683 31.5 25.2683C30.7268 25.2683 30.1 25.8798 30.1 26.6341C30.1 27.3885 30.7268 28 31.5 28Z" fill="#884D00"/>
<path d="M10.5 28C11.2732 28 11.9 27.3885 11.9 26.6341C11.9 25.8798 11.2732 25.2683 10.5 25.2683C9.72678 25.2683 9.09998 25.8798 9.09998 26.6341C9.09998 27.3885 9.72678 28 10.5 28Z" fill="#884D00"/>
<path d="M14.7 15.0244H13.3V12.2927H11.2V15.0244H9.80005V11.6097C9.80005 11.2 10.08 10.9268 10.5 10.9268H14C14.42 10.9268 14.7 11.2 14.7 11.6097V15.0244Z" fill="black"/>
<path d="M16.8 8.87805H7.69995V15.0244H16.8V8.87805Z" fill="#1E81CE"/>
<path d="M21 15.0244H30.1L25.9 4.78049H25.2L21 15.0244Z" fill="#FF9811"/>
</g>
<defs>
<clipPath id="clip0_1_8245">
<rect width="42" height="28" fill="white"/>
</clipPath>
</defs>
</svg>
