<svg width="40" height="32" viewBox="0 0 40 32" fill="none" xmlns="http://www.w3.org/2000/svg">
<path d="M17.7691 18.125C18.0822 15.8942 18.2387 13.4736 17.816 12.0813C17.816 12.0813 17.9569 15.3088 16.8767 18.1408L17.7691 18.125Z" fill="#079840"/>
<path d="M16.5167 18.1565L17.7065 18.1249C17.9414 13.0779 16.8142 10.9579 16.8142 10.9579C17.3621 13.5051 16.9707 16.2263 16.5167 18.1565Z" fill="#36B947"/>
<path d="M16.548 18.1566L17.2525 18.1408C17.9883 14.3121 16.2192 12.6508 16.2192 12.6508C16.9864 14.7392 17.0646 16.7485 16.548 18.1566Z" fill="#079840"/>
<path d="M20.5558 18.0616C20.2114 16.2738 20.1488 14.0431 20.5245 11.9863C20.5245 11.9863 19.3347 14.0905 19.7887 18.0774L20.5558 18.0616Z" fill="#079840"/>
<path d="M16.3914 18.1565C16.2975 16.6219 15.8748 14.8183 14.9354 13.1254C14.9354 13.1254 16.9237 13.9639 16.8454 18.1565H16.3914Z" fill="#36B947"/>
<path d="M20.6811 18.0617C20.7437 16.5271 21.1194 14.7076 22.0431 12.9673C22.0431 12.9673 19.8356 13.9008 19.9922 18.0775L20.6811 18.0617Z" fill="#36B947"/>
<path d="M20.3523 18.0775C19.1312 15.0399 19.5226 11.8598 19.5226 11.8598C19.0059 13.8058 18.8963 15.7044 19.319 18.0933L20.3523 18.0775Z" fill="#36B947"/>
<path d="M18.5675 18.1091C18.3327 16.6219 18.1761 15.198 18.4736 13.4102C18.4736 13.4102 17.7847 15.7834 17.8787 18.1249L18.5675 18.1091Z" fill="#36B947"/>
<path d="M19.4443 18.0933C19.1312 16.3846 18.6302 12.9831 18.9747 10.8156C18.9747 10.8156 18.2232 14.0431 18.7085 18.1091L19.4443 18.0933Z" fill="#079840"/>
<path d="M19.0059 18.1091C18.5832 16.5112 18.8494 14.8975 19.0686 13.6951C19.0686 13.6951 18.004 15.736 18.2701 18.125L19.0059 18.1091Z" fill="#36B947"/>
<path d="M18.6459 18.1091C18.1449 16.9542 17.5656 15.2139 17.6752 13.7109C17.6752 13.7109 17.2838 15.5145 17.7222 18.125L18.6459 18.1091Z" fill="#36B947"/>
<path d="M21.8865 17.6506C22.1996 15.4198 22.3562 12.9992 21.9335 11.6069C21.9335 11.6069 22.0744 14.8344 20.9941 17.6664L21.8865 17.6506Z" fill="#079840"/>
<path d="M20.634 17.682L21.8239 17.6503C22.0587 12.6034 20.9315 10.4834 20.9315 10.4834C21.4794 13.0306 21.088 15.7518 20.634 17.682Z" fill="#36B947"/>
<path d="M20.6653 17.6821L21.3698 17.6663C22.1056 13.8376 20.3365 12.1764 20.3365 12.1764C21.1037 14.2647 21.1819 16.274 20.6653 17.6821Z" fill="#079840"/>
<path d="M24.6889 17.5871C24.3445 15.7993 24.2818 13.5685 24.6576 11.5118C24.6576 11.5118 23.4678 13.616 23.9218 17.6029L24.6889 17.5871Z" fill="#079840"/>
<path d="M20.5088 17.682C20.4149 16.1474 19.9922 14.3438 19.0529 12.6509C19.0529 12.6509 21.0411 13.4894 20.9628 17.682H20.5088Z" fill="#36B947"/>
<path d="M24.7985 17.5872C24.8611 16.0525 25.2368 14.2331 26.1605 12.4928C26.1605 12.4928 23.9531 13.4262 24.1096 17.603L24.7985 17.5872Z" fill="#36B947"/>
<path d="M24.4696 17.5872C23.2485 14.5496 23.6399 11.3695 23.6399 11.3695C23.1232 13.3155 23.0136 15.2141 23.4364 17.603L24.4696 17.5872Z" fill="#36B947"/>
<path d="M22.7006 17.6347C22.4657 16.1475 22.3092 14.7236 22.6066 12.9359C22.6066 12.9359 21.9178 15.309 22.0117 17.6505L22.7006 17.6347Z" fill="#36B947"/>
<path d="M23.5617 17.6188C23.2485 15.9101 22.7476 12.5086 23.092 10.3411C23.092 10.3411 22.3405 13.5686 22.8258 17.6346L23.5617 17.6188Z" fill="#079840"/>
<path d="M23.1234 17.6187C22.7007 16.0208 22.9668 14.4071 23.186 13.2047C23.186 13.2047 22.1214 15.2456 22.3876 17.6346L23.1234 17.6187Z" fill="#36B947"/>
<path d="M22.8414 17.8245C22.3405 16.6696 21.6829 14.7394 21.8082 13.2364C21.8082 13.2364 21.4168 15.04 21.8551 17.6505L22.8414 17.8245Z" fill="#36B947"/>
<path d="M30.9197 18.8371C31.6555 16.6854 32.2504 14.3597 32.0626 12.9041C32.0626 12.9041 31.6242 16.0842 29.9647 18.6156L30.9197 18.8371Z" fill="#079840"/>
<path d="M29.589 18.5048L30.8571 18.8212C32.0313 13.9008 31.2485 11.5118 31.2485 11.5118C31.3424 14.1223 30.45 16.6853 29.589 18.5048Z" fill="#36B947"/>
<path d="M29.6205 18.5049L30.372 18.6948C31.8436 15.1034 30.325 12.9359 30.325 12.9359C30.732 15.2141 30.4502 17.2234 29.6205 18.5049Z" fill="#079840"/>
<path d="M33.8317 19.549C33.7848 17.6663 34.0822 15.483 34.8024 13.6319C34.8024 13.6319 33.2681 15.2931 33.049 19.3592L33.8317 19.549Z" fill="#079840"/>
<path d="M29.4639 18.4731C29.6674 16.891 29.5735 14.9608 28.9003 12.999C28.9003 12.999 30.8259 14.4387 29.9492 18.5997L29.4639 18.4731Z" fill="#36B947"/>
<path d="M33.9413 19.5807C34.2544 18.0777 34.9433 16.4007 36.1174 14.9926C36.1174 14.9926 33.7848 15.2299 33.2368 19.4067L33.9413 19.5807Z" fill="#36B947"/>
<path d="M33.6126 19.5015C32.8924 16.1316 33.8317 13.2047 33.8317 13.2047C32.9863 14.9134 32.548 16.7328 32.5636 19.2483L33.6126 19.5015Z" fill="#36B947"/>
<path d="M31.7651 19.0427C31.7808 17.4765 31.8747 16.0209 32.5009 14.3755C32.5009 14.3755 31.3737 16.4955 31.0293 18.8687L31.7651 19.0427Z" fill="#36B947"/>
<path d="M32.6732 19.2641C32.6576 17.4605 32.7202 13.9956 33.456 12.0497C33.456 12.0497 32.1409 14.9133 31.9218 19.0742L32.6732 19.2641Z" fill="#079840"/>
<path d="M32.2192 19.1534C32.0626 17.4289 32.6262 15.9101 33.0489 14.8185C33.0489 14.8185 31.6086 16.4955 31.4364 18.9636L32.2192 19.1534Z" fill="#36B947"/>
<path d="M31.8591 19.0585C31.5616 17.7612 31.2642 15.8468 31.6555 14.4229C31.6555 14.4229 30.9197 16.0683 30.8884 18.8212L31.8591 19.0585Z" fill="#36B947"/>
<path d="M34.8337 20.4983C35.5069 18.2675 36.0548 15.8152 35.8826 14.2648C35.8826 14.2648 35.4912 17.6188 33.9883 20.1344L34.8337 20.4983Z" fill="#079840"/>
<path d="M33.6753 19.992L34.7868 20.4666C35.8514 15.3089 35.1469 12.8567 35.1469 12.8567C35.2252 15.5462 34.4268 18.1725 33.6753 19.992Z" fill="#36B947"/>
<path d="M33.6908 20.0077L34.3327 20.2925C35.6791 16.5903 34.317 14.3279 34.317 14.3279C34.6771 16.6536 34.411 18.742 33.6908 20.0077Z" fill="#079840"/>
<path d="M37.6205 21.7006C37.5578 19.549 37.8396 17.0967 38.5441 15.0716C38.5441 15.0716 37.0099 16.8594 36.822 21.3684L37.6205 21.7006Z" fill="#079840"/>
<path d="M33.5656 19.9443C33.7535 18.3306 33.6909 16.353 33.1429 14.3911C33.1429 14.3911 34.7555 15.8625 33.9727 20.1342L33.5656 19.9443Z" fill="#36B947"/>
<path d="M37.7456 21.748C38.0588 20.0552 38.7476 18.2041 40 16.6536C40 16.6536 37.5421 16.8118 37.0411 21.4474L37.7456 21.748Z" fill="#36B947"/>
<path d="M37.4169 21.6059C36.6811 17.7614 37.5734 14.5813 37.5734 14.5813C36.7593 16.4324 36.3366 18.3784 36.368 21.1629L37.4169 21.6059Z" fill="#36B947"/>
<path d="M35.6164 20.8305C35.6321 19.1218 35.726 17.5713 36.3053 15.831C36.3053 15.831 35.2563 18.0459 34.9432 20.5299L35.6164 20.8305Z" fill="#36B947"/>
<path d="M36.4619 21.1944C36.4305 19.1851 36.4932 15.4197 37.182 13.3313C37.182 13.3313 35.9452 16.369 35.7417 20.878L36.4619 21.1944Z" fill="#079840"/>
<path d="M36.0393 21.0044C35.8827 19.0901 36.4307 17.4921 36.8221 16.3214C36.8221 16.3214 35.4757 18.0459 35.3035 20.688L36.0393 21.0044Z" fill="#36B947"/>
<path d="M35.6947 20.8621C35.4129 19.4065 35.1468 17.3498 35.5069 15.8626C35.5069 15.8626 34.8493 17.5555 34.8024 20.4824L35.6947 20.8621Z" fill="#36B947"/>
<path d="M24.9706 17.6661C25.2681 15.3721 25.409 12.9356 24.9393 11.575C24.9393 11.575 25.1272 14.7867 24 17.7136L24.9706 17.6661Z" fill="#079840"/>
<path d="M23.6086 17.7136L24.9081 17.6661C25.0959 12.5559 23.8748 10.4517 23.8748 10.4517C24.4697 12.9673 24.094 15.7043 23.6086 17.7136Z" fill="#36B947"/>
<path d="M23.6398 17.7138L24.4069 17.6822C25.1584 13.7744 23.2484 12.0815 23.2484 12.0815C24.0938 14.2016 24.2034 16.2425 23.6398 17.7138Z" fill="#079840"/>
<path d="M27.9296 17.5554C27.5226 15.736 27.3973 13.521 27.7261 11.5276C27.7261 11.5276 26.5519 13.5685 27.1312 17.5871L27.9296 17.5554Z" fill="#079840"/>
<path d="M23.4834 17.7295C23.3738 16.1316 22.9041 14.2805 21.8708 12.556C21.8708 12.556 24.0157 13.4103 23.9687 17.7137L23.4834 17.7295Z" fill="#36B947"/>
<path d="M28.0548 17.5555C28.0704 16.005 28.4149 14.1856 29.2759 12.4927C29.2759 12.4927 27.0528 13.3787 27.3346 17.5871L28.0548 17.5555Z" fill="#36B947"/>
<path d="M27.7261 17.5713C26.3797 14.502 26.7241 11.3853 26.7241 11.3853C26.2388 13.2838 26.1605 15.1823 26.6615 17.6188L27.7261 17.5713Z" fill="#36B947"/>
<path d="M25.8316 17.6346C25.5498 16.0999 25.362 14.676 25.6438 12.8882C25.6438 12.8882 24.9549 15.2614 25.0802 17.6662L25.8316 17.6346Z" fill="#36B947"/>
<path d="M26.7554 17.6029C26.3953 15.8468 25.7847 12.4611 26.1135 10.3569C26.1135 10.3569 25.3933 13.5053 25.9726 17.6188L26.7554 17.6029Z" fill="#079840"/>
<path d="M26.3013 17.6188C25.816 15.9734 26.0821 14.3597 26.27 13.1731C26.27 13.1731 25.1898 15.1982 25.5029 17.6505L26.3013 17.6188Z" fill="#36B947"/>
<path d="M25.9256 17.6346C25.3777 16.4481 24.7201 14.6919 24.8297 13.1731C24.8297 13.1731 24.4383 14.9767 24.9393 17.6663L25.9256 17.6346Z" fill="#36B947"/>
<path d="M29.1036 18.1884C29.3228 15.831 29.3854 13.2838 28.9314 11.8283C28.9314 11.8283 29.1976 15.1982 28.2269 18.0618L29.1036 18.1884Z" fill="#079840"/>
<path d="M27.8669 18.0302L29.0411 18.1884C29.0881 12.8725 27.9296 10.6734 27.9296 10.6734C28.5245 13.2681 28.2427 16.0526 27.8669 18.0302Z" fill="#36B947"/>
<path d="M27.8982 18.0303L28.5714 18.1252C29.1663 14.1542 27.4128 12.3189 27.4128 12.3189C28.2113 14.4864 28.3522 16.6064 27.8982 18.0303Z" fill="#079840"/>
<path d="M32.0469 18.5841C31.5772 16.5116 31.3737 14.0593 31.6712 11.876C31.6712 11.876 30.5283 14.0435 31.2172 18.4734L32.0469 18.5841Z" fill="#079840"/>
<path d="M27.7573 18.0145C27.6321 16.4007 27.178 14.4864 26.27 12.7302C26.27 12.7302 28.1174 13.7111 28.18 18.0778L27.7573 18.0145Z" fill="#36B947"/>
<path d="M32.1721 18.5999C32.1408 16.8596 32.4696 14.8661 33.3776 13.0151C33.3776 13.0151 31.0136 13.8694 31.4207 18.505L32.1721 18.5999Z" fill="#36B947"/>
<path d="M31.8277 18.5524C30.3717 15.0084 30.6222 11.6702 30.6222 11.6702C30.1839 13.6953 30.1526 15.7046 30.7162 18.41L31.8277 18.5524Z" fill="#36B947"/>
<path d="M29.9177 18.2991C29.6046 16.6379 29.4011 15.1033 29.6202 13.2522C29.6202 13.2522 29.0253 15.6887 29.2132 18.2042L29.9177 18.2991Z" fill="#36B947"/>
<path d="M30.8257 18.4258C30.4187 16.4798 29.7455 12.8093 30.0116 10.5786C30.0116 10.5786 29.4011 13.8852 30.0586 18.3151L30.8257 18.4258Z" fill="#079840"/>
<path d="M30.3717 18.3625C29.8551 16.543 30.0743 14.8344 30.2308 13.5845C30.2308 13.5845 29.2445 15.6412 29.6046 18.2517L30.3717 18.3625Z" fill="#36B947"/>
<path d="M29.996 18.315C29.4481 16.9861 28.7905 15.0559 28.8532 13.5054C28.8532 13.5054 28.5401 15.3407 29.0567 18.1885L29.996 18.315Z" fill="#36B947"/>
<path d="M15.3582 18.0144C14.9042 15.752 14.6067 13.3472 14.9825 11.9391C14.9825 11.9391 14.9981 15.1667 16.3289 17.967L15.3582 18.0144Z" fill="#079840"/>
<path d="M16.7203 17.9196L15.4209 17.9987C14.8886 12.9202 15.9688 10.7052 15.9688 10.7052C15.5461 13.284 16.1097 15.9736 16.7203 17.9196Z" fill="#36B947"/>
<path d="M16.6889 17.9354L15.9218 17.9828C14.9198 14.1541 16.7046 12.2872 16.7046 12.2872C16.0001 14.4547 16.0314 16.5115 16.6889 17.9354Z" fill="#079840"/>
<path d="M12.3992 18.1886C12.681 16.3375 12.6653 14.1067 12.1957 12.1607C12.1957 12.1607 13.5107 14.0751 13.1976 18.1411L12.3992 18.1886Z" fill="#079840"/>
<path d="M16.8611 17.9196C16.8611 16.3216 17.2056 14.4389 18.1136 12.6037C18.1136 12.6037 16.0314 13.6637 16.3602 17.9354L16.8611 17.9196Z" fill="#36B947"/>
<path d="M12.2897 18.1886C12.1644 16.6381 11.7104 14.8662 10.7241 13.2524C10.7241 13.2524 12.9942 13.9169 13.0098 18.1411L12.2897 18.1886Z" fill="#36B947"/>
<path d="M12.6184 18.1727C13.7613 14.9768 13.2133 11.9075 13.2133 11.9075C13.8239 13.7586 14.0274 15.6255 13.6986 18.1094L12.6184 18.1727Z" fill="#36B947"/>
<path d="M14.4971 18.062C14.6693 16.5115 14.7632 15.056 14.3562 13.3156C14.3562 13.3156 15.2016 15.6255 15.2329 18.0145L14.4971 18.062Z" fill="#36B947"/>
<path d="M13.5891 18.1094C13.8396 16.3374 14.1997 12.8884 13.7457 10.8317C13.7457 10.8317 14.685 13.901 14.3719 18.0619L13.5891 18.1094Z" fill="#079840"/>
<path d="M14.0431 18.0778C14.4189 16.4008 14.0431 14.8029 13.777 13.6479C13.777 13.6479 14.9825 15.5623 14.8416 18.0462L14.0431 18.0778Z" fill="#36B947"/>
<path d="M14.4188 18.062C14.8885 16.8279 15.4208 15.0085 15.2173 13.5055C15.2173 13.5055 15.7339 15.2775 15.4208 17.9987L14.4188 18.062Z" fill="#36B947"/>
<path d="M11.2876 18.9321C10.9118 16.5905 10.677 14.075 11.0371 12.572C11.0371 12.572 11.0058 15.9577 12.1486 18.7264L11.2876 18.9321Z" fill="#079840"/>
<path d="M12.4932 18.6474L11.3346 18.9163C10.9276 13.6321 11.9452 11.3222 11.9452 11.3222C11.5225 13.9643 11.9922 16.7014 12.4932 18.6474Z" fill="#36B947"/>
<path d="M12.4774 18.6473L11.8043 18.8055C10.9432 14.8977 12.5714 12.9042 12.5714 12.9042C11.9295 15.1508 11.9138 17.2709 12.4774 18.6473Z" fill="#079840"/>
<path d="M8.37573 19.5967C8.7045 17.4767 8.73581 15.0086 8.31311 12.8727C8.31311 12.8727 9.59687 14.9295 9.20548 19.4068L8.37573 19.5967Z" fill="#079840"/>
<path d="M12.6183 18.6156C12.6496 16.986 12.9627 15.0558 13.7455 13.2048C13.7455 13.2048 11.9608 14.3597 12.1956 18.7263L12.6183 18.6156Z" fill="#36B947"/>
<path d="M8.25049 19.6283C8.15656 17.9038 7.7182 15.942 6.68494 14.17C6.68494 14.17 9.0959 14.7871 9.00196 19.4543L8.25049 19.6283Z" fill="#36B947"/>
<path d="M8.59485 19.5491C9.81598 15.8786 9.33066 12.572 9.33066 12.572C9.89426 14.5496 10.0665 16.5589 9.67508 19.296L8.59485 19.5491Z" fill="#36B947"/>
<path d="M10.4735 19.122C10.677 17.4292 10.7866 15.8787 10.4265 14.0593C10.4265 14.0593 11.178 16.4324 11.1623 18.9638L10.4735 19.122Z" fill="#36B947"/>
<path d="M9.58118 19.3276C9.86298 17.35 10.2857 13.6162 9.87863 11.4329C9.87863 11.4329 10.7084 14.6762 10.3483 19.1536L9.58118 19.3276Z" fill="#079840"/>
<path d="M10.0352 19.2168C10.4266 17.3499 10.0979 15.6729 9.86304 14.4388C9.86304 14.4388 10.9746 16.4007 10.8024 19.0428L10.0352 19.2168Z" fill="#36B947"/>
<path d="M10.3953 19.1378C10.8649 17.7614 11.3816 15.768 11.225 14.2333C11.225 14.2333 11.6634 16.0369 11.3346 18.9322L10.3953 19.1378Z" fill="#36B947"/>
<path d="M8.93947 18.9953C8.0471 16.9543 7.31129 14.8027 7.45219 13.3629C7.45219 13.3629 8.03145 16.3531 9.9884 18.5997L8.93947 18.9953Z" fill="#079840"/>
<path d="M10.4266 18.4257L9.01762 18.9636C7.546 14.2964 8.26615 11.8441 8.26615 11.8441C8.26615 14.3755 9.36205 16.717 10.4266 18.4257Z" fill="#36B947"/>
<path d="M10.3954 18.4415L9.56563 18.7579C7.79654 15.4197 9.33079 12.9832 9.33079 12.9832C8.97071 15.3089 9.39342 17.2708 10.3954 18.4415Z" fill="#079840"/>
<path d="M5.8866 20.1503C5.87095 18.2992 5.49521 16.2267 4.7594 14.6288C4.7594 14.6288 6.34061 15.8944 6.70069 19.8497L5.8866 20.1503Z" fill="#079840"/>
<path d="M10.5676 18.3782C10.2545 16.7961 10.2545 14.8184 10.8963 12.7142C10.8963 12.7142 8.84546 14.5653 10.0353 18.5838L10.5676 18.3782Z" fill="#36B947"/>
<path d="M5.76136 20.1977C5.40128 18.758 4.66547 17.255 3.50696 16.1475C3.50696 16.1475 5.79267 15.9418 6.48152 19.9287L5.76136 20.1977Z" fill="#36B947"/>
<path d="M6.09018 20.0711C6.7164 16.6379 5.66748 14.0275 5.66748 14.0275C6.5755 15.483 7.09214 17.16 7.17042 19.6598L6.09018 20.0711Z" fill="#36B947"/>
<path d="M8.03144 19.3276C7.9375 17.7613 7.78095 16.3374 7.06079 14.8502C7.06079 14.8502 8.34455 16.7013 8.81422 19.027L8.03144 19.3276Z" fill="#36B947"/>
<path d="M7.07639 19.6915C7.02942 17.8879 6.8259 14.5338 6.02747 12.8568C6.02747 12.8568 7.46778 15.2932 7.89048 19.3909L7.07639 19.6915Z" fill="#079840"/>
<path d="M7.54596 19.5174C7.6399 17.7613 6.98236 16.369 6.5127 15.404C6.5127 15.404 8.07825 16.7646 8.37571 19.2168L7.54596 19.5174Z" fill="#36B947"/>
<path d="M7.9375 19.375C8.20364 18.0144 8.43848 16.0684 7.95316 14.7394C7.95316 14.7394 8.81421 16.2108 8.98642 18.9795L7.9375 19.375Z" fill="#36B947"/>
<path d="M4.88455 21.2102C4.16439 19.1218 3.56948 16.8752 3.71038 15.4197C3.71038 15.4197 4.16439 18.5048 5.7143 20.7514L4.88455 21.2102Z" fill="#079840"/>
<path d="M6.05869 20.5615L4.94714 21.1785C3.77297 16.3848 4.38354 13.9799 4.38354 13.9799C4.36788 16.4955 5.22894 18.8687 6.05869 20.5615Z" fill="#36B947"/>
<path d="M6.0275 20.5773L5.36997 20.9412C3.94531 17.5555 5.21341 15.1665 5.21341 15.1665C4.93161 17.4447 5.26038 19.4382 6.0275 20.5773Z" fill="#079840"/>
<path d="M2.19187 22.7131C2.22318 20.6406 1.92572 18.3781 1.26819 16.6378C1.26819 16.6378 2.69285 18.0301 2.94334 22.3018L2.19187 22.7131Z" fill="#079840"/>
<path d="M6.16835 20.4983C5.93352 18.9162 5.93352 16.986 6.40319 14.9926C6.40319 14.9926 4.83763 16.6854 5.74565 20.7198L6.16835 20.4983Z" fill="#36B947"/>
<path d="M2.06654 22.7767C1.75343 21.1787 1.11155 19.5333 0 18.2993C0 18.2993 2.20744 18.0778 2.75538 22.4128L2.06654 22.7767Z" fill="#36B947"/>
<path d="M2.37964 22.6025C3.02152 18.8213 2.12915 16.021 2.12915 16.021C2.91193 17.5714 3.33463 19.3592 3.36594 22.0488L2.37964 22.6025Z" fill="#36B947"/>
<path d="M4.11747 21.6374C4.05484 19.9762 3.94525 18.489 3.35034 16.9544C3.35034 16.9544 4.39927 18.8845 4.775 21.2735L4.11747 21.6374Z" fill="#36B947"/>
<path d="M3.28757 22.0961C3.27191 20.1501 3.14667 16.6062 2.48914 14.8184C2.48914 14.8184 3.69462 17.3972 3.99207 21.7006L3.28757 22.0961Z" fill="#079840"/>
<path d="M3.71036 21.8747C3.81995 19.992 3.272 18.5365 2.88062 17.5081C2.88062 17.5081 4.21134 18.932 4.43052 21.4792L3.71036 21.8747Z" fill="#36B947"/>
<path d="M4.03918 21.6849C4.28967 20.2293 4.4932 18.2042 4.11746 16.8436C4.11746 16.8436 4.80631 18.3466 4.93155 21.1944L4.03918 21.6849Z" fill="#36B947"/>
<path d="M38.9354 22.9189C38.9823 26.2096 30.7005 30.9876 20.4148 31.1616C10.1291 31.3515 1.73772 26.8741 1.69075 23.5675C1.64378 20.2767 9.9569 17.4448 20.2426 17.2707C30.5283 17.0967 38.9041 19.6281 38.9354 22.9189Z" fill="#36B947"/>
<path d="M30.3234 19.217C30.3234 19.217 30.793 20.3719 31.0592 20.8307C31.3253 21.2896 33.611 21.4952 33.4232 20.9099C33.2196 20.3245 31.5915 19.5492 31.2627 19.1221C30.9339 18.6949 30.9026 18.6 30.9026 18.6L30.3234 19.217Z" fill="#EFDFD7"/>
<path opacity="0.55" d="M33.3605 20.783C32.8752 21.0204 32.2333 21.0362 31.7793 20.7356C31.4036 20.4824 31.1688 20.1977 30.9026 19.8338C30.7304 19.5965 30.5269 19.4066 30.3547 19.1851L30.3234 19.2168C30.3234 19.2168 30.793 20.3717 31.0592 20.8305C31.3253 21.2893 33.611 21.495 33.4232 20.9096C33.4075 20.8622 33.3919 20.8305 33.3605 20.783Z" fill="#E3C7B9"/>
<path d="M27.8184 20.1502C27.8184 20.1502 28.4603 20.2451 28.6638 20.4508C28.8673 20.6564 29.9163 21.4475 30.2137 20.9887C30.5112 20.5457 31.2 19.5964 30.1981 19.5173C29.1961 19.4382 28.93 19.4699 28.2098 19.2325C28.2098 19.2484 27.6619 19.9761 27.8184 20.1502Z" fill="#EFDFD7"/>
<path opacity="0.55" d="M30.6521 19.7388C30.3233 19.6597 30.5112 20.9254 29.8067 20.7988C29.4309 20.7355 28.93 20.2609 28.5699 20.1818C28.3037 20.1185 28.0533 20.0552 27.8028 19.9761C27.7871 20.0552 27.7871 20.1185 27.8184 20.1501C27.8184 20.1501 28.4603 20.2451 28.6638 20.4507C28.8673 20.6564 29.9163 21.4475 30.2137 20.9887C30.4172 20.6722 30.8556 20.071 30.6521 19.7388Z" fill="#E3C7B9"/>
<path d="M19.7558 7.525C20.4916 7.57246 21.3997 7.0029 21.7597 6.37006C21.9006 6.79723 22.3233 7.87306 22.7304 7.99963C22.7304 7.99963 22.292 9.34442 20.8048 9.39188C20.3977 9.40771 20.022 8.79068 19.521 8.71158C19.5367 8.71158 19.8341 8.41098 19.7558 7.525Z" fill="#E3956F"/>
<path d="M21.6033 1.71862C21.6033 1.71862 19.2393 1.38637 18.7696 2.31982C18.2999 3.25326 18.3939 3.82282 18.4252 4.18671C18.4565 4.55059 18.4252 5.64224 18.4408 6.49658C18.4565 7.35092 19.1923 7.84138 20.1316 7.38256C21.0866 6.92375 21.8068 6.2118 21.8851 5.56314C21.9633 4.91447 22.2451 1.76608 21.6033 1.71862Z" fill="#FFC2A5"/>
<path opacity="0.55" d="M20.5856 5.18327C20.6326 5.37313 20.8674 5.48388 21.1022 5.43641C21.3371 5.37313 21.4936 5.16745 21.4467 4.9776C21.3997 4.78775 21.1649 4.677 20.93 4.72446C20.6952 4.77193 20.5386 4.9776 20.5856 5.18327Z" fill="#FFB299"/>
<path opacity="0.55" d="M18.4721 5.15199C18.4721 5.3102 18.6443 5.43677 18.8478 5.43677C19.0513 5.42095 19.2235 5.29438 19.2079 5.12035C19.2079 4.96214 19.0357 4.83557 18.8321 4.83557C18.6286 4.85139 18.4564 4.99378 18.4721 5.15199Z" fill="#FFB299"/>
<path d="M21.6658 2.8104C21.6658 2.8104 21.8693 3.111 21.7284 3.17429C21.6032 3.23757 20.5699 3.7122 20.382 3.30086C20.1942 2.88951 20.5073 2.88951 20.7421 2.88951C20.9456 2.88951 21.5249 2.79458 21.6658 2.8104Z" fill="#702530"/>
<path d="M18.519 3.64895C18.4877 3.64895 18.4407 3.64895 18.4251 3.61731C18.3625 3.53821 18.3468 3.34835 18.3938 3.28507C18.5503 3.04775 19.3331 3.00029 19.3644 3.12686C19.4114 3.23761 19.4114 3.58567 19.2079 3.60149C18.9574 3.60149 18.7695 3.64895 18.519 3.64895Z" fill="#702530"/>
<path d="M21.8538 5.31003C21.8538 5.29421 21.8538 5.26257 21.8538 5.24675C21.8538 5.19929 21.8694 5.15182 21.8694 5.10436C21.8851 4.99361 21.9007 4.89868 21.9164 4.78794C21.9164 4.66137 21.9164 4.5348 21.8851 4.40823C21.9633 4.20256 22.2451 3.68046 22.7931 4.20256C23.4819 4.8354 22.2138 5.87959 21.8851 5.38914C21.8694 5.3575 21.8538 5.34168 21.8538 5.31003Z" fill="#FFC2A5"/>
<path d="M22.7303 4.32905C22.7303 4.32905 22.198 4.29741 22.151 4.75622C22.1197 5.041 22.2919 5.3416 22.4798 5.18339C22.6677 5.041 22.4172 4.85114 22.4485 4.70875C22.4485 4.55054 22.5268 4.47144 22.7303 4.32905Z" fill="#DC8A64"/>
<path d="M21.8381 6.68641C21.9007 6.51238 21.9163 6.32253 21.9163 6.14849C21.9163 5.38908 21.932 4.64549 21.979 3.88608C21.6658 4.21832 21.6345 4.70877 21.5719 5.16759C21.5563 5.34162 21.5093 5.54729 21.3527 5.6264C21.2745 5.65804 21.1805 5.67386 21.1022 5.65804C20.7265 5.65804 20.3664 5.6264 19.9437 5.75297C19.7402 5.81625 19.5054 5.64222 19.3018 5.73715C19.0983 5.83207 18.9418 6.0061 18.7226 6.05357C18.4251 6.06939 18.4721 5.87954 18.4251 5.51565C18.3625 6.33835 18.1903 6.54402 18.206 7.33507C18.206 7.80971 18.9105 8.53748 19.2549 8.52166C19.4741 8.53748 21.4936 7.58821 21.8381 6.68641Z" fill="#702530"/>
<path d="M20.0377 5.83219C20.1159 5.81637 20.1942 5.76891 20.2412 5.72144C20.2882 5.65816 20.3351 5.53159 20.2099 5.32592C20.1786 5.29427 20.1316 5.27845 20.1003 5.29427C20.069 5.32592 20.0533 5.37338 20.069 5.40502C20.1159 5.46831 20.1473 5.56323 20.1159 5.6107C20.0377 5.70562 19.6776 5.70562 19.5523 5.64234C19.5054 5.56323 19.5993 4.94621 19.7089 4.42412C19.7245 4.37665 19.6932 4.32919 19.6463 4.32919C19.5993 4.31337 19.5523 4.34501 19.5523 4.39247C19.3488 5.26263 19.3175 5.73726 19.4897 5.80055C19.5993 5.83219 19.8498 5.87965 20.0377 5.83219Z" fill="#DF9378"/>
<path d="M20.5543 5.8639C20.5543 5.8639 20.3978 6.62331 19.8968 6.59167C19.3958 6.56003 19.2393 6.05375 19.2393 6.05375C19.2393 6.05375 19.5367 6.21196 19.8342 6.18032C20.1942 6.14868 20.5543 5.81644 20.5543 5.81644V5.8639Z" fill="white"/>
<path d="M20.2568 4.37663C20.2568 4.37663 20.5543 3.74378 21.2745 4.21842C21.2745 4.21842 21.1492 4.62976 20.6639 4.59812C20.429 4.5823 20.3038 4.47155 20.2568 4.37663Z" fill="white"/>
<path d="M20.3664 4.39234C20.3977 4.56637 20.5543 4.67712 20.7265 4.64548C20.8987 4.61384 21.0083 4.45563 20.977 4.2816C20.9457 4.10756 20.7891 3.99682 20.6169 4.02846C20.4447 4.0601 20.3351 4.21831 20.3664 4.39234Z" fill="#654745"/>
<path d="M20.476 4.31371C20.4917 4.36139 20.5232 4.39318 20.5704 4.37729C20.6176 4.36139 20.649 4.3296 20.6333 4.28192C20.6176 4.23423 20.5861 4.20244 20.5389 4.21834C20.4917 4.23423 20.4603 4.28192 20.476 4.31371Z" fill="white"/>
<path d="M20.1941 4.29755C20.1941 4.29755 20.2254 4.72472 20.742 4.66144C21.2587 4.59816 21.3213 4.13934 21.3213 4.13934L21.2117 4.20263C21.2117 4.20263 21.1804 4.51905 20.7733 4.59815C20.3663 4.67726 20.2567 4.34502 20.2567 4.34502L20.1941 4.29755Z" fill="#E59A72"/>
<path d="M21.3214 4.15503C21.3214 4.15503 20.9456 3.79114 20.6012 3.88607C20.2568 3.99682 20.1628 4.26577 20.1628 4.26577L20.2255 4.40816C20.2255 4.40816 20.3664 4.12338 20.6951 4.07592C21.0239 4.02846 21.1961 4.18667 21.2274 4.20249C21.2587 4.21831 21.3214 4.15503 21.3214 4.15503Z" fill="#E59A72"/>
<path d="M19.3331 4.44005C19.3331 4.44005 18.9731 3.96542 18.4564 4.50333C18.4564 4.50333 18.6443 4.81976 19.0357 4.70901C19.2235 4.64572 19.3018 4.53498 19.3331 4.44005Z" fill="white"/>
<path d="M18.5661 4.55058C18.5974 4.69297 18.7383 4.78789 18.8792 4.75625C19.0201 4.72461 19.114 4.58222 19.0827 4.43983C19.0514 4.29744 18.9105 4.20251 18.7696 4.23416C18.6287 4.2658 18.5348 4.40819 18.5661 4.55058Z" fill="#654745"/>
<path d="M18.6601 4.48778C18.6601 4.51957 18.7073 4.55136 18.7387 4.53547C18.7702 4.53547 18.8016 4.48778 18.7859 4.456C18.7859 4.42421 18.7387 4.39242 18.7072 4.40831C18.6758 4.42421 18.6443 4.456 18.6601 4.48778Z" fill="white"/>
<path d="M18.4564 4.47157H18.4877C18.4877 4.47157 18.5817 4.72471 18.9261 4.70889C19.2862 4.69307 19.3175 4.39246 19.3175 4.39246L19.3645 4.345C19.3645 4.345 19.4271 4.70889 18.9731 4.75635C18.7069 4.78799 18.5504 4.66142 18.4564 4.55068C18.4564 4.53485 18.4564 4.50321 18.4564 4.47157Z" fill="#E59A72"/>
<path d="M18.4564 4.37672C18.5504 4.26597 18.7226 4.09194 18.9417 4.10776C19.2549 4.12358 19.3801 4.34507 19.3801 4.34507L19.3488 4.47164C19.3488 4.47164 19.1766 4.25015 18.8948 4.28179C18.613 4.31343 18.5034 4.47164 18.4721 4.48746H18.4564C18.4564 4.45582 18.4564 4.40836 18.4564 4.37672Z" fill="#E59A72"/>
<path d="M21.337 1.67143C21.1179 2.13024 21.1179 2.71562 21.4623 3.07951C21.5562 3.17443 21.6658 3.25354 21.7441 3.36429C21.9163 3.64907 21.7597 4.04459 21.9006 4.34519C21.9632 4.25027 22.1198 4.07624 22.292 4.02877C22.4642 3.98131 22.5895 4.02877 22.7304 4.13952C22.8086 3.96549 22.9182 3.72817 22.9339 3.53832C22.9339 3.44339 22.9182 3.33265 22.8713 3.25354C22.8086 3.12697 22.8243 2.98458 22.8713 2.84219C22.9495 2.60488 22.8869 2.24099 22.746 2.05114C22.0259 1.1968 21.4466 1.44994 21.337 1.67143Z" fill="#702530"/>
<path d="M14.9653 14.676C14.9653 14.676 14.934 16.8751 14.8244 18.4098C14.8244 18.4098 14.887 18.5205 14.1042 18.742C13.3215 18.9635 12.3978 19.0743 12.5074 19.3274C12.5074 19.3274 12.57 19.4223 12.977 19.2641C12.977 19.2641 12.3508 19.4382 12.3821 19.5806C12.4134 19.7229 12.8674 19.6438 13.4467 19.3907C13.4467 19.3907 12.3195 19.6913 12.617 19.8495C12.9144 20.0077 13.7285 19.5331 13.7285 19.5331C13.7285 19.5331 12.8831 19.8495 13.1492 19.9761C13.4154 20.1026 14.4017 19.6122 14.7305 19.4382C15.0436 19.2641 15.0592 19.7388 15.7481 19.7546C16.4369 19.7862 15.5445 19.2958 15.3567 19.0268C15.3567 19.0268 15.2158 18.8844 15.3097 18.6313C15.4036 18.3782 16.1551 16.1632 16.5152 15.6886C16.8753 15.2298 15.6541 14.2172 14.9653 14.676Z" fill="#FFC2A5"/>
<path d="M14.0102 18.7738C13.243 18.9637 12.4133 19.0902 12.5229 19.3275C12.5229 19.3275 12.5699 19.375 12.7421 19.3434C12.5699 19.4066 12.382 19.5016 12.3976 19.5807C12.4133 19.6756 12.5699 19.6756 12.8203 19.6123C12.6325 19.6914 12.5072 19.7864 12.6325 19.8496C12.7734 19.9287 13.0239 19.8655 13.243 19.7705C13.1335 19.8496 13.0552 19.9287 13.1648 19.9762C13.4309 20.1028 14.4172 19.6123 14.746 19.4383C14.7616 19.4225 14.7773 19.4225 14.7929 19.4225C14.4955 19.2326 14.198 19.0269 14.0102 18.7738Z" fill="#E3956F"/>
<path d="M15.2627 15.8944C15.4976 15.9102 15.842 15.926 16.0455 16.0684C16.1081 16.1159 16.1707 16.1633 16.2334 16.2266C16.343 16.0051 16.4369 15.8153 16.5152 15.7204C16.8752 15.2457 15.6541 14.2332 14.9653 14.692C14.9653 14.692 14.9496 15.1983 14.934 15.9102C15.0435 15.8786 15.1531 15.8786 15.2627 15.8944Z" fill="#E3956F"/>
<path d="M19.6932 8.2684L20.9144 9.18602L22.3547 7.93616C22.3547 7.93616 23.9202 8.69557 24.2803 9.02781C24.2803 9.02781 23.6697 10.5783 24.1707 11.8281C24.1707 11.8281 23.5758 14.5494 23.8576 16.0524C23.8576 16.0524 22.1668 17.239 18.8322 16.4637C18.8322 16.4637 18.2059 14.0115 17.8302 12.9514C17.8302 12.9514 17.5641 10.5625 16.8282 9.61319C16.8282 9.62901 18.3312 8.63228 19.6932 8.2684Z" fill="#98B3FF"/>
<path d="M24.0768 11.5278C23.8733 12.0815 23.8107 12.6669 23.5758 13.2365C23.4349 13.6004 23.2158 13.9643 23.1218 14.344C23.0279 14.7237 22.9653 15.1192 22.6991 15.4198C22.2138 15.9735 21.478 16.1001 20.7891 15.8944C19.114 15.4198 18.66 14.1383 18.2686 12.5562C18.0651 11.7493 17.8929 10.9741 17.251 10.4362C17.6737 11.5278 17.8302 12.9834 17.8302 12.9834C18.206 14.0434 18.8322 16.4956 18.8322 16.4956C22.1668 17.255 23.8576 16.0843 23.8576 16.0843C23.5758 14.5655 24.1707 11.8601 24.1707 11.8601C24.1394 11.7335 24.1081 11.6227 24.0768 11.5278Z" fill="#6A8CF0"/>
<path d="M20.8831 9.56598C20.8831 9.56598 20.8361 13.6636 21.8067 16.2108C21.8067 16.1634 21.0709 11.417 20.8831 9.56598Z" fill="#6A8CF0"/>
<path d="M16.8283 9.62921C16.8283 9.62921 14.9497 11.3062 15.1219 14.1066C15.1219 14.1066 16.844 15.1508 17.0788 15.1349C17.0788 15.1349 17.8616 14.4072 17.9399 13.0624C17.9555 13.0466 18.0495 10.705 16.8283 9.62921Z" fill="#98B3FF"/>
<path d="M15.4663 13.7428C15.4663 13.4896 15.4819 13.2523 15.4976 12.9992C15.5289 12.7302 15.5759 12.4613 15.6385 12.2081C15.6855 12.0341 15.8733 11.1798 15.8264 10.9424C15.4037 11.7019 15.0436 12.7777 15.1219 14.0908C15.1219 14.0908 15.4193 14.3282 15.6072 14.4547C15.5446 14.2332 15.4663 13.9959 15.4663 13.7428Z" fill="#6A8CF0"/>
<path d="M17.6111 10.8632C17.6267 10.9897 17.6424 11.1163 17.6424 11.2429C17.6581 11.7966 17.6267 12.3662 17.5328 12.9041C17.4389 13.442 17.1727 13.9483 17.1414 14.502C17.1258 14.7393 17.0475 14.9292 16.9222 15.0716C17.0005 15.1032 17.0631 15.119 17.0945 15.119C17.0945 15.119 17.8772 14.3913 17.9555 13.0465C17.9555 13.0465 18.0025 11.9232 17.6111 10.8632Z" fill="#6A8CF0"/>
<path d="M15.9828 14.2965C15.9828 14.2965 15.1218 13.7585 14.9339 13.9959C14.746 14.2332 14.1354 15.04 15.6227 15.5621C17.11 16.0842 17.2353 15.7995 17.3762 14.9135C17.4075 14.7078 15.9828 14.2965 15.9828 14.2965Z" fill="#98B3FF"/>
<path d="M20.8673 9.15457L19.9123 10.2462L18.9417 8.58501L19.6618 8.18948L20.8673 9.15457Z" fill="#98B3FF"/>
<path d="M22.3391 7.63586L20.8674 9.15469L21.7598 10.0723L22.9653 8.23707L22.3391 7.63586Z" fill="#98B3FF"/>
<path d="M23.8577 16.0052C23.8577 16.0052 22.9183 16.29 21.3058 16.385C20.4448 16.4324 19.5681 16.3217 18.7383 16.0527H18.7226C18.7226 16.0527 17.5641 17.5715 18.2999 18.7739C19.0358 19.9763 22.7148 19.8656 23.5759 19.2169C24.4369 18.5683 24.3117 16.4324 24.3117 16.4324C24.3117 16.4324 23.9516 16.2109 23.8577 16.0052Z" fill="#473636"/>
<path d="M22.6209 17.2707C22.6209 17.2707 27.6933 12.3661 28.7422 13.1097C29.8068 13.8533 30.6052 17.8719 31.0749 18.7737C31.0749 18.7737 30.3391 19.3116 30.1825 19.5173C30.1825 19.5173 28.0221 17.4605 27.709 15.736C27.709 15.736 27.4272 18.1725 25.6268 19.1059C23.8107 20.0552 22.4017 18.6788 22.6209 17.2707Z" fill="#654745"/>
<path opacity="0.5" d="M27.8029 13.2206C26.707 13.7111 25.0475 15.0875 23.9047 16.1001C24.0143 16.0684 25.3606 15.5463 25.6424 15.404C26.3 15.0875 27.3802 14.9768 27.8812 14.423C28.1943 14.1066 28.0221 13.6478 27.8029 13.2206Z" fill="#654745"/>
<path opacity="0.32" d="M29.2119 17.6821C28.4448 16.7328 28.0377 15.5304 28.116 14.328C27.7716 14.8026 27.3959 15.2614 27.0984 15.7835C26.5661 16.717 25.9555 17.7295 24.7188 17.4131C24.2491 17.2865 23.7794 16.8436 23.5916 16.3689C23.0123 16.891 22.6209 17.2707 22.6209 17.2707C22.4017 18.663 23.8107 20.0394 25.6268 19.106C27.4428 18.1725 27.709 15.7361 27.709 15.7361C28.0221 17.4606 30.1826 19.5173 30.1826 19.5173C30.2608 19.4224 30.4644 19.2484 30.6522 19.106C30.0886 18.6788 29.5876 18.1409 29.2119 17.6821Z" fill="#573A30"/>
<path d="M28.3821 19.1693C28.3821 19.1693 27.9907 20.1186 28.022 20.5932C28.022 20.5932 22.6521 19.5016 21.1022 19.3908C19.5523 19.2801 18.0964 18.1251 19.067 16.6221C20.0377 15.1033 22.1512 17.1442 24.5465 17.9037C26.9418 18.6631 28.3821 19.1693 28.3821 19.1693Z" fill="#654745"/>
<path opacity="0.32" d="M21.1492 18.8055C20.1629 18.3467 19.1609 18.4416 18.9261 17.1918C18.9104 17.1127 18.8948 17.0336 18.8948 16.9545C18.3155 18.2993 19.6619 19.296 21.1022 19.3909C22.6521 19.5017 28.022 20.5933 28.022 20.5933C28.022 20.4984 28.0376 20.3718 28.0533 20.2453C28.0063 20.2927 22.8087 19.5808 21.1492 18.8055Z" fill="#573A30"/>
<path d="M20.5856 10.5151C20.6169 10.6259 20.5856 10.7208 20.5074 10.7524C20.4447 10.7683 20.3508 10.705 20.3195 10.5942C20.2882 10.4835 20.3195 10.3886 20.3978 10.3569C20.476 10.3411 20.5543 10.4202 20.5856 10.5151Z" fill="#98B3FF"/>
<path d="M20.7892 12.287C20.8206 12.3978 20.7892 12.4927 20.711 12.5244C20.6483 12.5402 20.5544 12.4769 20.5231 12.3661C20.4918 12.2554 20.5231 12.1605 20.6014 12.1288C20.664 12.0972 20.7579 12.1763 20.7892 12.287Z" fill="#98B3FF"/>
<path d="M21.071 13.9958C21.0867 14.1065 21.0397 14.2014 20.9614 14.2173C20.8832 14.2331 20.8205 14.1381 20.8049 14.0274C20.7892 13.9167 20.8362 13.8217 20.9145 13.8059C20.9927 13.8059 21.0554 13.885 21.071 13.9958Z" fill="#98B3FF"/>
<path d="M21.3684 15.6729C21.384 15.7836 21.3371 15.8786 21.2588 15.8944C21.1805 15.9102 21.1179 15.8153 21.1022 15.7045C21.0866 15.5938 21.1336 15.4989 21.2118 15.483C21.2745 15.483 21.3527 15.5621 21.3684 15.6729Z" fill="#98B3FF"/>
<path d="M20.8673 11.4961C20.883 11.4645 20.8986 11.417 20.8986 11.3696C21.1961 11.3221 21.384 11.7018 21.4623 11.9233C21.384 11.955 21.3683 11.86 21.3527 11.7967C21.3214 11.7335 21.2744 11.686 21.2274 11.6385C21.1178 11.5436 20.9926 11.4961 20.8517 11.5278C20.8673 11.512 20.8673 11.512 20.8673 11.4961Z" fill="#079840"/>
<path d="M21.3996 11.8284C21.3527 11.6543 21.3213 11.3379 21.4309 11.1797C21.4936 11.1006 21.5718 11.0373 21.6658 10.9899C21.744 10.9424 21.8536 10.9266 21.9162 10.8475C21.8223 11.0848 22.0415 11.2905 21.9162 11.4645C21.8693 11.5436 21.3996 11.8284 21.3996 11.8284Z" fill="#079840"/>
<path d="M21.7597 11.0849C21.7597 11.0849 21.6814 11.3222 21.6188 11.433C21.5562 11.5437 21.4153 11.7811 21.4153 11.7811C21.5249 11.702 21.6188 11.5596 21.6814 11.4646C21.7441 11.3539 21.7597 11.0849 21.7597 11.0849Z" fill="#C0D979"/>
<path d="M21.4623 11.8917C21.2901 11.7968 20.9301 11.7968 20.7735 11.9075C20.476 12.0815 20.6796 12.4771 20.8205 12.6827C20.93 12.841 21.0866 13.0466 21.2745 13.1257C21.431 13.189 21.6659 13.1099 21.6815 12.9359C21.7598 12.9992 21.8694 13.0466 21.9633 12.9992C22.0886 12.9517 22.1668 12.8251 22.2295 12.7144C22.3547 12.4454 22.4017 12.0024 22.2295 11.7335C22.1199 11.5753 21.979 11.512 21.7754 11.5595C21.7128 11.5753 21.3997 11.8601 21.4623 11.8917Z" fill="#FF5D5E"/>
<path opacity="0.55" d="M20.7422 12.0497C20.6482 12.2238 20.7891 12.4769 20.8831 12.6351C20.977 12.7775 21.1179 12.9515 21.2744 13.0148C21.4153 13.0623 21.6032 12.999 21.6345 12.8408C21.6971 12.8883 21.8067 12.9357 21.885 12.9041C21.9946 12.8566 22.0729 12.7617 22.1198 12.6668C22.1668 12.5718 22.1981 12.4611 22.2138 12.3345C21.7128 12.6509 21.1962 12.556 20.7422 12.0497Z" fill="#D3393D"/>
<path opacity="0.55" d="M22.1042 11.7492C22.0572 11.7175 21.9946 11.6859 21.9633 11.7017C21.9006 11.7175 21.885 11.765 21.8224 11.8124C21.7911 11.8283 21.7597 11.8441 21.7441 11.8599C21.6815 11.8915 21.6032 11.9232 21.5562 11.9706C21.5406 12.0023 21.5249 12.0339 21.5249 12.0498C21.5406 12.0972 21.6032 12.1605 21.6501 12.1763C21.8067 12.2238 21.9946 12.208 22.1355 12.113C22.2138 12.0656 22.2138 11.9232 22.1824 11.8441C22.1511 11.7966 22.1198 11.765 22.1042 11.7492Z" fill="#F9B888"/>
<path d="M24.1551 11.9232C24.1551 11.9232 24.8752 13.2363 26.4095 13.4895L27.9124 13.2047C27.9124 13.2047 26.8635 9.55003 24.2803 9.01212C24.2803 9.01212 23.4975 10.0088 24.1551 11.9232Z" fill="#98B3FF"/>
<path d="M26.5348 13.4578C26.5035 13.1256 26.0964 12.9516 25.8459 12.8092C25.3293 12.4927 24.797 12.113 24.4682 11.5751C24.2177 11.1638 23.9986 10.6575 23.889 10.1354C23.842 10.5942 23.8733 11.1954 24.1395 11.9232C24.1395 11.9232 24.8596 13.2363 26.3939 13.4895L26.5348 13.4578Z" fill="#6A8CF0"/>
<path d="M27.5366 12.7459C27.1139 12.5561 26.2372 12.2555 25.6892 12.5561C25.6892 12.5561 25.4388 12.7617 25.4857 12.9832C25.5327 13.2205 26.9574 13.4104 27.427 14.3438C27.427 14.3438 28.382 13.9958 28.0689 13.2522C27.9593 13.0149 27.7714 12.8408 27.5366 12.7459Z" fill="#98B3FF"/>
<path d="M25.7833 12.999C25.7833 12.999 24.5778 12.8883 23.4506 12.7617C23.4506 12.7617 23.1532 12.7775 22.934 12.4611C22.7305 12.1447 21.9477 11.7492 22.1982 12.2871C22.1982 12.2871 22.4173 12.556 22.6209 12.651C22.6209 12.651 22.3704 12.4295 21.932 12.4769C21.7128 12.4927 21.431 12.556 21.1336 12.7775C21.1336 12.7775 20.9457 12.9674 21.3058 13.0465C21.3058 13.0465 21.0553 13.1889 21.1805 13.2996C21.3058 13.4104 21.525 13.2838 21.9007 13.173C21.9007 13.173 21.2119 13.4104 21.431 13.5686C21.6502 13.7426 21.8224 13.4578 22.1042 13.4104C22.1042 13.4104 21.6189 13.5686 21.7442 13.711C21.8694 13.8534 22.2451 13.6319 22.6991 13.5053C23.1532 13.3787 23.8107 13.9166 25.7989 14.3755C27.0357 14.6761 27.4584 14.2647 27.4584 14.2647C27.4584 14.2647 26.9731 13.4104 25.7833 12.999Z" fill="#FFC2A5"/>
<path d="M21.5093 2.31988C21.6345 2.2566 21.7597 2.17749 21.7911 2.05093C21.4623 1.59211 21.1022 1.11748 20.5699 0.927629C20.3351 0.848524 20.0689 0.832703 19.8028 0.832703C19.5367 0.832703 19.0983 1.02256 18.8635 1.16495C18.159 1.6554 17.7989 2.46227 17.5171 2.13003C17.4232 2.01928 17.7363 1.90854 17.8302 2.00346C17.6736 1.76615 17.2823 1.78197 17.0944 1.98764C16.9065 2.20914 16.9222 2.54138 17.0787 2.7787C17.2353 3.01601 17.5014 3.1584 17.7832 3.20587C17.9398 3.23751 18.112 3.23751 18.2686 3.17422C18.4408 3.09512 18.566 2.90526 18.6756 2.74705C18.8008 2.58884 18.9731 2.43063 19.1609 2.44645C19.3958 2.46227 19.5523 2.71541 19.7715 2.79452C19.928 2.8578 20.1159 2.84198 20.2881 2.79452C20.7421 2.71541 21.1335 2.50974 21.5093 2.31988Z" fill="#702530"/>
<path d="M22.497 26.9374L9.97253 23.1878L16.407 20.2925L25.2367 22.1436L22.497 26.9374Z" fill="#FF5D5E"/>
<path d="M22.1839 26.2728L10.9275 23.0928L16.1878 20.6722L24.4852 22.2543L22.1839 26.2728Z" fill="#E8E3F0"/>
<path d="M14.9823 23.7573C16.0312 23.694 17.0175 23.7415 17.8786 23.8839C18.7553 24.0421 20.0078 24.0737 20.3835 24.6433C20.5714 24.9281 20.4148 25.4027 20.54 25.7191C20.5557 25.7666 20.5714 25.7982 20.587 25.8299L22.1995 26.257L24.5009 22.2385L21.7768 21.7164C20.3678 22.4758 19.131 22.8397 18.4735 22.7606C17.722 22.6656 17.0019 22.191 17.9725 20.9886L16.2034 20.6564L12.6183 22.3176C12.7592 22.5865 12.6183 23.0454 12.4774 23.5042C12.4774 23.52 12.4774 23.52 12.4774 23.5358L14.0273 23.9788C14.3874 23.8364 14.7162 23.7731 14.9823 23.7573Z" fill="#D5DEE3"/>
<path d="M18.0978 19.5015C18.0978 19.5489 18.1135 19.5964 18.1448 19.628C17.863 19.6913 17.6438 19.9128 17.5812 20.1976C17.5655 20.1976 17.5342 20.1818 17.5186 20.1818C17.5655 19.8654 17.8004 19.5964 18.0978 19.5015Z" fill="#3C5415"/>
<path d="M16.2975 20.8464C16.454 20.704 16.6732 20.6407 16.8297 20.5141C16.9237 20.435 17.002 20.3243 17.0802 20.2294C17.1585 20.1344 17.2524 20.0395 17.3777 20.0079C17.4873 19.9762 17.6438 19.992 17.7065 20.1028C17.7691 20.1819 17.7691 20.3085 17.7378 20.4034C17.7065 20.4983 17.6595 20.5932 17.6438 20.704C17.5656 21.0521 17.7691 21.4318 17.6125 21.7482C17.5499 21.8906 17.409 21.9855 17.2681 22.033C17.1272 22.0804 16.9706 22.0963 16.8141 22.1121C16.6575 22.1279 16.501 22.1279 16.3601 22.0488C16.2348 21.9855 16.1252 21.8589 16.0783 21.7165C15.9687 21.4159 16.0626 21.0521 16.2975 20.8464Z" fill="#7EC768"/>
<path opacity="0.55" d="M17.2368 21.495C17.1116 21.495 16.9707 21.495 16.8611 21.4476C16.7515 21.3843 16.6732 21.2894 16.6263 21.1786C16.5793 21.0679 16.5793 20.9413 16.6106 20.8147C16.5323 20.8622 16.4384 20.9097 16.3601 20.9729C16.1566 21.147 16.0783 21.4476 16.1723 21.6849C16.2192 21.7956 16.2975 21.9064 16.4071 21.9539C16.5167 22.0171 16.6576 22.0171 16.7828 22.0013C16.9081 22.0013 17.0333 21.9855 17.1586 21.938C17.2838 21.8906 17.3777 21.8115 17.4404 21.7007C17.4717 21.6216 17.4873 21.5425 17.4873 21.4634C17.3934 21.4792 17.3151 21.495 17.2368 21.495Z" fill="#95BF1C"/>
<path d="M17.6438 21.5581C17.6595 21.5265 17.6908 21.479 17.6908 21.4316C17.9882 21.4157 18.1448 21.8113 18.2074 22.0328C18.1135 22.0486 18.1291 21.9536 18.1135 21.9062C18.0978 21.8429 18.0508 21.7796 18.0039 21.7322C17.9099 21.6214 17.7847 21.5581 17.6438 21.5898C17.6281 21.5739 17.6438 21.5739 17.6438 21.5581Z" fill="#079840"/>
<path d="M18.1447 21.9379C18.1134 21.7638 18.0978 21.4474 18.223 21.305C18.2856 21.2259 18.3796 21.1784 18.4735 21.131C18.5518 21.0993 18.6614 21.0835 18.724 21.0202C18.6144 21.2417 18.8023 21.4632 18.677 21.6373C18.6301 21.6847 18.1447 21.9379 18.1447 21.9379Z" fill="#079840"/>
<path d="M18.5674 21.2099C18.5674 21.2099 18.4579 21.4472 18.3952 21.5422C18.3326 21.6529 18.1604 21.8744 18.1604 21.8744C18.27 21.8111 18.3796 21.6846 18.4579 21.5738C18.5205 21.4789 18.5674 21.2099 18.5674 21.2099Z" fill="#C0D979"/>
<path d="M18.1917 22.0011C18.0351 21.8904 17.6751 21.8746 17.5029 21.9537C17.1897 22.1119 17.3776 22.5074 17.4872 22.7289C17.5811 22.9029 17.722 23.1244 17.8942 23.2035C18.0508 23.2826 18.2856 23.2194 18.3169 23.0453C18.3952 23.1086 18.5048 23.1719 18.5987 23.1402C18.724 23.1086 18.8179 22.9979 18.8805 22.8871C19.0371 22.6182 19.0997 22.191 18.9588 21.9062C18.8649 21.7322 18.724 21.6689 18.5205 21.7005C18.4735 21.7163 18.1447 21.9537 18.1917 22.0011Z" fill="#FF5D5E"/>
<path opacity="0.55" d="M17.4716 22.0962C17.362 22.2544 17.4716 22.5234 17.5655 22.6816C17.6438 22.824 17.769 23.0138 17.9256 23.0929C18.0508 23.1562 18.2544 23.1088 18.3013 22.9506C18.3639 23.0138 18.4579 23.0613 18.5518 23.0297C18.6614 22.998 18.7397 22.9031 18.8023 22.8082C18.8493 22.7132 18.8962 22.6025 18.9119 22.4759C18.3796 22.7607 17.8786 22.6341 17.4716 22.0962Z" fill="#D3393D"/>
<path opacity="0.55" d="M18.8336 21.9062C18.7867 21.8745 18.7241 21.8429 18.6927 21.8429C18.6145 21.8587 18.5988 21.9062 18.5518 21.9378C18.5205 21.9536 18.4892 21.9695 18.4736 21.9695C18.4109 22.0011 18.3327 22.0169 18.2857 22.0644C18.27 22.0802 18.2387 22.1119 18.2544 22.1435C18.2544 22.191 18.3327 22.2542 18.364 22.2701C18.5205 22.3333 18.6927 22.3333 18.8493 22.2384C18.9276 22.2068 18.9432 22.0486 18.9119 21.9695C18.8963 21.9536 18.865 21.922 18.8336 21.9062Z" fill="#F9B888"/>
<path d="M16.454 24.311C16.2975 24.2319 16.1566 24.1212 16.0626 23.9788C15.9687 23.8364 15.9374 23.6307 16.0313 23.4883C16.6262 23.7098 17.2994 23.7573 17.91 23.5991C18.5206 23.4409 19.0998 23.077 19.5069 22.5865C19.5851 22.6498 19.6791 22.7289 19.7574 22.7922C19.3503 23.077 19.2407 23.6149 18.9276 24.0104C18.6458 24.3743 18.2075 24.58 17.7534 24.6274C17.3151 24.6591 16.8611 24.5325 16.454 24.311Z" fill="#FFBD00"/>
<path d="M19.1311 23.346C19.319 23.1403 19.6634 22.7131 19.6634 22.7131C19.6165 22.6657 19.5538 22.634 19.5069 22.5865C19.0998 23.077 18.5206 23.4251 17.91 23.5991C17.2994 23.7573 16.6263 23.7257 16.0313 23.4883C16 23.5358 15.9844 23.5833 15.9844 23.6466C17.3308 24.3901 18.5206 23.9946 19.1311 23.346Z" fill="#FFD428"/>
<path d="M21.683 22.1594C21.8239 22.0803 21.9491 21.9854 22.0274 21.843C22.1057 21.7006 22.137 21.5266 22.0431 21.3842C21.4951 21.6057 20.9002 21.669 20.321 21.5266C19.7574 21.4 19.2251 21.0836 18.8337 20.6406C18.7554 20.7039 18.6928 20.7672 18.6145 20.8304C18.9902 21.0836 19.1155 21.574 19.4129 21.9221C19.6791 22.2385 20.0861 22.4284 20.5088 22.4442C20.9159 22.4917 21.3229 22.3651 21.683 22.1594Z" fill="#FFBD00"/>
<path d="M19.1936 21.3366C19.0214 21.1626 18.6926 20.7671 18.6926 20.7671C18.7396 20.7196 18.7866 20.688 18.8335 20.6405C19.2249 21.0835 19.7572 21.3841 20.3208 21.5265C20.8844 21.6531 21.495 21.6056 22.0429 21.3841C22.0742 21.4316 22.0899 21.479 22.0899 21.5265C20.8844 22.2542 19.7885 21.922 19.1936 21.3366Z" fill="#FFD428"/>
<path d="M16.3444 22.6973C16.3444 22.6973 15.4677 20.9411 12.9002 22.191C10.3483 23.4251 17.0959 23.8206 16.3444 22.6973Z" fill="#9E3724"/>
<path d="M12.9942 22.3651C12.9942 22.3651 14.638 21.2418 15.687 22.3177C16.7515 23.4093 11.9766 22.9347 12.9942 22.3651Z" fill="#BF866A"/>
<path d="M13.2603 22.6023C13.2603 22.6023 13.6516 22.0328 14.1213 21.922C14.1213 21.922 13.636 22.3808 13.2603 22.6023Z" fill="#9E3724"/>
<path d="M14.0431 22.6656C14.0431 22.6656 14.2936 22.017 14.7006 21.8588C14.7006 21.8588 14.2936 22.4283 14.0431 22.6656Z" fill="#9E3724"/>
<path d="M14.9041 22.6975C14.9041 22.6975 15.045 22.2545 15.405 22.0963C15.405 22.0963 15.1389 22.476 14.9041 22.6975Z" fill="#9E3724"/>
<path d="M12.9628 22.5231C12.9628 22.5231 14.4344 21.9535 15.7025 22.6022C15.7182 22.6022 14.6223 22.1908 12.9628 22.5231Z" fill="#9E3724"/>
<path d="M13.4325 22.2386C13.4325 22.2386 14.8102 21.7481 15.5303 22.3809C15.5303 22.3809 14.9511 21.5108 13.4325 22.2386Z" fill="#9E3724"/>
<path d="M16.3445 22.6974C16.3445 22.6974 16.1566 22.3019 15.6713 22.0171C15.546 22.555 15.1077 23.0138 14.6067 23.0613C13.9022 23.0771 13.1351 23.1246 12.4149 22.9031C13.0881 23.5359 16.9237 23.5517 16.3445 22.6974Z" fill="#9E3724"/>
<path d="M8.79897 19.9288C8.79897 19.9288 6.20015 20.2136 5.62089 20.3401C5.04163 20.4825 4.63459 20.3718 4.03968 20.4193C3.44477 20.4667 2.75592 20.6882 2.56805 20.4667C2.38019 20.2452 3.38214 19.9763 3.93009 19.7706C4.46238 19.5649 4.525 18.9954 4.91639 19.2168C5.30778 19.4383 5.26081 19.6598 5.58958 19.6282C5.91835 19.6124 8.11013 18.3783 8.83028 18.6948C9.51913 19.0428 9.53478 19.7231 8.79897 19.9288Z" fill="#ED9C72"/>
<path d="M8.84591 17.0019C8.84591 17.0019 12.0396 17.6506 12.3214 18.5049C12.6032 19.3593 11.9457 20.5933 9.73828 19.6757C7.53084 18.7581 7.90658 18.0145 7.57781 17.4924C7.24904 16.9861 8.1101 16.6697 8.84591 17.0019Z" fill="#FFC2A5"/>
<path d="M9.73825 18.4257C10.1453 18.2675 10.4271 18.1884 10.8655 18.2358C11.2412 18.2675 11.8204 18.2517 12.2745 18.3941C11.7735 17.5872 8.86154 17.0018 8.86154 17.0018C8.12573 16.6696 7.26467 16.986 7.59343 17.5081C7.79696 17.8403 7.73434 18.2675 8.23531 18.7738C8.72064 18.7105 9.26858 18.6156 9.73825 18.4257Z" fill="#ED9C72"/>
<path d="M12.1179 19.3433C11.8518 19.549 11.4917 19.6914 11.1473 19.6439C11.0064 19.6597 10.9124 19.5648 10.8968 19.4224C10.8341 18.9003 10.7715 18.5523 10.3645 18.1567C10.2079 17.9985 10.0357 17.8403 9.86349 17.6979C9.56604 17.4448 9.29989 17.2391 9.01809 17.0334C8.9085 17.0176 8.86154 17.0018 8.86154 17.0018C8.12573 16.6696 7.26467 16.986 7.59343 17.5081C7.9222 18.0302 7.56212 18.7579 9.75391 19.6914C11.6169 20.4666 12.3684 19.7072 12.3997 18.932C12.3997 18.9478 12.384 18.9478 12.3684 18.9636C12.3214 19.0902 12.2588 19.2326 12.1179 19.3433Z" fill="#ED9C72"/>
<path d="M6.18447 16.4323C6.18447 16.4323 10.161 17.872 10.5054 18.9637C10.8498 20.0553 9.94181 20.704 8.45453 20.4192C6.96725 20.1344 4.74416 19.5174 3.61696 19.7231C2.48975 19.9287 2.38016 20.4508 0.986817 20.0395C0.986817 20.0395 0.705017 19.8496 1.75394 19.4383C2.80287 19.0269 2.77155 18.8054 3.11598 18.2201C3.4604 17.6347 3.82048 18.6631 3.99269 18.7105C4.1649 18.7738 6.07488 18.7738 6.93594 18.6631C7.797 18.5523 7.92224 18.3941 8.7833 18.7738C8.7833 18.7738 8.26667 18.5207 7.20209 18.5681C6.13751 18.6314 4.90072 18.6472 4.77547 17.6505C4.68154 16.6538 5.54259 16.1475 6.18447 16.4323Z" fill="#FFC2A5"/>
<path d="M1.7696 19.5334C2.11402 19.2803 2.55238 19.4069 2.86549 19.0113C3.11598 18.7107 3.25688 18.3943 3.38212 18.0462C3.28819 18.0304 3.20991 18.0779 3.11598 18.2203C2.77155 18.8057 2.80286 19.0271 1.75394 19.4385C0.705017 19.8498 0.986817 20.0397 0.986817 20.0397C1.25296 20.1188 1.47214 20.1663 1.67566 20.1821C1.4878 20.0081 1.45648 19.7707 1.7696 19.5334Z" fill="#ED9C72"/>
<path d="M8.20397 18.3466C7.64036 18.3308 6.98283 18.3308 6.43489 18.1884C5.87128 18.046 5.26072 17.5397 4.91629 16.9385C4.82236 17.1442 4.77539 17.3815 4.8067 17.6663C4.91629 18.6789 6.16874 18.6472 7.23332 18.5839C7.34291 18.5839 7.4525 18.5681 7.56209 18.5839C7.40553 18.6156 7.20201 18.6472 6.95152 18.6789C6.20005 18.7738 4.65015 18.7896 4.14917 18.7421C4.18048 18.7738 4.21179 18.8054 4.2431 18.8371H4.25876C4.54056 18.9004 4.79105 19.0111 5.0885 19.0111C5.63645 19.0111 6.20005 19.0111 6.76365 18.9636C7.4525 18.9162 8.14134 18.6314 8.81453 18.6947C8.7206 18.4732 8.56404 18.3624 8.20397 18.3466Z" fill="#ED9C72"/>
<path d="M7.21769 7.8414C7.21769 7.8414 8.06309 9.51844 6.9672 9.88232C5.88697 10.2462 5.24509 10.2462 5.1355 10.5468C5.1355 10.5468 5.99656 11.4961 5.82434 12.3346C5.82434 12.3346 6.84196 14.1065 6.18442 15.0558C5.52689 16.0051 5.21378 16.3531 5.18246 16.7803C5.15115 17.2075 9.06505 17.6821 10.2862 16.5272C10.2862 16.5272 9.31554 15.8469 9.40947 15.1349C9.50341 14.423 9.75389 14.2964 9.94176 13.537C10.1296 12.7776 10.2862 12.3504 9.78521 11.3062C9.28423 10.2462 9.69127 9.97725 9.69127 9.97725C9.69127 9.97725 9.08071 10.0089 8.78325 9.69247C8.48579 9.37605 8.39186 8.77484 8.3762 8.25275C8.39186 8.25275 7.64039 8.17364 7.21769 7.8414Z" fill="#FFC2A5"/>
<path d="M7.06128 9.85068C7.21784 9.88232 7.37439 9.88232 7.5466 9.88232C8.00062 9.8665 8.3607 9.73993 8.70512 9.5659C8.48594 9.23366 8.40766 8.71156 8.40766 8.25275C8.40766 8.25275 7.65619 8.17364 7.23349 7.8414C7.21784 7.8414 8.00062 9.42351 7.06128 9.85068Z" fill="#ED9C72"/>
<path d="M8.72057 4.28176C8.72057 4.28176 9.72252 4.34504 9.76949 5.15192C9.8008 5.65819 9.75383 5.78476 10.0983 6.43342C10.2392 6.70238 10.1452 7.77821 9.20589 8.55345C9.08064 8.6642 8.89278 8.69584 8.73622 8.68002C8.37614 8.64837 7.35853 8.37942 6.9828 8.07881C6.65403 7.80986 6.24698 6.89223 6.05912 6.08536C5.88691 5.34177 6.73231 3.68056 8.15697 3.58563C8.28221 3.53817 8.57967 4.26594 8.72057 4.28176Z" fill="#FFC2A5"/>
<path d="M9.34681 7.14523C9.34681 7.14523 8.84583 7.38255 8.15698 7.30344C8.15698 7.30344 8.3605 7.873 8.76755 7.82554C9.17459 7.76226 9.26853 7.41419 9.34681 7.14523Z" fill="white"/>
<path d="M9.40943 7.12955C9.40943 7.12955 9.33115 7.63582 9.01804 7.79403C8.70493 7.95224 8.17264 7.87314 7.96912 7.25612C7.96912 7.25612 8.25092 7.33522 8.29788 7.39851C8.34485 7.47761 8.54837 7.65164 8.79886 7.62C9.04935 7.58836 9.20591 7.3194 9.23722 7.22447C9.28419 7.14537 9.40943 7.12955 9.40943 7.12955Z" fill="#FF6860"/>
<path d="M9.4094 7.12954C9.4094 7.12954 9.25284 7.0979 9.15891 7.0979C9.06498 7.0979 9.01801 7.0979 8.97104 7.16119C8.97104 7.16119 8.89277 7.11372 8.78318 7.14536C8.67359 7.17701 8.2822 7.38268 7.98474 7.27193C7.98474 7.27193 8.18826 7.41432 8.62662 7.41432C9.15891 7.41432 9.28416 7.25611 9.33112 7.20865C9.39374 7.16118 9.4094 7.12954 9.4094 7.12954Z" fill="#FF6860"/>
<path d="M8.76763 6.87643C8.87722 6.89225 8.98681 6.89225 9.08074 6.84478C9.12771 6.82896 9.15902 6.7815 9.15902 6.73404C9.17467 6.70239 9.15902 6.65493 9.14336 6.62329C9.12771 6.59165 9.0964 6.57582 9.06509 6.56C9.04943 6.56 9.04943 6.54418 9.03378 6.54418C9.00247 6.52836 8.98681 6.49672 8.9555 6.4809C8.90853 6.43344 8.89288 6.38597 8.86157 6.33851C8.83025 6.24358 8.8146 6.14866 8.83025 6.06955C8.84591 6.03791 8.8146 6.00627 8.78329 5.99044C8.75198 5.97462 8.72067 6.00627 8.70501 6.03791C8.6737 6.14866 8.68935 6.27522 8.73632 6.38597C8.76763 6.44926 8.79894 6.51254 8.84591 6.56C8.87722 6.59165 8.90853 6.62329 8.93984 6.63911C8.9555 6.65493 8.97115 6.65493 8.98681 6.67075C9.00246 6.67075 9.01812 6.68657 9.01812 6.70239C9.01812 6.71821 9.01812 6.71821 9.00246 6.73404C8.92419 6.7815 8.83025 6.76568 8.75198 6.74986C8.72067 6.76568 8.70501 6.8606 8.76763 6.87643Z" fill="#DF9378"/>
<path opacity="0.55" d="M9.44069 6.9555C9.51897 7.08206 9.73815 7.09789 9.92602 7.00296C10.1139 6.90803 10.1922 6.71818 10.0982 6.59161C10.02 6.46504 9.80077 6.44922 9.6129 6.54415C9.44069 6.6549 9.36241 6.82893 9.44069 6.9555Z" fill="#FFB299"/>
<path opacity="0.55" d="M7.02982 7.22452C7.07678 7.38273 7.29596 7.49348 7.5308 7.44601C7.76563 7.41437 7.92219 7.24034 7.87522 7.08213C7.82825 6.92392 7.60907 6.81317 7.37424 6.86063C7.13941 6.89228 6.98285 7.05049 7.02982 7.22452Z" fill="#FFB299"/>
<path d="M6.70105 5.99046C6.70105 5.99046 6.8263 5.59493 7.23334 5.32597C7.34293 5.26269 8.11006 5.02537 8.17268 5.21522C8.2353 5.38926 8.18833 5.54747 7.90653 5.53164C7.62473 5.51582 7.3899 5.48418 7.12375 5.70568C6.92023 5.89553 6.73236 6.1012 6.70105 5.99046Z" fill="#9E3724"/>
<path d="M9.81651 5.13607C9.81651 5.13607 9.64429 4.94622 9.42512 4.9304C9.112 4.91458 8.73627 4.91458 8.76758 5.10443C8.79889 5.27846 8.87717 5.40503 9.01807 5.32592C9.17463 5.24682 9.31553 5.16771 9.45643 5.18353C9.56602 5.18353 9.87913 5.3101 9.81651 5.13607Z" fill="#9E3724"/>
<path d="M8.20401 6.27517C8.20401 6.27517 7.84394 5.81636 7.1864 6.38592C7.1864 6.38592 7.42124 6.7498 7.85959 6.59159C8.09443 6.51249 8.18836 6.3701 8.20401 6.27517Z" fill="white"/>
<path d="M8.04743 6.16447C8.07874 6.21194 8.11005 6.27522 8.11005 6.35433C8.11005 6.38597 8.11005 6.43343 8.11005 6.46508C8.06308 6.57582 8.00046 6.57582 7.87521 6.62329C7.78128 6.65493 7.65604 6.62329 7.57776 6.62329C7.49948 6.56 7.45251 6.46508 7.45251 6.35433C7.45251 6.2594 7.48383 6.1803 7.54645 6.11701C7.76563 6.06955 7.93784 6.11701 8.04743 6.16447Z" fill="#654745"/>
<path d="M7.82825 6.2442C7.82825 6.29189 7.87543 6.32368 7.92262 6.32368C7.9698 6.32368 8.00126 6.27599 8.00126 6.22831C8.00126 6.18062 7.95408 6.14883 7.90689 6.14883C7.87543 6.14883 7.82825 6.19652 7.82825 6.2442Z" fill="white"/>
<path d="M8.23524 6.18036C8.23524 6.18036 8.31351 6.59171 7.79688 6.67081C7.28024 6.74992 7.10803 6.30693 7.10803 6.30693L7.21762 6.33857C7.21762 6.33857 7.32721 6.63917 7.73426 6.60753C8.1413 6.57589 8.17261 6.22782 8.17261 6.22782L8.23524 6.18036Z" fill="#E59A72"/>
<path d="M7.01421 6.10124C7.07683 6.19616 7.17076 6.21198 7.24904 6.16452C7.34297 6.06959 7.48387 5.97467 7.6874 5.94302C8.01616 5.89556 8.23534 6.16452 8.23534 6.16452V6.30691C8.12575 6.19616 7.87526 6.06959 7.67174 6.10124C7.46822 6.13288 7.17076 6.40184 7.17076 6.40184C6.96724 6.35437 7.01421 6.10124 7.01421 6.10124Z" fill="#654745"/>
<path d="M9.89484 5.91129C9.9105 5.97457 9.9105 6.03786 9.92615 6.08532C9.84787 6.19607 9.72263 6.32264 9.47214 6.30682C9.26862 6.291 9.15903 6.19607 9.11206 6.10114C9.11206 6.10114 9.29993 5.65815 9.89484 5.91129Z" fill="white"/>
<path d="M9.83219 5.86364C9.8635 5.91111 9.87915 5.97439 9.87915 6.03767C9.87915 6.06932 9.87915 6.11678 9.87915 6.1326C9.83219 6.22753 9.78522 6.24335 9.65997 6.27499C9.5817 6.30663 9.48776 6.30663 9.40949 6.30663C9.33121 6.25917 9.26859 6.14842 9.25293 6.0535C9.25293 5.97439 9.28424 5.89528 9.33121 5.84782C9.56604 5.76872 9.73825 5.81618 9.83219 5.86364Z" fill="#654745"/>
<path d="M9.64429 5.97486C9.64429 6.02254 9.67574 6.05433 9.72293 6.05433C9.77011 6.05433 9.80157 6.02254 9.80157 5.97486C9.80157 5.92718 9.77011 5.89539 9.72293 5.89539C9.67574 5.89539 9.64429 5.94307 9.64429 5.97486Z" fill="white"/>
<path d="M9.56595 6.29092C9.78513 6.24345 9.87906 6.11689 9.91037 6.03778C9.92603 6.06942 9.92603 6.10106 9.94168 6.13271C9.87906 6.24345 9.75382 6.33838 9.53464 6.37002C9.08063 6.41749 9.04932 6.03778 9.04932 6.03778L9.11194 6.06942C9.11194 6.06942 9.22153 6.3542 9.56595 6.29092Z" fill="#E59A72"/>
<path d="M9.95734 5.67395C9.92603 5.76888 9.92603 5.7847 9.84775 5.76888C9.73816 5.70559 9.64423 5.67395 9.45636 5.70559C9.1589 5.73723 9.04932 6.02201 9.04932 6.02201L9.08063 6.14858C9.14325 6.03783 9.33112 5.84798 9.50333 5.83216C9.69119 5.81634 9.87906 5.97455 9.87906 5.97455C10.0513 5.87962 9.95734 5.67395 9.95734 5.67395Z" fill="#654745"/>
<path d="M6.65405 3.0952C6.65405 3.0952 8.39182 2.33579 9.42509 3.36416C10.4584 4.37671 9.75386 5.04119 9.75386 5.04119C9.75386 5.04119 9.75386 4.97791 9.67558 4.8197C9.67558 4.8197 8.76756 5.00955 8.23527 3.87043C8.23527 3.87043 7.24896 3.88625 6.65405 3.0952Z" fill="#9E3724"/>
<path d="M8.32921 3.93364C8.32921 3.93364 8.07872 5.05694 6.48185 5.72142C6.48185 5.72142 6.87324 6.55994 6.85759 6.74979C6.85759 6.92382 6.82628 7.19278 6.59144 7.36681C6.59144 7.36681 5.99653 6.13277 5.82432 5.73724C5.63645 5.34172 5.43293 3.52229 6.66972 3.09512C6.65406 3.09512 7.89086 3.17423 8.32921 3.93364Z" fill="#9E3724"/>
<path d="M9.50344 9.97717C9.50344 9.97717 10.2549 10.1037 10.521 10.7999C10.7872 11.496 11.1316 14.1381 11.4134 14.7868C11.6796 15.4354 13.3234 17.8719 13.9809 18.2674C14.6541 18.6629 15.0768 18.5522 15.5465 18.8053C16.0162 19.0585 17.0651 19.3274 16.7989 19.454C16.5171 19.5806 15.6248 19.0585 15.6248 19.0585C15.6248 19.0585 16.8302 19.4856 16.5484 19.5489C16.2666 19.6122 15.4995 19.2483 15.4995 19.2483C15.4995 19.2483 16.5954 19.5489 16.2666 19.628C15.9379 19.6913 15.3743 19.4698 15.1864 19.3749C14.9985 19.28 14.6228 19.011 14.5289 18.9477C14.5289 18.9477 14.4663 18.9794 14.7637 19.1534C15.0768 19.3274 15.2647 19.5806 14.388 19.3116C14.388 19.3116 13.9809 19.185 13.7931 18.8212C13.6052 18.4573 13.2921 18.2041 12.7755 17.8719C12.2588 17.5396 10.8968 16.4955 10.6306 15.8626C10.3645 15.2298 9.91048 13.6477 9.75393 12.9515C9.59737 12.2554 9.45647 10.2303 9.50344 9.97717Z" fill="#FFC2A5"/>
<path d="M9.65998 15.2774C9.56605 14.7553 9.97309 14.0275 9.97309 14.0275C10.8811 12.8726 10.1296 11.9866 10.1296 11.9866C10.0201 12.0182 9.92613 12.0341 9.83219 12.0499C9.76957 11.7018 9.55039 10.9108 9.64433 9.97733L9.25294 9.89822C9.25294 9.89822 9.53474 11.512 9.25294 12.1606C8.40753 12.2872 7.68738 12.2714 7.17074 12.2081C7.06115 11.7493 6.7637 10.357 6.74804 10.009L6.41927 10.0723C6.41927 10.0723 6.73239 11.4487 6.66976 12.129C6.32534 12.0657 6.15313 12.0024 6.15313 12.0024C5.2138 13.1099 6.18444 13.8377 6.18444 13.8377C6.54452 15.0401 6.04354 15.5305 6.04354 15.5305C5.60519 15.9735 5.11986 16.3216 4.82241 16.8753C4.57192 17.35 4.60323 18.1885 5.08855 18.5365C5.51125 18.8371 6.0592 18.7739 6.56017 18.7739C6.84198 18.7739 7.17074 18.6947 7.45254 18.6156C7.98483 18.4733 8.50147 18.2201 9.65998 18.0461C10.8028 17.8721 12.3058 18.3467 12.3058 18.3467C11.9144 17.3816 9.75391 15.7995 9.65998 15.2774Z" fill="#FCEDF0"/>
<path d="M5.04158 17.5556C4.83806 16.3215 6.92025 15.8153 7.02984 14.597C7.0455 14.5021 7.09247 14.4388 7.15509 14.4072C7.1864 14.3755 7.23337 14.3755 7.29599 14.3755C7.64041 14.4072 7.82828 14.1699 8.12573 14.0908C8.3136 14.0433 8.53278 14.2015 8.72065 14.249C9.159 14.3281 9.12769 14.7394 9.22162 15.1191C9.39384 15.926 9.91047 16.1 10.4897 16.369C10.0514 15.9102 9.70695 15.4988 9.67564 15.2932C9.5817 14.7711 9.98875 14.0433 9.98875 14.0433C10.1766 13.8218 10.2862 13.6003 10.3488 13.3946C10.1296 13.6636 9.83219 13.8534 9.53474 13.8851C9.04941 13.9325 8.62671 13.7902 8.3136 13.5054C8.1727 13.6794 8.00049 13.8218 7.79697 13.8534C7.45254 13.9167 6.95156 13.9009 6.63845 13.7269C5.93395 13.3472 6.16879 12.6827 6.43493 12.0973C6.24706 12.0498 6.15313 12.0182 6.15313 12.0182C5.2138 13.1257 6.18444 13.8534 6.18444 13.8534C6.54452 15.0558 6.04354 15.5463 6.04354 15.5463C5.60519 15.9893 5.11986 16.3373 4.82241 16.8911C4.57192 17.3657 4.60323 18.2042 5.08855 18.5523C5.4956 18.8371 6.02789 18.7896 6.51321 18.7896C5.7774 18.5839 5.16683 18.2517 5.04158 17.5556Z" fill="#E7CED2"/>
<path d="M10.0515 16.3055C10.0672 16.2738 10.0985 16.2422 10.1142 16.2105C10.3647 16.258 10.396 16.6219 10.396 16.8117C10.3177 16.8117 10.349 16.7326 10.349 16.6852C10.349 16.6377 10.3177 16.5744 10.302 16.527C10.2551 16.4162 10.1611 16.3371 10.0359 16.3213C10.0359 16.3213 10.0359 16.3055 10.0515 16.3055Z" fill="#079840"/>
<path d="M10.3804 16.7326C10.396 16.5744 10.4586 16.3213 10.5996 16.2263C10.6778 16.1789 10.7561 16.1472 10.8344 16.1314C10.9127 16.1156 11.0066 16.1314 11.0692 16.0998C10.9283 16.258 11.0379 16.4953 10.897 16.5902C10.8344 16.6377 10.3804 16.7326 10.3804 16.7326Z" fill="#079840"/>
<path d="M10.8814 16.2421C10.8814 16.2421 10.7405 16.4003 10.6623 16.4794C10.584 16.5427 10.3961 16.7009 10.3961 16.7009C10.5057 16.6692 10.6153 16.5901 10.7092 16.5268C10.7875 16.4477 10.8814 16.2421 10.8814 16.2421Z" fill="#C0D979"/>
<path d="M10.4116 16.7961C10.302 16.6696 10.0202 16.5746 9.86363 16.5905C9.58183 16.6379 9.6288 17.0176 9.67576 17.2233C9.70707 17.3815 9.78535 17.603 9.9106 17.7138C10.0202 17.8087 10.2237 17.8245 10.302 17.6821C10.3489 17.7454 10.4272 17.8245 10.5055 17.8245C10.6151 17.8245 10.7247 17.7612 10.803 17.6821C10.9908 17.5081 11.1474 17.16 11.0848 16.8911C11.0534 16.7329 10.9439 16.6379 10.7716 16.6221C10.709 16.6221 10.3646 16.7487 10.4116 16.7961Z" fill="#FF5D5E"/>
<path opacity="0.55" d="M9.78533 16.7013C9.66008 16.812 9.6914 17.0493 9.72271 17.2075C9.75402 17.3499 9.81664 17.524 9.92623 17.6189C10.0202 17.698 10.1924 17.7138 10.255 17.5872C10.302 17.6505 10.3646 17.7138 10.4429 17.7138C10.5368 17.7138 10.6307 17.6505 10.6934 17.5872C10.756 17.524 10.8186 17.4449 10.8656 17.3499C10.3802 17.4765 10.0045 17.2392 9.78533 16.7013Z" fill="#D3393D"/>
<path opacity="0.55" d="M10.9595 16.8594C10.9282 16.8119 10.8812 16.7803 10.8499 16.7803C10.7873 16.7644 10.7559 16.8119 10.709 16.8277C10.6777 16.8277 10.662 16.8435 10.6307 16.8435C10.5681 16.8594 10.5055 16.8594 10.4428 16.891C10.4272 16.9068 10.3959 16.9226 10.3959 16.9543C10.3959 16.9859 10.4272 17.065 10.4585 17.0967C10.5681 17.1916 10.7246 17.2232 10.8655 17.1916C10.9438 17.1758 10.9908 17.065 10.9751 16.9859C10.9908 16.9226 10.9751 16.891 10.9595 16.8594Z" fill="#F9B888"/>
<path d="M5.76183 11.1005C5.76183 11.1005 5.2452 10.088 4.79119 10.8316C4.35283 11.5751 3.99275 13.9325 3.61702 14.771C3.61702 14.771 3.53874 14.8976 3.88316 15.0874C4.22759 15.2773 6.70117 16.3056 8.37632 16.7328C8.37632 16.7328 8.50156 16.7803 8.64246 17.0334C8.78336 17.2866 8.95557 17.9194 9.22172 17.9669C9.48786 18.0143 10.2393 18.2675 10.2237 18.0618C10.2237 18.0618 10.6151 18.1409 10.5838 18.0143C10.5524 17.8878 9.89491 17.603 9.80098 17.4764C9.80098 17.4764 10.5681 17.951 10.5524 17.7137C10.5368 17.4764 9.76966 17.2866 9.64442 17.1916C9.51917 17.0967 9.45655 17.0018 9.45655 17.0018C9.45655 17.0018 10.0984 17.2707 10.1924 17.1916C10.2863 17.1125 10.208 16.891 9.48786 16.6854C8.75205 16.4797 8.90861 16.543 8.72074 16.4639C8.53287 16.3848 5.41741 14.9134 4.88512 14.328C4.88512 14.328 5.527 12.8408 5.8088 12.3662C6.12191 11.8916 5.76183 11.1005 5.76183 11.1005Z" fill="#FFC2A5"/>
<path d="M6.74808 3.20596C6.74808 3.20596 5.85571 2.65222 5.29211 3.69642C4.72851 4.74061 4.41539 5.81644 4.43105 6.84481C4.44671 7.889 3.58565 8.58513 4.10228 9.36036C4.61892 10.1356 5.46432 10.4204 5.44866 10.7368C5.43301 11.0532 5.08859 11.1007 5.13555 10.7368C5.13555 10.7368 4.5563 10.6419 4.77547 11.2589C4.99465 11.8759 6.01227 12.1607 7.06119 10.9741C8.11011 9.78753 6.8107 8.06303 6.60718 7.49348C6.60718 7.49348 5.9653 5.92719 6.51324 5.07285C7.06119 4.21851 7.0925 3.87045 6.74808 3.20596Z" fill="#9E3724"/>
<path d="M6.27838 6.46489C6.27838 6.46489 5.71478 5.87951 5.40167 6.22757C5.10421 6.57564 5.76175 7.71475 6.16879 7.58818C6.57584 7.46162 6.54453 7.33505 6.54453 7.33505L6.27838 6.46489Z" fill="#FFC2A5"/>
<path d="M5.63647 6.43333C5.63647 6.43333 6.16876 6.40168 6.23139 6.84467C6.27835 7.12945 6.09049 7.43005 5.91827 7.28766C5.74606 7.14527 5.96524 6.95542 5.94959 6.81303C5.91827 6.65482 5.84 6.55989 5.63647 6.43333Z" fill="#DC8A64"/>
<path d="M20.227 23.4251C20.2583 22.7922 20.6654 22.634 20.9002 22.5391C21.1037 22.46 21.3699 22.4284 21.589 22.4758C21.6517 22.4916 21.7613 22.5707 21.8239 22.5549C21.8708 22.5549 21.9022 22.5075 21.9335 22.4916C21.9804 22.4758 22.0274 22.46 22.0744 22.4916C22.137 22.5233 22.1996 22.5866 22.1996 22.6815C22.1996 22.729 22.184 22.7606 22.1683 22.7922C22.1526 22.8239 22.1526 22.8872 22.1683 22.9346C22.184 23.1245 22.1683 23.2985 22.1213 23.4884C22.0587 23.694 21.9648 23.8364 21.8082 23.963C21.6204 24.1212 21.4481 24.2161 21.2133 24.232C21.0098 24.2478 20.8376 24.2161 20.6497 24.137C20.5245 24.0579 20.2114 23.7573 20.227 23.4251Z" fill="#7EC768"/>
<path opacity="0.55" d="M21.5107 23.5992C21.3228 23.615 21.1819 23.5833 21.0097 23.5201C20.8845 23.4726 20.6183 23.2036 20.634 22.9189C20.634 22.8556 20.6496 22.8081 20.6496 22.7607C20.4931 22.8714 20.3365 23.0454 20.3052 23.4093C20.2896 23.6941 20.5557 23.9631 20.681 24.0105C20.8532 24.0738 20.9941 24.1054 21.1819 24.0896C21.3855 24.0738 21.542 23.9947 21.7142 23.8523C21.8551 23.7416 21.9334 23.615 21.996 23.4251C21.996 23.4093 21.996 23.3935 22.0117 23.3777C21.8551 23.5201 21.7142 23.5833 21.5107 23.5992Z" fill="#95BF1C"/>
<path d="M21.2134 23.8841L22.9668 23.1564C22.9668 23.1564 23.3112 24.0898 22.4971 24.4221C21.73 24.7543 21.3073 24.3429 21.2134 23.8841Z" fill="#FFCC00"/>
<path d="M21.2134 23.8841L22.9668 23.1564C22.9668 23.1564 23.3112 24.0898 22.4971 24.4221C21.73 24.7543 21.3073 24.3429 21.2134 23.8841Z" fill="#FFCC00"/>
<path d="M21.323 23.8524L22.8103 23.2354C22.8103 23.2354 23.0921 24.0265 22.4032 24.3112C21.7614 24.596 21.4013 24.2321 21.323 23.8524Z" fill="#FFB600"/>
<path d="M21.6831 23.979L22.0432 23.5677L21.5735 23.7575C21.5735 23.7575 21.5109 23.9632 21.6831 23.979Z" fill="#FFEDA5"/>
<path d="M21.9179 24.153C21.9179 24.153 21.7144 24.2638 21.6831 24.0107L22.0432 23.5993L21.9179 24.153Z" fill="#FFEDA5"/>
<path d="M22.7007 23.5518L22.1371 23.5202L22.685 23.2987C22.685 23.2987 22.8729 23.4094 22.7007 23.5518Z" fill="#FFEDA5"/>
<path d="M22.5441 23.8366C22.5441 23.8366 22.7946 23.8208 22.7007 23.5993L22.1371 23.5677L22.5441 23.8366Z" fill="#FFEDA5"/>
<path d="M22.2779 24.0741C22.2779 24.0741 22.544 24.169 22.5284 23.8526L22.1213 23.5836L22.2779 24.0741Z" fill="#FFEDA5"/>
<path d="M21.9648 24.153C21.9648 24.153 22.1684 24.3429 22.2623 24.0898L22.1057 23.5993L21.9648 24.153Z" fill="#FFEDA5"/>
<path d="M20.5402 23.4725C19.9922 23.3617 19.4599 23.7414 19.3503 24.2952C19.2407 24.8489 19.6165 25.3868 20.1644 25.4976C20.7124 25.6083 21.2447 25.2286 21.3542 24.6749C21.4638 24.1211 21.1038 23.5832 20.5402 23.4725Z" fill="#FF9900"/>
<path opacity="0.55" d="M20.5088 24.8171C20.0235 24.7222 19.7104 24.2634 19.7887 23.7887C19.6165 23.9153 19.4912 24.121 19.4443 24.3425C19.3503 24.8329 19.6791 25.3075 20.1644 25.4025C20.6497 25.4974 21.1194 25.1652 21.2133 24.6747C21.2133 24.6589 21.2133 24.6589 21.2133 24.6431C21.0098 24.8013 20.7593 24.8804 20.5088 24.8171Z" fill="#DD9900"/>
<path opacity="0.55" d="M21.0567 24.3267C21.0567 24.4691 20.9158 24.5957 20.7593 24.5957C20.5871 24.5957 20.4462 24.4849 20.4462 24.3267C20.4462 24.1843 20.5871 24.0578 20.7436 24.0578C20.9158 24.0578 21.0411 24.1685 21.0567 24.3267Z" fill="#FF9900"/>
<path d="M31.0225 16.2796C31.0425 16.2387 31.0425 16.2183 31.0624 16.1774C31.202 15.7892 31.3415 15.1967 31.8599 15.2376C32.159 15.258 32.6774 15.5032 32.797 15.8097C32.8369 15.9527 32.8369 16.0957 32.8369 16.2592C32.7572 17.8937 32.3384 19.5078 31.7802 21.0402C31.6207 21.4692 31.4412 22.0413 31.0624 22.3069C30.7633 22.5113 30.2848 22.45 29.9857 22.2865C29.6069 22.0618 29.7664 21.6123 29.8462 21.2241C30.0256 20.1412 30.2449 19.0787 30.5241 18.0163C30.6636 17.4238 30.8431 16.8312 31.0225 16.2796Z" fill="#F7967C"/>
<path d="M32.0594 17.6077C32.0993 17.9551 32.1192 18.3228 32.1591 18.6702C32.199 19.0788 32.2189 19.5079 32.2588 19.9165C32.2787 20.1208 32.2987 20.3251 32.2987 20.5499C32.3186 20.7133 32.3186 20.8359 32.0993 20.7746C31.6806 20.6725 31.2818 20.5295 30.883 20.366C30.6837 20.2843 30.4843 20.1821 30.2849 20.08C30.1653 20.0187 29.926 19.9369 29.9061 19.7735C29.8861 19.6713 29.926 19.5692 29.9459 19.467C30.1653 18.7928 30.3447 18.1185 30.5042 17.4238C30.564 17.1582 30.6238 16.8722 30.7235 16.627C30.7634 16.5248 30.8232 16.3205 30.9628 16.341C31.1422 16.3614 31.3018 16.3818 31.4812 16.4227C31.6008 16.4431 31.8002 16.4431 31.88 16.5453C31.9398 16.627 31.9398 16.8109 31.9597 16.9131C32.0195 17.1582 32.0195 17.383 32.0594 17.6077Z" fill="#FFEE76"/>
<path d="M38.3598 15.6056C38.2003 15.4626 38.0208 15.3604 37.8215 15.2583C37.4626 15.0744 37.0837 14.8905 36.7249 14.6862C36.0071 14.3184 35.2095 13.9915 34.3921 14.155C33.5347 14.3184 32.6973 14.7883 31.8799 15.1152C31.8001 15.1561 31.7203 15.1765 31.6406 15.2174C31.4811 16.0142 31.6007 16.8519 31.7004 17.6488C31.8001 18.5069 31.8799 19.3855 31.9795 20.2436C32.0394 20.4683 32.0992 20.6931 32.159 20.9383C32.3185 21.5104 32.4581 22.0825 32.4381 22.675C32.4381 22.961 32.2387 23.2879 32.5976 23.3697C32.9765 23.4514 33.4151 23.4309 33.8139 23.4514C34.6313 23.4718 35.4488 23.4718 36.2663 23.4309C36.5454 23.4105 36.8245 23.3901 37.0837 23.3084C37.1635 23.2879 37.2433 23.2471 37.2632 23.1858C37.2831 23.1449 37.2831 23.104 37.2831 23.0427C37.3429 22.1437 37.5224 21.2652 37.662 20.3866C37.7616 19.7124 37.8414 18.9973 38.0208 18.3435C38.1205 17.9961 38.2202 17.6692 38.3 17.3219C38.3797 17.0154 38.5193 16.6885 38.5791 16.382C38.6389 16.096 38.619 15.8304 38.3598 15.6056Z" fill="#FFEE76"/>
<path d="M38.3598 15.6056C38.2003 15.4626 38.0208 15.3604 37.8215 15.2583C37.4626 15.0744 37.0837 14.8905 36.7249 14.6862C36.0071 14.3184 35.2095 13.9915 34.3921 14.155C33.5347 14.3184 32.6973 14.7883 31.8799 15.1152C31.8001 15.1561 31.7203 15.1765 31.6406 15.2174C31.5608 15.626 31.5608 16.0347 31.5808 16.4433C31.7602 16.4637 31.9197 16.4842 32.0992 16.525C32.9765 16.6476 33.8737 16.7498 34.7709 16.7702C35.3292 16.7702 35.8874 16.7498 36.4457 16.6885C37.1635 16.6272 37.9012 16.5455 38.5991 16.3616C38.6389 16.096 38.619 15.8304 38.3598 15.6056Z" fill="#F7967C"/>
<path d="M38.1605 26.4343C38.1007 27.6397 37.7418 28.8248 36.8645 29.4377C36.1268 29.9485 35.2097 29.8872 34.3324 29.8668C33.5947 29.8464 32.8769 29.8464 32.1392 29.8464C30.7036 29.8464 29.288 29.8668 27.8524 29.7238C27.1745 29.642 26.4368 29.5195 25.9583 29.0291C25.8586 28.9269 25.7589 28.7839 25.719 28.6409C25.6792 28.5183 25.6792 28.4161 25.6792 28.2936C25.6592 27.9462 25.719 27.5376 25.9982 27.3537C25.8187 27.1289 25.739 26.802 25.7988 26.516C25.8985 26.0869 26.1976 25.9643 26.5166 25.7396C27.6132 25.0245 28.8095 24.575 30.0257 24.1663C30.1852 24.1051 30.3447 24.0642 30.4843 24.0029C31.541 23.6147 32.5579 23.1243 33.6146 22.6748C34.6713 22.2253 35.7081 21.9597 36.8446 21.878C37.0041 21.8576 37.1836 21.878 37.2832 22.0006C37.3431 22.0823 37.3829 22.2049 37.4029 22.3071C37.5624 23.0222 37.8016 23.7168 37.9811 24.432C38.1207 25.0245 38.2004 25.7192 38.1605 26.4343Z" fill="#654745"/>
<path d="M32.1591 29.8465C30.7235 29.8465 29.3079 29.8669 27.8723 29.7239C27.1944 29.6422 26.4567 29.5196 25.9782 29.0292C25.8785 28.9271 25.7788 28.784 25.7389 28.641C25.6991 28.5184 25.6991 28.4163 25.6991 28.2937C25.6791 27.9463 25.7389 27.5377 26.0181 27.3538C25.8386 27.1291 25.7589 26.8022 25.8187 26.5161C25.9184 26.0871 26.2175 25.9645 26.5365 25.7397C27.6331 25.0246 28.8294 24.5751 30.0456 24.1665C30.2051 24.1052 30.3646 24.0643 30.5042 24.003V24.0235C30.5241 24.1256 30.5042 24.2686 30.5042 24.3912C30.5241 24.759 30.5839 25.1063 30.6438 25.4741C30.7833 26.2505 30.9827 27.0065 31.2618 27.742C31.4612 28.2528 31.6805 28.7432 31.8999 29.2335C31.9796 29.4379 32.0594 29.6422 32.1591 29.8261V29.8465Z" fill="#F7967C"/>
<path d="M30.7435 26.7203C30.1653 26.7407 29.5871 26.7816 28.989 26.8429C28.4107 26.9042 27.8325 26.9655 27.2543 27.0472C26.9353 27.0881 26.5964 27.1494 26.2774 27.2107C26.2375 27.2107 26.2574 27.2515 26.2973 27.2515C26.8755 27.1494 27.4537 27.0676 28.012 26.9859C28.5902 26.9042 29.1684 26.8633 29.7466 26.802C30.0656 26.7816 30.4046 26.7612 30.7435 26.7407C30.7834 26.7612 30.7834 26.7203 30.7435 26.7203Z" fill="#DB6357"/>
<path d="M38.0608 29.2949C38.1207 28.9476 38.1207 28.5185 38.1207 28.3755C38.1406 26.7205 38.2203 25.0656 38.3799 23.431C38.5992 21.1427 38.8584 18.8952 38.8384 16.5864C38.8384 16.2595 38.8185 15.9326 38.6989 15.6465C38.5792 15.3605 38.3001 15.0949 37.9811 15.0949C37.702 15.0949 37.4428 15.2992 37.3032 15.5444C37.1636 15.7896 37.1237 16.0756 37.0839 16.3616C36.9443 17.4037 36.8845 18.4457 36.8645 19.5081C36.8446 20.5297 36.7449 21.5513 36.725 22.5729C36.725 24.7182 36.9244 26.884 37.2434 28.9884C37.2832 29.2132 37.3032 29.5197 37.4826 29.6831C37.8415 29.9692 38.001 29.6831 38.0608 29.2949Z" fill="#F7967C"/>
<path d="M37.662 29.9691C37.7816 30.0509 37.9212 30.1122 38.0608 30.1735C38.2203 30.2348 38.3798 30.2756 38.5592 30.296C38.5991 30.296 38.619 30.296 38.6589 30.2756C38.7387 30.2348 38.6988 30.1735 38.639 30.153C38.5991 30.1326 38.5393 30.1326 38.4994 30.1122C38.3997 30.0917 38.32 30.0304 38.2402 29.9691C38.1804 29.9283 38.2203 29.8874 38.2601 29.8874C38.4795 29.867 38.6988 29.9283 38.9181 30.01C39.1175 30.1122 39.3169 30.2143 39.5163 30.3165C39.5561 30.3369 39.596 30.3369 39.6359 30.3165C39.6558 30.296 39.6359 30.2552 39.616 30.2348C39.5561 30.153 39.5163 30.0713 39.4564 29.9896C39.3568 29.8465 39.1773 29.7444 39.0377 29.6422C38.7187 29.4379 38.3399 29.2949 37.9611 29.2949C37.7816 29.2949 37.5025 29.3153 37.4028 29.4788C37.2632 29.6422 37.5424 29.8874 37.662 29.9691Z" fill="#F7967C"/>
<path d="M38.5792 16.0143C38.6988 15.9734 38.8383 15.953 38.9181 16.0551C38.9979 16.1368 38.9979 16.2594 39.0178 16.382C39.1773 17.6692 39.3169 18.9769 39.4764 20.2641C39.3368 20.3049 39.2172 20.4071 39.0776 20.4479C38.9181 20.5092 38.7586 20.5297 38.5991 20.5297C37.7417 20.6114 36.8844 20.6523 36.027 20.6318C36.0071 20.6318 35.9672 20.6318 35.9473 20.6114C35.9074 20.591 35.9074 20.5297 35.9074 20.4888C35.8675 19.6511 36.047 18.8338 36.2862 18.0574C36.4059 17.6692 36.5255 17.2606 36.685 16.8928C36.8046 16.6068 37.0439 16.6068 37.323 16.5046C37.6421 16.4025 37.9411 16.3003 38.2402 16.1777C38.3 16.1573 38.4396 16.0755 38.5792 16.0143Z" fill="#FFEE76"/>
<path d="M26.676 16.0755C26.6161 15.9529 26.5563 15.8507 26.4965 15.7486C26.4367 15.6873 26.3769 15.626 26.3171 15.6055C26.2772 15.5851 26.2174 15.5851 26.1775 15.5851C25.9781 15.5851 25.7987 15.5851 25.5993 15.6055C25.4996 15.6055 25.3999 15.626 25.3202 15.6464C25.1407 15.6668 25.0011 15.8099 24.9015 15.9733C24.8815 15.9937 24.8616 16.0346 24.8815 16.0755L24.9015 16.0959C25.041 16.1368 25.1606 16.0142 25.3002 16.0142C25.2603 16.0142 25.2005 16.0755 25.1806 16.0959C25.1407 16.1368 25.1008 16.1572 25.061 16.2185C24.9812 16.3002 24.9015 16.4024 24.8616 16.525C24.8217 16.6271 24.9214 16.6271 24.9812 16.5658C25.041 16.525 25.1008 16.4637 25.1606 16.4228C25.1806 16.4024 25.2603 16.3411 25.3002 16.3615C25.3401 16.382 25.3002 16.4228 25.2803 16.4432C25.2005 16.5045 25.1208 16.5658 25.061 16.6476C25.0211 16.6884 24.9812 16.7293 24.9613 16.7702C24.9413 16.811 24.9413 16.8314 24.9613 16.8723C24.9812 16.954 25.061 16.9132 25.1008 16.8723C25.2005 16.811 25.3002 16.7497 25.3999 16.6884C25.36 16.7089 25.2005 16.9745 25.3202 16.9949C25.3401 16.9949 25.36 16.9949 25.38 16.9745C25.4797 16.9336 25.5395 16.8519 25.6392 16.811C25.7389 16.7702 25.8386 16.7089 25.9382 16.7293C26.018 16.7293 26.0379 16.7906 26.0977 16.8314C26.1576 16.8927 26.2373 16.9336 26.3171 16.9745C26.3569 17.0358 26.4367 17.0562 26.5364 17.0562C26.5763 17.0562 26.5962 17.0358 26.656 17.0562C26.6959 17.0766 26.7557 17.0971 26.7956 17.1175C26.8355 17.1379 26.8953 17.1379 26.9352 17.1175C26.995 17.0971 27.0348 17.0358 27.0348 16.954C27.0747 16.7906 26.995 16.7089 26.9352 16.5658C26.8355 16.4024 26.7557 16.2389 26.676 16.0755Z" fill="#F7967C"/>
<path d="M26.5563 15.1354L26.4765 15.9935C26.4367 16.3817 26.1575 16.6678 25.7787 16.7086C25.7588 16.7086 25.7388 16.7086 25.7189 16.7086H25.6591C25.6391 16.7086 25.6192 16.7086 25.5992 16.7086C25.2204 16.6678 24.9413 16.3817 24.9014 15.9935L24.8217 15.1354H26.5563Z" fill="#E75860"/>
<path d="M24.762 14.5023L24.8218 15.1357L24.9015 15.9939C24.9414 16.3821 25.2205 16.6681 25.5994 16.709C25.6193 16.709 25.6392 16.709 25.6592 16.709H25.719C25.7389 16.709 25.7589 16.709 25.7788 16.709C26.1576 16.6681 26.4368 16.3821 26.4767 15.9939L26.5564 15.1357L26.6162 14.5023H24.762ZM26.377 15.9939C26.357 16.3208 26.0978 16.5864 25.7788 16.6068C25.7589 16.6068 25.7389 16.6068 25.719 16.6068H25.6592C25.6392 16.6068 25.6193 16.6068 25.5994 16.6068C25.2804 16.566 25.0212 16.3208 25.0012 15.9939L24.9215 15.1357L24.8617 14.5841H26.4966L26.4567 15.1153L26.377 15.9939Z" fill="#98BAF4"/>
<path d="M25.7789 16.6068V18.7112H25.5795V16.6068C25.5994 16.6068 25.6193 16.6068 25.6393 16.6068H25.6991C25.739 16.6068 25.7589 16.6068 25.7789 16.6068Z" fill="#98BAF4"/>
<path d="M26.5564 18.6293V18.6498C26.5564 18.6906 26.4966 18.711 26.4168 18.711H24.9812C24.9015 18.711 24.8417 18.6906 24.8417 18.6498V18.6293C24.8417 18.5885 24.9015 18.568 24.9812 18.568H26.4168C26.4966 18.568 26.5564 18.5885 26.5564 18.6293Z" fill="#98BAF4"/>
<path d="M26.4965 16.0958C26.337 15.9936 26.1575 15.9528 25.9781 15.9323C25.8186 15.9119 25.659 15.8915 25.5195 15.9323C25.4597 15.9528 25.4198 15.9732 25.3999 16.0345C25.3799 16.1162 25.4597 16.1571 25.5195 16.1775C25.6192 16.198 25.7587 16.2184 25.8784 16.2593C25.9781 16.3205 26.0778 16.4023 26.1376 16.5249C26.1774 16.6066 26.2173 16.6883 26.2572 16.77C26.317 16.8926 26.4167 16.9744 26.5363 17.0152C26.5563 17.0357 26.5961 17.0561 26.6161 17.0561C26.6759 17.0357 26.7357 16.9744 26.7557 16.8926C26.8753 16.5453 26.7158 16.2388 26.4965 16.0958Z" fill="#F7967C"/>
<path d="M26.8753 17.9348C27.2143 18.4865 27.5532 19.0177 27.8922 19.5694C28.3508 20.2845 28.7894 20.9792 29.3477 21.6126C29.6069 21.8986 29.8262 22.2459 30.2449 22.2664C30.6437 22.2868 30.9826 22.1438 31.0823 21.7147C31.1621 21.4082 31.0624 21.0609 30.9228 20.7749C30.6437 20.1823 30.1851 19.692 29.7464 19.222C29.2081 18.65 28.6299 18.0983 28.0517 17.5671C27.8124 17.3423 27.5732 17.138 27.294 16.9541C27.0548 16.7907 26.8554 16.4433 26.5364 16.4433C26.4167 16.4433 26.2971 16.5046 26.2373 16.6068C26.1974 16.6885 26.1575 16.7907 26.1974 16.8724C26.2174 16.9337 26.2971 16.995 26.337 17.0767C26.5164 17.3628 26.6959 17.6488 26.8753 17.9348Z" fill="#F7967C"/>
<path d="M33.5149 13.5828C33.5348 13.7462 33.5747 13.9097 33.5946 14.0731C33.6145 14.1957 33.6345 14.2979 33.6544 14.4205C33.6744 14.4818 33.6744 14.5431 33.6943 14.6248C33.6943 14.6452 33.6943 14.6656 33.7142 14.6861C33.7342 14.7474 33.7342 14.8087 33.7541 14.8904C33.7541 14.9108 34.4918 14.8904 34.5716 14.8904C34.8507 14.8904 35.1299 14.8904 35.409 14.87C35.5286 14.87 35.6283 14.8495 35.7479 14.8087C35.7878 14.7882 35.8078 14.7882 35.8277 14.7474C35.8476 14.7065 35.8476 14.6656 35.8476 14.6248C35.8277 14.5839 35.8078 14.5431 35.7878 14.5022C35.728 14.4613 35.728 14.4205 35.7081 14.3796C35.6682 14.2774 35.6482 14.1957 35.6283 14.0936C35.5685 13.8892 35.5087 13.7054 35.4489 13.501C35.3292 13.0924 35.2694 12.6225 35.0501 12.2751C34.6115 11.56 33.8737 12.2547 33.5946 12.9698C33.5747 13.0311 33.5547 13.0924 33.5348 13.1537C33.5149 13.2967 33.4949 13.4397 33.5149 13.5828Z" fill="#F7967C"/>
<path d="M33.5149 13.5828C33.5348 13.7462 33.5747 13.9097 33.5947 14.0731C33.6545 14.0731 33.6943 14.0527 33.7342 14.0323C33.8339 13.9914 33.9336 13.9301 34.0134 13.8484C34.1928 13.7054 34.4321 13.5215 34.452 13.2763C34.4719 13.0924 34.3124 12.9698 34.1529 12.9494C33.9934 12.929 33.7741 12.929 33.6146 12.9698C33.5947 13.0311 33.5747 13.0924 33.5548 13.1537C33.5149 13.2967 33.495 13.4398 33.5149 13.5828Z" fill="#DB6357"/>
<path d="M32.2188 9.86419C32.159 10.1298 32.159 10.4363 32.2188 10.7428C32.2587 10.9062 32.3385 11.1514 32.2786 11.3148C32.1989 11.5192 32.0593 11.7235 31.8998 11.8665C31.84 11.9278 31.7603 11.9891 31.7603 12.0708C31.7603 12.1321 31.8001 12.1934 31.8599 12.2343C31.9198 12.2751 31.9796 12.2751 32.0394 12.2956C32.0992 12.316 32.179 12.3364 32.2188 12.3977C32.2388 12.4182 32.2388 12.459 32.2388 12.4795C32.2786 12.8064 32.2388 13.4806 32.6974 13.5419C33.2357 13.6236 33.8538 13.4193 34.2725 13.0515C34.4719 12.8677 34.5716 12.6633 34.7111 12.4386C34.8108 12.2751 35.0899 12.2751 35.2694 12.2138C35.4688 12.1525 35.708 12.0504 35.8277 11.8461C36.027 11.4987 36.027 10.9471 35.9872 10.5589C35.9473 10.3341 35.8875 10.1298 35.8277 9.90506C35.6482 9.37383 35.4289 8.94477 34.8906 8.74045C34.6912 8.65872 34.4719 8.63829 34.2725 8.61786C33.8538 8.59743 33.4351 8.65872 33.0762 8.84261C32.5977 9.06736 32.3185 9.43513 32.2188 9.86419Z" fill="#F7967C"/>
<path d="M32.4179 10.7228C32.4778 10.7023 32.5774 10.7023 32.6373 10.7023C32.7768 10.7228 32.9363 10.7841 33.056 10.8454C33.1158 10.8862 33.2553 10.9679 33.2553 11.0701C33.0759 10.9679 32.8566 10.9066 32.6572 10.9066C32.5974 10.9066 32.5575 10.9066 32.4977 10.9066C32.4379 10.8862 32.398 10.8658 32.3781 10.8045C32.3581 10.7636 32.3781 10.7432 32.4179 10.7228Z" fill="#272443"/>
<path d="M34.3323 13.0924C34.3124 12.8064 34.3722 12.5407 34.2127 12.2956C34.0731 12.0708 33.8339 11.9482 33.7142 11.7235C33.5547 11.417 33.6743 11.0288 33.5148 10.7019C33.455 10.5793 33.3753 10.4771 33.2756 10.375C33.0563 10.1298 32.8569 9.88462 32.6575 9.619C32.4581 9.33296 32.4382 8.88346 32.817 8.7813C32.9366 8.74044 33.0563 8.74044 33.1759 8.72001C33.3952 8.65871 33.5747 8.55656 33.794 8.49526C34.0332 8.43397 34.2924 8.43397 34.5118 8.51569C34.6713 8.57699 34.8108 8.65871 34.9903 8.72001C35.09 8.74044 35.1897 8.76087 35.2894 8.80174C35.5485 8.88346 35.7679 9.08778 35.8476 9.33296C35.8875 9.43512 35.9074 9.53728 35.9473 9.619C36.0869 9.96634 36.4657 10.1707 36.5654 10.5384C36.6452 10.8449 36.4856 11.1514 36.4657 11.4579C36.4458 11.7439 36.5255 12.0095 36.685 12.2343C36.9243 12.5407 37.3231 12.7655 37.3829 13.1537C37.4227 13.358 37.4028 13.4397 37.5424 13.6032C37.6421 13.7258 37.7617 13.8484 37.9212 13.9301C38.0209 13.9914 38.1206 14.0118 38.2003 14.0731C38.2801 14.1344 38.3598 14.2366 38.3798 14.3387C38.3798 14.4409 38.3399 14.5226 38.3598 14.6248C38.3798 14.7474 38.4795 14.8495 38.5592 14.9312C38.6589 15.0334 38.7387 15.1356 38.7586 15.2786C38.7985 15.4012 38.7586 15.5646 38.639 15.6464C38.4994 15.7485 38.3 15.6668 38.1405 15.6464C38.0209 15.6259 37.8813 15.6055 37.7617 15.6259C37.7218 15.6259 37.6819 15.6259 37.662 15.6668C37.6421 15.6872 37.6221 15.7281 37.6022 15.7485C37.5623 15.7894 37.5025 15.7894 37.4427 15.7689C37.2832 15.7485 37.1436 15.6872 37.004 15.6055C36.8645 15.5033 36.705 15.3807 36.5455 15.4012C36.4856 15.4012 36.4458 15.4216 36.386 15.442C36.2663 15.4625 36.1268 15.4216 36.0271 15.3399C35.9274 15.2582 35.8476 15.156 35.7679 15.0538C35.6881 14.9312 35.6084 14.8291 35.5485 14.7065C35.4489 14.5226 35.3292 14.3183 35.1099 14.2774C35.0302 14.257 34.9504 14.2774 34.8706 14.257C34.7311 14.2161 34.6314 14.114 34.5516 13.9914C34.4519 13.6849 34.3523 13.3989 34.3323 13.0924Z" fill="#272443"/>
<path d="M32.458 12.7246C32.4181 12.7246 32.3982 12.7042 32.3782 12.6837C32.3184 12.6225 32.2985 12.5203 32.3982 12.4794C32.5178 12.4181 32.6574 12.4181 32.7969 12.3364C32.8767 12.2955 32.9365 12.2547 32.9963 12.3568C33.0162 12.4181 33.0362 12.4794 33.0162 12.5407C32.9764 12.6429 32.8567 12.7042 32.757 12.7246C32.6773 12.745 32.5975 12.745 32.5178 12.7246C32.4779 12.745 32.4779 12.745 32.458 12.7246Z" fill="white"/>
<path d="M32.5378 11.2126C32.5577 11.1717 32.5777 11.1513 32.6175 11.1513C32.6574 11.1513 32.6773 11.1717 32.6973 11.2126C32.7372 11.2739 32.7372 11.3556 32.7372 11.4169C32.7372 11.4374 32.7372 11.4782 32.7172 11.4986C32.6973 11.5191 32.6574 11.5395 32.6175 11.5191C32.5577 11.4986 32.5378 11.4169 32.5378 11.3352C32.5178 11.2943 32.5178 11.2535 32.5378 11.2126Z" fill="#272443"/>
<path d="M35.05 13.3582C34.8905 13.2356 34.7708 13.0517 34.711 12.8474C34.6512 12.6022 34.711 12.357 34.731 12.1118C34.7509 11.9075 34.711 11.7032 34.5515 11.5602C34.392 11.4171 34.1926 11.3558 34.0929 11.172C33.9932 10.9676 34.0132 10.7225 34.0331 10.4977C34.0331 10.4773 33.9733 10.4773 33.9733 10.4977C33.9534 10.702 33.9334 10.9063 33.9932 11.1107C34.0331 11.2128 34.073 11.2946 34.1528 11.3558C34.2325 11.4171 34.3123 11.458 34.392 11.5193C34.4917 11.5806 34.5515 11.6623 34.6113 11.7645C34.6512 11.8666 34.6711 11.9892 34.6512 12.0914C34.6512 12.3366 34.5715 12.5817 34.6313 12.8269C34.6711 13.0517 34.8107 13.256 34.9902 13.399C35.0101 13.399 35.0101 13.4194 35.03 13.399C35.03 13.3786 35.05 13.3582 35.05 13.3582Z" fill="#3C3C70"/>
<path d="M35.9074 13.0105C35.6282 12.9697 35.4089 12.6836 35.4089 12.3976C35.4089 12.3772 35.3491 12.3772 35.3491 12.3976C35.3292 12.7245 35.5884 13.0105 35.8874 13.0514C35.9074 13.0514 35.9273 13.0514 35.9273 13.031C35.9472 13.0105 35.9273 13.0105 35.9074 13.0105Z" fill="#3C3C70"/>
<path d="M37.4825 14.7882C37.3828 14.7269 37.2632 14.6656 37.1436 14.6451C37.024 14.6247 36.8844 14.6451 36.7648 14.6247C36.5654 14.5634 36.4059 14.3795 36.4059 14.1548C36.4059 14.0322 36.4258 13.8892 36.3261 13.8074C36.3062 13.787 36.2464 13.8074 36.2862 13.8279C36.4059 13.9096 36.3461 14.0731 36.366 14.1752C36.366 14.2774 36.4059 14.3591 36.4657 14.4408C36.5255 14.5226 36.6053 14.5838 36.7049 14.6247C36.8046 14.6656 36.9243 14.6656 37.0439 14.6656C37.2034 14.6656 37.323 14.7269 37.4626 14.8086C37.4427 14.829 37.5025 14.8086 37.4825 14.7882Z" fill="#3C3C70"/>
<path d="M37.8612 14.3387C37.6419 14.3183 37.4625 14.1957 37.3628 13.9914C37.3428 13.9709 37.283 13.9709 37.303 13.9914C37.4226 14.1957 37.622 14.3387 37.8612 14.3591C37.8812 14.3591 37.9011 14.3591 37.9011 14.3387C37.8812 14.3387 37.8612 14.3387 37.8612 14.3387Z" fill="#3C3C70"/>
<path d="M35.4288 9.27169C35.349 9.0878 35.2294 8.86305 35.0101 8.80176C34.9902 8.80176 34.9702 8.80176 34.9702 8.80176C34.9702 8.82219 34.9702 8.82219 34.9902 8.82219C35.1895 8.88348 35.2892 9.0878 35.369 9.27169C35.369 9.31255 35.4288 9.29212 35.4288 9.27169Z" fill="#3C3C70"/>
<path d="M38.6788 20.4888C38.1404 20.5705 37.6021 20.6114 37.0438 20.6114C36.7647 20.6114 36.5055 20.591 36.2263 20.591C36.0868 20.591 35.9672 20.591 35.8276 20.6114C35.688 20.6318 35.5684 20.6523 35.4488 20.6931C35.3291 20.734 35.1896 20.7544 35.0699 20.7749C34.9503 20.7953 34.8107 20.7953 34.6911 20.7953C34.4319 20.7953 34.1727 20.7544 33.9135 20.734C33.6543 20.7136 33.415 20.6727 33.1559 20.6727C33.0362 20.6727 32.8967 20.6727 32.777 20.6931C32.6574 20.7136 32.5178 20.734 32.3982 20.7544C32.139 20.7749 31.8599 20.7136 31.6206 20.6318C31.3813 20.5501 31.1221 20.448 30.8829 20.3458C30.8231 20.3254 30.7633 20.2845 30.6835 20.2641C30.6636 20.2641 30.6436 20.2641 30.6436 20.2641C30.6436 20.2641 30.6237 20.2845 30.6436 20.2845C30.8829 20.3867 31.1421 20.4888 31.3813 20.591C31.6206 20.6931 31.8798 20.7749 32.139 20.7953C32.2586 20.8157 32.3982 20.7953 32.5178 20.7749C32.6574 20.7544 32.777 20.734 32.8967 20.7136C33.1559 20.6931 33.4151 20.7136 33.6742 20.734C34.1727 20.7953 34.6911 20.877 35.2095 20.7749C35.4687 20.734 35.7279 20.6318 36.007 20.6318C36.2862 20.6114 36.5653 20.6523 36.8444 20.6523C37.3828 20.6727 37.941 20.6318 38.4794 20.5501C38.5392 20.5501 38.6189 20.5297 38.6788 20.5297C38.7386 20.5092 38.6987 20.4684 38.6788 20.4888Z" fill="#CCBB45"/>
<path d="M38.3001 17.8328C38.2602 17.6489 38.2203 17.465 38.1804 17.2811C38.1804 17.2607 38.1206 17.2607 38.1206 17.2811C38.2801 17.9349 38.4197 18.5887 38.5194 19.2425C38.5592 19.4264 38.5792 19.6103 38.5991 19.7942C38.5991 19.8146 38.6589 19.8146 38.6589 19.7942C38.5592 19.1608 38.4396 18.4866 38.3001 17.8328Z" fill="#CCBB45"/>
<path d="M37.4426 17.5263C37.4426 17.5058 37.3828 17.5058 37.3828 17.5263C37.4626 17.9349 37.5224 18.3435 37.6021 18.7317C37.6021 18.7522 37.6619 18.7522 37.6619 18.7317C37.5822 18.3231 37.5224 17.9145 37.4426 17.5263Z" fill="#CCBB45"/>
<path d="M31.2219 17.0971C31.0425 17.6078 30.9029 18.1391 30.7833 18.6703C30.7434 18.8133 30.7235 18.9768 30.6836 19.1198C30.6836 19.1402 30.7434 19.1402 30.7434 19.1198C30.8431 18.5886 30.9827 18.0573 31.1422 17.5466C31.1821 17.4035 31.2419 17.2605 31.2817 17.1175C31.2817 17.0971 31.2219 17.0766 31.2219 17.0971Z" fill="#CCBB45"/>
<path d="M31.9994 17.6285C31.9197 17.9758 31.82 18.3436 31.7402 18.6909C31.7402 18.7114 31.8 18.7318 31.8 18.6909C31.8798 18.3436 31.9795 17.9758 32.0592 17.6285C32.0792 17.6081 32.0194 17.6081 31.9994 17.6285Z" fill="#CCBB45"/>
<path d="M34.0929 17.6078C33.9533 18.2207 33.8536 18.8541 33.7539 19.4875C33.734 19.6714 33.6941 19.8553 33.6742 20.0187C33.6742 20.0391 33.734 20.0391 33.734 20.0187C33.8138 19.3853 33.9334 18.7519 34.053 18.139C34.0929 17.9551 34.1328 17.7917 34.1527 17.6078C34.1527 17.5669 34.0929 17.5669 34.0929 17.6078Z" fill="#CCBB45"/>
<path d="M35.6881 18.4865C35.6881 18.466 35.6283 18.466 35.6283 18.4865C35.6482 18.9564 35.6682 19.4467 35.6881 19.9167C35.6881 19.9371 35.7479 19.9371 35.7479 19.9167C35.728 19.4263 35.708 18.9564 35.6881 18.4865Z" fill="#CCBB45"/>
<path d="M34.8307 24.4933C34.5117 24.4115 34.1727 24.3094 33.8537 24.1868C33.6942 24.1255 33.5347 24.0846 33.3951 24.0029C33.2556 23.9416 33.116 23.8394 32.9964 23.7373C32.8568 23.6351 32.7372 23.4921 32.6175 23.3695C32.5976 23.3491 32.5378 23.3695 32.5577 23.3899C32.777 23.6147 32.9964 23.8394 33.2954 23.9825C33.435 24.0642 33.5945 24.1255 33.754 24.1664C33.9135 24.2276 34.073 24.2889 34.2525 24.3298C34.4319 24.3911 34.6313 24.4524 34.8108 24.4933C34.8307 24.4933 34.8506 24.4933 34.8506 24.4933C34.8506 24.5137 34.8506 24.4933 34.8307 24.4933Z" fill="#FFE341"/>
<path d="M36.1466 23.6353C35.8475 23.6761 35.5684 23.6966 35.2693 23.6966C35.2294 23.6966 35.2294 23.7374 35.2693 23.7374C35.5684 23.7374 35.8674 23.717 36.1665 23.6761C36.2064 23.6557 36.1665 23.6353 36.1466 23.6353Z" fill="#CCBB45"/>
</svg>
