<svg width="22" height="38" viewBox="0 0 22 38" fill="none" xmlns="http://www.w3.org/2000/svg">
<path d="M19.7802 15.7226H15.6165C15.4034 15.7226 15.2348 15.554 15.2348 15.3409V15.3054C15.2348 15.0923 15.4034 14.9236 15.6165 14.9236H19.7802C19.9932 14.9236 20.1619 15.0923 20.1619 15.3054V15.3409C20.1708 15.5451 19.9932 15.7226 19.7802 15.7226Z" fill="#C84926"/>
<path d="M20.1175 15.3232L20.3306 15.1012V15.3232H20.1175Z" fill="#AD3B1C"/>
<path d="M20.1175 15.3232L20.3306 15.5362V15.3232H20.1175Z" fill="#AD3B1C"/>
<path d="M15.2792 15.3232L15.0661 15.1012V15.3232H15.2792Z" fill="#AD3B1C"/>
<path d="M15.2792 15.3232L15.0661 15.5362V15.3232H15.2792Z" fill="#AD3B1C"/>
<path d="M13.3971 15.7226H9.23341C9.02035 15.7226 8.85167 15.554 8.85167 15.3409V15.3054C8.85167 15.0923 9.02035 14.9236 9.23341 14.9236H13.3971C13.6101 14.9236 13.7788 15.0923 13.7788 15.3054V15.3409C13.7788 15.5451 13.6101 15.7226 13.3971 15.7226Z" fill="#C84926"/>
<path d="M13.7344 15.3232L13.9475 15.1012V15.3232H13.7344Z" fill="#AD3B1C"/>
<path d="M13.7344 15.3232L13.9475 15.5362V15.3232H13.7344Z" fill="#AD3B1C"/>
<path d="M8.89612 15.3232L8.67417 15.1012V15.3232H8.89612Z" fill="#AD3B1C"/>
<path d="M8.89612 15.3232L8.67417 15.5362V15.3232H8.89612Z" fill="#AD3B1C"/>
<path d="M7.00515 15.7226H2.84149C2.62843 15.7226 2.45975 15.554 2.45975 15.3409V15.3054C2.45975 15.0923 2.62843 14.9236 2.84149 14.9236H7.00515C7.21821 14.9236 7.38689 15.0923 7.38689 15.3054V15.3409C7.39577 15.5451 7.21821 15.7226 7.00515 15.7226Z" fill="#C84926"/>
<path d="M7.34248 15.3232L7.55554 15.1012V15.3232H7.34248Z" fill="#AD3B1C"/>
<path d="M7.34248 15.3232L7.55554 15.5362V15.3232H7.34248Z" fill="#AD3B1C"/>
<path d="M2.50415 15.3232L2.29109 15.1012V15.3232H2.50415Z" fill="#AD3B1C"/>
<path d="M2.50415 15.3232L2.29109 15.5362V15.3232H2.50415Z" fill="#AD3B1C"/>
<path d="M21.1207 15.9978C21.1207 16.1842 20.9698 16.3352 20.7834 16.3352C20.5969 16.3352 20.446 16.1842 20.446 15.9978C20.446 15.8114 20.5969 15.6605 20.7834 15.6605C20.9698 15.6605 21.1207 15.8114 21.1207 15.9978Z" fill="#52504A"/>
<path d="M19.4428 15.9978C19.4428 16.1842 19.5938 16.3352 19.7802 16.3352C19.9666 16.3352 20.1176 16.1842 20.1176 15.9978C20.1176 15.8114 19.9666 15.6605 19.7802 15.6605C19.5938 15.6605 19.4428 15.8114 19.4428 15.9978Z" fill="#52504A"/>
<path d="M18.4486 15.9978C18.4486 16.1842 18.5995 16.3352 18.7859 16.3352C18.9724 16.3352 19.1233 16.1842 19.1233 15.9978C19.1233 15.8114 18.9724 15.6605 18.7859 15.6605C18.5995 15.6605 18.4486 15.8114 18.4486 15.9978Z" fill="#52504A"/>
<path d="M17.4453 15.9978C17.4453 16.1842 17.5962 16.3352 17.7826 16.3352C17.9691 16.3352 18.12 16.1842 18.12 15.9978C18.12 15.8114 17.9691 15.6605 17.7826 15.6605C17.5962 15.6605 17.4453 15.8114 17.4453 15.9978Z" fill="#52504A"/>
<path d="M16.451 15.9978C16.451 16.1842 16.6019 16.3352 16.7884 16.3352C16.9748 16.3352 17.1257 16.1842 17.1257 15.9978C17.1257 15.8114 16.9748 15.6605 16.7884 15.6605C16.6019 15.6605 16.451 15.8114 16.451 15.9978Z" fill="#52504A"/>
<path d="M15.4479 15.9978C15.4479 16.1842 15.5988 16.3352 15.7852 16.3352C15.9716 16.3352 16.1226 16.1842 16.1226 15.9978C16.1226 15.8114 15.9716 15.6605 15.7852 15.6605C15.6077 15.6605 15.4479 15.8114 15.4479 15.9978Z" fill="#52504A"/>
<path d="M14.4536 15.9978C14.4536 16.1842 14.6045 16.3352 14.7909 16.3352C14.9774 16.3352 15.1283 16.1842 15.1283 15.9978C15.1283 15.8114 14.9774 15.6605 14.7909 15.6605C14.6045 15.6605 14.4536 15.8114 14.4536 15.9978Z" fill="#52504A"/>
<path d="M13.4504 15.9978C13.4504 16.1842 13.6013 16.3352 13.7878 16.3352C13.9742 16.3352 14.1251 16.1842 14.1251 15.9978C14.1251 15.8114 13.9742 15.6605 13.7878 15.6605C13.6102 15.6605 13.4504 15.8114 13.4504 15.9978Z" fill="#52504A"/>
<path d="M12.456 15.9978C12.456 16.1842 12.607 16.3352 12.7934 16.3352C12.9798 16.3352 13.1307 16.1842 13.1307 15.9978C13.1307 15.8114 12.9798 15.6605 12.7934 15.6605C12.607 15.6605 12.456 15.8114 12.456 15.9978Z" fill="#52504A"/>
<path d="M11.4529 15.9978C11.4529 16.1842 11.6038 16.3352 11.7902 16.3352C11.9766 16.3352 12.1276 16.1842 12.1276 15.9978C12.1276 15.8114 11.9766 15.6605 11.7902 15.6605C11.6127 15.6605 11.4529 15.8114 11.4529 15.9978Z" fill="#52504A"/>
<path d="M10.4586 15.9978C10.4586 16.1842 10.6095 16.3352 10.7959 16.3352C10.9824 16.3352 11.1333 16.1842 11.1333 15.9978C11.1333 15.8114 10.9824 15.6605 10.7959 15.6605C10.6095 15.6605 10.4586 15.8114 10.4586 15.9978Z" fill="#52504A"/>
<path d="M9.46421 15.9978C9.46421 16.1842 9.61513 16.3352 9.80156 16.3352C9.98799 16.3352 10.1389 16.1842 10.1389 15.9978C10.1389 15.8114 9.98799 15.6605 9.80156 15.6605C9.61513 15.6605 9.46421 15.8114 9.46421 15.9978Z" fill="#52504A"/>
<path d="M8.46104 15.9978C8.46104 16.1842 8.61196 16.3352 8.79839 16.3352C8.98482 16.3352 9.13574 16.1842 9.13574 15.9978C9.13574 15.8114 8.98482 15.6605 8.79839 15.6605C8.61196 15.6605 8.46104 15.8114 8.46104 15.9978Z" fill="#52504A"/>
<path d="M7.46677 15.9978C7.46677 16.1842 7.61769 16.3352 7.80413 16.3352C7.99056 16.3352 8.14148 16.1842 8.14148 15.9978C8.14148 15.8114 7.99056 15.6605 7.80413 15.6605C7.61769 15.6605 7.46677 15.8114 7.46677 15.9978Z" fill="#52504A"/>
<path d="M6.4636 15.9978C6.4636 16.1842 6.61452 16.3352 6.80095 16.3352C6.98738 16.3352 7.13831 16.1842 7.13831 15.9978C7.13831 15.8114 6.98738 15.6605 6.80095 15.6605C6.6234 15.6605 6.4636 15.8114 6.4636 15.9978Z" fill="#52504A"/>
<path d="M5.46934 15.9978C5.46934 16.1842 5.62026 16.3352 5.80669 16.3352C5.99312 16.3352 6.14404 16.1842 6.14404 15.9978C6.14404 15.8114 5.99312 15.6605 5.80669 15.6605C5.62026 15.6605 5.46934 15.8114 5.46934 15.9978Z" fill="#52504A"/>
<path d="M4.46616 15.9978C4.46616 16.1842 4.61708 16.3352 4.80352 16.3352C4.98995 16.3352 5.14087 16.1842 5.14087 15.9978C5.14087 15.8114 4.98995 15.6605 4.80352 15.6605C4.62596 15.6605 4.46616 15.8114 4.46616 15.9978Z" fill="#52504A"/>
<path d="M3.47178 15.9978C3.47178 16.1842 3.6227 16.3352 3.80913 16.3352C3.99556 16.3352 4.14648 16.1842 4.14648 15.9978C4.14648 15.8114 3.99556 15.6605 3.80913 15.6605C3.6227 15.6605 3.47178 15.8114 3.47178 15.9978Z" fill="#52504A"/>
<path d="M2.4686 15.9978C2.4686 16.1842 2.61952 16.3352 2.80596 16.3352C2.99239 16.3352 3.14331 16.1842 3.14331 15.9978C3.14331 15.8114 2.99239 15.6605 2.80596 15.6605C2.6284 15.6605 2.4686 15.8114 2.4686 15.9978Z" fill="#52504A"/>
<path d="M1.47434 15.9978C1.47434 16.1842 1.62526 16.3352 1.81169 16.3352C1.99813 16.3352 2.14905 16.1842 2.14905 15.9978C2.14905 15.8114 1.99813 15.6605 1.81169 15.6605C1.62526 15.6605 1.47434 15.8114 1.47434 15.9978Z" fill="#52504A"/>
<path d="M11.4262 37.9968H11.1777C11.0356 37.9968 10.9202 37.8814 10.9202 37.7394V22.5407H11.6748V37.7394C11.6748 37.8814 11.5594 37.9968 11.4262 37.9968Z" fill="#8A877E"/>
<path d="M5.40703 28.8617H17.1967V29.4476H5.40703V28.8617Z" fill="#CFCBC3"/>
<path d="M14.5867 22.9225L19.4606 37.7128C19.5316 37.9347 19.7713 38.0501 19.9932 37.9791C20.0998 37.9436 20.1885 37.8637 20.2329 37.7749C20.2773 37.6772 20.2951 37.5618 20.2596 37.4553L15.3857 22.665L14.5867 22.9225Z" fill="#CFCBC3"/>
<path d="M19.0877 36.5853L19.4605 37.7039C19.5315 37.9258 19.7712 38.0412 19.9932 37.9702C20.2151 37.8992 20.3305 37.6595 20.2595 37.4376L19.8866 36.319L19.0877 36.5853Z" fill="#52504A"/>
<path d="M17.3115 28.5174L17.6448 29.5293L16.8522 29.7903L16.5189 28.7785L17.3115 28.5174Z" fill="#52504A"/>
<path d="M8.0083 22.9225L3.13443 37.7128C3.06341 37.9347 2.82371 38.0501 2.60176 37.9791C2.49523 37.9436 2.40645 37.8637 2.36207 37.7749C2.31768 37.6772 2.29992 37.5618 2.33543 37.4553L7.20931 22.665L8.0083 22.9225Z" fill="#CFCBC3"/>
<path d="M3.50732 36.5853L3.13446 37.7039C3.06344 37.9258 2.82374 38.0412 2.6018 37.9702C2.37985 37.8992 2.26444 37.6595 2.33546 37.4376L2.70833 36.319L3.50732 36.5853Z" fill="#52504A"/>
<path d="M5.2932 28.5194L6.08582 28.7804L5.75258 29.7923L4.95997 29.5312L5.2932 28.5194Z" fill="#52504A"/>
<path d="M1.0127 17.88H1.79395V17.5781H1.0127V16.9123H0.613207V18.5458H1.0127V17.88Z" fill="#52504A"/>
<path d="M21.5823 17.88H20.81V17.5781H21.5823V16.9123H21.9907V18.5458H21.5823V17.88Z" fill="#52504A"/>
<path d="M1.38554 16.3886C1.38554 16.6461 1.40329 16.9035 1.4388 17.161C1.94484 20.9429 6.17063 23.8903 11.302 23.8903C16.4333 23.8903 20.6502 20.9429 21.1651 17.161C21.2006 16.9035 21.2184 16.6461 21.2184 16.3886C21.2184 16.1311 21.2006 16.3353 21.1651 16.0779H1.44768C1.4033 16.3265 1.38554 16.1223 1.38554 16.3886Z" fill="#E6E4DF"/>
<path d="M1.43878 16.0779H3.28535C3.24984 16.3353 3.23208 16.1311 3.23208 16.3886C3.23208 16.6461 3.24984 16.9035 3.28535 17.161C3.76474 20.7121 7.52002 23.5263 12.2252 23.8548C11.9234 23.8725 11.6127 23.8903 11.3019 23.8903C6.17061 23.8903 1.95369 20.9429 1.43878 17.161C1.40327 16.9035 1.38551 16.6461 1.38551 16.3886C1.38551 16.1223 1.40327 16.3265 1.43878 16.0779Z" fill="#CFCBC3"/>
<path d="M1.05705 15.9979H21.538V16.3796H1.05705V15.9979Z" fill="#AD3B1C"/>
<path d="M15.5014 1.00528L15.7714 1.27521L1.28931 15.7573L1.01938 15.4873L15.5014 1.00528Z" fill="#AD3B1C"/>
<path d="M5.85996 2.4327L6.04639 2.09535L4.92779 1.47391C4.39513 1.18094 3.72042 1.26972 3.28541 1.70473L3.18776 1.80239L3.46297 2.0776L3.56062 1.97994C3.87134 1.66922 4.35962 1.5982 4.74136 1.81126L5.85996 2.4327Z" fill="#CFCBC3"/>
<path d="M2.44202 5.85063L1.82058 4.73204C1.60751 4.3503 1.67853 3.86202 1.98925 3.5513L2.08691 3.45365L1.8117 3.17844L1.71404 3.27609C1.27903 3.7111 1.19026 4.37693 1.48322 4.91847L2.10466 6.03707L2.44202 5.85063Z" fill="#CFCBC3"/>
<path d="M1.27904 15.2166L15.226 1.26971C12.1986 -1.0385 7.12946 -0.141849 3.49847 3.48914C-0.132518 7.12013 -1.02917 12.1804 1.27904 15.2166Z" fill="#C84926"/>
<path d="M3.49844 3.48925C4.39509 2.5926 5.37164 1.86463 6.39258 1.31421C5.64685 1.79361 4.93663 2.37066 4.2708 3.03649C0.710832 6.59646 -0.22133 11.5325 1.92708 14.5864L1.28788 15.2256C-1.0292 12.1805 -0.132553 7.12024 3.49844 3.48925Z" fill="#AD3B1C"/>
<path d="M11.6039 1.10988C11.9323 1.43835 11.9323 1.96214 11.6039 2.29061C11.2754 2.61909 10.7516 2.61909 10.4231 2.29061C10.0946 1.96214 10.0946 1.43835 10.4231 1.10988C10.7516 0.790279 11.2754 0.790279 11.6039 1.10988Z" fill="#E6E4DF"/>
<path d="M1.45743 3.3508L3.3595 1.44873L3.84286 1.93209L1.9408 3.83416L1.45743 3.3508Z" fill="#52504A"/>
<path d="M15.3679 12.7751C15.2614 13.1302 15.3146 13.5741 15.4922 13.8582C15.2436 13.6895 15.0217 13.3966 14.9151 13.0326C14.7997 12.6597 14.7997 12.2158 14.9329 11.8607C15.0128 11.6388 15.146 11.4523 15.217 11.2126C15.3235 10.8575 15.2791 10.4225 15.1104 10.1295C15.3501 10.3426 15.5454 10.6711 15.6431 11.0617C15.7408 11.4523 15.723 11.8962 15.5898 12.2602C15.5188 12.4378 15.43 12.5976 15.3679 12.7751Z" fill="#CFAD9F"/>
<path d="M8.96702 12.7751C8.86048 13.1302 8.91375 13.5741 9.0913 13.8582C8.84273 13.6895 8.62078 13.3966 8.51425 13.0326C8.39884 12.6597 8.39884 12.2158 8.53201 11.8607C8.61191 11.6388 8.74507 11.4523 8.8161 11.2126C8.92263 10.8575 8.87824 10.4225 8.70956 10.1295C8.94926 10.3426 9.14457 10.6711 9.24223 11.0617C9.33988 11.4523 9.32213 11.8962 9.18896 12.2602C9.11794 12.4378 9.02916 12.5976 8.96702 12.7751Z" fill="#CFAD9F"/>
<path d="M12.3317 12.1005C12.1808 12.5888 12.2518 13.1925 12.5004 13.5831C12.1542 13.3523 11.8612 12.9528 11.7103 12.4468C11.5593 11.9407 11.5505 11.3371 11.728 10.8399C11.8346 10.5292 12.0121 10.2806 12.1098 9.961C12.2607 9.48161 12.1985 8.87792 11.9677 8.47842C12.2962 8.77139 12.5714 9.21528 12.6957 9.74794C12.8289 10.2806 12.8111 10.8932 12.6247 11.3903C12.5359 11.6389 12.4116 11.8431 12.3317 12.1005Z" fill="#CFAD9F"/>
</svg>
