<svg width="24" height="36" viewBox="0 0 24 36" fill="none" xmlns="http://www.w3.org/2000/svg">
<path d="M16.3989 8.15943C16.3989 8.15943 15.3491 10.2368 14.1942 12.8067C13.6063 7.92385 10.0787 2.95538 10.0787 2.95538C10.0787 2.95538 2.30969 14.6913 2.30969 19.1672C2.30969 23.6431 5.37531 27.2838 9.17583 27.2838H16.189C18.9186 27.2838 20.6824 24.6496 21.1233 21.4372C21.8373 16.2974 16.3989 8.15943 16.3989 8.15943Z" fill="#D54B20"/>
<path d="M14.2992 16.8114C14.2992 16.8114 13.7322 17.9464 13.1023 19.3599C12.7664 16.6829 10.8346 13.9631 10.8346 13.9631C10.8346 13.9631 6.59314 20.4093 6.59314 22.8721C6.59314 25.3349 8.27293 27.3266 10.3517 27.3266H14.1942C15.685 27.3266 16.6509 25.8703 16.9029 24.1356C17.2808 21.2659 14.2992 16.8114 14.2992 16.8114Z" fill="#FF9A42"/>
<path d="M13.5013 3.25521C13.5013 5.05413 14.6772 6.51041 14.6772 6.51041C14.6772 6.51041 15.853 5.05413 15.853 3.25521C15.832 1.45628 14.6772 0 14.6772 0C14.6772 0 13.5013 1.45628 13.5013 3.25521Z" fill="#FF9A42"/>
<path d="M2.41467 8.18085C2.41467 9.57287 3.31756 10.7079 3.31756 10.7079C3.31756 10.7079 4.22045 9.57287 4.22045 8.18085C4.22045 6.78882 3.31756 5.65378 3.31756 5.65378C3.31756 5.65378 2.41467 6.78882 2.41467 8.18085Z" fill="#FF9A42"/>
<path d="M20.4304 11.0077C20.4304 12.3997 21.3333 13.5348 21.3333 13.5348C21.3333 13.5348 22.2362 12.3997 22.2362 11.0077C22.2362 9.61569 21.3333 8.48065 21.3333 8.48065C21.3333 8.48065 20.4304 9.61569 20.4304 11.0077Z" fill="#FF9A42"/>
<path d="M0.644332 36.0059L24.0127 29.2341L23.37 26.9269L0.00161126 33.6987L0.644332 36.0059Z" fill="#633F32"/>
<path d="M24 33.6871L0.650919 26.9197L0 29.2326L3.40157 30.2177L2.03675 31.1386L2.47769 31.8453L4.45144 30.5175L23.3701 36L24 33.6871Z" fill="#805645"/>
</svg>
