<svg width="36" height="34" viewBox="0 0 36 34" fill="none" xmlns="http://www.w3.org/2000/svg">
<g clip-path="url(#clip0_1_2883)">
<path d="M29.4476 8.85944C30.4112 5.94515 41.1264 -5.16799 30.7196 9.94744C30.6425 10.0252 30.4883 10.064 30.3341 10.0252C29.9101 9.94744 29.332 9.55887 29.4476 8.97601C29.4476 8.93716 29.4476 8.8983 29.4476 8.85944Z" fill="#ACB304"/>
<path d="M29.7945 8.93712C30.1029 5.86741 24.5911 -8.12116 28.1757 9.48112C28.2142 9.59769 28.3298 9.67541 28.5226 9.67541C28.9465 9.75312 29.6403 9.59769 29.756 9.01484C29.7945 9.01484 29.7945 8.97598 29.7945 8.93712Z" fill="#ACB304"/>
<path d="M29.6404 9.05371C31.0279 6.33371 31.4519 -9.71429 28.0601 8.74285C28.0601 8.85942 28.1371 8.97599 28.2913 9.13142C28.6382 9.44228 29.2935 9.63657 29.6018 9.13142C29.6018 9.13142 29.6018 9.09257 29.6404 9.05371Z" fill="#ACB304"/>
<path d="M30.4498 9.32572C32.2228 6.91658 35.3449 -9.01485 28.9851 8.66515C28.9466 8.78172 29.0237 8.93715 29.1393 9.09258C29.4091 9.48115 30.0258 9.83086 30.4113 9.40344C30.4113 9.36458 30.4113 9.32572 30.4498 9.32572Z" fill="#ACB304"/>
<path d="M28.985 10.88C29.9486 8.27658 42.167 -1.16571 30.5653 11.9292C30.4882 12.0069 30.2955 12.0069 30.1028 11.968C29.5632 11.8903 28.8694 11.5017 28.9465 10.9577C28.985 10.9189 28.985 10.88 28.985 10.88Z" fill="#949902"/>
<path d="M29.409 10.9577C29.5632 8.19888 22.0085 -4.81827 27.5203 11.3852C27.5589 11.4629 27.713 11.5406 27.9443 11.5795C28.4839 11.6572 29.2933 11.5795 29.409 11.0355C29.409 10.9966 29.409 10.9577 29.409 10.9577Z" fill="#949902"/>
<path d="M29.2163 11.0354C30.7195 8.62629 30.1799 -5.86742 27.2891 10.6857C27.2891 10.7634 27.4047 10.9189 27.5589 11.0354C27.9829 11.3074 28.7923 11.5406 29.1392 11.1131C29.1777 11.1131 29.2163 11.0743 29.2163 11.0354Z" fill="#949902"/>
<path d="M30.2184 11.3074C32.2226 9.24799 34.9593 -5.01258 28.4068 10.608C28.3683 10.6857 28.4453 10.8411 28.5995 10.9966C28.9464 11.3463 29.7173 11.7348 30.1413 11.3463C30.1798 11.3851 30.1798 11.3463 30.2184 11.3074Z" fill="#949902"/>
<path d="M28.561 13.328C29.5632 10.8023 43.439 1.94287 30.4497 14.416C30.3726 14.4937 30.1413 14.4937 29.9101 14.4549C29.2934 14.3383 28.4454 13.9497 28.5225 13.4446C28.561 13.3669 28.561 13.3669 28.561 13.328Z" fill="#ACB304"/>
<path d="M29.0622 13.4057C29.1392 10.7246 19.8116 -2.33139 26.8652 13.7555C26.9037 13.8332 27.0964 13.9109 27.3662 13.9886C27.9829 14.1052 28.9465 14.0275 29.0622 13.5223C29.0622 13.4835 29.0622 13.4446 29.0622 13.4057Z" fill="#ACB304"/>
<path d="M28.8309 13.5223C30.4882 11.2297 29.2934 -3.03085 26.5568 13.0949C26.5568 13.1726 26.6724 13.328 26.9037 13.4446C27.4047 13.7554 28.3683 13.9886 28.7538 13.6C28.7923 13.5612 28.8309 13.5223 28.8309 13.5223Z" fill="#ACB304"/>
<path d="M29.9872 13.8332C32.2228 11.8514 34.8437 -2.05942 27.8288 13.0949C27.7902 13.1726 27.9058 13.328 28.06 13.4834C28.484 13.8332 29.3705 14.2217 29.8716 13.9109C29.9487 13.872 29.9872 13.8332 29.9872 13.8332Z" fill="#ACB304"/>
<path d="M33.9186 23.8971C33.9186 23.936 33.88 24.0137 33.88 24.0526C33.8415 24.2468 33.803 24.4023 33.7644 24.5577C33.6102 25.2183 33.4175 25.84 33.2248 26.384C33.1477 26.5783 33.0706 26.8114 32.9935 27.0057C32.9164 27.2 32.8394 27.3554 32.7623 27.5108C32.6852 27.7051 32.5696 27.8994 32.4539 28.0937C32.107 28.6766 31.7601 29.1817 31.3747 29.6091C29.6402 31.5131 27.3661 31.9406 24.9764 31.5131C22.5867 31.0857 20.6595 29.8811 19.8115 27.5497C19.6188 27.0057 19.4646 26.4228 19.3875 25.7623C19.349 25.5291 19.349 25.2571 19.349 24.9851C19.349 24.8686 19.349 24.752 19.349 24.6743C19.349 24.4411 19.349 24.1691 19.349 23.8971C19.3875 23.3143 19.4646 22.6926 19.5803 22.032C19.6188 21.8377 19.6573 21.6046 19.6959 21.4103V21.3714C19.7344 21.1383 19.8115 20.9051 19.8501 20.672C19.9272 20.4 19.9657 20.128 20.0428 19.8948C20.1584 19.4286 20.3126 19.0011 20.4668 18.5737C20.5439 18.3794 20.6209 18.1463 20.698 17.952C20.7751 17.7966 20.8137 17.6411 20.8908 17.4468C20.9293 17.3691 20.9678 17.2526 21.0064 17.136C21.0835 16.9417 21.1606 16.7474 21.2762 16.592C21.4304 16.32 21.546 16.0091 21.7002 15.7371C21.7773 15.5817 21.8929 15.3874 21.97 15.232C22.0856 15.0377 22.2012 14.8434 22.3169 14.688C22.8565 13.872 23.4732 13.1337 24.0899 12.5508C24.4753 12.1623 24.8993 11.8514 25.2848 11.5794C26.788 11.152 31.3361 11.968 32.5696 12.9006C32.8394 13.328 33.1092 13.7943 33.3404 14.2994C33.379 14.416 33.4175 14.5326 33.4946 14.6491C33.5717 14.8823 33.6488 15.1154 33.7644 15.3874C33.803 15.504 33.8415 15.6594 33.88 15.776C33.9186 15.9314 33.9571 16.0869 33.9957 16.2811C34.0342 16.5143 34.1113 16.7474 34.1499 16.9806C34.1884 17.136 34.2269 17.3303 34.2269 17.4857C34.2655 17.68 34.2655 17.8743 34.304 18.0686C34.3426 18.3406 34.3426 18.5737 34.3811 18.8457C34.3811 18.9234 34.3811 19.0011 34.3811 19.1177C34.3811 19.2343 34.3811 19.3508 34.3811 19.4674C34.3811 19.7006 34.3811 19.8948 34.3811 20.128C34.3811 20.2834 34.3811 20.4 34.3811 20.5554C34.3811 20.7497 34.3811 20.9051 34.3426 21.0994C34.304 21.5657 34.2655 22.032 34.1884 22.4983C34.1499 22.7314 34.1113 22.9646 34.0728 23.1588C34.0342 23.3531 33.9957 23.6251 33.9186 23.8971Z" fill="#D68E19"/>
<path d="M21.1221 22.9646C23.0879 25.2571 26.4027 24.1691 28.5226 22.6926C30.7196 21.1771 32.3384 19.3508 33.8031 17.1748C33.8802 17.0194 33.9958 16.9028 34.0729 16.7474C34.0343 16.5531 33.9958 16.3588 33.9573 16.1646C33.9187 16.0091 33.8802 15.8537 33.8416 15.6594C33.8031 15.5428 33.7645 15.3874 33.726 15.2708C33.6489 15.0377 33.5718 14.7657 33.4562 14.5326C33.4176 14.416 33.3791 14.2994 33.302 14.1828C33.0707 13.6777 32.8395 13.2114 32.5311 12.784C31.2977 11.8514 26.7495 11.0354 25.2463 11.4628C24.8224 11.7348 24.4369 12.0846 24.0515 12.4343C23.4348 13.056 22.8181 13.7554 22.2785 14.5714C22.1628 14.7657 22.0472 14.9211 21.9316 15.1154C21.8159 15.2708 21.7388 15.4263 21.6618 15.6206C21.5076 15.8926 21.3534 16.1646 21.2378 16.4754C21.1607 16.6697 21.0451 16.8251 20.968 17.0194C20.9294 17.0971 20.8909 17.2137 20.8523 17.3303C20.7752 17.4857 20.6982 17.6411 20.6596 17.8354C20.5825 18.0297 20.5054 18.2628 20.4283 18.4571C20.2742 18.8846 20.12 19.312 20.0044 19.7783C20.0044 19.8171 20.0044 19.856 19.9658 19.8948C20.2356 20.9828 20.3898 22.1097 21.1221 22.9646Z" fill="#D6953A"/>
<path d="M26.4412 29.5703C23.7816 29.7646 21.2377 28.9097 19.6189 27.0834C19.6574 27.2389 19.696 27.3554 19.7731 27.5109C20.621 29.8812 22.5868 31.0469 24.938 31.4743C27.3277 31.9017 29.6018 31.4743 31.3362 29.5703C31.7217 29.1429 32.1071 28.6377 32.4155 28.0549C32.5311 27.8606 32.6082 27.6663 32.7238 27.472C32.8009 27.3166 32.878 27.1223 32.9551 26.9669C33.0322 26.7726 33.1093 26.5783 33.1863 26.3452C31.3748 28.0937 29.0621 29.4149 26.4412 29.5703Z" fill="#D6953A"/>
<path d="M22.6253 28.1714C22.317 28.5211 22.0472 28.8709 21.8159 29.2206C21.7774 29.2983 21.6617 29.2983 21.5847 29.2594C21.469 29.2206 21.3919 29.104 21.3534 28.9874C21.1221 28.4434 20.8523 27.8606 20.5825 27.3166C20.7752 27.0834 20.968 26.8503 21.1607 26.5783C21.2763 26.4617 21.469 26.4229 21.6617 26.5006C21.8545 26.5783 22.0472 26.7337 22.1243 26.9669C22.2785 27.3554 22.4712 27.744 22.6253 28.1714Z" fill="#DEAA58"/>
<path d="M25.2463 28.8709C24.8994 29.2594 24.5525 29.6869 24.2441 30.0754C24.167 30.1531 24.0514 30.192 23.9743 30.1531C23.8587 30.1143 23.7816 30.0366 23.743 29.92C23.5503 29.376 23.3576 28.8709 23.1263 28.3269C23.3576 28.0549 23.5889 27.7828 23.8587 27.472C23.9743 27.3166 24.2056 27.2777 24.3983 27.3166C24.591 27.3554 24.7837 27.5109 24.8608 27.7051C24.9765 28.0937 25.0921 28.4823 25.2463 28.8709Z" fill="#DEAA58"/>
<path d="M27.9443 29.1817C27.5203 29.6092 27.1349 30.0366 26.7495 30.464C26.6724 30.5417 26.5567 30.6194 26.4411 30.6194C26.3255 30.6194 26.2484 30.5417 26.2098 30.4252C26.0942 29.9589 25.94 29.4537 25.7473 28.9486C26.0171 28.6377 26.2869 28.3269 26.5953 28.016C26.7495 27.8606 26.9807 27.7829 27.1734 27.8217C27.3662 27.8606 27.5589 27.9772 27.5974 28.1714C27.7131 28.5212 27.8287 28.832 27.9443 29.1817Z" fill="#DEAA58"/>
<path d="M30.681 29.1428C30.2184 29.5703 29.7559 29.9977 29.2934 30.4251C29.1778 30.5028 29.0621 30.5805 28.9465 30.5805C28.8309 30.5805 28.7538 30.5417 28.7538 30.464C28.6767 30.0754 28.5611 29.648 28.4454 29.2205C28.7538 28.9097 29.1007 28.5988 29.409 28.288C29.5632 28.1325 29.833 28.016 30.0257 28.0548C30.257 28.0548 30.4112 28.1714 30.4497 28.3268C30.5268 28.56 30.6424 28.8708 30.681 29.1428Z" fill="#DEAA58"/>
<path d="M32.4154 28.0937C32.0685 28.6765 31.7217 29.1817 31.3362 29.6091C31.2977 29.4537 31.2591 29.2594 31.2206 29.104C31.5675 28.7931 31.9529 28.4823 32.2998 28.2103C32.3384 28.1714 32.3769 28.1325 32.4154 28.0937Z" fill="#DEAA58"/>
<path d="M24.2827 26.4228C23.9358 26.8114 23.5889 27.2 23.242 27.5497C23.1649 27.6274 23.0493 27.6663 22.9337 27.6274C22.818 27.5885 22.7024 27.5108 22.6639 27.3943C22.4326 26.8503 22.2013 26.3063 21.9315 25.8011C22.1628 25.5291 22.4326 25.2571 22.6639 24.9851C22.7795 24.8297 23.0107 24.7908 23.242 24.8297C23.4733 24.8685 23.666 25.024 23.7431 25.2571C23.9358 25.6457 24.1285 26.0343 24.2827 26.4228Z" fill="#DEAA58"/>
<path d="M27.1349 26.9668C26.7495 27.3554 26.3255 27.7828 25.9786 28.1714C25.9015 28.2491 25.7859 28.288 25.6702 28.288C25.5546 28.2491 25.4775 28.1714 25.4004 28.0548C25.2077 27.5497 25.015 27.0446 24.8223 26.5006C25.0921 26.1897 25.3619 25.9177 25.6702 25.6068C25.8244 25.4514 26.0557 25.3737 26.2869 25.4126C26.5182 25.4514 26.7109 25.6068 26.788 25.8011C26.8651 26.2286 27.0193 26.5783 27.1349 26.9668Z" fill="#DEAA58"/>
<path d="M30.0643 27.2389C29.6018 27.6274 29.1778 28.0549 28.7538 28.4823C28.6767 28.56 28.5225 28.6377 28.4069 28.6377C28.2913 28.6377 28.2142 28.56 28.1756 28.4823C28.0215 28.016 27.8673 27.5497 27.6746 27.0834C27.9829 26.7726 28.2913 26.4617 28.5996 26.1897C28.7538 26.0343 28.9851 25.9566 29.2163 25.9954C29.4476 26.0343 29.6018 26.1509 29.6788 26.3063C29.833 26.5783 29.9486 26.8892 30.0643 27.2389Z" fill="#DEAA58"/>
<path d="M32.9551 27.0057C32.878 27.2 32.8009 27.3554 32.7238 27.5109C32.3384 27.8217 31.9915 28.0937 31.606 28.4046C31.4904 28.4823 31.3748 28.56 31.2206 28.56C31.105 28.56 31.0279 28.5211 30.9893 28.4434C30.8737 28.0549 30.7581 27.6663 30.6039 27.2389C30.9508 26.928 31.2591 26.656 31.606 26.3451C31.7987 26.1897 32.03 26.112 32.2613 26.112C32.4925 26.112 32.6467 26.2286 32.7238 26.384C32.8394 26.6171 32.878 26.8114 32.9551 27.0057Z" fill="#DEAA58"/>
<path d="M23.0878 23.8972C22.7024 24.2857 22.3555 24.6354 22.0472 24.9852C21.9701 25.0629 21.8544 25.1017 21.7388 25.0629C21.6232 25.024 21.5075 24.9463 21.469 24.8297C21.1992 24.3246 20.9679 23.7806 20.6981 23.2754C20.9679 23.0423 21.1992 22.7703 21.5075 22.4983C21.6617 22.3429 21.893 22.304 22.0857 22.3429C22.317 22.3817 22.5097 22.5372 22.5868 22.7314C22.7409 23.12 22.9337 23.5086 23.0878 23.8972Z" fill="#DEAA58"/>
<path d="M26.0942 24.5188C25.7088 24.9074 25.3234 25.296 24.9379 25.7234C24.8608 25.8011 24.7452 25.84 24.591 25.8011C24.4754 25.7622 24.3598 25.6845 24.3212 25.568C24.09 25.0628 23.8587 24.5188 23.6274 24.0137C23.8972 23.7417 24.2056 23.4308 24.4754 23.1588C24.6296 23.0034 24.8608 22.9257 25.0921 23.0034C25.3234 23.0422 25.5161 23.1977 25.5932 23.392C25.7859 23.7417 25.9401 24.1302 26.0942 24.5188Z" fill="#DEAA58"/>
<path d="M29.1393 24.9851C28.7153 25.3737 28.2913 25.8011 27.8673 26.1897C27.7902 26.2674 27.6361 26.3063 27.5204 26.3063C27.4048 26.3063 27.2892 26.2286 27.2506 26.112C27.0579 25.6068 26.8652 25.1017 26.6339 24.5966C26.9423 24.2857 27.2506 24.0137 27.559 23.7028C27.7131 23.5474 27.9444 23.4697 28.1757 23.5086C28.4069 23.5474 28.5997 23.7028 28.6767 23.8971C28.8695 24.2857 28.9851 24.6354 29.1393 24.9851Z" fill="#DEAA58"/>
<path d="M32.2228 25.3349C31.7988 25.7234 31.3363 26.112 30.8737 26.5006C30.7581 26.5783 30.6425 26.656 30.5268 26.6172C30.4112 26.6172 30.2956 26.5394 30.257 26.4617C30.1028 26.0343 29.9101 25.568 29.7174 25.0629C30.0258 24.752 30.3341 24.48 30.681 24.1692C30.8352 24.0137 31.0664 23.936 31.2977 23.9749C31.529 24.0137 31.7217 24.1303 31.7988 24.3246C31.953 24.6743 32.0686 25.024 32.2228 25.3349Z" fill="#DEAA58"/>
<path d="M33.7645 24.5577C33.6103 25.2183 33.4176 25.84 33.2249 26.384C33.1093 26.0731 32.9551 25.7234 32.8009 25.3737C33.1093 25.1017 33.4561 24.8297 33.7645 24.5577Z" fill="#DEAA58"/>
<path d="M25.0535 22.1097C24.6681 22.4983 24.2441 22.8868 23.8587 23.2754C23.7816 23.3531 23.6274 23.392 23.5118 23.3531C23.3962 23.3143 23.2805 23.2366 23.2034 23.12C22.9722 22.6148 22.7409 22.1097 22.5096 21.6046C22.818 21.3326 23.0878 21.0606 23.3962 20.7497C23.5503 20.5943 23.7816 20.5166 24.0129 20.5943C24.2441 20.6331 24.4368 20.7886 24.5139 20.9828C24.7066 21.3326 24.8608 21.7211 25.0535 22.1097Z" fill="#DEAA58"/>
<path d="M28.1371 22.6537C27.7131 23.0423 27.3276 23.4308 26.9037 23.8583C26.8266 23.936 26.6724 23.9748 26.5568 23.9748C26.4411 23.936 26.3255 23.8583 26.287 23.7417C26.0557 23.2365 25.863 22.7314 25.6317 22.2263C25.9401 21.9154 26.2484 21.6434 26.5568 21.3325C26.7109 21.1771 26.9422 21.0994 27.1735 21.1383C27.4047 21.1771 27.5975 21.3325 27.6745 21.5268C27.8287 21.9154 27.9829 22.304 28.1371 22.6537Z" fill="#DEAA58"/>
<path d="M31.2591 23.1589C30.8352 23.5474 30.4112 23.936 29.9872 24.3246C29.9101 24.4023 29.7559 24.4412 29.6403 24.4412C29.5247 24.4412 29.409 24.3635 29.3705 24.2469C29.1778 23.7417 28.9465 23.2754 28.7538 22.7703C29.0621 22.4594 29.3705 22.1874 29.6788 21.8766C29.833 21.7212 30.0643 21.6434 30.2955 21.7212C30.5268 21.76 30.7195 21.9154 30.7966 22.1097C30.9122 22.4594 31.105 22.8092 31.2591 23.1589Z" fill="#DEAA58"/>
<path d="M33.9186 23.8971C33.9186 23.936 33.8801 24.0137 33.8801 24.0526C33.6103 24.2857 33.3405 24.48 33.0707 24.7131C32.955 24.7908 32.8394 24.8297 32.6852 24.8297C32.5696 24.8297 32.454 24.752 32.4154 24.6354C32.2227 24.208 32.03 23.7417 31.7987 23.2754C32.1071 23.0034 32.4154 22.7314 32.7238 22.4594C32.8779 22.304 33.1092 22.2651 33.3405 22.304C33.5717 22.3429 33.7644 22.4983 33.8415 22.6537C33.9186 22.8091 33.9957 22.9257 34.0728 23.0811C34.0343 23.3531 33.9957 23.6251 33.9186 23.8971Z" fill="#DEAA58"/>
<path d="M23.8973 19.6617C23.4733 20.0503 23.0879 20.4389 22.6639 20.8274C22.5868 20.9052 22.4326 20.944 22.317 20.9052C22.2014 20.8663 22.0857 20.7886 22.0086 20.672C21.7774 20.2057 21.5461 19.7006 21.3534 19.2732C21.6617 19.0012 21.9701 18.7292 22.317 18.4183C22.4712 18.2629 22.741 18.1852 22.9722 18.224C23.2035 18.2629 23.3962 18.3794 23.4733 18.5737C23.5889 18.9234 23.7431 19.312 23.8973 19.6617Z" fill="#DEAA58"/>
<path d="M26.9808 20.2057C26.5568 20.5943 26.1714 20.9828 25.7474 21.4103C25.6703 21.488 25.5161 21.5268 25.4005 21.5268C25.2849 21.488 25.1692 21.4103 25.0921 21.2937C24.8609 20.7885 24.6682 20.2834 24.4369 19.7783C24.7452 19.4674 25.0536 19.1954 25.3619 18.8845C25.5161 18.7291 25.7474 18.6514 25.9786 18.6903C26.2099 18.7291 26.4026 18.8845 26.4797 19.0788C26.6724 19.4285 26.8266 19.8171 26.9808 20.2057Z" fill="#DEAA58"/>
<path d="M30.1028 20.7885C29.7173 21.1771 29.2933 21.5657 28.9079 21.9543C28.8308 22.032 28.6766 22.0708 28.561 22.0708C28.4454 22.032 28.3297 21.9543 28.2527 21.8377C28.0214 21.3325 27.8287 20.8274 27.5974 20.3222C27.9058 20.0114 28.2141 19.7394 28.4839 19.4285C28.6381 19.2731 28.8694 19.1954 29.1006 19.2731C29.3319 19.312 29.5246 19.4674 29.6017 19.6617C29.7559 20.0114 29.91 20.4 30.1028 20.7885Z" fill="#DEAA58"/>
<path d="M33.1478 21.4102C32.7623 21.76 32.3769 22.1097 31.9529 22.4982C31.8758 22.576 31.7217 22.6148 31.606 22.576C31.4904 22.5371 31.3748 22.4594 31.2977 22.3817C31.0664 21.8765 30.8351 21.4102 30.6039 20.9051C30.9122 20.6331 31.182 20.3611 31.4518 20.0502C31.606 19.8948 31.8373 19.856 32.03 19.8948C32.2613 19.9337 32.454 20.0891 32.5311 20.2834C32.8009 20.672 32.9936 21.0605 33.1478 21.4102Z" fill="#DEAA58"/>
<path d="M34.1885 22.3817C34.0343 22.1097 33.8802 21.8377 33.7645 21.5268C33.9572 21.3326 34.15 21.1771 34.3427 20.9828C34.2656 21.4491 34.2271 21.9154 34.1885 22.3817Z" fill="#DEAA58"/>
<path d="M25.9786 17.7966C25.5546 18.1851 25.1306 18.6126 24.7452 19.0011C24.6681 19.0788 24.5139 19.1177 24.3983 19.1177C24.2826 19.0788 24.167 19.0011 24.1285 18.9234C23.9357 18.4571 23.743 17.952 23.5503 17.5246C23.8586 17.2137 24.2055 16.9417 24.5139 16.6308C24.6681 16.4754 24.8993 16.3977 25.1306 16.3977C25.3619 16.4366 25.516 16.5531 25.5931 16.7474C25.7088 17.0971 25.8244 17.4468 25.9786 17.7966Z" fill="#DEAA58"/>
<path d="M28.985 18.3406C28.5996 18.7291 28.2141 19.1177 27.7901 19.5063C27.713 19.584 27.5589 19.6228 27.4432 19.6228C27.3276 19.584 27.212 19.5063 27.1349 19.3897C26.9036 18.8846 26.7109 18.3794 26.5182 17.8743C26.8265 17.5634 27.1349 17.2914 27.4047 16.9806C27.5589 16.8251 27.7901 16.7474 28.0214 16.7863C28.2527 16.8251 28.4068 16.9806 28.4839 17.1748C28.6766 17.5634 28.8308 17.952 28.985 18.3406Z" fill="#DEAA58"/>
<path d="M31.9915 19.04C31.6446 19.3897 31.2591 19.7783 30.8737 20.128C30.7966 20.2057 30.6424 20.2446 30.5268 20.2057C30.4112 20.1669 30.2955 20.0891 30.2184 19.9726C29.9872 19.4674 29.7559 18.9623 29.5247 18.4183C29.7945 18.1463 30.1028 17.8354 30.3341 17.5634C30.4883 17.408 30.681 17.3691 30.9122 17.408C31.1435 17.4469 31.2977 17.6411 31.4133 17.8354C31.606 18.2629 31.7987 18.6514 31.9915 19.04Z" fill="#DEAA58"/>
<path d="M34.3427 20.4777C34.1885 20.5943 34.0729 20.7497 33.9187 20.8663C33.8416 20.944 33.726 20.9828 33.5718 20.944C33.4562 20.9051 33.3405 20.8274 33.2634 20.7108C32.9936 20.2057 32.7624 19.7005 32.4926 19.1954C32.7624 18.9234 32.9936 18.6903 33.2249 18.4183C33.3405 18.3017 33.5332 18.2628 33.7645 18.3405C33.9958 18.4183 34.1885 18.5737 34.2656 18.768C34.3427 19.312 34.3812 19.8948 34.3427 20.4777Z" fill="#DEAA58"/>
<path d="M25.0151 15.504C24.5911 15.9314 24.1671 16.32 23.7046 16.7086C23.5889 16.7863 23.4733 16.864 23.3191 16.8251C23.2035 16.8251 23.0879 16.7474 23.0493 16.6697C22.8951 16.2423 22.741 15.8148 22.5868 15.4263C22.9337 15.1154 23.2806 14.8434 23.6275 14.5326C23.8202 14.3771 24.0515 14.2606 24.2442 14.2606C24.4369 14.2606 24.6296 14.3771 24.6682 14.5326C24.7838 14.8434 24.8994 15.1543 25.0151 15.504Z" fill="#DEAA58"/>
<path d="M27.9059 15.8537C27.5204 16.2423 27.135 16.6697 26.711 17.0583C26.6339 17.136 26.4797 17.1749 26.3641 17.1749C26.2485 17.1749 26.1328 17.0971 26.0943 16.9806C25.9016 16.4754 25.7089 16.0091 25.5547 15.5429C25.863 15.232 26.1714 14.9211 26.4797 14.6103C26.6339 14.4548 26.8652 14.3771 27.0579 14.3771C27.2506 14.416 27.4433 14.5326 27.4819 14.7269C27.6361 15.1154 27.7902 15.504 27.9059 15.8537Z" fill="#DEAA58"/>
<path d="M30.7581 16.4754C30.4112 16.864 30.0643 17.2137 29.6788 17.6023C29.6017 17.68 29.4861 17.7188 29.3319 17.68C29.2163 17.6411 29.1007 17.5634 29.0621 17.4468C28.8309 16.9417 28.6382 16.3977 28.4454 15.8926C28.7152 15.5817 28.985 15.3097 29.2549 14.9988C29.409 14.8434 29.6017 14.7657 29.7945 14.8434C29.9872 14.8823 30.1799 15.0377 30.257 15.2708C30.4112 15.6983 30.6039 16.0868 30.7581 16.4754Z" fill="#DEAA58"/>
<path d="M33.5332 17.408C33.2634 17.7189 32.9551 18.0686 32.6082 18.4183C32.5311 18.496 32.4155 18.5349 32.2998 18.496C32.1842 18.4572 32.0686 18.3795 31.9915 18.2629C31.7602 17.7577 31.4904 17.2137 31.2592 16.6697C31.4904 16.3977 31.7217 16.1257 31.9529 15.8537C32.0686 15.6983 32.2613 15.6594 32.454 15.7372C32.6467 15.8149 32.8395 15.9703 32.9165 16.2034C33.1478 16.592 33.3405 16.9806 33.5332 17.408Z" fill="#DEAA58"/>
<path d="M34.2656 17.9908C34.1885 17.8743 34.1114 17.7188 34.0343 17.6023C34.0728 17.5634 34.1499 17.4857 34.1885 17.4468C34.227 17.6023 34.227 17.7966 34.2656 17.9908Z" fill="#DEAA58"/>
<path d="M27.0964 13.5611C26.711 13.9886 26.287 14.416 25.863 14.8046C25.7859 14.8823 25.6317 14.96 25.5161 14.9211C25.4005 14.9211 25.2849 14.8434 25.2849 14.7657C25.1307 14.2994 25.015 13.872 24.8994 13.4834C25.2463 13.1726 25.5547 12.8617 25.863 12.512C26.0172 12.3566 26.2484 12.24 26.4412 12.24C26.6339 12.24 26.7881 12.3566 26.8266 12.512C26.9037 12.8617 26.9808 13.2114 27.0964 13.5611Z" fill="#DEAA58"/>
<path d="M20.0429 27.0834C19.9272 27.2388 19.8116 27.3942 19.7345 27.5108C19.5418 26.9668 19.3876 26.384 19.3105 25.7234C19.3491 25.7622 19.3876 25.8011 19.3876 25.84C19.6189 26.2674 19.8502 26.656 20.0429 27.0834Z" fill="#DEAA58"/>
<path d="M21.4305 25.6068C21.1221 25.9566 20.8523 26.2674 20.5825 26.5783C20.5054 26.656 20.4283 26.656 20.3127 26.6171C20.1971 26.5783 20.0814 26.4617 20.0429 26.3451C19.8502 25.9954 19.696 25.6457 19.5033 25.296C19.4262 25.1794 19.3876 25.0628 19.3105 24.9463C19.3105 24.8297 19.3105 24.7131 19.3105 24.6354C19.4647 24.4411 19.6574 24.2857 19.8502 24.0914C19.9658 23.9748 20.1585 23.936 20.3898 24.0137C20.621 24.0914 20.8138 24.2468 20.8908 24.4411C20.9679 24.5966 21.045 24.7908 21.1607 24.9851C21.1992 25.1794 21.3148 25.4126 21.4305 25.6068Z" fill="#DEAA58"/>
<path d="M20.0814 23.0812C19.8116 23.3532 19.5418 23.6252 19.272 23.8583C19.3105 23.2754 19.3876 22.6537 19.5032 21.9932C19.696 22.3429 19.8887 22.6926 20.0814 23.0812Z" fill="#DEAA58"/>
<path d="M21.9315 21.488C21.5461 21.8377 21.1607 22.2263 20.8138 22.5371C20.7367 22.6148 20.621 22.6537 20.4669 22.6148C20.3512 22.576 20.2356 22.4983 20.1585 22.3817C19.9658 22.032 19.8116 21.6823 19.6189 21.3714V21.3326C19.6574 21.0994 19.7345 20.8663 19.7731 20.6331C19.9272 20.4777 20.0814 20.3611 20.2356 20.2057C20.3898 20.0891 20.621 20.0114 20.8523 20.0503C21.0836 20.0891 21.2763 20.2446 21.3534 20.4C21.5846 20.7497 21.7388 21.0994 21.9315 21.488Z" fill="#DEAA58"/>
<path d="M20.7367 19.1954C20.4669 19.4286 20.2356 19.6229 19.9658 19.856C20.0815 19.3897 20.2356 18.9623 20.3898 18.5349C20.544 18.7291 20.6211 18.9623 20.7367 19.1954Z" fill="#DEAA58"/>
<path d="M22.8951 17.4469C22.4711 17.8354 22.0086 18.224 21.5846 18.5737C21.5075 18.6514 21.3533 18.6903 21.1992 18.6903C21.0835 18.6903 20.9679 18.6126 20.9294 18.496C20.8137 18.3017 20.7366 18.0686 20.6595 17.8743C20.8523 17.408 21.045 16.9806 21.2377 16.5531C21.2762 16.5143 21.3533 16.4754 21.3919 16.4366C21.5846 16.2811 21.8159 16.2034 22.0471 16.2034C22.2784 16.2034 22.4326 16.32 22.5097 16.4754C22.6253 16.7863 22.7409 17.0971 22.8951 17.4469Z" fill="#DEAA58"/>
<path d="M22.0471 15.4263C21.9315 15.5429 21.8158 15.6206 21.7002 15.7371C21.7773 15.5817 21.8929 15.3874 21.97 15.232C22.0085 15.2709 22.0085 15.3486 22.0471 15.4263Z" fill="#DEAA58"/>
<path d="M24.3597 13.4834C23.8972 13.9108 23.4347 14.3383 22.9721 14.7268C22.8565 14.8046 22.7409 14.8823 22.5867 14.8823C22.4711 14.8823 22.3554 14.8434 22.3554 14.7657C22.3554 14.7268 22.3554 14.688 22.3169 14.688C22.8565 13.872 23.4732 13.1337 24.0899 12.5508C24.1285 12.5897 24.167 12.6286 24.167 12.6674C24.2055 12.9006 24.2826 13.2114 24.3597 13.4834Z" fill="#DEAA58"/>
<path d="M29.7173 13.9885C29.3704 14.3771 29.0235 14.7657 28.6766 15.1931C28.5996 15.2708 28.4839 15.3097 28.3683 15.3097C28.2527 15.2708 28.137 15.1931 28.0985 15.1154C27.9058 14.6103 27.7516 14.1051 27.5974 13.6388C27.8672 13.328 28.1756 13.0171 28.4454 12.7063C28.5996 12.5508 28.7923 12.4731 28.9465 12.512C29.1392 12.5508 29.2933 12.7063 29.3319 12.9005C29.4475 13.2503 29.6017 13.6 29.7173 13.9885Z" fill="#DEAA58"/>
<path d="M32.2998 14.8434C32.03 15.1932 31.7601 15.5429 31.4518 15.8926C31.3747 15.9703 31.2591 16.0092 31.1434 15.9703C31.0278 15.9314 30.9122 15.8537 30.8736 15.7372C30.6424 15.1932 30.4496 14.688 30.2184 14.144C30.4496 13.872 30.6809 13.5612 30.8736 13.2892C30.9893 13.1337 31.1434 13.0949 31.3362 13.1726C31.5289 13.2503 31.6831 13.4057 31.7601 13.6389C31.9143 14.0274 32.107 14.416 32.2998 14.8434Z" fill="#DEAA58"/>
<path d="M34.1114 16.9028C34.0343 16.9805 33.9572 16.9805 33.8416 16.9417C33.7259 16.9028 33.6103 16.7863 33.5718 16.6697C33.3019 16.1257 33.0321 15.5817 32.7623 15.0377C32.955 14.8045 33.1092 14.5325 33.2634 14.2994C33.3019 14.2605 33.3019 14.2605 33.3405 14.2217C33.6874 15.0377 33.9186 15.9314 34.1114 16.9028Z" fill="#DEAA58"/>
<path d="M22.3941 27.6274C22.317 27.3943 22.2013 27.2 22.0857 26.9669C22.0086 26.7726 21.8159 26.5783 21.6232 26.5006C21.4305 26.4229 21.2377 26.4617 21.1221 26.5783C20.9294 26.8114 20.7367 27.0834 20.5439 27.3166C20.6596 27.5497 20.7752 27.7829 20.8523 28.016C21.3919 27.8994 21.893 27.7829 22.3941 27.6274Z" fill="#E7B25C"/>
<path d="M25.0535 28.3657C24.9764 28.1326 24.8993 27.9383 24.8222 27.7051C24.7452 27.5109 24.591 27.3554 24.3597 27.3166C24.167 27.2777 23.9357 27.3166 23.8201 27.472C23.5888 27.744 23.319 28.0549 23.0878 28.3269C23.2034 28.56 23.2805 28.832 23.3576 29.0651C23.9357 28.832 24.5139 28.5989 25.0535 28.3657Z" fill="#E7B25C"/>
<path d="M27.3662 28.832C27.4818 28.7543 27.5974 28.6766 27.7516 28.5988C27.7131 28.4434 27.6745 28.288 27.5974 28.1326C27.5203 27.9383 27.3662 27.8217 27.1734 27.7829C26.9807 27.744 26.7495 27.8217 26.5953 27.9771C26.2869 28.288 26.0171 28.5988 25.7473 28.9097C25.8244 29.1428 25.9015 29.4148 25.9786 29.648C26.4026 29.376 26.9036 29.104 27.3662 28.832Z" fill="#E7B25C"/>
<path d="M30.2955 28.9874C30.4112 28.9486 30.4883 28.8708 30.6039 28.832C30.5653 28.6377 30.5268 28.4823 30.4497 28.288C30.4112 28.1326 30.257 28.016 30.0257 28.016C29.7945 28.016 29.5632 28.0937 29.409 28.2491C29.0621 28.56 28.7538 28.8708 28.4454 29.1817C28.5225 29.4148 28.5611 29.6091 28.6382 29.8423C29.1392 29.5314 29.6788 29.2594 30.2955 28.9874Z" fill="#E7B25C"/>
<path d="M32.4154 28.0938C32.0685 28.6766 31.7217 29.1817 31.3362 29.6092C31.2977 29.4537 31.2591 29.2595 31.2206 29.104C31.5675 28.7932 31.9529 28.4823 32.2998 28.2103C32.3384 28.1715 32.3769 28.1326 32.4154 28.0938Z" fill="#E7B25C"/>
<path d="M22.8566 26.2675C23.242 26.1509 23.6275 25.9566 24.0129 25.8012C23.9358 25.6069 23.8587 25.4126 23.7817 25.2572C23.7046 25.0629 23.5119 24.9075 23.2806 24.8297C23.0493 24.7909 22.8566 24.8298 22.7024 24.9852C22.4326 25.2572 22.2014 25.5292 21.9701 25.8012C22.0472 25.9955 22.1628 26.1897 22.2399 26.4229C22.4712 26.3452 22.7024 26.3452 22.8566 26.2675Z" fill="#E7B25C"/>
<path d="M25.5547 27.1612C26.0557 27.0057 26.5183 26.8115 26.9808 26.6172C26.9037 26.384 26.7881 26.112 26.711 25.8789C26.6339 25.6846 26.4412 25.5292 26.2099 25.4903C25.9786 25.4515 25.7474 25.5292 25.5932 25.6846C25.3234 25.9955 25.015 26.2675 24.7452 26.5783C24.8609 26.8115 24.938 27.0835 25.015 27.3166C25.2463 27.2389 25.4005 27.2 25.5547 27.1612Z" fill="#E7B25C"/>
<path d="M29.2934 27.0057C29.4862 26.8892 29.6789 26.7726 29.8716 26.656C29.833 26.5006 29.756 26.384 29.7174 26.2286C29.6403 26.0343 29.4862 25.9177 29.2549 25.9177C29.0236 25.8789 28.7924 25.9566 28.6382 26.112C28.3298 26.4229 28.0215 26.7337 27.7131 27.0057C27.7517 27.1223 27.7902 27.2389 27.8288 27.3555C28.2913 27.3166 28.7924 27.2389 29.2934 27.0057Z" fill="#E7B25C"/>
<path d="M31.105 27.3943C31.4518 27.2777 31.8373 27.2 32.1456 27.0446C32.3769 26.928 32.6082 26.8114 32.8394 26.6949C32.8009 26.6172 32.7623 26.5006 32.7238 26.4229C32.6467 26.2674 32.4925 26.1897 32.2613 26.1509C32.03 26.1509 31.7987 26.2286 31.606 26.384C31.2591 26.6949 30.9508 26.9669 30.6039 27.2777C30.6424 27.3943 30.681 27.472 30.7195 27.5886C30.8351 27.472 30.9893 27.4332 31.105 27.3943Z" fill="#E7B25C"/>
<path d="M22.4711 23.7806C22.6253 23.7029 22.7795 23.664 22.9336 23.5863C22.818 23.3143 22.6638 23.0423 22.5482 22.7703C22.4711 22.576 22.2784 22.4206 22.0471 22.3818C21.8159 22.3429 21.5846 22.3818 21.469 22.5372C21.1992 22.8092 20.9294 23.0423 20.6595 23.3143C20.8137 23.5863 20.9294 23.8583 21.0835 24.1303C21.5461 24.0915 22.0086 23.9749 22.4711 23.7806Z" fill="#E7B25C"/>
<path d="M24.9765 24.2469C25.2849 24.1303 25.5547 24.0137 25.8245 23.8583C25.7474 23.7029 25.7088 23.5475 25.6318 23.392C25.5547 23.1977 25.3619 23.0423 25.1307 23.0035C24.8994 22.9646 24.6682 23.0423 24.514 23.1589C24.2056 23.4309 23.9358 23.7417 23.666 24.0137C23.7431 24.1692 23.8202 24.3246 23.8587 24.48C24.2056 24.4023 24.5911 24.3635 24.9765 24.2469Z" fill="#E7B25C"/>
<path d="M28.4455 24.7909C28.5997 24.7132 28.7924 24.6354 28.9465 24.5577C28.8695 24.3634 28.7924 24.1303 28.6767 23.936C28.5997 23.7417 28.4069 23.5863 28.1757 23.5474C27.9444 23.5086 27.7131 23.5863 27.559 23.7417C27.2506 24.0526 26.9423 24.3246 26.6339 24.6354C26.711 24.7909 26.7495 24.9463 26.8266 25.1406C27.4048 25.024 28.0215 24.9463 28.4455 24.7909Z" fill="#E7B25C"/>
<path d="M31.2977 25.5292C31.6061 25.4126 31.8759 25.2572 32.1457 25.1406C32.03 24.8686 31.9144 24.6355 31.7988 24.3635C31.7217 24.1692 31.529 24.0526 31.2977 24.0137C31.0664 23.9749 30.8352 24.0526 30.681 24.208C30.3727 24.48 30.0643 24.7909 29.7174 25.1017C29.833 25.3737 29.9101 25.6069 30.0258 25.8789C30.4497 25.7623 30.8737 25.6846 31.2977 25.5292Z" fill="#E7B25C"/>
<path d="M33.7645 24.5577C33.6103 25.2183 33.4176 25.84 33.2249 26.384C33.1093 26.0732 32.9551 25.7235 32.8009 25.3737C33.1093 25.1017 33.4561 24.8297 33.7645 24.5577Z" fill="#E7B25C"/>
<path d="M24.8223 21.6046C24.7452 21.4103 24.6296 21.1771 24.5525 20.9828C24.4754 20.7886 24.2827 20.6331 24.0514 20.5943C23.8202 20.5554 23.5889 20.6331 23.4347 20.7497C23.1264 21.0217 22.818 21.3326 22.5482 21.6046C22.6253 21.76 22.6638 21.8766 22.7409 22.032C23.4347 21.7988 24.3212 21.7211 24.8223 21.6046Z" fill="#E7B25C"/>
<path d="M27.7131 21.6823C27.6745 21.6435 27.6745 21.5657 27.636 21.5269C27.5589 21.3326 27.3662 21.1772 27.1349 21.1383C26.9036 21.0995 26.6724 21.1772 26.5182 21.3326C26.2098 21.6435 25.9015 21.9155 25.5931 22.2263C25.6702 22.3817 25.7473 22.5372 25.7859 22.6926C26.4411 22.3429 27.0964 22.032 27.7131 21.6823Z" fill="#E7B25C"/>
<path d="M31.1049 22.8869C30.9893 22.6149 30.8737 22.3429 30.758 22.1097C30.6809 21.9155 30.4882 21.76 30.257 21.7212C30.0257 21.6823 29.7944 21.76 29.6403 21.8766C29.3319 22.1486 29.0236 22.4595 28.7152 22.7703C28.7923 22.9646 28.8694 23.1589 28.9465 23.3532C29.6788 23.3532 30.4111 23.12 31.1049 22.8869Z" fill="#E7B25C"/>
<path d="M33.379 23.4309C33.6103 23.2755 33.8416 23.12 34.0728 22.9646C33.9957 22.848 33.9572 22.7315 33.8801 22.6149C33.803 22.4595 33.6103 22.304 33.379 22.2652C33.1478 22.2263 32.9165 22.2652 32.7623 22.4206C32.454 22.6926 32.1456 22.9646 31.8373 23.2366C31.9529 23.4697 32.03 23.7029 32.1456 23.936C32.5696 23.8195 32.9936 23.7029 33.379 23.4309Z" fill="#E7B25C"/>
<path d="M23.3962 19.584C23.5118 19.5063 23.6275 19.4286 23.7816 19.3509C23.666 19.0789 23.5504 18.8457 23.4347 18.5737C23.3576 18.3794 23.1649 18.2629 22.9337 18.224C22.7024 18.1852 22.4711 18.2629 22.2784 18.4183C21.9701 18.6903 21.6617 18.9623 21.3148 19.2732C21.469 19.584 21.5846 19.8949 21.7388 20.2057C22.3555 20.0892 22.8951 19.856 23.3962 19.584Z" fill="#E7B25C"/>
<path d="M26.0942 19.9337C26.3254 19.8172 26.5182 19.7006 26.7494 19.584C26.6723 19.4286 26.5953 19.2343 26.5182 19.04C26.4411 18.8457 26.2484 18.6903 26.0171 18.6514C25.7858 18.6126 25.5546 18.6903 25.4004 18.8457C25.092 19.1566 24.7837 19.4286 24.4753 19.7394C24.591 19.9726 24.6681 20.2057 24.7837 20.4389C25.2848 20.3223 25.7858 20.0892 26.0942 19.9337Z" fill="#E7B25C"/>
<path d="M29.7174 19.9726C29.6789 19.856 29.6018 19.7394 29.5632 19.6229C29.4862 19.4286 29.2934 19.2731 29.0622 19.2343C28.8309 19.1954 28.5996 19.2731 28.4455 19.3897C28.1371 19.7006 27.8673 19.9726 27.559 20.2834C27.636 20.4777 27.7131 20.6331 27.7902 20.8274C28.4069 20.4777 29.1007 20.2446 29.7174 19.9726Z" fill="#E7B25C"/>
<path d="M32.531 20.944C32.6467 20.8663 32.7623 20.8274 32.8779 20.7497C32.8009 20.5943 32.7238 20.4389 32.6467 20.2834C32.5696 20.0892 32.3383 19.9337 32.1456 19.8949C31.9143 19.856 31.6831 19.8949 31.5674 20.0503C31.2976 20.3223 30.9893 20.5943 30.7195 20.9052C30.7966 21.0606 30.8737 21.2549 30.9507 21.4103C31.4518 21.3326 32.03 21.216 32.531 20.944Z" fill="#E7B25C"/>
<path d="M34.1885 22.3817C34.0343 22.1097 33.8802 21.8377 33.7645 21.5268C33.9572 21.3326 34.15 21.1771 34.3427 20.9828C34.2656 21.4491 34.2271 21.9154 34.1885 22.3817Z" fill="#E7B25C"/>
<path d="M25.6318 17.408C25.6703 17.3692 25.7474 17.3692 25.7859 17.3303C25.7088 17.136 25.6318 16.9417 25.5547 16.7474C25.4776 16.5532 25.3234 16.4366 25.0921 16.3977C24.8609 16.3589 24.6296 16.4754 24.4754 16.6309C24.1671 16.9417 23.8202 17.2137 23.5118 17.5246C23.5889 17.7577 23.7046 17.9909 23.8202 18.224C24.1671 18.1074 25.4776 17.4857 25.6318 17.408Z" fill="#E7B25C"/>
<path d="M28.8309 17.9909C28.7152 17.7189 28.5996 17.4857 28.5225 17.2137C28.4454 17.0194 28.2527 16.864 28.06 16.8251C27.8287 16.7863 27.5974 16.864 27.4433 17.0194C27.1349 17.3303 26.8266 17.6023 26.5568 17.9132C26.6339 18.1463 26.7495 18.3406 26.8266 18.5737C27.5974 18.6903 28.1756 18.4183 28.8309 17.9909Z" fill="#E7B25C"/>
<path d="M29.91 19.0012C30.2569 18.8846 30.5653 18.768 30.8736 18.5349C31.1049 18.3794 31.3362 18.224 31.5674 18.0686C31.5289 17.9909 31.5289 17.952 31.4903 17.8743C31.4132 17.68 31.2205 17.5246 30.9893 17.4469C30.758 17.408 30.5653 17.4469 30.4111 17.6023C30.1413 17.8743 29.8715 18.1852 29.6017 18.4572C29.6788 18.6514 29.7559 18.8069 29.8329 19.0012C29.8329 19.0012 29.8715 19.0012 29.91 19.0012Z" fill="#E7B25C"/>
<path d="M34.3427 19.2732C34.3427 19.1177 34.3427 18.9235 34.3041 18.768C34.1885 18.5737 33.9958 18.4183 33.8031 18.3406C33.5718 18.2629 33.3791 18.3017 33.2635 18.4183C33.0322 18.6515 32.7624 18.9235 32.5311 19.1955C32.6468 19.3897 32.7238 19.6229 32.8395 19.8172C33.3791 19.8172 33.8416 19.584 34.3427 19.2732Z" fill="#E7B25C"/>
<path d="M24.514 15.6206C24.6296 15.5817 24.7838 15.504 24.9765 15.4263C24.8609 15.1154 24.7838 14.8046 24.6682 14.5326C24.6296 14.3771 24.4754 14.2606 24.2442 14.2606C24.0515 14.2606 23.7817 14.3771 23.6275 14.5326C23.2806 14.8434 22.9337 15.1543 22.5868 15.4263C22.6639 15.6206 22.741 15.8148 22.8181 16.048C23.4733 15.8537 24.1671 15.7371 24.514 15.6206Z" fill="#E7B25C"/>
<path d="M27.7131 16.0869C27.7902 16.0092 27.8673 15.9315 27.9059 15.8926C27.7517 15.504 27.6361 15.1543 27.4819 14.7658C27.4048 14.5715 27.2506 14.4549 27.0579 14.416C26.8652 14.3772 26.6339 14.4938 26.4797 14.6492C26.1714 14.96 25.863 15.2709 25.5547 15.5818C25.5932 15.7372 25.6703 15.8926 25.7474 16.048C26.4412 16.1646 27.0579 16.2812 27.7131 16.0869Z" fill="#E7B25C"/>
<path d="M30.0643 16.2811C30.257 16.2423 30.4112 16.1646 30.6039 16.0869C30.4883 15.8149 30.3726 15.5429 30.257 15.2709C30.1799 15.0766 29.9872 14.9211 29.7945 14.8434C29.6018 14.8046 29.409 14.8434 29.2549 14.9988C28.985 15.3097 28.7152 15.5817 28.4454 15.8926C28.484 15.9703 28.5225 16.048 28.5225 16.1257C29.0621 16.32 29.6017 16.3977 30.0643 16.2811Z" fill="#E7B25C"/>
<path d="M32.6852 16.864C32.8394 16.7863 32.9935 16.7086 33.1477 16.592C33.0706 16.4366 32.9935 16.32 32.955 16.1646C32.8394 15.9703 32.6852 15.776 32.4925 15.6983C32.2998 15.6206 32.107 15.6594 31.9914 15.8149C31.7601 16.0869 31.5289 16.3589 31.2976 16.6309C31.3362 16.7474 31.4132 16.864 31.4518 16.9806C31.8758 17.0971 32.2612 17.0583 32.6852 16.864Z" fill="#E7B25C"/>
<path d="M34.2656 17.9909C34.1885 17.8743 34.1114 17.7189 34.0343 17.6023C34.0728 17.5635 34.1499 17.4858 34.1885 17.4469C34.227 17.6023 34.227 17.7966 34.2656 17.9909Z" fill="#E7B25C"/>
<path d="M26.4412 13.6777C26.6339 13.6 26.8266 13.4834 27.0579 13.4057C26.9808 13.0949 26.9037 12.8229 26.8266 12.5509C26.7881 12.3954 26.6339 12.2789 26.4412 12.2789C26.2484 12.2789 26.0557 12.3954 25.863 12.5509C25.5547 12.8617 25.2078 13.1726 24.8994 13.5223C24.938 13.6777 24.9765 13.8332 25.015 13.9886C25.4776 13.9497 25.9786 13.872 26.4412 13.6777Z" fill="#E7B25C"/>
<path d="M20.0429 27.0834C19.9272 27.2389 19.8116 27.3943 19.7345 27.5109C19.5418 26.9669 19.3876 26.384 19.3105 25.7234C19.3491 25.7623 19.3876 25.8012 19.3876 25.84C19.6189 26.2674 19.8502 26.656 20.0429 27.0834Z" fill="#E7B25C"/>
<path d="M21.1221 24.9463C21.045 24.9851 21.0064 24.9851 20.9294 24.9851C20.4668 25.1017 19.9658 25.1794 19.4647 25.296C19.3876 25.1794 19.3491 25.0628 19.272 24.9463C19.272 24.8297 19.272 24.7131 19.272 24.6354C19.4261 24.4411 19.6189 24.2857 19.8116 24.0914C19.9272 23.9748 20.1199 23.936 20.3512 24.0137C20.5825 24.0914 20.7752 24.2468 20.8523 24.4411C20.9294 24.5966 21.0064 24.7908 21.1221 24.9463Z" fill="#E7B25C"/>
<path d="M20.0814 23.0812C19.8116 23.3532 19.5418 23.6252 19.272 23.8583C19.3105 23.2754 19.3876 22.6537 19.5032 21.9932C19.696 22.3429 19.8887 22.6926 20.0814 23.0812Z" fill="#E7B25C"/>
<path d="M21.3533 21.2937C21.4689 21.216 21.6231 21.1771 21.7387 21.0994C21.6231 20.8663 21.5075 20.6331 21.4304 20.4C21.3533 20.2057 21.1606 20.0891 20.9293 20.0503C20.6981 20.0114 20.4668 20.0891 20.3126 20.2057C20.1584 20.3611 20.0043 20.4777 19.8501 20.6331C19.8116 20.8663 19.7345 21.0994 19.6959 21.3326V21.3714C19.773 21.5268 19.8886 21.7211 19.9657 21.8766C20.3897 21.7211 20.8908 21.5268 21.3533 21.2937Z" fill="#E7B25C"/>
<path d="M20.7367 19.1954C20.4669 19.4286 20.2356 19.6229 19.9658 19.856C20.0815 19.3897 20.2356 18.9623 20.3898 18.5349C20.544 18.7291 20.6211 18.9623 20.7367 19.1954Z" fill="#E7B25C"/>
<path d="M21.9701 17.2137C22.2013 17.136 22.4711 17.0583 22.7024 16.9806C22.6253 16.8251 22.5482 16.6309 22.5097 16.4754C22.4326 16.32 22.2784 16.2034 22.0472 16.2034C21.8159 16.2034 21.5846 16.2811 21.3919 16.4366C21.3534 16.4754 21.2763 16.5143 21.2377 16.5531C21.0836 16.8251 20.9679 17.0971 20.8523 17.408C21.2377 17.3691 21.6232 17.3303 21.9701 17.2137Z" fill="#E7B25C"/>
<path d="M22.0471 15.4263C21.9315 15.5429 21.8158 15.6206 21.7002 15.7371C21.7773 15.5817 21.8929 15.3874 21.97 15.232C22.0085 15.2709 22.0085 15.3486 22.0471 15.4263Z" fill="#E7B25C"/>
<path d="M23.9358 13.872C24.09 13.7555 24.2056 13.6389 24.3598 13.4835C24.2827 13.1726 24.2056 12.9006 24.1671 12.6286C24.1671 12.5897 24.1285 12.5509 24.09 12.512C23.5504 13.0172 23.0493 13.6389 22.5482 14.3383C23.0107 14.1829 23.4733 14.0275 23.9358 13.872Z" fill="#E7B25C"/>
<path d="M28.9851 13.6389C29.1393 13.5612 29.332 13.4834 29.4862 13.3669C29.4091 13.2114 29.3705 13.0172 29.2934 12.8617C29.2163 12.6674 29.0622 12.512 28.908 12.4732C28.7153 12.4343 28.5226 12.512 28.4069 12.6674C28.1371 12.9783 27.8673 13.2892 27.559 13.6C27.5975 13.6777 27.636 13.7943 27.6746 13.9109C28.0986 13.9497 28.5226 13.872 28.9851 13.6389Z" fill="#E7B25C"/>
<path d="M30.4111 14.5714C30.8351 14.6491 31.2591 14.6103 31.6445 14.3383C31.7602 14.2606 31.8758 14.144 31.9914 14.0274C31.9143 13.872 31.8758 13.7166 31.7987 13.6C31.7216 13.4057 31.5675 13.2114 31.3747 13.1337C31.182 13.056 31.0278 13.1337 30.9122 13.2503C30.7195 13.5223 30.4882 13.7943 30.257 14.1051C30.257 14.2606 30.334 14.416 30.4111 14.5714C30.4111 14.5714 30.3726 14.5714 30.4111 14.5714Z" fill="#E7B25C"/>
<path d="M33.8416 15.6983C33.6874 15.1931 33.5332 14.688 33.3405 14.2606C33.3019 14.2606 33.3019 14.2994 33.2634 14.3383C33.1092 14.5714 32.955 14.8046 32.7623 15.0766C32.9165 15.4263 33.1092 15.776 33.2634 16.1257C33.4561 15.9703 33.6488 15.8537 33.8416 15.6983Z" fill="#E7B25C"/>
<path d="M23.3191 29.6869C22.7795 30.3863 21.7388 31.4354 21.0835 31.2412C20.7752 31.1634 20.7752 31.0469 20.8908 30.7749C20.9679 30.5806 21.0835 30.3474 21.1606 30.1532C21.2762 29.8812 21.2377 29.8423 21.045 29.8034C20.5825 29.6869 19.9658 30.1532 19.4261 29.9977C19.3491 29.9589 19.1949 29.92 19.2334 29.8034C19.272 29.6869 19.4647 29.5703 19.5032 29.4926C19.5032 29.4537 19.3876 29.4149 19.3491 29.4149C18.8865 29.2983 18.2698 29.376 17.8073 29.2594C16.4583 28.8709 17.7302 28.5989 17.9229 28.1714C18.2698 27.3166 14.0685 27.2777 19.2334 26.3063C19.3105 26.3063 19.3491 26.2674 19.3491 26.2286C19.4261 26.0343 19.1178 25.6846 19.1563 25.6069C19.3876 25.4126 19.6959 25.4126 19.9658 25.5292C21.1606 25.9177 20.3512 25.3737 20.5439 24.8686C20.5825 24.752 20.7752 24.6743 20.8908 24.7132C21.1221 24.7909 21.2762 25.1794 21.469 25.2572C21.5461 25.296 21.6617 25.2183 21.7002 25.1017C21.8159 24.8297 21.6231 24.3246 21.6617 24.1303C21.7002 24.0137 22.0857 24.1303 22.2013 24.1303C23.3191 24.5189 24.3983 27.4332 23.9743 28.4823C23.8972 28.9097 23.6274 29.2983 23.3191 29.6869Z" fill="#B3D12E"/>
<path d="M22.4711 25.1406C22.2013 26.4618 21.5846 28.7543 20.3126 29.92C20.5824 29.8423 20.8522 29.7646 21.045 29.8423C21.1991 29.8812 21.2377 29.92 21.1606 30.192C21.0835 30.3863 20.9679 30.6195 20.8908 30.8138C20.7751 31.0858 20.7751 31.2023 21.0835 31.28C21.7387 31.4743 22.7794 30.4252 23.319 29.7258C23.5889 29.3372 23.8587 28.9486 24.0128 28.56C24.3597 27.6663 23.5889 25.296 22.6638 24.48C22.5867 24.5578 22.5482 24.6743 22.4711 24.752C22.5096 24.8686 22.4711 25.024 22.4711 25.1406Z" fill="#95AD26"/>
<path d="M24.2056 25.6069C23.743 25.4903 23.0107 25.1017 22.9722 24.5577C22.9722 24.3246 23.0107 24.2857 23.1649 24.2469C23.2805 24.2469 23.4347 24.2469 23.5118 24.208C23.666 24.1692 23.666 24.1303 23.666 24.0137C23.6274 23.664 23.2805 23.392 23.242 22.9646C23.242 22.8869 23.242 22.7703 23.2805 22.7703C23.3576 22.7703 23.4347 22.848 23.4732 22.848C23.5118 22.848 23.4732 22.7314 23.4732 22.7314C23.4347 22.3817 23.2805 21.9932 23.2805 21.6823C23.2034 20.7109 23.5889 21.4103 23.8201 21.4103C24.3212 21.3714 23.5503 18.6903 24.9765 21.6434C25.015 21.6823 25.015 21.7212 25.0535 21.6823C25.1692 21.6823 25.2848 21.3326 25.3233 21.3326C25.4775 21.4103 25.5161 21.6046 25.5161 21.8377C25.5932 22.7703 25.6702 22.032 25.94 21.9932C26.0171 21.9932 26.0557 22.1097 26.0942 22.1874C26.0942 22.3817 25.94 22.6149 25.94 22.7314C25.94 22.8092 25.9786 22.848 26.0557 22.848C26.2099 22.848 26.4411 22.5372 26.5182 22.5372C26.5953 22.5372 26.6338 22.848 26.6338 22.8869C26.7109 23.7806 25.439 25.5292 24.8223 25.6069C24.7066 25.7234 24.4754 25.6846 24.2056 25.6069Z" fill="#B3D12E"/>
<path d="M24.3982 29.8034C23.3575 29.5314 22.2783 29.9977 21.97 30.8914C21.6616 31.7851 22.2783 32.7177 23.319 32.9509C24.3597 33.184 25.4004 32.6788 25.7087 31.824C25.9785 30.9691 25.4004 30.0754 24.3982 29.8034Z" fill="#6A74AF"/>
<path d="M24.4368 32.0183C24.167 32.1348 24.0128 32.368 24.0514 32.5234C24.0899 32.6788 24.3597 32.7177 24.6296 32.6011C24.8994 32.4846 25.0535 32.2514 25.015 32.096C24.9764 31.9017 24.7066 31.8628 24.4368 32.0183Z" fill="#7680C4"/>
<path d="M25.7088 31.824C25.6702 31.9406 25.5931 32.096 25.516 32.2126C25.5546 32.1348 25.5546 32.0183 25.5546 31.9017C25.6702 30.5417 23.6659 30.464 22.818 31.28C22.7794 31.3188 22.7409 31.3577 22.7023 31.4354C22.4325 31.7074 22.3554 32.2126 22.4711 32.5623C21.97 32.096 21.7387 31.4743 21.97 30.8914C22.2784 29.9977 23.3961 29.5314 24.3983 29.8034C25.4004 30.0754 25.9786 30.9691 25.7088 31.824Z" fill="#596193"/>
<path d="M29.2934 30.3475C28.2912 30.5029 27.4818 31.3189 27.5204 32.1737C27.5589 33.0286 28.4069 33.5726 29.409 33.3783C30.4112 33.184 31.1435 32.368 31.1435 31.552C31.105 30.7749 30.2955 30.2309 29.2934 30.3475Z" fill="#6A74AF"/>
<path d="M30.1028 32.2126C29.9101 32.4069 29.833 32.6789 29.9486 32.7954C30.0642 32.912 30.2955 32.8343 30.4882 32.64C30.681 32.4457 30.758 32.1737 30.6424 32.0572C30.5268 31.9406 30.257 32.0183 30.1028 32.2126Z" fill="#7680C4"/>
<path d="M31.1049 31.5909C31.1049 31.7074 31.1049 31.8629 31.0664 31.9794C31.0664 31.9017 31.0279 31.824 31.0279 31.7074C30.681 30.5029 28.8694 31.2023 28.4069 32.2126C28.3683 32.2514 28.3683 32.3292 28.3298 32.4069C28.1756 32.7566 28.2912 33.184 28.5225 33.4172C27.9443 33.2617 27.5204 32.8343 27.5204 32.2514C27.4818 31.3966 28.2912 30.5806 29.2934 30.4252C30.2955 30.2309 31.1049 30.7749 31.1049 31.5909Z" fill="#596193"/>
<path d="M25.7859 24.752C24.7838 24.4412 23.7045 24.8686 23.3962 25.7235C23.0878 26.5783 23.666 27.5109 24.7067 27.8218C25.7088 28.0938 26.7495 27.6663 27.0193 26.8115C27.3276 25.9566 26.7495 25.0629 25.7859 24.752Z" fill="#6A74AF"/>
<path d="M25.8244 26.9281C25.5546 27.0446 25.4004 27.2778 25.439 27.4332C25.4775 27.5886 25.7473 27.6275 26.0171 27.5498C26.2869 27.4332 26.4411 27.2001 26.364 27.0446C26.3255 26.8503 26.0557 26.8115 25.8244 26.9281Z" fill="#7680C4"/>
<path d="M27.0192 26.8115C26.9807 26.9281 26.9036 27.0446 26.8265 27.1612C26.8651 27.0835 26.8651 26.9669 26.8651 26.8892C26.9807 25.5681 25.015 25.3738 24.2055 26.1509C24.167 26.1898 24.1285 26.2286 24.0899 26.3063C23.8201 26.5783 23.743 27.0446 23.8587 27.3943C23.3576 26.9669 23.1649 26.3452 23.3576 25.7623C23.6659 24.9075 24.7452 24.4801 25.7473 24.7909C26.7494 25.0629 27.3276 25.9566 27.0192 26.8115Z" fill="#596193"/>
<path d="M24.6296 27.4332C23.5889 27.1223 22.5097 27.5886 22.2014 28.4823C21.893 29.3372 22.4712 30.2697 23.5504 30.5417C24.5911 30.8137 25.6318 30.3086 25.9401 29.4926C26.2099 28.6377 25.6703 27.744 24.6296 27.4332Z" fill="#6A74AF"/>
<path d="M24.7067 29.648C24.4369 29.7646 24.2827 29.9978 24.3213 30.1532C24.3598 30.3086 24.6296 30.3475 24.8995 30.2309C25.1693 30.1143 25.3234 29.8812 25.2849 29.7258C25.2078 29.5703 24.938 29.5315 24.7067 29.648Z" fill="#7680C4"/>
<path d="M25.9401 29.4926C25.9015 29.6092 25.8245 29.7646 25.7474 29.8812C25.7859 29.8035 25.7859 29.6869 25.7859 29.6092C25.9015 28.2492 23.8973 28.1326 23.0493 28.9098C23.0107 28.9486 22.9722 28.9875 22.9337 29.0652C22.6639 29.3372 22.5868 29.8035 22.7024 30.1532C22.2013 29.7257 21.9701 29.104 22.2013 28.5212C22.5097 27.6663 23.6275 27.2 24.6296 27.472C25.6703 27.744 26.2099 28.6377 25.9401 29.4926Z" fill="#596193"/>
<path d="M32.531 30.0754C31.6445 29.8423 30.7195 30.2697 30.4496 31.0857C30.1798 31.9017 30.7195 32.7566 31.606 32.9897C32.4925 33.2229 33.4175 32.7566 33.6488 31.9406C33.9186 31.1634 33.4175 30.3086 32.531 30.0754Z" fill="#6A74AF"/>
<path d="M32.5696 32.096C32.3384 32.2126 32.1842 32.4457 32.2613 32.5623C32.2998 32.7177 32.5311 32.7566 32.7623 32.64C32.9936 32.5235 33.1092 32.2903 33.0707 32.1737C33.0321 32.0183 32.8009 32.0183 32.5696 32.096Z" fill="#7680C4"/>
<path d="M33.6488 31.9406C33.6102 32.0572 33.5331 32.1737 33.4946 32.2903C33.5331 32.2126 33.5331 32.1349 33.5331 32.0183C33.6102 30.736 31.9143 30.6972 31.182 31.4355C31.1434 31.4743 31.1049 31.5132 31.0663 31.5909C30.8351 31.8629 30.758 32.2903 30.8736 32.6012C30.4496 32.2126 30.2569 31.6297 30.4496 31.0857C30.7194 30.2697 31.6445 29.8035 32.531 30.0755C33.4175 30.3086 33.9186 31.1635 33.6488 31.9406Z" fill="#596193"/>
<path d="M29.9487 28.9875C29.0236 28.7155 28.0215 29.1817 27.7517 29.9977C27.4819 30.8526 28.0215 31.7074 28.9465 31.9406C29.8716 32.1737 30.8352 31.7074 31.105 30.8914C31.3748 30.0754 30.8737 29.2206 29.9487 28.9875Z" fill="#6A74AF"/>
<path d="M29.9872 31.0857C29.7559 31.2023 29.6018 31.4354 29.6403 31.5909C29.6788 31.7463 29.9101 31.7852 30.1799 31.6686C30.4112 31.552 30.5654 31.3189 30.5268 31.1634C30.4497 31.008 30.2185 30.9692 29.9872 31.0857Z" fill="#7680C4"/>
<path d="M31.105 30.8915C31.0664 31.008 30.9893 31.1246 30.9122 31.2412C30.9508 31.1635 30.9508 31.0469 30.9508 30.9692C31.0279 29.6869 29.2549 29.5703 28.484 30.3475C28.4454 30.3863 28.4069 30.4252 28.3683 30.5029C28.1371 30.7749 28.06 31.2412 28.1756 31.552C27.7131 31.1634 27.5204 30.5417 27.7131 29.9977C27.9829 29.1817 28.9851 28.7155 29.9101 28.9875C30.8737 29.2206 31.3748 30.0755 31.105 30.8915Z" fill="#596193"/>
<path d="M32.8394 28.2491C31.9528 27.9771 31.0278 28.4046 30.758 29.2206C30.4882 30.0366 31.0278 30.8914 31.9143 31.1246C32.8008 31.3577 33.6873 30.9303 33.9571 30.1143C34.2269 29.3371 33.7259 28.4823 32.8394 28.2491Z" fill="#6A74AF"/>
<path d="M32.9164 30.2697C32.6852 30.3863 32.531 30.5805 32.6081 30.736C32.6466 30.8914 32.8779 30.9303 33.1091 30.8137C33.3404 30.6971 33.456 30.5028 33.4175 30.3474C33.3404 30.192 33.1091 30.1531 32.9164 30.2697Z" fill="#7680C4"/>
<path d="M33.9571 30.1143C33.9186 30.2309 33.88 30.3474 33.8029 30.464C33.8415 30.3863 33.8415 30.3086 33.8415 30.192C33.9186 28.9486 32.2226 28.832 31.4903 29.5703C31.4518 29.6091 31.4132 29.648 31.3747 29.7257C31.1434 29.9977 31.0663 30.4251 31.182 30.736C30.758 30.3474 30.5653 29.7646 30.758 29.2206C31.0278 28.4046 31.9528 27.9771 32.8394 28.2491C33.7259 28.4823 34.2269 29.3371 33.9571 30.1143Z" fill="#596193"/>
<path d="M31.4519 27.1223C30.5654 26.8503 29.6018 27.2777 29.332 28.0937C29.0622 28.9097 29.6018 29.8035 30.5269 30.0366C31.4134 30.2697 32.377 29.8423 32.6082 29.0652C32.8395 28.2492 32.3384 27.3943 31.4519 27.1223Z" fill="#6A74AF"/>
<path d="M31.4904 29.1817C31.2591 29.2983 31.1049 29.4926 31.1435 29.648C31.182 29.8034 31.4133 29.8423 31.6445 29.7257C31.8758 29.6092 32.03 29.4149 31.9529 29.2594C31.9144 29.1429 31.7216 29.104 31.4904 29.1817Z" fill="#7680C4"/>
<path d="M32.5696 29.0652C32.5311 29.1817 32.454 29.2983 32.4155 29.4149C32.454 29.3372 32.454 29.2594 32.454 29.1429C32.5311 27.8606 30.7966 27.744 30.0643 28.4823C30.0258 28.5212 29.9872 28.56 29.9487 28.6377C29.7174 28.9097 29.6403 29.3372 29.7559 29.648C29.332 29.2595 29.1392 28.6766 29.332 28.0937C29.6018 27.2777 30.5654 26.8503 31.4519 27.1223C32.3384 27.3943 32.8395 28.2492 32.5696 29.0652Z" fill="#596193"/>
<path d="M30.1029 25.1017C29.1778 24.7908 28.1757 25.2183 27.9059 26.0343C27.6361 26.8503 28.1757 27.744 29.1007 28.016C30.0258 28.288 30.9894 27.8606 31.2592 27.0446C31.529 26.2674 30.9894 25.4126 30.1029 25.1017Z" fill="#6A74AF"/>
<path d="M30.1414 27.2C29.9101 27.3166 29.7559 27.5109 29.7945 27.6663C29.833 27.8217 30.0643 27.8606 30.2955 27.744C30.5268 27.6274 30.681 27.4331 30.6424 27.2777C30.6039 27.1611 30.3726 27.0834 30.1414 27.2Z" fill="#7680C4"/>
<path d="M31.2591 27.0834C31.2206 27.2 31.1435 27.3165 31.0664 27.4331C31.105 27.3554 31.105 27.2388 31.105 27.1611C31.182 25.8788 29.409 25.7234 28.6382 26.4617C28.5996 26.5005 28.5611 26.5394 28.5225 26.6171C28.2913 26.8891 28.2142 27.3165 28.3298 27.6663C27.8673 27.2388 27.6746 26.656 27.8673 26.112C28.1371 25.296 29.1392 24.8685 30.0643 25.1794C30.9893 25.4125 31.5289 26.2674 31.2591 27.0834Z" fill="#596193"/>
<path d="M28.561 26.4229C27.5974 26.112 26.5953 26.5783 26.2869 27.3943C25.9786 28.2491 26.5567 29.1429 27.5203 29.4149C28.4839 29.6869 29.4475 29.2206 29.7173 28.4046C30.0257 27.5886 29.5246 26.6949 28.561 26.4229Z" fill="#6A74AF"/>
<path d="M28.5995 28.5211C28.3682 28.6377 28.2141 28.832 28.2526 29.0263C28.2912 29.1817 28.561 29.2206 28.7922 29.104C29.0235 28.9874 29.1777 28.7931 29.1391 28.5989C29.1006 28.4823 28.8693 28.4434 28.5995 28.5211Z" fill="#7680C4"/>
<path d="M29.7559 28.4046C29.7174 28.5211 29.6403 28.6377 29.5632 28.7543C29.6017 28.6766 29.6017 28.56 29.6017 28.4823C29.7174 27.1611 27.8673 27.0446 27.0578 27.7828C27.0193 27.8217 26.9807 27.8606 26.9422 27.9383C26.6724 28.2103 26.6339 28.6766 26.7495 28.9874C26.287 28.56 26.0942 27.9771 26.287 27.3943C26.5953 26.5783 27.5974 26.1508 28.561 26.4228C29.5246 26.6948 30.0257 27.5886 29.7559 28.4046Z" fill="#596193"/>
<path d="M27.7902 29.376C26.8266 29.104 25.7859 29.5703 25.4776 30.4252C25.1692 31.28 25.7474 32.1737 26.7495 32.4069C27.7131 32.64 28.7153 32.1737 28.9851 31.3189C29.2934 30.5417 28.7538 29.648 27.7902 29.376Z" fill="#6A74AF"/>
<path d="M27.8288 31.5132C27.5975 31.6297 27.4048 31.8629 27.4819 32.0183C27.5204 32.1737 27.7902 32.2126 28.0215 32.096C28.2527 31.9794 28.4069 31.7463 28.3684 31.5909C28.3298 31.4354 28.0986 31.3966 27.8288 31.5132Z" fill="#7680C4"/>
<path d="M28.985 31.3578C28.9465 31.4743 28.8694 31.5909 28.7923 31.7075C28.8309 31.6298 28.8309 31.5132 28.8309 31.4355C28.9465 30.1143 27.0578 30.0366 26.2484 30.8138C26.2099 30.8526 26.1713 30.8915 26.1328 30.9692C25.863 31.2412 25.7859 31.7075 25.9015 32.0572C25.439 31.6686 25.2077 31.0469 25.439 30.464C25.7473 29.6092 26.7495 29.1429 27.7516 29.4149C28.7538 29.648 29.2934 30.5418 28.985 31.3578Z" fill="#596193"/>
<path d="M26.788 30.8526C25.7858 30.5806 24.7452 31.0858 24.4368 31.9406C24.1285 32.7955 24.7066 33.6892 25.7088 33.9612C26.7109 34.1943 27.713 33.6892 27.9828 32.8343C28.3297 31.9795 27.7516 31.0858 26.788 30.8526Z" fill="#6A74AF"/>
<path d="M26.8265 32.9898C26.5566 33.1063 26.4025 33.3395 26.4796 33.4949C26.5181 33.6503 26.7879 33.6892 27.0192 33.5726C27.2504 33.4561 27.4432 33.2229 27.3661 33.0675C27.3275 32.9121 27.0963 32.8732 26.8265 32.9898Z" fill="#7680C4"/>
<path d="M28.0214 32.7955C27.9828 32.9121 27.9057 33.0675 27.8287 33.1841C27.8672 33.1064 27.8672 32.9898 27.8672 32.9121C27.9828 31.5521 26.0556 31.5132 25.2462 32.3292C25.2077 32.3681 25.1691 32.4069 25.1306 32.4846C24.8608 32.7566 24.7837 33.2229 24.8993 33.5726C24.4368 33.1841 24.2055 32.5624 24.4368 31.9795C24.7451 31.1246 25.7858 30.6195 26.788 30.8915C27.7516 31.0858 28.3297 31.9795 28.0214 32.7955Z" fill="#596193"/>
<path d="M26.4412 28.7154C25.4391 28.4434 24.3984 28.9097 24.09 29.7646C23.7817 30.6194 24.3598 31.552 25.4005 31.7852C26.4027 32.0183 27.4048 31.552 27.7132 30.6972C27.9444 29.8812 27.4048 28.9874 26.4412 28.7154Z" fill="#6A74AF"/>
<path d="M26.4797 30.8914C26.2098 31.008 26.0557 31.2412 26.1328 31.3966C26.1713 31.552 26.4411 31.5909 26.6724 31.4743C26.9422 31.3577 27.0964 31.1246 27.0193 30.9692C26.9807 30.8137 26.7109 30.7749 26.4797 30.8914Z" fill="#7680C4"/>
<path d="M27.6746 30.736C27.636 30.8526 27.5589 31.008 27.4818 31.0857C27.5204 31.008 27.5204 30.8914 27.5204 30.8137C27.636 29.4926 25.7088 29.376 24.8994 30.1532C24.8608 30.192 24.8223 30.2309 24.7838 30.3086C24.514 30.5806 24.4369 31.0469 24.5525 31.3966C24.0514 30.9692 23.8587 30.3863 24.0514 29.7646C24.3598 28.9097 25.4005 28.4434 26.4026 28.7154C27.4047 28.9874 27.9444 29.8812 27.6746 30.736Z" fill="#596193"/>
<path d="M26.287 26.3063C25.2849 25.9954 24.2442 26.4617 23.9358 27.2777C23.6275 28.1326 24.2057 29.0651 25.2463 29.3371C26.2485 29.6091 27.2506 29.1429 27.559 28.3269C27.7902 27.5109 27.2506 26.5783 26.287 26.3063Z" fill="#6A74AF"/>
<path d="M26.3255 28.4434C26.0557 28.56 25.9015 28.7932 25.9786 28.9486C26.0171 29.104 26.2869 29.1429 26.5182 29.0263C26.788 28.9097 26.9422 28.6766 26.8651 28.5212C26.8266 28.4046 26.5567 28.3657 26.3255 28.4434Z" fill="#7680C4"/>
<path d="M27.5204 28.3269C27.4818 28.4435 27.4048 28.56 27.3277 28.6766C27.3662 28.5989 27.3662 28.4823 27.3662 28.4046C27.4818 27.0835 25.5546 26.928 24.7452 27.7052C24.7067 27.744 24.6681 27.7829 24.6296 27.8606C24.3598 28.1326 24.2827 28.5989 24.3983 28.9486C23.9358 28.5212 23.7045 27.8995 23.8973 27.3166C24.2056 26.4617 25.2463 26.0343 26.2484 26.3452C27.2506 26.5783 27.7902 27.5109 27.5204 28.3269Z" fill="#596193"/>
<path d="M27.1735 23.7029C26.2099 23.392 25.1692 23.7806 24.8609 24.6355C24.5525 25.4903 25.1307 26.384 26.1328 26.6949C27.0964 26.9669 28.1371 26.5395 28.4069 25.7235C28.6767 24.9075 28.1371 24.0137 27.1735 23.7029Z" fill="#6A74AF"/>
<path d="M27.2121 25.84C26.9808 25.9566 26.7881 26.1509 26.8652 26.3452C26.9037 26.5006 27.1735 26.5395 27.4048 26.4618C27.636 26.3452 27.7902 26.1509 27.7517 25.9955C27.7131 25.8012 27.4819 25.7235 27.2121 25.84Z" fill="#7680C4"/>
<path d="M28.4069 25.7235C28.3684 25.84 28.2913 25.9566 28.2142 26.0732C28.2527 25.9955 28.2527 25.8789 28.2527 25.8012C28.3684 24.48 26.4412 24.3246 25.6703 25.024C25.6317 25.0629 25.5932 25.1017 25.5547 25.1795C25.2849 25.4515 25.2078 25.9177 25.3234 26.2286C24.8609 25.8012 24.6296 25.1795 24.8609 24.5966C25.1692 23.7806 26.2099 23.3532 27.1735 23.664C28.1371 24.0137 28.6767 24.9074 28.4069 25.7235Z" fill="#596193"/>
<path d="M28.8695 23.3143C27.9059 23.0034 26.9037 23.392 26.6339 24.208C26.3641 25.024 26.9037 25.9566 27.8673 26.2286C28.8309 26.5006 29.7945 26.112 30.0643 25.296C30.3341 24.5188 29.7945 23.6251 28.8695 23.3143Z" fill="#6A74AF"/>
<path d="M28.908 25.4126C28.6767 25.5291 28.5225 25.7234 28.5611 25.8789C28.5996 26.0343 28.8694 26.0731 29.1007 25.9954C29.332 25.8789 29.4861 25.6846 29.4476 25.5291C29.409 25.3737 29.1392 25.3349 28.908 25.4126Z" fill="#7680C4"/>
<path d="M30.0643 25.3348C30.0257 25.4514 29.9487 25.568 29.8716 25.6845C29.9101 25.6068 29.9101 25.4903 29.9101 25.4125C30.0257 24.1303 28.1756 23.936 27.4048 24.6743C27.3662 24.7131 27.3277 24.752 27.2891 24.8297C27.0579 25.1017 26.9808 25.5291 27.0964 25.8788C26.6339 25.4514 26.4412 24.8297 26.6339 24.2857C26.9037 23.4697 27.9444 23.0811 28.8694 23.392C29.7945 23.6251 30.3341 24.5188 30.0643 25.3348Z" fill="#596193"/>
<path d="M30.681 25.84C29.756 25.568 28.7924 25.9566 28.5226 26.7726C28.2528 27.5886 28.7924 28.4823 29.7174 28.7543C30.6425 29.0263 31.5675 28.5989 31.8373 27.7829C32.0686 27.0057 31.5675 26.112 30.681 25.84Z" fill="#6A74AF"/>
<path d="M30.7195 27.8994C30.4882 28.016 30.3341 28.2103 30.3726 28.3657C30.4111 28.5212 30.6424 28.56 30.8737 28.4434C31.1049 28.3269 31.2591 28.1326 31.2206 27.9772C31.182 27.8606 30.9508 27.8217 30.7195 27.8994Z" fill="#7680C4"/>
<path d="M31.8373 27.7829C31.7988 27.8994 31.7217 28.016 31.6831 28.1326C31.7217 28.0549 31.7217 27.9383 31.7217 27.8606C31.7988 26.5783 30.0258 26.4617 29.2934 27.1611C29.2549 27.2 29.2163 27.2389 29.1778 27.3166C28.9465 27.5886 28.8694 28.016 28.9851 28.3657C28.5225 27.9771 28.3298 27.3554 28.5226 26.8114C28.7924 25.9954 29.7945 25.568 30.681 25.8789C31.5675 26.112 32.0686 27.0057 31.8373 27.7829Z" fill="#596193"/>
<path d="M31.5675 25.6458C30.681 25.3738 29.7174 25.7624 29.4476 26.5784C29.1778 27.3944 29.7174 28.2881 30.6425 28.5212C31.529 28.7932 32.4926 28.3658 32.7238 27.5498C32.9551 26.7726 32.454 25.9178 31.5675 25.6458Z" fill="#6A74AF"/>
<path d="M31.6061 27.7052C31.3749 27.8217 31.2207 28.016 31.2978 28.1715C31.3363 28.3269 31.5676 28.3657 31.7988 28.2492C32.0301 28.1326 32.1843 27.9383 32.1072 27.7829C32.0686 27.6275 31.8374 27.5886 31.6061 27.7052Z" fill="#7680C4"/>
<path d="M32.7238 27.5498C32.6853 27.6663 32.6082 27.7829 32.5697 27.8995C32.6082 27.8218 32.6082 27.744 32.6082 27.6275C32.6853 26.3452 30.9508 26.2286 30.2185 26.9281C30.1799 26.9669 30.1414 27.0058 30.1028 27.0835C29.8716 27.3555 29.7945 27.7829 29.9101 28.0938C29.4861 27.7052 29.2934 27.0835 29.4861 26.5395C29.7559 25.7235 30.7195 25.3349 31.6061 25.6069C32.454 25.9178 32.9551 26.7726 32.7238 27.5498Z" fill="#596193"/>
<path d="M26.8652 22.1098C25.9016 21.76 24.8223 22.1875 24.5525 23.0035C24.2442 23.8195 24.8223 24.7909 25.8245 25.1018C26.8266 25.4126 27.8288 24.9852 28.0986 24.1692C28.4069 23.3532 27.8288 22.4206 26.8652 22.1098Z" fill="#6A74AF"/>
<path d="M26.9422 24.2469C26.6724 24.3635 26.5182 24.5578 26.5953 24.7132C26.6338 24.8686 26.9036 24.9464 27.1349 24.8298C27.3662 24.7132 27.5589 24.5189 27.4818 24.3635C27.4047 24.2081 27.1734 24.1304 26.9422 24.2469Z" fill="#7680C4"/>
<path d="M28.0985 24.1692C28.06 24.2857 27.9829 24.4023 27.9058 24.5189C27.9444 24.4412 27.9444 24.3246 27.9444 24.2469C28.06 22.9257 26.1328 22.7315 25.3234 23.4309C25.2848 23.4697 25.2463 23.5086 25.2077 23.5863C24.9379 23.8583 24.8608 24.2857 24.9765 24.6355C24.5139 24.208 24.2827 23.5863 24.5139 23.0035C24.8223 22.1875 25.863 21.7989 26.8266 22.1097C27.8287 22.4206 28.4069 23.3532 28.0985 24.1692Z" fill="#596193"/>
<path d="M28.9851 28.2492C28.0215 27.9772 27.0193 28.4046 26.7495 29.2595C26.4797 30.1143 27.0193 31.008 27.9829 31.2412C28.9465 31.4743 29.9101 31.008 30.1799 30.192C30.4497 29.376 29.9101 28.5212 28.9851 28.2492Z" fill="#6A74AF"/>
<path d="M29.0236 30.3474C28.7923 30.464 28.6381 30.6972 28.6767 30.8526C28.7152 31.008 28.985 31.0469 29.2163 30.9303C29.4476 30.8137 29.6017 30.5806 29.5632 30.4252C29.5246 30.2697 29.2934 30.2309 29.0236 30.3474Z" fill="#7680C4"/>
<path d="M30.1799 30.192C30.1413 30.3086 30.0643 30.4252 29.9872 30.5417C30.0257 30.464 30.0257 30.3474 30.0257 30.2697C30.1413 28.9486 28.2912 28.8709 27.5204 29.6092C27.4818 29.648 27.4433 29.6869 27.4047 29.7646C27.1735 30.0366 27.0964 30.5029 27.212 30.8137C26.7495 30.4252 26.5568 29.8034 26.7495 29.2206C27.0193 28.3657 28.06 27.9383 28.985 28.2103C29.9101 28.5212 30.4497 29.376 30.1799 30.192Z" fill="#596193"/>
<path d="M28.5996 26.0731C27.636 25.7623 26.6338 26.1897 26.3255 27.0446C26.0171 27.8994 26.5953 28.7931 27.5589 29.0651C28.5225 29.3371 29.4861 28.8709 29.7559 28.0549C30.0642 27.2389 29.5246 26.3451 28.5996 26.0731Z" fill="#6A74AF"/>
<path d="M28.6381 28.1714C28.4068 28.288 28.2526 28.4823 28.2912 28.6766C28.3297 28.832 28.5995 28.8708 28.8308 28.7543C29.0621 28.6377 29.2162 28.4434 29.1777 28.2491C29.1006 28.0937 28.8693 28.0548 28.6381 28.1714Z" fill="#7680C4"/>
<path d="M29.7945 28.0548C29.7559 28.1714 29.6788 28.288 29.6018 28.4045C29.6403 28.3268 29.6403 28.2103 29.6403 28.1325C29.7559 26.8114 27.9058 26.6948 27.0964 27.4331C27.0579 27.472 27.0193 27.5108 26.9808 27.5885C26.7495 27.8605 26.6724 28.3268 26.7881 28.6377C26.3255 28.2103 26.1328 27.6274 26.3255 27.0445C26.6339 26.2285 27.636 25.8011 28.5996 26.0731C29.5247 26.3451 30.0643 27.2388 29.7945 28.0548Z" fill="#596193"/>
<path d="M13.9914 13.4057C13.8758 13.872 12.1799 14.8046 11.6788 16.7863C9.1349 26.656 -0.269814 21.3326 0.0385373 23.0034C0.192713 23.8972 1.38757 25.7234 3.12205 26.3063C7.40042 27.7829 12.257 25.7623 14.8779 19.3897C15.6874 17.408 16.0728 15.2709 14.9165 13.7166C14.9165 13.7166 14.4925 13.0172 14.454 12.9783C14.3769 12.9394 14.1071 13.0949 14.03 13.328C13.9914 13.3669 13.9914 13.3669 13.9914 13.4057Z" fill="#FFD447"/>
<path d="M0 23.0034C0.847966 23.664 1.73448 24.208 2.50535 24.5966C4.394 25.568 6.82227 25.6069 8.67238 24.48C10.7923 23.2366 13.1049 20.944 14.1071 17.9131C14.4925 16.6697 14.8394 15.1543 14.8779 13.7554C15.9957 15.3097 15.6488 17.4469 14.8394 19.3897C12.2184 25.7623 7.36188 27.7829 3.08351 26.3063C1.38758 25.7234 0.154176 23.8971 0 23.0034Z" fill="#FFBE30"/>
<path d="M14.9551 13.7166C14.9551 14.2217 13.5289 15.6595 13.4904 17.7577C13.2977 28.0549 3.23773 26.0343 3.89297 27.5497C4.23987 28.3657 5.74308 29.6869 7.47755 29.6869C11.9101 29.7257 16.1114 26.1897 17.1906 19.1566C17.5375 16.9806 17.3833 14.8046 15.9187 13.7166C15.9187 13.7166 15.3405 13.1726 15.302 13.1726C15.1863 13.1726 14.9936 13.4057 14.9551 13.6777V13.7166Z" fill="#FFD447"/>
<path d="M15.6874 15.1543C15.3406 14.1829 15.302 13.4058 15.4176 12.5509C15.4947 11.8903 15.8416 10.9578 15.4176 10.88C15.1093 10.8412 14.2999 10.7246 14.2999 10.8412C14.1457 12.3566 14.4926 12.3566 13.6061 14.4549C13.9915 14.9212 15.3791 14.5326 15.6874 15.1543Z" fill="#FFD447"/>
<path d="M3.89294 27.5498C4.818 27.8995 5.7816 28.1326 6.59102 28.2492C8.5953 28.56 10.8694 27.8218 12.4111 26.112C14.1456 24.208 15.8801 21.216 16.1499 17.9909C16.2655 16.6698 16.227 15.1155 15.9572 13.7166C17.4219 14.8046 17.5375 16.9806 17.2291 19.1566C16.1499 26.1898 11.9101 29.7258 7.51607 29.6869C5.74305 29.648 4.23984 28.3269 3.89294 27.5498Z" fill="#FFBE30"/>
<path d="M12.7195 22.4594C13.5289 21.2549 13.7217 19.6229 13.8373 18.1074C13.8758 17.6412 13.8758 16.7086 13.9529 15.6983C13.6831 16.2812 13.4904 16.9806 13.4519 17.7577C13.4133 20.2057 12.8351 21.9154 11.9872 23.1589C12.2955 22.9646 12.5653 22.7314 12.7195 22.4594Z" fill="#FFF047"/>
<path d="M15.9572 13.6388C16.1113 14.0663 15.4175 16.1646 16.1499 18.0297C19.9272 27.3943 10.137 30.8914 11.2548 31.8628C11.8715 32.4068 13.6831 32.7954 15.2248 31.9406C19.2719 29.648 21.8158 24.1303 20.0814 17.1748C19.5417 15.0377 18.5781 13.1726 16.8051 13.0948C16.1884 13.056 16.3426 12.7451 16.3426 11.5794C16.227 11.6183 15.8415 13.3668 15.9186 13.6388C15.9186 13.6 15.9186 13.6388 15.9572 13.6388Z" fill="#FFD447"/>
<path d="M17.152 14.4549C16.4968 13.7943 16.1499 13.1337 15.9186 12.3177C15.7644 11.696 15.6874 10.6857 15.2634 10.88C14.955 10.9966 14.3769 11.8126 14.4154 11.9291C14.8394 13.3669 15.4946 14.4549 16.4968 14.7657C17.0749 14.96 16.651 14.1051 17.152 14.4549Z" fill="#FFD447"/>
<path d="M11.2548 31.8629C12.2184 31.7074 13.1434 31.4354 13.9143 31.1246C15.8029 30.3474 17.6145 28.4434 18.3854 26.112C19.2719 23.4308 19.6959 19.7783 18.6552 16.7474C18.2312 15.5428 17.6145 14.144 16.8436 13.0948C18.5781 13.2114 19.5417 15.0377 20.0813 17.1748C21.8158 24.1303 19.2719 29.6869 15.2248 31.9794C13.683 32.8343 11.8329 32.4069 11.2548 31.8629Z" fill="#FFBE30"/>
<path d="M16.6509 24.6743C16.8822 24.208 17.0364 23.7028 17.152 23.2366C17.8072 20.5943 16.304 18.6126 16.0728 15.9314C16.0342 15.6206 16.0342 15.3097 16.0342 14.9988C15.9957 14.8434 15.9571 14.7268 15.88 14.5714C15.7644 15.4651 15.6488 16.7863 16.1113 17.9908C17.2291 20.672 17.1905 22.8868 16.6509 24.6743Z" fill="#FFF047"/>
<path d="M16.227 12.3955C15.9958 12.8229 16.1885 13.4446 15.6874 13.7166C15.4176 13.872 15.1092 12.6675 14.8394 12.6675C14.8394 12.6675 14.8009 12.6675 14.8009 12.6286C14.454 12.3955 14.4925 11.8515 14.5696 11.6183C14.7238 11.2686 15.0322 11.0355 15.302 10.8023C15.5332 10.608 16.1114 9.59776 16.5739 9.75319C16.8052 9.8309 16.3041 12.24 16.227 12.3955Z" fill="#FFD447"/>
<path d="M16.5739 9.75317C16.6124 9.9086 16.5739 10.1029 16.4582 10.2583C16.227 10.6857 15.9571 11.1909 15.4175 11.4629C15.1477 11.6183 14.8779 11.5406 14.6081 11.5406C14.6081 11.5406 14.5696 11.5406 14.5696 11.5017C14.2227 11.2297 14.2612 10.7246 14.3383 10.4526C14.4925 10.1029 14.8008 9.86974 15.0706 9.6366C15.3019 9.44231 15.6488 9.24803 16.1113 9.3646C16.3811 9.48117 16.4968 9.59774 16.5739 9.75317Z" fill="#FFBE30"/>
<path d="M22.0086 27.2777C21.469 30.8137 18.0386 34.1943 14.4925 33.6503C10.9851 33.1063 8.71096 28.8709 9.25058 25.296C9.79019 21.76 12.7195 21.76 16.227 22.304C19.7345 22.848 22.5482 23.7417 22.0086 27.2777Z" fill="#FF001E"/>
<path d="M12.0258 25.4514C12.2185 25.1405 12.4498 24.8297 12.681 24.5965C12.18 24.208 11.8716 23.664 12.0643 23.0422C11.2164 23.2365 10.7153 23.664 10.3684 24.3245C10.908 24.752 11.4862 25.1405 12.0258 25.4514Z" fill="#FF9180"/>
<path d="M13.3363 25.9177C14.2228 26.0343 14.9551 25.8789 15.6104 25.568C15.4947 25.568 15.3791 25.568 15.2635 25.5291C14.6468 25.4514 13.8759 25.2571 13.2206 24.9463C13.0665 25.2183 12.9123 25.4903 12.8352 25.8011C13.0279 25.84 13.1821 25.8789 13.3363 25.9177Z" fill="#FF9180"/>
<path d="M21.0065 25.3348C20.8523 25.6846 20.6981 26.0343 20.5054 26.3451C19.0793 28.8708 16.1114 30.6583 13.2206 29.9977C12.3727 29.8034 11.3705 29.4148 10.484 28.8708C11.1778 30.8137 12.681 32.4457 14.6467 32.7566C17.7688 33.2228 20.6981 30.1143 21.1607 27.1223C21.2763 26.4228 21.2378 25.84 21.0065 25.3348Z" fill="#D40019"/>
<path d="M18.1928 23.4697C18.1157 23.8971 17.075 24.1303 15.8802 23.936C14.6468 23.7417 13.7217 23.2366 13.7988 22.8091C13.8759 22.3817 14.8009 22.8091 16.0343 22.9646C17.2292 23.1588 18.2699 23.0423 18.1928 23.4697Z" fill="#D40019"/>
<path d="M15.6488 23.6251C15.7259 22.1874 16.1499 21.4103 17.2676 20.5166C17.3447 20.4388 17.4989 20.4389 17.576 20.5554C17.6531 20.6331 17.6145 20.7886 17.5375 20.8663C16.4968 21.6823 16.1884 22.3428 16.0728 23.664C16.0728 23.7417 15.6488 23.7028 15.6488 23.6251Z" fill="#963C47"/>
<path d="M17.3449 20.7108C16.6896 21.6045 14.6082 22.5371 13.2592 22.3428C11.9487 22.1485 10.908 21.2937 10.5226 20.2445C11.1778 19.3508 12.4112 18.8457 13.7603 19.0788C15.1093 19.2731 16.2656 20.3611 17.3449 20.7108Z" fill="#ACB304"/>
<path d="M16.9593 20.5554C15.9957 20.0891 14.955 19.2731 13.7987 19.0788C12.4882 18.8845 11.2163 19.3897 10.561 20.2445C10.561 20.2834 10.5996 20.2834 10.5996 20.3222C12.5653 21.1771 14.6852 21.0605 16.9593 20.5554Z" fill="#949902"/>
</g>
<defs>
<clipPath id="clip0_1_2883">
<rect width="36" height="34" fill="white"/>
</clipPath>
</defs>
</svg>
