<svg width="24" height="36" viewBox="0 0 24 36" fill="none" xmlns="http://www.w3.org/2000/svg">
<g clip-path="url(#clip0_1_3109)">
<path d="M8.55901 26.0106C8.94894 25.4398 10.3722 23.0994 9.76778 20.1882H13.6866C13.6866 20.1882 13.2771 22.7759 13.6866 23.6702C13.9205 24.203 14.5444 25.2305 14.9928 25.9725C20.9197 27.019 24.0001 30.8245 23.9806 36L-0.0193806 35.981C0.000116348 30.9577 3.47046 27.1142 8.55901 26.0106Z" fill="#F4B85C"/>
<path d="M5.24461 14.2896C5.24461 18.3806 8.16906 22.7949 11.9319 22.814C15.6947 22.814 18.8726 18.3996 18.8726 14.3087C18.8726 10.2178 15.8311 6.90698 12.0683 6.90698C8.30554 6.90698 5.24461 10.2178 5.24461 14.2896Z" fill="#F4B85C"/>
<path d="M11.8928 31.5095L15.2267 26.0486C24.6629 27.8563 23.9806 36.019 23.9806 36.019H11.8928V31.5095Z" fill="#D65799"/>
<path d="M11.8929 31.5095L15.2267 26.0486C16.0651 26.2009 16.8254 26.4292 17.5273 26.6766L14.5639 31.5095V36H23.9806H11.8929V31.5095Z" fill="#D94B52"/>
<path d="M12.1658 31.5095L8.8319 26.0486C-0.604335 27.8563 0.0780392 36.019 0.0780392 36.019H12.1658V31.5095Z" fill="#D65799"/>
<path d="M12.1658 31.5095L8.8319 26.0486C7.99355 26.2009 7.2332 26.4292 6.53133 26.6766L9.49477 31.5095V36H0.0780392H12.1658V31.5095Z" fill="#D94B52"/>
<path d="M5.51757 16.9154C5.79052 17.2389 4.03585 8.80972 13.2381 6.43129C13.2381 6.43129 13.6085 2.45455 11.2495 0C11.269 0 -4.44506 4.89006 5.51757 16.9154Z" fill="#F7A800"/>
<path d="M18.3461 17.4292C18.0732 17.7526 20.8807 10.9979 11.3275 6.90698C11.3275 6.90698 4.7377 1.86469 11.2495 0C11.269 0 28.3283 5.38478 18.3461 17.4292Z" fill="#FED000"/>
<path d="M12.0293 8.7146C15.2851 8.7146 17.9366 11.5687 17.9366 15.1078C17.9366 18.6279 15.1877 22.4524 11.9123 22.4524C8.65639 22.4524 6.10237 18.6279 6.12186 15.1078C6.12186 11.5687 8.77336 8.7146 12.0293 8.7146ZM17.1958 13.7759C17.1958 12.8245 16.182 12.0634 14.9342 12.0634C13.6864 12.0634 12.6726 12.8245 12.6726 13.7759C12.6726 14.7273 13.6864 16.1353 14.9342 16.1353C16.182 16.1543 17.1958 14.7273 17.1958 13.7759ZM11.8928 20.778C13.355 20.778 14.5443 20.3404 14.5443 19.8076C14.5443 19.2749 13.355 18.8372 11.8928 18.8372C10.4306 18.8372 9.24128 19.2749 9.24128 19.8076C9.24128 20.3404 10.4306 20.778 11.8928 20.778ZM9.20228 16.1163C10.45 16.1163 11.4639 14.7083 11.4639 13.7569C11.4639 12.8055 10.45 12.0444 9.20228 12.0444C7.95452 12.0444 6.94071 12.8055 6.94071 13.7569C6.94071 14.7083 7.95452 16.1163 9.20228 16.1163Z" fill="#F4F8FA"/>
<path d="M8.73438 14.6131C9.06582 14.6131 9.37776 14.537 9.65071 14.4418C10.1771 14.2516 10.4111 14.4228 10.4111 14.4228C10.4501 14.4609 10.5085 14.4609 10.5475 14.4228C10.5865 14.3848 10.5865 14.3277 10.5475 14.2896C10.528 14.2706 10.2551 14.0232 9.61171 14.2706C9.08531 14.4609 8.26647 14.537 7.72057 14.0803C7.68158 14.0423 7.62309 14.0613 7.58409 14.0993C7.5451 14.1374 7.5646 14.1945 7.60359 14.2325C7.91553 14.4989 8.32495 14.6131 8.73438 14.6131Z" fill="#774E2B"/>
<path d="M15.1487 14.6131C15.5582 14.6131 15.9676 14.4989 16.3185 14.2325C16.3575 14.1945 16.3575 14.1374 16.338 14.0993C16.299 14.0613 16.2405 14.0613 16.2015 14.0803C15.6557 14.537 14.8368 14.4609 14.3104 14.2706C13.667 14.0232 13.3746 14.2706 13.3746 14.2896C13.3356 14.3277 13.3356 14.3847 13.3746 14.4228C13.4136 14.4609 13.4721 14.4609 13.5111 14.4228C13.5111 14.4228 13.745 14.2516 14.2714 14.4418C14.5054 14.537 14.8173 14.6131 15.1487 14.6131Z" fill="#774E2B"/>
<path d="M9.90424 20.0359C9.92374 20.0359 9.94323 20.0359 9.94323 20.0169C10.7621 19.5793 11.7759 20.0169 11.7759 20.0169C11.7954 20.0359 11.8344 20.0359 11.8539 20.0169C12.8092 19.5602 13.6865 20.0169 13.6865 20.0169C13.7255 20.0359 13.784 20.0169 13.8035 19.9788C13.823 19.9408 13.8035 19.8837 13.7645 19.8457C13.7255 19.8266 12.8287 19.3509 11.7954 19.8266C11.5809 19.7505 10.6451 19.408 9.82626 19.8457C9.78726 19.8647 9.76777 19.9218 9.78726 19.9788C9.84575 20.0169 9.88474 20.0359 9.90424 20.0359Z" fill="#AC231E"/>
<path d="M11.1519 7.34461L10.6255 5.537C10.6255 4.66174 10.8595 3.97675 11.1519 3.97675C11.4249 3.97675 11.6588 4.64271 11.6783 5.49894L11.1519 7.34461Z" fill="#95AF23"/>
<path d="M11.113 7.45877L11.074 7.57294L9.55333 5.86046C9.24139 5.15645 9.1634 4.54757 9.39736 4.4334C9.65081 4.30021 10.1772 4.83298 10.5671 5.59408C10.7036 6.12685 10.8986 6.94503 11.113 7.45877Z" fill="#8EA526"/>
<path d="M8.07159 5.42282C8.22756 5.21352 8.83195 5.38477 9.47533 5.80337C9.82626 6.27906 10.5476 7.23044 11.035 7.61099C10.9765 7.61099 10.9376 7.59196 10.8986 7.59196C10.3527 7.47779 9.57281 7.15433 9.0854 6.81183C8.34454 6.27906 7.89612 5.65115 8.07159 5.42282Z" fill="#7B8F29"/>
<path d="M11.2104 7.57293L11.1714 7.4778C11.3859 6.98308 11.5614 6.1649 11.6783 5.63213C12.0878 4.852 12.6142 4.31923 12.8871 4.45243C13.1211 4.56659 13.0431 5.21352 12.7116 5.91754L11.2104 7.57293Z" fill="#ADC511"/>
<path d="M11.23 7.611C11.6979 7.2685 12.4193 6.37421 12.7897 5.89853C13.4721 5.44187 14.1349 5.23256 14.3104 5.44187C14.4859 5.6702 14.0374 6.27907 13.2966 6.81184C12.7312 7.21142 11.9708 7.55392 11.3859 7.611C11.347 7.63002 11.2885 7.63002 11.23 7.611Z" fill="#CDD950"/>
<path d="M11.1519 3.99579C11.4249 3.99579 11.6588 4.66175 11.6783 5.51799L11.1519 7.34463V3.99579Z" fill="#95AF23"/>
<path d="M11.1519 7.91541L10.6255 9.72302C10.6255 10.5983 10.8595 11.2833 11.1519 11.2833C11.4249 11.2833 11.6588 10.6173 11.6783 9.76107L11.1519 7.91541Z" fill="#95AF23"/>
<path d="M11.113 7.78226L11.074 7.66809L9.55333 9.38056C9.24139 10.0846 9.1634 10.6935 9.39736 10.8076C9.65081 10.9408 10.1772 10.408 10.5671 9.64695C10.7036 9.13321 10.8986 8.296 11.113 7.78226Z" fill="#8EA526"/>
<path d="M8.07159 9.81818C8.22756 10.0275 8.83195 9.85624 9.47533 9.43763C9.80677 8.98097 10.5476 8.0296 11.035 7.64905C10.9765 7.64905 10.9376 7.66808 10.8986 7.66808C10.3527 7.78224 9.57281 8.10571 9.0854 8.4482C8.34454 8.98097 7.89612 9.60888 8.07159 9.81818Z" fill="#7B8F29"/>
<path d="M11.2104 7.68707L11.1714 7.78221C11.3859 8.27692 11.5614 9.09511 11.6783 9.62787C12.0878 10.408 12.6142 10.9408 12.8871 10.8266C13.1211 10.7124 13.0431 10.0655 12.7116 9.36149L11.2104 7.68707Z" fill="#ADC511"/>
<path d="M11.23 7.64904C11.6979 7.99153 12.4193 8.88582 12.7897 9.36151C13.4721 9.81817 14.1349 10.0275 14.3104 9.81817C14.4859 9.58984 14.0374 8.98096 13.2966 8.44819C12.7312 8.04861 11.9708 7.70612 11.3859 7.64904C11.347 7.63001 11.2885 7.63001 11.23 7.64904Z" fill="#CDD950"/>
<path d="M11.1519 11.2642C11.4249 11.2642 11.6588 10.5983 11.6783 9.74205L11.1519 7.91541V11.2642Z" fill="#95AF23"/>
</g>
<defs>
<clipPath id="clip0_1_3109">
<rect width="24" height="36" fill="white" transform="matrix(-1 0 0 1 24 0)"/>
</clipPath>
</defs>
</svg>
