<svg width="36" height="36" viewBox="0 0 36 36" fill="none" xmlns="http://www.w3.org/2000/svg">
<path d="M31.1878 18.2236C31.0978 18.2624 31.0079 18.299 30.9154 18.3329C30.8449 18.3622 30.7743 18.389 30.7041 18.4155C30.5922 18.4568 30.4829 18.4981 30.371 18.5394C30.3636 18.5418 30.3565 18.5443 30.3492 18.5468C30.2324 18.588 30.1135 18.6293 29.9967 18.6684C29.8775 18.7097 29.761 18.7464 29.6418 18.7827C29.525 18.8191 29.4083 18.8557 29.2942 18.8896C29.1168 18.9408 28.9418 18.9916 28.7692 19.0378C28.7569 19.0403 28.7449 19.0452 28.7329 19.0477C28.6355 19.0745 28.5385 19.0988 28.4411 19.1232C28.3804 19.1401 28.3194 19.1549 28.2587 19.1694C28.2393 19.1743 28.2199 19.1792 28.2005 19.1839C28.0569 19.2202 27.9137 19.2519 27.775 19.2837C27.6293 19.3176 27.4882 19.3468 27.352 19.3761C27.0966 19.4297 26.856 19.4759 26.6373 19.5147H26.6348C26.6299 19.5634 26.6228 19.6121 26.6154 19.6604C26.6129 19.6629 26.6129 19.6629 26.6154 19.6654C26.5911 19.8111 26.5596 19.9667 26.523 20.1247C26.5205 20.1321 26.5181 20.1392 26.5181 20.1466C26.4937 20.2464 26.4669 20.3459 26.4379 20.4504C26.4234 20.5062 26.4087 20.5598 26.3917 20.6158C26.3261 20.8395 26.2531 21.0656 26.1754 21.2918C25.925 22.0161 25.6286 22.7284 25.412 23.2632C25.3926 23.307 25.3756 23.3483 25.3609 23.3896C25.3415 23.4382 25.3221 23.4844 25.3051 23.5282C25.2906 23.5645 25.2758 23.6012 25.2638 23.6351C25.1982 23.8052 25.1495 23.9413 25.1252 24.0313C24.9696 24.6367 23.7394 26.8829 23.8901 28.2444C23.8925 28.2736 23.8975 28.3002 23.8999 28.3319C23.9048 28.3901 23.912 28.4536 23.9169 28.5216C23.9218 28.5897 23.9267 28.6627 23.9314 28.7379C23.9338 28.7915 23.9387 28.8498 23.9412 28.908C23.9437 28.9616 23.9461 29.0149 23.9486 29.071H21.4469C21.4177 28.8399 21.3912 28.6042 21.3644 28.3732C21.3523 28.2638 21.34 28.1569 21.328 28.0497C21.2698 27.4979 21.2162 26.9606 21.1798 26.4744C21.1749 26.3943 21.1678 26.3164 21.1628 26.2409C21.1604 26.1947 21.1579 26.151 21.1555 26.1072C21.153 26.0635 21.1505 26.0197 21.1481 25.976C21.1432 25.8617 21.1382 25.7523 21.1336 25.6478C21.1311 25.5653 21.1287 25.4849 21.1287 25.4097C21.1287 25.0887 21.153 24.8311 21.165 24.6512C21.2257 23.6545 21.4226 21.6951 21.5735 20.268C21.5809 20.2024 21.5856 20.1343 21.593 20.0687C21.5954 20.0613 21.5954 20.0542 21.5954 20.0468C21.6003 19.9981 21.6053 19.9495 21.6099 19.9033C21.6706 19.3367 21.7193 18.8918 21.7412 18.6878C21.7485 18.6367 21.751 18.6003 21.7532 18.5809C21.7556 18.5689 21.7556 18.564 21.7556 18.564L21.9162 18.2359L22.5847 16.8649L23.6106 14.7619L23.8925 14.1833C23.8925 14.1833 25.7328 13.1891 27.2692 14.4605C28.3 15.3115 31.4287 13.9913 32.4814 13.5101C32.5057 13.4981 32.5301 13.4857 32.5544 13.4762C32.5714 13.4663 32.5883 13.4592 32.6055 13.4518C32.6444 13.4349 32.681 13.4179 32.71 13.4007C32.7513 13.3813 32.783 13.3668 32.8024 13.357C32.8098 13.3545 32.8169 13.352 32.8218 13.3496C32.8267 13.3471 32.8292 13.3447 32.8292 13.3447C32.8292 13.3447 32.7466 13.2498 32.6105 13.0846C32.5837 13.0529 32.5544 13.0165 32.523 12.9777C32.4767 12.9219 32.4256 12.8585 32.3723 12.7904C32.3384 12.7467 32.3017 12.698 32.2629 12.6493C32.0294 12.3477 31.75 11.9687 31.485 11.5578C31.4462 11.4995 31.4071 11.441 31.3707 11.3803C31.3464 11.3415 31.322 11.3024 31.2977 11.2635H31.3002L33.6438 9.7077C33.7045 9.81215 33.763 9.91442 33.8212 10.0189C33.938 10.2256 34.0523 10.4298 34.1641 10.6338C34.1666 10.6387 34.1715 10.6459 34.174 10.6508C34.2565 10.8039 34.3369 10.957 34.4146 11.1055C34.4657 11.2004 34.5144 11.2928 34.5603 11.385C34.5896 11.4457 34.621 11.5042 34.6503 11.5624C34.7378 11.7374 34.8179 11.9053 34.8958 12.0705C34.9371 12.1629 34.9809 12.2553 35.0197 12.3477C35.0514 12.4183 35.0829 12.4913 35.1121 12.5591C35.1509 12.6564 35.19 12.751 35.2239 12.8435C35.2458 12.897 35.2652 12.9504 35.2822 13.0015C35.292 13.0258 35.2991 13.0502 35.3065 13.072C35.3309 13.1401 35.3527 13.2058 35.3721 13.2689C35.3842 13.3102 35.3965 13.3515 35.406 13.3928C35.4159 13.4245 35.423 13.4535 35.4304 13.4852C35.4424 13.5339 35.4523 13.5825 35.4596 13.6263C35.4646 13.6408 35.467 13.6531 35.467 13.6676C35.4791 13.7236 35.484 13.7794 35.4889 13.8305C35.6489 15.8654 34.0783 17.0226 31.1878 18.2236Z" fill="#49548F"/>
<path d="M33.6432 9.70744L31.2996 11.2633C30.9302 10.6604 30.6141 10.0161 30.5167 9.46189C30.3223 8.35585 29.875 6.88258 29.3035 6.0754C28.1075 6.53477 26.3813 7.08438 25.1246 7.87679C23.2989 9.02658 22.0239 8.84256 21.3698 9.44056C21.2577 9.5431 21.1595 9.74626 21.1595 9.74626C21.1133 9.78017 21.0622 9.81189 21.0113 9.84114C21.1013 10.2278 21.1549 10.6141 21.145 10.9472C21.1232 11.6838 21.1913 12.5881 21.7067 13.2542C21.7091 13.2566 21.7091 13.2566 21.7091 13.2566C22.1078 13.7745 22.7813 14.1488 23.8922 14.1827L21.7554 18.5634C21.7554 18.5634 20.479 17.4987 19.1249 16.0254C19.0229 15.9111 18.9182 15.7968 18.8113 15.6779C17.9798 14.737 17.1849 13.6867 16.7499 12.7144C16.5943 12.5927 16.4556 12.4713 16.3318 12.3472C16.2101 12.228 16.1032 12.109 16.0108 11.9873C15.4808 11.6155 14.7078 11.3163 13.6672 11.4476C12.3981 11.6056 6.48348 10.5748 5.88767 10.694C5.29212 10.8132 4.97603 11.2482 2.91215 11.4087C2.15856 11.4476 2.35544 11.0101 2.35544 11.0101L0.738892 11.0432C0.558698 11.0467 0.442215 10.8539 0.529714 10.6962C0.566081 10.6305 0.631432 10.5865 0.705806 10.5775C1.08861 10.5307 2.33001 10.3705 3.38847 10.1375C4.65748 9.86028 5.17291 9.68064 6.40555 9.72904C7.32702 9.76786 9.78958 9.30849 11.2311 9.1942C11.7124 9.15537 12.6338 9.4299 13.4287 9.1674C14.068 8.95822 16.4409 8.71049 16.4458 8.70065C16.3072 8.19753 16.0616 7.31242 16.0545 7.23231C16.0447 7.12047 15.0723 7.59461 14.5061 7.32473C14.1049 7.13278 14.4404 6.48364 14.4112 6.28431C14.4013 6.21868 14.365 6.18232 14.3187 6.16755C14.2312 6.13583 14.1949 5.99747 14.2482 5.95591L14.4257 5.84408L14.2069 5.69588C14.1364 5.65705 14.1533 5.57666 14.1607 5.53537L14.2312 5.14162C14.2312 5.14162 13.908 4.99588 13.8181 4.87174C13.7281 4.74542 14.2485 4.27374 14.6616 4.00386C14.8027 3.9139 14.8416 3.34243 14.8514 3.11411C14.8519 3.11411 14.8514 3.11411 14.8519 3.11411C15.3496 4.22535 16.2112 4.61226 16.7794 4.40253C17.5256 4.12062 17.8441 5.33604 16.862 5.91216C16.4658 6.14322 17.0468 6.86016 17.9535 6.78743C17.9948 6.87985 18.0361 6.97227 18.0774 7.06688L18.4298 7.22L18.7022 7.26867H18.7046C18.8359 7.13496 18.9989 7.00125 19.1982 6.8845C19.5824 6.65344 20.1024 6.48583 20.7882 6.48337C20.844 6.48337 20.9 6.48337 20.9583 6.48583C21.3643 6.50032 21.7411 6.49321 22.0936 6.46395C23.5327 6.35458 24.566 5.93404 25.5214 5.61303C26.3868 5.32619 27.3982 4.95432 28.0083 4.71097C27.9984 4.22726 28.1275 3.65359 27.9743 3.425C27.6949 3.00938 27.1404 1.66736 27.2328 1.59928C26.8634 1.27608 27.048 0.673157 27.048 0.673157C27.048 0.673157 27.787 0.904209 28.1127 1.43659C28.2757 1.70154 28.8832 2.54017 29.4523 3.3159C29.8485 2.79556 30.0016 2.34111 30.1596 2.51857C30.4782 2.87595 30.2058 3.35254 30.2058 3.35254C30.2058 3.35254 30.8987 4.38585 30.7505 5.0883C31.2219 5.79595 32.5224 7.76496 33.6432 9.70744ZM23.948 29.071H21.4464C21.6968 31.1059 22.0006 33.0336 22.0006 33.0336C22.0006 33.0336 20.3061 34.1569 19.8175 34.3439C19.3289 34.5287 18.4197 34.5821 18.3005 34.5287C18.1813 34.4751 17.9139 35.071 18.2444 35.2678C18.575 35.4672 22.7564 35.0977 22.8756 35.0977C22.9948 35.0977 23.8165 35.3433 24.1107 34.7136C24.4339 34.0207 23.9576 33.1528 23.9576 33.1528C23.9576 33.1528 24.0161 30.6801 23.948 29.071Z" fill="#FBCFA9"/>
<path d="M22.0931 6.4645C21.9812 7.21809 21.8549 7.90605 21.9763 8.35093C21.3832 8.18085 21.004 7.34688 20.7874 6.48392C20.6463 5.92474 20.5736 5.356 20.5588 4.94995C20.5514 4.74323 20.4762 4.58054 20.3715 4.45886C20.2597 4.32515 20.1115 4.24503 19.9849 4.21578C19.9849 4.21578 20.0869 5.65486 18.8714 6.45247C18.548 6.66411 18.2346 6.76364 17.9524 6.78798C17.0457 6.86098 16.4647 6.14376 16.8609 5.91271C17.8431 5.33659 17.5245 4.12089 16.7783 4.40308C16.2118 4.61226 15.3537 4.22808 14.8552 3.12423C14.8528 3.12176 14.8528 3.11684 14.8503 3.11438C14.3642 2.01791 16.01 1.6217 16.5423 1.59737C17.0772 1.57057 18.7134 1.58752 19.6078 3.00747C19.6297 3.04876 19.654 3.0854 19.6759 3.12423C19.7683 3.07309 19.8752 3.01731 19.992 2.9711C20.5342 2.74989 21.2853 2.66239 21.8297 3.46711C22.3826 4.27894 22.2489 5.43119 22.0931 6.4645Z" fill="#7F5727"/>
<path d="M16.6426 4.66071C16.6426 4.66071 17.0008 4.41435 17.1804 4.63884C17.353 4.85458 17.1646 5.30164 17.1646 5.30164C17.175 5.27703 17.2455 4.87043 17.0784 4.70829C16.98 4.61313 16.6426 4.66071 16.6426 4.66071Z" fill="#7F5727"/>
<path d="M19.8862 3.64564C19.9709 3.99946 19.9849 4.21602 19.9849 4.21602C20.1123 4.24501 20.2602 4.32594 20.3726 4.45774C20.374 4.28219 20.3671 3.83704 20.3062 3.61501C20.2195 3.29892 20.0634 3.06787 19.9917 2.97217C19.8766 3.0181 19.77 3.07225 19.677 3.12447C19.6773 3.1242 19.8033 3.29154 19.8862 3.64564Z" fill="#EC5989"/>
<path d="M21.7092 13.2568C21.7092 13.2568 19.5504 16.2689 19.1323 16.0305C19.1299 16.0305 19.1274 16.028 19.1249 16.0256C19.0544 15.9843 18.9426 15.8579 18.8113 15.678C18.6215 15.5079 18.3908 15.2914 18.1526 15.0363C17.5983 14.4478 16.6416 14.3945 16.2577 14.0541C15.7836 13.636 16.0496 12.037 16.0496 12.037C16.0496 12.037 16.9826 11.9921 17.2743 11.3676C18.0151 9.78278 16.4291 8.73251 16.4461 8.7008C16.451 8.70326 18.9404 8.35326 18.7022 7.26882H18.7047C18.8359 7.13511 18.9989 7.0014 19.1982 6.88464C20.596 8.44787 21.1601 9.72645 21.1601 9.72645V9.74586C21.0775 11.8122 21.6731 13.1736 21.707 13.2538C21.7092 13.2568 21.7092 13.2568 21.7092 13.2568Z" fill="#F85535"/>
</svg>
