<svg width="28" height="28" viewBox="0 0 28 28" fill="none" xmlns="http://www.w3.org/2000/svg">
<path d="M22.4893 10.3356C22.4478 10.0173 22.6723 9.7254 22.9907 9.68389L26.7528 7.0301C26.9127 6.75071 27.2688 6.65376 27.5482 6.8136C27.8275 6.97343 27.9245 7.32953 27.7647 7.60892C25.1792 12.1154 25.4891 18.134 25.7423 23.0527C25.8155 24.4745 25.8841 25.8059 25.8779 27.0145C25.887 27.3096 25.6709 27.5693 25.3719 27.6083C25.0535 27.6498 24.7617 27.4253 24.7202 27.1069L22.4893 10.3356L22.4893 10.3356Z" fill="#D50000"/>
<path d="M25.878 26.9138L25.8777 27.014C25.8868 27.3091 25.6707 27.5688 25.3717 27.6078C25.0533 27.6493 24.7615 27.4249 24.72 27.1065L24.6943 26.9138H25.878H25.878Z" fill="#B71C1C"/>
<path d="M15.0211 10.4619C17.1261 5.38643 18.085 1.94616 23.656 0.489364C24.927 0.157001 26.4393 -0.0958727 26.5571 0.665259C26.6883 1.5073 26.9712 2.2493 27.246 2.96974C27.6782 4.10333 28.0919 5.18832 27.9821 6.6603C27.9293 7.36781 27.7033 7.97885 27.1773 8.47778C26.6876 8.94231 25.9524 9.28132 24.8655 9.47298C20.8918 10.1736 19.2225 14.4428 17.5945 18.6062C15.7667 23.2808 13.9872 27.832 9.08654 27.8328C6.73635 27.8332 5.6552 27.8083 4.61669 27.7843C3.71445 27.7635 2.84596 27.7435 0.939209 27.7435V27.7426C0.66977 27.7428 0.427614 27.555 0.369504 27.2809C-0.0988619 25.0804 -0.182632 22.6348 0.475301 20.7809C0.737417 20.0423 1.1169 19.3926 1.63556 18.8793C2.16714 18.3532 2.8347 17.9768 3.65879 17.8014C4.72972 17.5735 6.06168 17.6899 7.69907 18.271C11.2584 19.5341 13.1042 15.0837 15.0211 10.4618L15.0211 10.4619Z" fill="#FF1744"/>
<path d="M15.0211 10.4619C16.4261 7.07446 17.3208 4.41568 19.4166 2.58854C19.8966 2.23427 20.4177 1.93775 20.984 1.7165C22.8656 1.02172 24.947 0.475986 25.6333 0.439018C26.7946 0.376449 24.1498 1.63887 24.0314 1.69126C22.1801 2.51032 19.5322 3.84795 17.3034 7.95104C15.6572 10.9815 15.357 15.8353 11.7998 18.7974C11.2602 19.2467 10.3042 19.606 9.63283 19.4657C8.54303 19.2379 9.59016 18.5381 10.0983 18.2228C12.1959 17.2731 13.5888 13.9156 15.0211 10.4619L15.0211 10.4619Z" fill="#D41734"/>
<path d="M12.2611 27.0284C11.3688 27.5406 10.3279 27.8332 9.08663 27.8335C6.73645 27.8339 5.65529 27.8089 4.61679 27.785C3.71454 27.7642 2.84605 27.7441 0.939304 27.7441V27.7432C0.669865 27.7435 0.42771 27.5556 0.3696 27.2815C0.351736 27.1975 0.334491 27.1131 0.317749 27.0284H12.2611H12.2611Z" fill="#B71C1C"/>
</svg>
