<svg width="38" height="24" viewBox="0 0 38 24" fill="none" xmlns="http://www.w3.org/2000/svg">
<g clip-path="url(#clip0_1_3769)">
<path d="M20.714 9.1637C19.9117 12.5819 20.5682 18.2546 21.5893 19.9273C23.7044 23.491 28.0806 24.6546 31.8733 23.5637C36.833 22.1092 37.9271 17.091 37.9271 12.5819C37.9271 3.70915 30.7793 2.7637 29.4664 2.7637C26.9136 2.69097 22.0269 3.78188 20.714 9.1637Z" fill="#D1F0F2"/>
<path opacity="0.77" d="M31.7274 7.56364C31.2898 7.34546 31.1439 6.90909 30.998 6.54546C30.6334 5.6 30.1228 5.52728 29.3205 5.96364C28.9558 6.18182 28.1535 6.4 28.0806 6.4C27.7159 6.47273 26.5489 6.4 26.0384 6.47273C25.0902 7.12727 25.309 9.09091 24.2879 9.96364C23.1938 10.9091 22.9021 11.4909 23.7044 13.0182C24.0691 13.7455 23.1209 14.4727 23.4126 15.2727C23.8503 16.5091 25.309 15.9273 25.6737 18.2545C25.8195 19.2 27.7888 19.2 27.9347 19.2727C28.5911 19.9273 30.4146 21.4545 31.4357 19.5636C31.7274 18.9818 32.0921 18.4 32.6027 17.9636C33.2591 17.4545 34.0614 17.2364 33.7696 15.7091C33.6238 14.5455 35.2284 13.7455 34.5719 12.5091C33.9155 11.3455 33.9155 10.3273 34.2802 9.09091C34.5719 7.70909 32.4568 8 31.7274 7.56364Z" fill="#DCF8F9"/>
<path d="M26.6219 9.6C25.3819 10.5455 24.7255 12.0727 24.9443 13.7455C25.0902 15.2 25.6737 16.5818 27.2054 17.0182C28.0077 17.2364 28.9558 17.6 29.6852 17.3091C31.8004 16.5091 32.9674 12.9455 31.8004 11.1273C30.6334 9.30909 28.5912 8.36363 26.6219 9.6Z" fill="#E6FCFC"/>
<path d="M20.714 9.1637C19.9117 12.5819 20.5682 18.2546 21.5893 19.9273C23.7044 23.491 28.0806 24.6546 31.8733 23.5637C36.833 22.1092 37.9271 17.091 37.9271 12.5819C37.9271 3.70915 30.7793 2.7637 29.4664 2.7637C26.9136 2.69097 22.0269 3.78188 20.714 9.1637ZM35.1555 8.6546C35.9578 10.9092 36.1037 13.2364 35.5931 15.5637C35.1555 17.6001 34.4991 20.1455 32.6756 21.3819C30.8522 22.6182 28.4453 22.4728 26.476 21.7455C24.5067 20.9455 23.4127 18.9819 22.9751 16.9455C22.2457 13.891 21.4434 6.47279 25.309 4.87279C28.5182 2.61824 33.8426 5.23642 35.1555 8.6546Z" fill="#CAE9EA"/>
<path d="M20.714 9.1637C19.9117 12.5819 20.5682 18.2546 21.5893 19.9273C23.7044 23.491 28.0806 24.6546 31.8733 23.5637C36.833 22.1092 37.9271 17.091 37.9271 12.5819C37.9271 3.70915 30.7793 2.7637 29.4664 2.7637C26.9136 2.69097 22.0269 3.78188 20.714 9.1637ZM35.5202 7.34551C37.4895 11.2001 37.6353 16.6546 35.0096 20.291C34.0614 21.5273 32.7486 22.3273 31.2169 22.691C29.2476 23.491 26.8407 22.9819 25.0902 21.7455C24.2879 21.2364 23.5586 20.6546 23.048 19.8546C21.2975 17.3092 20.9328 13.891 21.6622 10.7637C21.8081 8.00006 22.7562 5.52733 25.2361 4.21824C25.309 4.21824 25.309 4.14551 25.382 4.14551C28.5912 1.81824 33.9156 4.14551 35.5202 7.34551Z" fill="#BCE2E2"/>
<path d="M20.714 9.1637C19.9117 12.5819 20.5682 18.2546 21.5893 19.9273C23.7044 23.491 28.0806 24.6546 31.8733 23.5637C36.833 22.1092 37.9271 17.091 37.9271 12.5819C37.9271 3.70915 30.7793 2.7637 29.4664 2.7637C26.9136 2.69097 22.0269 3.78188 20.714 9.1637ZM32.5298 4.00006C35.0825 5.52733 36.906 7.34551 37.4165 10.3273C37.9271 13.3092 37.8541 16.4364 36.1766 19.0546C34.4991 21.7455 32.1651 23.4182 28.8829 23.2728C26.1843 23.1273 23.3397 22.3273 22.0269 19.7819C20.4952 16.7273 20.4223 11.8546 21.1516 9.1637C22.4645 4.07279 28.0077 1.38188 32.5298 4.00006Z" fill="#A7D3D3"/>
<path d="M28.0806 9.74552C24.8714 9.74552 24.215 16.7273 28.81 16.7273C32.7486 16.7273 32.6757 9.23643 28.0806 9.74552Z" fill="#FFD41D"/>
<path d="M28.0806 9.74552C24.8714 9.74552 24.215 16.7273 28.81 16.7273C32.7486 16.7273 32.6757 9.23643 28.0806 9.74552ZM30.4146 12.0001C30.6334 12.9455 30.6334 14.1819 29.8311 14.9092C29.2476 15.4183 28.2995 15.5637 27.643 15.0546C26.3302 13.9637 26.7678 11.5637 28.0806 10.691C28.1536 10.6183 28.2265 10.6183 28.3724 10.6183C29.2476 10.0364 30.1958 11.1273 30.4146 12.0001Z" fill="#F9CC10"/>
<path d="M28.0806 9.74552C24.8714 9.74552 24.215 16.7273 28.81 16.7273C32.7486 16.7273 32.6757 9.23643 28.0806 9.74552ZM30.9252 11.8546C31.5816 13.4546 30.8522 15.9273 28.81 16.1455C25.4549 16.4364 25.1632 10.6183 28.1536 10.2546C29.1747 9.52734 30.4146 10.5455 30.9252 11.8546Z" fill="#F4BA14"/>
<path d="M28.4453 11.8546C27.4971 11.8546 27.2783 13.9637 28.6641 13.9637C29.8311 13.9637 29.8311 11.7092 28.4453 11.8546Z" fill="#EF7100"/>
<path d="M28.4453 11.8546C27.4971 11.8546 27.2783 13.9637 28.6641 13.9637C29.8311 13.9637 29.8311 11.7092 28.4453 11.8546ZM29.3205 13.2365C29.2476 13.4546 29.1017 13.6728 28.81 13.7456C28.5182 13.8183 28.2265 13.7456 28.0806 13.5274C27.8618 13.2365 27.7888 12.7274 28.0806 12.4365C28.1535 12.291 28.2994 12.0728 28.5182 12.0728C28.737 12.0001 28.9558 12.0728 29.1017 12.291C29.2476 12.5092 29.4664 12.8728 29.3205 13.2365Z" fill="#E56903"/>
<path d="M28.4453 12.2182C28.0806 12.2909 28.0806 13.4546 28.4453 13.3091C28.5911 13.2364 28.737 12.8 28.8099 12.6546C28.8099 12.3637 28.8099 12.1455 28.4453 12.2182Z" fill="#FC790D"/>
<path d="M16.1919 5.89099C16.3378 5.96372 16.4107 5.96372 16.4836 6.03645L16.1919 5.89099Z" fill="#74C7E8"/>
<path d="M13.0557 5.67278C10.7946 5.38187 7.73129 6.54551 6.05374 4.50914C5.1785 3.41823 4.95969 2.2546 3.50096 1.01823C2.62572 0.363687 1.16699 -0.0726768 0 0.509141C1.02111 -0.50904 3.06334 0.218232 3.86564 0.727323C4.95969 1.4546 5.32438 2.47278 6.12668 3.49096C6.92898 4.58187 7.9501 4.94551 9.40883 4.94551C10.5758 4.94551 11.7428 4.6546 12.8369 4.80005C14.0038 4.94551 15.0979 5.4546 16.1919 5.81823L16.4837 5.96369C16.4107 5.89096 16.2649 5.89096 16.1919 5.81823C18.5989 6.83641 20.8599 4.36369 23.3397 8.1455C25.1631 10.8364 20.4223 11.4182 18.6718 9.81823C16.7754 8.07278 15.9731 6.03641 13.0557 5.67278Z" fill="#74C7E8"/>
<path d="M18.7447 9.89094C16.7754 8.07276 15.9731 6.0364 13.0557 5.67276C10.7946 5.38185 7.73129 6.54549 6.05374 4.50912C5.1785 3.41822 4.95969 2.25458 3.50096 1.01822C2.62572 0.36367 1.16699 -0.0726938 0 0.509124C0.802303 -0.290876 2.1881 0.218215 3.13628 0.654579C4.23033 1.38185 5.68906 3.6364 6.19962 4.21822C7.29367 5.45458 9.11708 5.30912 10.5758 5.09094C11.6699 5.2364 12.3992 5.01822 13.785 5.2364C15.1708 5.52731 17.5048 6.76367 18.1612 7.49094C20.0576 9.38185 21.2246 9.30912 21.9539 9.09094C23.1939 8.72731 23.3397 8.21822 23.3397 8.29094C25.1631 10.9091 20.4952 11.4909 18.7447 9.89094Z" fill="#5DBED8"/>
<path d="M18.7447 9.89092C16.7754 8.07274 15.9731 6.03638 13.0556 5.67274C10.7946 5.38183 7.73125 6.54547 6.0537 4.5091C5.39727 3.7091 5.10553 2.9091 4.4491 2.03638C5.2514 3.05456 5.83489 4.36365 7.29363 5.16365C8.31474 5.67274 9.77347 5.38183 11.2322 5.3091C12.6909 5.23638 14.2226 5.60001 15.3896 6.1091C16.5566 6.6182 17.5048 7.63638 18.5259 8.58183C19.2552 9.3091 20.1305 9.67274 21.1516 9.89092C22.1727 10.1091 23.3397 9.67274 23.7044 8.87274C24.4337 10.9818 20.3493 11.4182 18.7447 9.89092Z" fill="#47A4C9"/>
<path d="M20.2764 6.98188C19.7659 6.76369 19.2553 6.90915 18.7448 6.83642C18.453 6.83642 18.0883 6.69097 18.526 6.47278C18.7448 6.32733 20.3494 6.10915 21.2976 6.61824C21.6622 6.83642 22.9751 7.56369 22.8292 8.07279C22.3916 8.58188 22.0269 8.50915 21.6622 8.00006C21.2246 7.56369 20.8599 7.20006 20.2764 6.98188Z" fill="#94E0F7"/>
<path d="M16.7754 13.9637C16.8483 13.9637 16.8483 13.9637 16.7754 13.9637C16.9213 13.9637 16.9942 13.891 17.1401 13.891L16.7754 13.9637Z" fill="#74C7E8"/>
<path d="M14.0038 15.2728C11.8886 16.1455 9.77345 18.6182 7.29361 17.6728C5.98075 17.1637 5.25138 16.2909 3.35503 15.9273C2.26098 15.7091 0.802243 16.0728 0.072876 17.1637C0.437559 15.7819 2.62566 15.4182 3.57384 15.4909C4.8867 15.6364 5.689 16.2909 6.85599 16.8C8.09591 17.3091 9.18996 17.1637 10.4299 16.5091C11.451 15.9273 12.3262 15.1273 13.3473 14.6909C14.4414 14.2546 15.6084 14.1091 16.8483 13.9637L17.213 13.8909C17.1401 13.8909 16.9942 13.8909 16.9212 13.9637C19.474 13.6728 20.2763 10.4 24.2878 12.5091C27.2053 13.9637 23.3397 16.8 21.0786 16.2182C18.4529 15.5637 16.7024 14.1819 14.0038 15.2728Z" fill="#74C7E8"/>
<path d="M21.0057 16.1455C18.4529 15.491 16.7024 14.1819 14.0038 15.2728C11.8886 16.1455 9.77345 18.6183 7.29361 17.6728C5.98075 17.1637 5.25138 16.291 3.35503 15.9274C2.26098 15.7092 0.802243 16.0728 0.072876 17.1637C0.364623 16.0728 1.89629 15.8546 2.91741 15.7092C4.23027 15.7819 6.63718 17.0183 7.36654 17.3092C8.89821 17.891 10.4299 16.8728 11.5969 16.0001C12.545 15.5637 13.1285 14.9819 14.4414 14.5455C15.7543 14.1092 18.4529 14.1092 19.4011 14.3274C22.0268 15.0546 22.9021 14.4001 23.4855 13.891C24.3608 12.9455 24.2149 12.4364 24.2878 12.5092C27.1324 13.9637 23.2667 16.7274 21.0057 16.1455Z" fill="#5DBED8"/>
<path d="M21.0057 16.1455C18.4529 15.491 16.7024 14.1819 14.0037 15.2728C11.8886 16.1455 9.77341 18.6182 7.29357 17.6728C6.34539 17.3091 5.68896 16.7273 4.66785 16.291C5.90777 16.8 7.07476 17.6728 8.67936 17.6C9.84635 17.5273 10.9404 16.5819 12.1803 15.8546C13.4202 15.1273 14.9519 14.6182 16.1918 14.4728C17.4318 14.3273 18.8176 14.7637 20.1304 15.1273C21.0786 15.3455 22.0268 15.2728 23.0479 14.9819C24.069 14.691 24.7984 13.7455 24.7254 12.8C26.4759 14.3273 23.1208 16.6546 21.0057 16.1455Z" fill="#47A4C9"/>
<path d="M20.9328 12.8728C20.3493 12.9455 19.9846 13.3091 19.474 13.5273C19.1823 13.6728 18.8905 13.6728 19.1094 13.3091C19.2552 13.0909 20.4952 12.0728 21.5892 12.0728C22.0268 12.0728 23.4856 12.0728 23.6314 12.5818V12.6546C23.5585 13.3091 23.1209 13.4546 22.5374 13.1637C22.0268 12.9455 21.5163 12.7273 20.9328 12.8728Z" fill="#94E0F7"/>
</g>
<defs>
<clipPath id="clip0_1_3769">
<rect width="38" height="24" fill="white"/>
</clipPath>
</defs>
</svg>
