<svg width="42" height="32" viewBox="0 0 42 32" fill="none" xmlns="http://www.w3.org/2000/svg">
<path d="M32.5845 8.72729C31.2197 8.84101 24.6668 8.1095 24.6668 8.1095C24.6668 8.1095 22.5543 9.31454 20.2553 9.93234C17.9563 10.5501 17.1764 11.6228 17.1764 11.6228L19.077 17.1864L21.7761 18.3575C21.7761 18.3575 22.0898 28.1183 20.8267 29.1435C22.9934 29.1435 32.0453 29.1435 32.0453 29.1435C32.0453 29.1435 33.0694 17.1372 33.2152 17.0879C33.361 17.0387 37.0672 15.3805 37.0672 15.3805C37.0672 15.3805 33.9493 8.61358 32.5845 8.72729Z" fill="#B52309"/>
<path d="M34.8546 10.5044L35.036 10.7624C34.9648 10.591 34.8987 10.4942 34.8546 10.5044Z" fill="#A01C0A"/>
<path d="M17.6561 13.7987L15.6894 13.3693C15.6894 13.3693 13.2514 13.3048 11.7899 12.9042C10.3267 12.5037 8.42616 14.7356 7.35295 15.7675C6.27974 16.7994 3.01434 21.0035 2.96517 21.6094C2.91601 22.2171 8.37699 22.4122 8.37699 22.4122L6.1831 29.0994L14.667 29.4406L16.0319 27.229C16.0319 27.229 17.629 26.8047 18.219 26.1717C18.8107 25.5369 20.8181 22.2289 21.5454 21.1495C22.2727 20.07 21.8336 17.7448 20.9062 16.5652C19.9805 15.3839 17.6561 13.7987 17.6561 13.7987Z" fill="#ECAB61"/>
<path d="M19.2498 18.3761C18.5665 18.7495 16.9796 21.572 16.2963 22.3596C15.6131 23.1471 12.2137 24.8341 12.2137 24.8341C13.6837 24.5388 15.3655 24.291 16.1251 23.6359C16.8846 22.9807 17.768 25.7676 17.8256 25.1074C17.8832 24.4472 17.5442 23.7072 16.9372 22.9485C16.3302 22.1898 18.3681 23.8073 18.5021 23.9635C18.6377 24.1196 17.9799 22.8059 17.2017 22.3222C16.4235 21.8385 20.1415 17.889 19.2498 18.3761Z" fill="#E59648"/>
<path d="M11.3373 27.2359C11.4763 27.2461 11.6441 27.2529 11.8323 27.258C11.5051 27.0339 10.4488 27.1731 11.3373 27.2359Z" fill="#E59648"/>
<path d="M11.8323 27.258C11.956 27.3428 11.9747 27.4786 11.7458 27.6908C10.9116 28.463 7.86157 27.8656 6.2526 28.2339C4.64533 28.6022 6.44079 30.7288 6.44079 30.7288L15.0078 32C15.0078 32 16.4201 30.2349 16.5676 29.5441C16.7134 28.8534 16.0319 27.2274 16.0319 27.2274C16.0319 27.2274 13.3039 27.3021 11.8323 27.258Z" fill="#E59648"/>
<g opacity="0.38">
<path opacity="0.38" d="M10.6879 12.1218L6.5646 13.3693C6.5646 13.3693 1.45456 19.532 1.02901 20.362C0.603452 21.1919 2.3328 23.5833 2.74648 23.6444C3.16017 23.7055 5.98815 25.8526 7.26651 24.2928C8.54317 22.7313 10.1335 20.4604 11.4661 19.8935C12.8004 19.3266 11.8391 17.8738 11.7458 16.2003C11.6526 14.5251 10.6879 12.1218 10.6879 12.1218Z" fill="#E59648"/>
</g>
<path d="M14.7909 10.9611C14.7947 10.9497 14.7966 10.9421 14.7966 10.9421C14.7966 10.9421 14.7947 10.9478 14.7909 10.9611Z" fill="#156065"/>
<path d="M20.4825 5.13433C19.1142 4.2891 17.9173 5.65539 17.9173 5.65539C17.2018 4.9714 15.5775 6.01351 15.3504 7.03016C15.1232 8.04682 15.1995 8.3642 15.3826 9.25866C13.2684 10.4213 14.3738 11.6094 14.4721 11.6263C14.5603 11.6416 14.7553 11.0662 14.7909 10.9593C14.7943 10.9474 14.7959 10.9423 14.7959 10.9423C14.7959 10.9423 14.7943 10.9491 14.7909 10.9593C14.7705 11.0323 14.7129 11.3378 15.0079 11.8945C15.3504 12.5377 15.5114 11.2512 15.5114 11.8945C15.5114 12.5377 17.4934 13.5951 17.6562 13.7988C17.8189 14.0025 18.453 13.568 18.7124 13.6223C18.9718 13.6766 19.8331 13.8871 20.1705 13.7564C20.5062 13.6257 20.4401 12.9077 20.4825 12.2594C20.5248 11.611 21.5896 10.0139 21.7846 9.81875C21.9795 9.62356 22.8239 9.75425 23.1172 8.87508C23.4105 7.9976 21.849 5.97956 20.4825 5.13433Z" fill="#156065"/>
<path d="M15.6013 10.8147C15.605 10.8054 15.6069 10.798 15.6069 10.798C15.6069 10.798 15.605 10.8054 15.6013 10.8147Z" fill="#0B4747"/>
<path d="M20.4604 5.84205C19.2922 5.12072 18.2699 6.28673 18.2699 6.28673C17.6595 5.70288 16.2727 6.59224 16.0777 7.46123C15.8827 8.33022 15.9488 8.60008 16.1048 9.36385C14.3009 10.3567 15.2452 11.37 15.3283 11.3853C15.4046 11.3972 15.5708 10.9083 15.6013 10.8167C15.6047 10.8065 15.6064 10.8014 15.6064 10.8014C15.6064 10.8014 15.6047 10.8065 15.6013 10.8167C15.5843 10.8778 15.5351 11.1392 15.7878 11.6144C16.0794 12.1626 16.2167 11.0662 16.2167 11.6144C16.2167 12.1626 17.9087 13.0656 18.0478 13.2404C18.1868 13.4152 18.7276 13.0435 18.9497 13.0893C19.1718 13.1351 19.9077 13.315 20.1942 13.2047C20.4807 13.0944 20.4248 12.48 20.4604 11.9267C20.496 11.3734 21.4064 10.0105 21.5726 9.84417C21.7387 9.67784 22.461 9.78816 22.7102 9.03797C22.9594 8.28779 21.6268 6.56338 20.4604 5.84205Z" fill="#0B4747"/>
<path d="M23.936 8.15712C23.936 8.15712 23.8072 9.0363 23.9293 10.109C24.0513 11.1833 24.5973 13.2641 25.5637 12.9892C27.2693 12.5004 28.4883 8.7274 28.4883 8.7274L26.2622 5.44153L23.936 8.15712Z" fill="#F2C79E"/>
<path d="M24.3005 11.7906C24.3311 12.3677 24.504 12.9142 24.8617 13.3691C25.3958 14.048 24.9143 13.0025 24.3005 11.7906Z" fill="#EA8E49"/>
<path d="M26.2366 1.63455C25.984 1.34092 26.0993 1.5361 26.2281 1.17968C26.3587 0.821561 24.7548 0.991286 24.7005 0.886056C23.5968 -1.19647 20.8993 1.01505 20.8993 1.24418C20.8993 1.47331 21.3876 1.27642 21.3876 1.27642C21.3876 1.27642 20.25 2.1556 19.9245 3.1468C19.5989 4.13969 20.2822 4.693 20.2822 4.693L26.262 5.44148C26.262 5.44148 26.6503 4.33657 26.7503 3.00083C26.8486 1.6651 26.4892 1.92647 26.2366 1.63455Z" fill="#156065"/>
<path d="M25.8807 2.12508C25.6586 1.86709 25.7603 2.03852 25.8739 1.72452C25.9875 1.41053 24.5786 1.55819 24.5294 1.46654C23.5579 -0.364789 21.1843 1.58026 21.1843 1.78053C21.1843 1.98081 21.6132 1.80939 21.6132 1.80939C21.6132 1.80939 20.6129 2.58164 20.3264 3.45402C20.0399 4.32641 20.6401 4.81352 20.6401 4.81352L25.901 5.47205C25.901 5.47205 26.2418 4.50122 26.33 3.32503C26.4181 2.15223 26.1028 2.38306 25.8807 2.12508Z" fill="#0B4747"/>
<path d="M26.1316 4.46558C25.7095 5.05113 25.8061 3.68484 25.6112 3.91227C25.4162 4.1397 25.384 3.68484 24.9279 3.35897C24.4735 3.0331 23.6597 2.4153 23.2698 2.08943C22.8798 1.76356 22.2627 3.71709 22.2627 3.12984C22.2627 2.54259 22.2627 2.21842 21.9694 2.57654C21.676 2.93466 20.0298 4.18214 20.279 4.69131C20.279 4.69131 21.3183 6.80608 21.5472 7.35939C21.7744 7.91269 23.4003 9.44191 24.3108 9.18223C25.2212 8.92255 25.8706 7.49007 25.9028 6.64484C25.935 5.79961 26.8454 6.25448 26.9099 5.40925C26.9777 4.56232 26.5538 3.88003 26.1316 4.46558Z" fill="#F2C79E"/>
<path d="M26.4333 4.85766C26.1587 4.60647 26.1824 5.44151 26.1824 5.44151C26.3875 5.77248 26.708 5.11055 26.4333 4.85766Z" fill="#EA8E49"/>
<path d="M23.302 3.40814L24.248 3.11452C23.6936 2.96346 23.2562 3.35892 23.302 3.40814Z" fill="#5F1B11"/>
<path d="M20.8317 4.44846L21.7777 4.15484C21.225 4.00548 20.7859 4.39924 20.8317 4.44846Z" fill="#5F1B11"/>
<path d="M24.5835 4.15663C24.0122 3.95466 23.5629 4.66751 23.5595 4.6743C23.5493 4.68957 23.5544 4.71164 23.5697 4.72182C23.5748 4.72521 23.5815 4.72691 23.5883 4.72691C23.6002 4.72691 23.6104 4.72182 23.6171 4.71164C23.6205 4.70485 24.041 4.03782 24.5615 4.22113C24.5785 4.22792 24.5988 4.21773 24.6056 4.20076C24.6107 4.18209 24.6005 4.16172 24.5835 4.15663Z" fill="#5F1B11"/>
<path d="M22.044 5.13073C21.5574 5.01362 21.2793 5.36665 21.2759 5.37004C21.2641 5.38532 21.2675 5.40568 21.2827 5.41757C21.2895 5.42266 21.2963 5.42435 21.3031 5.42435C21.3132 5.42435 21.3234 5.41926 21.3302 5.41078C21.3404 5.3972 21.5862 5.0883 22.0287 5.19523C22.0474 5.20032 22.066 5.18844 22.0694 5.16977C22.0745 5.15449 22.0626 5.13582 22.044 5.13073Z" fill="#5F1B11"/>
<path d="M23.0001 6.65988C22.9967 6.65988 22.7306 6.62593 22.6288 6.46809C22.5848 6.3985 22.5763 6.31364 22.6068 6.21519C22.739 5.78579 22.3864 4.97111 22.3728 4.93546C22.3661 4.91849 22.3457 4.91 22.3288 4.91849C22.3118 4.92528 22.3033 4.94565 22.3118 4.96262C22.3152 4.97111 22.6678 5.78918 22.5441 6.19483C22.5085 6.31363 22.5186 6.41717 22.5746 6.50373C22.695 6.68873 22.9832 6.72437 22.9951 6.72607C22.9967 6.72607 22.9984 6.72607 22.9984 6.72607C23.0154 6.72607 23.0307 6.71419 23.0324 6.69552C23.0307 6.67854 23.0188 6.66157 23.0001 6.65988Z" fill="#5F1B11"/>
<path d="M24.7193 4.98139C24.3277 5.16299 24.0734 5.44983 24.153 5.62125C24.2327 5.79267 24.6142 5.78249 25.0058 5.60089C25.3975 5.41928 25.6518 5.13244 25.5721 4.96102C25.4924 4.7913 25.1109 4.79978 24.7193 4.98139Z" fill="#EF6654"/>
<path d="M24.3446 6.51416L22.817 7.40861C22.8662 7.41031 23.9699 7.50705 24.3446 6.51416Z" fill="#5F1B11"/>
<path d="M23.9359 8.80714C23.9172 8.80544 23.902 8.82071 23.9003 8.83938C23.9003 8.84108 23.8969 8.93104 23.8952 9.0193C23.8935 9.07191 23.8935 9.11435 23.8952 9.1449C23.8969 9.19751 23.8969 9.22976 23.9308 9.23485C23.9325 9.23485 23.9342 9.23485 23.9359 9.23485C23.9529 9.23485 23.9664 9.22297 23.9698 9.206C23.9715 9.19921 23.9698 9.19242 23.9664 9.18563C23.9614 9.15169 23.9647 8.98875 23.9698 8.84278C23.9698 8.82411 23.9546 8.80714 23.9359 8.80714ZM23.9393 9.16696C23.941 9.16696 23.941 9.16696 23.9427 9.16696C23.9427 9.16866 23.941 9.16696 23.9393 9.16696Z" fill="#5F1B11"/>
<path d="M24.1802 8.82569C24.1717 8.80872 24.1513 8.80193 24.1344 8.81042C24.1174 8.8189 24.1107 8.83927 24.1191 8.85624L24.2819 9.19738C24.287 9.20926 24.3005 9.21605 24.3124 9.21605C24.3175 9.21605 24.3226 9.21435 24.3277 9.21266C24.3446 9.20417 24.3514 9.1838 24.3429 9.16683L24.1802 8.82569Z" fill="#5F1B11"/>
<path d="M24.3734 8.71036C24.3649 8.69339 24.3429 8.68829 24.3276 8.69678C24.3107 8.70527 24.3056 8.72733 24.3141 8.7426L24.4768 9.03622C24.4836 9.0481 24.4938 9.05319 24.5074 9.05319C24.5124 9.05319 24.5192 9.0515 24.5243 9.0498C24.5413 9.04131 24.5464 9.01925 24.5379 9.00397L24.3734 8.71036Z" fill="#5F1B11"/>
<path d="M24.1496 8.90552C24.131 8.90552 24.1157 8.92079 24.1157 8.93946L24.1157 9.21272C24.1157 9.23139 24.131 9.24666 24.1496 9.24666C24.1683 9.24666 24.1835 9.23139 24.1835 9.21272L24.1835 8.93946C24.1835 8.92079 24.1683 8.90552 24.1496 8.90552Z" fill="#5F1B11"/>
<path d="M32.047 28.1711L31.73 29.0978L39.5798 29.0978L39.2136 27.9759C39.2136 27.9759 33.6322 26.17 32.047 28.1711Z" fill="#5F1B11"/>
<path d="M38.5557 15.4806C37.9707 15.114 34.0238 14.9782 33.8746 15.0546C33.8746 15.0546 32.4114 15.8217 31.7773 16.0661C31.1432 16.3105 30.2667 16.7247 29.9971 17.2627C29.7292 17.799 29.5326 20.2889 29.7886 20.5078C30.0446 20.7268 30.0209 21.0204 30.0209 21.0204C30.0209 21.0204 31.4586 21.1426 31.8977 20.7268C32.3368 20.3126 31.5942 26.8521 31.7705 27.3885C31.9469 27.9248 32.0435 28.1692 32.0435 28.1692C32.0435 28.1692 34.0424 28.047 35.5785 28.1692C37.1145 28.2914 39.0406 28.2422 39.2101 27.974C39.3813 27.7059 39.1118 27.5107 39.2101 27.4377C39.3084 27.3647 39.673 26.9014 39.5763 26.1936C39.4797 25.4859 39.3084 23.3388 39.3322 23.1929C39.3559 23.0469 38.8693 19.7763 38.8693 19.7763C38.8693 19.7763 39.4305 20.1429 40.185 19.7033C40.9394 19.2637 41.0378 19.4097 41.0378 19.4097C41.0378 19.4097 39.1406 15.8472 38.5557 15.4806Z" fill="#CE8445"/>
<path d="M35.0783 8.24187C33.1286 7.2982 31.5518 9.44522 31.5196 9.49444C31.5196 9.49444 30.8703 9.44522 30.1056 10.2107C29.341 10.9761 30.1548 12.0811 30.6278 12.3577C31.1008 12.6344 30.8041 13.4643 30.6414 14.3095C30.4786 15.1548 31.7621 15.1073 31.5196 14.9935C31.2755 14.8798 31.3246 14.5047 31.9096 14.0991C32.3589 13.7868 32.1554 13.3727 32.0384 13.1995C32.0265 13.1809 32.0469 13.1588 32.0672 13.169L32.4114 13.3693C32.4114 13.3693 36.2193 10.6146 36.4618 10.4704C36.7042 10.3261 37.0281 9.18554 35.0783 8.24187Z" fill="#156065"/>
<path d="M35.37 9.0056C33.8425 8.85964 32.3471 9.52666 32.2013 11.0236C32.0555 12.5206 31.73 12.2932 31.73 12.2932C31.73 12.2932 31.8232 12.9381 32.0657 13.169C32.3064 13.3998 32.9168 13.8547 32.9982 13.7902C33.0795 13.7257 35.7125 12.2015 35.8261 12.1235C35.9397 12.0437 36.7518 10.2768 36.7518 10.2768C36.7518 10.2768 36.8976 9.15327 35.37 9.0056Z" fill="#0B4747"/>
<path d="M31.6331 10.2922C30.5124 9.93403 30.5277 11.2036 31.194 11.7569C31.8603 12.3102 31.3076 13.612 30.9702 14.3605C30.6328 15.109 31.5195 14.9952 31.5195 14.9952L31.7314 15.3856C31.7314 15.3856 31.6331 14.9952 31.6178 14.9307C31.6009 14.8663 32.196 14.167 32.3079 14.0685C32.4181 13.9701 32.2841 13.2063 31.7314 12.2949C31.177 11.3818 31.6331 10.2922 31.6331 10.2922Z" fill="#0B4747"/>
<path d="M36.4602 10.4705C35.8431 11.1545 33.405 9.60828 33.405 9.60828C33.405 9.60828 32.8845 10.5689 32.4302 11.219C31.9758 11.869 33.032 13.22 32.7879 12.9604C32.5437 12.7007 32.2521 12.9773 32.3166 13.5137C32.381 14.05 33.2423 14.0025 33.2423 14.0025C33.2423 14.0025 33.405 14.8324 33.4372 15.1244C33.4695 15.418 33.1609 15.5147 33.1609 15.5147C33.1609 15.5147 33.6644 16.2462 34.8665 16.1987C36.0685 16.1495 35.9719 15.2873 35.9719 15.2873L35.5497 15.0599C35.5497 15.0599 35.3717 14.8817 35.4684 14.4913C36.3466 14.459 36.7518 12.8483 36.6704 12.1491C36.589 11.4464 36.4924 10.4348 36.4602 10.4705Z" fill="#F2C79E"/>
<path d="M32.5285 13.2827C32.4624 13.4796 33.0474 13.875 32.9168 13.4185C32.9168 13.4168 32.5947 13.0841 32.5285 13.2827Z" fill="#EA8E49"/>
<path d="M34.0865 14.2944C33.4694 14.0347 34.3663 15.0259 35.0783 15.0565C35.7904 15.087 35.4683 14.4896 35.4683 14.4896C35.4683 14.4896 34.7037 14.5541 34.0865 14.2944Z" fill="#EA8E49"/>
<path d="M33.2252 10.9423L33.8915 10.4704C33.8271 10.4382 33.2744 10.4874 33.2252 10.9423Z" fill="#5F1B11"/>
<path d="M35.3989 12.1626C35.1615 12.0743 35.1124 11.6262 35.1124 11.6211C35.1107 11.6025 35.0937 11.5889 35.0751 11.5906C35.0564 11.5923 35.0429 11.6093 35.0446 11.6279C35.0463 11.6483 35.0988 12.1218 35.3751 12.2254C35.4328 12.2474 35.4362 12.2746 35.4379 12.2848C35.4514 12.3679 35.3056 12.5156 35.2107 12.5903C35.1955 12.6022 35.1938 12.6225 35.2056 12.6378C35.2124 12.6463 35.2226 12.6514 35.2327 12.6514C35.2395 12.6514 35.248 12.6497 35.2531 12.6446C35.2819 12.6225 35.5277 12.424 35.504 12.2763C35.4989 12.2406 35.4769 12.1931 35.3989 12.1626Z" fill="#5F1B11"/>
<path d="M34.4273 13.1384C34.1679 12.9755 34.5256 13.724 34.8986 13.6103C35.2716 13.4965 35.3699 13.2199 35.3699 13.2199C35.3699 13.2199 34.6884 13.3014 34.4273 13.1384Z" fill="#5F1B11"/>
<path d="M34.6358 13.8869C34.7997 13.8869 34.9325 13.7775 34.9325 13.6425C34.9325 13.5075 34.7997 13.3981 34.6358 13.3981C34.4719 13.3981 34.3391 13.5075 34.3391 13.6425C34.3391 13.7775 34.4719 13.8869 34.6358 13.8869Z" fill="white"/>
<path d="M33.6865 12.2779C33.3474 12.3356 33.0863 12.4646 33.1049 12.5665C33.1219 12.6683 33.4101 12.7039 33.7492 12.6479C34.0883 12.5902 34.3494 12.4612 34.3307 12.3594C34.3138 12.2575 34.0255 12.2219 33.6865 12.2779Z" fill="#EF6654"/>
<path d="M33.8101 11.307C33.7134 11.3359 33.6711 11.4835 33.7168 11.6346C33.7626 11.7873 33.8779 11.8858 33.9762 11.8569C34.0729 11.8281 34.1153 11.6804 34.0695 11.5293C34.0237 11.3766 33.9067 11.2765 33.8101 11.307Z" fill="#5F1B11"/>
<path d="M35.7432 11.0253C35.6465 11.0542 35.6042 11.2019 35.6499 11.3529C35.6957 11.504 35.811 11.6041 35.9093 11.5752C36.0076 11.5464 36.0483 11.3987 36.0025 11.2477C35.9567 11.0966 35.8398 10.9965 35.7432 11.0253Z" fill="#5F1B11"/>
<path d="M32.9691 10.562L32.2062 10.1971C32.1825 10.1852 32.1537 10.1954 32.1418 10.2192L32.0638 10.3821C32.0519 10.4059 32.0621 10.4347 32.0859 10.4466L32.8488 10.8115C32.8725 10.8234 32.9013 10.8132 32.9132 10.7895L32.9912 10.6265C33.003 10.6011 32.9929 10.5722 32.9691 10.562Z" fill="#F7E06E"/>
<path d="M32.8505 10.8114L32.0876 10.4465C32.0638 10.4346 32.035 10.4448 32.0231 10.4686L31.9452 10.6315C31.9333 10.6553 31.9435 10.6841 31.9672 10.696L32.7302 11.0609C32.7539 11.0728 32.7827 11.0626 32.7946 11.0388L32.8726 10.8759C32.8844 10.8504 32.8743 10.8216 32.8505 10.8114Z" fill="#E0BF38"/>
<path d="M38.8727 19.7764L33.6321 23.5341C33.6321 23.5341 35.4123 23.8753 37.9707 23.5341C40.5308 23.193 40.507 19.532 40.507 19.532C39.5559 20.3144 38.8727 19.7764 38.8727 19.7764Z" fill="#F2A775"/>
<path d="M38.8999 19.9597C38.7744 19.6288 37.9945 20.1413 37.8979 19.8239C37.8012 19.5066 37.63 19.067 37.4842 19.3114C37.3384 19.5558 37.435 20.7269 36.9959 20.8236C36.5568 20.9221 36.2855 21.3599 35.275 21.4584C34.2645 21.5568 32.5098 22.0439 32.4131 22.0932C32.3148 22.1424 31.9011 20.7269 31.9011 20.7269C31.9011 20.7269 31.0246 21.1155 30.2192 21.0307C30.2192 21.0307 30.3549 23.361 31.1212 23.899C31.8875 24.437 33.7288 24.3624 34.9732 23.899C36.2177 23.4357 38.5082 22.4598 38.654 22.1916C38.7998 21.9234 39.3627 21.6281 39.0575 21.0307C38.7524 20.4333 39.0253 20.2907 38.8999 19.9597Z" fill="#F2C79E"/>
<path d="M38.7998 20.6065C39.0439 20.8662 39.2457 20.8916 39.0778 21.3873C38.91 21.8829 39.1457 22.1188 39.1457 22.1188L39.6441 21.2888L38.9727 19.8359C38.9727 19.8376 38.5557 20.3451 38.7998 20.6065Z" fill="#EA8E49"/>
<path d="M34.6833 18.6698C34.0221 18.2472 34.2662 18.1335 34.2662 18.1335C34.2662 18.1335 35.0037 17.8399 34.6833 17.3358C34.3629 16.8317 33.9221 15.9525 32.7878 16.034C32.7878 16.034 32.2351 15.7573 31.618 15.8558C31.0009 15.9542 31.0009 15.6351 30.4804 15.8354C29.9599 16.0357 29.6479 16.107 29.7937 16.7672C29.9395 17.4274 29.7174 18.4594 30.026 18.2964C30.3346 18.1335 30.5295 17.7754 30.5295 17.7754C30.5295 17.7754 30.2854 19.0653 30.4482 19.2418C30.6109 19.4183 31.1958 20.0208 31.7316 19.6305C32.2673 19.2401 31.952 20.3908 31.9961 20.7846C32.0402 21.1784 31.8943 21.5501 31.3908 21.9574C30.8873 22.3647 31.0246 22.9978 31.2738 23.4544C31.5214 23.9092 31.7095 24.1842 31.9249 23.9092C32.1385 23.6343 31.7095 22.5056 32.0147 22.4275C32.3182 22.3495 32.6929 22.122 32.6929 22.122C32.6929 22.122 32.7743 23.4561 33.522 23.0335C34.2696 22.6108 33.6355 21.5535 34.1713 21.472C34.707 21.3905 35.3649 21.4805 35.6344 21.4109C35.904 21.3396 37.0722 20.8016 37.0722 20.8016C37.0722 20.8016 37.5096 20.2211 37.4248 19.5371C37.3366 18.848 35.3445 19.0924 34.6833 18.6698Z" fill="#FDF8C0"/>
<path d="M33.1117 16.7179C33.0625 16.3597 32.8184 16.3597 32.8184 16.3597C33.2727 16.392 32.737 17.4816 32.932 18.1333C33.1269 18.7851 33.6305 18.6272 34.2646 18.1333C33.1117 18.8326 33.1608 17.076 33.1117 16.7179Z" fill="#FFD79C"/>
<path d="M30.4463 16.2784C30.0886 16.3428 30.1395 16.6025 30.2191 17.0183C30.3005 17.4342 30.2174 17.9909 29.8682 18.1844C29.519 18.3778 29.7902 18.5645 29.7902 18.5645L30.2174 18.4254L30.526 17.7753C30.526 17.7753 30.7837 16.8011 30.7362 16.5635C30.6905 16.3276 30.804 16.2139 30.4463 16.2784Z" fill="#FFD79C"/>
<path d="M32.4623 19.1245C32.2504 19.4503 31.9096 19.5488 31.9096 19.5488C31.9096 19.5488 31.4061 21.5804 31.8232 21.4955C32.2402 21.409 32.5437 21.0933 32.7065 20.3618C32.8675 19.6303 32.6726 18.8003 32.4623 19.1245Z" fill="#FFD79C"/>
<path d="M31.6569 23.636C31.6654 23.8362 31.8112 24.2758 31.8112 24.2758C31.8112 24.2758 31.6485 23.4357 31.6569 23.636Z" fill="#FFD79C"/>
<path d="M31.8112 23.636C31.8197 23.8362 31.9655 24.2758 31.9655 24.2758C31.9655 24.2758 31.8045 23.4357 31.8112 23.636Z" fill="#FFD79C"/>
<path d="M33.6576 23.147C33.7305 23.1962 33.5203 22.6429 33.5203 22.6429C33.5203 22.6429 33.5847 23.0978 33.6576 23.147Z" fill="#FFD79C"/>
<path d="M33.4286 23.1996C33.5014 23.2489 33.2913 22.6956 33.2913 22.6956C33.2913 22.6956 33.3557 23.1521 33.4286 23.1996Z" fill="#FFD79C"/>
<path d="M33.1998 23.254C33.2727 23.3032 33.0625 22.7499 33.0625 22.7499C33.0625 22.7499 33.1269 23.2047 33.1998 23.254Z" fill="#FFD79C"/>
<path d="M32.7216 21.8742C32.764 21.8963 32.5758 21.3379 32.9166 21.1257C33.2573 20.9136 33.2912 20.2754 33.2912 20.2754C33.2912 20.2754 32.0062 21.5008 32.7216 21.8742Z" fill="#FFD79C"/>
<path d="M37.5808 19.5321C37.7266 20.2975 36.1024 19.9547 35.7599 20.7677C35.4191 21.5807 34.2645 21.4975 34.2645 21.4975L34.8325 22.1662C34.8325 22.1662 36.9772 21.9388 37.0671 21.8743C37.1569 21.8098 38.4082 20.9306 38.4082 20.9306C38.4082 20.9306 37.435 18.7666 37.5808 19.5321Z" fill="#FFD79C"/>
<path d="M31.2263 18.7836C31.0025 18.7836 30.8193 18.8854 30.8193 19.0127C30.8193 19.1383 31.0008 19.2418 31.2263 19.2418C31.4518 19.2418 31.6332 19.14 31.6332 19.0127C31.6332 18.8854 31.4518 18.7836 31.2263 18.7836Z" fill="#5F1B11"/>
<path d="M31.2841 18.8617C31.1603 18.8617 31.0603 18.9177 31.0603 18.9873C31.0603 19.0569 31.1603 19.1129 31.2841 19.1129C31.4079 19.1129 31.5079 19.0569 31.5079 18.9873C31.5079 18.9194 31.4079 18.8617 31.2841 18.8617Z" fill="#935D57"/>
<path d="M30.9499 17.677C31.022 17.677 31.0804 17.5896 31.0804 17.4818C31.0804 17.374 31.022 17.2866 30.9499 17.2866C30.8778 17.2866 30.8193 17.374 30.8193 17.4818C30.8193 17.5896 30.8778 17.677 30.9499 17.677Z" fill="#5F1B11"/>
<path d="M32.2335 17.677C32.3056 17.677 32.364 17.5896 32.364 17.4818C32.364 17.374 32.3056 17.2866 32.2335 17.2866C32.1614 17.2866 32.1029 17.374 32.1029 17.4818C32.1029 17.5896 32.1614 17.677 32.2335 17.677Z" fill="#5F1B11"/>
<path d="M21.0538 7.98891C21.0538 7.98891 21.0538 7.98891 20.4198 8.00249C19.7857 8.01607 19.6399 6.69561 19.494 7.11143C19.3482 7.52556 18.1292 7.72075 18.2259 8.00249C18.3242 8.28423 17.568 10.0154 17.1052 9.64882C16.6423 9.28222 16.1066 10.4058 16.9339 11.2595C16.7881 12.5528 15.0571 13.3336 15.0571 13.3336C15.0571 13.3336 14.6434 14.6506 16.2524 15.6282C17.8613 16.6042 18.9091 14.6761 18.9091 14.6761L18.3005 14.262C18.3005 14.262 18.3242 13.7256 18.5938 13.286C19.6178 13.9208 21.3234 12.2864 21.5438 11.7738C21.7642 11.2612 22.617 8.91901 22.617 8.91901C22.4424 9.38066 21.0538 7.98891 21.0538 7.98891Z" fill="#F2C79E"/>
<path d="M16.9831 10.1242C16.7882 10.4297 17.0001 10.6911 17.1781 10.6249C17.2747 10.5892 17.1781 9.81698 16.9831 10.1242Z" fill="#EA8E49"/>
<path d="M18.7124 8.20959L19.8585 8.42854C19.494 7.74455 18.7124 8.20959 18.7124 8.20959Z" fill="#5F1B11"/>
<path d="M21.1436 9.22965L21.9472 9.44521C21.6912 8.77646 21.1436 9.22965 21.1436 9.22965Z" fill="#5F1B11"/>
<path d="M20.5011 9.82715C20.5045 9.80848 20.4943 9.79151 20.4757 9.78641C20.457 9.78302 20.44 9.7932 20.435 9.81187C20.4299 9.83394 20.3129 10.3618 20.4367 10.7335C20.457 10.7946 20.4519 10.8472 20.4197 10.893C20.2993 11.0712 19.8619 11.1035 19.8568 11.1035C19.8381 11.1052 19.8246 11.1204 19.8246 11.1391C19.8263 11.1578 19.8398 11.1714 19.8585 11.1714L19.8602 11.1714C19.8788 11.1697 20.3366 11.1374 20.4757 10.932C20.5197 10.8676 20.5265 10.7929 20.4994 10.7131C20.3824 10.3584 20.4994 9.83224 20.5011 9.82715Z" fill="#5F1B11"/>
<path d="M19.4195 11.8943L18.8108 11.285C18.8108 11.2833 18.9329 11.7959 19.4195 11.8943Z" fill="#5F1B11"/>
<path d="M18.3716 9.58606C17.9528 9.32299 17.5442 9.21776 17.4611 9.35015C17.378 9.48423 17.6493 9.80501 18.0698 10.0681C18.4886 10.3312 18.8972 10.4364 18.9802 10.304C19.0633 10.1716 18.7903 9.84914 18.3716 9.58606Z" fill="#EF6654"/>
<path d="M19.2617 8.98351C19.1566 8.92241 19.0006 8.99709 18.9124 9.14814C18.8243 9.2992 18.8395 9.47231 18.9447 9.53341C19.0498 9.59451 19.2058 9.51983 19.2939 9.36878C19.3804 9.21603 19.3668 9.04461 19.2617 8.98351Z" fill="#5F1B11"/>
<path d="M21.3013 9.84923C21.1962 9.78813 21.0402 9.86281 20.952 10.0139C20.8638 10.1649 20.8791 10.338 20.9842 10.3991C21.0893 10.4602 21.2453 10.3856 21.3335 10.2345C21.42 10.0818 21.4064 9.91033 21.3013 9.84923Z" fill="#5F1B11"/>
<path d="M12.4377 11.6992C11.768 11.5278 11.5458 11.0152 10.4014 11.1374C9.257 11.2596 8.86536 12.5292 8.86536 12.6021C8.86536 12.6021 9.15358 14.0261 9.42655 14.0906C9.69782 14.1551 10.1098 14.6032 10.4252 14.3096C10.7422 14.0159 10.6693 13.5119 10.6693 13.5119C10.6693 13.5119 10.9864 14.2128 10.8151 14.5048C10.6439 14.7984 10.6201 15.6266 10.693 15.7488C10.7659 15.871 11.278 14.9681 11.3373 14.6745C11.3966 14.3809 11.4967 13.2098 11.4967 13.2098C11.4967 13.2098 11.985 14.1857 11.985 14.5523C11.985 14.9189 12.0833 15.8693 12.302 15.9016C12.5207 15.9338 12.6191 14.6015 12.6191 14.0159C12.6191 13.4304 12.2291 12.6242 12.2291 12.6242C12.2291 12.6242 12.4733 12.6734 12.9361 13.1317C13.4007 13.5899 13.9347 13.5526 13.7838 13.2369C13.6312 12.9246 13.1073 11.8689 12.4377 11.6992Z" fill="#F2C79E"/>
<path d="M9.80799 10.7708C7.93793 10.6724 9.49942 12.48 9.49942 12.48C9.49942 12.48 10.3658 11.3411 10.8897 11.465C11.4119 11.5906 12.7835 11.6093 12.7835 11.6093C12.7835 11.6093 12.3935 11.4447 12.3444 11.4379C12.2935 11.4328 10.5048 10.8082 9.80799 10.7708Z" fill="#EA8E49"/>
<path d="M13.9195 13.4168C13.399 13.3217 12.7496 12.7311 12.5546 12.6259C12.3597 12.5206 12.2291 12.6259 12.2291 12.6259L12.8785 13.4168L13.4142 13.853C13.4159 13.853 14.44 13.5118 13.9195 13.4168Z" fill="#EA8E49"/>
<path d="M12.0341 14.033C11.9035 13.7886 11.4983 12.8585 11.4983 12.8585L11.4983 13.2115L11.6441 14.4081L11.9001 16.0188C11.9001 16.0188 12.5868 16.3769 12.3019 15.9034C12.0171 15.4315 12.1646 14.2774 12.0341 14.033Z" fill="#EA8E49"/>
<path d="M9.3773 11.8944C8.5974 11.4803 8.47533 12.3832 7.50046 12.1388C6.52559 11.8944 6.23228 13.3591 6.23228 13.3591C4.64705 13.2861 4.69622 15.0665 4.67248 16.0917C4.64875 17.1168 5.06243 16.7994 5.62362 17.3612C6.18481 17.923 7.15968 17.8246 7.15968 17.8246C7.15968 17.8246 10.0606 14.391 10.5488 13.5119C11.0354 12.6327 10.1572 12.3085 9.3773 11.8944Z" fill="#156065"/>
<path d="M9.36212 12.5818C8.71616 12.2372 8.61444 12.9857 7.80572 12.7838C6.997 12.5818 6.75455 13.7953 6.75455 13.7953C5.4406 13.7342 5.48129 15.2125 5.46094 16.0612C5.4406 16.9115 5.78477 16.6484 6.24931 17.1135C6.71386 17.5785 7.52258 17.4988 7.52258 17.4988C7.52258 17.4988 9.9267 14.6524 10.3319 13.9226C10.7371 13.1945 10.0098 12.9263 9.36212 12.5818Z" fill="#0B4747"/>
<path d="M10.7829 15.1633C10.6523 14.4317 10.3523 13.5101 10.3523 13.5101C10.3523 13.5101 9.64526 14.0397 9.12477 14.0499C8.60257 14.06 9.12477 14.0499 8.69582 14.6015C8.26688 15.1531 7.59888 14.4063 7.69722 15.0156C7.79555 15.6249 8.28214 17.0659 7.40391 17.0404C6.52568 17.0167 7.1106 17.9026 7.1106 17.9026C7.1106 17.9026 6.86646 18.1386 6.62231 18.7479C7.23097 18.4542 9.02474 19.2112 9.02474 19.2112C9.02474 19.2112 8.69413 18.8208 9.57236 18.7716C10.4506 18.7224 10.888 17.9909 11.0593 17.4053C11.2288 16.8232 11.3373 15.9033 11.3373 15.9033C11.3373 15.9033 10.9117 15.8965 10.7829 15.1633Z" fill="#F2C79E"/>
<path d="M8.98061 18.6275C8.07017 18.3611 7.95657 18.4222 7.68022 18.9636C7.40386 19.505 8.19902 19.7935 8.29736 19.7935C8.39569 19.7935 9.35361 20.2331 9.35361 20.2331L10.4506 18.5732C10.4489 18.5715 9.89106 18.8923 8.98061 18.6275Z" fill="#EA8E49"/>
<path d="M8.86523 14.9207L9.49933 14.5795C9.49933 14.5778 9.10938 14.4081 8.86523 14.9207Z" fill="#5F1B11"/>
<path d="M9.45202 15.1294C9.33504 15.1634 9.28417 15.3382 9.33673 15.5181C9.38929 15.6997 9.52662 15.8185 9.6436 15.7846C9.76059 15.7507 9.81145 15.5758 9.7589 15.3959C9.70464 15.2143 9.56901 15.0955 9.45202 15.1294Z" fill="#5F1B11"/>
<path d="M9.35185 17.0677C8.76693 17.0185 9.71806 17.7755 10.0826 17.5803C10.4488 17.3851 10.4488 16.8488 10.4488 16.8488C10.4488 16.8488 9.93677 17.1169 9.35185 17.0677Z" fill="#5F1B11"/>
<path d="M9.59435 17.2305C9.35869 17.2305 9.16711 17.3646 9.16711 17.5309C9.16711 17.6972 9.35869 17.8313 9.59435 17.8313C9.83001 17.8313 10.0216 17.6972 10.0216 17.5309C10.0233 17.3646 9.83171 17.2305 9.59435 17.2305Z" fill="white"/>
<path d="M8.62283 16.1595C8.28375 16.258 8.03622 16.4362 8.07012 16.5567C8.10573 16.6772 8.40921 16.6941 8.74829 16.594C9.08738 16.4956 9.33491 16.3174 9.301 16.1969C9.26709 16.0781 8.96361 16.0611 8.62283 16.1595Z" fill="#EF6654"/>
<path d="M13.7601 24.2911C12.8344 24.1689 12.3274 23.899 10.9609 21.752C9.59609 19.6049 9.41807 18.7886 6.6223 18.7512C3.82652 18.7139 1.40205 27.173 1.42918 27.2918C2.01411 29.7817 7.4022 29.7325 7.37676 29.8292C7.35303 29.9276 8.40081 26.9982 8.40081 26.9982L10.6184 25.0956C10.6201 25.0956 14.6858 24.4133 13.7601 24.2911Z" fill="#6D6D53"/>
<path d="M10.3269 24.9988C10.0336 24.9004 9.86403 24.3895 9.32827 24.291C8.79252 24.1926 8.47547 23.3151 8.2805 23.7785C8.08552 24.2418 8.76878 24.51 8.76878 24.9004C8.76878 25.2907 8.01262 24.9004 7.69557 24.9004C7.37852 24.9004 7.08691 25.4129 7.40226 25.9017C7.71931 26.3905 7.67014 26.6825 7.96345 26.9761C8.25676 27.2697 8.3534 27.8553 8.84168 27.5617C9.32997 27.268 10.2557 27.2205 10.6219 26.7079C10.9881 26.1954 10.6219 25.0972 10.6219 25.0972C10.6219 25.0972 10.6202 25.0955 10.3269 24.9988Z" fill="#F2C79E"/>
<path d="M8.61431 24.4132C7.94123 23.9244 8.31253 23.3728 8.31253 23.3728L7.73948 23.4237C7.73948 23.4237 7.62758 24.695 8.20911 25.014C8.79233 25.3331 9.28739 24.9003 8.61431 24.4132Z" fill="#EA8E49"/>
<path d="M8.50761 27.4837C8.54661 27.0611 8.07358 27.1069 7.89726 26.9015C7.72094 26.6961 7.9549 26.3821 7.58191 26.024C7.20892 25.6659 7.07837 25.2585 7.07837 25.2585L7.07837 25.8153L7.38524 27.2359C7.38524 27.2359 8.52457 28.1049 8.61612 28.1507C8.70428 28.1948 8.46862 27.9063 8.50761 27.4837Z" fill="#EA8E49"/>
<path d="M5.45239 23.9483C5.11161 23.7769 4.76913 22.7772 5.28115 23.2643C5.79317 23.7514 6.35436 23.4357 6.13395 23.2643C5.91355 23.0929 5.52529 22.3614 5.23198 21.9472C4.93867 21.5331 3.69761 21.4143 3.62301 21.4347C2.01405 21.8743 2.38026 23.1183 2.74478 23.6428C3.11099 24.1672 3.47551 25.0702 3.76882 25.6404C4.06213 26.2107 4.33001 26.2175 4.91494 26.3142C5.49986 26.4127 5.32862 26.3142 5.15908 26.0698C4.98784 25.8254 4.45208 25.6065 4.74539 25.6404C5.0387 25.6744 5.52529 25.9001 5.98815 25.8509C6.451 25.8017 5.84234 25.4605 6.18312 25.4605C6.5239 25.4605 6.451 25.2653 6.11022 25.1669C5.76943 25.0685 5.62193 24.7036 5.62193 24.7036C5.62193 24.7036 6.50017 25.0939 6.47473 24.7036C6.451 24.3149 5.79317 24.1197 5.45239 23.9483Z" fill="#F2C79E"/>
<path d="M5.37098 23.1269C4.50969 22.5244 5.09123 23.8941 5.93047 23.8924C6.76971 23.8907 6.37807 23.3374 6.37807 23.3374C6.37807 23.3374 6.23226 23.7294 5.37098 23.1269Z" fill="#EA8E49"/>
<path d="M5.62197 24.7053C5.62197 24.7053 5.19303 24.5594 5.04552 24.3964C4.89802 24.2335 4.52502 23.6445 4.52502 23.6445C4.52502 23.6445 4.85055 24.6578 5.62197 24.8852C6.39509 25.1127 5.62197 24.7053 5.62197 24.7053Z" fill="#EA8E49"/>
<path d="M4.94552 25.1771C4.50979 24.7868 4.08594 24.1367 4.08594 24.1367C4.08594 24.1367 4.79123 25.8934 6.13062 25.5353C6.13062 25.5353 5.38294 25.5675 4.94552 25.1771Z" fill="#EA8E49"/>
<path d="M4.66907 25.6422C4.66907 25.6422 4.45375 25.7627 4.26217 25.4368C4.07058 25.1109 3.87561 24.858 3.87561 24.858C3.87561 24.858 3.96716 25.6422 4.52496 25.8136C5.08276 25.9833 5.30486 26.3924 5.40319 26.4518C5.50153 26.5112 5.24552 25.9732 5.24552 25.9732L4.66907 25.6422Z" fill="#EA8E49"/>
<path d="M32.386 5.44305C32.386 5.44305 32.0452 3.87479 31.189 4.67759C30.3328 5.48038 32.2774 7.18442 32.2774 7.18442C32.2774 7.18442 34.2594 5.32254 33.6253 4.69965C32.9912 4.07506 32.386 5.44305 32.386 5.44305Z" fill="#F97F6E"/>
<path d="M18.0274 0.39893C17.1288 0.0136548 17.0542 1.65829 17.0542 1.65829C17.0542 1.65829 16.076 0.186774 15.5199 1.35278C14.9638 2.51879 17.6408 3.48623 17.6408 3.48623C17.6408 3.48623 18.926 0.784206 18.0274 0.39893Z" fill="#F97F6E"/>
<path d="M9.6605 6.92498C8.845 6.57535 8.77718 8.06892 8.77718 8.06892C8.77718 8.06892 7.88878 6.73319 7.38355 7.79227C6.87831 8.85135 9.30955 9.73052 9.30955 9.73052C9.30955 9.73052 10.4777 7.27461 9.6605 6.92498Z" fill="#F97F6E"/>
</svg>
