<svg width="22" height="35" viewBox="0 0 22 35" fill="none" xmlns="http://www.w3.org/2000/svg">
<path d="M13.9844 8.91739C13.9927 8.99584 13.9359 9.0663 13.8574 9.07465C13.7789 9.08297 13.7085 9.0261 13.7002 8.94765L13.148 3.84684C12.9484 2.00229 11.79 0.877775 10.4891 0.46558C9.99434 0.308823 9.47975 0.254646 8.99023 0.302548C8.5035 0.350199 8.04111 0.498925 7.6475 0.748223C6.79505 1.28809 6.26476 2.30888 6.51144 3.80876L7.43488 9.42313C7.44754 9.501 7.39469 9.57443 7.31685 9.58709C7.23897 9.59971 7.16554 9.54686 7.15288 9.46902L6.22944 3.85466C5.9611 2.22316 6.55077 1.10473 7.4953 0.506485C7.92674 0.233235 8.43229 0.0703107 8.96334 0.0182847C9.49155 -0.033418 10.0449 0.0244877 10.5752 0.192504C11.9736 0.635562 13.2184 1.84122 13.4323 3.81656L13.9844 8.91737V8.91739Z" fill="#212121"/>
<path d="M4.73572 7.73035L3.80627 31.6539L6.15239 33.9999" stroke="#212121" stroke-width="1.00039"/>
<path fill-rule="evenodd" clip-rule="evenodd" d="M6.15237 34L17.5722 7.10255L17.2911 6.41821L2.63313 7.01925L0.597534 32.6406L6.15237 34Z" fill="#F57F17"/>
<path fill-rule="evenodd" clip-rule="evenodd" d="M19.493 7.01929L5.34033 7.6329L6.15245 34L21.4025 31.654L19.493 7.01929Z" fill="#FBC02D"/>
<path d="M9.10117 10.3867C9.38081 10.3867 9.60749 10.16 9.60749 9.88035C9.60749 9.60071 9.38081 9.37402 9.10117 9.37402C8.82154 9.37402 8.59485 9.60071 8.59485 9.88035C8.59485 10.16 8.82154 10.3867 9.10117 10.3867Z" fill="#F57F17"/>
<path d="M15.6494 9.91413C15.929 9.91413 16.1557 9.68745 16.1557 9.40781C16.1557 9.12818 15.929 8.90149 15.6494 8.90149C15.3698 8.90149 15.1431 9.12818 15.1431 9.40781C15.1431 9.68745 15.3698 9.91413 15.6494 9.91413Z" fill="#F57F17"/>
<path d="M15.7915 9.35176C15.7999 9.43021 15.743 9.50066 15.6645 9.50898C15.5861 9.5173 15.5156 9.46047 15.5073 9.38198L14.9552 4.28117C14.7555 2.43662 13.5972 1.31207 12.2962 0.899907C11.8015 0.74315 11.2869 0.688937 10.7974 0.736875C10.3106 0.784526 9.84824 0.933252 9.45463 1.18255C8.60222 1.72242 8.07189 2.74321 8.31857 4.24309L9.24204 9.85748C9.2547 9.93532 9.20185 10.0088 9.12397 10.0214C9.0461 10.0341 8.9727 9.98122 8.96005 9.90338L8.03657 4.28899C7.76823 2.65748 8.35793 1.53906 9.30242 0.940811C9.73387 0.667561 10.2394 0.504637 10.7705 0.452611C11.2987 0.400908 11.8521 0.458814 12.3824 0.62683C13.7808 1.06989 15.0256 2.27554 15.2394 4.25089L15.7915 9.35173L15.7915 9.35176Z" fill="#212121"/>
</svg>
