<svg width="24" height="34" viewBox="0 0 24 34" fill="none" xmlns="http://www.w3.org/2000/svg">
<g clip-path="url(#clip0_1_10329)">
<path d="M21.4821 6.6615C18.5817 2.24249 11.6335 -0.230838 6.08767 2.57227C5.25899 3.00098 4.87652 3.95733 5.16337 4.84773L5.83269 6.76043L20.9084 24.0737C24.0956 19.8526 25.498 12.8283 21.4821 6.6615Z" fill="#FFB743"/>
<path d="M20.5578 25.2939H8.00002C5.22711 22.161 9.49802 20.3142 10.0399 15.4995C10.0717 15.1697 10.1036 14.807 10.1036 14.4442C8.44623 14.774 6.47013 14.9719 5.48209 17.0824C5.38647 17.2803 5.22711 17.4122 5.03587 17.4452C4.0797 17.676 1.21117 18.0388 1.58772e-05 14.0815C-0.0956016 13.8176 0.0318884 13.4879 0.254996 13.323C1.37053 12.5315 4.55778 10.0252 5.48209 6.69446C5.83268 5.50726 6.59762 4.48495 7.68129 3.92433C8.57372 3.46264 9.4024 2.60522 9.21117 1.05527C9.11555 0.296784 9.91236 -0.263837 10.5498 0.0989174C12.4622 1.18718 14.8526 2.44033 17.6574 6.95828C19.3466 9.66245 18.5179 15.1038 19.3785 17.0824C20.749 20.3802 22.6614 22.9195 20.5578 25.2939Z" fill="#5593D8"/>
<path d="M6.91634 10.5199C6.75698 10.5199 6.59761 10.4869 6.47012 10.4539C6.21514 10.388 6.05578 10.0912 6.11952 9.82737C6.18327 9.56355 6.47012 9.39866 6.7251 9.46462C6.91634 9.53057 7.13945 9.4976 7.29881 9.39866C7.45817 9.29973 7.55379 9.2008 7.58566 9.06889C7.64941 8.80507 7.93626 8.64018 8.19124 8.70613C8.44622 8.77209 8.60558 9.06889 8.54184 9.33271C8.44622 9.72844 8.19124 10.0912 7.80877 10.2891C7.52192 10.4539 7.20319 10.5199 6.91634 10.5199Z" fill="#2673C6"/>
<path d="M20.6534 25.129H7.90443C7.3626 25.129 6.91638 25.5907 6.91638 26.1513C6.91638 26.712 7.3626 27.1736 7.90443 27.1736H20.6534C21.1953 27.1736 21.6415 26.712 21.6415 26.1513C21.6096 25.5577 21.1953 25.129 20.6534 25.129Z" fill="#FFEBDC"/>
<path d="M23.8407 29.9437C23.8407 30.1416 23.8088 30.3395 23.7451 30.5373C23.7132 30.6033 23.6813 30.7022 23.6494 30.7682C23.522 31.065 23.3307 31.3288 23.0757 31.5596C22.9482 31.6586 22.8208 31.7905 22.6614 31.8564C22.2789 32.0873 21.8008 32.2192 21.3228 32.2192H7.20323C6.69327 32.2192 6.24706 32.0873 5.86459 31.8564C5.41837 31.5926 5.06777 31.1969 4.87654 30.7682C4.84467 30.7022 4.81279 30.6033 4.78092 30.5373C4.71718 30.3395 4.6853 30.1416 4.6853 29.9437C4.6853 29.1193 5.0359 28.3938 5.64148 27.8661C6.21518 27.3385 7.04387 27.0087 7.90443 27.0087H20.5897C22.4064 26.9757 23.8407 28.2949 23.8407 29.9437Z" fill="#5593D8"/>
<path d="M12.6533 14.4442C12.0159 15.0378 10.8366 15.3346 10.0398 15.4995C10.0717 15.1697 10.1035 14.807 10.1035 14.4442C10.9641 14.2793 11.5697 14.0814 11.984 13.7187C12.1753 13.5208 12.494 13.5538 12.6852 13.7517C12.8764 13.9495 12.8446 14.2793 12.6533 14.4442Z" fill="#2673C6"/>
<path d="M22.9482 34H5.57767C5.00397 34 4.52588 33.5054 4.52588 32.9118V32.8788C4.52588 32.2852 5.00397 31.7905 5.57767 31.7905H22.9482C23.5219 31.7905 24 32.2852 24 32.8788V32.9118C24 33.5383 23.5219 34 22.9482 34Z" fill="#65A3E0"/>
</g>
<defs>
<clipPath id="clip0_1_10329">
<rect width="24" height="34" fill="white"/>
</clipPath>
</defs>
</svg>
