<svg width="44" height="30" viewBox="0 0 44 30" fill="none" xmlns="http://www.w3.org/2000/svg">
<path d="M7.29063 28.6444C11.3171 28.6444 14.5813 28.2266 14.5813 27.7112C14.5813 27.1958 11.3171 26.778 7.29063 26.778C3.26413 26.778 0 27.1958 0 27.7112C0 28.2266 3.26413 28.6444 7.29063 28.6444Z" fill="#F2C2A7"/>
<path d="M16.156 26.3113C20.1825 26.3113 23.4466 25.8935 23.4466 25.3781C23.4466 24.8627 20.1825 24.4449 16.156 24.4449C12.1295 24.4449 8.86536 24.8627 8.86536 25.3781C8.86536 25.8935 12.1295 26.3113 16.156 26.3113Z" fill="#F2C2A7"/>
<path d="M28.101 5.61748C28.3226 5.52416 28.8359 5.37252 29.3725 5.55916C29.3725 5.55916 28.8242 5.26753 28.206 5.39585C28.6609 4.25268 27.7977 3.48279 27.7977 3.48279C26.4446 3.73942 25.7797 5.79246 25.7797 5.79246C25.7797 5.79246 25.6747 8.25377 26.7479 8.75537C27.821 9.25697 29.1625 9.23364 29.6524 7.32057C30.1307 5.40751 28.101 5.61748 28.101 5.61748Z" fill="#BD4E6E"/>
<path d="M14.7445 11.8701C14.7445 11.8701 15.1761 11.0769 15.2928 10.9602C15.3394 10.9135 15.4327 10.9019 15.5377 10.9135C15.701 10.9252 15.8527 10.8319 15.9343 10.6919L16.1093 10.377" stroke="#14505D" stroke-width="2" stroke-miterlimit="10"/>
<path d="M24.8581 8.84875C24.8581 8.84875 24.4031 10.0736 24.1932 12.08C23.9832 14.0747 23.3533 15.3345 22.7 15.2995C22.0468 15.2645 19.4922 14.5996 17.3808 13.4214C17.3808 13.4214 16.9725 13.9347 16.8909 14.9146C16.8909 14.9146 20.9736 18.0175 23.1433 17.9008C25.3247 17.7842 26.8411 12.9782 26.8411 12.9782C26.8411 12.9782 27.5177 9.02373 24.8581 8.84875Z" fill="#EBB28E"/>
<path d="M24.8581 8.84875C24.8581 8.84875 24.4031 10.0736 24.1932 12.08C23.9832 14.0747 23.3533 15.3345 22.7 15.2995C22.0468 15.2645 19.4922 14.5996 17.3808 13.4214C17.3808 13.4214 16.9725 13.9347 16.8909 14.9146C16.8909 14.9146 20.9736 18.0175 23.1433 17.9008C25.3247 17.7842 26.8411 12.9782 26.8411 12.9782C26.8411 12.9782 27.5177 9.02373 24.8581 8.84875Z" fill="#EBB28E"/>
<path d="M25.9662 12.9316L24.1582 13.3749C24.2515 13.5148 25.103 14.7513 25.243 15.0313C25.383 15.3112 24.998 17.306 23.05 17.5159C21.3352 17.7026 17.7774 15.0546 16.9609 14.4364C16.9259 14.5763 16.9025 14.7397 16.8909 14.903C16.8909 14.903 20.9736 18.0059 23.1433 17.8892C24.8347 17.7959 26.1179 14.903 26.6195 13.5965L25.9662 12.9316Z" fill="#EA7F66"/>
<path d="M25.2314 8.60376C25.2314 8.60376 24.5548 8.73207 24.2049 10.3185C23.8549 11.905 23.6799 13.1531 23.6799 13.1531C23.6799 13.1531 25.558 14.7979 26.3512 15.1128C26.7245 14.9729 27.4127 10.6451 27.4127 10.6451L25.2314 8.60376Z" fill="#F8FEFA"/>
<path d="M27.2378 10.4818L26.5729 10.4235C26.5729 10.4235 26.4796 12.7799 24.9865 14.2146C25.488 14.5996 26.0246 14.9729 26.3629 15.1129C26.7362 14.9729 27.4244 10.6452 27.4244 10.6452L27.2378 10.4818Z" fill="#B3CCDF"/>
<path d="M25.9314 18.1342C25.9314 18.1342 23.3418 22.4852 23.6218 26.0547C23.7734 27.2095 23.925 27.5828 24.4266 27.6645C24.9399 27.7461 29.3493 27.7928 29.3493 27.7928C29.3493 27.7928 30.1892 20.7238 30.0958 20.5955C30.0025 20.4672 25.9314 18.1342 25.9314 18.1342Z" fill="#146B7D"/>
<path d="M26.4446 24.8534C26.4446 24.8534 27.3661 27.4547 24.1932 27.583C24.2632 27.618 24.3449 27.6413 24.4382 27.6647C24.9281 27.7463 29.0459 27.7813 29.3375 27.793L26.4446 24.8534Z" fill="#14505D"/>
<path d="M36.6282 28.4463L40.2794 28.3296C40.2794 28.3296 40.1277 27.0115 39.7661 26.6265C39.3462 26.5332 35.7883 26.2299 35.7883 26.2299L36.6282 28.4463Z" fill="#EBB28E"/>
<path d="M38.0046 26.428C37.8296 26.4163 37.6547 26.393 37.4797 26.3813C37.3514 26.8596 37.1531 27.6645 36.9664 28.4344L38.5062 28.3877C38.4596 27.4312 38.2263 26.813 38.0046 26.428Z" fill="#EA7F66"/>
<path d="M24.7532 7.15746C24.7532 7.15746 25.5231 7.8457 25.4297 8.30063C25.3014 8.72057 24.7415 9.00053 25.1614 9.52546C25.5814 10.0387 27.3895 9.32715 27.9261 8.37062C28.4743 7.42576 28.4976 7.1458 28.2177 7.04081C27.9377 6.93583 27.5411 7.08747 27.5411 7.08747C27.5411 7.08747 27.0628 6.9125 26.9112 5.73433C26.6429 5.57102 24.7532 7.15746 24.7532 7.15746Z" fill="#EBB28E"/>
<path d="M25.1498 8.68561C25.1498 8.68561 25.0915 9.66547 26.1297 9.12888C27.1679 8.59229 27.5878 7.04084 27.5878 7.04084C27.5878 7.04084 29.3609 6.35261 31.4722 8.18401C33.5836 10.2021 33.8052 16.7345 33.8052 16.7345C33.8052 16.7345 30.574 18.3092 26.2347 16.6411C26.2347 16.6411 26.258 14.4131 24.9748 12.3368C23.7034 10.272 25.1498 8.68561 25.1498 8.68561Z" fill="#E6F4EB"/>
<path d="M27.6812 9.7002C27.6812 9.7002 27.3545 11.38 28.2994 11.5666C29.2443 11.7649 29.5359 10.6451 29.5359 10.6451L29.011 12.7798L27.7511 12.6164L27.6812 9.7002Z" fill="#93BDCE"/>
<path d="M24.7532 9.46722C24.7532 9.46722 24.9632 11.6719 25.6281 12.1502C26.048 12.2552 27.2728 12.2202 27.4595 11.9169C26.9112 12.7334 25.3598 12.8501 25.3598 12.7801C25.3598 12.7101 24.4616 11.5436 24.7532 9.46722Z" fill="#93BDCE"/>
<path d="M33.8053 16.7343C33.8053 16.7343 33.782 16.151 33.7003 15.2878C32.3588 15.5561 31.1573 14.6579 31.6239 13.2348C32.2888 10.4468 31.1573 9.19867 31.1573 9.19867C31.1573 9.19867 30.0725 11.0884 30.0725 11.2984C30.0725 11.5083 28.7427 16.291 28.7427 16.291C28.7427 16.291 31.6006 16.5593 33.7586 16.7459C33.7936 16.7459 33.8053 16.7343 33.8053 16.7343Z" fill="#93BDCE"/>
<path d="M28.3111 6.95895C28.1595 7.46054 27.0046 11.485 29.0927 14.1446C31.0174 16.0227 33.8403 15.4744 33.8403 15.4744C33.8403 15.4744 34.3186 16.6759 34.0153 18.6706C33.712 20.6653 32.2422 25.518 32.2422 25.518C32.2422 25.518 35.8234 25.7979 36.2433 26.2062C36.2433 26.2062 36.4533 28.1543 36.325 28.5275C36.325 28.5275 30.0259 29.1691 27.3079 27.8043C26.2814 27.2094 26.8413 24.4215 26.8413 24.4215L27.5412 21.2602C27.5412 21.2602 26.1414 20.537 25.4298 19.7555L26.0364 16.6409C26.0364 16.6409 25.7681 14.1329 24.9166 12.5698C24.065 11.0067 24.6016 9.39694 24.8349 8.83702C24.9049 8.67371 25.2199 8.59205 25.2199 8.59205C25.2199 8.59205 24.38 9.93353 25.2899 12.1499C25.6281 12.7448 27.4246 11.7999 27.4246 11.7999C27.4246 11.7999 26.9696 9.75855 27.9145 7.00561C27.9145 7.00561 28.0311 6.79564 28.2761 6.88896C28.3111 6.90062 28.3228 6.92395 28.3111 6.95895Z" fill="#146B7D"/>
<path d="M31.6006 16.4661C31.6006 16.4661 31.6239 18.1342 33.502 18.6008C33.257 18.4025 32.1022 17.7142 31.6006 16.4661Z" fill="#14505D"/>
<path d="M32.2888 25.3898C32.3238 25.2732 32.3822 25.0748 32.4638 24.8182C31.9039 24.2816 30.4691 23.5817 30.4691 23.5817C30.4691 23.5817 30.0725 24.3633 30.2241 24.8765C30.3291 25.3315 31.5889 25.5764 32.2888 25.3898Z" fill="#14505D"/>
<path d="M30.8306 21.9136C30.8306 21.9136 30.0607 24.2583 30.1657 24.6316C30.3407 25.0165 32.2304 25.3665 32.4637 25.0515C32.7087 24.7366 33.0586 22.9518 33.0586 22.9518L30.8306 21.9136Z" fill="#146178"/>
<path d="M30.7606 21.3655C30.7606 21.3655 33.1403 22.0771 33.3736 22.3104C33.5602 22.5904 33.0586 23.4302 33.0586 23.4302C33.0586 23.4302 30.5856 22.7187 30.4923 22.532C30.399 22.3454 30.7606 21.3655 30.7606 21.3655Z" fill="#14505D"/>
<path d="M32.5104 22.7304C32.5104 22.8471 32.4171 22.9521 32.2888 22.9521C32.1721 22.9521 32.0671 22.8587 32.0671 22.7304C32.0671 22.6138 32.1605 22.5088 32.2888 22.5088C32.4171 22.5088 32.5104 22.6021 32.5104 22.7304Z" fill="#98B1AE"/>
<path d="M32.7087 18.2042C32.7087 18.2042 32.3004 20.7355 32.0321 21.4121C32.3471 20.8288 32.9886 18.2859 32.9886 18.2859L32.7087 18.2042Z" fill="#14505D"/>
<path d="M27.6228 19.7792C27.6228 19.7792 25.7214 23.1504 26.8295 27.0699C26.8412 27.0815 26.2813 23.2787 27.6228 19.7792Z" fill="#14505D"/>
<path d="M38.8212 26.2649C38.8212 26.2649 39.2528 27.618 39.2994 28.6912L41.8074 28.5162C41.8074 28.5162 43.1372 29.3678 43.9421 29.4961C44.397 29.2861 41.994 26.6965 41.994 26.6965L41.7141 26.7665L41.8191 26.5565L41.6091 26.1016L40.8509 26.3232L38.8212 26.2649Z" fill="#FDBF3A"/>
<path d="M39.2061 27.8511C39.2527 28.131 39.2877 28.4227 39.2994 28.7026L41.8073 28.5277C41.8073 28.5277 43.1372 29.3792 43.942 29.5075C44.0004 29.4842 44.012 29.4142 43.9887 29.3209C43.4754 28.8426 42.5306 28.1077 41.8773 27.8628C41.1658 27.5828 39.8126 27.7578 39.2061 27.8511Z" fill="#E9923A"/>
<path d="M35.0184 28.2246C34.2135 28.5045 29.6175 28.1779 27.2961 27.8046C27.2961 27.8046 27.2961 27.8046 27.3078 27.8163C30.0141 29.1694 36.3249 28.5395 36.3249 28.5395C36.4648 28.1663 36.2432 26.2182 36.2432 26.2182C36.2432 26.2182 35.8583 27.933 35.0184 28.2246Z" fill="#14505D"/>
<path d="M35.9517 25.88C35.9517 25.88 36.01 28.4813 36.185 28.6796C36.3599 28.8779 37.8531 28.7146 37.8531 28.7146C37.8531 28.7146 38.063 26.8482 37.5848 25.9383C37.5381 25.845 37.4214 25.7867 37.3165 25.81C36.9199 25.8567 35.9517 25.88 35.9517 25.88Z" fill="#98B1AE"/>
<path d="M27.0162 6.20106C26.9812 6.06108 26.9462 5.90943 26.9229 5.73446C26.6429 5.55948 24.7532 7.15759 24.7532 7.15759C24.7532 7.15759 25.0798 7.43755 25.2781 7.76417C26.3746 7.23924 26.8295 6.63266 27.0162 6.20106Z" fill="#EA7F66"/>
<path d="M22.2452 4.10127C22.2452 4.10127 22.2452 6.08432 23.2368 7.63577C23.7617 8.07904 24.9282 7.64743 25.8964 7.11084C26.8646 6.57425 26.8879 5.94434 26.8879 5.94434C26.8879 5.94434 27.6345 5.82769 27.6461 4.75451C27.6695 3.66967 26.6429 4.03128 26.4446 4.66119C26.2463 5.2911 26.3513 5.11613 26.3513 5.11613C26.3513 5.11613 26.0947 3.76299 25.5581 3.28472C25.0332 2.80645 23.2834 2.7248 22.8052 3.00476C22.3386 3.29639 22.2336 3.64634 22.2452 4.10127Z" fill="#EBB28E"/>
<path d="M22.0002 3.54141C22.0002 3.54141 22.8635 5.40781 25.8147 4.81289C26.1297 4.7779 26.1647 5.36115 26.2813 5.53612C26.3863 5.7111 26.3746 4.9762 26.4096 4.66125C26.4446 4.34629 26.7829 3.75138 27.3078 4.043C27.6928 4.25297 27.6578 4.35796 27.6578 4.35796C27.6578 4.35796 27.9261 3.93802 27.6811 3.27311C27.4245 2.63153 24.3566 2.32824 22.0002 3.54141Z" fill="#BD4E6E"/>
<path d="M26.6545 5.3612C26.6545 5.3612 26.6779 4.52132 27.2728 4.49799C27.4244 4.49799 27.0978 4.59131 27.0162 4.76628C27.0162 4.76628 27.3428 4.60297 27.3778 4.90626C27.4128 5.19789 27.0745 5.46618 26.9345 5.3612C26.7945 5.25621 26.8295 5.15123 26.8295 5.15123C26.8295 5.15123 26.7945 5.40786 26.8528 5.54784C26.8995 5.68782 26.6779 5.54784 26.6545 5.3612Z" fill="#EA7F66"/>
<path d="M27.2028 5.7576C27.2028 5.83926 27.1328 5.90925 27.0512 5.90925C26.9695 5.90925 26.8995 5.83926 26.8995 5.7576C26.8995 5.67595 26.9695 5.60596 27.0512 5.60596C27.1328 5.60596 27.2028 5.67595 27.2028 5.7576Z" fill="#F8FEFA"/>
<path d="M18.2674 13.5148C18.2674 13.5148 17.6259 15.4046 17.3576 15.6495C17.0776 15.6495 15.4562 14.1798 15.4562 14.1798L15.0712 13.8415C15.0712 13.8415 14.3363 13.6082 13.9514 13.3982C13.5664 13.1999 13.3098 12.675 13.3798 12.535C13.4498 12.395 13.6598 12.255 13.6598 12.255C13.6598 12.255 13.5548 11.8001 13.7181 11.6251C13.8931 11.4501 14.1613 11.2052 14.1613 11.2052C14.1613 11.2052 14.2313 10.8552 14.4296 10.8552C14.6396 10.8552 14.7796 10.8552 14.9196 10.9135C15.0596 10.9835 15.1995 11.3568 15.1995 11.3568C15.1995 11.3568 15.5845 11.5551 15.7595 11.5201C15.9344 11.4851 16.0744 11.5901 16.2144 11.6834C16.3544 11.7884 16.401 12.6166 16.401 12.6166L18.2674 13.5148Z" fill="#FDBF3A"/>
<path d="M15.2112 11.3566C15.2112 11.3566 15.0712 10.9717 14.9312 10.9133C14.9546 10.9367 14.9779 10.9717 14.9896 10.995C15.0129 11.1 14.8729 11.2866 14.8029 11.3333C14.7329 11.3683 14.6629 11.4616 14.6863 11.5316C14.7096 11.6016 14.7096 11.7182 14.5696 11.8232C14.4296 11.9282 14.2897 12.1032 14.3013 12.1965C14.3013 12.2781 14.3946 12.3831 14.3247 12.4531C14.2547 12.5231 14.208 12.6514 14.173 12.7331C14.138 12.8147 14.138 12.943 14.208 12.9547C14.278 12.9664 14.8612 13.433 14.8846 13.2113C14.9196 12.9897 14.9312 12.6398 14.9779 12.4648C15.0246 12.3248 15.5378 11.8115 15.7361 11.5316C15.5378 11.5316 15.2112 11.3566 15.2112 11.3566Z" fill="#FD9F3A"/>
<path d="M17.3574 15.0196C16.9375 14.8913 15.4677 13.7714 15.4211 13.7014C15.3861 13.6315 15.3161 13.4915 15.3977 13.3398C15.4794 13.1765 15.911 12.9199 16.016 12.7099C16.121 12.4999 16.0626 12.045 15.9926 12.01C15.946 11.9984 15.6427 12.2433 15.5844 12.29C15.5144 12.3483 15.6077 12.6749 15.456 12.8149C15.3044 12.9549 15.1061 12.8849 15.1061 12.8849C15.1061 12.8849 15.0361 12.7799 15.0361 12.6049C15.0361 12.43 15.4794 11.8 15.4794 11.8C15.4794 11.8 14.9195 12.2666 14.9311 12.6283C14.9311 12.6283 14.8728 13.1649 14.8728 13.2348C14.8728 13.1882 14.5228 13.0482 14.5228 13.0482C14.5228 13.0482 14.4179 12.8966 14.1496 12.8266C13.8929 12.7566 13.7296 12.8266 13.7296 12.8266L13.9396 13.0832L13.788 13.1765L13.7063 13.1998C13.7763 13.2698 13.8579 13.3398 13.9513 13.3865C14.3362 13.5848 15.0711 13.8298 15.0711 13.8298L15.456 14.168C15.456 14.168 17.0775 15.6495 17.3574 15.6378C17.4391 15.5678 17.5558 15.3462 17.6724 15.0779C17.5674 15.0779 17.4624 15.0546 17.3574 15.0196Z" fill="#E9923A"/>
<path d="M13.9163 12.8848C13.9163 12.8848 14.3829 12.9431 14.5462 13.2464C14.5462 13.2464 13.7647 15.4861 13.4147 15.5327C13.0648 15.5794 12.7148 15.5211 12.7382 15.0778C12.7615 14.6345 13.9163 12.8848 13.9163 12.8848Z" fill="#894141"/>
<path d="M13.4147 15.5328C13.7646 15.4861 14.5462 13.2464 14.5462 13.2464C14.3829 12.9432 13.9163 12.8848 13.9163 12.8848C13.9163 12.8848 13.9046 12.9082 13.8813 12.9432C14.0096 13.0365 14.1846 13.1998 14.2196 13.3981C14.2196 13.6197 13.8463 15.4511 13.1814 15.5561C13.2631 15.5444 13.3447 15.5444 13.4147 15.5328Z" fill="#623230"/>
<path d="M15.5961 10.5753L16.3543 10.8086C16.4127 10.832 16.471 10.797 16.506 10.7503C16.7393 10.3304 17.6958 8.54562 17.6258 7.78739C17.4392 7.09916 15.8877 9.73545 15.5145 10.3887C15.4795 10.4587 15.5261 10.5403 15.5961 10.5753Z" fill="#146B7D"/>
<path opacity="0.31" d="M22.2335 4.25262C22.2335 4.25262 24.4732 5.54744 28.3343 4.4276C28.3343 4.4276 28.0894 3.85601 28.0194 3.78602C27.961 3.71603 22.2335 4.25262 22.2335 4.25262Z" fill="#727F66"/>
<path d="M22.0468 3.41276C21.8951 3.35443 19.9004 3.37776 19.0839 3.91435C18.6173 4.5326 20.822 4.066 22.4317 4.2643C24.0415 4.46261 25.4296 4.9642 27.506 4.11266C29.5824 3.26111 30.0956 3.12113 30.5273 3.02781C30.9589 2.93449 28.6375 2.65453 27.5643 2.75951C27.5643 2.75951 26.9928 1.07975 26.4212 0.601488C25.6396 0.391518 23.0033 0.426513 22.6417 1.2314C22.2684 2.05961 22.0468 3.41276 22.0468 3.41276Z" fill="#FDBF3A"/>
<path d="M27.4944 4.11268C29.5707 3.26113 30.084 3.12115 30.5156 3.02783C30.8539 2.95784 29.4657 2.75954 28.3342 2.73621C28.5792 2.93451 28.7892 3.22614 28.3226 3.42444C27.541 3.76273 25.4063 4.29932 24.0182 3.98436C22.6184 3.68107 21.9301 3.77439 20.402 4.03102C19.7021 4.14767 19.2822 4.11268 19.0256 4.04269C19.0139 4.4393 20.9736 4.06602 22.4317 4.25266C24.0299 4.46263 25.418 4.96422 27.4944 4.11268Z" fill="#FF9D3A"/>
<path d="M22.0468 3.41295C22.0468 3.41295 25.1846 3.86788 27.5526 2.75971C27.5643 2.5614 27.2843 2.07147 27.2843 2.07147C27.2843 2.07147 23.8432 2.64306 22.2101 2.40976C21.9651 2.84136 22.0468 3.41295 22.0468 3.41295Z" fill="#146B7D"/>
<path d="M20.1572 18.9391L15.3979 19.0324L10.6269 18.9391C10.6269 18.9391 10.1603 23.5351 13.3215 25.2032C13.3215 25.2032 14.0914 25.4832 15.3979 25.4715C16.6927 25.4832 17.4743 25.2032 17.4743 25.2032C20.6121 23.5351 20.1572 18.9391 20.1572 18.9391Z" fill="#E77C51"/>
<path d="M16.3661 25.4248C17.066 25.3431 17.4626 25.2031 17.4626 25.2031C20.6238 23.535 20.1572 18.939 20.1572 18.939L18.6758 18.9624C18.7924 20.0355 18.9441 23.4884 16.3661 25.4248Z" fill="#CE5C51"/>
<path d="M15.3863 19.3823C18.0148 19.3823 20.1456 19.1839 20.1456 18.9391C20.1456 18.6942 18.0148 18.4958 15.3863 18.4958C12.7578 18.4958 10.627 18.6942 10.627 18.9391C10.627 19.1839 12.7578 19.3823 15.3863 19.3823Z" fill="#E77C51"/>
<path d="M19.8307 19.0556C19.8307 19.2539 17.8593 19.4172 15.433 19.4172C13.0067 19.4172 11.0353 19.2539 11.0353 19.0556C11.0353 18.8573 13.0067 18.694 15.433 18.694C17.8593 18.694 19.8307 18.8573 19.8307 19.0556Z" fill="#894141"/>
<path d="M15.5145 17.6793C15.5145 17.5744 15.3395 16.3612 15.9694 15.5213C16.5994 14.6814 16.8093 13.8882 17.5675 13.5383C17.6375 13.6083 17.2526 13.9232 17.2876 14.3432C17.3226 14.7631 17.2876 14.7281 16.9376 15.148C16.5877 15.568 16.9726 15.9529 16.6927 16.4662C16.4127 16.9911 16.0978 17.5744 15.9928 17.7493C15.8878 17.9243 15.6078 18.3443 15.6078 18.3443L15.5145 17.6793Z" fill="#549F50"/>
<path d="M15.4795 19.2423C15.4795 19.2423 16.0744 17.4109 15.1762 14.553C14.2664 11.6951 12.0383 9.32708 10.1603 8.2189C8.2822 7.11072 8.2822 7.09906 8.2822 7.09906C8.2822 7.09906 8.0489 7.9856 8.70214 8.44054C9.35538 8.90714 9.76366 8.39388 9.99696 9.78201C10.2303 11.1701 10.0903 12.7099 11.6184 13.5381C13.1465 14.378 12.0383 15.0196 13.1932 15.5795C14.348 16.1394 14.8613 16.2328 15.0946 17.061C15.3279 17.9009 15.0479 19.2423 15.0479 19.2423C15.0479 19.2423 15.3395 19.3357 15.4795 19.2423Z" fill="#6FB350"/>
<path d="M15.1063 17.0727C15.3396 17.9126 15.0596 19.2541 15.0596 19.2541C15.0596 19.2541 15.3513 19.324 15.4796 19.2307C15.4796 19.2307 15.7245 18.4608 15.6662 17.1544C15.3979 16.8744 15.3163 16.3961 15.2463 15.9762C15.1413 15.3113 14.0331 15.7312 13.5082 14.9613C12.9833 14.1914 13.6132 13.3632 11.8401 12.7333C10.067 12.1034 10.8252 11.3102 10.6969 10.0154C10.5569 8.73222 10.347 8.69723 9.27379 8.45226C8.71387 8.32395 8.44558 8.09065 8.31726 7.88068C8.37559 8.07898 8.49224 8.28895 8.71387 8.4406C9.36711 8.9072 9.77539 8.39394 10.0087 9.78207C10.242 11.1702 10.102 12.71 11.6301 13.5382C13.1582 14.3781 12.0501 15.0197 13.2049 15.5796C14.3597 16.1512 14.873 16.2445 15.1063 17.0727Z" fill="#457F3F"/>
<path d="M15.4445 18.2393C15.4445 18.2393 16.5994 14.9031 19.2707 15.3347C19.3407 15.4047 18.8741 15.3813 18.7574 15.6146C18.6408 15.8479 18.3608 15.8479 18.0342 15.9179C17.7076 15.9879 17.9875 16.5012 17.5909 16.8745C17.1943 17.2477 16.8677 16.8278 16.5411 17.2244C16.2144 17.621 16.891 17.971 16.3777 18.2509C15.8645 18.5309 15.4679 18.8458 15.6312 19.1841C15.6778 19.2775 15.4095 19.2075 15.4095 19.2075L15.4445 18.2393Z" fill="#457F3F"/>
<path d="M12.3299 24.8652L6.87068 24.9702L1.39979 24.8652C1.39979 24.8652 0.8632 25.7168 4.49102 27.6415C4.49102 27.6415 5.37756 27.9565 6.87068 27.9448C8.3638 27.9565 9.25034 27.6415 9.25034 27.6415C12.8548 25.7284 12.3299 24.8652 12.3299 24.8652Z" fill="#E77C51"/>
<path d="M7.97888 27.898C8.78377 27.8164 9.2387 27.653 9.2387 27.653C12.8549 25.74 12.3299 24.8768 12.3299 24.8768L10.6268 24.9118C10.7668 26.1133 10.9418 25.67 7.97888 27.898Z" fill="#CE5C51"/>
<path d="M12.3182 24.8652C12.3182 25.1452 9.86857 25.3784 6.859 25.3784C3.83777 25.3784 1.39978 25.1452 1.39978 24.8652C1.39978 24.5852 3.84943 24.3519 6.859 24.3519C9.88024 24.3636 12.3182 24.5852 12.3182 24.8652Z" fill="#E77C51"/>
<path d="M11.9566 24.9934C11.9566 25.2267 9.70527 25.4134 6.91733 25.4134C4.1294 25.4134 1.87805 25.2267 1.87805 24.9934C1.87805 24.7601 4.1294 24.5735 6.91733 24.5735C9.70527 24.5735 11.9566 24.7601 11.9566 24.9934Z" fill="#894141"/>
<path d="M6.85911 24.865C6.85911 24.865 6.57915 24.0835 6.90577 23.3836C7.22072 22.6953 7.75731 22.847 7.75731 21.6805C7.75731 20.514 7.27905 20.6189 7.594 19.8141C7.90896 19.0208 8.65552 18.8575 8.65552 17.9477C8.65552 17.0378 8.59719 16.9911 8.65552 16.3496C8.71384 15.708 7.69899 15.1247 7.01075 15.708C6.32252 16.2912 6.84744 16.8278 6.74246 17.7844C6.63747 18.7409 6.20587 18.0526 6.10088 19.3241C5.9959 20.6073 6.36918 20.4906 6.26419 21.1905C6.15921 21.8788 5.14435 21.2955 5.51763 22.5203C5.89091 23.7452 6.15921 23.9085 6.15921 24.1768C6.15921 24.4451 6.4275 24.865 6.4275 24.865H6.85911Z" fill="#6FB350"/>
<path d="M4.98101 24.9351C4.98101 24.9351 5.03933 24.5035 4.71271 23.9202C4.39776 23.337 3.80284 23.8153 3.75618 23.0104C3.69786 22.2171 4.23445 22.3688 3.91949 21.7855C3.60454 21.2023 3.00962 21.7855 2.85798 20.4557C2.69467 19.1259 2.9163 18.6943 2.37971 18.0644C1.84312 17.4228 0.991577 17.3178 0.991577 16.5246C0.991577 15.7314 1.52817 15.2998 2.69467 15.6731C3.86117 16.0464 4.82936 16.3147 5.14432 17.6445C5.45927 18.9743 4.50274 19.5575 5.20264 20.3624C5.89088 21.1556 6.42747 21.109 6.11251 22.0188C5.79756 22.9287 5.68091 22.8704 5.57592 23.407C5.47094 23.9436 5.5176 24.2585 5.57592 24.4218C5.63425 24.5851 5.73923 24.9584 5.73923 24.9584H4.98101V24.9351Z" fill="#457F51"/>
<path d="M5.72757 24.9349C5.72757 24.9349 5.52927 23.9317 6.08919 23.2551C6.64911 22.5785 7.32568 22.9401 7.80395 22.1353C8.28221 21.342 8.04891 20.8171 9.04044 20.3039C10.0436 19.7789 10.1953 19.8256 10.5569 19.184C10.9185 18.5424 11.5134 17.9475 12.3883 18.3441C13.2632 18.7407 13.1815 19.0674 13.1815 19.0674C13.1815 19.0674 12.6216 18.7524 12.225 19.2307C11.8284 19.7089 12.3883 19.9072 11.7001 20.5138C11.0235 21.1087 10.3819 20.5955 9.9853 21.4704C9.58869 22.3452 10.1836 22.0303 9.62369 22.9518C9.06377 23.8733 8.5855 24.1067 7.71063 24.0717C6.83575 24.0367 6.31082 24.3166 6.19417 24.5499C6.07752 24.7949 6.19417 24.9115 6.19417 24.9115L5.72757 24.9349Z" fill="#457F51"/>
<path d="M7.43066 24.8885C7.43066 24.8885 7.1857 24.3052 7.86227 23.8503C8.52717 23.3953 8.69048 23.8269 9.14542 23.3487C9.60035 22.8704 9.2504 22.3338 10.0786 22.2055C10.9068 22.0772 10.5802 21.8089 11.0585 21.5639C11.5367 21.319 12.1783 21.5639 12.2833 21.8089C12.225 22.0539 11.5367 21.7272 11.4318 22.4155C11.3268 23.1037 11.7234 23.3953 11.1401 23.6636C10.5569 23.9319 9.91531 23.5586 9.70534 24.0136C9.49537 24.4685 9.60035 24.8651 9.41371 24.8885C9.21541 24.9118 7.67563 25.0168 7.43066 24.8885Z" fill="#549F50"/>
<path d="M1.63318 16.1279C1.63318 16.1279 3.52291 16.1279 4.08283 17.5394C4.64275 18.9509 3.73288 19.4291 4.2928 20.444C4.85272 21.4588 5.4943 21.2372 5.226 22.0421C4.95771 22.8353 4.39778 22.8936 4.7944 23.3252C5.19101 23.7568 5.226 23.9668 5.226 24.2351C5.226 24.5034 5.33099 24.9233 5.33099 24.9233" stroke="#6FB350" stroke-width="0.25" stroke-miterlimit="10"/>
<path d="M7.51231 16.0463C7.51231 16.0463 8.11889 17.5161 7.67562 18.2044C7.22069 18.8926 6.34581 18.636 6.6141 19.7208C6.8824 20.8173 7.5473 20.4674 7.06904 21.4822C6.59077 22.4971 6.13584 22.7654 6.24082 23.3136C6.34581 23.8735 6.6141 24.8301 6.6141 24.8301" stroke="#457F3F" stroke-width="0.25" stroke-miterlimit="10"/>
<path d="M13.0299 18.9158C13.0299 18.9158 12.2366 18.146 11.5951 18.8925C10.9535 19.6391 11.3501 19.8724 10.7668 20.199C10.1836 20.5139 9.33205 20.5489 9.08708 21.3655C8.84212 22.1937 8.90044 22.567 8.23554 22.9636C7.57063 23.3602 6.69576 22.9053 6.32248 23.6518C5.9492 24.3984 5.86754 24.69 5.89087 24.8767" stroke="#6FB350" stroke-width="0.25" stroke-miterlimit="10"/>
<path d="M12.1433 21.7739C12.1433 21.7739 11.3967 21.4239 11.0817 21.8788C10.7668 22.3338 11.2684 22.6021 10.7668 22.8937C10.2652 23.1853 9.85691 22.7071 9.67027 23.2903C9.48363 23.8736 9.61195 23.8736 8.90038 24.1185C8.17715 24.3635 8.36379 24.9934 8.36379 24.9934" stroke="#457F3F" stroke-width="0.25" stroke-miterlimit="10"/>
<path d="M29.1508 8.73229C29.1508 8.73229 28.3576 17.971 22.2335 20.0123C22.2335 20.0123 22.0935 20.8056 22.4668 21.5405C22.4668 21.5405 27.0161 21.3538 29.5708 16.6645C32.1254 11.9752 31.3788 9.3272 31.3788 9.3272C31.3788 9.3272 31.3788 8.394 30.2707 8.07905C29.1508 7.75243 29.1508 8.73229 29.1508 8.73229Z" fill="#EBB28E"/>
<path d="M29.3259 11.1469L28.3927 12.7683C28.3927 12.7683 29.5475 13.4682 29.9675 13.8298C30.3874 14.2497 28.9059 19.674 22.6768 21.482C22.6768 21.4937 22.6652 21.5054 22.6652 21.5054C23.5984 21.4004 27.3312 20.7238 29.5475 16.6527C30.609 14.693 31.099 13.0949 31.3089 11.8934C30.3991 11.5668 29.3259 11.1469 29.3259 11.1469Z" fill="#EA7F66"/>
<path d="M28.1477 12.8033C28.1477 12.8033 30.5157 13.4099 31.029 13.7365C31.029 13.7365 32.3004 10.8552 31.4489 8.69719C30.5624 7.40237 29.3375 7.67067 29.0576 8.41723C28.7776 9.16379 28.521 11.4968 28.1477 12.8033Z" fill="#F8FEFA"/>
<path d="M30.9473 8.14874C31.2272 8.83698 31.6355 10.6101 30.2823 13.4213C30.609 13.538 30.8889 13.643 31.0289 13.7363C31.0289 13.7363 32.3004 10.855 31.4488 8.697C31.2855 8.4637 31.1106 8.27706 30.9473 8.14874Z" fill="#B3CCDF"/>
<path d="M23.54 19.2887C23.54 19.2887 24.1466 20.1753 24.0883 21.3068C23.9833 21.6101 21.6853 21.715 21.6853 21.715C21.6853 21.715 20.7521 21.5284 20.2621 21.0968C19.7722 20.6652 18.839 21.0618 18.7807 20.8168C18.7224 20.5719 19.5506 20.4319 19.9355 20.5719C20.3205 20.7118 20.4954 20.7468 20.4954 20.7468C20.4954 20.7468 20.0522 20.3969 19.5856 20.3502C19.119 20.2919 18.7457 20.3852 18.7457 20.3852C18.7457 20.3852 18.5707 20.3619 18.594 20.1636C18.6174 19.9536 19.2823 19.9303 19.6789 19.977C20.0755 20.0236 20.5654 20.2802 20.5654 20.2802C20.5654 20.2802 19.9705 19.8486 19.3406 19.767C18.7107 19.6853 18.5824 19.7553 18.5824 19.7553C18.5824 19.7553 18.3374 19.6037 18.5824 19.4404C18.8273 19.2887 19.7372 19.3587 20.5304 19.732C20.5304 19.732 19.8189 19.1954 19.4223 19.1254C19.0257 19.0554 18.9673 19.0904 18.9673 19.0904C18.9673 19.0904 18.769 18.8804 19.1073 18.8105C19.4456 18.7405 19.8305 18.8105 20.2038 18.9854C20.5771 19.1604 21.522 19.767 21.522 19.767L23.54 19.2887Z" fill="#FDBF3A"/>
<path d="M20.2739 21.0971C20.7638 21.5287 21.697 21.7153 21.697 21.7153C21.697 21.7153 23.995 21.6103 24.1 21.307C24.1117 21.1321 24.1 20.9688 24.0767 20.8054C23.5751 21.0621 22.5252 21.5637 21.977 21.5637C21.2304 21.5637 20.6821 20.9338 20.0289 20.7005C19.5506 20.5255 19.0374 20.7238 18.8041 20.8404C18.9091 21.0387 19.7956 20.6771 20.2739 21.0971Z" fill="#E9923A"/>
</svg>
