<svg width="16" height="40" viewBox="0 0 16 40" fill="none" xmlns="http://www.w3.org/2000/svg">
<path d="M27.7819 16.1765L27.4213 15.9686L15.143 37.0808L15.5036 37.2887L27.7819 16.1765Z" fill="#008175"/>
<path d="M12.5438 17.3214C12.5991 17.4568 12.8415 17.5754 13.1943 17.6643C13.9767 17.859 15.2989 17.8844 16.2641 17.5288C17.2973 17.1478 18.0498 11.7124 18.3687 8.92695C18.4792 7.95331 18.5388 7.30564 18.5388 7.30564C18.5388 7.30564 17.9435 6.3828 15.6476 6.68759C13.3474 6.99661 13.1178 7.76705 12.9095 9.15554C12.7011 10.5398 12.3653 16.8853 12.5438 17.3214Z" fill="#994B2A"/>
<path d="M14.6484 4.8631L19.0787 5.60391L18.7386 7.11939L14.6825 8.07609L14.6484 4.8631Z" fill="#E33115"/>
<path d="M14.2914 8.12658C15.1625 8.12658 15.8688 7.38553 15.8688 6.4714C15.8688 5.55727 15.1625 4.81622 14.2914 4.81622C13.4202 4.81622 12.714 5.55727 12.714 6.4714C12.714 7.38553 13.4202 8.12658 14.2914 8.12658Z" fill="#FA412B"/>
<path d="M13.1689 6.51399C13.1689 5.71815 13.8151 5.0747 14.6144 5.0747C14.6484 5.0747 14.6825 5.0747 14.7207 5.07894C14.6017 5.04507 14.4741 5.02814 14.3466 5.02814C13.5473 5.02814 12.901 5.67158 12.901 6.46742C12.901 7.22517 13.492 7.84745 14.2445 7.90248C13.6238 7.74162 13.1689 7.18283 13.1689 6.51399Z" fill="#E33115"/>
<path d="M17.663 1.13774C17.6375 1.05307 17.3229 0.0836688 15.805 0.405392C15.805 0.405392 16.5661 0.308028 16.7744 0.600119C16.7744 0.600119 16.1707 0.324961 15.7923 0.553554C15.4139 0.782148 15.3543 1.55682 15.4096 1.79388C15.4649 2.03094 15.8815 2.72942 16.1579 2.72942C16.2642 2.72942 16.3747 2.69556 16.4725 2.65322C16.43 2.77599 16.3918 2.91145 16.362 3.06384C16.0686 4.4354 16.987 5.481 17.4632 5.22278C17.7693 5.05768 17.9989 5.58683 17.9989 5.58683L20.5244 2.2553C20.5244 2.2553 18.7642 0.1514 17.663 1.13774Z" fill="#4A2009"/>
<path d="M21.6341 17.5963C20.4861 13.9515 21.7446 13.1599 21.6256 11.3354C21.5065 9.51091 20.0864 7.55094 20.0864 7.55094C20.0864 7.55094 20.0142 7.54247 19.8909 7.534C19.7973 7.48321 19.7718 7.08952 19.7718 6.67043C19.7718 6.16668 19.8101 5.6333 19.8101 5.6333L18.1051 5.29888L18.0031 5.27771C18.0073 6.45877 17.697 7.22921 17.4674 7.41124C17.2548 7.43664 16.3492 7.55094 15.7879 7.77953C15.5754 7.86843 15.418 7.97002 15.3585 8.09279C14.8908 9.11722 14.4231 11.6952 14.0958 13.5367C13.9129 14.5611 13.509 15.8607 13.8109 16.1359L15.5754 15.4712C15.6434 15.158 15.7539 14.5145 15.9453 13.8118C15.975 13.706 15.9368 13.579 15.9665 13.4689C16.3024 14.3706 16.4725 14.7897 16.464 15.1792C16.4512 15.7337 16.0728 16.2332 15.282 17.9985C14.8483 18.9721 22.8033 21.3215 21.6341 17.5963Z" fill="#FFB27D"/>
<path d="M19.0022 29.3732C18.8577 29.6399 17.4418 31.3374 16.0133 33.217C15.89 33.3778 15.7624 33.5514 15.6348 33.7334C14.793 34.9102 13.8279 36.4427 13.2496 37.1919C12.7224 37.8692 12.2505 37.0226 12.5183 36.413C12.935 35.4563 13.2921 33.7842 13.6961 32.5523C13.7896 32.2687 13.8874 32.0063 13.9852 31.7819C14.4231 30.8125 15.2692 29.75 16.3024 28.7001C16.4809 28.5181 14.8058 24.1621 14.9163 20.8052C14.9588 19.476 15.1459 18.3034 15.5711 17.5922L19.8143 17.7997C19.8143 17.7997 20.3968 26.7656 19.0022 29.3732Z" fill="#008175"/>
<path d="M14.7548 19.2727C14.7463 19.4166 14.7548 19.5267 14.7803 19.6114C14.8696 19.895 15.1799 20.022 15.9282 19.9458C16.3874 19.8992 16.5915 19.133 16.6808 18.4853C16.9571 19.4166 17.3398 19.9416 17.8372 20.0516C18.5643 20.2125 22.2293 20.657 22.4674 18.9214C22.731 17.0164 21.9401 13.6426 21.8976 11.8223C22.0039 11.1788 22.0422 10.6158 22.0294 10.1375C21.9997 8.84212 21.617 8.11401 21.3237 7.82192C21.2386 7.75842 21.1578 7.72032 20.8219 7.66105C20.6519 7.63142 20.4138 7.59756 20.0779 7.55522C20.0779 7.55522 19.9333 7.53829 19.9376 7.54252C20.0014 7.65259 20.6646 8.63046 20.6009 8.95218C20.5328 9.2866 17.9691 9.24004 17.765 9.05378C17.5609 8.86752 17.0337 7.47479 17.0337 7.47479C17.0337 7.47479 15.992 7.58909 15.4818 7.95738C15.4818 7.95738 15.4818 7.96161 15.4861 7.96584C15.4265 8.00818 15.3798 8.05474 15.35 8.10554C14.8058 9.13421 14.2616 11.7376 13.8789 13.5918C14.8058 14.0997 15.6136 13.9474 15.8645 13.8796C15.5456 16.0047 14.8015 18.2991 14.7548 19.2727Z" fill="#2A5272"/>
<path d="M14.7548 19.2727C15.2565 19.1034 15.9027 18.6589 16.6808 17.6641C18.7344 15.0226 16.8551 11.9239 16.6043 11.8647C16.3534 11.8054 15.8772 13.8712 15.8772 13.8712C15.8304 14.3199 15.7114 14.7898 15.6221 15.247C15.6136 15.2935 15.6009 15.3359 15.5924 15.3824C15.5073 15.9158 15.5626 16.4238 15.4435 16.9191C15.4393 16.9276 15.2224 16.9657 15.2224 16.9741C14.9801 17.9478 14.7803 18.7859 14.7548 19.2727Z" fill="#2C3F4E"/>
<path d="M15.6349 33.7292C14.793 34.906 13.8279 36.4384 13.2496 37.1877C12.7224 37.865 12.2505 37.0183 12.5183 36.4088C12.935 35.4521 13.2921 33.78 13.6961 32.5481C13.9682 32.9629 14.5209 33.4921 15.6349 33.7292Z" fill="#FFB27D"/>
<path d="M14.3764 39.6599C14.3764 39.6599 13.1391 39.5075 12.833 39.1096C12.7947 39.063 12.7182 38.6313 12.7182 38.627C12.714 38.5932 12.6714 38.4323 12.4291 38.3138C12.2675 38.2333 12.1315 38.2164 11.9784 38.1317C11.8679 38.0682 11.651 37.9243 11.5532 37.8481C11.2046 37.573 11.3066 37.4671 11.3066 37.4671C11.3066 37.4671 11.4002 37.4036 11.5277 37.3063C11.5617 37.2809 11.6 37.2512 11.634 37.2216C11.8253 37.0692 12.0379 36.8745 12.1102 36.7221C12.1697 36.5951 12.2548 36.5147 12.3355 36.4723C12.4376 36.4131 12.5226 36.4046 12.5226 36.4046C12.5226 36.4046 12.5821 36.9591 12.8585 36.9295C13.39 36.8703 13.4878 36.8999 13.5048 36.9084L13.509 36.9126C13.509 36.9126 13.8151 37.7846 13.8917 38.0894C14.0277 38.6355 14.2701 38.8683 14.4104 39.0588C14.4486 39.1096 14.4699 39.1604 14.4869 39.2112C14.5422 39.4229 14.4444 39.6303 14.3764 39.6599Z" fill="#2C3F4E"/>
<path d="M14.3764 39.6598C14.3764 39.6598 13.1391 39.5074 12.833 39.1095C12.7947 39.0629 12.7182 38.6311 12.7182 38.6269C12.714 38.593 12.6714 38.4322 12.4291 38.3137C12.2675 38.2332 12.1315 38.2163 11.9784 38.1316C11.8679 38.0681 11.651 37.9242 11.5532 37.848C11.2046 37.5729 11.3066 37.467 11.3066 37.467C11.3066 37.467 11.4002 37.4035 11.5277 37.3062C11.5617 37.2808 11.6 37.2511 11.634 37.2215C11.651 37.3824 11.7233 37.6787 12.0039 37.8311C12.4036 38.0512 12.816 38.3941 12.9138 38.6354C13.0158 38.8767 13.0711 39.0926 13.3177 39.2111C13.5643 39.3339 14.2318 39.4482 14.2786 39.4312C14.3169 39.4185 14.3806 39.2577 14.4827 39.2111C14.5422 39.4228 14.4444 39.6302 14.3764 39.6598Z" fill="#466AA5"/>
<path d="M16.2854 7.59332L15.5328 7.87695C16.0771 8.42303 16.9869 9.52789 17.3738 11.1365C17.9436 13.4986 15.8092 14.2648 15.8092 14.2648L15.6221 15.2215L15.6179 15.2554C15.6179 15.2554 18.2794 14.6204 18.1264 11.653C18.0201 9.58716 16.9061 8.19867 16.2854 7.59332Z" fill="#994B2A"/>
<path d="M15.5754 37.5389L14.8696 37.1325C14.7718 37.0775 14.7378 36.9505 14.7931 36.8532C14.8483 36.7558 14.9759 36.7219 15.0737 36.777L15.7795 37.1833C15.8773 37.2384 15.9113 37.3654 15.856 37.4627C15.8007 37.5601 15.6774 37.5939 15.5754 37.5389Z" fill="#2C3F4E"/>
<path d="M14.827 38.0173C14.7632 37.9792 14.7377 37.903 14.7675 37.8353L15.0439 37.23L15.4052 37.4374L15.0141 37.9792C14.9716 38.0385 14.8908 38.0554 14.827 38.0173Z" fill="#008175"/>
<path d="M20.8611 18.2196L20.618 17.8826L0.704165 32.1202L0.947208 32.4571L20.8611 18.2196Z" fill="#07665A"/>
<path d="M0.91108 32.7132L0.434888 32.0528C0.36686 31.9597 0.388119 31.8326 0.481657 31.7649C0.575195 31.6972 0.702746 31.7183 0.770774 31.8115L1.24697 32.4719C1.31499 32.565 1.29373 32.692 1.2002 32.7598C1.10666 32.8275 0.979108 32.8063 0.91108 32.7132Z" fill="#2C3F4E"/>
<path d="M0.026767 32.8445C-0.0157502 32.7853 -0.00724672 32.7049 0.0480256 32.6541L0.55398 32.2138L0.796328 32.5482L0.218094 32.8826C0.154319 32.925 0.0692842 32.908 0.026767 32.8445Z" fill="#008175"/>
<path d="M14.7419 14.6839L13.8151 16.1401C15.418 17.2408 17.242 17.8461 18.4197 18.6081C18.5345 18.6885 18.8746 18.8536 18.9511 19.0399C19.0404 19.2769 19.2318 19.5775 19.4996 19.569C19.7632 19.5648 20.1629 19.3785 20.2182 19.1161C20.2394 19.0018 20.1374 19.0441 19.9035 18.8155C19.708 18.6292 19.6314 18.5065 19.6187 18.3922C19.5294 18.3245 19.1977 18.1551 19.1977 18.1551C18.9937 18.0366 18.8576 17.9519 18.8576 17.9519C18.8534 17.9562 15.7879 15.5813 14.7419 14.6839Z" fill="#FFB27D"/>
<path d="M15.588 15.3824C15.588 15.3824 15.8091 14.7136 15.8729 13.8712C15.8772 13.8712 15.4094 14.8998 15.588 15.3824Z" fill="#FFB27D"/>
</svg>
