<svg width="36" height="36" viewBox="0 0 36 36" fill="none" xmlns="http://www.w3.org/2000/svg">
<g clip-path="url(#clip0_1_10295)">
<path d="M20.25 7.3125C20.25 7.3125 23.625 7.875 25.3125 6.75L25.4137 6.76125L25.3125 7.8525L20.2669 9.07312L20.25 9V7.3125Z" fill="#FCFCFC"/>
<path d="M5.0625 5.0625C5.0625 5.0625 10.6875 12.375 20.25 7.3125V9L20.2669 9.07312L11.25 11.25C10.493 11.3004 9.74374 11.0719 9.14371 10.6076C8.54368 10.1433 8.13439 9.47541 7.99312 8.73C7.93355 8.48571 7.79353 8.26856 7.5956 8.11348C7.39767 7.9584 7.15332 7.8744 6.90188 7.875H5.0625V5.0625Z" fill="#FCFCFC"/>
<path d="M29.25 1.6875L29.7956 7.7175C28.9568 7.30976 28.0023 7.20635 27.0956 7.425L25.3125 7.8525L25.4138 6.76125L25.875 1.6875H29.25Z" fill="#58DFF5"/>
<path d="M34.3125 10.6875V21.9375C34.3125 22.2359 34.194 22.522 33.983 22.733C33.772 22.944 33.4859 23.0625 33.1875 23.0625C32.8891 23.0625 32.603 22.944 32.392 22.733C32.181 22.522 32.0625 22.2359 32.0625 21.9375V9.5625C32.0634 9.26441 32.1822 8.97877 32.393 8.76799C32.6038 8.5572 32.8894 8.43839 33.1875 8.4375C33.4852 8.43971 33.7701 8.55894 33.9806 8.76944C34.1911 8.97995 34.3103 9.26481 34.3125 9.5625V10.6875Z" fill="#474747"/>
<path d="M29.7956 7.71753C29.9547 7.79393 30.1088 7.88035 30.2569 7.97628C30.8232 8.35985 31.2849 8.87861 31.6002 9.4856C31.9155 10.0926 32.0744 10.7686 32.0625 11.4525V25.3294C32.0622 26.2152 32.2364 27.0924 32.5752 27.9108C32.914 28.7293 33.4106 29.4729 34.0369 30.0994L34.875 30.9375V32.0625C34.875 32.9576 34.5194 33.8161 33.8865 34.449C33.2536 35.0819 32.3951 35.4375 31.5 35.4375H2.8125C2.21576 35.4375 1.64347 35.2005 1.22151 34.7785C0.799553 34.3566 0.5625 33.7843 0.5625 33.1875C0.5625 32.5908 0.799553 32.0185 1.22151 31.5965C1.64347 31.1746 2.21576 30.9375 2.8125 30.9375H19.5525C21.1078 30.9374 22.6284 30.4775 23.9231 29.6157L25.1269 28.8113C25.7028 28.4272 26.1751 27.9069 26.5019 27.2966C26.8286 26.6863 26.9997 26.0048 27 25.3125V23.0625C27 22.3238 26.8545 21.5924 26.5718 20.9099C26.2891 20.2275 25.8748 19.6074 25.3525 19.0851C24.8301 18.5627 24.2101 18.1484 23.5276 17.8657C22.8451 17.583 22.1137 17.4375 21.375 17.4375H10.125C9.68187 17.4548 9.24737 17.5654 8.84995 17.7622C8.45252 17.959 8.10113 18.2375 7.81875 18.5794C7.18755 19.2961 6.75337 20.1644 6.55875 21.0994L5.625 25.3125H3.375L2.8125 18V9.00003C2.81339 8.70193 2.9322 8.4163 3.14299 8.20551C3.35377 7.99473 3.63941 7.87592 3.9375 7.87503H6.90188C7.15332 7.87443 7.39767 7.95843 7.5956 8.11351C7.79353 8.26859 7.93355 8.48574 7.99312 8.73003C8.13439 9.47543 8.54368 10.1433 9.14371 10.6076C9.74374 11.0719 10.493 11.3004 11.25 11.25L20.2669 9.07315L25.3125 7.85253L27.0956 7.42502C28.0023 7.20638 28.9568 7.30978 29.7956 7.71753Z" fill="#848484"/>
<path d="M33.1875 21.9375V9.5625C33.1886 9.36608 33.2411 9.17336 33.3398 9.00352C33.4385 8.83369 33.5799 8.69265 33.75 8.59444C33.58 8.49259 33.3857 8.43838 33.1875 8.4375C32.8894 8.43839 32.6038 8.5572 32.393 8.76799C32.1822 8.97877 32.0634 9.26441 32.0625 9.5625V21.9375C32.0634 22.2356 32.1822 22.5212 32.393 22.732C32.6038 22.9428 32.8894 23.0616 33.1875 23.0625C33.3856 23.0613 33.5799 23.0071 33.75 22.9056C33.5799 22.8074 33.4385 22.6663 33.3398 22.4965C33.2411 22.3266 33.1886 22.1339 33.1875 21.9375Z" fill="#2C2C2C"/>
<path d="M25.6106 29.6156L26.8144 28.8113C27.3903 28.4272 27.8626 27.9069 28.1894 27.2966C28.5161 26.6863 28.6872 26.0048 28.6875 25.3125V23.0625C28.6875 21.5707 28.0949 20.1399 27.04 19.085C25.9851 18.0301 24.5543 17.4375 23.0625 17.4375H21.375C22.1137 17.4375 22.8451 17.583 23.5276 17.8657C24.21 18.1484 24.8301 18.5627 25.3525 19.085C25.8748 19.6074 26.2891 20.2274 26.5718 20.9099C26.8545 21.5924 27 22.3238 27 23.0625V25.3125C26.9997 26.0048 26.8286 26.6863 26.5019 27.2966C26.1751 27.9069 25.7028 28.4272 25.1269 28.8113L23.9231 29.6156C22.6284 30.4775 21.1078 30.9374 19.5525 30.9375H21.24C22.7953 30.9374 24.3159 30.4775 25.6106 29.6156Z" fill="#474747"/>
<path d="M2.25 33.1875C2.25 32.5908 2.48705 32.0185 2.90901 31.5965C3.33097 31.1746 3.90326 30.9375 4.5 30.9375H2.8125C2.21576 30.9375 1.64347 31.1746 1.22151 31.5965C0.799553 32.0185 0.5625 32.5908 0.5625 33.1875C0.5625 33.7842 0.799553 34.3565 1.22151 34.7785C1.64347 35.2004 2.21576 35.4375 2.8125 35.4375H4.5C4.20442 35.4379 3.91167 35.3799 3.63852 35.267C3.36538 35.154 3.11719 34.9883 2.90818 34.7793C2.69918 34.5703 2.53346 34.3221 2.42052 34.049C2.30758 33.7758 2.24963 33.4831 2.25 33.1875Z" fill="#474747"/>
<path d="M4.5 9C4.50089 8.70191 4.6197 8.41627 4.83049 8.20549C5.04127 7.9947 5.32691 7.87589 5.625 7.875H3.9375C3.63941 7.87589 3.35377 7.9947 3.14299 8.20549C2.9322 8.41627 2.81339 8.70191 2.8125 9V18L3.375 25.3125H5.0625L4.5 18V9Z" fill="#474747"/>
<path d="M34.0352 30.0977C32.7721 28.8345 32.0625 27.1214 32.0625 25.335V11.4345C32.0701 10.7147 31.8889 10.0054 31.5371 9.37732C31.1852 8.74926 30.675 8.22431 30.0572 7.85477C29.9711 7.80527 29.8839 7.75859 29.7956 7.71753C28.9568 7.30978 28.0023 7.20638 27.0956 7.42502L25.3125 7.85253L20.2669 9.07315L11.25 11.25C10.493 11.3004 9.74374 11.0719 9.14371 10.6076C8.54368 10.1433 8.13439 9.47543 7.99312 8.73003C7.93355 8.48574 7.79353 8.26859 7.5956 8.11351C7.39767 7.95843 7.15332 7.87443 6.90188 7.87503H5.625C5.32691 7.87592 5.04127 7.99473 4.83049 8.20551C4.6197 8.4163 4.50089 8.70193 4.5 9.00003V9.56253H6.90188C7.15332 9.56193 7.39767 9.64593 7.5956 9.80101C7.79353 9.95609 7.93355 10.1732 7.99312 10.4175C8.13439 11.1629 8.54368 11.8308 9.14371 12.2951C9.74374 12.7594 10.493 12.9879 11.25 12.9375L20.2669 10.7606L25.3125 9.54002L25.6118 9.4444C26.5222 9.15297 27.4919 9.09837 28.4293 9.28577L28.5666 9.31334C29.0607 9.40481 29.5089 9.66173 29.8376 10.0418C30.1663 10.4219 30.3558 10.9026 30.375 11.4047V25.335C30.375 27.1214 31.0846 28.8345 32.3477 30.0977L33.1875 30.9375V32.0625C33.1875 32.9576 32.8319 33.8161 32.199 34.449C31.5661 35.0819 30.7076 35.4375 29.8125 35.4375H31.5051C32.3988 35.4375 33.256 35.0825 33.888 34.4505C34.52 33.8185 34.875 32.9614 34.875 32.0676V30.9375L34.0352 30.0977Z" fill="#C1C1C1"/>
<path d="M27.6947 6.75C27.5364 6.75002 27.38 6.71666 27.2355 6.65209C27.0911 6.58753 26.9618 6.49321 26.8563 6.37531C26.7508 6.25741 26.6713 6.11856 26.6231 5.96785C26.5748 5.81714 26.559 5.65796 26.5764 5.50069L27 1.6875H25.875L25.4138 6.76125L25.3125 7.8525L27.0956 7.425C28.0023 7.20635 28.9568 7.30976 29.7956 7.7175L29.7079 6.75H27.6947Z" fill="#4FC3F2"/>
<path d="M5.0625 4.5C5.21168 4.5 5.35476 4.55926 5.46025 4.66475C5.56574 4.77024 5.625 4.91332 5.625 5.0625V7.875H4.5V5.0625C4.5 4.91332 4.55926 4.77024 4.66475 4.66475C4.77024 4.55926 4.91332 4.5 5.0625 4.5Z" fill="#474747"/>
<path d="M20.8125 8.94375V5.625C20.8125 5.47582 20.7532 5.33274 20.6477 5.22725C20.5423 5.12176 20.3992 5.0625 20.25 5.0625C20.1008 5.0625 19.9577 5.12176 19.8523 5.22725C19.7468 5.33274 19.6875 5.47582 19.6875 5.625V9.21319L20.2669 9.07312L20.8125 8.94375Z" fill="#474747"/>
<path d="M27.5625 0.5625C27.7117 0.5625 27.8548 0.621763 27.9602 0.727252C28.0657 0.832742 28.125 0.975816 28.125 1.125V1.6875H27V1.125C27 0.975816 27.0593 0.832742 27.1648 0.727252C27.2702 0.621763 27.4133 0.5625 27.5625 0.5625Z" fill="#474747"/>
<path d="M34.875 11.25H34.3125V10.125H34.875C35.0242 10.125 35.1673 10.1843 35.2727 10.2898C35.3782 10.3952 35.4375 10.5383 35.4375 10.6875C35.4375 10.8367 35.3782 10.9798 35.2727 11.0852C35.1673 11.1907 35.0242 11.25 34.875 11.25Z" fill="#2C2C2C"/>
<path d="M4.5 29.8125L3.9375 25.3125H5.0625L4.5 29.8125Z" fill="#D9D9D9"/>
<path d="M25.4402 6.75H25.3125C25.257 6.75004 25.2028 6.76648 25.1567 6.79725C23.5817 7.84688 20.3293 7.3215 20.2961 7.31644C20.2353 7.30664 20.173 7.3167 20.1184 7.34512C10.8849 12.2327 5.50912 5.46244 5.2875 5.175C5.2613 5.14007 5.22733 5.11172 5.18828 5.09219C5.14923 5.07267 5.10616 5.0625 5.0625 5.0625H4.5C4.42541 5.0625 4.35387 5.09213 4.30113 5.14488C4.24838 5.19762 4.21875 5.26916 4.21875 5.34375C4.21875 5.41834 4.24838 5.48988 4.30113 5.54262C4.35387 5.59537 4.42541 5.625 4.5 5.625H4.93031C6.03437 6.87036 7.38632 7.87147 8.89958 8.56422C10.4128 9.25698 12.0541 9.62611 13.7183 9.648C16.0229 9.60679 18.2825 9.00193 20.2995 7.88625C20.8716 7.97006 23.7555 8.33175 25.3896 7.31644L25.4149 7.0425L25.4402 6.75Z" fill="#58DFF5"/>
<path d="M14.625 32.625H4.5C4.18934 32.625 3.9375 32.8768 3.9375 33.1875C3.9375 33.4982 4.18934 33.75 4.5 33.75H14.625C14.9357 33.75 15.1875 33.4982 15.1875 33.1875C15.1875 32.8768 14.9357 32.625 14.625 32.625Z" fill="#6E6E6E"/>
<path d="M16.875 33.75C17.1857 33.75 17.4375 33.4982 17.4375 33.1875C17.4375 32.8768 17.1857 32.625 16.875 32.625C16.5643 32.625 16.3125 32.8768 16.3125 33.1875C16.3125 33.4982 16.5643 33.75 16.875 33.75Z" fill="#6E6E6E"/>
<path d="M29.25 32.625H19.125C18.8143 32.625 18.5625 32.8768 18.5625 33.1875C18.5625 33.4982 18.8143 33.75 19.125 33.75H29.25C29.5607 33.75 29.8125 33.4982 29.8125 33.1875C29.8125 32.8768 29.5607 32.625 29.25 32.625Z" fill="#6E6E6E"/>
<path d="M28.125 3.375V5.625C28.125 5.93566 28.3768 6.1875 28.6875 6.1875C28.9982 6.1875 29.25 5.93566 29.25 5.625V3.375C29.25 3.06434 28.9982 2.8125 28.6875 2.8125C28.3768 2.8125 28.125 3.06434 28.125 3.375Z" fill="#BDFBFF"/>
<path d="M33.1875 13.5V21.375C33.1875 21.6857 33.4393 21.9375 33.75 21.9375C34.0607 21.9375 34.3125 21.6857 34.3125 21.375V13.5C34.3125 13.1893 34.0607 12.9375 33.75 12.9375C33.4393 12.9375 33.1875 13.1893 33.1875 13.5Z" fill="#595959"/>
<path d="M34.3125 11.25C34.3125 10.9393 34.0607 10.6875 33.75 10.6875C33.4393 10.6875 33.1875 10.9393 33.1875 11.25V11.8125C33.1875 12.1232 33.4393 12.375 33.75 12.375C34.0607 12.375 34.3125 12.1232 34.3125 11.8125V11.25Z" fill="#595959"/>
<path d="M30.375 15.1875V25.3125C30.375 25.6232 30.6268 25.875 30.9375 25.875C31.2482 25.875 31.5 25.6232 31.5 25.3125V15.1875C31.5 14.8768 31.2482 14.625 30.9375 14.625C30.6268 14.625 30.375 14.8768 30.375 15.1875Z" fill="#D9D9D9"/>
<path d="M31.5 12.9375C31.5 12.6268 31.2482 12.375 30.9375 12.375C30.6268 12.375 30.375 12.6268 30.375 12.9375V13.5C30.375 13.8107 30.6268 14.0625 30.9375 14.0625C31.2482 14.0625 31.5 13.8107 31.5 13.5V12.9375Z" fill="#D9D9D9"/>
<path d="M29.528 10.9794C29.7091 10.7981 29.6515 10.4468 29.3992 10.1947C29.1469 9.94262 28.7956 9.88523 28.6144 10.0665C28.4332 10.2478 28.4909 10.5991 28.7432 10.8512C28.9954 11.1033 29.3468 11.1607 29.528 10.9794Z" fill="#F6FAFD"/>
<path d="M28.5933 2.59511C28.684 2.50435 28.6552 2.3286 28.5291 2.20255C28.403 2.07651 28.2272 2.0479 28.1365 2.13865C28.0458 2.22941 28.0745 2.40516 28.2007 2.53121C28.3268 2.65725 28.5026 2.68586 28.5933 2.59511Z" fill="#F6FAFD"/>
<path d="M29.8125 11.8125C29.8125 11.5018 29.5607 11.25 29.25 11.25C28.9393 11.25 28.6875 11.5018 28.6875 11.8125V12.375C28.6875 12.6857 28.9393 12.9375 29.25 12.9375C29.5607 12.9375 29.8125 12.6857 29.8125 12.375V11.8125Z" fill="#D9D9D9"/>
<path d="M28.6875 14.0625V17.4375C28.6875 17.7482 28.9393 18 29.25 18C29.5607 18 29.8125 17.7482 29.8125 17.4375V14.0625C29.8125 13.7518 29.5607 13.5 29.25 13.5C28.9393 13.5 28.6875 13.7518 28.6875 14.0625Z" fill="#D9D9D9"/>
</g>
<defs>
<clipPath id="clip0_1_10295">
<rect width="36" height="36" fill="white"/>
</clipPath>
</defs>
</svg>
