<svg width="36" height="28" viewBox="0 0 36 28" fill="none" xmlns="http://www.w3.org/2000/svg">
<g clip-path="url(#clip0_1_10340)">
<path d="M17.8689 14.9056C18 15.6342 17.5361 16.3316 16.8303 16.4669C16.1244 16.6022 15.4487 16.1234 15.3176 15.3948L13.1193 3.19554C12.9882 2.46692 13.4521 1.76952 14.158 1.6342C14.8639 1.49889 15.5395 1.9777 15.6706 2.70632L17.8689 14.9056Z" fill="#FFDBC5"/>
<path d="M19.1596 11.5643C19.1596 12.3033 18.5747 12.9071 17.8587 12.9071H17.8386C17.1226 12.9071 16.5377 12.3033 16.5377 11.5643V1.34275C16.5377 0.603717 17.1125 0 17.8386 0H17.8587C18.5747 0 19.1596 0.603717 19.1596 1.34275V11.5643Z" fill="#FFDBC5"/>
<path d="M17.8689 17.539C18.2521 18.1636 18.0705 18.9963 17.4554 19.3918C16.8504 19.7874 16.0437 19.6 15.6605 18.9651L11.4453 12.0744C11.0621 11.4498 11.2437 10.6171 11.8588 10.2216C12.4638 9.82603 13.2705 10.0134 13.6537 10.6483L17.8689 17.539Z" fill="#FFDBC5"/>
<path d="M22.5882 11.1376H15.5294V25.2937H22.5882V11.1376Z" fill="#FFDBC5"/>
<path d="M21.4185 12.678C21.3378 13.4171 20.7025 13.9479 19.9866 13.8751C19.2706 13.7918 18.7563 13.136 18.8269 12.397L19.8756 2.19626C19.9563 1.45723 20.5916 0.926376 21.3076 0.999239C22.0235 1.08251 22.5378 1.73827 22.4672 2.4773L21.4185 12.678Z" fill="#FFDBC5"/>
<path d="M23.0722 17.6744C22.9814 18.3405 22.3865 18.7985 21.7512 18.7048C21.1058 18.6112 20.6621 17.997 20.7529 17.3413L22.4268 4.88181C22.5176 4.21563 23.1125 3.75764 23.7478 3.85132C24.3932 3.945 24.8369 4.55913 24.7461 5.21489L23.0722 17.6744Z" fill="#FFDBC5"/>
<path d="M22.5882 21.4424H15.5294V25.5019H22.5882V21.4424Z" fill="#E8B494"/>
<path d="M24.1008 28V24.3777C24.1008 23.2744 23.2336 22.3792 22.1646 22.3792H16.1646C15.0957 22.3792 14.2285 23.2744 14.2285 24.3777V28H24.1008Z" fill="#F06423"/>
<path d="M31.5126 17.258C31.4219 17.7472 31.7446 18.226 32.2185 18.3197C32.6924 18.4133 33.1563 18.0803 33.2471 17.591L34.7294 9.32635C34.8202 8.83713 34.5076 8.35832 34.0235 8.26464C33.5496 8.17096 33.0857 8.50405 32.995 8.99327L31.5126 17.258Z" fill="#FFDBC5"/>
<path d="M32.3698 8.06689C32.3698 7.57767 31.9866 7.18213 31.5127 7.18213C31.0387 7.18213 30.6555 7.57767 30.6555 8.06689V15.0409C30.6555 15.5301 31.0387 15.9256 31.5127 15.9256C31.9866 15.9256 32.3698 15.5301 32.3698 15.0409V8.06689Z" fill="#FFDBC5"/>
<path d="M31.5127 19.0379C31.2505 19.4647 31.3816 20.0267 31.7849 20.287C32.1984 20.5576 32.7429 20.4223 32.995 20.0059L35.8589 15.3427C36.1211 14.916 35.99 14.3539 35.5866 14.0936C35.1732 13.823 34.6286 13.9583 34.3765 14.3747L31.5127 19.0379Z" fill="#FFDBC5"/>
<path d="M33.0757 14.7806H28.3362V24.2528H33.0757V14.7806Z" fill="#FFDBC5"/>
<path d="M29.1126 15.7486C29.163 16.2483 29.5966 16.6126 30.0807 16.5605C30.5647 16.5085 30.9177 16.0609 30.8672 15.5613L30.1513 8.66017C30.1009 8.16054 29.6672 7.79623 29.1832 7.84827C28.6992 7.90032 28.3462 8.3479 28.3966 8.84753L29.1126 15.7486Z" fill="#FFDBC5"/>
<path d="M27.9933 19.1316C28.0538 19.5791 28.4572 19.8914 28.8908 19.829C29.3244 19.7665 29.6269 19.3502 29.5664 18.9026L28.437 10.4713C28.3765 10.0238 27.9731 9.71149 27.5395 9.77394C27.1059 9.8364 26.8034 10.2528 26.8639 10.7003L27.9933 19.1316Z" fill="#FFDBC5"/>
<path d="M33.0757 21.6505H28.3362V24.3568H33.0757V21.6505Z" fill="#E8B494"/>
<path d="M27.3278 26.1264V23.6699C27.3278 22.9204 27.8925 22.2751 28.6185 22.2751H32.6723C33.3983 22.2751 33.9832 22.9204 33.9832 23.6699V26.1264H27.3278Z" fill="#9EC853"/>
<path d="M4.48736 17.258C4.57812 17.7472 4.25543 18.226 3.78148 18.3197C3.30753 18.4133 2.84367 18.0803 2.75291 17.591L1.27056 9.32635C1.1798 8.83713 1.50249 8.35832 1.97644 8.26464C2.45039 8.17096 2.91425 8.50405 3.00501 8.99327L4.48736 17.258Z" fill="#FFDBC5"/>
<path d="M5.34453 15.0409C5.34453 15.5301 4.96134 15.9256 4.48739 15.9256C4.01344 15.9256 3.63025 15.5301 3.63025 15.0409V8.06689C3.63025 7.57767 4.01344 7.18213 4.48739 7.18213C4.96134 7.18213 5.34453 7.57767 5.34453 8.06689V15.0409Z" fill="#FFDBC5"/>
<path d="M4.48738 19.0379C4.74956 19.4647 4.61847 20.0267 4.21511 20.287C3.80167 20.5576 3.25713 20.4223 3.00503 20.0059L0.131076 15.3427C-0.131108 14.916 -1.60434e-05 14.3539 0.403345 14.0936C0.816791 13.823 1.36133 13.9583 1.61343 14.3747L4.48738 19.0379Z" fill="#FFDBC5"/>
<path d="M7.66381 14.7806H2.92432V24.2528H7.66381V14.7806Z" fill="#FFDBC5"/>
<path d="M6.88735 15.7486C6.83693 16.2483 6.40331 16.6126 5.91928 16.5605C5.43525 16.5085 5.08231 16.0609 5.13273 15.5613L5.84869 8.66017C5.89911 8.16054 6.33272 7.79623 6.81676 7.84827C7.30079 7.90032 7.65373 8.3479 7.60331 8.84753L6.88735 15.7486Z" fill="#FFDBC5"/>
<path d="M8.00672 19.1316C7.94621 19.5791 7.54285 19.8914 7.10924 19.829C6.67562 19.7665 6.3731 19.3502 6.43361 18.9026L7.56302 10.4713C7.62352 10.0238 8.02689 9.71149 8.4605 9.77394C8.89412 9.8364 9.19664 10.2528 9.13613 10.7003L8.00672 19.1316Z" fill="#FFDBC5"/>
<path d="M7.66381 21.6505H2.92432V24.3568H7.66381V21.6505Z" fill="#E8B494"/>
<path d="M8.70256 26.116V23.6699C8.70256 22.9204 8.11768 22.3167 7.39163 22.3167H3.32777C2.60172 22.3167 2.01685 22.9204 2.01685 23.6699V26.116H8.70256Z" fill="#2961A5"/>
<path d="M22.0537 13.5316C22.0235 12.6469 21.2974 11.9495 20.4403 11.9807C19.7344 12.0015 19.1495 12.5115 18.9882 13.1881C18.7764 12.5324 18.1613 12.064 17.4554 12.0848C16.5983 12.116 15.9226 12.8654 15.9529 13.7502C15.973 14.2394 16.1949 14.6766 16.5478 14.9576C16.5579 14.9784 16.5781 14.9889 16.5882 15.0097L18.4336 17.1643C18.8369 17.6431 19.4823 17.6119 19.8554 17.1123L21.5495 14.8327C21.5899 14.7807 21.6201 14.7286 21.6504 14.6766C21.9125 14.3747 22.0638 13.9688 22.0537 13.5316Z" fill="#DB4646"/>
<path d="M17.415 12.5011C16.8705 12.626 16.5075 13.084 16.4571 13.6461C16.4369 13.8647 16.7697 13.8543 16.7898 13.6357C16.8302 13.2193 17.1327 12.9175 17.5159 12.8238C17.7176 12.7822 17.6268 12.4491 17.415 12.5011Z" fill="#E7AD84"/>
<path d="M28.8101 16.623C28.8303 16.0297 29.3143 15.5613 29.8891 15.5821C30.363 15.603 30.7563 15.9361 30.8672 16.394C31.0084 15.9569 31.4219 15.6446 31.8958 15.655C32.4706 15.6758 32.9244 16.1755 32.9042 16.7688C32.8941 17.1019 32.7429 17.3829 32.5109 17.5807C32.5008 17.5911 32.4908 17.6015 32.4807 17.6119L31.2403 19.0483C30.9681 19.3606 30.5445 19.3502 30.2924 19.0171L29.1529 17.487C29.1227 17.4558 29.1025 17.4141 29.0824 17.3829C28.9109 17.1851 28.8 16.9145 28.8101 16.623Z" fill="#DB4646"/>
<path d="M31.916 15.936C32.279 16.0193 32.521 16.3316 32.5614 16.7063C32.5714 16.852 32.3496 16.8416 32.3395 16.6959C32.3093 16.4148 32.1076 16.2171 31.8555 16.1546C31.7042 16.1234 31.7748 15.9048 31.916 15.936Z" fill="#E7AD84"/>
<path d="M3.29751 16.8312C3.31768 16.2379 3.80171 15.7695 4.3765 15.7903C4.85045 15.8112 5.24373 16.1442 5.35465 16.6022C5.49583 16.1651 5.90927 15.8528 6.38322 15.8632C6.95801 15.884 7.4118 16.3837 7.39163 16.977C7.38154 17.31 7.23028 17.5911 6.99835 17.7889C6.98827 17.7993 6.97818 17.8097 6.9681 17.8201L5.72776 19.2565C5.45549 19.5688 5.03196 19.5584 4.77986 19.2253L3.64037 17.6952C3.61011 17.6639 3.58995 17.6223 3.56978 17.5911C3.39835 17.3933 3.28743 17.1227 3.29751 16.8312Z" fill="#DB4646"/>
<path d="M6.40341 16.1442C6.76643 16.2275 7.00845 16.5398 7.04879 16.9145C7.05887 17.0602 6.83702 17.0498 6.82694 16.9041C6.79668 16.623 6.595 16.4253 6.3429 16.3628C6.19164 16.3316 6.26223 16.113 6.40341 16.1442Z" fill="#E7AD84"/>
</g>
<defs>
<clipPath id="clip0_1_10340">
<rect width="36" height="28" fill="white"/>
</clipPath>
</defs>
</svg>
