<svg width="32" height="32" viewBox="0 0 32 32" fill="none" xmlns="http://www.w3.org/2000/svg">
<g clip-path="url(#clip0_1_10918)">
<path d="M14.2922 6.92851H17.708C18.2263 6.92851 18.6447 6.51021 18.6447 5.99202V0.953702C18.6447 0.435511 18.2263 0.0172119 17.708 0.0172119H14.2922C13.774 0.0172119 13.3556 0.435511 13.3556 0.953702V5.99202C13.3556 6.51021 13.774 6.92851 14.2922 6.92851Z" fill="#D5D5D5"/>
<path d="M14.2923 0.0172119H16.0033V6.92851H14.2923C13.774 6.92851 13.3556 6.51021 13.3556 5.99202V0.953702C13.3556 0.435511 13.774 0.0172119 14.2923 0.0172119Z" fill="#A7A7A7"/>
<path d="M6.89881 18.1285H25.1015C25.3825 18.1285 25.6448 18.0036 25.8258 17.7914C26.0069 17.5791 26.0756 17.2919 26.0257 17.0172L23.8713 5.81679C23.7839 5.37352 23.403 5.05511 22.9534 5.05511H9.05316C8.60356 5.05511 8.2164 5.37352 8.13522 5.81679L5.98087 17.0172C5.93092 17.2919 5.99961 17.5729 6.1807 17.7914C6.3493 18.0036 6.61781 18.1285 6.89881 18.1285Z" fill="#EAE7EA"/>
<path d="M5.97453 17.0114L8.12888 5.811C8.2163 5.36772 8.59722 5.04932 9.04682 5.04932H16.0032V18.1227H6.89871C6.61771 18.1227 6.35545 17.9979 6.17436 17.7856C5.99327 17.5733 5.92458 17.2861 5.97453 17.0114Z" fill="#D5D5D5"/>
<path d="M12.2566 10.456C12.65 10.456 13.006 10.2062 13.1371 9.83789C13.2682 9.46953 13.1496 9.04499 12.8499 8.8015C12.5439 8.55177 12.113 8.52055 11.7758 8.72034C11.4386 8.92012 11.2638 9.32594 11.3387 9.70678C11.4261 10.1376 11.8133 10.456 12.2566 10.456Z" fill="#A7A7A7"/>
<path d="M19.7499 10.4588C20.1433 10.4588 20.4992 10.2091 20.6304 9.84076C20.7615 9.47241 20.6491 9.04787 20.3431 8.80438C20.0371 8.56089 19.6063 8.52343 19.2691 8.72322C18.9319 8.923 18.7508 9.32882 18.8319 9.70966C18.9194 10.1404 19.3065 10.4588 19.7499 10.4588Z" fill="#D5D5D5"/>
<path d="M16.0032 10.4562C16.3966 10.4562 16.7526 10.2065 16.8837 9.83813C17.0148 9.46978 16.8962 9.04523 16.5964 8.80175C16.2905 8.55202 15.8596 8.5208 15.5224 8.72058C15.1852 8.92037 15.0103 9.32618 15.0853 9.70702C15.1665 10.1378 15.5599 10.4562 16.0032 10.4562Z" fill="#D5D5D5"/>
<path d="M15.5225 8.72034C15.6723 8.63294 15.8409 8.58923 16.0033 8.58923V10.4622C15.5599 10.4622 15.1728 10.1438 15.0854 9.70678C15.0042 9.31969 15.1853 8.91388 15.5225 8.72034Z" fill="#A7A7A7"/>
<path d="M9.61513 30.8527H22.4038C22.8222 30.8527 23.1844 30.578 23.303 30.1785L25.7821 21.7126L16.0095 15.5505L6.21814 21.6501L8.71593 30.1785C8.82833 30.578 9.19675 30.8527 9.61513 30.8527Z" fill="#00429B"/>
<path d="M16.0032 15.5568V30.8528H9.61507C9.19669 30.8528 8.83451 30.5781 8.71587 30.1785L6.21807 21.6502L16.0032 15.5568Z" fill="#002659"/>
<path d="M15.9969 30.8527C16.5152 30.8527 16.9336 30.4344 16.9336 29.9162V16.487C16.9336 15.9688 16.5152 15.5505 15.9969 15.5505C15.4786 15.5505 15.0602 15.9688 15.0602 16.487V29.9162C15.0602 30.4344 15.4849 30.8527 15.9969 30.8527Z" fill="#FECB45"/>
<path d="M15.9969 15.5505C16.0031 15.5505 16.0031 15.5505 15.9969 15.5505V30.8527C15.4786 30.8527 15.0602 30.4344 15.0602 29.9162V16.487C15.0602 15.9688 15.4849 15.5505 15.9969 15.5505Z" fill="#FCA741"/>
<path d="M27.0434 17.3735L25.7757 21.7126L16.0031 17.5046L6.21177 21.6501L4.96288 17.3735C4.83174 16.9177 5.05654 16.437 5.49366 16.2497L15.6347 11.8794C15.872 11.7795 16.1405 11.7795 16.3778 11.8794L26.7311 16.3746C27.0184 16.6118 27.1495 16.9989 27.0434 17.3735Z" fill="#FDDA51"/>
<path d="M5.48746 16.2497L15.6285 11.8794C15.7471 11.8295 15.872 11.8045 16.0032 11.8045V17.5046L6.21182 21.6501L4.96292 17.3735C4.82554 16.924 5.05035 16.437 5.48746 16.2497Z" fill="#FECB45"/>
<path d="M0.0172729 31.9827H31.9828V24.1537C29.2415 23.9539 27.9613 24.6344 26.8436 25.2275C25.9444 25.702 25.1701 26.1141 23.5215 26.1141C21.873 26.1141 21.0987 25.702 20.1994 25.2275C19.2191 24.7093 18.1138 24.1162 15.9969 24.1162C13.88 24.1162 12.7748 24.7031 11.7944 25.2275C10.8952 25.702 10.1208 26.1141 8.47231 26.1141C6.82376 26.1141 6.04944 25.702 5.15024 25.2275C4.03872 24.6344 2.75236 23.9539 0.0110283 24.1537V31.9827H0.0172729Z" fill="#8BB9FF"/>
<path d="M16.0032 31.9827H0.0173178V24.1537C2.75864 23.9539 4.03876 24.6344 5.15652 25.2275C6.05572 25.702 6.83004 26.1141 8.47858 26.1141C10.1271 26.1141 10.9014 25.702 11.8006 25.2275C12.781 24.7093 13.8863 24.1162 16.0032 24.1162V31.9827Z" fill="#4793FF"/>
</g>
<defs>
<clipPath id="clip0_1_10918">
<rect width="31.9655" height="31.9655" fill="white" transform="matrix(-1 0 0 1 31.9828 0.0172119)"/>
</clipPath>
</defs>
</svg>
