<svg width="34" height="32" viewBox="0 0 34 32" fill="none" xmlns="http://www.w3.org/2000/svg">
<g clip-path="url(#clip0_1_10953)">
<path d="M15.632 8.13257L14.875 14.5714L15.632 23.787H24.7496V13.78L15.632 8.13257Z" fill="#FFDC9E"/>
<path d="M15.632 8.13257L7.30469 13.8068V23.7802H15.632V8.13257Z" fill="#FFEBBA"/>
<path d="M12.1989 13.5318H14.191V15.5439H12.1989V13.5318Z" fill="#FFC869"/>
<path d="M17.8633 13.5318H19.8555V15.5439H17.8633V13.5318Z" fill="#FFB64B"/>
<path d="M15.6387 7.24054L14.875 8.35392L15.632 9.24597L15.6387 9.23926L24.7496 13.78V11.7745L15.6387 7.24054Z" fill="#FFB64B"/>
<path d="M15.632 7.24054L7.30469 11.8014V13.8068L15.632 9.24596V7.24054Z" fill="#FFC869"/>
<path d="M28.3622 18.5891H30.3544V21.614H28.3622V18.5891Z" fill="#BC6B2C"/>
<path d="M30.8126 7.77046C30.3012 6.76439 29.3649 5.5437 29.3649 5.5437H29.3583C29.3583 5.5437 28.4219 6.76439 27.9106 7.77046C26.184 11.1643 25.925 13.0221 25.925 15.544C25.925 17.4555 27.4657 19.0116 29.3583 19.0116H29.3649C31.2575 19.0116 32.7981 17.4555 32.7981 15.544C32.7981 13.0221 32.5391 11.1643 30.8126 7.77046Z" fill="#0DCA71"/>
<path d="M3.02148 16.3957H5.01367V21.7882H3.02148V16.3957Z" fill="#DA7700"/>
<path d="M5.71758 3.49127C5.11992 2.31753 4.02422 0.888916 4.02422 0.888916H4.01758C4.01758 0.888916 2.92188 2.31753 2.32422 3.49127C0.305469 7.45517 0 9.63498 0 12.5794C0 14.8196 1.79961 16.6372 4.01758 16.6372H4.02422C6.24219 16.6372 8.0418 14.8196 8.0418 12.5794C8.0418 9.63498 7.73633 7.45517 5.71758 3.49127Z" fill="#04DB7B"/>
<path d="M34.0001 31.1112H31.0118L21.675 20.1384C22.5516 19.9774 23.4481 19.8969 24.3579 19.8969C27.7579 19.8969 30.9653 21.017 33.6282 23.1432L34.0067 23.445V31.1112H34.0001Z" fill="#FD8C02"/>
<path d="M30.9984 31.1111L30.6332 29.8234C29.6437 26.3424 27.4391 23.2102 24.4375 20.9968C21.8543 19.092 18.8395 17.9384 15.632 17.6097L14.875 26.0137L15.632 30.2392L26.3301 31.1111H30.9984Z" fill="#FDC202"/>
<path d="M0.245703 23.5723L0 23.854V31.1111H1.16211L15.632 30.2392V17.6097C15.0078 17.5494 14.377 17.5158 13.7395 17.5158C8.50664 17.5091 3.58594 19.7225 0.245703 23.5723Z" fill="#FDD902"/>
<path d="M26.3235 31.1112L25.759 29.7228C24.8493 27.4894 23.2356 25.5778 21.104 24.2029C19.4637 23.1432 17.5977 22.4657 15.6321 22.1974V31.1112H26.3235Z" fill="#FDA102"/>
<path d="M6.36833 24.2028C4.23669 25.5778 2.62302 27.4893 1.71326 29.7228L1.1488 31.1111H15.632V22.1974C15.0078 22.1102 14.3769 22.0699 13.7394 22.0699C11.0832 22.0699 8.53318 22.8077 6.36833 24.2028Z" fill="#FDB902"/>
</g>
<defs>
<clipPath id="clip0_1_10953">
<rect width="34" height="30.2222" fill="white" transform="translate(0 0.888916)"/>
</clipPath>
</defs>
</svg>
