<svg width="32" height="30" viewBox="0 0 32 30" fill="none" xmlns="http://www.w3.org/2000/svg">
<g clip-path="url(#clip0_1_10816)">
<path d="M8.98082 2.49607C9.03286 2.49607 9.0914 2.49021 9.14344 2.47263C9.39714 2.3906 9.52724 2.13865 9.43617 1.91013L8.79867 0.292942C8.7076 0.0644268 8.42789 -0.0527607 8.17419 0.0292705C7.92049 0.111302 7.79039 0.363255 7.88146 0.59177L8.52546 2.20896C8.59051 2.38474 8.77916 2.49607 8.98082 2.49607Z" fill="#C6855B"/>
<path d="M17.3788 29.9999C17.4178 29.9999 17.4633 29.9941 17.5024 29.9823C17.7626 29.9179 17.9187 29.6776 17.8471 29.4433L12.7732 12.3925C12.7016 12.1581 12.4349 12.0175 12.1747 12.0819C11.9145 12.1464 11.7584 12.3866 11.8299 12.621L16.9039 29.6718C16.9689 29.871 17.1641 29.9999 17.3788 29.9999Z" fill="#C6855B"/>
<path d="M0.172859 12.7793C0.094799 7.71091 3.90026 3.22848 9.31247 1.98044C14.6336 0.749969 20.2735 2.92966 22.9796 7.27731L0.172859 12.7793Z" fill="#E17F85"/>
<path d="M9.30583 1.98048C10.6264 1.67579 11.9664 1.58204 13.2739 1.67579C12.5974 1.72266 11.9274 1.82813 11.2574 1.98048C6.01427 3.19337 2.28036 7.44141 2.12424 12.3106L0.166215 12.7852C0.0946589 7.71094 3.90012 3.22852 9.30583 1.98048Z" fill="#DE646E"/>
<path d="M7.59499 13.2363L7.77063 10.9453L0.172714 12.7792L1.59082 14.6835C1.74694 14.8886 2.03316 14.9882 2.29987 14.9238L7.12012 13.7636C7.38683 13.6992 7.58198 13.4882 7.59499 13.2363Z" fill="#FFE07D"/>
<path d="M3.65972 14.332C3.72477 14.4199 3.81584 14.4902 3.91992 14.5312L2.30016 14.9238C2.03346 14.9882 1.74723 14.8945 1.59111 14.6835L0.173008 12.7792L2.13103 12.3046L3.65972 14.332Z" fill="#FFD064"/>
<path d="M15.1995 11.4023L15.3751 9.11127L7.77721 10.9453L9.19532 12.8495C9.35144 13.0546 9.63766 13.1542 9.90437 13.0898L14.7246 11.9296C14.9848 11.8652 15.18 11.6542 15.1995 11.4023Z" fill="#E17F85"/>
<path d="M22.7975 9.56836L22.9731 7.27734L15.3752 9.11133L16.7933 11.0156C16.9495 11.2207 17.2357 11.3203 17.5024 11.2559L22.3226 10.0957C22.5893 10.0313 22.7845 9.81446 22.7975 9.56836Z" fill="#FFE07D"/>
<path d="M7.38694 5.91211C7.43898 4.61719 7.60161 3.44531 7.80327 2.42578C8.29115 2.25 8.79204 2.09766 9.30594 1.98047C9.62468 1.9043 9.94994 1.8457 10.2687 1.79297C11.1078 2.54297 12.0511 3.52148 12.9553 4.74023C14.1522 6.35742 14.9003 7.89258 15.3687 9.11132L12.3178 9.84961L7.76423 10.9453C7.50403 9.5625 7.30888 7.85742 7.38694 5.91211Z" fill="#FFE07D"/>
<path d="M10.2687 1.79297C10.3923 1.9043 10.5159 2.01562 10.6395 2.13867C9.55318 2.44336 8.54489 2.88281 7.62118 3.43359C7.67322 3.08203 7.73827 2.74805 7.80332 2.42578C8.18061 2.29102 8.57092 2.16797 8.96122 2.06836C9.39055 1.95117 9.8329 1.86328 10.2687 1.79297Z" fill="#FFD064"/>
<path d="M27.3704 29.5605C27.507 29.5605 27.6437 29.5371 27.7738 29.4785C28.2616 29.2793 28.4828 28.7578 28.2551 28.3125L26.3036 24.4512C26.0824 24.0117 25.5035 23.8125 25.0091 24.0176C24.5147 24.2226 24.3 24.7383 24.5277 25.1836L26.4792 29.0449C26.6484 29.3672 26.9997 29.5605 27.3704 29.5605Z" fill="#C6855B"/>
<path d="M7.28308 29.5605C7.14648 29.5605 7.00987 29.5371 6.87977 29.4785C6.39189 29.2793 6.17072 28.7578 6.39839 28.3125L8.34991 24.4512C8.57109 24.0117 9.15004 23.8125 9.64442 24.0176C10.1388 24.2226 10.3535 24.7383 10.1258 25.1836L8.17428 29.0449C8.00514 29.3672 7.65387 29.5605 7.28308 29.5605Z" fill="#C6855B"/>
<path d="M28.8667 25.6992H9.68981C9.1694 25.6992 8.66851 25.5117 8.30423 25.1777L1.4544 18.9609C1.35032 18.8672 1.39585 18.709 1.53246 18.6679L3.02862 18.2168C4.17351 17.8711 5.4355 18.1465 6.28115 18.9258L9.71583 22.0898C9.96302 22.3183 10.2948 22.4414 10.6461 22.4414L26.2192 22.4062C27.7869 22.4004 29.0619 23.5429 29.0619 24.9551V25.5176C29.0619 25.6172 28.9773 25.6992 28.8667 25.6992Z" fill="#80B4FB"/>
<path d="M1.52596 18.6738L3.02213 18.2227C3.16524 18.1816 3.30835 18.1465 3.45146 18.123L10.2558 24.2988C10.62 24.6328 11.1209 24.8203 11.6413 24.8203H29.0554C29.0554 24.8672 29.0619 24.9141 29.0619 24.9609V25.5234C29.0619 25.623 28.9773 25.6992 28.8667 25.6992H9.68981C9.16941 25.6992 8.66852 25.5117 8.30424 25.1777L1.4544 18.9609C1.35032 18.873 1.38935 18.7148 1.52596 18.6738Z" fill="#61A2F9"/>
<path d="M1.3245 29.9999H31.3454C31.6121 29.9999 31.8333 29.8007 31.8333 29.5605C31.8333 29.3203 31.6121 29.121 31.3454 29.121H1.3245C1.05779 29.121 0.836622 29.3203 0.836622 29.5605C0.836622 29.8007 1.05129 29.9999 1.3245 29.9999Z" fill="#655E67"/>
</g>
<defs>
<clipPath id="clip0_1_10816">
<rect width="31.6667" height="30" fill="white" transform="matrix(-1 0 0 1 31.8333 0)"/>
</clipPath>
</defs>
</svg>
