<svg width="34" height="48" viewBox="0 0 34 48" fill="none" xmlns="http://www.w3.org/2000/svg">
<path d="M52.0472 39.5569C50.4155 41.1259 44.1509 43.9726 37.8681 43.9906C30.2836 44.013 22.4867 44.0892 17.6504 42.8788C17.6504 42.8788 14.8435 42.305 13.7135 41.0363C13.831 40.9646 18.2154 39.0593 18.6945 38.88C20.281 38.2882 22.2065 37.7189 24.5252 37.2437C29.4791 36.2305 33.2307 35.7956 36.1506 35.6925C36.815 35.6701 37.4297 35.6612 38.0128 35.6701C38.8942 35.6836 39.6852 35.7284 40.3993 35.7956C43.9113 36.1274 45.6379 36.9926 47.3194 37.2212C50.5737 37.6516 52.0472 39.5569 52.0472 39.5569Z" fill="url(#paint0_linear_1_10982)"/>
<path opacity="0.2" d="M47.4439 39.6211C42.9961 39.4358 44.9484 38.9297 40.3346 37.3253C35.7207 35.721 31.2819 36.896 33.7414 37.2033C36.1785 37.5106 40.4423 38.9522 38.0636 38.3693C35.6803 37.7863 30.6087 36.9548 24.6259 38.071C19.7069 38.9884 16.4888 40.9859 15.3802 41.9394C19.5498 44.0363 27.8619 44.0002 37.4217 44.0002C42.0715 44.0002 48.2473 42.2377 51.214 40.2131C49.9528 39.8335 49.7104 39.716 47.4439 39.6211Z" fill="url(#paint1_linear_1_10982)"/>
<path d="M27.795 39.3183C27.795 39.3183 26.1409 38.2392 25.7132 37.9616C25.2918 37.6903 25.2603 37.4252 25.2603 37.4252C25.2163 37.5767 25.1912 37.7912 25.3232 37.93L27.7321 39.5202C27.7321 39.5202 28.2667 39.8673 28.6063 39.5328C28.3107 39.6401 27.795 39.3183 27.795 39.3183Z" fill="#21314D"/>
<path d="M28.2353 39.6905C27.9712 39.6905 27.7322 39.5328 27.7259 39.5328L25.317 37.9426C25.1787 37.7975 25.2038 37.5829 25.2478 37.4252L25.2604 37.381L25.2667 37.4252C25.2667 37.4252 25.3045 37.6902 25.7196 37.9552C26.1347 38.2265 27.7762 39.2993 27.8013 39.3119C27.8076 39.3182 28.3234 39.6337 28.6064 39.5265L28.6441 39.5138L28.6127 39.5454C28.4995 39.6527 28.3674 39.6905 28.2353 39.6905ZM25.3296 37.9237L27.7322 39.5138C27.7384 39.5201 28.2353 39.8357 28.5686 39.5517C28.4491 39.5832 28.2856 39.5517 28.0844 39.4697C27.9208 39.4002 27.7888 39.3182 27.7888 39.3182C27.7699 39.3056 26.1284 38.2329 25.707 37.9615C25.3736 37.747 25.2793 37.5387 25.2541 37.4567C25.2227 37.6081 25.2101 37.7975 25.3296 37.9237Z" fill="#21314D"/>
<path d="M27.8642 37.3872C27.751 37.28 27.7069 37.1222 27.751 36.9771C27.7761 36.895 27.8202 36.7941 27.8956 36.6742L27.4365 35.7087L26.166 35.6961L25.3233 37.2295C25.3233 37.2295 25.2792 37.3115 25.2478 37.4188C25.2478 37.4251 25.2792 37.6838 25.7006 37.9552C25.9585 38.1192 26.6755 38.5862 27.1975 38.9269C27.6881 37.8353 28.2667 37.7659 28.2667 37.7659C28.2353 37.7406 28.2101 37.7154 28.1849 37.6901L27.8642 37.3872Z" fill="#ACC0F5"/>
<path d="M28.3297 37.8162C28.3108 37.8036 28.2983 37.7847 28.2794 37.772C28.2794 37.772 27.7008 37.8414 27.2102 38.9331C27.5435 39.1476 27.7951 39.318 27.7951 39.318C27.7951 39.318 28.3171 39.6398 28.6064 39.5325C28.9461 39.2044 29.0404 38.4409 28.3297 37.8162Z" fill="#6D8AE2"/>
<path d="M28.4681 39.564C28.3612 39.564 28.2354 39.5325 28.0844 39.4757C27.9209 39.4063 27.7888 39.3242 27.7888 39.3242C27.7888 39.3242 27.5373 39.1602 27.2039 38.9393L27.1976 38.933V38.9267C27.336 38.6175 27.5813 38.1884 27.9209 37.936C28.1285 37.7846 28.2731 37.7656 28.2731 37.7656H28.2794C28.2983 37.7782 28.3109 37.7972 28.3297 37.8098C28.7574 38.1884 28.858 38.5733 28.8643 38.8321C28.8706 39.1034 28.7763 39.3684 28.6065 39.5388H28.6002C28.5687 39.5577 28.5247 39.564 28.4681 39.564ZM27.2165 38.9267C27.5498 39.1413 27.7951 39.3053 27.7951 39.3053C27.8014 39.3053 28.3109 39.6208 28.6002 39.5199C28.7637 39.3558 28.858 39.0971 28.8517 38.8321C28.8454 38.5796 28.7448 38.1947 28.3234 37.8224C28.3046 37.8098 28.292 37.7972 28.2731 37.7782C28.2291 37.7909 27.6819 37.9108 27.2165 38.9267Z" fill="#6D8AE2"/>
<path d="M26.4113 36.3779C26.1598 36.3779 25.9585 36.5735 25.9585 36.8259C25.9585 37.0783 26.1535 37.2802 26.405 37.2802C26.6566 37.2802 26.8579 37.0846 26.8579 36.8322C26.8642 36.5861 26.6629 36.3842 26.4113 36.3779Z" fill="#6D8AE2"/>
<path d="M26.4114 37.2926C26.4051 37.2926 26.4051 37.2926 26.4114 37.2926C26.1535 37.2926 25.946 37.0781 25.9523 36.8257C25.9523 36.6995 26.0026 36.5859 26.0907 36.5039C26.1787 36.4218 26.2919 36.3713 26.4114 36.3713H26.4177C26.6693 36.3713 26.8768 36.5859 26.8705 36.8383C26.8705 36.9645 26.8202 37.0781 26.7322 37.1601C26.6441 37.2485 26.5309 37.2926 26.4114 37.2926ZM26.4114 36.3903C26.2982 36.3903 26.185 36.4344 26.1032 36.5165C26.0215 36.5985 25.9712 36.7121 25.9712 36.8257C25.9712 37.0718 26.1661 37.2737 26.4051 37.2737C26.5246 37.2737 26.6315 37.2295 26.7196 37.1475C26.8013 37.0655 26.8516 36.9519 26.8516 36.8383C26.8516 36.5922 26.6567 36.3903 26.4114 36.3903Z" fill="#6D8AE2"/>
<path d="M26.4114 36.4722C26.2164 36.4722 26.0529 36.63 26.0529 36.8256C26.0529 37.0212 26.2101 37.1853 26.4051 37.1853C26.6 37.1853 26.7636 37.0275 26.7636 36.8319C26.7636 36.6363 26.6063 36.4785 26.4114 36.4722Z" fill="#ACC0F5"/>
<path d="M27.6504 37.2421C27.6127 37.2484 27.575 37.2674 27.5435 37.2863C27.5121 37.3052 27.4806 37.3305 27.4492 37.3557C27.4366 37.3683 27.424 37.3873 27.4115 37.3999C27.3989 37.4125 27.3926 37.4314 27.38 37.4504C27.4115 37.4314 27.4429 37.4062 27.4743 37.3873C27.5058 37.3683 27.5372 37.3494 27.5687 37.3305C27.6001 37.3115 27.6316 37.2989 27.663 37.28C27.6945 37.2674 27.7322 37.2484 27.7637 37.2358C27.7259 37.2295 27.6882 37.2358 27.6504 37.2421Z" fill="#21314D"/>
<path d="M27.5246 36.9772C27.4869 36.9835 27.4492 36.9961 27.4177 37.0087C27.3988 37.015 27.3863 37.0276 27.3674 37.0403C27.3548 37.0529 27.3359 37.0655 27.3234 37.0781C27.3422 37.0718 27.3611 37.0655 27.38 37.0655C27.3988 37.0592 27.4114 37.0529 27.4303 37.0529C27.4617 37.0403 27.4995 37.0403 27.5309 37.034C27.5624 37.0276 27.6001 37.0276 27.6378 37.0276C27.6756 37.0276 27.707 37.0276 27.7448 37.0276C27.7133 37.0024 27.6756 36.9898 27.6378 36.9835C27.6001 36.9709 27.5624 36.9709 27.5246 36.9772Z" fill="#21314D"/>
<path d="M27.8515 37.4941C27.82 37.5067 27.7886 37.5256 27.7571 37.5509C27.732 37.5761 27.7068 37.6014 27.6879 37.6329C27.6754 37.6455 27.6691 37.6645 27.6628 37.6834C27.6565 37.7023 27.6502 37.7149 27.6439 37.7339C27.6565 37.7213 27.6691 37.7086 27.6817 37.696C27.6942 37.6834 27.7068 37.6708 27.7194 37.6582C27.7446 37.6329 27.7697 37.614 27.7949 37.5887C27.82 37.5698 27.8452 37.5446 27.8766 37.5256C27.9018 37.5067 27.9332 37.4878 27.9647 37.4752C27.9269 37.4752 27.8892 37.4815 27.8515 37.4941Z" fill="#21314D"/>
<path d="M27.4869 36.5289C27.4555 36.4974 27.4114 36.4722 27.3674 36.4595C27.3234 36.4406 27.2731 36.4343 27.229 36.4406C27.1787 36.4469 27.1347 36.4722 27.1033 36.51C27.0718 36.5479 27.0529 36.592 27.0404 36.6362C27.0152 36.7246 27.0215 36.8255 27.0592 36.9076C27.0781 36.9517 27.1033 36.9896 27.1347 37.0211C27.1662 37.0527 27.2102 37.0779 27.2542 37.0969C27.2982 37.1095 27.3423 37.1158 27.3863 37.1158C27.4303 37.1095 27.4743 37.1032 27.5184 37.0906C27.5372 37.0843 27.5624 37.0779 27.5813 37.0716C27.6001 37.0653 27.6253 37.059 27.6442 37.0464L27.6756 37.0338C27.6882 37.0275 27.6945 37.0211 27.707 37.0211L27.7637 36.9896C27.7196 37.0085 27.6819 37.0275 27.6442 37.0401C27.6253 37.0464 27.6064 37.0527 27.5813 37.059C27.5624 37.0653 27.5372 37.0716 27.5184 37.0716C27.4743 37.0843 27.4366 37.0843 27.3926 37.0843C27.3485 37.0843 27.3108 37.0779 27.2731 37.059C27.2353 37.0464 27.2039 37.0211 27.1724 36.9896C27.1473 36.958 27.1221 36.9265 27.1095 36.8886C27.0781 36.8129 27.0781 36.7246 27.097 36.6488C27.1095 36.611 27.1221 36.5731 27.1473 36.5416C27.1724 36.51 27.2039 36.4911 27.2416 36.4848C27.2794 36.4785 27.3234 36.4848 27.3611 36.4974C27.3989 36.51 27.4366 36.5353 27.468 36.5605C27.5309 36.611 27.5875 36.6804 27.6379 36.7498C27.6882 36.8192 27.7259 36.8949 27.7637 36.977C27.7385 36.8949 27.7008 36.8129 27.6567 36.7372C27.6064 36.6615 27.5561 36.5857 27.4869 36.5289Z" fill="#21314D"/>
<path d="M28.3235 36.6307C28.2921 36.6054 28.2606 36.5865 28.2229 36.5739C28.1852 36.5613 28.1412 36.5676 28.1034 36.5802C28.0657 36.5928 28.0342 36.6118 28.0028 36.6307C27.9462 36.6749 27.8959 36.7317 27.8581 36.7884C27.8204 36.8452 27.7827 36.9083 27.7512 36.9714C27.789 36.9147 27.833 36.8579 27.877 36.8011C27.921 36.7506 27.9713 36.7001 28.0279 36.6622C28.0531 36.6433 28.0845 36.6307 28.116 36.6181C28.1474 36.6118 28.1789 36.6118 28.2103 36.6181C28.2418 36.6244 28.2669 36.6433 28.2921 36.6622C28.3173 36.6875 28.3361 36.7127 28.355 36.738C28.3739 36.7632 28.3801 36.7948 28.3739 36.82C28.3676 36.8452 28.355 36.8768 28.3298 36.8957C28.2858 36.9399 28.2229 36.9714 28.1537 36.9904C28.1223 37.003 28.0845 37.0093 28.0531 37.0093C28.0217 37.0156 27.9839 37.0156 27.9525 37.0156C27.8833 37.0156 27.8141 37.003 27.7512 36.9651C27.7764 36.9904 27.8078 37.0093 27.8456 37.0156C27.877 37.0282 27.9147 37.0345 27.9525 37.0409C28.0217 37.0472 28.0971 37.0409 28.1663 37.0282C28.204 37.0219 28.2355 37.0093 28.2732 36.9904C28.3047 36.9778 28.3424 36.9525 28.3676 36.9273C28.3927 36.902 28.4179 36.8642 28.4242 36.82C28.4305 36.7758 28.4179 36.738 28.399 36.7001C28.3801 36.6875 28.355 36.6622 28.3235 36.6307Z" fill="#21314D"/>
<path d="M27.4113 36.8954C27.3735 36.9017 27.3295 36.9143 27.2918 36.927C27.254 36.9396 27.2163 36.9648 27.1849 36.9901C27.166 37.0027 27.1534 37.0153 27.1408 37.0279C27.1345 37.0342 27.1283 37.0405 27.1157 37.0469L27.0968 37.0658C27.0402 37.1226 26.9962 37.192 26.9647 37.2614C27.015 37.2046 27.0654 37.1478 27.1283 37.0973C27.1849 37.0469 27.2478 37.0027 27.3169 36.9774C27.3861 36.9459 27.4553 36.9333 27.5308 36.9333C27.6063 36.9333 27.6817 36.9522 27.7509 36.9774C27.688 36.927 27.6125 36.9017 27.5308 36.8891C27.493 36.8891 27.4553 36.8891 27.4113 36.8954Z" fill="#21314D"/>
<path d="M34.751 15.7683L28.015 14.5694L27.8389 15.1058C27.8389 15.1058 27.6628 15.9198 27.6943 16.7969C27.732 17.6677 27.1408 18.7909 27.1408 18.7909C27.1408 18.7909 25.9836 20.8102 26.9836 22.0659C27.9773 23.3216 29.9836 22.8231 29.9836 22.8231L35.2164 22.495C35.2164 22.495 37.2919 21.4223 35.9397 19.0118C34.5874 16.6013 34.751 15.7683 34.751 15.7683Z" fill="#37476F"/>
<path d="M29.0655 22.9305C28.9963 22.9305 28.9271 22.9305 28.8579 22.9242C28.2856 22.8926 27.4931 22.7222 26.9774 22.0723C26.4616 21.4223 26.5308 20.5641 26.6818 19.9584C26.8453 19.3021 27.1346 18.7973 27.1346 18.791C27.1409 18.7784 27.7195 17.6615 27.6818 16.797C27.6441 15.9325 27.8202 15.1121 27.8264 15.1058L28.0088 14.5568H28.0151L34.7574 15.7558V15.7621C34.7574 15.7684 34.6127 16.6266 35.946 19.0055C36.3863 19.788 36.5121 20.5137 36.3171 21.1636C36.0467 22.0723 35.2291 22.5014 35.2228 22.5014H35.2165L29.9837 22.8295C29.9837 22.8358 29.5875 22.9305 29.0655 22.9305ZM28.0214 14.5821L27.8453 15.1121C27.8453 15.1184 27.6692 15.9388 27.7069 16.797C27.7447 17.6615 27.1598 18.7847 27.1535 18.7973C27.1535 18.8036 26.8642 19.3084 26.7006 19.9647C26.5497 20.5642 26.4805 21.416 26.99 22.066C27.4994 22.7096 28.2856 22.88 28.8579 22.9116C29.4743 22.9431 29.9774 22.8232 29.9837 22.8169L35.2165 22.4888C35.2542 22.4698 36.0404 22.0407 36.3045 21.1573C36.4995 20.5137 36.3737 19.7943 35.9335 19.0181C35.5498 18.3303 35.0467 17.3333 34.8328 16.4877C34.7196 16.0334 34.7385 15.8189 34.7448 15.7747L28.0214 14.5821Z" fill="#37476F"/>
<path d="M28.4806 16.4874C28.4618 16.5126 28.4429 16.5316 28.424 16.5568C28.3863 16.601 28.3486 16.6451 28.3045 16.683C28.2228 16.765 28.1284 16.8344 28.0278 16.8849C27.9272 16.9354 27.814 16.967 27.6945 16.9607C27.7511 16.9733 27.814 16.9733 27.8706 16.967C27.9272 16.9607 27.9901 16.9417 28.0467 16.9228C28.1033 16.9039 28.1536 16.8723 28.2039 16.8344C28.2542 16.8029 28.2983 16.7587 28.3423 16.7209C28.3611 16.7019 28.3863 16.6767 28.4052 16.6578C28.4178 16.6451 28.424 16.6325 28.4366 16.6262L28.4618 16.5884C28.4806 16.5631 28.4995 16.5379 28.5121 16.5189C28.531 16.4937 28.5435 16.4685 28.5624 16.4432C28.6253 16.3423 28.6756 16.235 28.7134 16.1214C28.6568 16.2224 28.5939 16.3233 28.531 16.418L28.4806 16.4874Z" fill="#6D8AE2"/>
<path d="M28.1597 16.8469H28.1219V22.6586H28.1597V16.8469Z" fill="#6D8AE2"/>
<path d="M28.141 18.7841H27.2354V18.8219H28.141V18.7841Z" fill="#6D8AE2"/>
<path d="M27.8328 18.7974H27.795V18.9299H27.8328V18.7974Z" fill="#6D8AE2"/>
<path d="M27.814 19.2832C27.7762 19.2832 27.7448 19.258 27.7259 19.2264C27.6882 19.1318 27.7448 19.0056 27.7762 18.9362C27.7825 18.9235 27.7951 18.9172 27.8077 18.9172C27.8203 18.9172 27.8328 18.9235 27.8391 18.9362C27.902 19.0561 27.9209 19.157 27.8894 19.2264C27.8832 19.2643 27.8517 19.2832 27.814 19.2832ZM27.814 18.9488C27.7888 18.9993 27.7322 19.1255 27.7636 19.2138C27.7762 19.2391 27.7951 19.2517 27.814 19.2517C27.8328 19.2517 27.858 19.2454 27.8643 19.2138C27.8894 19.1507 27.8769 19.0561 27.814 18.9488Z" fill="#6D8AE2"/>
<path d="M34.0468 11.5404H28.3109V13.566H34.0154C34.1034 13.566 34.1852 13.5092 34.2166 13.4272C34.5122 12.6699 34.3047 11.9253 34.204 11.654C34.1852 11.5909 34.1223 11.5404 34.0468 11.5404Z" fill="#21314D"/>
<path d="M34.0216 13.5788H28.3046V11.5343H34.0467C34.1222 11.5343 34.1914 11.5848 34.2165 11.6542C34.3172 11.9382 34.5247 12.6764 34.2291 13.4337C34.1977 13.522 34.1096 13.5788 34.0216 13.5788ZM28.3234 13.5662H34.0216C34.1096 13.5662 34.1851 13.5094 34.2165 13.4337C34.5058 12.6764 34.3046 11.9445 34.204 11.6668C34.1788 11.6037 34.1222 11.5595 34.053 11.5595H28.3297V13.5662H28.3234Z" fill="#21314D"/>
<path d="M28.3109 13.5721C28.7173 13.5721 29.0468 13.1201 29.0468 12.5625C29.0468 12.0049 28.7173 11.5529 28.3109 11.5529C27.9045 11.5529 27.5751 12.0049 27.5751 12.5625C27.5751 13.1201 27.9045 13.5721 28.3109 13.5721Z" fill="#4862E2"/>
<path d="M28.3109 13.5788C27.9021 13.5788 27.5687 13.1244 27.5687 12.5628C27.5687 12.0012 27.9021 11.5469 28.3109 11.5469C28.7197 11.5469 29.053 12.0012 29.053 12.5628C29.053 13.1244 28.7197 13.5788 28.3109 13.5788ZM28.3109 11.5658C27.9084 11.5658 27.5876 12.0138 27.5876 12.5628C27.5876 13.1118 27.9146 13.5598 28.3109 13.5598C28.7134 13.5598 29.0342 13.1118 29.0342 12.5628C29.0405 12.0138 28.7134 11.5658 28.3109 11.5658Z" fill="#4862E2"/>
<path d="M29.9839 11.5404C29.9839 11.5404 30.7009 12.5185 29.9839 13.566H30.3801C30.3801 13.566 30.9965 12.6573 30.355 11.5404H29.9839Z" fill="#37476F"/>
<path d="M30.3926 13.5788H29.9713L29.9775 13.5662C30.3423 13.0235 30.3234 12.5061 30.2417 12.1653C30.1536 11.793 29.9775 11.5532 29.9775 11.5469L29.965 11.5343H30.3612V11.5406C30.6945 12.1212 30.6819 12.6449 30.6127 12.9793C30.5499 13.3453 30.3926 13.5725 30.3926 13.5788ZM30.0027 13.5662H30.38C30.3989 13.5346 30.5373 13.3138 30.6065 12.9793C30.6756 12.6449 30.6819 12.1275 30.3612 11.5595H30.009C30.0467 11.6163 30.1914 11.8435 30.2668 12.1716C30.3423 12.5061 30.3612 13.0235 30.0027 13.5662Z" fill="#37476F"/>
<path d="M30.6881 11.2373C30.6881 11.2373 30.7133 11.6601 30.7573 11.9377C30.8076 12.2154 31.7699 12.2406 31.7699 12.2406L31.619 10.4611L30.6881 11.2373Z" fill="#E8771D"/>
<path d="M31.7825 12.2468H31.7699C31.7322 12.2468 30.7951 12.2216 30.7511 11.9376C30.7008 11.6599 30.6819 11.2435 30.6819 11.2372V11.2309L31.6316 10.4421V10.461L31.7825 12.2468ZM30.6945 11.2372C30.6945 11.2813 30.7196 11.6726 30.7636 11.9313C30.8077 12.1837 31.6567 12.2216 31.7574 12.2279L31.6127 10.4736L30.6945 11.2372Z" fill="#E8771D"/>
<path d="M35.1537 23.5805L32.6883 22.6781L31.4681 23.7887L32.1285 26.7293L32.7952 29.7582C32.8204 29.878 32.8455 29.9979 32.8581 30.1241L33.8581 37.16C33.8581 37.16 35.6506 37.2358 36.5814 36.5543L35.833 29.6761L35.1537 23.5805Z" fill="#21314D"/>
<path d="M34.009 37.1663C33.9147 37.1663 33.8581 37.1663 33.8581 37.1663H33.8518L32.8518 30.1178C32.8329 29.9979 32.814 29.8717 32.7889 29.7518L32.1222 26.7229L31.4618 23.7823L31.4681 23.776L32.6882 22.6591L35.1663 23.5678V23.5741L35.8392 29.6698L36.5877 36.5479H36.5814C36.0971 36.9013 35.3801 37.0464 34.8644 37.1032C34.5059 37.16 34.1851 37.1663 34.009 37.1663ZM33.8643 37.1474C33.9272 37.1474 34.3486 37.16 34.8707 37.0969C35.3801 37.0338 36.0908 36.8886 36.5751 36.5479L35.8266 29.6761L35.1537 23.5867L32.6945 22.6844L31.4869 23.7886L32.1473 26.7229L32.814 29.7518C32.8392 29.8717 32.8643 29.9979 32.8769 30.1178L33.8643 37.1474Z" fill="#21314D"/>
<path d="M28.9965 23.5111L29.0531 28.187C29.0531 28.2122 29.0594 28.2374 29.0656 28.2627L29.1223 28.4267C29.1348 28.4709 29.1285 28.5214 29.1034 28.5593L29.0405 28.6476C29.0153 28.6855 28.9902 28.7233 28.9713 28.7612L25.9147 35.5005C25.9147 35.5005 26.7574 36.3965 28.1977 36.8193L31.7198 29.9349C31.7198 29.9349 32.1034 29.0199 32.1223 28.1365C32.1412 27.2594 32.1223 23.1893 32.1223 23.1893L28.9965 23.5111Z" fill="#37476F"/>
<path d="M28.1977 36.8384H28.1914C26.7637 36.4219 25.9146 35.5258 25.902 35.5132L25.8958 35.5069V35.5006L28.9524 28.7613C28.9713 28.7171 28.9964 28.6793 29.0216 28.6414L29.0845 28.5531C29.1096 28.5152 29.1159 28.471 29.1033 28.4269L29.0467 28.2628C29.0404 28.2375 29.0341 28.2123 29.0341 28.1871L28.9775 23.5049L32.1222 23.1768V23.1894C32.1222 23.2272 32.1411 27.2658 32.1222 28.1366C32.1034 29.0074 31.726 29.9287 31.7197 29.935L28.1977 36.8384ZM25.9209 35.5069C25.9838 35.5763 26.8203 36.4156 28.1914 36.8194L31.7134 29.935C31.7197 29.9287 32.0971 29.0074 32.1159 28.1429C32.1348 27.291 32.1159 23.4292 32.1159 23.202L29.009 23.5238L29.0656 28.1934C29.0656 28.2186 29.0719 28.2439 29.0782 28.2628L29.1348 28.4269C29.1536 28.4773 29.1411 28.5278 29.1096 28.5657L29.0467 28.654C29.0216 28.6919 28.9964 28.7297 28.9775 28.7676L25.9209 35.5069Z" fill="#37476F"/>
<path d="M29.6505 21.5421L28.9776 22.3435C28.9776 22.3435 28.7637 23.126 28.7449 23.8075C28.7449 23.8075 30.5185 24.7855 31.9776 24.0409C33.4367 23.2963 34.7323 24.0031 34.7323 24.0031C34.7323 24.0031 35.0342 24.1608 35.355 24.1482C35.355 24.1482 35.4242 23.2017 35.1789 22.3498L29.6505 21.5421Z" fill="#BBC9F7"/>
<path d="M30.7385 24.325C30.468 24.325 30.1599 24.2934 29.814 24.2114C29.1913 24.0599 28.7448 23.8138 28.7385 23.8138H28.7322V23.8075C28.751 23.1386 28.9586 22.3499 28.9649 22.3436V22.3372L29.6441 21.5295H29.6504L35.1851 22.3309V22.3372C35.4304 23.1828 35.3612 24.1293 35.3612 24.142V24.1483H35.3549C35.0341 24.1672 34.7323 24.0031 34.726 24.0031C34.7197 24.0031 34.3989 23.8265 33.8958 23.7381C33.4366 23.6624 32.7259 23.6498 31.9775 24.0347C31.7008 24.1861 31.292 24.325 30.7385 24.325ZM28.7573 23.8012C28.8076 23.8265 29.2353 24.0536 29.8202 24.1924C30.3926 24.3313 31.2291 24.4133 31.9775 24.0284C32.7322 23.6435 33.4429 23.6498 33.9083 23.7318C34.4115 23.8138 34.7385 23.9968 34.7448 23.9968C34.7448 23.9968 35.0404 24.1546 35.3549 24.1357C35.3612 24.041 35.4115 23.1513 35.1788 22.3499L29.663 21.5485L28.9963 22.3436C28.9712 22.3877 28.7699 23.145 28.7573 23.8012Z" fill="#BBC9F7"/>
<path d="M33.6002 23.2392C33.3361 23.2077 33.0656 23.2203 32.8015 23.2708C32.6694 23.296 32.5373 23.3276 32.4115 23.3781C32.3801 23.3907 32.3487 23.4033 32.3172 23.4159L32.2229 23.4538C32.16 23.479 32.1034 23.5043 32.0405 23.5232C31.7952 23.6115 31.5373 23.6873 31.2795 23.7314C31.2166 23.7441 31.1474 23.7567 31.0845 23.763C31.053 23.7693 31.0216 23.7693 30.9839 23.7756L30.8832 23.7819C30.7511 23.7882 30.6191 23.7945 30.487 23.7945C30.3549 23.7945 30.2228 23.7819 30.0908 23.763C29.9587 23.7441 29.8329 23.7188 29.7008 23.6873C29.575 23.6557 29.4492 23.6179 29.3235 23.5674C29.2606 23.5421 29.204 23.5169 29.1411 23.4916C29.0782 23.4664 29.0216 23.4349 28.965 23.397C29.0782 23.4727 29.1977 23.5295 29.3172 23.58C29.4367 23.6305 29.5625 23.6746 29.6945 23.7125C29.8203 23.7504 29.9524 23.7756 30.0845 23.7945C30.2166 23.8135 30.3486 23.8261 30.4807 23.8324C30.7449 23.845 31.0153 23.8198 31.2795 23.7756C31.5436 23.7314 31.8015 23.662 32.053 23.5737C32.1159 23.5484 32.1788 23.5232 32.2417 23.498L32.3361 23.4601C32.3675 23.4475 32.399 23.4349 32.4241 23.4222C32.5499 23.3781 32.6757 23.3402 32.8015 23.315C32.9336 23.2897 33.0593 23.2771 33.1914 23.2708C33.2229 23.2708 33.2543 23.2708 33.2921 23.2708H33.3927C33.4241 23.2708 33.4556 23.2708 33.4933 23.2771C33.5248 23.2771 33.5562 23.2834 33.5939 23.2834C33.8581 23.3087 34.116 23.3654 34.3612 23.4601C34.487 23.5043 34.6065 23.5611 34.726 23.6179L34.8141 23.662C34.8455 23.681 34.8707 23.6936 34.9021 23.7125L34.9462 23.7377L34.9902 23.763L35.0719 23.8135C34.8581 23.662 34.6191 23.5295 34.3738 23.4285C34.1223 23.3339 33.8644 23.2645 33.6002 23.2392Z" fill="#6D8AE2"/>
<path d="M33.2858 22.8171C33.1537 22.8171 33.0153 22.8234 32.8832 22.836C32.6128 22.8676 32.3487 22.937 32.0971 23.0379L32.0027 23.0758L31.9587 23.0947L31.9084 23.1073L31.8141 23.1389C31.7826 23.1515 31.7512 23.1578 31.7197 23.1641C31.6568 23.1831 31.5876 23.1957 31.5247 23.2146C31.4933 23.2209 31.4618 23.2272 31.4241 23.2336C31.3927 23.2399 31.3612 23.2462 31.3235 23.2525L31.2229 23.2651C31.1914 23.2714 31.1537 23.2714 31.1222 23.2777C31.053 23.284 30.9901 23.2903 30.921 23.2967C30.7889 23.303 30.6568 23.303 30.5184 23.2967C30.2543 23.284 29.9838 23.2462 29.726 23.1894C29.5939 23.1578 29.4681 23.1263 29.336 23.0821C29.2731 23.0632 29.2103 23.0379 29.1474 23.0127C29.0845 22.9875 29.0216 22.9622 28.965 22.9307C29.0845 22.9938 29.2103 23.0442 29.336 23.0884C29.4618 23.1326 29.5939 23.1768 29.7197 23.2083C29.9776 23.2777 30.248 23.3156 30.5184 23.3345C31.0593 23.3661 31.6002 23.284 32.1097 23.0884C32.3549 22.9875 32.6191 22.918 32.8832 22.8865C33.0153 22.8739 33.1474 22.8612 33.2795 22.8612C33.4116 22.8612 33.5436 22.8739 33.6757 22.8865C33.9399 22.9243 34.1977 22.9875 34.4493 23.0821C34.5751 23.1263 34.7009 23.1831 34.8204 23.2399C34.8833 23.2714 34.9399 23.303 34.9965 23.3345C35.0531 23.3661 35.1097 23.4039 35.1663 23.4418C34.726 23.1263 34.2166 22.9244 33.682 22.8423C33.5562 22.8297 33.4241 22.8171 33.2858 22.8171Z" fill="#6D8AE2"/>
<path d="M32.8329 22.4516C32.8398 22.4516 32.8398 22.4516 32.8329 22.4516C32.8398 22.4516 32.8398 22.4516 32.8468 22.4446L32.8329 22.4516Z" fill="#6D8AE2"/>
<path d="M34.1977 22.5772C34.1537 22.5646 34.1096 22.552 34.0656 22.5393C34.0405 22.533 34.0216 22.5267 33.9964 22.5204L33.9273 22.5015L33.8581 22.4826L33.8266 22.4762L33.7952 22.4699L33.6568 22.4447L33.5184 22.4258C33.4744 22.4195 33.4241 22.4131 33.3801 22.4068C33.1977 22.3879 33.009 22.3816 32.8266 22.4005H32.8203L32.814 22.4068C32.8015 22.4131 32.7826 22.4258 32.7637 22.4321C32.7448 22.4384 32.7323 22.451 32.7134 22.4573C32.6757 22.4699 32.6442 22.4889 32.6065 22.5015C32.5687 22.5141 32.5373 22.5267 32.4996 22.5393C32.4618 22.552 32.4241 22.5646 32.3926 22.5772C32.248 22.6214 32.097 22.6592 31.9461 22.6971C31.8706 22.716 31.7951 22.7287 31.7197 22.7476C31.6442 22.7602 31.5687 22.7728 31.4933 22.7917C31.4178 22.8044 31.3423 22.817 31.2668 22.8296L31.1536 22.8422C31.1159 22.8485 31.0782 22.8548 31.0404 22.8548C30.7322 22.8801 30.4241 22.8801 30.1159 22.8359C29.9649 22.817 29.8077 22.7918 29.6568 22.7539C29.5813 22.735 29.5058 22.716 29.4303 22.6908C29.3549 22.6656 29.2794 22.6466 29.2102 22.6151C29.3549 22.6782 29.4995 22.7286 29.6505 22.7665C29.8014 22.8044 29.9524 22.8359 30.1096 22.8612C30.1473 22.8675 30.1851 22.8738 30.2228 22.8738L30.2794 22.8801C30.2983 22.8801 30.3171 22.8864 30.336 22.8864L30.4555 22.899C30.4932 22.899 30.531 22.9053 30.575 22.9053C30.6127 22.9053 30.6505 22.9116 30.6945 22.9116H30.814H30.8706C30.8895 22.9116 30.9083 22.9116 30.9272 22.9053L31.0467 22.899C31.0844 22.899 31.1222 22.8927 31.1662 22.8864L31.2794 22.8738C31.3172 22.8675 31.3549 22.8612 31.3926 22.8548L31.5058 22.8359C31.5813 22.8233 31.6568 22.8107 31.7323 22.7917C31.8077 22.7791 31.8832 22.7602 31.9587 22.7413C32.0341 22.7223 32.1096 22.7034 32.1851 22.6845L32.2983 22.6529C32.336 22.6403 32.3738 22.6277 32.4115 22.6214C32.4492 22.6088 32.487 22.5961 32.5247 22.5835C32.5625 22.5709 32.6002 22.5583 32.6379 22.5457C32.6757 22.533 32.7134 22.5141 32.7448 22.5015C32.7637 22.4952 32.7826 22.4826 32.8015 22.4762C32.8203 22.4699 32.8329 22.4573 32.8518 22.451H32.8455L32.8581 22.4447C32.8581 22.4447 32.8518 22.4447 32.8518 22.451C33.0279 22.4384 33.2103 22.4384 33.3927 22.451C33.4367 22.4573 33.4807 22.4573 33.531 22.4636L33.6694 22.4826L33.8078 22.5078L33.8392 22.5141L33.8706 22.5204L33.9398 22.533L34.009 22.5457C34.0342 22.552 34.053 22.5583 34.0782 22.5646C34.1222 22.5772 34.1663 22.5898 34.2103 22.6024C34.2983 22.634 34.3864 22.6592 34.4681 22.6908C34.638 22.7539 34.8015 22.8359 34.965 22.9243C34.8078 22.8296 34.6442 22.7413 34.4744 22.6719C34.3738 22.634 34.2857 22.6088 34.1977 22.5772Z" fill="#6D8AE2"/>
<path d="M24.8829 8.04433C24.8452 7.94967 24.8326 7.8424 24.8389 7.73513L24.9207 6.90218C24.9332 6.80121 24.9018 6.69394 24.8389 6.61191C24.7257 6.46046 24.537 6.20806 24.4238 6.06292C24.3169 5.91779 24.0842 5.94934 24.0276 6.12602C24.0213 6.14495 24.015 6.17019 24.0087 6.19543C24.0087 6.19543 23.776 6.0503 23.6376 6.40998C23.6376 6.40998 23.3483 6.37212 23.2854 6.7318C23.2854 6.7318 23.0213 6.68763 22.971 6.98421C22.9332 7.20507 23.0905 7.69726 23.1722 7.93705C23.2037 8.0254 23.254 8.10743 23.3169 8.17684L23.581 8.4608C23.6251 8.51128 23.6628 8.56176 23.7005 8.61855L23.9521 9.04765L25.0087 8.30936C24.9898 8.30304 24.9269 8.15791 24.8829 8.04433Z" fill="#F3B688"/>
<path d="M23.9459 9.06039L23.688 8.62499C23.6566 8.5682 23.6125 8.51771 23.5685 8.46723L23.3044 8.18327C23.2415 8.11386 23.1911 8.03183 23.1597 7.94349C23.0654 7.67846 22.9207 7.20519 22.9521 6.98433C22.971 6.88968 23.0087 6.81396 23.0716 6.76979C23.1471 6.71299 23.2415 6.7193 23.2666 6.7193C23.3295 6.39748 23.5748 6.39748 23.6188 6.39748C23.6691 6.27128 23.732 6.18925 23.8201 6.16401C23.8956 6.13876 23.9647 6.16401 23.9899 6.17663C23.9962 6.1577 24.0025 6.13245 24.0088 6.11352C24.0339 6.03149 24.1031 5.96839 24.1912 5.95577C24.2792 5.94315 24.3673 5.9747 24.4176 6.05042C24.5245 6.18925 24.7132 6.44796 24.8327 6.59941C24.8956 6.68144 24.927 6.78872 24.9207 6.89599L24.8453 7.72894C24.8327 7.8299 24.8516 7.93718 24.8893 8.03183C24.9773 8.26531 25.0025 8.29055 25.0088 8.29686L25.0277 8.30317L25.0088 8.31579L23.9459 9.06039ZM23.2415 6.73823C23.2037 6.73823 23.1408 6.74454 23.0842 6.78241C23.0276 6.82658 22.9899 6.88968 22.971 6.98433C22.9333 7.20519 23.1031 7.72263 23.1723 7.93086C23.2037 8.01921 23.2477 8.09493 23.3106 8.16434L23.5748 8.4483C23.6188 8.49878 23.6629 8.54927 23.6943 8.61237L23.9396 9.02884L24.9773 8.30317C24.9648 8.28424 24.9333 8.22744 24.8578 8.03814C24.8201 7.93717 24.8075 7.8299 24.8138 7.72894L24.8893 6.89599C24.8956 6.79503 24.8704 6.69406 24.8075 6.61203C24.688 6.46059 24.4993 6.20187 24.3924 6.06304C24.3421 5.99994 24.2603 5.96208 24.1786 5.98101C24.0968 5.99363 24.0339 6.05042 24.0088 6.12614C24.0025 6.14507 23.9962 6.17032 23.9899 6.19556V6.20818L23.9773 6.20187C23.9773 6.20187 23.8956 6.15138 23.8075 6.18294C23.7257 6.20818 23.6629 6.29021 23.6188 6.41641V6.42272H23.6125C23.6 6.42272 23.3295 6.39117 23.2666 6.73823V6.74454H23.2603C23.2792 6.73823 23.2666 6.73823 23.2415 6.73823Z" fill="#F3B688"/>
<path d="M23.6356 6.99291L11.2134 13.525L11.263 13.62L23.6852 7.08793L23.6356 6.99291Z" fill="#21314D"/>
<path d="M13.4049 12.196C13.3671 12.1266 13.2791 12.1077 13.2099 12.1455L13.1281 12.1897C13.059 12.2275 13.0401 12.3159 13.0778 12.3853L13.2791 12.7387C13.3168 12.8081 13.4049 12.827 13.4741 12.7892L13.5558 12.745C13.625 12.7071 13.6439 12.6188 13.6061 12.5494L13.4049 12.196Z" fill="#B0C3FE"/>
<path d="M23.2791 6.73126L23.0905 7.19191L23.3043 7.58945C23.3357 7.64624 23.3798 7.69041 23.4427 7.70935C23.5055 7.73459 23.5433 7.71566 23.5559 7.71566C23.5621 7.71566 23.5621 7.70935 23.5684 7.70935C23.6502 7.6841 23.6691 7.60838 23.6691 7.53897C23.6691 7.46956 23.6502 7.40015 23.6188 7.34335L23.2791 6.73126Z" fill="#F3B688"/>
<path d="M23.5119 7.74741C23.493 7.74741 23.4679 7.7411 23.4364 7.73479C23.3735 7.70955 23.3232 7.66538 23.2918 7.60858L23.0717 7.19842L23.2792 6.6936L23.6377 7.33725C23.6754 7.40035 23.6943 7.47607 23.6943 7.54548C23.6943 7.64645 23.6566 7.70955 23.5811 7.73479C23.5748 7.73479 23.5748 7.73479 23.5685 7.7411C23.5559 7.7411 23.5371 7.74741 23.5119 7.74741ZM23.1094 7.19211L23.3169 7.58334C23.3484 7.63382 23.3924 7.678 23.4427 7.69693C23.4993 7.71586 23.5371 7.70324 23.5434 7.70324C23.5496 7.70324 23.5559 7.69693 23.5559 7.69693C23.6125 7.678 23.644 7.62751 23.644 7.54548C23.644 7.48238 23.6251 7.41928 23.5937 7.35618L23.2855 6.77564L23.1094 7.19211Z" fill="#D56E3D"/>
<path d="M23.663 6.61853L23.3359 6.82677L23.663 7.45148C23.663 7.45148 23.707 7.54613 23.8391 7.55875C23.8831 7.56506 23.9271 7.54613 23.9586 7.51458C23.9774 7.49565 24.0026 7.4641 24.0152 7.41362C24.0278 7.37575 24.0215 7.33158 24.0026 7.29372L23.663 6.61853Z" fill="#F3B688"/>
<path d="M23.858 7.57757C23.8517 7.57757 23.8454 7.57757 23.8391 7.57757C23.6944 7.56495 23.6504 7.46399 23.6441 7.46399L23.3108 6.82665L23.6693 6.59949L24.0152 7.29992C24.0341 7.34409 24.0404 7.38826 24.0278 7.43244C24.0152 7.47661 23.9963 7.50816 23.9712 7.53971C23.9397 7.55864 23.902 7.57757 23.858 7.57757ZM23.3548 6.83297L23.6756 7.44506C23.6756 7.45137 23.7196 7.52709 23.8391 7.53971C23.8768 7.54602 23.9146 7.52709 23.9397 7.50185C23.9649 7.47661 23.9775 7.44506 23.99 7.4135C23.9963 7.38195 23.9963 7.34409 23.9775 7.30623L23.6504 6.64366L23.3548 6.83297Z" fill="#D56E3D"/>
<path d="M24.1228 7.33737L24.0024 7.30558C23.9961 7.29923 24.0721 7.33101 24.1228 7.33737Z" fill="#F3B688"/>
<path d="M24.2604 7.3563L24.1157 7.34999C24.0591 7.34999 23.9899 7.31213 23.9836 7.31213L23.9962 7.28058L24.2604 7.3563Z" fill="#D56E3D"/>
<path d="M24.5686 6.80179C24.5057 6.70714 24.4051 6.52415 24.3359 6.39794C24.2856 6.3096 24.2038 6.2465 24.1032 6.23388L23.5812 6.15184C23.4554 6.13291 23.3422 6.22125 23.3296 6.35377C23.3296 6.36639 23.3296 6.3727 23.3296 6.38532C23.3296 6.53046 23.6755 6.63142 23.839 6.67559C23.9019 6.68821 23.9585 6.72607 23.9963 6.77655C24.034 6.82704 24.0843 6.89645 24.1283 6.96586C24.1724 7.03527 24.1849 7.12361 24.1598 7.19934C24.0969 7.39495 23.99 7.80512 24.122 8.15849L24.751 6.93431C24.751 6.928 24.6755 6.95955 24.5686 6.80179Z" fill="#F3B688"/>
<path d="M24.122 8.19635L24.1094 8.15849C23.9773 7.81142 24.078 7.40126 24.1471 7.19302C24.1723 7.1173 24.1597 7.04158 24.122 6.97217C24.078 6.90275 24.0214 6.83334 23.9899 6.78286C23.9522 6.73869 23.9019 6.70083 23.8453 6.68821C23.3924 6.57462 23.3232 6.44842 23.3232 6.38532C23.3232 6.3727 23.3232 6.36008 23.3232 6.35377C23.3295 6.29066 23.361 6.22756 23.4113 6.1897C23.4616 6.14553 23.5308 6.13291 23.5937 6.13922L24.1157 6.22125C24.2226 6.24018 24.3107 6.30328 24.361 6.39794C24.4302 6.53045 24.5308 6.70714 24.5937 6.80179C24.688 6.94062 24.7572 6.91537 24.7572 6.91537L24.8012 6.89644L24.7824 6.94062L24.122 8.19635ZM23.5497 6.17077C23.5056 6.17077 23.4616 6.18339 23.4239 6.21494C23.3798 6.2528 23.3547 6.30328 23.3484 6.35377C23.3484 6.36639 23.3484 6.3727 23.3484 6.38532C23.3484 6.47997 23.5371 6.58093 23.8453 6.65666C23.9082 6.67559 23.971 6.71345 24.0088 6.76393C24.0465 6.8081 24.0968 6.87751 24.1409 6.95324C24.1912 7.02896 24.1975 7.1173 24.1723 7.19933C24.1031 7.40126 24.0151 7.77356 24.1157 8.108L24.7132 6.94693C24.6755 6.94062 24.6126 6.92168 24.5434 6.81441C24.4805 6.71976 24.3799 6.54307 24.3107 6.41056C24.2666 6.32853 24.1849 6.26542 24.0905 6.2528L23.5685 6.17077C23.5748 6.17077 23.5622 6.17077 23.5497 6.17077Z" fill="#D56E3D"/>
<path d="M23.8075 8.80849L23.9144 8.99779L24.9207 8.12068C24.9207 8.12068 24.8515 7.97554 24.8389 7.90613C24.8389 7.91244 24.1471 8.19009 23.8075 8.80849Z" fill="#EC7B5E"/>
<path d="M23.9145 9.01046L23.795 8.80853V8.80222C24.1284 8.19013 24.8202 7.89986 24.8328 7.89986L24.8454 7.89355V7.90618C24.8579 7.96928 24.9271 8.11441 24.9271 8.11441V8.12072L23.9145 9.01046ZM23.8202 8.80853L23.9208 8.97891L24.9083 8.11441C24.8957 8.08917 24.8454 7.9819 24.8328 7.9188C24.7447 7.95666 24.1284 8.24693 23.8202 8.80853Z" fill="#EC7B5E"/>
<path d="M28.9775 21.9336V22.3438C28.9775 22.3438 32.5499 23.0569 35.1789 22.3438C35.1789 22.3438 35.16 22.0788 35.2669 21.7759C32.8141 22.6088 28.9775 21.9336 28.9775 21.9336Z" fill="white"/>
<path d="M32.3927 22.6655C31.921 22.6655 31.4745 22.6466 31.0908 22.615C29.8833 22.5267 28.9839 22.35 28.9776 22.35H28.9713V21.9209H28.9776C28.9902 21.9209 29.9525 22.0913 31.204 22.1544C33.2984 22.2617 34.5689 21.9966 35.267 21.7631L35.2796 21.7568L35.2733 21.7695C35.1663 22.066 35.1852 22.3374 35.1852 22.3374V22.3437H35.1789C34.2858 22.5898 33.2858 22.6655 32.3927 22.6655ZM28.9839 22.3374C29.0594 22.35 29.9336 22.5204 31.0908 22.6024C32.2041 22.6844 33.8141 22.7034 35.1726 22.3374C35.1726 22.2995 35.1663 22.0534 35.2607 21.7821C34.6695 21.984 33.6758 22.1986 32.1412 22.1986C31.8518 22.1986 31.5374 22.1922 31.2103 22.1733C30.0216 22.1102 29.0845 21.9588 28.9902 21.9398V22.3374H28.9839Z" fill="white"/>
<path d="M37.1473 6.49258L36.1787 11.0359C36.1599 11.118 36.1158 11.1937 36.0466 11.2442L33.8013 12.9416C33.7322 12.9921 33.663 13.0363 33.5812 13.0615L32.6315 13.4401L30.3548 13.8881L30.1158 13.4149L27.4994 12.4179C27.4554 12.3989 27.4239 12.3737 27.3988 12.3295L25.0528 8.02596C25.0528 8.02596 24.1283 8.39826 23.7572 9.04191L25.6063 13.5916C25.6063 13.5916 25.8893 14.2289 26.4742 14.4813C26.9522 14.6832 28.078 15.2196 28.4805 15.4089C28.5749 15.4531 28.6378 15.5414 28.6503 15.6424C28.7195 16.0715 28.883 17.2578 28.7635 18.2106C28.6189 19.3843 28.6755 21.2585 28.9774 21.9337C28.9774 21.9337 32.8139 22.6089 35.2668 21.7759C35.2668 21.7759 35.4429 21.492 35.3737 20.9367C35.3737 20.9367 35.1976 20.2615 35.2165 19.4033C35.2353 18.5451 35.3045 15.2575 35.3045 15.2575C35.3045 15.2575 36.6567 13.7493 37.9146 12.6198C37.9146 12.6198 38.2165 12.3548 38.2857 11.7868C38.3548 11.2189 38.8391 6.89012 38.8391 6.89012C38.8391 6.89012 38.0026 6.29696 37.1473 6.49258Z" fill="#EB8335"/>
<path d="M32.1284 22.1985C31.8013 22.1985 31.4869 22.1859 31.2038 22.1732C29.9522 22.1101 28.99 21.9398 28.9774 21.9398H28.9711V21.9335C28.8327 21.618 28.7321 21.0248 28.6944 20.2549C28.6629 19.5545 28.6818 18.791 28.7573 18.2041C28.8705 17.2639 28.7132 16.0965 28.6441 15.6422C28.6315 15.5412 28.5686 15.4592 28.4742 15.415C28.0277 15.2005 26.9396 14.6893 26.4679 14.4874C25.883 14.2413 25.5937 13.5977 25.5937 13.5914L23.7446 9.04171V9.0354C24.1157 8.39807 25.034 8.01946 25.0465 8.01315H25.0528L25.0591 8.01946L27.405 12.323C27.4239 12.3609 27.4617 12.3924 27.4994 12.4051L30.1283 13.4021L30.3673 13.8753L32.6378 13.4273L33.5875 13.0487C33.663 13.0171 33.7385 12.9793 33.8013 12.9288L36.0467 11.2314C36.1095 11.1809 36.1599 11.1115 36.1724 11.0294L37.141 6.47977H37.1473C37.9964 6.28415 38.8328 6.86469 38.8391 6.871H38.8454V6.87731C38.8391 6.92148 38.3674 11.2187 38.292 11.774C38.2228 12.3356 37.9209 12.6133 37.9146 12.6133C36.6945 13.7113 35.3674 15.1815 35.3045 15.251C35.3045 15.3708 35.2353 18.5575 35.2165 19.3904C35.1976 20.236 35.3737 20.9112 35.3737 20.9238C35.4429 21.4728 35.2668 21.7631 35.2668 21.7694C34.3108 22.1101 33.141 22.1985 32.1284 22.1985ZM28.9837 21.9272C29.0592 21.9398 29.9963 22.0975 31.2038 22.1606C32.3548 22.2174 33.9963 22.1985 35.2605 21.7694C35.2793 21.7378 35.4303 21.4539 35.3674 20.9428C35.3674 20.9364 35.1913 20.2549 35.2102 19.4094C35.229 18.5638 35.2982 15.3014 35.2982 15.2636V15.2573C35.3108 15.2446 36.663 13.7365 37.9083 12.6196C37.9083 12.6196 38.2102 12.3483 38.2794 11.793C38.3486 11.244 38.8077 7.07293 38.8266 6.90255C38.7637 6.85838 37.9586 6.32832 37.1536 6.51132L36.185 11.0484C36.1662 11.1304 36.1221 11.2061 36.0529 11.2629L33.8076 12.9604C33.7385 13.0108 33.6693 13.055 33.5875 13.0866L32.6378 13.4652L30.3485 13.9132L30.1032 13.4336L27.4805 12.4429C27.4365 12.424 27.3988 12.3924 27.3736 12.3483L25.0465 8.03839C24.9585 8.07625 24.1157 8.44224 23.7635 9.04171L25.6126 13.5851C25.6126 13.5914 25.9019 14.2224 26.4805 14.4685C26.9522 14.6704 28.0403 15.1879 28.4868 15.3961C28.5812 15.4403 28.6503 15.5286 28.6629 15.6359C28.7384 16.0965 28.8893 17.2639 28.7761 18.2041C28.5937 19.6618 28.7384 21.3655 28.9837 21.9272Z" fill="#EB8335"/>
<path d="M33.4492 18.8917C33.4492 18.8983 33.4558 18.8983 33.4558 18.905H33.469L33.4492 18.8917Z" fill="#CD2A21"/>
<path d="M30.77 18.9044H30.789L30.7954 18.8917L30.77 18.9044Z" fill="#CD2A21"/>
<path d="M30.2605 19.5994C30.2671 19.5994 30.2671 19.5928 30.2737 19.5928C30.2737 19.5862 30.2737 19.5795 30.2737 19.5795L30.2605 19.5994Z" fill="#CD2A21"/>
<path d="M34.355 20.0973C34.3424 19.9522 34.3235 19.807 34.2921 19.6682V19.6619L34.2858 19.6556C34.248 19.6304 34.204 19.6051 34.1663 19.5799C34.1285 19.5546 34.0908 19.5294 34.0531 19.4978C33.9776 19.441 33.9084 19.3779 33.8392 19.3148C33.77 19.2517 33.7072 19.1823 33.6506 19.1066C33.5939 19.0372 33.5373 18.9552 33.4933 18.8794L33.487 18.8668H33.4744H32.1222H30.77H30.7512L30.7449 18.8858L30.7134 18.993C30.7008 19.0246 30.6883 19.0624 30.6757 19.094C30.6568 19.1255 30.6442 19.1634 30.6254 19.195C30.6191 19.2139 30.6065 19.2265 30.6002 19.2454L30.5688 19.2896C30.5247 19.3527 30.4807 19.4095 30.4241 19.4537C30.4115 19.4663 30.3989 19.4789 30.3801 19.4915L30.3612 19.5105C30.3549 19.5168 30.3486 19.5231 30.3361 19.5231C30.3046 19.542 30.2732 19.5609 30.2417 19.5736L30.2291 19.5799V19.5925C30.2354 19.6682 30.2417 19.7439 30.248 19.826V19.9396C30.248 19.9774 30.248 20.0153 30.248 20.0531C30.2417 20.1289 30.2417 20.2046 30.2291 20.2866L30.2228 20.3434C30.2228 20.3623 30.2166 20.3813 30.2166 20.4002L30.1977 20.5138C30.1662 20.6652 30.1159 20.8104 30.053 20.9492C30.0342 20.9807 30.0216 21.0186 30.0027 21.0502L29.9713 21.1006L29.9398 21.1511C29.8958 21.2142 29.8518 21.2773 29.7952 21.3341C29.8518 21.2836 29.9021 21.2205 29.9461 21.1574L29.9776 21.1069L30.009 21.0565C30.0279 21.0249 30.0467 20.9871 30.0656 20.9555C30.1348 20.8167 30.1851 20.6652 30.2228 20.5138L30.248 20.4002C30.2543 20.3813 30.2543 20.3623 30.2606 20.3434L30.2669 20.2866C30.2794 20.2109 30.2857 20.1289 30.292 20.0531C30.2983 20.0153 30.292 19.9774 30.292 19.9332V19.8134C30.2857 19.7376 30.2857 19.6682 30.2794 19.5925C30.2732 19.5925 30.2732 19.5988 30.2669 19.5988L30.2794 19.5799C30.2794 19.5862 30.2794 19.5925 30.2794 19.5925C30.3109 19.5799 30.3423 19.5609 30.3675 19.5483C30.3738 19.542 30.3864 19.5357 30.3927 19.5294L30.4178 19.5105C30.4367 19.4978 30.4493 19.4852 30.4618 19.4726C30.5184 19.4221 30.5688 19.3653 30.6128 19.3022L30.6442 19.2517C30.6568 19.2328 30.6631 19.2202 30.6694 19.2013C30.6883 19.1697 30.7008 19.1318 30.7197 19.1003C30.7323 19.0687 30.7449 19.0309 30.7637 18.993L30.7952 18.9047H30.7763L30.8015 18.8858L30.7952 18.9047H32.1285H33.4682C33.4682 18.8984 33.4619 18.8984 33.4619 18.8921L33.4807 18.9047H33.4682C33.5122 18.9867 33.5688 19.0561 33.6254 19.1255C33.6883 19.2013 33.7512 19.2707 33.8204 19.3338C33.8895 19.3969 33.9587 19.46 34.0405 19.5168C34.0782 19.5483 34.116 19.5736 34.1537 19.5988C34.1914 19.624 34.2292 19.6493 34.2669 19.6682V19.6619L34.2732 19.6745C34.2732 19.6745 34.2669 19.6745 34.2669 19.6682C34.2984 19.807 34.3172 19.9459 34.3361 20.0847C34.3487 20.2298 34.355 20.375 34.3487 20.5138C34.3424 20.6589 34.3235 20.8041 34.2795 20.9366C34.2669 20.9681 34.2543 21.006 34.2418 21.0375L34.2166 21.088C34.2103 21.1069 34.1977 21.1196 34.1914 21.1385C34.1537 21.2016 34.116 21.2584 34.0656 21.3089C34.1726 21.2079 34.2418 21.0817 34.2858 20.9429C34.3298 20.8041 34.355 20.6589 34.3613 20.5138C34.3675 20.4444 34.3675 20.3686 34.3675 20.2992C34.3613 20.2424 34.3613 20.1667 34.355 20.0973Z" fill="#CD2A21"/>
<path d="M32.8705 15.0367C31.3611 18.8859 28.751 20.1795 28.751 20.1795L28.556 20.3309L28.8894 20.5455C32.1347 18.9301 33.5246 14.3173 33.5246 14.3173L33.6127 13.9955L33.0466 14.4183L32.8705 15.0367Z" fill="#37476F"/>
<path d="M28.8831 20.5645L28.5372 20.3436L28.7448 20.1795C28.7511 20.1732 29.4052 19.8451 30.2354 19.05C31.0027 18.318 32.0781 17.0244 32.858 15.0367L33.0278 14.4183L33.619 13.9829L33.5247 14.33C33.5184 14.3426 33.1662 15.4974 32.4241 16.8414C31.9838 17.6302 31.4995 18.3243 30.9838 18.9112C30.3297 19.6369 29.6253 20.1922 28.8831 20.5645ZM28.5624 20.3373L28.8769 20.5392C29.6127 20.1732 30.3171 19.6179 30.9649 18.8859C31.4807 18.3054 31.9712 17.6113 32.4052 16.8225C33.1473 15.4847 33.4995 14.3237 33.5058 14.3174L33.5876 14.0208L33.0404 14.4246L32.8706 15.043C32.0907 17.0307 31.009 18.3306 30.2417 19.0626C29.424 19.8451 28.7699 20.1795 28.7448 20.1922L28.5624 20.3373Z" fill="#37476F"/>
<path d="M27.7511 20.6783L27.1787 20.5016L27.0089 20.9496C26.9838 21.0127 26.9901 21.0758 27.0152 21.1389L27.6756 22.5272C27.7133 22.6029 27.8077 22.6408 27.8832 22.6029L28.619 22.2495L27.9712 20.571L27.7511 20.6783Z" fill="#AEC4FF"/>
<path d="M27.8202 22.6279C27.8014 22.6279 27.7825 22.6216 27.7636 22.6153C27.7196 22.6027 27.6882 22.5711 27.6693 22.5269L27.0089 21.1387C26.9775 21.0756 26.9775 21.0062 27.0026 20.9431L27.1725 20.4824L27.7511 20.6591L27.9775 20.5518L28.6316 22.2493L27.8894 22.6027C27.8706 22.6216 27.8454 22.6279 27.8202 22.6279ZM27.185 20.514L27.0215 20.9557C27.0026 21.0125 27.0026 21.0819 27.0278 21.1387L27.6882 22.5269C27.707 22.5648 27.7322 22.59 27.7699 22.6027C27.8077 22.6153 27.8454 22.6153 27.8831 22.5963L28.6064 22.2493L27.9649 20.5897L27.7448 20.697V20.6907L27.185 20.514Z" fill="#AEC4FF"/>
<path d="M28.6881 20.1663L28.3422 20.0591C28.3044 20.0464 28.2667 20.0528 28.229 20.0654L27.1849 20.5008L27.6755 20.6522C27.7258 20.6649 27.7636 20.7027 27.7887 20.7469L27.9082 21.0056L28.9082 20.526L28.7698 20.2358C28.751 20.2042 28.7195 20.179 28.6881 20.1663Z" fill="#6D8AE2"/>
<path d="M27.9019 21.0186L27.7761 20.7535C27.7572 20.7094 27.7132 20.6778 27.6692 20.6589L27.1534 20.5011L28.2227 20.0594C28.2604 20.0405 28.3044 20.0405 28.3422 20.0531L28.6881 20.1604C28.7258 20.173 28.7573 20.1982 28.7761 20.2361L28.9208 20.539L27.9019 21.0186ZM27.21 20.5011L27.6755 20.6463C27.7258 20.6652 27.7698 20.6967 27.795 20.7472L27.9145 20.9933L28.8956 20.5264L28.7635 20.2424C28.751 20.2109 28.7195 20.1856 28.6881 20.1793L28.3422 20.072C28.3044 20.0594 28.2667 20.0657 28.2352 20.0783L27.21 20.5011Z" fill="#6D8AE2"/>
<path d="M28.7513 20.1985L27.7513 20.6781L28.5186 22.2998L29.3928 21.8834C29.462 21.8518 29.4935 21.7698 29.4557 21.7004L28.7513 20.1985Z" fill="#4862E2"/>
<path d="M28.5185 22.3125L27.7386 20.6719L28.7512 20.186L29.462 21.6878C29.4997 21.7635 29.4682 21.8519 29.3928 21.8834L28.5185 22.3125ZM27.7638 20.6845L28.5248 22.2936L29.3928 21.8834C29.4557 21.8519 29.4871 21.7761 29.4557 21.713L28.7512 20.2238L27.7638 20.6845Z" fill="#4862E2"/>
<path d="M27.7887 21.3727C27.7824 21.3537 27.7761 21.3411 27.7698 21.3222C27.7635 21.3096 27.7573 21.2969 27.751 21.2843C27.7384 21.2654 27.7321 21.2465 27.7195 21.2275C27.7069 21.2086 27.7007 21.196 27.6881 21.1834C27.6629 21.1518 27.644 21.1266 27.6189 21.1013C27.6 21.0887 27.5874 21.0761 27.5686 21.0635C27.5245 21.0319 27.4805 21.0193 27.4365 21.0193C27.4176 21.0193 27.405 21.0256 27.3862 21.0319L26.1534 21.6124L26.4931 22.3255L27.7258 21.726C27.7321 21.7197 27.7384 21.7197 27.7447 21.7134C27.7824 21.6755 27.8076 21.6124 27.8076 21.543C27.8076 21.5241 27.8076 21.5052 27.8076 21.4862C27.8076 21.4421 27.795 21.4042 27.7887 21.3727Z" fill="#AEC4FF"/>
<path d="M26.4869 22.3317L26.141 21.5997L27.38 21.0129C27.3988 21.0066 27.4177 21.0002 27.4366 21.0002C27.4806 21.0002 27.5309 21.0192 27.5749 21.0507C27.5938 21.0633 27.6064 21.076 27.6253 21.0886C27.6504 21.1138 27.6756 21.1391 27.7007 21.1706C27.7133 21.1896 27.7196 21.2022 27.7322 21.2148C27.7448 21.2337 27.7573 21.2527 27.7636 21.2716C27.7699 21.2842 27.7762 21.2968 27.7825 21.3094C27.7888 21.3284 27.7951 21.3473 27.8014 21.3599C27.8139 21.3978 27.8202 21.4356 27.8202 21.4672C27.8202 21.4861 27.8202 21.5114 27.8202 21.5303C27.8202 21.606 27.7951 21.6691 27.751 21.707C27.7448 21.7133 27.7385 21.7196 27.7322 21.7196L26.4869 22.3317ZM26.1661 21.606L26.4995 22.3065L27.7259 21.7133C27.7322 21.707 27.7385 21.707 27.7448 21.7007C27.7825 21.6691 27.8014 21.606 27.8077 21.5366C27.8077 21.5177 27.8077 21.4988 27.8077 21.4798C27.8014 21.442 27.7951 21.4104 27.7888 21.3725C27.7825 21.3536 27.7762 21.341 27.7699 21.3221C27.7636 21.3094 27.7573 21.2968 27.751 21.2842C27.7448 21.2653 27.7322 21.2463 27.7196 21.2274C27.7133 21.2148 27.7007 21.1959 27.6882 21.1832C27.6693 21.1517 27.6441 21.1264 27.619 21.1075C27.6064 21.0949 27.5875 21.0823 27.5749 21.0697C27.5309 21.0381 27.4869 21.0255 27.4492 21.0255C27.4366 21.0255 27.4177 21.0318 27.4051 21.0381L26.1661 21.606Z" fill="#AEC4FF"/>
<path d="M26.9586 21.8141C26.9523 21.7889 26.946 21.7699 26.9334 21.7447C26.9271 21.7258 26.9208 21.7068 26.9083 21.6942C26.8957 21.669 26.8831 21.6374 26.8642 21.6185C26.8517 21.5996 26.8391 21.5743 26.8202 21.5554C26.7888 21.5112 26.7573 21.4797 26.7259 21.4481C26.707 21.4292 26.6818 21.4103 26.663 21.3976C26.6001 21.3598 26.5372 21.3345 26.4806 21.3345C26.4554 21.3345 26.4366 21.3408 26.4114 21.3535L26.0718 21.5175C26.1032 21.5301 26.1347 21.5491 26.1724 21.568C26.1976 21.5869 26.2227 21.6059 26.2479 21.6248C26.2856 21.6627 26.3234 21.7005 26.3611 21.751C26.38 21.7762 26.3925 21.7952 26.4114 21.8204C26.4303 21.852 26.4429 21.8772 26.4617 21.9088C26.4743 21.9277 26.4806 21.9466 26.4869 21.9719C26.4995 21.9971 26.5057 22.0287 26.5183 22.0539C26.5372 22.1107 26.5498 22.1675 26.5498 22.2243C26.5498 22.2558 26.5561 22.2874 26.5498 22.3189C26.5498 22.3757 26.5372 22.4325 26.5183 22.4767L26.8831 22.3C26.8894 22.2937 26.902 22.2874 26.9083 22.2811C26.9649 22.2306 26.99 22.1485 26.9963 22.0476C26.9963 22.0223 26.9963 21.9971 26.9963 21.9656C26.9837 21.9151 26.9774 21.8646 26.9586 21.8141Z" fill="#21314D"/>
<path d="M26.5058 22.4828L26.5121 22.4639C26.531 22.4197 26.5372 22.3629 26.5435 22.3061C26.5435 22.2746 26.5435 22.243 26.5435 22.2115C26.5372 22.1547 26.5247 22.0979 26.5121 22.0474C26.5058 22.0222 26.4932 21.9906 26.4869 21.9654C26.4806 21.9401 26.4681 21.9212 26.4618 21.9023C26.4492 21.8707 26.4303 21.8392 26.4115 21.8139C26.3989 21.7887 26.38 21.7698 26.3611 21.7445C26.3297 21.7004 26.292 21.6562 26.2542 21.6183C26.2291 21.5994 26.2039 21.5741 26.1788 21.5615C26.1473 21.5426 26.1159 21.5237 26.0844 21.511L26.0656 21.5047L26.424 21.3344C26.4492 21.3217 26.4744 21.3154 26.4932 21.3154C26.5498 21.3154 26.6127 21.3407 26.6819 21.3785C26.7071 21.3912 26.7259 21.4101 26.7511 21.429C26.7888 21.4606 26.8203 21.4984 26.8517 21.5363C26.8706 21.5552 26.8832 21.5805 26.8957 21.5994C26.9083 21.6246 26.9272 21.6499 26.9398 21.6814C26.9461 21.7004 26.9523 21.713 26.9649 21.7382C26.9712 21.7635 26.9838 21.7887 26.9901 21.8076C27.0027 21.8581 27.0152 21.9086 27.0215 21.9528C27.0215 21.978 27.0278 22.0096 27.0215 22.0348C27.0152 22.1358 26.9838 22.2241 26.9335 22.2746C26.9272 22.2809 26.9146 22.2872 26.9083 22.2935L26.5058 22.4828ZM26.1033 21.5047C26.1284 21.5174 26.1599 21.53 26.185 21.5489C26.2102 21.5678 26.2354 21.5868 26.2605 21.6057C26.2983 21.6436 26.336 21.6814 26.3737 21.7319C26.3926 21.7571 26.4052 21.7824 26.424 21.8076C26.4429 21.8392 26.4555 21.8707 26.4744 21.896C26.4806 21.9149 26.4932 21.9338 26.4995 21.9591C26.5121 21.9843 26.5184 22.0159 26.531 22.0411C26.5498 22.0979 26.5624 22.1547 26.5624 22.2115C26.5624 22.243 26.5687 22.2746 26.5624 22.3061C26.5624 22.3566 26.5498 22.4071 26.5372 22.445L26.8769 22.2809C26.8832 22.2746 26.8957 22.2746 26.902 22.2683C26.9523 22.2178 26.9838 22.1421 26.9838 22.0411C26.9838 22.0159 26.9838 21.9906 26.9838 21.9591C26.9775 21.9149 26.9712 21.8644 26.9523 21.8139C26.946 21.7887 26.9398 21.7698 26.9272 21.7445C26.9209 21.7256 26.9146 21.7067 26.902 21.694C26.8894 21.6688 26.8769 21.6436 26.858 21.6183C26.8454 21.5994 26.8328 21.5805 26.814 21.5552C26.7825 21.5174 26.7511 21.4795 26.7196 21.4479C26.7008 21.429 26.6756 21.4101 26.6567 21.3975C26.5939 21.3596 26.5372 21.3344 26.4806 21.3344C26.4618 21.3344 26.4366 21.3407 26.4177 21.347L26.1033 21.5047Z" fill="#21314D"/>
<path d="M26.512 22.0471C26.5057 22.0218 26.4931 21.9903 26.4805 21.9651C26.4742 21.9461 26.4617 21.9272 26.4554 21.902C26.4428 21.8704 26.4239 21.8389 26.4051 21.8136C26.3925 21.7884 26.3736 21.7631 26.3547 21.7442C26.317 21.6937 26.2856 21.6559 26.2415 21.618C26.2164 21.5928 26.1912 21.5738 26.1661 21.5612C26.1346 21.5423 26.1032 21.5233 26.0654 21.5107C26.0277 21.4981 25.99 21.4855 25.9522 21.4918C25.9271 21.4918 25.8956 21.4981 25.8768 21.5107C25.8768 21.5107 25.7635 21.5675 25.7761 21.5675C25.8139 21.5675 25.8516 21.5738 25.8956 21.5928C25.9271 21.6054 25.9585 21.618 25.9837 21.6432C26.0088 21.6622 26.034 21.6811 26.0591 21.7C26.0969 21.7379 26.1346 21.7757 26.1724 21.8262C26.1912 21.8515 26.2038 21.8704 26.2227 21.8956C26.2415 21.9272 26.2541 21.9524 26.273 21.984C26.2856 22.0029 26.2919 22.0218 26.2981 22.0471C26.3107 22.0723 26.317 22.1039 26.3296 22.1291C26.3485 22.1859 26.361 22.2427 26.361 22.2995C26.361 22.331 26.3673 22.3626 26.361 22.3941C26.361 22.4573 26.3485 22.514 26.3296 22.5645C26.3107 22.6024 26.2919 22.6339 26.2667 22.6655C26.2604 22.6718 26.4176 22.6087 26.4176 22.6087C26.4302 22.6024 26.4365 22.5961 26.4428 22.5898C26.4742 22.5645 26.4931 22.5267 26.512 22.4825C26.5309 22.4383 26.5371 22.3815 26.5434 22.3247C26.5434 22.2932 26.5434 22.2616 26.5434 22.2301C26.5434 22.1607 26.5309 22.1039 26.512 22.0471Z" fill="#21314D"/>
<path d="M26.2729 22.659C26.2666 22.659 26.2666 22.659 26.2666 22.6527L26.2603 22.6464L26.2666 22.6401C26.2917 22.6148 26.3169 22.5833 26.3295 22.5454C26.3483 22.4949 26.3609 22.4445 26.3609 22.3814C26.3609 22.3498 26.3609 22.3182 26.3609 22.2867C26.3546 22.2299 26.342 22.1731 26.3295 22.1226C26.3232 22.0974 26.3106 22.0722 26.3043 22.0406C26.298 22.0154 26.2854 21.9964 26.2792 21.9775C26.2666 21.9459 26.2477 21.9144 26.2288 21.8892C26.2163 21.8639 26.1974 21.845 26.1785 21.8197C26.1471 21.7756 26.1093 21.7314 26.0716 21.6935C26.0464 21.6746 26.0213 21.6494 25.9961 21.6367C25.9647 21.6178 25.9395 21.5989 25.9081 21.5863C25.8703 21.5673 25.8263 21.561 25.7949 21.561H25.7886V21.5547C25.7886 21.5484 25.7886 21.5421 25.8955 21.4853C25.9207 21.4727 25.9521 21.4664 25.9773 21.4664C26.015 21.4664 26.0527 21.4727 26.0905 21.4916C26.1219 21.5042 26.1597 21.5232 26.1911 21.5421C26.2163 21.561 26.2414 21.58 26.2666 21.5989C26.3043 21.6367 26.342 21.6746 26.3798 21.7251C26.3987 21.7503 26.4112 21.7756 26.4301 21.8008C26.449 21.8324 26.4615 21.8639 26.4804 21.8892C26.4867 21.9081 26.4993 21.927 26.5056 21.9523C26.5182 21.9775 26.5244 22.009 26.537 22.0343C26.5559 22.0911 26.5685 22.1479 26.5685 22.2047C26.5685 22.2362 26.5748 22.2678 26.5685 22.2993C26.5685 22.3561 26.5559 22.4129 26.537 22.4634C26.5182 22.5076 26.493 22.5454 26.4678 22.577C26.4615 22.5833 26.449 22.5896 26.4364 22.5959C26.3169 22.6464 26.2854 22.659 26.2729 22.659ZM25.8137 21.5547C25.8452 21.5547 25.8766 21.5673 25.9081 21.58C25.9395 21.5926 25.971 21.6115 26.0024 21.6304C26.0276 21.6494 26.0527 21.6683 26.0779 21.6872C26.1156 21.7251 26.1534 21.7629 26.1911 21.8134C26.21 21.8387 26.2225 21.8639 26.2414 21.8892C26.2603 21.9207 26.2729 21.9523 26.2917 21.9775C26.298 21.9964 26.3106 22.0154 26.3169 22.0406C26.3295 22.0658 26.3358 22.0974 26.3483 22.1226C26.3672 22.1794 26.3798 22.2362 26.3798 22.293C26.3798 22.3246 26.3861 22.3561 26.3798 22.3877C26.3798 22.4508 26.3672 22.5076 26.342 22.558C26.3295 22.5896 26.3169 22.6085 26.298 22.6338C26.3295 22.6211 26.3798 22.6022 26.4112 22.5833C26.4238 22.577 26.4301 22.5707 26.4364 22.5643C26.4615 22.5391 26.4867 22.5012 26.5056 22.4571C26.5244 22.4129 26.5307 22.3561 26.537 22.2993C26.537 22.2678 26.537 22.2362 26.537 22.2047C26.5307 22.1479 26.5182 22.0911 26.5056 22.0406C26.4993 22.0154 26.4867 21.9838 26.4804 21.9586C26.4741 21.9333 26.4615 21.9144 26.4553 21.8955C26.4427 21.8639 26.4238 21.8324 26.4049 21.8071C26.3924 21.7819 26.3735 21.763 26.3546 21.7377C26.3232 21.6935 26.2854 21.6494 26.2477 21.6115C26.2225 21.5926 26.1974 21.5673 26.1722 21.5547C26.1408 21.5358 26.1093 21.5169 26.0779 21.5042C26.0402 21.4916 26.0024 21.4853 25.971 21.4853C25.9458 21.4853 25.9207 21.4916 25.8955 21.5042C25.864 21.5232 25.8326 21.5421 25.8137 21.5547Z" fill="#21314D"/>
<path d="M26.4996 21.568L26.5248 21.6185L27.6191 21.0947C27.6003 21.0821 27.5877 21.0695 27.5688 21.0569L26.4996 21.568Z" fill="#21314D"/>
<path d="M26.5185 21.6308L26.4871 21.5677L27.5688 21.0503H27.5751C27.594 21.0629 27.6065 21.0755 27.6254 21.0882L27.638 21.0945L26.5185 21.6308ZM26.5122 21.574L26.5311 21.6056L27.6065 21.0945C27.594 21.0882 27.5877 21.0755 27.5751 21.0692L26.5122 21.574Z" fill="#21314D"/>
<path d="M26.6128 21.6873L26.638 21.7378L27.726 21.2203C27.7134 21.2014 27.7071 21.1888 27.6946 21.1761L26.6128 21.6873Z" fill="#21314D"/>
<path d="M26.6317 21.7504L26.6002 21.6873L27.6946 21.1636L27.7009 21.1699C27.7134 21.1888 27.7197 21.2014 27.7323 21.2141L27.7386 21.2204L26.6317 21.7504ZM26.6254 21.6936L26.6442 21.7252L27.7134 21.2141C27.7071 21.2014 27.7009 21.1951 27.6946 21.1825L26.6254 21.6936Z" fill="#21314D"/>
<path d="M26.7072 21.8265L26.7323 21.877L27.7889 21.3721C27.7826 21.3532 27.7763 21.3406 27.77 21.3217L26.7072 21.8265Z" fill="#21314D"/>
<path d="M26.7259 21.8831L26.6945 21.82L27.7699 21.3026L27.7762 21.3089C27.7825 21.3279 27.7888 21.3468 27.7951 21.3594V21.3657L26.7259 21.8831ZM26.7196 21.8264L26.7385 21.8579L27.7825 21.3594C27.7762 21.3468 27.7762 21.3342 27.7699 21.3215L26.7196 21.8264Z" fill="#21314D"/>
<path d="M26.7762 21.9716L26.8014 22.0221L27.814 21.5425C27.814 21.5236 27.814 21.5046 27.814 21.4857L26.7762 21.9716Z" fill="#21314D"/>
<path d="M26.795 22.0286L26.7635 21.9654L27.8139 21.4606V21.4733C27.8139 21.4922 27.8139 21.5174 27.8139 21.5364V21.5427L26.795 22.0286ZM26.7887 21.9718L26.8076 22.0033L27.8076 21.53C27.8076 21.5174 27.8076 21.5048 27.8076 21.4922L26.7887 21.9718Z" fill="#21314D"/>
<path d="M26.3178 22.6388C26.4747 22.564 26.4869 22.2609 26.3451 21.9619C26.2033 21.663 25.9612 21.4813 25.8044 21.5562C25.6475 21.6311 25.6353 21.9341 25.7771 22.2331C25.9189 22.5321 26.161 22.7137 26.3178 22.6388Z" fill="#AEC4FF"/>
<path d="M26.2416 22.6593C26.0906 22.6593 25.8894 22.4889 25.7699 22.2302C25.6252 21.9273 25.6378 21.6181 25.8013 21.5424C25.9586 21.4667 26.2101 21.6497 26.3485 21.9526C26.4932 22.2555 26.4806 22.5647 26.3171 22.6404C26.2982 22.653 26.2667 22.6593 26.2416 22.6593ZM25.8076 21.5613C25.6567 21.6308 25.6504 21.9273 25.7887 22.2239C25.9271 22.5142 26.1661 22.6972 26.3171 22.6278C26.468 22.5584 26.4743 22.2618 26.3359 21.9652C26.1913 21.6686 25.9586 21.4919 25.8076 21.5613Z" fill="#AEC4FF"/>
<path d="M30.1221 13.4147L29.9712 13.3579C29.9712 13.3579 30.6819 18.608 28.6945 19.4157L28.7007 20.0026C28.7007 20.0026 30.7133 19.6934 30.5938 14.6894L30.1221 13.4147Z" fill="#21314D"/>
<path d="M28.6819 20.0088L28.6757 19.4031H28.6819C29.1348 19.2201 29.4807 18.791 29.7134 18.1221C29.9021 17.5857 30.0153 16.8979 30.0593 16.0839C30.1285 14.6893 29.9524 13.3705 29.9524 13.3579V13.3453L30.1222 13.4084V13.4147L30.5876 14.6957C30.6128 15.8378 30.531 16.8285 30.3423 17.6362C30.1914 18.2862 29.9713 18.8225 29.682 19.2327C29.1977 19.9331 28.6882 20.0152 28.6819 20.0152V20.0088ZM28.7008 19.4157L28.7071 19.9899C28.7826 19.971 29.2417 19.8511 29.682 19.2138C29.965 18.8036 30.1851 18.2735 30.3361 17.6236C30.5247 16.8159 30.6065 15.8252 30.5813 14.6893L30.1159 13.421L29.9838 13.3705C30.0027 13.522 30.1537 14.7651 30.0908 16.0839C30.0467 16.9042 29.9335 17.592 29.7449 18.1284C29.4996 18.7973 29.1537 19.2327 28.7008 19.4157Z" fill="#21314D"/>
<path d="M33.5874 13.0675L33.4491 13.1243L33.405 14.3296C33.5748 17.6488 35.229 18.5953 35.229 18.5953L35.2416 17.9012C33.8013 16.4372 33.8013 12.9413 33.8013 12.9413C33.7132 13.0171 33.5874 13.0675 33.5874 13.0675Z" fill="#21314D"/>
<path d="M35.2353 18.6082L35.2227 18.6019C35.2164 18.6019 34.8013 18.3558 34.3737 17.7059C33.9774 17.1064 33.4869 16.04 33.3988 14.3236L33.4428 13.112L33.5875 13.0552C33.5938 13.0552 33.7133 13.0048 33.8013 12.9354L33.8139 12.9227V12.9417C33.8139 12.948 33.8139 13.8251 33.99 14.8726C34.1535 15.838 34.5057 17.1443 35.2479 17.8952V17.9015L35.2353 18.6082ZM33.4617 13.1247L33.4177 14.3236C33.5057 16.0337 33.9963 17.1001 34.3925 17.6932C34.7762 18.2738 35.1535 18.5262 35.2227 18.5767L35.2353 17.9015C34.4932 17.1443 34.141 15.838 33.9774 14.8726C33.8139 13.9071 33.8013 13.0868 33.8013 12.9606C33.707 13.03 33.6001 13.0742 33.5938 13.0742L33.4617 13.1247Z" fill="#21314D"/>
<path d="M31.0468 13.2886C31.0468 13.2886 30.8015 13.2696 30.6443 13.4463C30.6317 13.4589 30.6065 13.4652 30.594 13.4526C30.5185 13.4084 30.3172 13.3201 30.1222 13.4148C30.1222 13.4148 30.0405 14.4433 30.8896 14.9103C31.5185 15.2573 31.8896 15.2826 32.0405 15.2699C32.0782 15.2699 32.1034 15.2258 32.0845 15.1942L31.0468 13.2886Z" fill="white"/>
<path d="M31.9777 15.276C31.789 15.276 31.4305 15.2192 30.8833 14.9164C30.4431 14.6766 30.2607 14.279 30.1789 13.9888C30.0909 13.6733 30.1097 13.4145 30.1097 13.4145V13.4082H30.116C30.311 13.3136 30.5123 13.4019 30.594 13.4461C30.6066 13.4524 30.6255 13.4524 30.638 13.4398C30.7953 13.2631 31.0468 13.282 31.0468 13.282H31.0531V13.2883L32.0846 15.194C32.0972 15.2129 32.0972 15.2319 32.0846 15.2508C32.072 15.2697 32.0594 15.2823 32.0343 15.2823C32.0217 15.276 32.0028 15.276 31.9777 15.276ZM30.1286 13.4208C30.1223 13.4903 30.0846 14.462 30.8896 14.91C31.506 15.2508 31.8708 15.2823 32.0406 15.2697C32.0594 15.2697 32.072 15.2571 32.0783 15.2445C32.0846 15.2319 32.0846 15.2129 32.0783 15.2003L31.0468 13.301C31.0154 13.301 30.7953 13.2946 30.6506 13.4524C30.638 13.4713 30.6066 13.4713 30.5877 13.465C30.5122 13.4145 30.3173 13.3262 30.1286 13.4208Z" fill="white"/>
<path d="M33.4367 13.0176L32.5562 13.5729L32.1348 15.2135C32.1285 15.2388 32.1473 15.264 32.1725 15.264C33.3172 15.2829 33.5939 13.7811 33.5939 13.7811C33.6757 13.2321 33.4367 13.0176 33.4367 13.0176Z" fill="white"/>
<path d="M32.1851 15.2638C32.1788 15.2638 32.1726 15.2638 32.1663 15.2638C32.1537 15.2638 32.1411 15.2575 32.1285 15.2449C32.1222 15.2322 32.1159 15.2196 32.1222 15.207L32.5436 13.5663L33.4304 13.011L33.4367 13.0174C33.4367 13.0174 33.4996 13.0741 33.5499 13.194C33.594 13.3076 33.638 13.4969 33.594 13.7809C33.594 13.7872 33.5248 14.1595 33.3109 14.5318C33.1223 14.8662 32.77 15.2638 32.1851 15.2638ZM32.5562 13.579L32.1348 15.2133C32.1348 15.2259 32.1348 15.2322 32.1411 15.2386C32.1474 15.2449 32.1537 15.2512 32.1663 15.2512C32.4933 15.2575 32.9524 15.1313 33.2984 14.5192C33.5059 14.1532 33.5751 13.7809 33.5814 13.7746C33.6254 13.4969 33.5814 13.3076 33.5374 13.194C33.4933 13.0931 33.4493 13.0363 33.4304 13.0237L32.5562 13.579Z" fill="white"/>
<path d="M31.4869 10.7834C31.336 11.2692 31.5435 11.7551 31.4869 11.9381C31.4303 12.1148 31.141 11.8876 31.141 11.8876C30.9146 11.711 30.7636 11.8056 30.6882 11.894C30.6379 11.9507 30.6127 12.0328 30.6253 12.1085C30.6567 12.2852 30.8768 12.3483 30.9901 12.3735C31.0278 12.3798 31.0529 12.4114 31.0529 12.4492V13.9574C31.0529 14.0457 31.0718 14.1341 31.1096 14.2161C31.3737 14.7777 31.7951 15.0995 32.0089 15.232C32.097 15.2888 32.2039 15.2762 32.2794 15.2005C32.4743 15.0049 32.5875 14.6831 32.6441 14.4748C32.6756 14.3612 32.6882 14.2413 32.6882 14.1215V13.8501C33.4555 13.705 33.4555 12.8405 33.4555 12.8405V11.2125L33.3989 10.2849L31.4869 10.7834Z" fill="#F3B688"/>
<path d="M32.1222 15.2698C32.0782 15.2698 32.0405 15.2572 32.0027 15.2319C31.7763 15.0868 31.3612 14.765 31.097 14.2097C31.0593 14.1277 31.0404 14.0393 31.0404 13.9447V12.4365C31.0404 12.405 31.0153 12.3797 30.9901 12.3734C30.9335 12.3608 30.8518 12.3419 30.7763 12.2977C30.6882 12.2472 30.6316 12.1841 30.6191 12.1021C30.6065 12.0264 30.6316 11.9443 30.6819 11.8812C30.7511 11.7992 30.9084 11.6919 31.1474 11.8749C31.1474 11.8749 31.3235 12.0137 31.4241 11.9822C31.4492 11.9759 31.4681 11.9569 31.4807 11.9254C31.4996 11.8623 31.487 11.7487 31.4618 11.6099C31.4304 11.3827 31.3801 11.0798 31.4807 10.7769V10.7706L33.4052 10.2658L33.4681 11.206V12.8341C33.4681 12.8341 33.4681 13.0549 33.3738 13.2884C33.2857 13.5029 33.0971 13.7743 32.7008 13.85V14.115C32.7008 14.2349 32.6883 14.3548 32.6568 14.4684C32.5939 14.6956 32.487 15.0048 32.292 15.2004C32.2354 15.2446 32.1788 15.2698 32.1222 15.2698ZM30.9021 11.7992C30.814 11.7992 30.7448 11.8434 30.7008 11.9002C30.6505 11.9569 30.6253 12.0327 30.6379 12.1021C30.6694 12.2788 30.8958 12.3356 30.9901 12.3545C31.0279 12.3608 31.0593 12.3987 31.0593 12.4365V13.9447C31.0593 14.033 31.0782 14.1213 31.1159 14.2034C31.3738 14.7524 31.7889 15.0742 32.0153 15.213C32.0971 15.2635 32.204 15.2509 32.2732 15.1878C32.4618 14.9985 32.575 14.6893 32.6317 14.4684C32.6631 14.3548 32.6757 14.2349 32.6757 14.1213V13.8437H32.682C33.0782 13.768 33.2606 13.5029 33.3486 13.2884C33.443 13.0549 33.443 12.8404 33.443 12.8404V11.2123L33.3864 10.2974L31.4933 10.7896C31.3989 11.0861 31.4492 11.389 31.4807 11.6099C31.4996 11.755 31.5184 11.8623 31.4933 11.938C31.4807 11.9759 31.4618 12.0011 31.4241 12.0074C31.3172 12.039 31.1411 11.9002 31.1348 11.8938C31.0467 11.8244 30.965 11.7992 30.9021 11.7992Z" fill="#F3B688"/>
<path d="M31.619 13.5727C31.619 13.5727 31.7448 14.3489 32.6819 14.2794V13.8503C32.6819 13.8503 32.1159 13.9261 31.619 13.5727Z" fill="#EC7B5E"/>
<path d="M32.5687 14.2919C32.3171 14.2919 32.009 14.2225 31.7951 13.9575C31.6442 13.7745 31.6127 13.5726 31.6127 13.5726L31.6064 13.5536L31.6253 13.5663C32.1159 13.9196 32.6756 13.8439 32.6819 13.8439H32.6945V14.2919H32.6882C32.6505 14.2919 32.6065 14.2919 32.5687 14.2919ZM31.6316 13.5915C31.6442 13.6483 31.6882 13.7997 31.8077 13.9449C31.9398 14.1089 32.1976 14.3046 32.6756 14.2667V13.8565C32.5939 13.8692 32.0907 13.907 31.6316 13.5915Z" fill="#EC7B5E"/>
<path d="M31.0418 12.174C31.0639 12.1117 31.0129 12.0364 30.9279 12.006C30.8428 11.9756 30.7559 12.0015 30.7337 12.0639C30.7116 12.1263 30.7626 12.2015 30.8476 12.2319C30.9327 12.2623 31.0196 12.2364 31.0418 12.174Z" fill="#EC7B5E"/>
<path d="M30.921 12.2536C30.8958 12.2536 30.8707 12.2473 30.8455 12.241C30.8015 12.2283 30.7638 12.1968 30.7449 12.1652C30.7197 12.1337 30.7134 12.0958 30.726 12.0643C30.7386 12.0327 30.7638 12.0075 30.8078 11.9949C30.8455 11.9822 30.8895 11.9885 30.9336 12.0012C30.9776 12.0138 31.0153 12.0453 31.0342 12.0769C31.0593 12.1084 31.0656 12.1463 31.0531 12.1779C31.0342 12.2283 30.9839 12.2536 30.921 12.2536ZM30.8518 12.0075C30.8329 12.0075 30.8204 12.0075 30.8078 12.0138C30.7763 12.0264 30.7512 12.0453 30.7386 12.0706C30.726 12.0958 30.7323 12.1274 30.7575 12.1589C30.7763 12.1905 30.8141 12.2157 30.8518 12.2283C30.9336 12.2599 31.0153 12.2346 31.0342 12.1779C31.0468 12.1526 31.0405 12.1211 31.0153 12.0895C30.9965 12.058 30.9587 12.0327 30.921 12.0201C30.9021 12.0075 30.877 12.0075 30.8518 12.0075Z" fill="#EC7B5E"/>
<path d="M32.2041 11.2818C32.0154 11.1871 31.8833 11.2629 31.8204 11.3196C31.8016 11.3386 31.8016 11.3764 31.8204 11.3954C31.833 11.408 31.8582 11.408 31.8707 11.3954C31.9148 11.3575 32.0154 11.2944 32.1726 11.3701C32.1915 11.3828 32.2167 11.3701 32.223 11.3449C32.2355 11.326 32.2292 11.2944 32.2041 11.2818Z" fill="#E8771D"/>
<path d="M31.8518 11.4146C31.8393 11.4146 31.8267 11.4083 31.8204 11.4019C31.8078 11.3893 31.8015 11.3767 31.8015 11.3578C31.8015 11.3388 31.8078 11.3262 31.8204 11.3136C31.8833 11.2568 32.0154 11.1748 32.2103 11.2757C32.2355 11.2884 32.2481 11.3262 32.2355 11.3578C32.2292 11.3704 32.2166 11.383 32.204 11.3893C32.1915 11.3956 32.1789 11.3956 32.1663 11.3893C32.0154 11.3136 31.921 11.3704 31.877 11.4083C31.8707 11.4146 31.8581 11.4146 31.8518 11.4146ZM32.0342 11.2442C31.9399 11.2442 31.8707 11.2884 31.833 11.3262C31.8267 11.3325 31.8204 11.3452 31.8204 11.3578C31.8204 11.3704 31.8267 11.383 31.833 11.3893C31.8455 11.4019 31.8581 11.4019 31.8707 11.3893C31.921 11.3452 32.0216 11.282 32.1789 11.3641C32.1852 11.3704 32.1915 11.3704 32.1977 11.3641C32.204 11.3641 32.2103 11.3515 32.2166 11.3452C32.2229 11.3262 32.2166 11.2947 32.1977 11.2884C32.1411 11.2568 32.0845 11.2442 32.0342 11.2442Z" fill="#E8771D"/>
<path d="M33.3171 11.4521C33.1976 11.3764 33.0844 11.4079 33.0152 11.4521C32.9901 11.4647 32.9838 11.5026 33.0027 11.5278C33.0152 11.5467 33.0341 11.553 33.053 11.5404C33.097 11.5152 33.1788 11.4836 33.2731 11.5404C33.292 11.553 33.3171 11.5467 33.3297 11.5278C33.3486 11.4963 33.3423 11.4647 33.3171 11.4521Z" fill="#E8771D"/>
<path d="M33.2982 11.553C33.2919 11.553 33.2794 11.553 33.2731 11.5466C33.1787 11.4899 33.097 11.5214 33.0592 11.5466C33.0404 11.5593 33.0089 11.553 32.9963 11.534C32.9838 11.5214 32.9838 11.5025 32.9838 11.4835C32.9901 11.4646 32.9963 11.452 33.0089 11.4457C33.0529 11.4141 33.1787 11.3573 33.3171 11.4457C33.3423 11.4646 33.3485 11.5025 33.336 11.5277C33.3297 11.5403 33.3171 11.5466 33.3045 11.553C33.3045 11.553 33.3045 11.553 33.2982 11.553ZM33.1662 11.4962C33.2039 11.4962 33.2416 11.5025 33.2857 11.534C33.2919 11.5403 33.2982 11.5403 33.3045 11.5403C33.3108 11.5403 33.3171 11.534 33.3234 11.5214C33.336 11.5025 33.3297 11.4709 33.3108 11.4646C33.1787 11.3826 33.0655 11.4331 33.0215 11.4646C33.0152 11.4709 33.0089 11.4772 33.0026 11.4899C33.0026 11.5025 33.0026 11.5151 33.0089 11.5277C33.0215 11.5403 33.0341 11.5467 33.0467 11.5403C33.0781 11.5151 33.1158 11.4962 33.1662 11.4962Z" fill="#E8771D"/>
<path d="M32.2606 11.7678C32.1034 11.6605 31.9587 11.7299 31.9084 11.7678C31.8958 11.7804 31.8895 11.7993 31.9021 11.8119C31.9147 11.8246 31.9273 11.8246 31.9399 11.8182C31.9839 11.7867 32.0908 11.7299 32.2292 11.8182C32.2417 11.8246 32.2606 11.8246 32.2669 11.8119C32.2795 11.7993 32.2732 11.7804 32.2606 11.7678Z" fill="black"/>
<path d="M33.3109 11.7803C33.2102 11.7045 33.1096 11.7361 33.0467 11.7803C33.0341 11.7929 33.0278 11.8118 33.0404 11.8244C33.053 11.8371 33.0656 11.8371 33.0782 11.8308C33.1159 11.8055 33.1914 11.7677 33.2731 11.8308C33.2857 11.8371 33.3046 11.8371 33.3109 11.8244C33.3297 11.8118 33.3234 11.7929 33.3109 11.7803Z" fill="black"/>
<path d="M32.7701 12.6326C32.7324 12.6326 32.6884 12.62 32.6381 12.6011L32.6506 12.5758C32.7261 12.6074 32.789 12.6137 32.8267 12.5948C32.8519 12.5822 32.8645 12.5632 32.8771 12.5317C32.8834 12.5064 32.8834 12.4749 32.8771 12.4433L32.6695 11.7871L32.6947 11.7808L32.9022 12.437C32.9148 12.4686 32.9148 12.5064 32.9022 12.538C32.8896 12.5758 32.8708 12.6011 32.8393 12.6137C32.8142 12.6263 32.7953 12.6326 32.7701 12.6326Z" fill="black"/>
<path d="M32.575 12.9413C32.4995 12.9413 32.4366 12.9224 32.38 12.8845C32.2731 12.8025 32.2605 12.6763 32.2605 12.67H32.2857C32.2857 12.67 32.2982 12.7962 32.3926 12.8656C32.4618 12.9161 32.5561 12.9287 32.6756 12.9098L32.6819 12.935C32.6442 12.935 32.6064 12.9413 32.575 12.9413Z" fill="black"/>
<path d="M33.4053 10.1086L31.8077 10.5503C31.8077 10.5503 32.1411 11.2823 33.4178 11.2129C33.4682 11.2129 33.5185 11.2002 33.5625 11.175C33.6568 11.1245 33.7638 11.0173 33.6757 10.7838C33.531 10.4052 33.4053 10.1086 33.4053 10.1086Z" fill="#E8771D"/>
<path d="M33.2544 11.2253C32.9084 11.2253 32.4808 11.1622 32.1349 10.9161C31.8896 10.7457 31.8078 10.5564 31.8078 10.5564L31.8015 10.5501L33.4179 10.1021V10.1084C33.4179 10.1084 33.5437 10.4049 33.6883 10.7836C33.7261 10.8908 33.7701 11.0864 33.5688 11.1874C33.5248 11.2127 33.4745 11.2253 33.4242 11.2253C33.3676 11.2253 33.311 11.2253 33.2544 11.2253ZM31.8204 10.5564C31.8393 10.5943 31.9336 10.752 32.1411 10.9035C32.3613 11.0612 32.7638 11.2379 33.4179 11.2063C33.4682 11.2063 33.5122 11.1937 33.5563 11.1685C33.6506 11.118 33.7512 11.017 33.6632 10.7899C33.5374 10.4491 33.4179 10.1715 33.399 10.121L31.8204 10.5564Z" fill="#E8771D"/>
<path d="M33.2102 10.9977C33.1536 10.9977 33.1033 10.9977 33.0467 10.9914C32.9901 10.9851 32.9397 10.9788 32.8894 10.9662C32.7825 10.9472 32.6819 10.9157 32.575 10.8841C32.5246 10.8652 32.4743 10.8526 32.424 10.8336C32.3737 10.8147 32.3234 10.7958 32.2731 10.7769C32.3674 10.8273 32.468 10.8652 32.575 10.9031C32.6756 10.9409 32.7825 10.9725 32.8894 10.9914C32.9397 11.004 32.9963 11.0103 33.053 11.0166C33.1096 11.023 33.1599 11.023 33.2165 11.023C33.2731 11.023 33.3234 11.0103 33.38 10.9977C33.4303 10.9788 33.4806 10.9535 33.5247 10.922C33.4806 10.9535 33.4303 10.9788 33.38 10.9914C33.3171 10.9914 33.2668 10.9977 33.2102 10.9977Z" fill="#B23D13"/>
<path d="M31.2039 11.5911C31.1976 11.5406 31.1914 11.4964 31.1851 11.446C31.1788 11.3955 31.1788 11.3513 31.1725 11.3008C31.1725 11.2504 31.1662 11.2062 31.1662 11.1557C31.1599 11.1809 31.1599 11.2062 31.1599 11.2251C31.1599 11.2504 31.1599 11.2756 31.1599 11.2945C31.1599 11.345 31.1599 11.3892 31.1662 11.4397C31.1725 11.4901 31.1788 11.5343 31.1851 11.5848C31.1914 11.6353 31.2039 11.6794 31.2228 11.7236C31.2165 11.6984 31.2165 11.6731 31.2102 11.6542C31.2102 11.6416 31.2102 11.6163 31.2039 11.5911Z" fill="#B23D13"/>
<path d="M31.487 9.36342C30.965 9.48331 30.7134 9.79882 30.5939 10.0828C30.5059 10.2973 30.4744 10.5308 30.4996 10.7643C30.5185 10.9094 30.5436 11.124 30.5688 11.2312C30.6065 11.4016 30.7009 11.4016 30.7009 11.4016L30.9021 11.1113L33.3235 10.0007C33.3235 10.0071 32.531 9.11732 31.487 9.36342Z" fill="#6D8AE2"/>
<path d="M30.7007 11.4144C30.6944 11.4144 30.6 11.4081 30.5623 11.2377C30.5372 11.1305 30.512 10.9222 30.4931 10.7708C30.468 10.531 30.4994 10.2975 30.5875 10.083C30.7007 9.82425 30.946 9.4835 31.4868 9.3573C32.0277 9.23109 32.4994 9.41409 32.8013 9.58447C33.1284 9.77377 33.3296 9.99463 33.3296 10.0009L33.3359 10.0072L33.3233 10.0136L30.9019 11.1242L30.7007 11.4144ZM31.4868 9.36361V9.36992C30.9523 9.49612 30.7133 9.83056 30.6 10.083C30.512 10.2912 30.4805 10.5247 30.5057 10.7582C30.5246 10.9096 30.5497 11.1178 30.5749 11.2251C30.6063 11.3703 30.6755 11.3892 30.6944 11.3892L30.8956 11.0989L33.3045 9.99463C33.2164 9.89998 32.4554 9.13644 31.4868 9.36361Z" fill="#6D8AE2"/>
<path d="M31.7574 10.4168C31.4681 10.5872 31.2039 10.7891 30.9712 11.0352C30.858 11.1614 30.7511 11.2876 30.6945 11.4075C30.6945 11.4075 31.4303 10.6755 32.5813 10.6945C32.5813 10.6945 33.141 10.7134 33.7008 10.8838C33.7008 10.8838 34.5561 10.0887 34.1851 9.60911C33.902 9.23681 32.4177 10.0319 31.7574 10.4168Z" fill="#4862E2"/>
<path d="M30.6693 11.4456L30.6882 11.4014C30.7322 11.3005 30.8265 11.1743 30.9649 11.0291C31.1913 10.7894 31.4555 10.5811 31.7511 10.4107L31.7574 10.4171L31.7511 10.4107C32.1033 10.2025 32.6253 9.91855 33.1096 9.72293C33.7008 9.47683 34.0656 9.43897 34.1914 9.60304C34.3486 9.80496 34.3108 10.0889 34.0907 10.436C33.9272 10.6947 33.7071 10.8903 33.7071 10.8966L33.7008 10.9029H33.6945C33.1473 10.7326 32.5813 10.7136 32.5813 10.7136C31.4429 10.6884 30.707 11.4141 30.7008 11.4204L30.6693 11.4456ZM33.9272 9.521C33.7448 9.521 33.4744 9.59042 33.1222 9.73555C32.6442 9.93117 32.1222 10.2151 31.7699 10.4234C31.4743 10.5937 31.2102 10.802 30.9901 11.0418C30.8706 11.168 30.7888 11.2752 30.7385 11.3636C30.902 11.2185 31.5938 10.6632 32.5939 10.6821C32.6001 10.6821 33.1599 10.701 33.7071 10.8714C33.77 10.8146 34.5373 10.0637 34.1851 9.60935C34.1347 9.55256 34.0467 9.521 33.9272 9.521Z" fill="#4862E2"/>
<path d="M30.5876 13.5405C30.5687 13.5783 30.5562 13.6162 30.5499 13.6541C30.5373 13.6919 30.531 13.7298 30.531 13.774C30.531 13.7929 30.531 13.8118 30.531 13.8307C30.531 13.8497 30.531 13.8686 30.5373 13.8875C30.5373 13.8497 30.5436 13.8118 30.5436 13.774C30.5499 13.7361 30.5562 13.6982 30.5625 13.6604C30.5687 13.6225 30.5813 13.5846 30.6002 13.5468C30.6128 13.5089 30.6317 13.4774 30.6505 13.4395C30.6379 13.4521 30.6254 13.4711 30.6191 13.49C30.6002 13.5089 30.5939 13.5215 30.5876 13.5405Z" fill="#BBC9F7"/>
<path d="M33.1663 13.5909C33.1725 13.6224 33.1788 13.6603 33.1788 13.6918C33.1851 13.7234 33.1851 13.7613 33.1851 13.7928C33.1851 13.8244 33.1851 13.8622 33.1851 13.8938C33.1851 13.9253 33.1788 13.9632 33.1725 13.9947C33.1851 13.9632 33.1914 13.9253 33.1977 13.8938C33.204 13.8622 33.204 13.8244 33.204 13.7865C33.204 13.7234 33.1914 13.654 33.1663 13.5909Z" fill="#BBC9F7"/>
<path d="M26.9776 12.7647C26.9335 12.8152 26.8958 12.872 26.8581 12.9288C26.8392 12.954 26.8266 12.9855 26.8078 13.0171C26.7952 13.0486 26.7826 13.0802 26.77 13.1118C26.7889 13.0865 26.8078 13.055 26.8266 13.0297C26.8455 13.0045 26.8644 12.9729 26.8832 12.9477C26.8958 12.9351 26.9021 12.9224 26.9147 12.9098L26.9461 12.872L26.9587 12.853L26.9713 12.8341C26.9838 12.8215 26.9901 12.8089 27.0027 12.7962C27.0467 12.7458 27.0908 12.7016 27.1348 12.6511C27.1851 12.6069 27.2291 12.5628 27.2857 12.5249C27.2228 12.5501 27.1725 12.588 27.1159 12.6322C27.0719 12.67 27.0216 12.7142 26.9776 12.7647Z" fill="#CD2A21"/>
<path d="M24.512 8.82082C24.3988 8.90917 24.2919 8.99751 24.185 9.09847C24.0844 9.19943 23.9837 9.3004 23.902 9.41398C23.9523 9.3635 24.0026 9.31302 24.0529 9.26254C24.0781 9.2373 24.1032 9.21205 24.1284 9.18681L24.2039 9.1174C24.3108 9.02275 24.4177 8.93441 24.5309 8.84606C24.6441 8.75772 24.7636 8.682 24.8831 8.61259L24.9775 8.5621C25.0089 8.54317 25.0404 8.53055 25.0718 8.51162L25.1158 8.48638C25.1347 8.48007 25.1473 8.47376 25.1661 8.46745C25.1976 8.45483 25.229 8.4359 25.2605 8.42328C25.1284 8.46745 24.9963 8.52424 24.8705 8.59365C24.7448 8.65676 24.6253 8.73248 24.512 8.82082Z" fill="#CD2A21"/>
<path d="M24.1221 8.89668C24.1033 8.86513 24.0907 8.83358 24.0718 8.80203C24.0529 8.77048 24.0341 8.73893 24.0089 8.71368C24.0215 8.75155 24.0341 8.7831 24.0466 8.81465C24.0592 8.8462 24.0781 8.88406 24.0907 8.91561C24.1095 8.94717 24.1221 8.97872 24.141 9.01027C24.1599 9.04182 24.1787 9.07337 24.2039 9.09861C24.1913 9.06075 24.1787 9.0292 24.1662 8.99765C24.1536 8.9661 24.141 8.93455 24.1221 8.89668Z" fill="#CD2A21"/>
<path d="M24.4744 8.60627C24.4555 8.57472 24.4366 8.54317 24.4178 8.51162C24.3989 8.48007 24.38 8.44852 24.3549 8.42328C24.3674 8.46114 24.38 8.49269 24.3926 8.52424C24.4052 8.55579 24.424 8.59365 24.4366 8.6252C24.4555 8.65675 24.4744 8.6883 24.4932 8.71985C24.5121 8.7514 24.531 8.78295 24.5561 8.8082C24.5435 8.77033 24.531 8.73878 24.5184 8.70723C24.5058 8.66937 24.4869 8.63782 24.4744 8.60627Z" fill="#CD2A21"/>
<path d="M24.8579 8.36653C24.8391 8.33498 24.8265 8.30343 24.8076 8.27188C24.7888 8.24033 24.7699 8.20877 24.7448 8.18353C24.7573 8.22139 24.7699 8.25295 24.7825 8.2845C24.7951 8.31605 24.8139 8.35391 24.8265 8.38546C24.8454 8.41701 24.8579 8.44857 24.8768 8.48012C24.8957 8.51167 24.9145 8.54322 24.9397 8.56846C24.9271 8.5306 24.9145 8.49905 24.902 8.4675C24.8894 8.42964 24.8705 8.39808 24.8579 8.36653Z" fill="#CD2A21"/>
<path d="M29.3926 22.2044C29.3926 22.2738 29.3926 22.3432 29.3989 22.4126C29.4052 22.3432 29.4052 22.2738 29.4052 22.2044C29.4052 22.135 29.4052 22.0656 29.3989 21.9962C29.3989 22.0656 29.3926 22.135 29.3926 22.2044Z" fill="#BBC9F7"/>
<path d="M29.9774 22.2809C29.9774 22.3503 29.9774 22.426 29.9837 22.4954C29.99 22.426 29.99 22.3503 29.99 22.2809C29.99 22.2115 29.99 22.1358 29.9837 22.0663C29.9774 22.1421 29.9774 22.2115 29.9774 22.2809Z" fill="#BBC9F7"/>
<path d="M31.1159 22.1604C31.1096 22.1983 31.1096 22.2361 31.1096 22.274C31.1096 22.3118 31.1096 22.3497 31.1096 22.3876C31.1096 22.4254 31.1096 22.4633 31.1096 22.5012V22.5579C31.1096 22.5769 31.1096 22.5958 31.1159 22.6147C31.1159 22.5958 31.1159 22.5769 31.1222 22.5579V22.5012C31.1222 22.4633 31.1222 22.4254 31.1222 22.3876C31.1222 22.3497 31.1222 22.3118 31.1222 22.274C31.1159 22.2361 31.1159 22.1983 31.1159 22.1604Z" fill="#BBC9F7"/>
<path d="M32.072 22.192C32.0657 22.2298 32.0657 22.2677 32.0657 22.3119C32.0657 22.3497 32.0657 22.3876 32.0657 22.4317C32.0657 22.4696 32.0657 22.5075 32.0657 22.5516V22.6084C32.0657 22.6274 32.0657 22.6463 32.072 22.6652C32.072 22.6463 32.072 22.6274 32.0783 22.6084V22.5516C32.0783 22.5138 32.0783 22.4759 32.0783 22.4317C32.0783 22.3939 32.0783 22.356 32.0783 22.3119C32.0783 22.2677 32.072 22.2298 32.072 22.192Z" fill="#BBC9F7"/>
<path d="M33.248 22.1479C33.2417 22.1858 33.2417 22.23 33.2417 22.2678C33.2417 22.3057 33.2417 22.3499 33.2417 22.3877C33.2417 22.4256 33.2417 22.4698 33.2417 22.5076V22.5707C33.2417 22.5897 33.2417 22.6086 33.248 22.6338C33.248 22.6149 33.248 22.596 33.2543 22.5707V22.5076C33.2543 22.4698 33.2543 22.4256 33.2543 22.3877C33.2543 22.3499 33.2543 22.3057 33.2543 22.2678C33.2543 22.23 33.2543 22.1921 33.248 22.1479Z" fill="#BBC9F7"/>
<path d="M30.0215 28.2559C30.0089 28.2559 29.9964 28.2559 29.9838 28.2559H29.9146C29.8706 28.2622 29.8203 28.2622 29.7762 28.2685C29.7322 28.2749 29.6819 28.2875 29.6379 28.2938L29.5687 28.3127C29.5435 28.319 29.5247 28.3253 29.4995 28.338C29.4114 28.3695 29.3234 28.4137 29.2479 28.4642C29.336 28.4263 29.424 28.4011 29.5121 28.3758C29.6001 28.3506 29.6882 28.3316 29.7825 28.319C29.8265 28.3127 29.8706 28.3064 29.9209 28.3064C29.9649 28.3064 30.0089 28.3001 30.0593 28.3001C30.1536 28.3001 30.2416 28.3064 30.336 28.319C30.2479 28.2875 30.1536 28.2685 30.0593 28.2622L30.0215 28.2559Z" fill="#21314D"/>
<path d="M29.6755 27.9095L29.6692 27.7202L29.6503 26.9503L29.6126 25.4169C29.6 24.9058 29.5874 24.3947 29.5749 23.8835C29.5812 24.3947 29.5874 24.9058 29.5874 25.4169L29.6063 26.9503L29.6189 27.7202V27.9095V28.0041C29.6189 28.0357 29.6189 28.0672 29.6189 28.0988C29.6126 28.225 29.6063 28.3512 29.5874 28.4774C29.5686 28.6036 29.5434 28.7298 29.5057 28.8497L29.4742 28.938L29.4365 29.0264L29.361 29.203C29.2541 29.4365 29.1472 29.67 29.0403 29.8972L27.7509 32.68L27.1094 34.0745L26.4679 35.4691C26.688 35.0084 26.9082 34.5478 27.1283 34.0871L27.7824 32.6989C28.0025 32.2383 28.2164 31.7713 28.4365 31.3107L29.0843 29.9224C29.1912 29.6889 29.2981 29.4555 29.4051 29.222L29.4805 29.0453L29.5183 28.957L29.5497 28.8623C29.5874 28.7361 29.6126 28.6099 29.6315 28.4837C29.6503 28.3575 29.6629 28.225 29.6629 28.0988C29.6629 28.0672 29.6629 28.0357 29.6629 28.0041L29.6755 27.9095Z" fill="#21314D"/>
<path d="M33.9021 33.8663C33.8392 33.3741 33.7637 32.8819 33.7008 32.3897L33.4996 30.9131L33.3926 30.1748L33.3423 29.8025C33.336 29.7394 33.3235 29.6763 33.3109 29.6195C33.2983 29.5564 33.2857 29.4996 33.2731 29.4365C33.1599 28.9506 33.053 28.4648 32.9398 27.9789L32.6002 26.5275C32.487 26.0416 32.3738 25.5557 32.2543 25.0762C32.3612 25.5621 32.4681 26.0479 32.575 26.5338L32.8958 27.9915C33.0027 28.4774 33.1159 28.9633 33.2228 29.4491C33.2354 29.5122 33.248 29.569 33.2606 29.6321C33.2731 29.6952 33.2857 29.752 33.292 29.8151L33.3423 30.1874L33.4429 30.9257L33.6505 32.4023C33.7197 32.8945 33.7889 33.3867 33.858 33.8789L34.0719 35.3555C34.1474 35.8477 34.2165 36.3399 34.292 36.8321C34.2291 36.3399 34.1599 35.8477 34.097 35.3492L33.9021 33.8663Z" fill="#37476F"/>
<path d="M28.6191 15.3077C28.6065 15.2509 28.5814 15.1941 28.5562 15.1436C28.531 15.0931 28.4933 15.0426 28.4493 15.0048C28.4115 14.9606 28.3612 14.929 28.3109 14.9038C28.3486 14.9417 28.3864 14.9858 28.4178 15.03C28.4493 15.0742 28.4807 15.1184 28.5059 15.1688C28.531 15.2193 28.5562 15.2635 28.5751 15.3203C28.5876 15.3455 28.5939 15.3708 28.6065 15.396C28.6191 15.4212 28.6254 15.4528 28.6317 15.478C28.6317 15.4465 28.6317 15.4212 28.6317 15.3897C28.6317 15.3644 28.6254 15.3392 28.6191 15.3077Z" fill="#CD2A21"/>
<defs>
<linearGradient id="paint0_linear_1_10982" x1="32.7928" y1="35.7548" x2="32.9565" y2="44.0917" gradientUnits="userSpaceOnUse">
<stop stop-color="#AFE28F"/>
<stop offset="1" stop-color="#84CC6D"/>
</linearGradient>
<linearGradient id="paint1_linear_1_10982" x1="33.2079" y1="36.5402" x2="33.3583" y2="44.0837" gradientUnits="userSpaceOnUse">
<stop stop-color="#458A52"/>
<stop offset="1" stop-color="#2F7043"/>
</linearGradient>
</defs>
</svg>
