<svg width="32" height="32" viewBox="0 0 32 32" fill="none" xmlns="http://www.w3.org/2000/svg">
<g clip-path="url(#clip0_1_10846)">
<path d="M5.29736 11.0607H7.20716V12.7839H5.29736V11.0607Z" fill="#596C76"/>
<path d="M5.29736 11.0607H6.06647V12.7839H5.29736V11.0607Z" fill="#465A61"/>
<path d="M17.5598 11.0607H19.4696V12.7839H17.5598V11.0607Z" fill="#596C76"/>
<path d="M17.5598 11.0607H18.2598V12.7839H17.5598V11.0607Z" fill="#465A61"/>
<path d="M29.3211 22.6709H31.8358L32 22.5856V22.1762C32 21.6729 31.6975 21.2122 31.2309 21.0075L25.199 18.363C25.0003 18.2777 24.8274 18.1412 24.6892 17.962L21.051 13.2104C20.8091 12.8948 20.4202 12.6986 20.014 12.6986H4.05293C3.59492 12.6986 3.17148 12.9375 2.93816 13.3299L0.181474 17.9279C0.0604915 18.1241 0 18.3544 0 18.5762V21.9032L0.0864164 21.997L1.84067 21.9885C2.03079 21.9885 2.18634 22.142 2.18634 22.3297V24.7183C2.18634 24.906 2.03079 25.0595 1.84067 25.0595H0.0950581L0 25.1448V26.8595C0 27.5675 0.57899 28.1391 1.29625 28.1391H3.63813C3.62085 27.977 3.60356 27.8149 3.60356 27.6443C3.60356 25.5458 5.33189 23.8311 7.46638 23.8311C9.60086 23.8311 11.3292 25.5372 11.3292 27.6443C11.3292 27.8149 11.3206 27.977 11.2946 28.1391H18.8561C18.8388 27.977 18.8215 27.8149 18.8215 27.6443C18.8215 25.5458 20.5498 23.8311 22.6843 23.8311C24.8102 23.8311 26.5471 25.5372 26.5471 27.6443C26.5471 27.8149 26.5385 27.977 26.5126 28.1391H30.721C31.4383 28.1391 32.0173 27.5675 32.0173 26.8595V25.5714L31.879 25.4861H29.3384C29.1483 25.4861 28.9927 25.3325 28.9927 25.1448V23.0122C28.9754 22.8245 29.131 22.6709 29.3211 22.6709Z" fill="#FD3581"/>
<path d="M4.05293 12.6986C3.59492 12.6986 3.17148 12.9375 2.93816 13.3299L0.181474 17.9279C0.0604915 18.1241 0 18.3544 0 18.5762V21.9032H1.84067C2.08264 21.9032 2.27275 22.0909 2.27275 22.3297V24.7183C2.27275 24.9572 2.08264 25.1448 1.84067 25.1448H0V26.8595C0 27.5675 0.57899 28.1391 1.29625 28.1391H3.63813C3.62085 27.977 3.60356 27.8149 3.60356 27.6443C3.60356 27.414 3.62085 27.2007 3.66406 26.9789C3.66406 26.9363 3.65541 26.9021 3.65541 26.8595V19.9497H2.59249C2.35053 19.9497 2.16041 19.762 2.16041 19.5231V18.926C2.16041 18.8492 2.17769 18.7724 2.2209 18.7127L4.41588 15.0445C4.49365 14.9166 4.63192 14.8313 4.78747 14.8313H5.6862L6.58493 13.3299C6.81825 12.9375 7.2417 12.6986 7.6997 12.6986H4.05293Z" fill="#FE0364"/>
<path d="M10.3095 19.9496H14.7168C14.9587 19.9496 15.1488 19.762 15.1488 19.5231V15.2578C15.1488 15.0189 14.9587 14.8312 14.7168 14.8312H10.3095C10.0676 14.8312 9.87744 15.0189 9.87744 15.2578V19.5231C9.87744 19.762 10.0676 19.9496 10.3095 19.9496Z" fill="white"/>
<path d="M11.9514 19.5231V15.2578C11.9514 15.0189 12.1415 14.8312 12.3835 14.8312H10.3095C10.0676 14.8312 9.87744 15.0189 9.87744 15.2578V19.5231C9.87744 19.762 10.0676 19.9496 10.3095 19.9496H12.3835C12.1415 19.9496 11.9514 19.762 11.9514 19.5231Z" fill="#EAF6FF"/>
<path d="M8.14918 14.8312H4.78758C4.63203 14.8312 4.49377 14.908 4.41599 15.0445L2.22101 18.7127C2.17781 18.7809 2.16052 18.8492 2.16052 18.926V19.5231C2.16052 19.762 2.35064 19.9496 2.5926 19.9496H8.14918C8.39115 19.9496 8.58126 19.762 8.58126 19.5231V15.2578C8.58126 15.0274 8.39115 14.8312 8.14918 14.8312Z" fill="white"/>
<path d="M4.34686 19.5231V18.926C4.34686 18.8492 4.36414 18.7724 4.40735 18.7127L6.60233 15.0445C6.6801 14.9165 6.81837 14.8312 6.97392 14.8312H4.78758C4.63203 14.8312 4.49377 14.908 4.41599 15.0445L2.22101 18.7127C2.17781 18.7809 2.16052 18.8492 2.16052 18.926V19.5231C2.16052 19.762 2.35064 19.9496 2.5926 19.9496H4.77894C4.53698 19.9496 4.34686 19.762 4.34686 19.5231Z" fill="#EAF6FF"/>
<path d="M22.9869 19.2672L19.7204 15.0019C19.6426 14.8995 19.513 14.8312 19.3747 14.8312H16.8773C16.6353 14.8312 16.4452 15.0189 16.4452 15.2578V19.5231C16.4452 19.762 16.6353 19.9496 16.8773 19.9496H22.6412C22.9956 19.9496 23.203 19.5487 22.9869 19.2672Z" fill="white"/>
<path d="M18.2859 19.5231V15.2578C18.2859 15.0189 18.476 14.8312 18.7179 14.8312H16.8773C16.6353 14.8312 16.4452 15.0189 16.4452 15.2578V19.5231C16.4452 19.762 16.6353 19.9496 16.8773 19.9496H18.7179C18.476 19.9496 18.2859 19.762 18.2859 19.5231Z" fill="#EAF6FF"/>
<path d="M11.3991 27.927C11.5538 25.7793 9.91539 23.9145 7.73975 23.7618C5.5641 23.6092 3.67505 25.2265 3.52044 27.3742C3.36582 29.5219 5.00419 31.3867 7.17983 31.5394C9.35548 31.692 11.2445 30.0747 11.3991 27.927Z" fill="#596C76"/>
<path d="M5.70342 27.6444C5.70342 25.87 6.91325 24.3686 8.55517 23.8994C8.2095 23.797 7.83791 23.7458 7.46632 23.7458C5.28863 23.7458 3.51709 25.4861 3.51709 27.6444C3.51709 29.8026 5.27998 31.5429 7.46632 31.5429C7.84655 31.5429 8.2095 31.4917 8.55517 31.3893C6.90461 30.9201 5.70342 29.4273 5.70342 27.6444Z" fill="#465A61"/>
<path d="M7.46629 29.4187C8.459 29.4187 9.26375 28.6243 9.26375 27.6443C9.26375 26.6644 8.459 25.8699 7.46629 25.8699C6.47358 25.8699 5.66882 26.6644 5.66882 27.6443C5.66882 28.6243 6.47358 29.4187 7.46629 29.4187Z" fill="#EAF6FF"/>
<path d="M7.11198 27.6443C7.11198 26.9192 7.5527 26.2965 8.18354 26.0235C7.95886 25.9297 7.71689 25.8699 7.46628 25.8699C6.4725 25.8699 5.66882 26.6633 5.66882 27.6443C5.66882 28.6253 6.4725 29.4187 7.46628 29.4187C7.72553 29.4187 7.9675 29.3675 8.18354 29.2651C7.5527 28.9922 7.11198 28.3694 7.11198 27.6443Z" fill="#D8ECFE"/>
<path d="M22.6757 31.5429C24.8568 31.5429 26.6249 29.7974 26.6249 27.6444C26.6249 25.4913 24.8568 23.7458 22.6757 23.7458C20.4946 23.7458 18.7264 25.4913 18.7264 27.6444C18.7264 29.7974 20.4946 31.5429 22.6757 31.5429Z" fill="#596C76"/>
<path d="M20.9128 27.6444C20.9128 25.87 22.1226 24.3686 23.7645 23.8994C23.4188 23.797 23.0559 23.7458 22.6757 23.7458C20.498 23.7458 18.7264 25.4861 18.7264 27.6444C18.7264 29.8026 20.4893 31.5429 22.6757 31.5429C23.0559 31.5429 23.4188 31.4917 23.7645 31.3893C22.114 30.9201 20.9128 29.4273 20.9128 27.6444Z" fill="#465A61"/>
<path d="M22.6756 29.4187C23.6684 29.4187 24.4731 28.6243 24.4731 27.6444C24.4731 26.6644 23.6684 25.87 22.6756 25.87C21.6829 25.87 20.8782 26.6644 20.8782 27.6444C20.8782 28.6243 21.6829 29.4187 22.6756 29.4187Z" fill="#EAF6FF"/>
<path d="M22.3213 27.6444C22.3213 26.9193 22.7621 26.2965 23.3929 26.0235C23.1682 25.9297 22.9262 25.87 22.6756 25.87C21.6818 25.87 20.8782 26.6633 20.8782 27.6444C20.8782 28.6254 21.6818 29.4187 22.6756 29.4187C22.9349 29.4187 23.1769 29.3676 23.3929 29.2652C22.7621 28.9922 22.3213 28.3695 22.3213 27.6444Z" fill="#D8ECFE"/>
<path d="M20.6794 4.87604H15.2179V9.38875H21.1115V5.30257C21.1115 5.06371 20.9214 4.87604 20.6794 4.87604Z" fill="#FEA613"/>
<path d="M15.2179 4.87604H16.6178V9.38875H15.2179V4.87604Z" fill="#FE9901"/>
<path d="M7.7084 2.79455V2.42774C7.7084 1.81353 8.21826 1.31022 8.84046 1.31022H9.87746C10.4997 1.31022 11.0095 1.81353 11.0095 2.42774V2.79455H11.8737V2.42774C11.8737 1.34434 10.9749 0.457153 9.87746 0.457153H8.84046C7.74297 0.457153 6.84424 1.34434 6.84424 2.42774V2.79455H7.7084Z" fill="#D88A55"/>
<path d="M5.13314 3.45999L5.04672 2.70929H3.84553C3.60357 2.70929 3.41345 2.89696 3.41345 3.13582V9.38879H5.13314V3.45999Z" fill="#FD3581"/>
<path d="M14.8723 2.70929H13.6711L13.5847 3.46852V9.38879H15.3044V3.13582C15.3044 2.89696 15.1056 2.70929 14.8723 2.70929Z" fill="#FD3581"/>
<path d="M6.42932 9.38879H12.2797V3.52823L12.1933 2.70929H6.51574L6.42932 3.52823V9.38879Z" fill="#FD3581"/>
<path d="M5.04663 2.70929H6.51571V9.38879H5.04663V2.70929Z" fill="#FDB441"/>
<path d="M12.1934 2.70929H13.6624V9.38879H12.1934V2.70929Z" fill="#FDB441"/>
<path d="M5.04663 5.54144H6.51571V7.52056H5.04663V5.54144Z" fill="#FED402"/>
<path d="M12.1934 5.54144H13.6624V7.52056H12.1934V5.54144Z" fill="#FED402"/>
<path d="M22.6152 11.1461H1.84065C1.59869 11.1461 1.40857 10.9584 1.40857 10.7196V9.73C1.40857 9.49114 1.59869 9.30347 1.84065 9.30347H22.6152C22.8571 9.30347 23.0472 9.49114 23.0472 9.73V10.7196C23.0472 10.9584 22.8571 11.1461 22.6152 11.1461Z" fill="#8D9CA8"/>
<path d="M4.77881 10.438C4.53684 10.438 4.34673 10.2504 4.34673 10.0115V9.29492H1.84065C1.59869 9.29492 1.40857 9.4826 1.40857 9.72145V10.711C1.40857 10.9499 1.59869 11.1375 1.84065 11.1375H22.6152C22.8571 11.1375 23.0472 10.9499 23.0472 10.711V10.438H4.77881Z" fill="#7A8C98"/>
<path d="M14.7167 22.4151H13.4205C13.1785 22.4151 12.9884 22.2274 12.9884 21.9885V21.4767C12.9884 21.2378 13.1785 21.0502 13.4205 21.0502H14.7167C14.9587 21.0502 15.1488 21.2378 15.1488 21.4767V21.9885C15.1488 22.2274 14.9587 22.4151 14.7167 22.4151Z" fill="#E30256"/>
<path d="M18.1733 22.4151H16.877C16.6351 22.4151 16.4449 22.2274 16.4449 21.9885V21.4767C16.4449 21.2378 16.6351 21.0502 16.877 21.0502H18.1733C18.4152 21.0502 18.6054 21.2378 18.6054 21.4767V21.9885C18.6054 22.2274 18.4152 22.4151 18.1733 22.4151Z" fill="#E30256"/>
<path d="M0 25.1448H1.84067C2.08264 25.1448 2.27275 24.9572 2.27275 24.7183V22.3297C2.27275 22.0909 2.08264 21.9032 1.84067 21.9032H0V25.1448Z" fill="#FE9901"/>
<path d="M31.9999 22.5857H29.321C29.079 22.5857 28.8889 22.7734 28.8889 23.0122V25.1449C28.8889 25.3837 29.079 25.5714 29.321 25.5714H31.9999V22.5857Z" fill="white"/>
<path d="M30.2716 25.1449V23.0122C30.2716 22.7734 30.4617 22.5857 30.7037 22.5857H29.321C29.079 22.5857 28.8889 22.7734 28.8889 23.0122V25.1449C28.8889 25.3837 29.079 25.5714 29.321 25.5714H30.7037C30.4617 25.5714 30.2716 25.3837 30.2716 25.1449Z" fill="#EAF6FF"/>
</g>
<defs>
<clipPath id="clip0_1_10846">
<rect width="32" height="31.0857" fill="white" transform="translate(0 0.457153)"/>
</clipPath>
</defs>
</svg>
