<svg width="32" height="32" viewBox="0 0 32 32" fill="none" xmlns="http://www.w3.org/2000/svg">
<g clip-path="url(#clip0_1_4424)">
<path d="M27.9269 18.0362C27.9269 25.7481 21.6756 31.9999 13.9637 31.9999C6.25187 31.9999 0 25.7481 0 18.0362C0 10.3243 6.25187 4.07306 13.9637 4.07306C21.6756 4.07306 27.9269 10.3243 27.9269 18.0362Z" fill="#392E6E"/>
<path d="M27.9269 18.0362C27.9269 25.7481 21.6756 31.9999 13.9637 31.9999V4.07306C21.6756 4.07306 27.9269 10.3243 27.9269 18.0362Z" fill="#261E4D"/>
<path d="M18.6182 18.0362C18.6182 20.6068 16.5345 22.6912 13.9638 22.6912C11.3932 22.6912 9.30884 20.6068 9.30884 18.0362C9.30884 15.4656 11.3932 13.3818 13.9638 13.3818C16.5345 13.3818 18.6182 15.4656 18.6182 18.0362Z" fill="#FF7B49"/>
<path d="M18.6181 18.0362C18.6181 20.6068 16.5344 22.6912 13.9637 22.6912V13.3818C16.5344 13.3818 18.6181 15.4656 18.6181 18.0362Z" fill="#FD435B"/>
<path d="M13.0262 17.0988H14.9012V18.9738H13.0262V17.0988Z" fill="#392E6E"/>
<path d="M13.9637 17.0988H14.9012V18.9738H13.9637V17.0988Z" fill="#261E4D"/>
<path d="M6.08606 18.0365H4.21106C4.21106 12.6589 8.58606 8.28387 13.9637 8.28387V10.1589C9.61994 10.1589 6.08606 13.6928 6.08606 18.0365Z" fill="#261E4D"/>
<path d="M30.9012 3.73059V11.4168L29.9637 12.515L23.14 20.51L21.7144 19.2931L29.0262 10.7256V3.73059H30.9012Z" fill="#FEBF01"/>
<path d="M30.9011 3.73059V11.4168L29.9636 12.515V3.73059H30.9011Z" fill="#F48E06"/>
<path d="M27.927 0H32.0001V4.61625H27.927V0Z" fill="#A4FBFE"/>
<path d="M29.9636 0H31.9999V4.61625H29.9636V0Z" fill="#66BCF3"/>
</g>
<defs>
<clipPath id="clip0_1_4424">
<rect width="32" height="32" fill="white"/>
</clipPath>
</defs>
</svg>
