<svg width="32" height="32" viewBox="0 0 32 32" fill="none" xmlns="http://www.w3.org/2000/svg">
<path d="M15.9353 3.24997V0" stroke="#EF1616"/>
<path d="M17.9353 1.49999L15.9353 0V1.49999H17.9353Z" fill="#EF1616"/>
<path d="M6.6093 11.5425C4.73576 19.6095 2.69884 25.9167 0.489921 31.0749C0.302275 31.513 0.622135 31.9999 1.09874 31.9999H30.9011C31.3778 31.9999 31.6976 31.513 31.51 31.0749C29.3014 25.9177 27.2647 19.6113 25.3907 11.5425H6.6093Z" fill="#A54AF4"/>
<path d="M2.22784 29.1916C2.19575 29.1916 2.16313 29.1858 2.1313 29.1733C1.99484 29.12 1.92748 28.9662 1.98079 28.8297C2.94182 26.3699 3.86189 23.6755 4.71564 20.8213C4.75768 20.681 4.90554 20.6014 5.04571 20.6432C5.18602 20.6851 5.26572 20.8329 5.22381 20.9732C4.36608 23.8412 3.44124 26.5494 2.4749 29.0227C2.43405 29.1277 2.33393 29.1916 2.22784 29.1916ZM5.26943 20.1453C5.2449 20.1453 5.21996 20.1419 5.19517 20.1347C5.05446 20.0938 4.9737 19.9467 5.01455 19.806L5.03457 19.7368C5.07489 19.5959 5.22195 19.5146 5.36265 19.5548C5.50349 19.5951 5.58491 19.7421 5.5446 19.8829L5.52391 19.9543C5.49036 20.07 5.3844 20.1453 5.26943 20.1453Z" fill="#B171F4"/>
<path d="M31.51 31.0747C29.3014 25.9176 27.2647 19.6111 25.3907 11.5423H24.3781C26.1652 18.9804 28.0979 24.8776 30.1837 29.7486C30.3714 30.1867 30.0515 30.6736 29.5749 30.6736H0.660062C0.603436 30.8079 0.546811 30.942 0.489921 31.0747C0.302275 31.5129 0.622135 31.9997 1.09874 31.9997H30.9011C31.3778 31.9998 31.6976 31.5129 31.51 31.0747Z" fill="#893ADD"/>
<path d="M31.5099 31.0747C29.3014 25.9176 27.2646 19.6111 25.3907 11.5423H24.883C26.714 19.2945 28.6992 25.3967 30.8467 30.4116C31.0344 30.8498 30.7145 31.3366 30.2379 31.3366H0.436035C0.43577 31.6866 0.71651 31.9997 1.09856 31.9997H30.901C31.3777 31.9998 31.6976 31.5129 31.5099 31.0747Z" fill="#6C2BC1"/>
<path d="M8.84281 11.5425C7.32839 20.0983 5.67392 26.6746 3.87146 31.9999H28.1283C26.3262 26.6756 24.6719 20.1002 23.1571 11.5425H8.84281Z" fill="#B171F4"/>
<path d="M4.30842 30.6736C4.16374 31.1238 4.01813 31.5663 3.87146 31.9997H28.1283C27.9816 31.5663 27.836 31.1239 27.6913 30.6736H4.30842Z" fill="#A54AF4"/>
<path d="M4.09266 31.3369C4.01919 31.5598 3.94546 31.7812 3.87146 31.9999H28.1283C28.0543 31.7812 27.9807 31.5598 27.9071 31.3369H4.09266Z" fill="#893ADD"/>
<path d="M11.1181 11.5425C10.085 20.0983 8.95662 26.6746 7.72717 31.9999H24.2728C23.0436 26.6756 21.9152 20.1002 20.8819 11.5425H11.1181Z" fill="#A54AF4"/>
<path d="M8.02515 30.6736C7.92649 31.1238 7.82716 31.5663 7.72717 31.9997H24.2728C24.1728 31.5663 24.0734 31.1239 23.9748 30.6736H8.02515Z" fill="#893ADD"/>
<path d="M7.87796 31.3369C7.82784 31.5598 7.77758 31.7812 7.72705 31.9999H24.2726C24.2221 31.7812 24.172 31.5598 24.1217 31.3369H7.87796Z" fill="#6C2BC1"/>
<path d="M13.6844 11.5425C13.1944 20.0983 12.6591 26.6746 12.076 31.9999H19.9238C19.3408 26.6756 18.8056 20.1002 18.3154 11.5425H13.6844Z" fill="#B171F4"/>
<path d="M27.5817 11.5424C27.5817 11.5424 19.3215 9.46118 16.6076 3.39684C16.3708 2.86772 15.6288 2.86772 15.3921 3.39684C12.6782 9.46118 4.41809 11.5424 4.41809 11.5424H27.5817Z" fill="#EF7816"/>
<path d="M16.28 3.06198C16.1032 2.98056 15.8966 2.98056 15.7198 3.06198C14.1876 9.38426 9.05078 11.5425 9.05078 11.5425H22.949C22.949 11.5425 17.8122 9.38426 16.28 3.06198Z" fill="#FFA91A"/>
<path d="M15.9106 3.00587C15.4053 9.37058 13.6833 11.5422 13.6833 11.5422H18.3161C18.3161 11.5422 16.5942 9.37058 16.0889 3.00587C16.0299 2.99804 15.9697 2.99804 15.9106 3.00587Z" fill="#EF7816"/>
<path d="M15.9999 14.8451C14.7058 24.429 9.67334 31.9999 9.67334 31.9999H22.3264C22.3264 31.9999 17.2939 24.429 15.9999 14.8451Z" fill="#8C3F0A"/>
<path d="M15.9999 14.8451C14.7058 24.429 9.67334 31.9999 9.67334 31.9999H22.3264C22.3264 31.9999 17.2939 24.429 15.9999 14.8451Z" fill="#8C3F0A"/>
<path d="M10.4762 30.6735C9.98643 31.5287 9.67346 31.9996 9.67346 31.9996H22.3265C22.3265 31.9996 22.0135 31.5287 21.5238 30.6735H10.4762Z" fill="#7C3108"/>
<path d="M10.087 31.3368C9.8269 31.7686 9.67334 31.9999 9.67334 31.9999H22.3264C22.3264 31.9999 22.1727 31.7686 21.9128 31.3368H10.087Z" fill="#6D2E03"/>
<path d="M16 14.8452C16 14.8452 14.8387 24.9831 8.75897 27.275C8.42558 27.4007 8.25027 27.7662 8.36299 28.1042L9.66152 32C9.66152 32 16 24.8056 16 14.8452Z" fill="#FFC91D"/>
<path d="M15.9999 14.8451C15.9999 14.8451 17.1612 24.983 23.2409 27.2749C23.5743 27.4007 23.7496 27.7661 23.6369 28.1042L22.3383 31.9999C22.3383 31.9999 15.9999 24.8056 15.9999 14.8451Z" fill="#FFC91D"/>
<path d="M6.73443 16.5523C8.01374 16.5523 9.05077 15.5153 9.05077 14.236H4.41797C4.41797 15.5151 5.45513 16.5523 6.73443 16.5523Z" fill="#EF7816"/>
<path d="M11.367 16.5523C12.6463 16.5523 13.6833 15.5153 13.6833 14.236H9.05066C9.05066 15.5151 10.0878 16.5523 11.367 16.5523Z" fill="#FFA91A"/>
<path d="M13.6833 14.236C13.6833 15.5153 14.7204 16.5523 15.9997 16.5523C17.279 16.5523 18.316 15.5153 18.316 14.236H13.6833Z" fill="#EF7816"/>
<path d="M18.316 14.236C18.316 15.5153 19.3531 16.5523 20.6324 16.5523C21.9117 16.5523 22.9487 15.5153 22.9487 14.236H18.316Z" fill="#FFA91A"/>
<path d="M22.949 14.236C22.949 15.5153 23.986 16.5523 25.2653 16.5523C26.5446 16.5523 27.5816 15.5153 27.5816 14.236H22.949Z" fill="#EF7816"/>
<path d="M9.05064 11.5425H4.41785V14.2357H9.05064V11.5425Z" fill="#F79219"/>
<path d="M27.5817 11.5425H22.9489V14.2357H27.5817V11.5425Z" fill="#F79219"/>
<path d="M13.6835 11.5425H9.05066V14.2357H13.6835V11.5425Z" fill="#FFC91D"/>
<path d="M18.3163 11.5425H13.6835V14.2357H18.3163V11.5425Z" fill="#F79219"/>
<path d="M22.949 11.5425H18.3162V14.2357H22.949V11.5425Z" fill="#FFC91D"/>
</svg>
