<svg width="19" height="36" viewBox="0 0 19 36" fill="none" xmlns="http://www.w3.org/2000/svg">
<g clip-path="url(#clip0_1_4560)">
<path d="M21.0989 1.85905C21.0989 1.85905 22.6813 3.76833 22.8446 5.55201C23.0078 7.3294 23.9498 11.1856 20.3893 10.6769C16.8289 10.1682 16.2198 7.1661 15.7237 6.47524C15.2276 5.78439 14.4238 3.04607 16.4019 2.04119C18.3799 1.0363 20.4709 1.18076 21.0989 1.85905Z" fill="#EEA987"/>
<path d="M35.573 22.3838C35.5228 22.8046 34.066 24.4125 33.2496 24.2366C33.0299 24.1864 32.6029 23.9917 32.1005 23.7216C30.7504 23.0056 28.854 21.8123 28.854 21.8123C28.854 21.8123 28.584 25.0531 28.6091 26.9561C28.6154 27.2889 28.6845 27.8039 28.8038 28.432C25.9404 31.252 22.0095 32.9979 17.6704 32.9979C17.4694 32.9979 17.2685 32.9917 17.0675 32.9854C17.1617 30.3287 17.2685 27.1822 17.2685 26.5667C17.2685 25.455 15.5102 21.4732 15.5102 21.4732C15.5102 21.4732 12.6531 27.5967 12.4333 27.917C12.2135 28.2373 11.5793 29.0349 11.5793 29.0349C11.5793 29.0349 10.0471 26.887 8.83521 26.5353L9.3564 25.7376C9.3564 25.7376 12.6657 17.7362 13.0613 16.9951C13.4569 16.254 17.212 13.3147 17.3627 13.2896C17.5071 13.2645 22.8823 12.6741 22.8823 12.6741C22.8823 12.6741 26.8509 13.7607 27.6923 14.5018C28.1507 14.91 29.1869 15.9903 30.0283 16.8884C30.7316 17.6358 31.2967 18.2575 31.2967 18.2575L31.5919 17.0203L33.5259 17.4473L34.7065 17.7048C34.7065 17.7048 35.6233 21.963 35.573 22.3838Z" fill="#5785CF"/>
<path d="M17.0801 8.15211C17.6766 9.50242 17.6704 13.2519 17.6704 13.2519L22.2167 15.4375L22.6625 12.6929C22.449 12.4668 22.2857 12.0774 22.1539 11.6441C22.0471 11.2861 21.9655 10.8967 21.909 10.5638C21.8148 10.0174 21.7771 9.59663 21.7771 9.59663C21.7771 9.59663 16.4835 6.80179 17.0801 8.15211Z" fill="#EEA987"/>
<path d="M20.9357 14.6525L21.0487 16.7439L17.0361 13.5032L17.6641 12.6678L20.9357 14.6525Z" fill="#466AA6"/>
<path d="M11.573 29.0286L5.18058 33.5129C5.18058 33.5129 3.82422 32.6148 4.00632 32.2065L8.82893 26.5352C8.83521 26.5352 10.2606 26.7613 11.573 29.0286Z" fill="#EEA987"/>
<path d="M11.7363 29.2672C11.7363 29.2672 9.38776 27.1758 8.89168 26.9309C8.39561 26.6859 8.31397 26.6231 8.50864 26.328C8.7033 26.0328 9.05495 25.9448 9.17426 25.5366C9.29984 25.1284 10.1727 25.725 10.6185 26.1647C11.0644 26.6106 12.3956 27.9672 12.5086 27.9672C12.6217 27.9672 12.4082 28.4257 12.1507 28.7083C11.8995 28.9972 11.7363 29.2672 11.7363 29.2672Z" fill="#466AA6"/>
<path d="M5.73312 30.4982C5.73312 30.4982 4.6719 31.4466 4.50864 31.5157C4.34537 31.5848 3.50393 31.4906 3.27159 31.3587C3.03925 31.2268 1.87127 30.762 1.78964 30.8876C1.70801 31.0132 2.21036 31.6727 2.60597 31.8171C2.97017 31.949 3.05809 32.0935 3.03297 32.1877C3.00785 32.2819 2.85086 32.7027 2.69388 32.7843C1.8022 33.2428 0.251179 33.7076 0.150709 33.8457C0.0565171 33.9839 0.219782 34.254 1.05495 33.9588C1.89011 33.6636 2.58085 33.4124 2.5055 33.5066C2.43014 33.6008 1.10518 34.3356 1.05495 34.3607C1.01099 34.3859 -0.0690716 35.0202 2.1765e-06 35.2714C0.0690759 35.5164 0.313974 35.5352 0.313974 35.5352C0.313974 35.5352 0.307694 35.7739 0.47096 35.8744C0.627945 35.9748 1.08634 35.8178 1.40659 35.6671C1.40659 35.6671 1.29357 35.9309 1.55102 35.9874C1.80848 36.0439 3.52276 35.3342 3.69859 35.3028C3.87441 35.2714 5.26217 34.3796 5.68917 33.6322C6.11617 32.8911 7.15856 31.7795 7.15856 31.7795L5.73312 30.4982Z" fill="#EEA987"/>
<path d="M17.08 8.86183C17.08 8.86183 14.6059 6.62596 14.2229 4.62247C13.8399 2.61898 14.9639 2.29867 14.9639 2.29867C14.9639 2.29867 14.5683 0.615492 16.5337 0.23238C18.4992 -0.150733 20.3391 0.847872 21.0172 0.47732C21.6954 0.11305 21.7331 0 21.7331 0L22.1538 3.47313C22.1538 3.47313 21.5949 1.74599 19.3595 2.6441C17.6263 3.34124 17.8775 4.26448 18.0722 5.28193C18.2668 6.29937 18.8634 7.0656 18.8634 7.0656L17.4945 7.01535C17.4945 7.02163 16.5651 7.42987 17.08 8.86183Z" fill="#323557"/>
<path d="M17.7017 6.33708C17.4631 5.96025 16.7033 5.28195 16.4332 5.8786C16.1632 6.46897 16.9607 7.82556 17.5698 7.78788C18.1789 7.75648 17.9152 6.67623 17.7017 6.33708Z" fill="#EEA987"/>
<path d="M17.9467 9.70343C17.9655 9.72855 19.2277 11.4683 22.1539 11.6441C22.0472 11.2861 21.9655 10.8967 21.909 10.5639C21.7583 10.6267 20.1821 11.2045 17.9467 9.70343Z" fill="#A87860"/>
</g>
<defs>
<clipPath id="clip0_1_4560">
<rect width="36" height="36" fill="white"/>
</clipPath>
</defs>
</svg>
