<svg width="32" height="34" viewBox="0 0 32 34" fill="none" xmlns="http://www.w3.org/2000/svg">
<path d="M20.2232 3.75294C20.1749 3.60895 20.0945 3.47337 19.9798 3.35856C19.5835 2.96227 18.9411 2.96227 18.5448 3.35856C18.1485 3.75486 18.1485 4.39728 18.5448 4.79358C18.6594 4.90825 18.795 4.98877 18.9392 5.03695L20.2232 3.75294Z" fill="#58595B"/>
<path d="M22.6413 6.81587L20.356 4.1936L19.3795 5.1701L22.0018 7.4554C22.0505 7.49793 22.1239 7.49545 22.1697 7.44962L22.6357 6.98366C22.6812 6.93796 22.6838 6.8646 22.6413 6.81587Z" fill="#58595B"/>
<path d="M19.3793 5.16996L18.9379 5.03796L20.2238 3.75201L20.3558 4.19346L19.3793 5.16996Z" fill="#58595B"/>
<path d="M30.7221 33.9999H1.27811C1.12601 33.9999 1.00281 33.8767 1.00281 33.7246V23.2137H30.9975V33.7246C30.9974 33.8767 30.8742 33.9999 30.7221 33.9999Z" fill="#FCC4AE"/>
<path d="M1.82853 32.3022C1.67656 32.3022 1.55322 32.1788 1.55322 32.0269V28.035C1.55322 27.883 1.67656 27.7597 1.82853 27.7597C1.98049 27.7597 2.10383 27.883 2.10383 28.035V32.0269C2.10383 32.1788 1.98063 32.3022 1.82853 32.3022ZM1.82853 27.2091C1.67656 27.2091 1.55322 27.0857 1.55322 26.9338V26.7961C1.55322 26.6441 1.67656 26.5208 1.82853 26.5208C1.98049 26.5208 2.10383 26.6441 2.10383 26.7961V26.9338C2.10383 27.0857 1.98063 27.2091 1.82853 27.2091Z" fill="#FFD2C0"/>
<path d="M29.6209 23.2137V32.3481C29.6209 32.5002 29.4977 32.6234 29.3456 32.6234H1.00281V33.7246C1.00281 33.8767 1.12601 33.9999 1.27811 33.9999H30.7222C30.8743 33.9999 30.9975 33.8767 30.9975 33.7246V23.2137H29.6209Z" fill="#F2AD97"/>
<path d="M30.3091 23.2137V33.0364C30.3091 33.1885 30.1859 33.3117 30.0338 33.3117H1.00281V33.7246C1.00281 33.8767 1.12601 33.9999 1.27811 33.9999H30.7222C30.8743 33.9999 30.9975 33.8767 30.9975 33.7246V23.2137H30.3091Z" fill="#E59076"/>
<path d="M31.5192 20.9959H0.480992C0.328887 20.9959 0.205688 21.1191 0.205688 21.2712V22.9382C0.205688 23.0903 0.328887 23.2135 0.480992 23.2135H31.5191C31.6712 23.2135 31.7944 23.0903 31.7944 22.9382V21.2712C31.7945 21.1192 31.6712 20.9959 31.5192 20.9959Z" fill="#995222"/>
<path d="M31.5192 20.9959H0.480992C0.328887 20.9959 0.205688 21.1191 0.205688 21.2712V22.9382C0.205688 23.0903 0.328887 23.2135 0.480992 23.2135H31.5191C31.6712 23.2135 31.7944 23.0903 31.7944 22.9382V21.2712C31.7945 21.1192 31.6712 20.9959 31.5192 20.9959Z" fill="#995222"/>
<path d="M31.5192 20.9959H31.1063V22.2499C31.1063 22.402 30.9831 22.5252 30.831 22.5252H0.205688V22.9382C0.205688 23.0903 0.328887 23.2135 0.480992 23.2135H31.5191C31.6712 23.2135 31.7944 23.0903 31.7944 22.9382V21.2712C31.7945 21.1191 31.6712 20.9959 31.5192 20.9959Z" fill="#8C3F0A"/>
<path d="M7.73308 28.8137C8.85837 28.8137 9.7706 27.9015 9.7706 26.7762C9.7706 25.6509 8.85837 24.7387 7.73308 24.7387C6.60779 24.7387 5.69556 25.6509 5.69556 26.7762C5.69556 27.9015 6.60779 28.8137 7.73308 28.8137Z" fill="#377DE2"/>
<path d="M12.7434 23.7709H12.741C12.3695 23.7702 12.0309 23.9833 11.8709 24.3187L9.44439 29.403H5.98879L3.5942 24.3228C3.43507 23.9853 3.09521 23.7701 2.72204 23.7709C2.02125 23.7723 1.55709 24.4984 1.84988 25.1351L5.28016 32.5937V33.9997H10.1532V32.6532L13.6155 25.1355C13.9086 24.4988 13.4444 23.7723 12.7434 23.7709Z" fill="#377DE2"/>
<path d="M8.78635 25.0345C8.97287 25.3422 9.08216 25.7019 9.08216 26.0879C9.08216 27.2132 8.16995 28.1254 7.04464 28.1254C6.65853 28.1254 6.29898 28.0161 5.99133 27.8296C6.3484 28.4187 6.99371 28.8136 7.7329 28.8136C8.8582 28.8136 9.77042 27.9014 9.77042 26.7761C9.77042 26.0369 9.37536 25.3918 8.78635 25.0345Z" fill="#2266D3"/>
<path d="M12.9828 23.8021C13.037 24.0066 13.0263 24.2321 12.9269 24.4476L9.46452 31.9654V33.0366C9.46452 33.1887 9.34132 33.3119 9.18921 33.3119H5.27991V34.0001H10.1529V32.6536L13.6153 25.1359C13.8734 24.5753 13.5438 23.9454 12.9828 23.8021Z" fill="#2266D3"/>
<path d="M24.2681 28.8137C25.3934 28.8137 26.3056 27.9015 26.3056 26.7762C26.3056 25.6509 25.3934 24.7387 24.2681 24.7387C23.1428 24.7387 22.2306 25.6509 22.2306 26.7762C22.2306 27.9015 23.1428 28.8137 24.2681 28.8137Z" fill="#A54AF4"/>
<path d="M29.2784 23.7709H29.276C28.9045 23.7702 28.5659 23.9833 28.406 24.3187L25.9794 29.403H22.5238L20.1292 24.3228C19.9701 23.9853 19.6302 23.7701 19.2571 23.7709C18.5563 23.7723 18.0921 24.4984 18.3849 25.1351L21.8152 32.5937V33.9997H26.6882V32.6532L30.1505 25.1355C30.4436 24.4988 29.9794 23.7723 29.2784 23.7709Z" fill="#A54AF4"/>
<path d="M24.2681 28.8137C25.3934 28.8137 26.3056 27.9015 26.3056 26.7762C26.3056 25.6509 25.3934 24.7387 24.2681 24.7387C23.1428 24.7387 22.2306 25.6509 22.2306 26.7762C22.2306 27.9015 23.1428 28.8137 24.2681 28.8137Z" fill="#A54AF4"/>
<path d="M29.2784 23.7709H29.276C28.9045 23.7702 28.5659 23.9833 28.406 24.3187L25.9794 29.403H22.5238L20.1292 24.3228C19.9701 23.9853 19.6302 23.7701 19.2571 23.7709C18.5563 23.7723 18.0921 24.4984 18.3849 25.1351L21.8152 32.5937V33.9997H26.6882V32.6532L30.1505 25.1355C30.4436 24.4988 29.9794 23.7723 29.2784 23.7709Z" fill="#A54AF4"/>
<path d="M25.3218 25.0345C25.5083 25.3422 25.6176 25.7019 25.6176 26.0879C25.6176 27.2132 24.7053 28.1254 23.58 28.1254C23.1939 28.1254 22.8344 28.0161 22.5267 27.8296C22.8838 28.4187 23.5291 28.8136 24.2683 28.8136C25.3936 28.8136 26.3058 27.9014 26.3058 26.7761C26.3058 26.0369 25.9108 25.3918 25.3218 25.0345Z" fill="#893ADD"/>
<path d="M29.5182 23.8021C29.5724 24.0066 29.5617 24.2321 29.4623 24.4476L25.9999 31.9654V33.0366C25.9999 33.1887 25.8767 33.3119 25.7246 33.3119H21.8152V34.0001H26.6882V32.6536L30.1505 25.1359C30.4088 24.5753 30.0792 23.9454 29.5182 23.8021Z" fill="#893ADD"/>
<path d="M16.0007 28.8137C17.1259 28.8137 18.0382 27.9015 18.0382 26.7762C18.0382 25.6509 17.1259 24.7387 16.0007 24.7387C14.8754 24.7387 13.9631 25.6509 13.9631 26.7762C13.9631 27.9015 14.8754 28.8137 16.0007 28.8137Z" fill="#FFC91D"/>
<path d="M21.0108 23.7709H21.0085C20.6369 23.7702 20.2983 23.9833 20.1384 24.3187L17.7118 29.403H14.2562L11.8617 24.3228C11.7025 23.9853 11.3627 23.7701 10.9895 23.7709C10.2887 23.7723 9.82455 24.4984 10.1173 25.1351L13.5476 32.5937V33.4092C13.5476 33.7353 13.812 33.9997 14.1381 33.9997H17.83C18.1561 33.9997 18.4205 33.7353 18.4205 33.4092V32.6532L21.8828 25.1355C22.176 24.4988 21.7119 23.7723 21.0108 23.7709Z" fill="#FFC91D"/>
<path d="M21.0108 23.7709H21.0085C20.6369 23.7702 20.2983 23.9833 20.1384 24.3186L17.7118 29.4029H14.2562L11.8617 24.3227C11.7025 23.9852 11.3627 23.7701 10.9895 23.7709C10.2887 23.7723 9.82455 24.4984 10.1173 25.135L13.5476 32.5937V33.9996H18.4206V32.6531L21.883 25.1354C22.176 24.4988 21.7119 23.7723 21.0108 23.7709Z" fill="#FFC91D"/>
<path d="M17.0541 25.0345C17.2406 25.3422 17.3499 25.7019 17.3499 26.0879C17.3499 27.2132 16.4376 28.1254 15.3123 28.1254C14.9262 28.1254 14.5667 28.0161 14.259 27.8296C14.6161 28.4187 15.2614 28.8136 16.0006 28.8136C17.1259 28.8136 18.0381 27.9014 18.0381 26.7761C18.0381 26.0369 17.6432 25.3918 17.0541 25.0345Z" fill="#FFA91A"/>
<path d="M21.2505 23.8021C21.3047 24.0066 21.294 24.2321 21.1946 24.4476L17.7322 31.9654V33.0366C17.7322 33.1887 17.609 33.3119 17.4569 33.3119H13.5475V34.0001H18.4205V32.6536L21.8828 25.1359C22.1411 24.5753 21.8115 23.9454 21.2505 23.8021Z" fill="#FFA91A"/>
<path d="M14.4965 4.07504C15.6218 4.07504 16.534 3.16281 16.534 2.03752C16.534 0.912229 15.6218 0 14.4965 0C13.3712 0 12.459 0.912229 12.459 2.03752C12.459 3.16281 13.3712 4.07504 14.4965 4.07504Z" fill="#E63950"/>
<path d="M20.0926 9.01765L21.1733 6.7731C21.4998 6.09475 21.0065 5.30807 20.2537 5.3067C19.8608 5.30601 19.5024 5.53038 19.3311 5.88387L18.6829 7.22322L17.4139 5.6734C16.891 5.03483 16.1093 4.66455 15.2839 4.66455H12.5943C12.0222 4.66455 11.4645 4.84267 10.9984 5.17441L9.04153 6.56648C8.58384 6.89203 8.23682 7.34986 8.04672 7.87844L7.41146 9.64547C7.17786 10.2952 7.65937 10.9799 8.34983 10.9799C8.75714 10.9799 9.12357 10.7321 9.27526 10.3541L10.109 8.27625L11.3674 7.37725L10.8442 11.4626C10.7808 11.9576 10.7714 12.4581 10.8163 12.9552L11.1703 16.8799L9.53735 19.4986C9.12825 20.1546 9.60948 21.003 10.3825 20.9884L10.4066 20.988C10.744 20.9816 11.0489 20.8107 11.2272 20.5315C11.6924 19.8028 12.6198 18.3551 13.1562 17.518C13.4239 17.1003 13.5736 16.6181 13.5897 16.1221L13.6629 13.8627L15.8044 16.1704L14.8197 19.5664C14.6149 20.2727 15.1449 20.9781 15.8802 20.9781H15.9077C16.4119 20.9781 16.8504 20.6529 16.9945 20.1765C17.3189 19.1043 17.8873 17.2262 18.1806 16.2573C18.299 15.8661 18.2373 15.4427 18.0123 15.1014L15.6532 11.5222L16.2052 7.47361L17.8139 9.32392C18.4625 10.0701 19.6636 9.90894 20.0926 9.01765Z" fill="#E63950"/>
<path d="M14.4965 4.07504C15.6218 4.07504 16.534 3.16281 16.534 2.03752C16.534 0.912229 15.6218 0 14.4965 0C13.3712 0 12.459 0.912229 12.459 2.03752C12.459 3.16281 13.3712 4.07504 14.4965 4.07504Z" fill="#E63950"/>
<path d="M20.0926 9.01765L21.1733 6.7731C21.4998 6.09475 21.0065 5.30807 20.2537 5.3067C19.8608 5.30601 19.5024 5.53038 19.3311 5.88387L18.6829 7.22322L17.4139 5.6734C16.891 5.03483 16.1093 4.66455 15.2839 4.66455H12.5943C12.0222 4.66455 11.4645 4.84267 10.9984 5.17441L9.04153 6.56648C8.58384 6.89203 8.23682 7.34986 8.04672 7.87844L7.41146 9.64547C7.17786 10.2952 7.65937 10.9799 8.34983 10.9799C8.75714 10.9799 9.12357 10.7321 9.27526 10.3541L10.109 8.27625L11.3674 7.37725L10.8442 11.4626C10.7808 11.9576 10.7714 12.4581 10.8163 12.9552L11.1703 16.8799L9.53735 19.4986C9.12825 20.1546 9.60948 21.003 10.3825 20.9884L10.4066 20.988C10.744 20.9816 11.0489 20.8107 11.2272 20.5315C11.6924 19.8028 12.6198 18.3551 13.1562 17.518C13.4239 17.1003 13.5736 16.6181 13.5897 16.1221L13.6629 13.8627L15.8044 16.1704L14.8197 19.5664C14.6149 20.2727 15.1449 20.9781 15.8802 20.9781H15.9077C16.4119 20.9781 16.8504 20.6529 16.9945 20.1765C17.3189 19.1043 17.8873 17.2262 18.1806 16.2573C18.299 15.8661 18.2373 15.4427 18.0123 15.1014L15.6532 11.5222L16.2052 7.47361L17.8139 9.32392C18.4625 10.0701 19.6636 9.90894 20.0926 9.01765Z" fill="#E63950"/>
<path d="M15.5499 0.295837C15.7364 0.603489 15.8457 0.963172 15.8457 1.34915C15.8457 2.47445 14.9335 3.38667 13.8082 3.38667C13.4221 3.38667 13.0625 3.27737 12.7549 3.09085C13.112 3.68 13.7573 4.07493 14.4965 4.07493C15.6218 4.07493 16.534 3.16271 16.534 2.03741C16.534 1.29822 16.1389 0.653043 15.5499 0.295837Z" fill="#D10028"/>
<path d="M15.6527 11.5223L16.2047 7.47366L15.9089 7.17785C15.7478 7.01679 15.4723 7.10971 15.4414 7.33532L14.9993 10.578C14.9768 10.743 15.0148 10.9107 15.1065 11.0497L17.3237 14.4135C17.5485 14.7546 17.6103 15.1777 17.4919 15.5688C17.1987 16.5377 16.6302 18.4161 16.3057 19.4884C16.1616 19.9649 15.7231 20.29 15.219 20.29H15.1914C15.0656 20.29 14.9464 20.268 14.8352 20.2303C14.9815 20.6564 15.3833 20.9782 15.8797 20.9782H15.9072C16.4115 20.9782 16.8499 20.6531 16.994 20.1767C17.3184 19.1044 17.8869 17.226 18.1801 16.2571C18.2985 15.866 18.2369 15.4429 18.0119 15.1018L15.6527 11.5223Z" fill="#D10028"/>
<path d="M20.5429 5.3493C20.6127 5.5807 20.6031 5.83976 20.485 6.08491L19.4043 8.32946C19.0401 9.08613 18.1204 9.31408 17.4535 8.90966L17.8134 9.32372C18.4625 10.0702 19.6634 9.90888 20.0925 9.01772L21.1733 6.77317C21.4557 6.18664 21.1244 5.52013 20.5429 5.3493Z" fill="#D10028"/>
<path d="M21.8573 10.1034V13.1217C21.6191 12.9347 21.2843 12.8177 20.9132 12.8177C20.192 12.8177 19.6052 13.2578 19.6052 13.7988C19.6052 14.3397 20.192 14.7798 20.9132 14.7798C21.6343 14.7798 22.2212 14.3397 22.2212 13.7988C22.2212 13.7915 22.2212 10.9929 22.2212 10.9929L25.3742 9.8801V12.5153C25.1359 12.3284 24.8012 12.2114 24.4301 12.2114C23.7089 12.2114 23.1221 12.6514 23.1221 13.1924C23.1221 13.7334 23.7089 14.1735 24.4301 14.1735C25.1512 14.1735 25.738 13.7334 25.738 13.1924V8.81165C25.738 8.64179 25.568 8.52451 25.4093 8.58494L22.0137 9.87666C21.9194 9.91245 21.8573 10.0027 21.8573 10.1034Z" fill="#FFC91D"/>
<path d="M5.42082 3.95379V7.29102C5.15419 7.08193 4.7795 6.95088 4.36407 6.95088C3.55688 6.95088 2.90015 7.4434 2.90015 8.04893C2.90015 8.65446 3.55688 9.14698 4.36407 9.14698C5.17126 9.14698 5.828 8.65446 5.828 8.04893C5.828 8.04067 5.828 5.58703 5.828 5.58703L7.17836 6.32498C7.2688 6.3744 7.37919 6.30901 7.37919 6.20591V4.94957C7.37919 4.85004 7.32468 4.75837 7.23714 4.71088L5.62124 3.83445C5.53081 3.78545 5.42082 3.85097 5.42082 3.95379Z" fill="#FFC91D"/>
</svg>
