<svg width="26" height="34" viewBox="0 0 26 34" fill="none" xmlns="http://www.w3.org/2000/svg">
<path d="M23.7552 23.1995C23.2909 22.5068 23.0555 21.5991 23.1658 20.6967C23.1944 20.4623 23.2092 20.2232 23.2092 19.9804C23.2092 16.9137 20.8656 15.619 17.9746 15.619C15.0835 15.619 12.7399 16.9137 12.7399 19.9804C12.7399 20.2232 12.7548 20.4623 12.7833 20.6967C12.8936 21.5991 12.6581 22.5068 12.1939 23.1995C11.3712 24.4269 10.887 25.9272 10.887 27.5481C10.887 31.7004 14.0602 33.7225 17.9746 33.7225C21.8889 33.7225 25.0622 31.7004 25.0622 27.5481C25.0622 25.9273 24.5779 24.4269 23.7552 23.1995Z" fill="#8C3F0A"/>
<path d="M13.5252 22.3295C13.5073 22.3295 13.4889 22.3276 13.4707 22.3238C13.3248 22.2939 13.2309 22.1514 13.2608 22.0055C13.3197 21.7187 13.3495 21.4262 13.3495 21.136C13.3495 20.9667 13.3393 20.7968 13.3189 20.6311C13.2928 20.4166 13.2794 20.1975 13.2794 19.9802C13.2794 19.02 13.536 18.2214 14.0418 17.6062C14.1365 17.4913 14.3063 17.4746 14.4213 17.5692C14.5363 17.6639 14.5529 17.8338 14.4583 17.9488C14.0339 18.4648 13.8186 19.1482 13.8186 19.9802C13.8186 20.1758 13.8306 20.3728 13.8541 20.5657C13.8771 20.7531 13.8887 20.945 13.8887 21.136C13.8887 21.4624 13.8551 21.7915 13.7889 22.1139C13.7629 22.2415 13.6504 22.3295 13.5252 22.3295ZM15.0705 17.3557C14.9779 17.3557 14.8879 17.308 14.8377 17.2225C14.7623 17.094 14.8053 16.9288 14.9338 16.8535C14.9568 16.84 14.98 16.8267 15.0032 16.8136C15.1329 16.7405 15.2975 16.7863 15.3705 16.9162C15.4435 17.0459 15.3976 17.2103 15.2679 17.2834L15.2067 17.3186C15.1638 17.3438 15.1169 17.3557 15.0705 17.3557Z" fill="#995222"/>
<path d="M23.7554 23.1996C23.291 22.5069 23.0556 21.5991 23.1659 20.6968C23.1945 20.4623 23.2093 20.2233 23.2093 19.9805C23.2093 18.3037 22.5079 17.1579 21.4003 16.4626C21.7746 17.077 21.9873 17.8373 21.9873 18.7585C21.9873 19.0012 21.9725 19.2403 21.9439 19.4748C21.8336 20.3771 22.0692 21.2849 22.5334 21.9776C23.356 23.205 23.8403 24.7052 23.8403 26.3262C23.8403 30.4786 20.667 32.5005 16.7527 32.5005C14.8991 32.5005 13.2123 32.0463 11.9493 31.1279C13.1994 32.867 15.4298 33.7225 17.9747 33.7225C21.8891 33.7225 25.0623 31.7006 25.0623 27.5482C25.0623 25.9273 24.578 24.427 23.7554 23.1996Z" fill="#7C3108"/>
<path d="M23.7553 23.1992C23.291 22.5065 23.0556 21.5987 23.1659 20.6964C23.1945 20.4619 23.2093 20.2229 23.2093 19.9801C23.2093 18.4967 22.6599 17.4289 21.7665 16.7207C22.2921 17.3882 22.5983 18.2628 22.5983 19.3691C22.5983 19.6118 22.5835 19.8509 22.5549 20.0854C22.4446 20.9877 22.6802 21.8955 23.1443 22.5882C23.967 23.8156 24.4513 25.3159 24.4513 26.9368C24.4513 31.0892 21.278 33.1111 17.3637 33.1111C15.3346 33.1111 13.5061 32.5663 12.2141 31.4646C13.5003 32.9767 15.6004 33.7221 17.9747 33.7221C21.889 33.7221 25.0623 31.7002 25.0623 27.5478C25.0623 25.9269 24.578 24.4266 23.7553 23.1992Z" fill="#6D2E03"/>
<path d="M19.6244 0H16.325C15.9875 0 15.714 0.273549 15.714 0.611003V4.24493C15.714 5.03457 16.142 5.72255 16.7776 6.09466L16.4465 19.803C16.4431 19.9402 16.5535 20.0533 16.6908 20.0533H19.2585C19.3958 20.0533 19.5062 19.9402 19.5028 19.803L19.1717 6.09466C19.8072 5.72255 20.2353 5.03457 20.2353 4.24493V0.611003C20.2354 0.273549 19.9619 0 19.6244 0Z" fill="#FFA91A"/>
<path d="M19.9145 0.0762329C19.9616 0.162922 19.9909 0.260801 19.9909 0.366365V4.00029C19.9909 4.7898 19.5629 5.47792 18.9273 5.84988L19.2584 19.5582C19.2618 19.6955 19.1514 19.8086 19.0141 19.8086H16.4469C16.4469 19.9431 16.5554 20.053 16.6908 20.053H19.2586C19.3958 20.053 19.5062 19.94 19.5029 19.8026L19.1717 6.09431C19.8073 5.72234 20.2353 5.03422 20.2353 4.24472V0.610793C20.2353 0.379038 20.1047 0.179774 19.9145 0.0762329Z" fill="#F79219"/>
<path d="M17.9748 26.097C19.3246 26.097 20.4188 25.0028 20.4188 23.653C20.4188 22.3032 19.3246 21.209 17.9748 21.209C16.625 21.209 15.5308 22.3032 15.5308 23.653C15.5308 25.0028 16.625 26.097 17.9748 26.097Z" fill="#58595B"/>
<path d="M19.3691 21.6474C19.6449 22.0431 19.8076 22.5232 19.8076 23.042C19.8076 24.3918 18.7134 25.486 17.3636 25.486C16.8448 25.486 16.3647 25.3233 15.969 25.0476C16.4105 25.6813 17.1435 26.097 17.9746 26.097C19.3244 26.097 20.4186 25.0028 20.4186 23.653C20.4186 22.8219 20.0029 22.0891 19.3691 21.6474Z" fill="#414042"/>
<path d="M19.6244 29.6476H16.3251C16.1902 29.6476 16.0807 29.5381 16.0807 29.4032V28.417C16.0807 28.282 16.1902 28.1725 16.3251 28.1725H19.6244C19.7594 28.1725 19.8689 28.282 19.8689 28.417V29.4032C19.8689 29.5383 19.7594 29.6476 19.6244 29.6476Z" fill="#FFA91A"/>
<path d="M19.6244 28.173V29.1592C19.6244 29.2941 19.5149 29.4036 19.38 29.4036H16.0807C16.0807 29.5386 16.1902 29.648 16.3251 29.648H19.6246C19.7595 29.648 19.869 29.5386 19.869 29.4036V28.4174C19.8688 28.2823 19.7594 28.173 19.6244 28.173Z" fill="#F79219"/>
<path d="M17.2415 29.0452C17.1671 29.0452 17.1067 28.9848 17.1067 28.9104V5.81149L16.4997 3.36937C16.4818 3.29711 16.5258 3.2239 16.598 3.20597C16.6701 3.18804 16.7435 3.23199 16.7614 3.30425L17.3724 5.76242C17.3751 5.77307 17.3763 5.78399 17.3763 5.79491V28.9104C17.3763 28.9848 17.3159 29.0452 17.2415 29.0452Z" fill="#FFD2C0"/>
<path d="M17.7303 29.045C17.6559 29.045 17.5955 28.9846 17.5955 28.9102V5.80722L16.8646 1.89489C16.8509 1.82168 16.8992 1.75131 16.9724 1.73756C17.0456 1.7234 17.1159 1.77207 17.1297 1.84528L17.8628 5.76988C17.8643 5.7781 17.8651 5.78633 17.8651 5.79468V28.9102C17.8651 28.9846 17.8047 29.045 17.7303 29.045Z" fill="#FFD2C0"/>
<path d="M18.219 29.045C18.1446 29.045 18.0842 28.9846 18.0842 28.9102V5.79468C18.0842 5.78632 18.085 5.7781 18.0865 5.76987L18.8197 1.84527C18.8333 1.7722 18.9031 1.7234 18.977 1.73755C19.0502 1.7513 19.0985 1.82168 19.0847 1.89489L18.3539 5.80722V28.9102C18.3539 28.9846 18.2936 29.045 18.219 29.045Z" fill="#FFD2C0"/>
<path d="M18.7081 29.045C18.6336 29.045 18.5732 28.9846 18.5732 28.9102V5.79472C18.5732 5.7838 18.5746 5.77288 18.5772 5.76223L19.1882 3.30406C19.2061 3.23166 19.279 3.18771 19.3516 3.20578C19.4238 3.22371 19.4678 3.29692 19.4498 3.36918L18.8429 5.8113V28.9102C18.8429 28.9846 18.7825 29.045 18.7081 29.045Z" fill="#FFD2C0"/>
<path d="M20.7104 1.97607C20.7103 1.97607 20.71 1.97607 20.7099 1.97607L19.158 1.96947C19.0835 1.9692 19.0234 1.90853 19.0237 1.83411C19.024 1.75969 19.0877 1.70199 19.159 1.69983L20.711 1.70644C20.7854 1.7067 20.8455 1.76737 20.8452 1.84179C20.845 1.91608 20.7846 1.97607 20.7104 1.97607Z" fill="#414042"/>
<path d="M20.8684 2.22168C21.0803 2.22168 21.2521 2.04989 21.2521 1.83798C21.2521 1.62607 21.0803 1.45428 20.8684 1.45428C20.6565 1.45428 20.4847 1.62607 20.4847 1.83798C20.4847 2.04989 20.6565 2.22168 20.8684 2.22168Z" fill="#6D2E03"/>
<path d="M19.0354 2.08254C19.1704 2.08254 19.2799 1.97311 19.2799 1.83812C19.2799 1.70312 19.1704 1.59369 19.0354 1.59369C18.9005 1.59369 18.791 1.70312 18.791 1.83812C18.791 1.97311 18.9005 2.08254 19.0354 2.08254Z" fill="#6D2E03"/>
<path d="M20.7105 3.44214C20.7104 3.44214 20.7101 3.44214 20.7098 3.44214L19.4023 3.43553C19.3279 3.43513 19.2678 3.37446 19.2682 3.30004C19.2686 3.22575 19.3289 3.16589 19.403 3.16589C19.4031 3.16589 19.4034 3.16589 19.4037 3.16589L20.7112 3.1725C20.7856 3.1729 20.8457 3.23357 20.8453 3.30799C20.8449 3.38228 20.7846 3.44214 20.7105 3.44214Z" fill="#414042"/>
<path d="M20.8684 3.68805C21.0803 3.68805 21.2521 3.51626 21.2521 3.30435C21.2521 3.09244 21.0803 2.92065 20.8684 2.92065C20.6565 2.92065 20.4847 3.09244 20.4847 3.30435C20.4847 3.51626 20.6565 3.68805 20.8684 3.68805Z" fill="#6D2E03"/>
<path d="M19.402 3.54867C19.537 3.54867 19.6464 3.43924 19.6464 3.30424C19.6464 3.16925 19.537 3.05981 19.402 3.05981C19.267 3.05981 19.1576 3.16925 19.1576 3.30424C19.1576 3.43924 19.267 3.54867 19.402 3.54867Z" fill="#6D2E03"/>
<path d="M15.2392 1.97614C15.165 1.97614 15.1046 1.91614 15.1044 1.84186C15.1041 1.76743 15.1641 1.70677 15.2387 1.7065L16.7904 1.69989C16.7906 1.69989 16.7908 1.69989 16.791 1.69989C16.8651 1.69989 16.9255 1.75988 16.9258 1.83417C16.9261 1.90859 16.8661 1.96926 16.7915 1.96953L15.2397 1.97614C15.2396 1.97614 15.2395 1.97614 15.2392 1.97614Z" fill="#414042"/>
<path d="M15.0811 2.22168C15.293 2.22168 15.4648 2.04989 15.4648 1.83798C15.4648 1.62607 15.293 1.45428 15.0811 1.45428C14.8692 1.45428 14.6974 1.62607 14.6974 1.83798C14.6974 2.04989 14.8692 2.22168 15.0811 2.22168Z" fill="#6D2E03"/>
<path d="M16.9141 2.08261C17.0491 2.08261 17.1585 1.97317 17.1585 1.83818C17.1585 1.70318 17.0491 1.59375 16.9141 1.59375C16.7791 1.59375 16.6697 1.70318 16.6697 1.83818C16.6697 1.97317 16.7791 2.08261 16.9141 2.08261Z" fill="#6D2E03"/>
<path d="M15.2392 3.44214C15.165 3.44214 15.1048 3.38228 15.1044 3.30799C15.104 3.23357 15.1641 3.1729 15.2385 3.1725L16.546 3.16589C16.5461 3.16589 16.5464 3.16589 16.5467 3.16589C16.6208 3.16589 16.6811 3.22575 16.6815 3.30004C16.6819 3.37446 16.6218 3.43513 16.5473 3.43553L15.2399 3.44214C15.2397 3.44214 15.2395 3.44214 15.2392 3.44214Z" fill="#414042"/>
<path d="M15.081 3.68811C15.2929 3.68811 15.4647 3.51632 15.4647 3.30441C15.4647 3.0925 15.2929 2.92072 15.081 2.92072C14.8691 2.92072 14.6973 3.0925 14.6973 3.30441C14.6973 3.51632 14.8691 3.68811 15.081 3.68811Z" fill="#6D2E03"/>
<path d="M16.5475 3.54867C16.6825 3.54867 16.792 3.43924 16.792 3.30424C16.792 3.16925 16.6825 3.05981 16.5475 3.05981C16.4125 3.05981 16.3031 3.16925 16.3031 3.30424C16.3031 3.43924 16.4125 3.54867 16.5475 3.54867Z" fill="#6D2E03"/>
<path d="M11.1496 10.3152C9.28814 10.3152 7.7791 11.8243 7.7791 13.6857V28.6349C7.7791 29.0561 7.43774 29.3975 7.0167 29.3975C6.59566 29.3975 6.25429 29.0561 6.25429 28.6349V23.6126C6.24364 23.6161 6.23407 23.6215 6.22301 23.6245L1.73298 24.8276C1.72193 24.8306 1.71101 24.8306 1.69995 24.833V29.5767C1.69995 32.0196 3.68045 34.0001 6.12338 34.0001C8.56631 34.0001 10.5468 32.0197 10.5468 29.5767V12.7442C10.5468 11.9995 11.1504 11.396 11.895 11.396H13.9641V10.3152H11.1496Z" fill="#FFC91D"/>
<path d="M11.8948 10.7217C10.7779 10.7217 9.87246 11.6272 9.87246 12.744V28.9023C9.87246 31.3452 7.89209 33.3257 5.44903 33.3257C4.39932 33.3257 3.4355 32.9593 2.677 32.3484C3.48781 33.3551 4.7299 33.9998 6.12313 33.9998C8.56606 33.9998 10.5466 32.0195 10.5466 29.5764V12.744C10.5466 11.9994 11.1501 11.3958 11.8948 11.3958H13.9638V10.7217H11.8948Z" fill="#FFA91A"/>
<path d="M5.89598 22.4051L1.40595 23.6082C1.06917 23.6984 0.869368 24.0445 0.959697 24.3813C1.04989 24.718 1.39597 24.9178 1.73275 24.8275L6.22279 23.6244C6.55957 23.5342 6.75937 23.1881 6.66904 22.8513C6.57884 22.5147 6.23276 22.3149 5.89598 22.4051Z" fill="#F79219"/>
<path d="M14.2334 9.97595H14.966C15.0404 9.97595 15.1008 10.0364 15.1008 10.1108V11.6001C15.1008 11.6745 15.0404 11.7349 14.966 11.7349H14.2334C14.0844 11.7349 13.9637 11.6143 13.9637 11.4653V10.2456C13.9637 10.0966 14.0845 9.97595 14.2334 9.97595Z" fill="#8C3F0A"/>
<path d="M9.29225 22.4117H8.0573C7.98288 22.4117 7.92249 22.3513 7.92249 22.2769C7.92249 22.2025 7.98288 22.1421 8.0573 22.1421H9.29225C9.36667 22.1421 9.42707 22.2025 9.42707 22.2769C9.42707 22.3513 9.36667 22.4117 9.29225 22.4117Z" fill="#EF7816"/>
<path d="M7.81387 22.9056C8.16122 22.9056 8.4428 22.624 8.4428 22.2766C8.4428 21.9293 8.16122 21.6477 7.81387 21.6477C7.46652 21.6477 7.18494 21.9293 7.18494 22.2766C7.18494 22.624 7.46652 22.9056 7.81387 22.9056Z" fill="#F79219"/>
<path d="M9.2925 20.8852H8.05755C7.98313 20.8852 7.92273 20.8248 7.92273 20.7504C7.92273 20.6759 7.98313 20.6155 8.05755 20.6155H9.2925C9.36692 20.6155 9.42732 20.6759 9.42732 20.7504C9.42732 20.8248 9.36692 20.8852 9.2925 20.8852Z" fill="#EF7816"/>
<path d="M7.81387 21.3795C8.16122 21.3795 8.4428 21.0979 8.4428 20.7506C8.4428 20.4032 8.16122 20.1216 7.81387 20.1216C7.46652 20.1216 7.18494 20.4032 7.18494 20.7506C7.18494 21.0979 7.46652 21.3795 7.81387 21.3795Z" fill="#F79219"/>
<path d="M9.29225 19.3594H8.0573C7.98288 19.3594 7.92249 19.299 7.92249 19.2246C7.92249 19.1502 7.98288 19.0898 8.0573 19.0898H9.29225C9.36667 19.0898 9.42707 19.1502 9.42707 19.2246C9.42707 19.299 9.36667 19.3594 9.29225 19.3594Z" fill="#EF7816"/>
<path d="M7.81387 19.8534C8.16122 19.8534 8.4428 19.5719 8.4428 19.2245C8.4428 18.8772 8.16122 18.5956 7.81387 18.5956C7.46652 18.5956 7.18494 18.8772 7.18494 19.2245C7.18494 19.5719 7.46652 19.8534 7.81387 19.8534Z" fill="#F79219"/>
<path d="M9.29225 17.8328H8.0573C7.98288 17.8328 7.92249 17.7724 7.92249 17.698C7.92249 17.6236 7.98288 17.5632 8.0573 17.5632H9.29225C9.36667 17.5632 9.42707 17.6236 9.42707 17.698C9.42707 17.7724 9.36667 17.8328 9.29225 17.8328Z" fill="#EF7816"/>
<path d="M7.81375 18.3271C8.1611 18.3271 8.44268 18.0456 8.44268 17.6982C8.44268 17.3509 8.1611 17.0693 7.81375 17.0693C7.4664 17.0693 7.18481 17.3509 7.18481 17.6982C7.18481 18.0456 7.4664 18.3271 7.81375 18.3271Z" fill="#F79219"/>
<path d="M9.29225 16.3072H8.0573C7.98288 16.3072 7.92249 16.2468 7.92249 16.1724C7.92249 16.0979 7.98288 16.0375 8.0573 16.0375H9.29225C9.36667 16.0375 9.42707 16.0979 9.42707 16.1724C9.42707 16.2468 9.36667 16.3072 9.29225 16.3072Z" fill="#EF7816"/>
<path d="M7.81387 16.8013C8.16122 16.8013 8.4428 16.5197 8.4428 16.1724C8.4428 15.825 8.16122 15.5435 7.81387 15.5435C7.46652 15.5435 7.18494 15.825 7.18494 16.1724C7.18494 16.5197 7.46652 16.8013 7.81387 16.8013Z" fill="#F79219"/>
<path d="M7.84467 28.3198H10.473C10.6915 28.3198 10.8687 28.1427 10.8687 27.9241C10.8687 27.7056 10.6915 27.5284 10.473 27.5284H7.84467C7.62613 27.5284 7.44897 27.7056 7.44897 27.9241C7.44897 28.1427 7.62613 28.3198 7.84467 28.3198Z" fill="#F79219"/>
<path d="M1.72272 28.3198H6.20561C6.42415 28.3198 6.60131 28.1427 6.60131 27.9241C6.60131 27.7056 6.42415 27.5284 6.20561 27.5284H1.72272C1.50418 27.5284 1.32703 27.7056 1.32703 27.9241C1.32703 28.1427 1.50418 28.3198 1.72272 28.3198Z" fill="#F79219"/>
<path d="M5.98354 25.0191H4.74859C4.67417 25.0191 4.61377 24.9587 4.61377 24.8843C4.61377 24.8098 4.67417 24.7495 4.74859 24.7495H5.98354C6.05796 24.7495 6.11836 24.8098 6.11836 24.8843C6.11836 24.9587 6.05796 25.0191 5.98354 25.0191Z" fill="#EF7816"/>
<path d="M6.22683 25.5132C6.57418 25.5132 6.85577 25.2316 6.85577 24.8842C6.85577 24.5369 6.57418 24.2553 6.22683 24.2553C5.87948 24.2553 5.5979 24.5369 5.5979 24.8842C5.5979 25.2316 5.87948 25.5132 6.22683 25.5132Z" fill="#F79219"/>
<path d="M5.98354 26.5451H4.74859C4.67417 26.5451 4.61377 26.4847 4.61377 26.4103C4.61377 26.3359 4.67417 26.2755 4.74859 26.2755H5.98354C6.05796 26.2755 6.11836 26.3359 6.11836 26.4103C6.11836 26.4847 6.05796 26.5451 5.98354 26.5451Z" fill="#EF7816"/>
<path d="M6.22671 27.0389C6.57406 27.0389 6.85565 26.7574 6.85565 26.41C6.85565 26.0627 6.57406 25.7811 6.22671 25.7811C5.87936 25.7811 5.59778 26.0627 5.59778 26.41C5.59778 26.7574 5.87936 27.0389 6.22671 27.0389Z" fill="#F79219"/>
</svg>
